<svg width="45" height="45" xmlns="http://www.w3.org/2000/svg"><g fill="none" fill-rule="evenodd"><rect stroke="#A8A8A8" stroke-width="2" x="1" y="1" width="43" height="43" rx="21.5"/><path d="M14.953 28.531h-2.258v-8.703L10 20.664v-1.836l4.71-1.687h.243v11.39zm10.11-8.351c0 .552-.139 1.041-.415 1.468a2.98 2.98 0 0 1-1.14 1.024c.552.266.99.631 1.312 1.098.323.466.485 1.014.485 1.644 0 1.01-.344 1.809-1.032 2.395-.687.586-1.622.878-2.804.878-1.183 0-2.12-.294-2.813-.882-.692-.589-1.039-1.386-1.039-2.39 0-.631.162-1.18.485-1.65a3.24 3.24 0 0 1 1.304-1.093 2.95 2.95 0 0 1-1.136-1.024 2.664 2.664 0 0 1-.41-1.468c0-.97.322-1.741.968-2.317.646-.575 1.524-.863 2.633-.863 1.104 0 1.98.285 2.629.855.648.57.973 1.346.973 2.325zm-2.024 5.07c0-.495-.143-.89-.43-1.188-.286-.296-.671-.445-1.156-.445-.479 0-.862.147-1.148.442-.287.294-.43.691-.43 1.191 0 .484.14.875.422 1.172.281.297.672.445 1.172.445.49 0 .873-.143 1.152-.43.279-.286.418-.682.418-1.187zm-.234-4.96c0-.444-.117-.8-.352-1.067-.234-.269-.565-.403-.992-.403-.422 0-.75.13-.984.39-.235.261-.352.62-.352 1.08 0 .452.117.817.352 1.093.234.276.565.414.992.414.427 0 .756-.138.988-.414.232-.276.348-.64.348-1.094zm10.301 1.66H36v1.97h-2.894V27h-2.204v-3.08H28v-1.97h2.902V19h2.204v2.95z" fill="#A8A8A8" fill-rule="nonzero"/></g></svg>