<svg xmlns="http://www.w3.org/2000/svg" viewBox="0 0 49.248001 49.248001"><path d="M20.04 22.803c.628 0 1.16-.248 1.57-.717.644-.732.927-1.936.76-3.215-.302-2.286-1.933-4.185-3.638-4.235h-.068a2.01 2.01 0 0 0-1.55.715c-.638.725-.904 1.87-.737 3.146.3 2.283 1.965 4.256 3.635 4.307h.027zm1.86 6.887a50.41 50.41 0 0 1-.52-.355 5.91 5.91 0 0 0-1.655-.254h-.072c-2.625 0-4.93 1.593-4.93 3.407 0 1.97 1.973 3.518 4.492 3.518 3.322 0 5.006-1.145 5.006-3.404 0-.214-.024-.435-.075-.655-.225-.88-1.03-1.427-2.245-2.255zM24.625 0C11.025 0 0 11.023 0 24.623c0 13.6 11.025 24.625 24.625 24.625 13.598 0 24.623-11.025 24.623-24.625S38.222 0 24.625 0zm-2.24 38.022c-.983.283-2.042.428-3.155.428a14.45 14.45 0 0 1-3.54-.424c-2.15-.54-3.74-1.57-4.48-2.895a3.684 3.684 0 0 1-.482-1.815c0-.652.156-1.312.463-1.967 1.18-2.51 4.284-4.197 7.723-4.197h.1c-.28-.49-.416-1-.416-1.536 0-.268.035-.54.105-.814-3.606-.084-6.306-2.725-6.306-6.207 0-2.46 1.965-4.855 4.776-5.824.842-.292 1.7-.44 2.543-.44h7.713c.264 0 .494.17.576.42a.605.605 0 0 1-.22.68l-1.726 1.248a.62.62 0 0 1-.357.115h-.616c.8.955 1.266 2.316 1.266 3.848 0 1.692-.855 3.29-2.41 4.507-1.2.936-1.25 1.19-1.25 1.73.016.294.854 1.25 1.775 1.903 2.152 1.523 2.953 3.014 2.953 5.508 0 2.595-1.977 4.847-5.034 5.734zm17.42-13.23a.606.606 0 0 1-.606.604h-4.384v4.385c0 .337-.27.608-.607.608h-1.25a.605.605 0 0 1-.606-.607v-4.384h-4.386a.606.606 0 0 1-.605-.605v-1.25c0-.333.273-.606.605-.606h4.385V18.55c0-.335.27-.606.607-.606h1.248c.336 0 .607.27.607.607v4.384h4.383c.334 0 .607.273.607.607v1.25z" fill="#dcdcdc"/></svg>