<svg width="30" height="30" viewBox="0 0 30 30" xmlns="http://www.w3.org/2000/svg"><title>Reddit</title><g fill="#DCDCDC" fill-rule="evenodd"><path d="M15 30C6.716 30 0 23.284 0 15 0 6.716 6.716 0 15 0c8.284 0 15 6.716 15 15 0 8.284-6.716 15-15 15zm9.028-12.158a3.197 3.197 0 0 0 1.425-2.675c0-1.755-1.38-3.183-3.079-3.183-.596 0-1.147.181-1.62.485-1.463-.851-3.306-1.377-5.315-1.45l1.158-3.332L19 8.264c-.008.079-.022.157-.022.237a2.404 2.404 0 0 0 2.402 2.403A2.404 2.404 0 0 0 23.78 8.5 2.404 2.404 0 0 0 21.38 6.1a2.39 2.39 0 0 0-2.036 1.148l-3.438-.822-1.602 4.6c-2.002.104-3.827.663-5.26 1.533.027-.02.053-.045.082-.064a3.002 3.002 0 0 0-1.672-.51c-1.698 0-3.079 1.428-3.079 3.183 0 1.173.625 2.19 1.543 2.741.378 3.283 4.29 5.873 9.052 5.873 4.792 0 8.726-2.623 9.06-5.939z"/><path d="M13.196 16.314a1.422 1.422 0 1 1-2.843-.001 1.422 1.422 0 0 1 2.843.001zM19.302 16.317a1.419 1.419 0 0 1-2.838 0 1.418 1.418 0 1 1 2.838 0zM17.655 19.474c-3.008 1.983-5.436.111-5.546.03a.533.533 0 1 0-.667.833c.019.014 1.406 1.106 3.42 1.106 1 0 2.16-.27 3.382-1.077a.532.532 0 0 0 .151-.74.532.532 0 0 0-.74-.152z"/></g></svg>