<svg xmlns="http://www.w3.org/2000/svg" viewBox="0 0 49.248 49.248"><path d="M24.625 0C11.025 0 0 11.027 0 24.625c0 13.6 11.025 24.623 24.625 24.623s24.623-11.023 24.623-24.623C49.248 11.027 38.224 0 24.625 0zM37.03 19.66c.012.266.017.533.017.803 0 8.2-6.242 17.656-17.656 17.656a17.572 17.572 0 0 1-9.512-2.788c.486.057.98.086 1.48.086a12.45 12.45 0 0 0 7.707-2.656 6.214 6.214 0 0 1-5.796-4.31c.377.073.766.11 1.166.11.566 0 1.114-.074 1.635-.217a6.21 6.21 0 0 1-4.978-6.084v-.08a6.18 6.18 0 0 0 2.812.778 6.203 6.203 0 0 1-2.76-5.166c0-1.137.305-2.204.84-3.12a17.614 17.614 0 0 0 12.79 6.483 6.267 6.267 0 0 1-.16-1.414 6.206 6.206 0 0 1 6.206-6.204 6.2 6.2 0 0 1 4.53 1.96 12.433 12.433 0 0 0 3.94-1.507 6.221 6.221 0 0 1-2.73 3.432 12.407 12.407 0 0 0 3.565-.977 12.537 12.537 0 0 1-3.096 3.215z" fill="#dcdcdc"/></svg>