<svg xmlns="http://www.w3.org/2000/svg" viewBox="0 0 49.250001 49.250001"><path fill="#dcdcdc" d="M19.398 26.698V25.19H14.11v1.508h1.784v8.857h1.723v-8.857zm5.292-7.36c.235 0 .42-.062.558-.19.137-.13.207-.308.207-.532v-4.59a.541.541 0 0 0-.21-.445c-.142-.114-.325-.17-.554-.17a.752.752 0 0 0-.51.17.557.557 0 0 0-.196.446v4.59c0 .23.06.408.184.533.12.126.297.188.523.188zm3.8 8.477c-.238 0-.473.06-.705.182-.23.12-.45.3-.654.533v-3.34h-1.544v10.365h1.545v-.586c.2.235.42.407.653.52.232.11.5.165.8.165.452 0 .802-.143 1.038-.432.24-.29.362-.705.362-1.246v-4.244c0-.627-.127-1.104-.385-1.428-.254-.326-.623-.49-1.107-.49zm-.084 5.95c0 .247-.045.42-.133.528-.088.11-.225.162-.412.162a.905.905 0 0 1-.368-.082 1.23 1.23 0 0 1-.36-.27V29.34c.103-.108.208-.187.313-.235a.713.713 0 0 1 .324-.076c.204 0 .364.065.476.196.107.135.16.33.16.59v3.95zm-5.5-.045c-.143.163-.3.298-.473.407-.172.107-.316.16-.426.16-.145 0-.248-.04-.314-.12-.062-.08-.096-.212-.096-.392v-5.867H20.07v6.395c0 .457.09.793.268 1.025.182.227.445.34.8.34.286 0 .583-.078.888-.242.305-.166.598-.4.88-.71v.84h1.53v-7.647h-1.53v5.81zM24.625 0C11.025 0 0 11.025 0 24.625 0 38.227 11.025 49.25 24.625 49.25S49.25 38.227 49.25 24.625C49.25 11.025 38.224 0 24.625 0zm3.978 12.162h1.72v6.46c0 .2.038.343.11.43.07.09.188.138.35.138.125 0 .285-.06.48-.178.19-.12.37-.27.53-.457v-6.393h1.722v8.424h-1.723v-.93a3.612 3.612 0 0 1-.99.783c-.342.177-.674.27-.998.27-.398 0-.697-.128-.9-.38-.2-.248-.3-.623-.3-1.13v-7.038zm-6.39 1.926c0-.65.23-1.17.693-1.56.465-.384 1.088-.58 1.87-.58.712 0 1.294.206 1.75.612.454.406.68.934.68 1.578v4.35c0 .723-.222 1.287-.665 1.695-.448.408-1.06.613-1.843.613-.752 0-1.355-.21-1.807-.63-.45-.427-.678-.997-.678-1.712v-4.366zm-4.688-4.92l1.258 4.562h.123l1.197-4.562h1.97l-2.255 6.682v4.737H17.88V16.06l-2.307-6.89h1.952zM40.065 33.2a5.52 5.52 0 0 1-5.52 5.52H15.37a5.52 5.52 0 0 1-5.52-5.52v-4.437c0-3.05 2.47-5.52 5.52-5.52h19.176a5.518 5.518 0 0 1 5.518 5.52V33.2zm-6.96-5.48c-.686 0-1.24.206-1.674.626-.43.416-.65.96-.65 1.617V33.4c0 .74.2 1.317.593 1.735.393.42.932.63 1.617.63.762 0 1.334-.196 1.715-.59.387-.4.576-.99.576-1.774v-.392h-1.57v.348c0 .45-.054.742-.153.873-.1.13-.277.196-.53.196-.245 0-.417-.076-.52-.23-.1-.158-.147-.436-.147-.84v-1.44h2.922v-1.952c0-.723-.186-1.277-.562-1.666-.377-.386-.916-.58-1.615-.58zm.604 3.007h-1.35v-.773c0-.32.048-.553.155-.686.107-.143.28-.21.525-.21.23 0 .404.067.508.21.105.133.16.365.16.686v.773z"/></svg>