<svg id="Layer_1" data-name="Layer 1" xmlns="http://www.w3.org/2000/svg" viewBox="0 0 113.39 20.52"><defs><style>.cls-1{fill:#35a8e0}.cls-2{fill:#fff}.cls-3{fill:#1d1d1b}</style></defs><title>GAM STOP_RGB_small</title><path class="cls-1" d="M18 11.58h53.9a1 1 0 0 1 1 1v9.34a9.76 9.76 0 0 1-9.76 9.76H18a1 1 0 0 1-1-1V12.54a1 1 0 0 1 1-1z" transform="rotate(180 36.545 15.935)"/><path class="cls-2" d="M71.9 31.87H18a1.19 1.19 0 0 1-1.19-1.19v-9.34a10 10 0 0 1 10-10H71.9a1.19 1.19 0 0 1 1.19 1.19v18.15a1.19 1.19 0 0 1-1.19 1.19zM26.79 11.82a9.54 9.54 0 0 0-9.53 9.53v9.34a.73.73 0 0 0 .73.73H71.9a.73.73 0 0 0 .73-.73V12.54a.73.73 0 0 0-.73-.73z" transform="translate(-16.8 -11.35)"/><path class="cls-2" d="M35.86 20.89v7.49a.14.14 0 0 1-.14.14h-2.94a.14.14 0 0 1-.14-.14.14.14 0 0 0-.19-.13 5.85 5.85 0 0 1-.9.21 7.33 7.33 0 0 1-1.11.09 7.07 7.07 0 0 1-2.62-.55 6.78 6.78 0 0 1-2.31-1.53A6.68 6.68 0 0 1 24 24.2a7.11 7.11 0 0 1-.5-2.62 7.18 7.18 0 0 1 .5-2.63 6.66 6.66 0 0 1 1.52-2.31 6.78 6.78 0 0 1 2.31-1.53 7 7 0 0 1 5.26 0 6.75 6.75 0 0 1 2.2 1.43.14.14 0 0 1 0 .2l-2.07 2.07a.14.14 0 0 1-.2 0 3.6 3.6 0 0 0-1.15-.73 3.81 3.81 0 0 0-2.84 0 3.62 3.62 0 0 0-1.25.82 3.76 3.76 0 0 0 0 5.33 3.66 3.66 0 0 0 1.11.77 3.75 3.75 0 0 0 1.27.32 3.92 3.92 0 0 0 1.3-.12 3.57 3.57 0 0 0 1.13-.52.14.14 0 0 0 .06-.12v-.48a.14.14 0 0 0-.14-.14H30a.14.14 0 0 1-.14-.14v-2.91a.14.14 0 0 1 .14-.14h5.71a.14.14 0 0 1 .15.14zM46.8 28.44L46.32 27a.14.14 0 0 0-.14-.1H42a.14.14 0 0 0-.13.1l-.5 1.49a.14.14 0 0 1-.13.1h-3.08a.14.14 0 0 1-.13-.19l4.63-13.6a.14.14 0 0 1 .13-.1h2.82a.14.14 0 0 1 .14.1l4.39 13.6a.14.14 0 0 1-.14.19h-3.06a.14.14 0 0 1-.14-.15zm-3.59-4.78h1.86a.14.14 0 0 0 .14-.19l-.9-2.78a.14.14 0 0 0-.27 0l-1 2.78a.14.14 0 0 0 .17.19zM62.41 14.63h3.06a.14.14 0 0 1 .14.13l.8 13.62a.14.14 0 0 1-.14.15h-2.92a.14.14 0 0 1-.14-.13l-.29-4.82a.14.14 0 0 0-.28 0L61 28.44a.14.14 0 0 1-.13.1h-3a.14.14 0 0 1-.13-.1l-1.8-5.14a.14.14 0 0 0-.28 0l-.32 5.06a.14.14 0 0 1-.14.13h-2.94a.14.14 0 0 1-.14-.15L53 14.77a.14.14 0 0 1 .14-.13h3.06a.14.14 0 0 1 .13.1l2.88 8.22a.14.14 0 0 0 .27 0l2.8-8.22a.14.14 0 0 1 .13-.11z" transform="translate(-16.8 -11.35)"/><path class="cls-3" d="M58.28.23h53.92a1 1 0 0 1 1 1v9.34a9.76 9.76 0 0 1-9.76 9.76H58.28a1 1 0 0 1-1-1V1.19a1 1 0 0 1 1-.96z"/><path class="cls-2" d="M120.2 31.87H75.08a1.19 1.19 0 0 1-1.19-1.19V12.54a1.19 1.19 0 0 1 1.19-1.19H129a1.19 1.19 0 0 1 1.19 1.19v9.34a10 10 0 0 1-9.99 9.99zM75.08 11.82a.73.73 0 0 0-.73.73v18.13a.73.73 0 0 0 .73.73h45.12a9.54 9.54 0 0 0 9.53-9.53v-9.34a.73.73 0 0 0-.73-.73z" transform="translate(-16.8 -11.35)"/><path class="cls-2" d="M83 28.54a4.93 4.93 0 0 1-1.31-.18 4.45 4.45 0 0 1-1.24-.56 4.65 4.65 0 0 1-1.59-1.71 4.73 4.73 0 0 1-.57-2.15.14.14 0 0 1 .14-.15h2.97a.14.14 0 0 1 .14.14 1.29 1.29 0 0 0 .24.74 1.78 1.78 0 0 0 .44.43 1.43 1.43 0 0 0 .74.25 1.67 1.67 0 0 0 .78-.15 1.26 1.26 0 0 0 .43-.28 1.55 1.55 0 0 0 .25-.33.91.91 0 0 0 .1-.31 1.6 1.6 0 0 0 0-.49 1 1 0 0 0-.1-.32 1.29 1.29 0 0 0-.25-.33 1.63 1.63 0 0 0-.43-.29l-.44-.17-.5-.17-1-.34a5.5 5.5 0 0 1-1-.51 4 4 0 0 1-1.12-1 4.13 4.13 0 0 1-.79-2.83 3.92 3.92 0 0 1 .43-1.47 4.16 4.16 0 0 1 .85-1.12 4.08 4.08 0 0 1 1.13-.75 4.12 4.12 0 0 1 1.34-.33 4.43 4.43 0 0 1 1.46.13 4.24 4.24 0 0 1 1.3.54 4.14 4.14 0 0 1 1 .89 3.86 3.86 0 0 1 .6 1.11 4 4 0 0 1 .22 1.2.14.14 0 0 1-.14.15h-2.9a.14.14 0 0 1-.14-.12.6.6 0 0 0-.27-.48 2 2 0 0 0-.47-.22h-.16a.92.92 0 0 0-.32 0 1.14 1.14 0 0 0-.37.13.74.74 0 0 0-.3.33.85.85 0 0 0-.06.63.9.9 0 0 0 .38.52 4.16 4.16 0 0 0 .59.27l.68.24.65.21q.33.11.67.26A4.45 4.45 0 0 1 87.72 24a4.39 4.39 0 0 1-.72 2.44 4.71 4.71 0 0 1-2.95 2 5.12 5.12 0 0 1-1.05.1zM125.74 20.5a5.69 5.69 0 0 1-.44 2.24 5.84 5.84 0 0 1-1.23 1.84 5.94 5.94 0 0 1-1.83 1.26 5.61 5.61 0 0 1-2.09.48.14.14 0 0 0-.14.14v1.94a.14.14 0 0 1-.14.14h-2.91a.14.14 0 0 1-.14-.14V14.8a.14.14 0 0 1 .14-.14H120a5.55 5.55 0 0 1 2.23.49 6.08 6.08 0 0 1 1.83 1.27 5.84 5.84 0 0 1 1.23 1.84 5.69 5.69 0 0 1 .45 2.24zM120 23a.14.14 0 0 0 .15.14 2.49 2.49 0 0 0 .84-.23 2.73 2.73 0 0 0 .8-.57 2.63 2.63 0 0 0 .54-.83 2.65 2.65 0 0 0 0-2 2.64 2.64 0 0 0-.54-.83 2.73 2.73 0 0 0-.8-.57 2.5 2.5 0 0 0-.84-.23.14.14 0 0 0-.15.12zM106.91 14.65a6.72 6.72 0 0 1 2.7.55 7.14 7.14 0 0 1 2.21 1.48 7 7 0 0 1 1.49 2.2 6.95 6.95 0 0 1 0 5.41 7 7 0 0 1-1.49 2.2 7.13 7.13 0 0 1-2.21 1.51 6.93 6.93 0 0 1-5.4 0 6.94 6.94 0 0 1-3.68-3.69 7 7 0 0 1 0-5.41 6.94 6.94 0 0 1 3.68-3.69 6.72 6.72 0 0 1 2.7-.56zm0 10.69a3.64 3.64 0 0 0 1.46-.29 3.77 3.77 0 0 0 2-2 3.76 3.76 0 0 0 0-2.91 3.77 3.77 0 0 0-2-2 3.76 3.76 0 0 0-2.91 0 3.77 3.77 0 0 0-2 2 3.76 3.76 0 0 0 0 2.91 3.77 3.77 0 0 0 2 2 3.64 3.64 0 0 0 1.46.29z" transform="translate(-16.8 -11.35)"/><rect class="cls-2" x="75.82" y="6.35" width="3.22" height="10.84" rx=".14" ry=".14"/><rect class="cls-2" x="73.17" y="3.3" width="8.51" height="3.22" rx=".14" ry=".14"/></svg>