<svg width="30" height="30" viewBox="0 0 30 30" xmlns="http://www.w3.org/2000/svg"><title>noun_640874_cc</title><path d="M12.798 17.973c.405.3.81.603 1.216.906l-1.27 1.253c-.04.04-.076.083-.115.124l.02-.277c.05-.668.098-1.338.15-2.006zm3.33-5.895c-2.06 1.298-4.117 2.6-6.177 3.898-.041.026-.087.046-.133.067l.808 2.588c.192.607.391 1.213.573 1.822.075.253.205.388.48.34.075-1.031.148-2.062.226-3.094.009-.12.023-.243.038-.363-.117-.067-.066-.195-.025-.237l.213-.222.076-.071c.036-.037.07-.075.106-.111l.51-.48a106.705 106.705 0 0 1 1.09-1.013c.684-.622 1.382-1.229 2.067-1.848.873-.79 1.744-1.583 2.609-2.381.064-.089.105-.202.16-.3-.155.021-.336-.004-.46.068-.728.434-1.444.885-2.162 1.337zM29.96 15c0 8.262-6.698 14.96-14.96 14.96S.04 23.262.04 15C.04 6.737 6.737.04 15 .04 23.262.04 29.96 6.737 29.96 15zm-8.28-5.96c-.008-.057-.013-.116-.025-.172-.131-.635-.48-.827-1.102-.614-.092.031-.185.051-.278.076-.348.144-.691.297-1.044.43-.584.22-1.174.426-1.764.638-.359.15-.716.306-1.078.448-.908.355-1.818.703-2.728 1.055l-5.618 2.165c-.42.162-.845.316-1.262.49-.366.15-.74.297-1.076.5-.15.09-.314.325-.297.475.017.15.248.28.39.415.025.025.069.033.106.044l2.978.92a.898.898 0 0 0 .04.315l.36 1.158.475 1.52.167.522c.135.424.275.86.402 1.289.278.928 1.028 1 1.25 1 .034 0 .07-.003.104-.004l.103.002c.573 0 .941-.315 1.16-.504.04-.035.08-.068.107-.09a.828.828 0 0 0 .125-.111l.082-.09c.047-.051.09-.1.128-.137l1-.989.395-.39.168.115c.9.672 1.8 1.348 2.703 2.016.674.499 1.145.37 1.472-.392l.415-1.928.376-1.92.24-1.055.63-2.971.203-.948c.016-.075.036-.15.05-.226.216-1.018.43-2.035.643-3.052z" fill-rule="nonzero" fill="#DCDCDC"/></svg>