<svg xmlns="http://www.w3.org/2000/svg" width="64" height="64"><path fill="#999999" d="M55.744 11.287a1.605 1.605 0 00-1.566-.657c-.023-.006-.046-.015-.068-.019L29.683 7.018a1.61 1.61 0 00-.793.082L9.326 14.288l-.025.011c-.02.01-.04.022-.062.03a1.677 1.677 0 00-.65.509c-.005.006-.011.01-.015.016L.312 26.182c-.316.434-.398 1-.218 1.506.18.508.601.892 1.122 1.026l7.168 1.855v17.765c0 .714.466 1.345 1.148 1.554l26.248 8.04c.008.004.018 0 .027.005.14.039.287.064.434.065l.012.002h.001c.155 0 .306-.028.457-.073.048-.015.092-.035.14-.056.064-.024.127-.041.19-.074L55.875 47.32c.516-.287.835-.83.835-1.42V28.137l6.37-3.066a1.626 1.626 0 00.626-2.398l-7.962-11.387zm-26.125-.994l19.066 2.805-12.647 5.895-20.028-3.7 13.61-5zm-19.028 7.304l22.949 4.239-6.745 10.143L4.34 26.167l6.251-8.57zm1.035 29.535V31.408l15.472 4.004a1.62 1.62 0 001.754-.672l5.78-8.69v28.128l-23.006-7.046zm41.84-2.19l-15.593 8.672V27.951l2.847 6.065a1.622 1.622 0 002.167.773l10.578-5.088.002 15.24zM42.96 31.15l-4.546-9.681 15.455-7.203 6.088 8.705L42.96 31.15z"/></svg>