<svg xmlns="http://www.w3.org/2000/svg" width="16" height="16"><path fill="var(--fill-color1)" d="M1.5 6a.5.5 0 00-.5.5v7a.5.5 0 00.5.5h13a.5.5 0 00.5-.5v-7a.5.5 0 00-.5-.5h-13zM15 1a1 1 0 011 1v1a1 1 0 01-1 1h-2v1h1.5A1.5 1.5 0 0116 6.5v7a1.5 1.5 0 01-1.5 1.5h-13A1.5 1.5 0 010 13.5v-7A1.5 1.5 0 011.5 5H2V3h5v2h5V4h-2a1 1 0 01-1-1V2a1 1 0 011-1h5zm0 10H1v1h14v-1zm-1.5-2h-3a.5.5 0 00-.09.992l.09.008h3a.5.5 0 100-1zm-5 0a.5.5 0 100 1 .5.5 0 000-1zm-2 0a.5.5 0 100 1 .5.5 0 000-1zm-2 0a.5.5 0 100 1 .5.5 0 000-1zm-2 0a.5.5 0 100 1 .5.5 0 000-1zm11-2h-3a.5.5 0 00-.09.992L10.5 8h3a.5.5 0 100-1zm-5 0a.5.5 0 100 1 .5.5 0 000-1zm-2 0a.5.5 0 100 1 .5.5 0 000-1zm-2 0a.5.5 0 100 1 .5.5 0 000-1zm-2 0a.5.5 0 100 1 .5.5 0 000-1zM6 4H3v1h3V4zm9-2h-5v1h5V2z"/></svg>