<svg xmlns="http://www.w3.org/2000/svg" width="16" height="16"><g fill="none" fill-rule="evenodd"><path d="M0 0h16v16H0z"/><path fill="#333333" fill-opacity=".8" d="M8 1a7 7 0 110 14A7 7 0 018 1zm0-1a8 8 0 100 16A8 8 0 008 0z"/><path fill="#333333" fill-opacity=".8" d="M8 3a2 2 0 110 4 2 2 0 010-4zm0-1a3 3 0 100 6 3 3 0 000-6zM5 12.82v-1.64A1.69 1.69 0 016.682 9.5H9.32A1.69 1.69 0 0111 11.182v1.638a.5.5 0 101 0v-1.64A2.69 2.69 0 009.322 8.5H6.68A2.69 2.69 0 004 11.178v1.642a.5.5 0 101 0z"/></g></svg>