<svg xmlns="http://www.w3.org/2000/svg" xmlns:xlink="http://www.w3.org/1999/xlink"><defs><style>
    .sprite-symbol-usage {display: none;}
    .sprite-symbol-usage:target {display: inline;}
  </style><symbol viewBox="0 0 24 16" id="aud"><g stroke="none" stroke-width="1" fill="none" fill-rule="evenodd"><path d="M22.203 0H1.797C.805 0 0 .817 0 1.826v12.322c0 1.008.805 1.826 1.797 1.826h20.406c.992 0 1.797-.818 1.797-1.826V1.826C24 .817 23.195 0 22.203 0z" fill="#0D47A1" fill-rule="nonzero" /><path d="M.414 7.987h.719l3.833-2.551v2.55h2.069v-2.55l3.832 2.55h.72a.417.417 0 00.413-.42v-.333L8.712 5.044H12V2.943H8.711L12 .753V.42a.417.417 0 00-.414-.42h-.719L7.034 2.551V0H4.965v2.551L1.258.084a1.807 1.807 0 00-1.017.83l3.048 2.029H0v2.101h3.289L0 7.233v.333c0 .233.185.42.414.42zM6.125 10.279l.313 1.047 1-.405c.086-.034.163.065.111.142l-.611.9.936.543c.08.046.052.17-.04.176l-1.075.076.166 1.082c.014.092-.098.147-.16.078l-.729-.806-.729.806c-.062.069-.174.014-.16-.078l.166-1.082-1.075-.076c-.091-.006-.119-.13-.04-.176l.937-.542-.612-.901c-.052-.077.026-.176.111-.142l1 .405.313-1.047a.093.093 0 01.178 0zm12.31-7.448l.153.512.488-.198c.042-.017.08.031.055.069l-.3.44.458.265c.039.023.025.083-.02.086l-.524.037.08.529c.008.045-.047.072-.078.038l-.356-.394-.356.394c-.03.034-.085.007-.078-.038l.081-.529-.525-.037c-.045-.003-.058-.063-.02-.086l.458-.265-.299-.44c-.025-.038.013-.086.054-.069l.49.198.152-.512a.045.045 0 01.087 0zM15.033 6.76l.152.511.49-.198c.041-.016.08.032.054.07l-.3.44.458.265c.039.022.025.082-.02.086l-.524.037.08.528c.008.045-.047.072-.078.038l-.356-.393-.356.393c-.03.034-.085.007-.078-.038l.081-.528-.525-.037c-.045-.004-.058-.064-.02-.086l.458-.265-.299-.44c-.025-.038.013-.086.054-.07l.49.198.152-.511a.045.045 0 01.087 0zm6.62-1.682l.153.512.49-.198c.04-.017.079.031.053.069l-.298.44.457.265c.039.023.025.083-.02.086l-.525.037.081.529c.007.045-.047.072-.078.038l-.356-.394-.356.394c-.03.033-.085.007-.078-.038l.081-.529-.525-.037c-.045-.003-.058-.063-.02-.086l.458-.265-.299-.44c-.025-.038.013-.086.054-.07l.49.199.152-.512a.045.045 0 01.087 0zm-3.218 6.726l.153.512.488-.198c.042-.017.08.031.055.069l-.3.44.458.265c.039.022.025.083-.02.086l-.524.037.08.528c.008.045-.047.072-.078.039l-.356-.394-.356.394c-.03.033-.085.006-.078-.039l.081-.528-.525-.037c-.045-.003-.058-.064-.02-.086l.458-.265-.299-.44c-.025-.038.013-.086.054-.07l.49.199.152-.512a.045.045 0 01.087 0zm1.18-4.125a.052.052 0 01.1 0l.122.373.387.003c.05 0 .071.065.03.096l-.31.233.116.375c.015.049-.04.09-.08.06l-.315-.23-.315.23c-.04.03-.095-.011-.08-.06l.117-.375-.312-.233c-.04-.03-.02-.095.03-.096l.388-.003.122-.373z" fill="#FFF" fill-rule="nonzero" /><path d="M12 3.363v1.261H6.62v3.363H5.38V4.624H0V3.363h5.38V0h1.24v3.363H12zM.386.696C.473.584.574.482.685.393l3.867 2.55h-.76L.386.696zm7.409 2.247h-.76L11.496 0h.09c.151 0 .278.087.35.21L7.795 2.944zm-3.6 2.101h.76L.491 7.987H.414a.408.408 0 01-.355-.216l4.135-2.727zM11.992 7.6a.416.416 0 01-.234.346l-4.4-2.902h.76L11.992 7.6z" fill="#F44336" fill-rule="nonzero" /><rect stroke-opacity=".04" stroke="#000" x=".5" y=".5" width="23" height="15" rx="2" /></g></symbol><symbol viewBox="0 0 24 16" id="cad"><g stroke="none" stroke-width="1" fill="none" fill-rule="evenodd"><g fill-rule="nonzero"><path fill="#FFF" d="M5.379.013H18.62v15.974H5.379z" /><path d="M1.797.013H5.38v15.974H1.797C.805 15.987 0 15.169 0 14.16V1.839C0 .83.805.013 1.797.013zm20.406 0C23.195.013 24 .83 24 1.839v12.322c0 1.008-.805 1.826-1.797 1.826H18.62V.013h3.582zM14.51 9.846a.612.612 0 00-.263.74l.21.57-2.105-.183a.197.197 0 00-.212.204l.066 2.288h-.414l.066-2.288a.197.197 0 00-.212-.204l-2.104.182.21-.57a.611.611 0 00-.263-.74L7.035 8.42l.563-.286a.422.422 0 00.225-.431L7.64 6.306l1.04.307a.413.413 0 00.519-.312l.1-.457.976 1.16c.135.16.393.038.357-.17l-.416-2.463.638.177a.411.411 0 00.474-.207L12 3.06V3.06v.001h.001v.001l.672 1.28c.091.173.288.26.474.207l.639-.177-.417 2.462c-.036.209.222.332.357.171l.977-1.16.1.457c.05.237.29.38.519.312l1.04-.307-.184 1.396a.422.422 0 00.225.432l.564.286-2.456 1.426z" fill="#F44336" /></g><rect stroke-opacity=".04" stroke="#000" x=".5" y=".5" width="23" height="15" rx="2" /></g></symbol><symbol viewBox="0 0 24 16" id="chf"><g stroke="none" stroke-width="1" fill="none" fill-rule="evenodd"><g fill-rule="nonzero"><path d="M22.203 15.987H1.797C.805 15.987 0 15.169 0 14.16V1.839C0 .831.805.013 1.797.013h20.406C23.195.013 24 .831 24 1.84v12.322c0 1.008-.805 1.826-1.797 1.826z" fill="#F44336" /><path d="M16.552 6.319h-2.897V3.376a.417.417 0 00-.414-.42H10.76a.417.417 0 00-.414.42v2.943H7.448a.417.417 0 00-.414.42v2.522c0 .232.186.42.414.42h2.897v2.943c0 .232.185.42.414.42h2.482a.417.417 0 00.414-.42V9.681h2.897a.417.417 0 00.414-.42V6.739a.417.417 0 00-.414-.42z" fill="#FFF" /></g><rect stroke-opacity=".04" stroke="#000" x=".5" y=".5" width="23" height="15" rx="2" /></g></symbol><symbol viewBox="0 0 24 16" id="chinese"><path d="M0 13.5v.5a2 2 0 002 2h.5A2.5 2.5 0 010 13.5m13.17-3.37H11V11h2.21v-.87m0-1.66H11v.84h2.21v-.84M10 7.64h4.17v4.21H10V7.64M7.74 13V7.19h1V13h-1m3.5-6.12v-.94h5.15v5.93c0 .72-.4 1.09-1.2 1.09h-.95L14 12h1c.25 0 .37-.16.37-.47V6.88h-4.13m-1.6.47A14.87 14.87 0 008.31 6l.77-.47a10.33 10.33 0 011.33 1.33l-.77.52M12.8 5.7l-.88-.56A6 6 0 0013.07 3l1 .22c-.07.17-.12.34-.18.5H17v.9h-1.66a7.53 7.53 0 01.53.83l-.93.33a9.16 9.16 0 00-.7-1.16h-.75a6.73 6.73 0 01-.69 1.08M8.42 3l1 .22c-.07.18-.15.35-.21.51H12v.9h-1.49a8.3 8.3 0 01.57.92l-.93.33a11 11 0 00-.73-1.25h-.64a7.13 7.13 0 01-.89 1.23L7 5.3A6.6 6.6 0 008.42 3M21.5 1h-19A1.5 1.5 0 001 2.5v11A1.5 1.5 0 002.5 15h19a1.5 1.5 0 001.5-1.5v-11A1.5 1.5 0 0021.5 1m-19-1H2a2 2 0 00-2 2v.5A2.5 2.5 0 012.5 0M22 0h-.5A2.5 2.5 0 0124 2.5v11a2.5 2.5 0 01-2.5 2.5h.5a2 2 0 002-2V2a2 2 0 00-2-2" fill="#ed3c3c" /><path d="M2.5 1h19A1.5 1.5 0 0123 2.5v11a1.5 1.5 0 01-1.5 1.5h-19A1.5 1.5 0 011 13.5v-11A1.5 1.5 0 012.5 1m19-1h-19A2.5 2.5 0 000 2.5v11A2.5 2.5 0 002.5 16h19a2.5 2.5 0 002.5-2.5v-11A2.5 2.5 0 0021.5 0" fill="#e43a3a" /><g><path d="M11 11v-.87h2.21V11H11m0-1.69v-.84h2.21v.84H11m3.18-1.67H10v4.21h4.17V7.64m-5.39-.45h-1V13h1V7.19m7.61-1.25h-5.15v.94h4.11v4.71c0 .31-.12.47-.37.47h-1l.25.93h.95c.8 0 1.2-.37 1.2-1.09V5.94m-7.3-.44l-.77.5a14.87 14.87 0 011.33 1.35l.77-.52A10.33 10.33 0 009.08 5.5m4-2.49a6 6 0 01-1.15 2.13l.88.56a6.73 6.73 0 00.69-1.07h.75a9.16 9.16 0 01.7 1.16l.93-.33a7.53 7.53 0 00-.53-.83H17v-.9h-3.1c.06-.16.11-.33.18-.5l-1-.22M8.42 3A6.6 6.6 0 017 5.3l.89.56a7.13 7.13 0 00.89-1.23h.64a11 11 0 01.73 1.25l.93-.33a8.3 8.3 0 00-.57-.92H12v-.9H9.23c.06-.16.14-.33.21-.51L8.42 3" fill="#fff" /></g></symbol><symbol viewBox="0 0 24 16" id="chinese-traditional"><path d="M0 13.5v.5a2 2 0 002 2h.5A2.5 2.5 0 010 13.5m9.21-6.92H8.6l-.13.77h1.66A6.85 6.85 0 009 6.94l.23-.36m1.75 0H9.25A9.63 9.63 0 0110.4 7l-.24.37h.67c.05-.26.1-.51.13-.77M11 5.36H8.74c0 .26-.05.52-.08.77h1.5a5.53 5.53 0 00-1-.4l.25-.36a5.29 5.29 0 011.09.44l-.2.32h.7v-.77m4.28-.57h-1.69a3.25 3.25 0 00.94 1.42 4 4 0 00.79-1.42m-7.77 8.12l-.38-.79a11 11 0 002.83-.95l.54.61a12.54 12.54 0 01-2.95 1.13m8.66 0a17.26 17.26 0 00-3-1l.5-.76a19.29 19.29 0 013 1l-.52.81M7 4.83A5.5 5.5 0 008.55 3l.84.18c-.1.18-.19.35-.29.51h3.18v.71H8.6l-.38.44h3.61v1.17h.62v.65h-.67l-.1.68h.45v.53h-.57v.17l.31.24A13.66 13.66 0 0110 9h2.23c.45-.23.91-.48 1.37-.74l.73.48a18.44 18.44 0 01-4.09 1.68c1.39-.06 2.78-.14 4.17-.25l-.74-.53.72-.44a18.67 18.67 0 012.37 1.7l-.81.56a9.85 9.85 0 00-.77-.68l-2.66.14v1.27c0 .56-.34.85-1 .85h-1l-.18-.82c.32 0 .62.05.9.05s.31-.1.31-.3v-1c-1.29.03-2.48.03-3.55.1l-.21-.84h.82A14 14 0 0011 9.48l-2.47.09-.15-.71a2 2 0 00.77-.1 12.54 12.54 0 001.44-.64l.07-.24H7.57c.08-.41.14-.81.21-1.21h-.7V6h.77c.05-.31.08-.61.1-.92a5 5 0 01-.42.37L7 4.83M13.45 3l.88.19c-.11.28-.23.54-.35.79h2.81v.81h-.62a4.74 4.74 0 01-1 1.93 8 8 0 001.83.82l-.46.81a7.25 7.25 0 01-1.95-1 5.59 5.59 0 01-2 1l-.48-.75a5 5 0 001.78-.77 4.18 4.18 0 01-.88-1.32 7.17 7.17 0 01-.52.58L12 5.4A7.62 7.62 0 0013.45 3m8.05-2h-19A1.5 1.5 0 001 2.5v11A1.5 1.5 0 002.5 15h19a1.5 1.5 0 001.5-1.5v-11A1.5 1.5 0 0021.5 1m-19-1H2a2 2 0 00-2 2v.5A2.5 2.5 0 012.5 0M22 0h-.5A2.5 2.5 0 0124 2.5v11a2.5 2.5 0 01-2.5 2.5h.5a2 2 0 002-2V2a2 2 0 00-2-2" fill="#ed3c3c" /><path d="M2.5 1h19A1.5 1.5 0 0123 2.5v11a1.5 1.5 0 01-1.5 1.5h-19A1.5 1.5 0 011 13.5v-11A1.5 1.5 0 012.5 1m19-1h-19A2.5 2.5 0 000 2.5v11A2.5 2.5 0 002.5 16h19a2.5 2.5 0 002.5-2.5v-11A2.5 2.5 0 0021.5 0" fill="#e43a3a" /><g><path d="M10 11.17a11 11 0 01-2.79.95l.38.79a12.54 12.54 0 003-1.13l-.59-.61m3.79-.05l-.5.76a17.26 17.26 0 013 1l.52-.81a19.29 19.29 0 00-3-1M8.47 7.35l.13-.77h.61L9 6.94a6.85 6.85 0 011.15.41H8.47m1.69 0L10.4 7a9.63 9.63 0 00-1.15-.4H11c0 .26-.08.51-.13.77h-.67M8.66 6.13c0-.25.06-.51.08-.77H11v.77h-.72l.2-.32a5.29 5.29 0 00-1.09-.44l-.25.36a5.53 5.53 0 011 .4H8.66M8.55 3A5.5 5.5 0 017 4.83l.53.64A5 5 0 008 5.1c0 .31 0 .61-.1.92h-.82v.65h.7c-.07.4-.13.8-.21 1.21h3.13l-.07.24a12.54 12.54 0 01-1.44.64 2 2 0 01-.77.1l.15.71L11 9.48a14 14 0 01-2.45.77h-.82l.21.84c1.09 0 2.28-.08 3.56-.14v1c0 .2-.1.3-.31.3s-.58 0-.9-.05l.18.82h1c.66 0 1-.29 1-.85v-1.29l2.66-.14a9.85 9.85 0 01.77.68l.81-.56a18.67 18.67 0 00-2.37-1.7l-.72.44.74.53c-1.39.11-2.78.19-4.17.25a18.44 18.44 0 004.14-1.68l-.73-.48c-.46.26-.92.51-1.37.74L10 9a13.66 13.66 0 001.78-.74l-.31-.24v-.17h.57v-.5h-.45l.1-.68h.67V6h-.62V4.83H8.22l.38-.44h3.68V3.7H9.1c.1-.16.19-.33.29-.51L8.55 3m6 3.2a3.25 3.25 0 01-.94-1.42h1.73a4 4 0 01-.79 1.42M13.45 3A7.62 7.62 0 0112 5.4l.54.64a7.17 7.17 0 00.52-.58 4.18 4.18 0 00.88 1.32 5 5 0 01-1.78.77l.48.75a5.59 5.59 0 002-1 7.25 7.25 0 001.95 1l.41-.76a8 8 0 01-1.79-.82 4.74 4.74 0 001-1.93h.62V4H14c.12-.25.24-.51.35-.79l-.9-.21" fill="#fff" /></g></symbol><symbol viewBox="0 0 24 16" id="dutch"><path d="M21.5 1h-19A1.5 1.5 0 001 2.5V5h22V2.5A1.5 1.5 0 0021.5 1m-19-1H2a2 2 0 00-2 2v.5A2.5 2.5 0 012.5 0M22 0h-.5A2.5 2.5 0 0124 2.5V5 2a2 2 0 00-2-2" fill="#be0020" /><path d="M23 11H1v2.5A1.5 1.5 0 002.5 15h19a1.5 1.5 0 001.5-1.5V11m1 0v2.5a2.5 2.5 0 01-2.5 2.5h-19A2.5 2.5 0 010 13.5v.5a2 2 0 002 2h20a2 2 0 002-2v-3" fill="#124590" /><path fill="#fff" d="M23 5H1v6h22V5" /><path d="M21.5 0h-19A2.5 2.5 0 000 2.5V5h1V2.5A1.5 1.5 0 012.5 1h19A1.5 1.5 0 0123 2.5V5h1V2.5A2.5 2.5 0 0021.5 0" fill="#b7001f" /><path d="M24 11h-1v2.5a1.5 1.5 0 01-1.5 1.5h-19A1.5 1.5 0 011 13.5V11H0v2.5A2.5 2.5 0 002.5 16h19a2.5 2.5 0 002.5-2.5V11" fill="#11428a" /><path fill="#f5f5f5" d="M24 5h-1v6h1V5M1 5H0v6h1V5" /></symbol><symbol viewBox="0 0 16 16" id="error"><g stroke="none" stroke-width="1" fill="none" fill-rule="evenodd"><circle fill="#F44336" cx="8" cy="8" r="8" /><path d="M8 7.293l3.146-3.147a.5.5 0 01.708.708L8.707 8l3.147 3.146a.5.5 0 01-.708.708L8 8.707l-3.146 3.147a.5.5 0 01-.708-.708L7.293 8 4.146 4.854a.5.5 0 11.708-.708L8 7.293z" fill="#FFF" fill-rule="nonzero" /></g></symbol><symbol viewBox="0 0 24 16" id="eur"><g stroke="none" stroke-width="1" fill="none" fill-rule="evenodd"><g fill-rule="nonzero"><path d="M22.203.013H1.797C.805.013 0 .831 0 1.84v12.322c0 1.008.805 1.826 1.797 1.826h20.406c.992 0 1.797-.818 1.797-1.826V1.839C24 .831 23.195.013 22.203.013z" fill="#0D47A1" /><path d="M12.168 1.842l.166.505.525.005c.068 0 .096.088.041.13l-.422.316.158.508c.02.065-.053.12-.108.08l-.427-.31-.426.31c-.056.04-.13-.015-.109-.08l.158-.508-.422-.317c-.054-.04-.026-.129.042-.13l.524-.004.166-.505a.07.07 0 01.134 0zm0 10.85l.166.506.525.004c.068 0 .096.089.041.13l-.422.316.158.508c.02.066-.053.12-.108.08l-.427-.31-.426.31c-.056.04-.13-.014-.109-.08l.158-.508-.422-.316c-.054-.041-.026-.13.042-.13l.524-.004.166-.505a.07.07 0 01.134 0zm5.34-5.425l.167.506.524.004c.068 0 .096.088.042.13l-.422.316.158.508c.02.066-.053.12-.109.08l-.426-.31-.427.31c-.055.04-.129-.014-.108-.08l.158-.508-.422-.317c-.055-.04-.027-.129.041-.13l.525-.003.166-.506a.07.07 0 01.134 0zm-10.68 0l.166.506.524.004c.068 0 .096.088.041.13l-.421.316.158.508c.02.066-.053.12-.109.08l-.426-.31-.427.31c-.055.04-.129-.014-.108-.08l.158-.508-.422-.317c-.055-.04-.027-.129.041-.13l.525-.003.166-.506a.07.07 0 01.134 0zm.801-2.833l.166.506.525.004c.068 0 .096.088.041.13l-.422.316.159.508c.02.065-.054.12-.109.08l-.427-.31-.426.31c-.055.04-.13-.015-.109-.08l.159-.508-.422-.317c-.055-.04-.027-.129.041-.13l.524-.003.166-.506a.07.07 0 01.134 0zm9.25 5.426l.166.505.525.004c.068 0 .096.089.041.13l-.422.316.159.508c.02.066-.054.12-.109.08l-.427-.31-.426.31c-.055.04-.13-.014-.109-.08l.159-.508-.422-.316c-.055-.041-.027-.13.041-.13l.524-.004.166-.505a.07.07 0 01.134 0zm-1.954-7.412l.166.506.524.004c.068 0 .096.088.042.13l-.422.316.158.508c.02.066-.053.12-.109.08l-.426-.31-.427.31c-.055.04-.129-.014-.108-.08l.158-.508-.422-.317c-.055-.04-.027-.129.041-.129l.525-.004.166-.506a.07.07 0 01.134 0zm-5.34 9.397l.165.506.525.004c.067 0 .096.088.041.13l-.422.316.158.508c.02.066-.053.12-.108.08l-.427-.31-.426.31c-.056.04-.13-.014-.109-.08l.158-.508-.422-.317c-.054-.04-.026-.129.042-.13l.524-.003.166-.506a.07.07 0 01.134 0zm7.16-7.41a.07.07 0 01.134 0l.166.505.525.004c.068 0 .096.088.041.13l-.422.316.159.508c.02.065-.054.12-.109.08l-.427-.31-.426.31c-.055.04-.13-.015-.109-.08l.159-.508-.422-.317c-.055-.04-.027-.129.041-.13l.524-.003.166-.506zM7.495 9.86a.07.07 0 01.134 0l.166.505.525.004c.068 0 .096.089.041.13l-.422.316.159.508c.02.066-.054.12-.109.08l-.427-.31-.426.31c-.055.04-.13-.014-.109-.08l.159-.508-.422-.316c-.055-.041-.027-.13.041-.13l.524-.004.166-.505zM9.45 2.448a.07.07 0 01.134 0l.166.506.525.004c.067 0 .096.088.041.13l-.422.316.158.508c.02.066-.053.12-.108.08l-.427-.31-.426.31c-.056.04-.13-.014-.109-.08l.158-.508-.422-.317c-.054-.04-.026-.129.042-.129l.524-.004.166-.506zm5.34 9.397a.07.07 0 01.135 0l.166.506.524.004c.068 0 .096.088.041.13l-.421.316.158.508c.02.066-.053.12-.109.08l-.426-.31-.427.31c-.055.04-.129-.014-.108-.08l.158-.508-.422-.317c-.055-.04-.027-.129.041-.13l.525-.003.166-.506z" fill="#FFEB3B" /></g><rect stroke-opacity=".04" stroke="#000" x=".5" y=".5" width="23" height="15" rx="2" /></g></symbol><symbol viewBox="0 0 24 16" id="french"><path d="M8 1H2.5A1.5 1.5 0 001 2.5v11A1.5 1.5 0 002.5 15H8V1M2.5 0H2a2 2 0 00-2 2v12a2 2 0 002 2h.5A2.5 2.5 0 010 13.5v-11A2.5 2.5 0 012.5 0" fill="#001f9b" /><path d="M21.5 1H16v14h5.5a1.5 1.5 0 001.5-1.5v-11A1.5 1.5 0 0021.5 1m.5-1h-.5A2.5 2.5 0 0124 2.5v11a2.5 2.5 0 01-2.5 2.5h.5a2 2 0 002-2V2a2 2 0 00-2-2" fill="#ff002d" /><path d="M16 1H8v14h8V1" fill="#fff" /><path d="M8 0H2.5A2.5 2.5 0 000 2.5v11A2.5 2.5 0 002.5 16H8v-1H2.5A1.5 1.5 0 011 13.5v-11A1.5 1.5 0 012.5 1H8V0" fill="#001e95" /><path d="M21.5 0H16v1h5.5A1.5 1.5 0 0123 2.5v11a1.5 1.5 0 01-1.5 1.5H16v1h5.5a2.5 2.5 0 002.5-2.5v-11A2.5 2.5 0 0021.5 0" fill="#f5002b" /><path fill="#f5f5f5" d="M16 0H8v1h8V0M16 15H8v1h8v-1" /></symbol><symbol viewBox="0 0 24 16" id="gbp"><g stroke="none" stroke-width="1" fill="none" fill-rule="evenodd"><g fill-rule="nonzero"><path d="M22.203.013H1.797C.805.013 0 .831 0 1.84v12.322c0 1.008.805 1.826 1.797 1.826h20.406c.992 0 1.797-.818 1.797-1.826V1.839C24 .831 23.195.013 22.203.013z" fill="#0D47A1" /><path d="M23.975 1.537A1.806 1.806 0 0022.203.013h-.468l-7.666 5.102V.013H9.931v5.102L2.265.013h-.468C.906.013.167.673.025 1.537l6.552 4.361H0v4.204h6.577l-6.552 4.36a1.806 1.806 0 001.772 1.525h.468l7.666-5.102v5.102h4.138v-5.102l7.666 5.102h.468c.891 0 1.63-.66 1.772-1.524l-6.552-4.361H24V5.898h-6.577l6.552-4.36z" fill="#FFF" /><path d="M13.241.013V6.74H24V9.26H13.241v6.726H10.76V9.26H0V6.74h10.759V.013h2.482zM1.162 15.87a1.8 1.8 0 01-.73-.52l7.956-5.247h1.52l-8.746 5.767zm15.075-5.767l7.527 4.963c-.141.251-.339.465-.576.623l-8.471-5.586h1.52zM.19 1.022C.316.767.5.545.725.374l8.378 5.525h-1.52L.19 1.023zm15.399 4.876h-1.52L22.824.125a1.8 1.8 0 01.735.517l-7.97 5.256z" fill="#F44336" /></g><rect stroke-opacity=".04" stroke="#000" x=".5" y=".5" width="23" height="15" rx="2" /></g></symbol><symbol viewBox="0 0 24 16" id="german"><path d="M21.5 1h-19A1.5 1.5 0 001 2.5V5h22V2.5A1.5 1.5 0 0021.5 1m-19-1H2a2 2 0 00-2 2v.5A2.5 2.5 0 012.5 0M22 0h-.5A2.5 2.5 0 0124 2.5V5 2a2 2 0 00-2-2" fill="#333" /><path d="M23 11H1v2.5A1.5 1.5 0 002.5 15h19a1.5 1.5 0 001.5-1.5V11m1 0v2.5a2.5 2.5 0 01-2.5 2.5h-19A2.5 2.5 0 010 13.5v.5a2 2 0 002 2h20a2 2 0 002-2v-3" fill="#ffcd00" /><path fill="#f10000" d="M24 5v6-6M23 5H1v6h22V5" /><path d="M21.5 0h-19A2.5 2.5 0 000 2.5V5h1V2.5A1.5 1.5 0 012.5 1h19A1.5 1.5 0 0123 2.5V5h1V2.5A2.5 2.5 0 0021.5 0" fill="#313131" /><path d="M24 11h-1v2.5a1.5 1.5 0 01-1.5 1.5h-19A1.5 1.5 0 011 13.5V11H0v2.5A2.5 2.5 0 002.5 16h19a2.5 2.5 0 002.5-2.5V11" fill="#f5c500" /><path fill="#e80000" d="M24 5h-1v6h1V5M1 5H0v6h1V5" /></symbol><symbol viewBox="0 0 24 16" id="hong kong"><path d="M2 0h20a2 2 0 012 2v12a2 2 0 01-2 2H2a2 2 0 01-2-2V2a2 2 0 012-2" fill="#f0371d" /><path d="M9.45 11.91a.34.34 0 01-.28-.14.35.35 0 01.07-.49.36.36 0 01.2-.06.37.37 0 01.29.14.35.35 0 01-.08.49.36.36 0 01-.2.06m2.05-2.78c-.11 0 .08.85-1 .92a2.87 2.87 0 00-2.09.66c-.52.37-.21 1-1.28 1.78a1.89 1.89 0 001.57.72 3.27 3.27 0 001.9-.66c1.24-.89 1.7-2.38 1-3.31-.06-.08-.09-.11-.11-.11m2.68 2.71a.34.34 0 01-.33-.24.35.35 0 01.22-.44h.11a.34.34 0 01.11.67h-.11m-1-3.2a1.73 1.73 0 00-.5.07c-.54.18.75.06.43 1.32a2.89 2.89 0 000 2.19c.2.61.9.52 1.31 1.77 1.09-.36 1.6-1.83 1.13-3.28a2.75 2.75 0 00-2.35-2.07m2.45-1.35a.35.35 0 110-.69.35.35 0 010 .69m-.35-1.82c-1.53 0-2.77.93-2.77 2.09v.15l.22-.18a.76.76 0 01.5-.19 1.19 1.19 0 01.63.22 2.93 2.93 0 002.08.69c.63 0 .77-.69 2.08-.69 0-1.16-1.24-2.09-2.77-2.09M7.91 7.41a.31.31 0 01-.2-.07.35.35 0 01.21-.63.37.37 0 01.2.07.36.36 0 01.08.49.37.37 0 01-.29.14m-1.6-2.27c-.67.94-.22 2.42 1 3.32a3.27 3.27 0 001.9.66 1.89 1.89 0 001.59-.72c.09-.12.08-.15 0-.15h-.28c-.26 0-.61-.1-.84-.69C9.19 6.37 9 6.26 8.4 5.8s-1 .12-2.09-.66m5.39-.59h-.1a.35.35 0 01-.23-.44.34.34 0 01.33-.24h.11a.34.34 0 01.22.43.33.33 0 01-.33.24M12.54 2a2.74 2.74 0 00-2.35 2.07c-.47 1.46 0 2.93 1.13 3.28h.13c.19 0-.59-.6.3-1.34s1.07-1 1.31-1.77-.43-.94 0-2.19a1.8 1.8 0 00-.5-.08" fill="#fff" /><path d="M2.5 1h19A1.5 1.5 0 0123 2.5v11a1.5 1.5 0 01-1.5 1.5h-19A1.5 1.5 0 011 13.5v-11A1.5 1.5 0 012.5 1m19-1h-19A2.5 2.5 0 000 2.5v11A2.5 2.5 0 002.5 16h19a2.5 2.5 0 002.5-2.5v-11A2.5 2.5 0 0021.5 0" fill="#e7351c" /></symbol><symbol viewBox="0 0 32 32" id="ic-10-1s-index"><g stroke="none" stroke-width="1" fill="none" fill-rule="evenodd"><circle fill="#EF4852" fill-rule="nonzero" cx="25" cy="25" r="5" /><path d="M0 0h32v32H0z" /><path fill="#FFF" fill-rule="nonzero" d="M22.15 27.23v-.61h1.27v-3.39h-.05l-1.05 1.12-.45-.4L23 22.69h1.12v3.93h1.11v.61zM26.79 27.31a1.64 1.64 0 01-1.37-.64l.46-.42a1.3 1.3 0 00.42.36c.163.086.345.131.53.13a.76.76 0 00.47-.12.42.42 0 00.15-.34.41.41 0 00-.11-.28.61.61 0 00-.37-.14h-.31a1.66 1.66 0 01-.82-.3.85.85 0 01-.29-.71 1 1 0 01.09-.44 1 1 0 01.25-.32 1.27 1.27 0 01.4-.21 2 2 0 01.51-.07c.254-.008.507.04.74.14.198.098.375.234.52.4l-.43.42a1.06 1.06 0 00-.35-.27 1 1 0 00-.48-.12.63.63 0 00-.43.12.37.37 0 00-.14.31.36.36 0 00.12.29 1 1 0 00.4.14h.31a1.6 1.6 0 01.82.33.85.85 0 01.25.65 1.06 1.06 0 01-.09.45 1 1 0 01-.27.34 1.4 1.4 0 01-.42.22 1.94 1.94 0 01-.56.08z" /><path d="M29.93 12.76a.502.502 0 10-.86-.52L26.8 16h-.3a1.52 1.52 0 00-.79.23L22.91 14c.06-.16.091-.33.09-.5a1.5 1.5 0 00-3 0c0 .348.124.685.35.95L18.8 17a1.48 1.48 0 00-1.09.2l-2.8-2.2c.06-.16.091-.33.09-.5a1.5 1.5 0 10-2.58 1L10.68 19h-.18a1.52 1.52 0 00-.79.23L6.91 17a1.48 1.48 0 000-.91A1.51 1.51 0 005.5 15c-.142 0-.283.02-.42.06a1.5 1.5 0 00-1 1.86c.087.305.274.573.53.76L3.47 21a1.51 1.51 0 10.95.32L5.53 18c.142 0 .283-.02.42-.06.13-.043.253-.1.37-.17L9.09 20c-.06.16-.091.33-.09.5a1.5 1.5 0 102.58-1l1.74-3.5h.18a1.52 1.52 0 00.79-.23l2.8 2.23a1.37 1.37 0 00-.09.49 1.5 1.5 0 003 0 1.46 1.46 0 00-.35-.95L21.2 15h.3a1.52 1.52 0 00.79-.23l2.8 2.23a1.37 1.37 0 00-.09.49 1.5 1.5 0 003 0 1.46 1.46 0 00-.35-.95l2.28-3.78zM3.5 23a.5.5 0 110-1 .5.5 0 010 1zm2.14-6H5.5a.505.505 0 01-.14-1h.14a.505.505 0 01.14 1zm4.86 4a.5.5 0 110-1 .5.5 0 010 1zm3-6a.5.5 0 110-1 .5.5 0 010 1zm5 4a.5.5 0 110-1 .5.5 0 010 1zm3-5a.5.5 0 110-1 .5.5 0 010 1zm5 4a.5.5 0 110-1 .5.5 0 010 1z" fill="#84AAAF" fill-rule="nonzero" /><rect fill="#2A2A2A" fill-rule="nonzero" x="2" y="2" width="11" height="8" rx="1" /><path d="M4.258 8.26v-.564h1.176V4.564h-.048l-.972 1.038L4 5.23l1.068-1.158H6.1v3.624h1.02v.564H4.258zm5.26.072c-.26 0-.486-.049-.678-.147a1.25 1.25 0 01-.474-.423 1.975 1.975 0 01-.276-.678A4.224 4.224 0 018 6.166c0-.34.03-.645.09-.915s.152-.497.276-.681a1.25 1.25 0 01.474-.423c.192-.098.418-.147.678-.147.52 0 .903.19 1.149.57.246.38.369.912.369 1.596s-.123 1.216-.369 1.596c-.246.38-.629.57-1.149.57zm0-.576a.735.735 0 00.369-.087.676.676 0 00.249-.249c.064-.108.11-.237.138-.387a2.74 2.74 0 00.042-.501V5.8a2.74 2.74 0 00-.042-.501 1.178 1.178 0 00-.138-.387.676.676 0 00-.249-.249.735.735 0 00-.369-.087.735.735 0 00-.369.087.676.676 0 00-.249.249c-.064.108-.11.237-.138.387a2.74 2.74 0 00-.042.501v.732c0 .184.014.351.042.501.028.15.074.279.138.387a.676.676 0 00.249.249.735.735 0 00.369.087z" fill="#FFF" fill-rule="nonzero" /></g></symbol><symbol viewBox="0 0 32 32" id="ic-10-index"><g stroke="none" stroke-width="1" fill="none" fill-rule="evenodd"><path d="M0 0h32v32H0z" /><path d="M6.87 7.15a.5.5 0 00-.71 0L5 8.31V5.5a.5.5 0 00-1 0v2.78L2.87 7.15a.5.5 0 00-.71 0 .48.48 0 000 .7l2 2a.49.49 0 00.34.15.51.51 0 00.36-.15l2-2a.5.5 0 00.01-.7z" fill="#EF4852" fill-rule="nonzero" /><path d="M26.08 13h-1a.5.5 0 110-1h1a.5.5 0 110 1zm-2.89 0h-1a.5.5 0 110-1h1a.5.5 0 110 1zm-2.88 0h-1a.5.5 0 110-1h1a.5.5 0 110 1zm-2.89 0h-1a.5.5 0 110-1h1a.5.5 0 110 1zm-2.88 0h-1a.5.5 0 110-1h1a.5.5 0 110 1zm-2.89 0h-1a.5.5 0 110-1h1a.5.5 0 110 1zm-2.88 0h-1a.5.5 0 110-1h1a.5.5 0 110 1zm-2.89 0h-1a.5.5 0 110-1h1a.5.5 0 110 1zM3 13h-.5a.5.5 0 110-1H3a.5.5 0 110 1zM29.5 23H29a.5.5 0 110-1h.5a.5.5 0 110 1zM27.08 23h-1a.5.5 0 110-1h1a.5.5 0 110 1zm-2.89 0h-1a.5.5 0 110-1h1a.5.5 0 110 1zm-2.88 0h-1a.5.5 0 110-1h1a.5.5 0 110 1zm-2.89 0h-1a.5.5 0 110-1h1a.5.5 0 110 1zm-2.88 0h-1a.5.5 0 110-1h1a.5.5 0 110 1zm-2.89 0h-1a.5.5 0 110-1h1a.5.5 0 110 1zm-2.88 0h-1a.5.5 0 110-1h1a.5.5 0 110 1zm-2.89 0h-1a.5.5 0 110-1h1a.5.5 0 110 1z" fill="#E4E4E4" fill-rule="nonzero" /><path d="M29.85 27.15l-2-2a.36.36 0 00-.16-.11.5.5 0 00-.38 0 .36.36 0 00-.16.11l-2 2a.495.495 0 10.7.7L27 26.71v2.79a.5.5 0 101 0v-2.79l1.15 1.14a.48.48 0 00.7 0 .48.48 0 000-.7z" fill="#84AAAF" fill-rule="nonzero" /><rect fill="#2A2A2A" fill-rule="nonzero" x="19" y="2" width="11" height="8" rx="1" /><path d="M28.5 12a1.5 1.5 0 00-1.29 2.26L24 18.1a1.5 1.5 0 00-.52-.1c-.132 0-.264.02-.39.06h-.06a1.14 1.14 0 00-.34.15L19.91 16a1.5 1.5 0 10-2.76.14l-3 3a1.51 1.51 0 00-.65-.14 1.46 1.46 0 00-.95.35L10 17.8c.01-.1.01-.2 0-.3a1.5 1.5 0 00-3 0c0 .167.03.334.09.49l-2.8 2.24A1.52 1.52 0 003.5 20 1.5 1.5 0 105 21.5a1.37 1.37 0 00-.09-.5l2.8-2.24c.236.151.51.234.79.24.348 0 .685-.124.95-.35L12 20.2c-.01.1-.01.2 0 .3a1.5 1.5 0 102.85-.64l3-3c.458.225 1 .195 1.43-.08L22.09 19a1.37 1.37 0 00-.09.49 1.5 1.5 0 102.79-.76L28 14.9a1.5 1.5 0 10.5-2.9zm-25 10a.5.5 0 110-1 .5.5 0 010 1zm5-4a.5.5 0 110-1 .5.5 0 010 1zm5 3a.5.5 0 110-1 .5.5 0 010 1zm5-5a.5.5 0 110-1 .5.5 0 010 1zm5 4a.5.5 0 110-1 .5.5 0 010 1zm5-6a.5.5 0 110-1 .5.5 0 010 1z" fill="#84AAAF" fill-rule="nonzero" /><path d="M21.258 8.26v-.564h1.176V4.564h-.048l-.972 1.038L21 5.23l1.068-1.158H23.1v3.624h1.02v.564h-2.862zm5.26.072c-.26 0-.486-.049-.678-.147a1.25 1.25 0 01-.474-.423 1.975 1.975 0 01-.276-.678 4.224 4.224 0 01-.09-.918c0-.34.03-.645.09-.915s.152-.497.276-.681a1.25 1.25 0 01.474-.423c.192-.098.418-.147.678-.147.52 0 .903.19 1.149.57.246.38.369.912.369 1.596s-.123 1.216-.369 1.596c-.246.38-.629.57-1.149.57zm0-.576a.735.735 0 00.369-.087.676.676 0 00.249-.249c.064-.108.11-.237.138-.387a2.74 2.74 0 00.042-.501V5.8a2.74 2.74 0 00-.042-.501 1.178 1.178 0 00-.138-.387.676.676 0 00-.249-.249.735.735 0 00-.369-.087.735.735 0 00-.369.087.676.676 0 00-.249.249c-.064.108-.11.237-.138.387a2.74 2.74 0 00-.042.501v.732c0 .184.014.351.042.501.028.15.074.279.138.387a.676.676 0 00.249.249.735.735 0 00.369.087z" fill="#FFF" fill-rule="nonzero" /></g></symbol><symbol viewBox="0 0 32 32" id="ic-100-1s-index"><g stroke="none" stroke-width="1" fill="none" fill-rule="evenodd"><path d="M0 0h32v32H0z" /><path d="M8.88 8.35a1.68 1.68 0 01-.74-.16 1.33 1.33 0 01-.51-.46 1.92 1.92 0 01-.3-.73 4.25 4.25 0 01-.1-1 4.25 4.25 0 01.1-1 2 2 0 01.3-.74 1.33 1.33 0 01.51-.46 1.68 1.68 0 01.74-.16 1.38 1.38 0 011.24.62 3.14 3.14 0 01.4 1.74 3.14 3.14 0 01-.4 1.73 1.38 1.38 0 01-1.24.62zm0-.63a.84.84 0 00.4-.09.7.7 0 00.27-.27 1.3 1.3 0 00.15-.42 3 3 0 000-.54v-.8a3 3 0 000-.54 1.3 1.3 0 00-.15-.42.7.7 0 00-.27-.27.84.84 0 00-.4-.09.82.82 0 00-.4.09.7.7 0 00-.27.27 1.3 1.3 0 00-.15.42A2.92 2.92 0 008 5.6v.8c0 .181.017.362.05.54a1.3 1.3 0 00.15.42.7.7 0 00.27.27.82.82 0 00.41.09z" fill="#FFF" fill-rule="nonzero" /><circle fill="#EF4852" fill-rule="nonzero" cx="25" cy="25" r="5" /><path fill="#FFF" fill-rule="nonzero" d="M22.15 27.23v-.61h1.27v-3.39h-.05l-1.05 1.12-.45-.4L23 22.69h1.12v3.93h1.11v.61zM26.79 27.31a1.64 1.64 0 01-1.37-.64l.46-.42a1.3 1.3 0 00.42.36c.163.086.345.131.53.13a.76.76 0 00.47-.12.42.42 0 00.15-.34.41.41 0 00-.11-.28.61.61 0 00-.37-.14h-.31a1.66 1.66 0 01-.82-.3.85.85 0 01-.29-.71 1 1 0 01.09-.44 1 1 0 01.25-.32 1.27 1.27 0 01.4-.21 2 2 0 01.51-.07c.254-.008.507.04.74.14.198.098.375.234.52.4l-.43.42a1.06 1.06 0 00-.35-.27 1 1 0 00-.48-.12.63.63 0 00-.43.12.37.37 0 00-.14.31.36.36 0 00.12.29 1 1 0 00.4.14h.31a1.6 1.6 0 01.82.33.85.85 0 01.25.65 1.06 1.06 0 01-.09.45 1 1 0 01-.27.34 1.4 1.4 0 01-.42.22 1.94 1.94 0 01-.56.08z" /><path d="M29.93 12.76a.502.502 0 10-.86-.52L26.8 16h-.3a1.52 1.52 0 00-.79.23L22.91 14c.06-.16.091-.33.09-.5a1.5 1.5 0 00-3 0c0 .348.124.685.35.95L18.8 17a1.48 1.48 0 00-1.09.2l-2.8-2.2c.06-.16.091-.33.09-.5a1.5 1.5 0 10-2.58 1L10.68 19h-.18a1.52 1.52 0 00-.79.23L6.91 17a1.48 1.48 0 000-.91A1.51 1.51 0 005.5 15c-.142 0-.283.02-.42.06a1.5 1.5 0 00-1 1.86c.087.305.274.573.53.76L3.47 21a1.51 1.51 0 10.95.32L5.53 18c.142 0 .283-.02.42-.06.13-.043.253-.1.37-.17L9.09 20c-.06.16-.091.33-.09.5a1.5 1.5 0 102.58-1l1.74-3.5h.18a1.52 1.52 0 00.79-.23l2.8 2.23a1.37 1.37 0 00-.09.49 1.5 1.5 0 003 0 1.46 1.46 0 00-.35-.95L21.2 15h.3a1.52 1.52 0 00.79-.23l2.8 2.23a1.37 1.37 0 00-.09.49 1.5 1.5 0 003 0 1.46 1.46 0 00-.35-.95l2.28-3.78zM3.5 23a.5.5 0 110-1 .5.5 0 010 1zm2.14-6H5.5a.505.505 0 01-.14-1h.14a.505.505 0 01.14 1zm4.86 4a.5.5 0 110-1 .5.5 0 010 1zm3-6a.5.5 0 110-1 .5.5 0 010 1zm5 4a.5.5 0 110-1 .5.5 0 010 1zm3-5a.5.5 0 110-1 .5.5 0 010 1zm5 4a.5.5 0 110-1 .5.5 0 010 1z" fill="#84AAAF" fill-rule="nonzero" /><rect fill="#2A2A2A" fill-rule="nonzero" x="2" y="2" width="14" height="9" rx="1" /><path d="M3.301 8.97v-.658h1.372V4.658h-.056L3.483 5.869 3 5.435l1.246-1.351H5.45v4.228h1.19v.658H3.301zm5.684.084c-.303 0-.567-.057-.791-.171a1.458 1.458 0 01-.553-.494 2.304 2.304 0 01-.322-.791 4.928 4.928 0 01-.105-1.071c0-.397.035-.752.105-1.067.07-.316.177-.58.322-.795.145-.215.329-.38.553-.494.224-.114.488-.171.791-.171.607 0 1.053.222 1.34.665.288.443.431 1.064.431 1.862s-.143 1.419-.43 1.862c-.288.443-.734.665-1.341.665zm0-.672a.858.858 0 00.43-.101.788.788 0 00.291-.291c.075-.126.128-.276.161-.452.033-.175.049-.37.049-.584V6.1c0-.215-.016-.41-.049-.584a1.374 1.374 0 00-.161-.452.788.788 0 00-.29-.29.858.858 0 00-.431-.102.858.858 0 00-.43.102.788.788 0 00-.291.29 1.374 1.374 0 00-.161.452c-.033.175-.049.37-.049.584v.854c0 .215.016.41.049.585s.086.325.161.451a.788.788 0 00.29.29.858.858 0 00.431.102zm4.2.672c-.303 0-.567-.057-.791-.171a1.458 1.458 0 01-.553-.494 2.304 2.304 0 01-.322-.791 4.928 4.928 0 01-.105-1.071c0-.397.035-.752.105-1.067.07-.316.177-.58.322-.795.145-.215.329-.38.553-.494.224-.114.488-.171.791-.171.607 0 1.053.222 1.34.665.288.443.431 1.064.431 1.862s-.143 1.419-.43 1.862c-.288.443-.734.665-1.341.665zm0-.672a.858.858 0 00.43-.101.788.788 0 00.291-.291c.075-.126.128-.276.161-.452.033-.175.049-.37.049-.584V6.1c0-.215-.016-.41-.049-.584a1.374 1.374 0 00-.161-.452.788.788 0 00-.29-.29.858.858 0 00-.431-.102.858.858 0 00-.43.102.788.788 0 00-.291.29 1.374 1.374 0 00-.161.452c-.033.175-.049.37-.049.584v.854c0 .215.016.41.049.585s.086.325.161.451a.788.788 0 00.29.29.858.858 0 00.431.102z" fill="#FFF" fill-rule="nonzero" /></g></symbol><symbol viewBox="0 0 32 32" id="ic-100-index"><g stroke="none" stroke-width="1" fill="none" fill-rule="evenodd"><path d="M0 0h32v32H0z" /><rect fill="#2A2A2A" fill-rule="nonzero" x="16" y="2" width="14" height="9" rx="1" /><path d="M6.862 8.15a.5.5 0 00-.71 0l-1.16 1.16V6.5a.5.5 0 00-1 0v2.78l-1.13-1.13a.5.5 0 00-.71 0 .48.48 0 000 .7l2 2a.49.49 0 00.34.15.51.51 0 00.36-.15l2-2a.5.5 0 00.01-.7z" fill="#EF4852" fill-rule="nonzero" /><path d="M26.08 14h-1a.5.5 0 110-1h1a.5.5 0 110 1zm-2.89 0h-1a.5.5 0 110-1h1a.5.5 0 110 1zm-2.88 0h-1a.5.5 0 110-1h1a.5.5 0 110 1zm-2.89 0h-1a.5.5 0 110-1h1a.5.5 0 110 1zm-2.88 0h-1a.5.5 0 110-1h1a.5.5 0 110 1zm-2.89 0h-1a.5.5 0 110-1h1a.5.5 0 110 1zm-2.88 0h-1a.5.5 0 110-1h1a.5.5 0 110 1zm-2.89 0h-1a.5.5 0 110-1h1a.5.5 0 110 1zM3 14h-.5a.5.5 0 110-1H3a.5.5 0 110 1zM29.5 24H29a.5.5 0 110-1h.5a.5.5 0 110 1zM27.08 24h-1a.5.5 0 110-1h1a.5.5 0 110 1zm-2.89 0h-1a.5.5 0 110-1h1a.5.5 0 110 1zm-2.88 0h-1a.5.5 0 110-1h1a.5.5 0 110 1zm-2.89 0h-1a.5.5 0 110-1h1a.5.5 0 110 1zm-2.88 0h-1a.5.5 0 110-1h1a.5.5 0 110 1zm-2.89 0h-1a.5.5 0 110-1h1a.5.5 0 110 1zm-2.88 0h-1a.5.5 0 110-1h1a.5.5 0 110 1zm-2.89 0h-1a.5.5 0 110-1h1a.5.5 0 110 1z" fill="#E4E4E4" fill-rule="nonzero" /><path d="M29.85 28.15l-2-2a.36.36 0 00-.16-.11.5.5 0 00-.38 0 .36.36 0 00-.16.11l-2 2a.495.495 0 10.7.7L27 27.71v2.79a.5.5 0 101 0v-2.79l1.15 1.14a.48.48 0 00.7 0 .48.48 0 000-.7zM28.5 13a1.5 1.5 0 00-1.29 2.26L24 19.1a1.5 1.5 0 00-.52-.1 1.52 1.52 0 00-.79.23L19.91 17a1.5 1.5 0 10-2.76.14l-3 3a1.51 1.51 0 00-.65-.14 1.46 1.46 0 00-.95.35L10 18.8c.01-.1.01-.2 0-.3a1.5 1.5 0 00-3 0c0 .167.03.334.09.49l-2.8 2.24A1.52 1.52 0 003.5 21 1.5 1.5 0 105 22.5a1.37 1.37 0 00-.09-.5l2.8-2.24c.236.151.51.234.79.24.348 0 .685-.124.95-.35L12 21.2c-.01.1-.01.2 0 .3a1.5 1.5 0 102.85-.64l3-3c.458.225 1 .195 1.43-.08L22.09 20a1.37 1.37 0 00-.09.49 1.5 1.5 0 102.79-.76L28 15.9a1.5 1.5 0 10.5-2.9zm-25 10a.5.5 0 110-1 .5.5 0 010 1zm5-4a.5.5 0 110-1 .5.5 0 010 1zm5 3a.5.5 0 110-1 .5.5 0 010 1zm5-5a.5.5 0 110-1 .5.5 0 010 1zm5 4a.5.5 0 110-1 .5.5 0 010 1zm5-6a.5.5 0 110-1 .5.5 0 010 1z" fill="#84AAAF" fill-rule="nonzero" /><path d="M17.301 8.97v-.658h1.372V4.658h-.056l-1.134 1.211L17 5.435l1.246-1.351h1.204v4.228h1.19v.658h-3.339zm5.684.084c-.303 0-.567-.057-.791-.171a1.458 1.458 0 01-.553-.494 2.304 2.304 0 01-.322-.791 4.928 4.928 0 01-.105-1.071c0-.397.035-.752.105-1.067.07-.316.177-.58.322-.795.145-.215.329-.38.553-.494.224-.114.488-.171.791-.171.607 0 1.053.222 1.34.665.288.443.431 1.064.431 1.862s-.143 1.419-.43 1.862c-.288.443-.734.665-1.341.665zm0-.672a.858.858 0 00.43-.101.788.788 0 00.291-.291c.075-.126.128-.276.161-.452.033-.175.049-.37.049-.584V6.1c0-.215-.016-.41-.049-.584a1.374 1.374 0 00-.161-.452.788.788 0 00-.29-.29.858.858 0 00-.431-.102.858.858 0 00-.43.102.788.788 0 00-.291.29 1.374 1.374 0 00-.161.452c-.033.175-.049.37-.049.584v.854c0 .215.016.41.049.585s.086.325.161.451a.788.788 0 00.29.29.858.858 0 00.431.102zm4.2.672c-.303 0-.567-.057-.791-.171a1.458 1.458 0 01-.553-.494 2.304 2.304 0 01-.322-.791 4.928 4.928 0 01-.105-1.071c0-.397.035-.752.105-1.067.07-.316.177-.58.322-.795.145-.215.329-.38.553-.494.224-.114.488-.171.791-.171.607 0 1.053.222 1.34.665.288.443.431 1.064.431 1.862s-.143 1.419-.43 1.862c-.288.443-.734.665-1.341.665zm0-.672a.858.858 0 00.43-.101.788.788 0 00.291-.291c.075-.126.128-.276.161-.452.033-.175.049-.37.049-.584V6.1c0-.215-.016-.41-.049-.584a1.374 1.374 0 00-.161-.452.788.788 0 00-.29-.29.858.858 0 00-.431-.102.858.858 0 00-.43.102.788.788 0 00-.291.29 1.374 1.374 0 00-.161.452c-.033.175-.049.37-.049.584v.854c0 .215.016.41.049.585s.086.325.161.451a.788.788 0 00.29.29.858.858 0 00.431.102z" fill="#FFF" fill-rule="nonzero" /></g></symbol><symbol viewBox="0 0 32 32" id="ic-25-index"><g stroke="none" stroke-width="1" fill="none" fill-rule="evenodd"><path d="M0 0h32v32H0z" /><path d="M6.87 7.15a.5.5 0 00-.71 0L5 8.31V5.5a.5.5 0 00-1 0v2.78L2.87 7.15a.5.5 0 00-.71 0 .48.48 0 000 .7l2 2a.49.49 0 00.34.15.51.51 0 00.36-.15l2-2a.5.5 0 00.01-.7z" fill="#EF4852" fill-rule="nonzero" /><rect fill="#2A2A2A" fill-rule="nonzero" x="19" y="2" width="11" height="8" rx="1" /><path d="M23.904 8.26H21.06v-.648l1.338-1.194c.212-.192.375-.375.489-.549a.986.986 0 00.171-.549v-.078c0-.204-.061-.364-.183-.48-.122-.116-.287-.174-.495-.174a.822.822 0 00-.303.051.703.703 0 00-.225.141.786.786 0 00-.159.21 1.21 1.21 0 00-.099.258L21 5.02c.044-.132.104-.259.18-.381a1.35 1.35 0 01.699-.555c.158-.056.343-.084.555-.084.212 0 .402.031.57.093.168.062.309.148.423.258a1.1 1.1 0 01.261.393c.06.152.09.318.09.498 0 .168-.026.324-.078.468-.052.144-.124.28-.216.408-.092.128-.199.25-.321.366-.122.116-.251.234-.387.354l-.984.846h2.112v.576zm3.76-3.672h-1.86l-.108 1.482h.042c.048-.084.098-.159.15-.225a.79.79 0 01.414-.282 1.368 1.368 0 01.813.051c.154.06.288.146.402.258.114.112.203.249.267.411.064.162.096.345.096.549 0 .208-.033.4-.099.576a1.235 1.235 0 01-.291.453 1.328 1.328 0 01-.471.294c-.186.07-.397.105-.633.105-.188 0-.354-.021-.498-.063a1.413 1.413 0 01-.669-.408A2.35 2.35 0 0125 7.51l.492-.39c.052.084.106.16.162.228.056.068.12.128.192.18a.836.836 0 00.243.12c.09.028.193.042.309.042.248 0 .439-.068.573-.204.134-.136.201-.324.201-.564V6.85c0-.24-.067-.428-.201-.564-.134-.136-.325-.204-.573-.204a.803.803 0 00-.432.102 1.31 1.31 0 00-.276.228l-.558-.078L25.288 4h2.376v.588z" fill="#FFF" fill-rule="nonzero" /><path d="M26.08 13h-1a.5.5 0 110-1h1a.5.5 0 110 1zm-2.89 0h-1a.5.5 0 110-1h1a.5.5 0 110 1zm-2.88 0h-1a.5.5 0 110-1h1a.5.5 0 110 1zm-2.89 0h-1a.5.5 0 110-1h1a.5.5 0 110 1zm-2.88 0h-1a.5.5 0 110-1h1a.5.5 0 110 1zm-2.89 0h-1a.5.5 0 110-1h1a.5.5 0 110 1zm-2.88 0h-1a.5.5 0 110-1h1a.5.5 0 110 1zm-2.89 0h-1a.5.5 0 110-1h1a.5.5 0 110 1zM3 13h-.5a.5.5 0 110-1H3a.5.5 0 110 1zM29.5 23H29a.5.5 0 110-1h.5a.5.5 0 110 1zM27.08 23h-1a.5.5 0 110-1h1a.5.5 0 110 1zm-2.89 0h-1a.5.5 0 110-1h1a.5.5 0 110 1zm-2.88 0h-1a.5.5 0 110-1h1a.5.5 0 110 1zm-2.89 0h-1a.5.5 0 110-1h1a.5.5 0 110 1zm-2.88 0h-1a.5.5 0 110-1h1a.5.5 0 110 1zm-2.89 0h-1a.5.5 0 110-1h1a.5.5 0 110 1zm-2.88 0h-1a.5.5 0 110-1h1a.5.5 0 110 1zm-2.89 0h-1a.5.5 0 110-1h1a.5.5 0 110 1z" fill="#E4E4E4" fill-rule="nonzero" /><path d="M29.85 27.15l-2-2a.36.36 0 00-.16-.11.5.5 0 00-.38 0 .36.36 0 00-.16.11l-2 2a.495.495 0 10.7.7L27 26.71v2.79a.5.5 0 101 0v-2.79l1.15 1.14a.48.48 0 00.7 0 .48.48 0 000-.7zM28.5 12a1.5 1.5 0 00-1.29 2.26L24 18.1a1.5 1.5 0 00-.52-.1 1.52 1.52 0 00-.79.23L19.91 16a1.5 1.5 0 10-2.76.14l-3 3a1.51 1.51 0 00-.65-.14 1.46 1.46 0 00-.95.35L10 17.8c.01-.1.01-.2 0-.3a1.5 1.5 0 00-3 0c0 .167.03.334.09.49l-2.8 2.24A1.52 1.52 0 003.5 20 1.5 1.5 0 105 21.5a1.37 1.37 0 00-.09-.5l2.8-2.24c.236.151.51.234.79.24.348 0 .685-.124.95-.35L12 20.2c-.01.1-.01.2 0 .3a1.5 1.5 0 102.85-.64l3-3c.458.225 1 .195 1.43-.08L22.09 19a1.37 1.37 0 00-.09.49 1.5 1.5 0 102.79-.76L28 14.9a1.5 1.5 0 10.5-2.9zm-25 10a.5.5 0 110-1 .5.5 0 010 1zm5-4a.5.5 0 110-1 .5.5 0 010 1zm5 3a.5.5 0 110-1 .5.5 0 010 1zm5-5a.5.5 0 110-1 .5.5 0 010 1zm5 4a.5.5 0 110-1 .5.5 0 010 1zm5-6a.5.5 0 110-1 .5.5 0 010 1z" fill="#84AAAF" fill-rule="nonzero" /></g></symbol><symbol viewBox="0 0 32 32" id="ic-50-index"><g stroke="none" stroke-width="1" fill="none" fill-rule="evenodd"><path d="M0 0h32v32H0z" /><path d="M6.87 7.15a.5.5 0 00-.71 0L5 8.31V5.5a.5.5 0 00-1 0v2.78L2.87 7.15a.5.5 0 00-.71 0 .48.48 0 000 .7l2 2a.49.49 0 00.34.15.51.51 0 00.36-.15l2-2a.5.5 0 00.01-.7z" fill="#EF4852" fill-rule="nonzero" /><path d="M26.08 13h-1a.5.5 0 110-1h1a.5.5 0 110 1zm-2.89 0h-1a.5.5 0 110-1h1a.5.5 0 110 1zm-2.88 0h-1a.5.5 0 110-1h1a.5.5 0 110 1zm-2.89 0h-1a.5.5 0 110-1h1a.5.5 0 110 1zm-2.88 0h-1a.5.5 0 110-1h1a.5.5 0 110 1zm-2.89 0h-1a.5.5 0 110-1h1a.5.5 0 110 1zm-2.88 0h-1a.5.5 0 110-1h1a.5.5 0 110 1zm-2.89 0h-1a.5.5 0 110-1h1a.5.5 0 110 1zM3 13h-.5a.5.5 0 110-1H3a.5.5 0 110 1zM29.5 23H29a.5.5 0 110-1h.5a.5.5 0 110 1zM27.08 23h-1a.5.5 0 110-1h1a.5.5 0 110 1zm-2.89 0h-1a.5.5 0 110-1h1a.5.5 0 110 1zm-2.88 0h-1a.5.5 0 110-1h1a.5.5 0 110 1zm-2.89 0h-1a.5.5 0 110-1h1a.5.5 0 110 1zm-2.88 0h-1a.5.5 0 110-1h1a.5.5 0 110 1zm-2.89 0h-1a.5.5 0 110-1h1a.5.5 0 110 1zm-2.88 0h-1a.5.5 0 110-1h1a.5.5 0 110 1zm-2.89 0h-1a.5.5 0 110-1h1a.5.5 0 110 1z" fill="#E4E4E4" fill-rule="nonzero" /><path d="M29.85 27.15l-2-2a.36.36 0 00-.16-.11.5.5 0 00-.38 0 .36.36 0 00-.16.11l-2 2a.495.495 0 10.7.7L27 26.71v2.79a.5.5 0 101 0v-2.79l1.15 1.14a.48.48 0 00.7 0 .48.48 0 000-.7zM28.5 12a1.5 1.5 0 00-1.29 2.26L24 18.1a1.5 1.5 0 00-.52-.1 1.52 1.52 0 00-.79.23L19.91 16a1.5 1.5 0 10-2.76.14l-3 3a1.51 1.51 0 00-.65-.14 1.46 1.46 0 00-.95.35L10 17.8c.01-.1.01-.2 0-.3a1.5 1.5 0 00-3 0c0 .167.03.334.09.49l-2.8 2.24A1.52 1.52 0 003.5 20 1.5 1.5 0 105 21.5a1.37 1.37 0 00-.09-.5l2.8-2.24c.236.151.51.234.79.24.348 0 .685-.124.95-.35L12 20.2c-.01.1-.01.2 0 .3a1.5 1.5 0 102.85-.64l3-3c.458.225 1 .195 1.43-.08L22.09 19a1.37 1.37 0 00-.09.49 1.5 1.5 0 102.79-.76L28 14.9a1.5 1.5 0 10.5-2.9zm-25 10a.5.5 0 110-1 .5.5 0 010 1zm5-4a.5.5 0 110-1 .5.5 0 010 1zm5 3a.5.5 0 110-1 .5.5 0 010 1zm5-5a.5.5 0 110-1 .5.5 0 010 1zm5 4a.5.5 0 110-1 .5.5 0 010 1zm5-6a.5.5 0 110-1 .5.5 0 010 1z" fill="#84AAAF" fill-rule="nonzero" /><rect fill="#2A2A2A" fill-rule="nonzero" x="19" y="2" width="11" height="8" rx="1" /><path d="M23.664 4.66h-1.86l-.108 1.482h.042c.048-.084.098-.159.15-.225a.79.79 0 01.414-.282 1.368 1.368 0 01.813.051c.154.06.288.146.402.258.114.112.203.249.267.411.064.162.096.345.096.549 0 .208-.033.4-.099.576a1.235 1.235 0 01-.291.453 1.328 1.328 0 01-.471.294c-.186.07-.397.105-.633.105-.188 0-.354-.021-.498-.063a1.413 1.413 0 01-.669-.408A2.35 2.35 0 0121 7.582l.492-.39c.052.084.106.16.162.228.056.068.12.128.192.18a.836.836 0 00.243.12c.09.028.193.042.309.042.248 0 .439-.068.573-.204.134-.136.201-.324.201-.564v-.072c0-.24-.067-.428-.201-.564-.134-.136-.325-.204-.573-.204a.803.803 0 00-.432.102 1.31 1.31 0 00-.276.228l-.558-.078.156-2.334h2.376v.588zm2.854 3.672c-.26 0-.486-.049-.678-.147a1.25 1.25 0 01-.474-.423 1.975 1.975 0 01-.276-.678 4.224 4.224 0 01-.09-.918c0-.34.03-.645.09-.915s.152-.497.276-.681a1.25 1.25 0 01.474-.423c.192-.098.418-.147.678-.147.52 0 .903.19 1.149.57.246.38.369.912.369 1.596s-.123 1.216-.369 1.596c-.246.38-.629.57-1.149.57zm0-.576a.735.735 0 00.369-.087.676.676 0 00.249-.249c.064-.108.11-.237.138-.387a2.74 2.74 0 00.042-.501V5.8a2.74 2.74 0 00-.042-.501 1.178 1.178 0 00-.138-.387.676.676 0 00-.249-.249.735.735 0 00-.369-.087.735.735 0 00-.369.087.676.676 0 00-.249.249c-.064.108-.11.237-.138.387a2.74 2.74 0 00-.042.501v.732c0 .184.014.351.042.501.028.15.074.279.138.387a.676.676 0 00.249.249.735.735 0 00.369.087z" fill="#FFF" fill-rule="nonzero" /></g></symbol><symbol viewBox="0 0 32 32" id="ic-75-index"><g stroke="none" stroke-width="1" fill="none" fill-rule="evenodd"><path d="M0 0h32v32H0z" /><rect fill="#2A2A2A" fill-rule="nonzero" x="19" y="2" width="11" height="8" rx="1" /><path d="M21.648 8.188l1.518-3.63h-1.584v.774H21V4h2.838v.588l-1.476 3.6h-.714zm6.016-3.6h-1.86l-.108 1.482h.042c.048-.084.098-.159.15-.225a.79.79 0 01.414-.282 1.368 1.368 0 01.813.051c.154.06.288.146.402.258.114.112.203.249.267.411.064.162.096.345.096.549 0 .208-.033.4-.099.576a1.235 1.235 0 01-.291.453 1.328 1.328 0 01-.471.294c-.186.07-.397.105-.633.105-.188 0-.354-.021-.498-.063a1.413 1.413 0 01-.669-.408A2.35 2.35 0 0125 7.51l.492-.39c.052.084.106.16.162.228.056.068.12.128.192.18a.836.836 0 00.243.12c.09.028.193.042.309.042.248 0 .439-.068.573-.204.134-.136.201-.324.201-.564V6.85c0-.24-.067-.428-.201-.564-.134-.136-.325-.204-.573-.204a.803.803 0 00-.432.102 1.31 1.31 0 00-.276.228l-.558-.078L25.288 4h2.376v.588z" fill="#FFF" fill-rule="nonzero" /><path d="M6.87 7.15a.5.5 0 00-.71 0L5 8.31V5.5a.5.5 0 00-1 0v2.78L2.87 7.15a.5.5 0 00-.71 0 .48.48 0 000 .7l2 2a.49.49 0 00.34.15.51.51 0 00.36-.15l2-2a.5.5 0 00.01-.7z" fill="#EF4852" fill-rule="nonzero" /><path d="M26.08 13h-1a.5.5 0 110-1h1a.5.5 0 110 1zm-2.89 0h-1a.5.5 0 110-1h1a.5.5 0 110 1zm-2.88 0h-1a.5.5 0 110-1h1a.5.5 0 110 1zm-2.89 0h-1a.5.5 0 110-1h1a.5.5 0 110 1zm-2.88 0h-1a.5.5 0 110-1h1a.5.5 0 110 1zm-2.89 0h-1a.5.5 0 110-1h1a.5.5 0 110 1zm-2.88 0h-1a.5.5 0 110-1h1a.5.5 0 110 1zm-2.89 0h-1a.5.5 0 110-1h1a.5.5 0 110 1zM3 13h-.5a.5.5 0 110-1H3a.5.5 0 110 1zM29.5 23H29a.5.5 0 110-1h.5a.5.5 0 110 1zM27.08 23h-1a.5.5 0 110-1h1a.5.5 0 110 1zm-2.89 0h-1a.5.5 0 110-1h1a.5.5 0 110 1zm-2.88 0h-1a.5.5 0 110-1h1a.5.5 0 110 1zm-2.89 0h-1a.5.5 0 110-1h1a.5.5 0 110 1zm-2.88 0h-1a.5.5 0 110-1h1a.5.5 0 110 1zm-2.89 0h-1a.5.5 0 110-1h1a.5.5 0 110 1zm-2.88 0h-1a.5.5 0 110-1h1a.5.5 0 110 1zm-2.89 0h-1a.5.5 0 110-1h1a.5.5 0 110 1z" fill="#E4E4E4" fill-rule="nonzero" /><path d="M29.85 27.15l-2-2a.36.36 0 00-.16-.11.5.5 0 00-.38 0 .36.36 0 00-.16.11l-2 2a.495.495 0 10.7.7L27 26.71v2.79a.5.5 0 101 0v-2.79l1.15 1.14a.48.48 0 00.7 0 .48.48 0 000-.7zM28.5 12a1.5 1.5 0 00-1.29 2.26L24 18.1a1.5 1.5 0 00-.52-.1 1.52 1.52 0 00-.79.23L19.91 16a1.5 1.5 0 10-2.76.14l-3 3a1.51 1.51 0 00-.65-.14 1.46 1.46 0 00-.95.35L10 17.8c.01-.1.01-.2 0-.3a1.5 1.5 0 00-3 0c0 .167.03.334.09.49l-2.8 2.24A1.52 1.52 0 003.5 20 1.5 1.5 0 105 21.5a1.37 1.37 0 00-.09-.5l2.8-2.24c.236.151.51.234.79.24.348 0 .685-.124.95-.35L12 20.2c-.01.1-.01.2 0 .3a1.5 1.5 0 102.85-.64l3-3c.458.225 1 .195 1.43-.08L22.09 19a1.37 1.37 0 00-.09.49 1.5 1.5 0 102.79-.76L28 14.9a1.5 1.5 0 10.5-2.9zm-25 10a.5.5 0 110-1 .5.5 0 010 1zm5-4a.5.5 0 110-1 .5.5 0 010 1zm5 3a.5.5 0 110-1 .5.5 0 010 1zm5-5a.5.5 0 110-1 .5.5 0 010 1zm5 4a.5.5 0 110-1 .5.5 0 010 1zm5-6a.5.5 0 110-1 .5.5 0 010 1z" fill="#84AAAF" fill-rule="nonzero" /></g></symbol><symbol viewBox="0 0 16 16" id="ic-active-normal"><path d="M11.323 7.753H8.257l1.24-4.49-4.818 4.99h3.029l-1.203 4.49 4.818-4.99zm-1.752-1h2.93a.5.5 0 01.36.847l-7 7.25c-.36.373-.98.02-.842-.48l1.412-5.117H3.5a.5.5 0 01-.36-.848l7-7.25c.36-.373.98-.019.842.48L9.571 6.753z" fill-rule="nonzero" stroke="none" stroke-width="1" /></symbol><symbol viewBox="0 0 16 16" id="ic-back"><path d="M3.613 8.5l3.26 3.668a.5.5 0 11-.747.664l-4-4.5a.5.5 0 010-.664l4-4.5a.5.5 0 01.748.664L3.614 7.5H13.5a.5.5 0 110 1H3.613z" fill-rule="nonzero" stroke-width="1" stroke="none" /></symbol><symbol viewBox="0 0 16 16" id="ic-baseline-normal"><g stroke="none" fill-rule="evenodd"><rect width="2" height="1" y="7.5" rx=".5" /><rect width="2" height="1" x="3" y="7.5" rx=".5" /><rect width="2" height="1" x="6" y="7.5" rx=".5" /><rect width="2" height="1" x="9" y="7.5" rx=".5" /><rect width="2" height="1" x="12.5" y="7.5" rx=".5" /><rect width="2" height="1" x="12.5" y="6" rx=".5" /><rect width="2" height="1" x="12.5" y="9" rx=".5" /><path stroke-linecap="round" stroke-linejoin="round" d="M11.5 5.5l2-2 1.995 2m-3.995 5l2 2 1.995-2" /></g></symbol><symbol viewBox="0 0 16 16" id="ic-candle-normal"><path d="M7.5 13H5V3h2.5V0h1v3H11v10H8.5v3h-1v-3z" stroke="none" stroke-width="1" fill-rule="evenodd" /></symbol><symbol viewBox="0 0 16 16" id="ic-charttemplate-normal"><g stroke="none" stroke-width="1" fill-rule="evenodd"><path d="M3 1v14h10V1H3zm0-1h10a1 1 0 011 1v14a1 1 0 01-1 1H3a1 1 0 01-1-1V1a1 1 0 011-1z" fill-rule="nonzero" /><path d="M4.76 6.534l.774-.773A1.001 1.001 0 016.5 4.5a1 1 0 01.967 1.256l.777.777a1.001 1.001 0 01.518.002l1.773-1.773A1.001 1.001 0 1112.5 4.5a1 1 0 01-1.256.967L9.467 7.244A1.001 1.001 0 018.5 8.5a1 1 0 01-.965-1.262l-.773-.773a1.001 1.001 0 01-.52.002l-.776.775A1.001 1.001 0 014.5 8.5a1 1 0 11.26-1.966z" fill-rule="nonzero" /><path d="M4.5 10h4a.5.5 0 110 1h-4a.5.5 0 110-1zM4.5 12h2a.5.5 0 110 1h-2a.5.5 0 110-1z" /></g></symbol><symbol viewBox="0 0 16 16" id="ic-clear"><g fill="none" fill-rule="evenodd"><path stroke-linejoin="round" d="M13.5.5l2 2-3 3 2 2-6 6-6-6 5.998-6 2.003 2z" /><path d="M12.502 9.5L6.5 3.5M4 9l3-3m0 6l3-3m-4.5 1.5l3-3M1 9h1v3H1z" /><path d="M0 10h3v1H0zm5 3h1v3H5zm-4 0h1v1H1zm0-8h1v1H1zm9 9h1v1h-1z" /><path d="M4 14h3v1H4z" /></g></symbol><symbol viewBox="0 0 16 16" id="ic-close"><path d="M8 7.293l4.146-4.147a.5.5 0 01.708.708L8.707 8l4.147 4.146a.5.5 0 01-.708.708L8 8.707l-4.146 4.147a.5.5 0 01-.708-.708L7.293 8 3.146 3.854a.5.5 0 11.708-.708L8 7.293z" fill-rule="nonzero" stroke="none" stroke-width="1" /></symbol><symbol viewBox="0 0 16 16" id="ic-close-bold"><path fill-opacity=".8" fill-rule="evenodd" d="M8 6.587l4.293-4.294a1 1 0 011.414 1.414L9.414 8.002l4.293 4.294a1 1 0 01-1.414 1.414L8 9.416 3.707 13.71a1 1 0 01-1.414-1.414l4.293-4.294-4.293-4.295a1 1 0 011.414-1.414L8 6.587z" /></symbol><symbol viewBox="0 0 16 16" id="ic-close-circle"><path fill-rule="evenodd" d="M8 7.293L5.854 5.146a.5.5 0 10-.708.708L7.293 8l-2.147 2.146a.5.5 0 00.708.708L8 8.707l2.146 2.147a.5.5 0 00.708-.708L8.707 8l2.147-2.146a.5.5 0 00-.708-.708L8 7.293zM8 16A8 8 0 118 0a8 8 0 010 16z" /></symbol><symbol viewBox="0 0 16 16" id="ic-commodities-normal"><path fill="none" d="M9.5 8h4l1.5 4H8zm-7 0h4L8 12H1zM6 4h4l1.5 4h-7z" fill-rule="evenodd" stroke-linejoin="round" /></symbol><symbol viewBox="0 0 16 16" id="ic-comparison-normal"><path d="M9.707 10H15.5a.5.5 0 110 1H9.707l2.147 2.146a.5.5 0 01-.708.708l-3-3a.5.5 0 010-.708l3-3a.5.5 0 01.708.708L9.707 10zM6.293 6H.5a.5.5 0 010-1h5.793L4.146 2.854a.5.5 0 11.708-.708l3 3a.5.5 0 010 .708l-3 3a.5.5 0 11-.708-.708L6.293 6z" fill-rule="nonzero" stroke="none" stroke-width="1" /></symbol><symbol viewBox="0 0 16 16" id="ic-crosshair-off"><path d="M2.405 5.83a.5.5 0 01.932.361 5 5 0 006.54 6.445.5.5 0 11.375.927 6 6 0 01-7.847-7.734zm10.177 6.044l1.272 1.272a.5.5 0 01-.708.708l-11-11a.5.5 0 11.708-.708l1.272 1.272A5.974 5.974 0 017.5 2.021V.5a.5.5 0 011 0v1.52a6.001 6.001 0 015.48 5.48h1.52a.5.5 0 110 1h-1.52a5.974 5.974 0 01-1.398 3.374zm-.71-.71a5 5 0 00-7.036-7.036l.711.712a4 4 0 015.613 5.613l.712.711zm-1.427-1.426a3 3 0 00-4.184-4.184l4.184 4.184zM4.124 7.01a.5.5 0 11.969.247 3 3 0 003.525 3.68.5.5 0 01.204.978A4 4 0 014.123 7.01zM.5 7.5h2a.5.5 0 010 1h-2a.5.5 0 010-1zM8 13a.5.5 0 01.5.5v2a.5.5 0 11-1 0v-2A.5.5 0 018 13z" fill-rule="nonzero" stroke="none" stroke-width="1" /></symbol><symbol viewBox="0 0 16 16" id="ic-crosshair-on"><path d="M7.5 13.98A6.001 6.001 0 012.02 8.5H.5a.5.5 0 010-1h1.52A6.001 6.001 0 017.5 2.02V.5a.5.5 0 011 0v1.52a6.001 6.001 0 015.48 5.48h1.52a.5.5 0 110 1h-1.52a6.001 6.001 0 01-5.48 5.48v1.52a.5.5 0 11-1 0v-1.52zM8 13A5 5 0 108 3a5 5 0 000 10zm0-1a4 4 0 110-8 4 4 0 010 8zm0-1a3 3 0 100-6 3 3 0 000 6z" fill-rule="nonzero" stroke="none" stroke-width="1" /></symbol><symbol viewBox="0 0 16 16" id="ic-crosshair-tooltip"><path d="M7.5 13.98A6.001 6.001 0 012.02 8.5H.5a.5.5 0 010-1h1.52A6.001 6.001 0 017.5 2.02V.5a.5.5 0 011 0v1.52a6.001 6.001 0 015.48 5.48h1.52a.5.5 0 110 1h-1.52a6.001 6.001 0 01-5.48 5.48v1.52a.5.5 0 11-1 0v-1.52zM8 13A5 5 0 108 3a5 5 0 000 10zM5.5 5.5a.5.5 0 110 1 .5.5 0 010-1zm2 0h3a.5.5 0 110 1h-3a.5.5 0 010-1zm-2 2a.5.5 0 110 1 .5.5 0 010-1zm2 0h3a.5.5 0 110 1h-3a.5.5 0 010-1zm-2 2a.5.5 0 110 1 .5.5 0 010-1zm2 0h3a.5.5 0 110 1h-3a.5.5 0 110-1z" fill-rule="nonzero" stroke="none" stroke-width="1" /></symbol><symbol viewBox="0 0 32 32" id="ic-csv"><g stroke="none" fill="none" fill-rule="evenodd"><path d="M4 4h24v24H4z" /><path fill="#33B57B" fill-rule="nonzero" d="M10 6c-1.1 0-1.99.9-1.99 2L8 24c0 1.1.89 2 1.99 2H22c1.1 0 2-.9 2-2V12l-6-6h-8zm7 7V7.5l5.5 5.5H17z" /><path fill="#FFF" d="M14.087 19.65c-.03.419-.18.748-.451.989-.271.24-.63.361-1.073.361-.485 0-.867-.168-1.146-.504-.278-.336-.417-.797-.417-1.384v-.238c0-.374.064-.704.192-.989.129-.285.312-.504.55-.656.239-.153.516-.229.831-.229.437 0 .79.12 1.056.361.267.24.422.578.463 1.013h-.78c-.019-.251-.087-.433-.204-.546-.117-.114-.295-.17-.535-.17-.26 0-.454.096-.583.287-.13.192-.196.489-.2.892v.294c0 .42.063.728.187.922.124.195.32.292.586.292.241 0 .421-.057.54-.17.119-.113.187-.288.204-.525h.78zm2.476.275a.416.416 0 00-.156-.349c-.104-.08-.291-.166-.562-.256a3.92 3.92 0 01-.642-.267c-.43-.238-.645-.56-.645-.965 0-.21.058-.398.173-.563.115-.164.28-.293.497-.386.215-.093.458-.139.726-.139.271 0 .512.05.724.151a1.137 1.137 0 01.668 1.052h-.78a.532.532 0 00-.164-.416c-.11-.098-.263-.148-.46-.148-.191 0-.34.041-.445.124a.396.396 0 00-.159.328c0 .126.062.233.186.318.124.086.307.166.548.24.443.138.767.308.97.511.202.204.304.457.304.76 0 .337-.124.6-.372.793-.248.191-.582.287-1.001.287-.292 0-.557-.055-.796-.164-.24-.11-.422-.26-.548-.451a1.177 1.177 0 01-.188-.663h.783c0 .43.25.644.749.644.185 0 .33-.038.434-.116a.382.382 0 00.156-.325zm2.71.056l.858-2.928H21l-1.319 3.894h-.814l-1.313-3.894h.866l.853 2.928z" /></g></symbol><symbol viewBox="0 0 16 16" id="ic-delete"><path d="M12 2h3.5a.5.5 0 110 1H15v12a1 1 0 01-1 1H2a1 1 0 01-1-1V3H.5a.5.5 0 010-1H4V1a1 1 0 011-1h6a1 1 0 011 1v1zM2 3v12h12V3H2zm3-1h6V1H5v1zm-.5 3a.5.5 0 01.5.5v7a.5.5 0 11-1 0v-7a.5.5 0 01.5-.5zm7 0a.5.5 0 01.5.5v7a.5.5 0 11-1 0v-7a.5.5 0 01.5-.5zM8 5a.5.5 0 01.5.5v7a.5.5 0 11-1 0v-7A.5.5 0 018 5z" stroke="none" stroke-width="1" fill-rule="evenodd" /></symbol><symbol viewBox="0 0 16 16" id="ic-dot-normal"><g stroke="none" stroke-width="1" fill-rule="evenodd"><circle cx="2.5" cy="8" r="1.5" /><circle cx="8" cy="8" r="1.5" /><circle cx="13.5" cy="8" r="1.5" /></g></symbol><symbol viewBox="0 0 16 16" id="ic-down"><g stroke-linecap="round" stroke-width="1" fill="none" fill-rule="evenodd"><path stroke-linejoin="round" d="M4.498 10l3.5 3.5L11.5 10" /><path d="M8 2.5v11" /></g></symbol><symbol viewBox="0 0 16 16" id="ic-download"><g fill="none" fill-rule="evenodd"><path d="M13.5 4.707L9.293.5H3a.5.5 0 00-.5.5v14a.5.5 0 00.5.5h10a.5.5 0 00.5-.5V4.707z" /><path stroke-linecap="round" stroke-linejoin="round" d="M10 9.5l-2 2-2-2m2 2v-6" /><path d="M9.5.5v3a1 1 0 001 1h3" /></g></symbol><symbol viewBox="0 0 16 16" id="ic-drawingtools-normal"><path d="M10.794 10H5.207L2.95 14.716a.5.5 0 11-.902-.432L4.098 10H2.5a.5.5 0 010-1h2.076l2.138-4.469a2 2 0 112.573 0L11.424 9H13.5a.5.5 0 110 1h-1.598l2.05 4.284a.5.5 0 11-.903.432L10.794 10zm-.479-1l-1.93-4.037a2.01 2.01 0 01-.77 0L5.686 9h4.63zM8 4a1 1 0 100-2 1 1 0 000 2z" stroke="none" stroke-width="1" fill-rule="evenodd" /></symbol><symbol viewBox="0 0 16 16" id="ic-dropdown"><path d="M13.164 5.13a.5.5 0 11.672.74l-5.5 5a.5.5 0 01-.672 0l-5.5-5a.5.5 0 01.672-.74L8 9.824l5.164-4.694z" stroke="none" stroke-width="1" fill-rule="evenodd" /></symbol><symbol viewBox="0 0 16 16" id="ic-edit"><path stroke="none" fill-rule="nonzero" d="M15.028 6.869l-.06-.375-1.145-.383c-.1-.31-.225-.613-.373-.902l.54-1.08-.221-.309a7.302 7.302 0 00-1.599-1.595l-.307-.222-1.08.54a6.123 6.123 0 00-.902-.373L9.5 1.028 9.128.97A7.07 7.07 0 008 .873a7.1 7.1 0 00-1.13.099l-.375.06-.38 1.146a6.34 6.34 0 00-.902.372l-1.079-.542-.307.222A7.15 7.15 0 002.23 3.825l-.222.31.54 1.08c-.146.288-.271.59-.371.9l-1.146.379-.06.375A7.183 7.183 0 00.876 8c0 .35.031.719.097 1.13l.06.375 1.145.382c.1.31.225.613.373.902l-.537 1.077.221.306c.232.322.47.605.73.865.242.244.525.483.864.732l.308.222 1.078-.541c.29.148.592.275.902.373l.38 1.147.376.06c.41.065.78.097 1.128.097.348 0 .717-.032 1.13-.097l.375-.06.38-1.147a6.5 6.5 0 00.9-.371l1.08.54.308-.222c.336-.242.62-.48.864-.73a7.19 7.19 0 00.73-.867l.222-.309-.54-1.08c.148-.289.273-.59.373-.901l1.145-.383.06-.375c.065-.41.096-.78.096-1.128a6.326 6.326 0 00-.095-1.128zm-1.023 1.119v.007c0 .211-.014.425-.04.655l-.554.184-.49.166-.15.492c-.087.285-.2.561-.34.824l-.24.454.49.98a5.668 5.668 0 01-.434.49l-.003.004a5.17 5.17 0 01-.488.431l-.976-.49-.453.237a5.226 5.226 0 01-.835.345l-.489.153-.16.485-.184.553a5.313 5.313 0 01-1.309 0l-.184-.553-.161-.49-.492-.15a4.694 4.694 0 01-.824-.34l-.456-.238-.461.23-.52.26a5.552 5.552 0 01-.925-.925l.487-.977-.237-.453a4.804 4.804 0 01-.343-.828l-.151-.492-1.04-.346a5.313 5.313 0 010-1.31l1.037-.344.151-.491c.088-.283.203-.563.342-.831l.238-.453-.228-.458-.26-.52a6.09 6.09 0 01.925-.926l.979.49.454-.24c.263-.137.542-.253.832-.343l.489-.153.162-.486.184-.554c.236-.026.45-.04.654-.04.209 0 .425.014.653.04l.347 1.036.489.152c.284.09.564.205.83.342l.454.238.977-.49c.34.274.653.585.93.927l-.488.977.234.451c.14.27.256.55.345.836l.154.49.486.162.553.184c.03.235.042.446.039.646zM8.003 5.277A2.727 2.727 0 005.28 8a2.727 2.727 0 002.723 2.723A2.727 2.727 0 0010.727 8a2.727 2.727 0 00-2.724-2.723zm1.13 3.853a1.589 1.589 0 01-1.13.468c-.426 0-.828-.165-1.13-.468A1.589 1.589 0 016.405 8c0-.427.165-.828.468-1.13a1.589 1.589 0 011.13-.468c.427 0 .828.165 1.13.468a1.594 1.594 0 01-.001 2.26z" /></symbol><symbol viewBox="0 0 16 16" id="ic-favorite-normal"><path d="M3.732 14.067L8 11.912l4.268 2.155c.389.196.456.15.387-.236l-.82-4.59 3.469-3.249c.295-.275.278-.326-.15-.386l-4.776-.666L8.238.775c-.189-.366-.287-.367-.475 0L5.623 4.94l-4.778.666c-.426.06-.443.11-.149.386l3.47 3.248-.82 4.591c-.07.386-.003.433.386.236z" stroke-width="1" fill-rule="evenodd" /></symbol><symbol viewBox="0 0 16 16" id="ic-forex-normal"><path fill="none" fill-rule="evenodd" d="M10.935 5.848L12.5 3.5H15l-2.87 4.304L15 12.5h-2.5l-1.674-2.74L9 12.5H6.5l3.13-4.696L7 3.5h2.5l1.435 2.348zM3 9.5v3H1v-9h6v2H3v2h3v2H3z" /></symbol><symbol viewBox="0 0 16 16" id="ic-heikin-ashi-normal"><path stroke="none" d="M11.5 4H13v6h-1.5v4h-1v-4H9V4h1.5V2h1v2zm-7 8H3V4h1.5V2h1v2H7v8H5.5v2h-1v-2zM10 5v4h2V5h-2zM3 0h10v1H3V0z" /></symbol><symbol viewBox="0 0 16 16" id="ic-hollowcandle-normal"><path d="M7.5 13H5V3h2.5V0h1v3H11v10H8.5v3h-1v-3z" stroke="none" stroke-width="1" fill-rule="evenodd" /></symbol><symbol viewBox="0 0 16 16" id="ic-home"><path fill-opacity=".8" fill-rule="evenodd" d="M1.293 2.707a1 1 0 111.414-1.414l6 6a1 1 0 010 1.414l-6 6a1 1 0 01-1.414-1.414L6.586 8 1.293 2.707zm6 0a1 1 0 011.414-1.414l6 6a1 1 0 010 1.414l-6 6a1 1 0 01-1.414-1.414L12.586 8 7.293 2.707z" /></symbol><symbol viewBox="0 0 16 16" id="ic-indicator-normal"><path d="M4.068 7.949A1.5 1.5 0 015.5 6a1.5 1.5 0 011.428 1.96l1.716 1.308a1.493 1.493 0 011.53-.109l2.975-3.006a1.5 1.5 0 11.71.704L10.867 9.88a1.5 1.5 0 11-2.807.2L6.322 8.755A1.493 1.493 0 015.5 9c-.308 0-.594-.093-.832-.251L2.932 10.05A1.5 1.5 0 011.5 12a1.5 1.5 0 11.832-2.749L4.068 7.95zM14.5 6a.5.5 0 100-1 .5.5 0 000 1zm-5 5a.5.5 0 100-1 .5.5 0 000 1zm-4-3a.5.5 0 100-1 .5.5 0 000 1zm-4 3a.5.5 0 100-1 .5.5 0 000 1z" fill-rule="nonzero" stroke="none" stroke-width="1" /></symbol><symbol viewBox="0 0 16 16" id="ic-indices-normal"><g fill-rule="evenodd" stroke="none"><path d="M1.018 7.5H7.5V4.996c-2.114-.037-4.054-.304-5.416-.74A6.96 6.96 0 001.018 7.5zm0 1a6.96 6.96 0 001.066 3.244c1.362-.436 3.302-.703 5.416-.74V8.5H1.018zm13.964-1a6.96 6.96 0 00-1.066-3.244c-1.36.435-3.301.703-5.416.74V7.5h6.482zm0 1H8.5v2.504c2.114.037 4.054.304 5.416.74A6.96 6.96 0 0014.982 8.5zM7.5 12.004c-1.846.034-3.544.25-4.779.593A6.984 6.984 0 007.5 14.982v-2.978zm1 0v2.978a6.984 6.984 0 004.779-2.385c-1.235-.344-2.933-.56-4.779-.593zm-1-10.986a6.984 6.984 0 00-4.779 2.385c1.235.344 2.933.56 4.779.593V1.018zm1 0v2.978c1.848-.034 3.545-.25 4.779-.593A6.984 6.984 0 008.5 1.018zM8 16A8 8 0 118 0a8 8 0 010 16z" /><path d="M8 16c-2.83 0-5-3.618-5-8s2.17-8 5-8 5 3.618 5 8-2.17 8-5 8zm0-1c2.141 0 4-3.098 4-7s-1.859-7-4-7-4 3.098-4 7 1.859 7 4 7z" /></g></symbol><symbol viewBox="0 0 16 16" id="ic-kagi-normal"><path fill="none" stroke-linecap="square" d="M2.5 10.5v-3h2v5h2v-9h2v6h2v-4h2v4h1" /></symbol><symbol viewBox="0 0 16 16" id="ic-line-normal"><path d="M0 7.5h16v1H0z" stroke="none" stroke-width="1" fill-rule="evenodd" /></symbol><symbol viewBox="0 0 16 16" id="ic-linebreak-normal"><path d="M2.5 1.5h3v4h-3zm4 5h3v8h-3zm4-3h3v2h-3z" fill="none" fill-rule="evenodd" /></symbol><symbol viewBox="0 0 16 16" id="ic-linedot-normal"><g stroke="none" stroke-width="1" fill-rule="evenodd"><circle class="icon-line-dot" cx="2.5" cy="8" r="1.5" /><circle class="icon-line-dot" cx="8" cy="8" r="1.5" /><circle class="icon-line-dot" cx="13.5" cy="8" r="1.5" /></g></symbol><symbol viewBox="0 0 32 32" id="ic-marketbear"><g stroke="none" stroke-width="1" fill="none" fill-rule="evenodd"><path d="M0 0h32v32H0z" /><circle fill="#EF4852" fill-rule="nonzero" cx="16" cy="16" r="14" /><path fill="#FFF" fill-rule="nonzero" d="M23.32 11.1l-.18-.13.95-.85.42-1.52-1.37-1.59-1.89.26-1.34 1.38-.34-.25L16 8.24l-3.57.16-.34.25-1.34-1.38-1.89-.26L7.49 8.6l.42 1.52.95.85-.18.13L7 16.71l2.38 3.77L16 24.99l6.62-4.51L25 16.71z" /></g></symbol><symbol viewBox="0 0 32 32" id="ic-marketbull"><g stroke="none" stroke-width="1" fill="none" fill-rule="evenodd"><path d="M0 0h32v32H0z" /><circle fill="#84AAAF" fill-rule="nonzero" cx="16" cy="16" r="14" /><path d="M25.33 13.1l1.2-1.1.28-1.58L26 8.74l-.72-.62.24.76v1.41l-.93 1.24-1.84.47-2.26.14-.49-.58-1.78-.41-2.44.34-2.34-.34-1.78.41-.52.62L8.85 12 7 11.53l-.9-1.24V8.88l.24-.76-.72.62-.83 1.72.28 1.54 1.2 1.06a20.22 20.22 0 004.29 1.31v.86l-1.93-1.1-.89-.1-2.3.65.75 1.2L7.4 17l1.31.38 1.3-.76h.55l-.14 2.2.35 1.18L13 23.58l-.11.48.35 1.51 1.23 1 1.31.13h.1l1.31-.13 1.23-1 .35-1.51-.11-.48L20.83 20l.34-1.27-.17-2.16h.55l1.3.76L24.2 17l1.16-1 .76-1.2-2.3-.65-.89.1L21 15.27v-.86a20.39 20.39 0 004.33-1.31z" fill="#FFF" fill-rule="nonzero" /></g></symbol><symbol viewBox="0 0 16 16" id="ic-maximize"><path d="M10.955 1.5H14.5v3.545m0 5.91V14.5h-3.545m-5.91 0H1.5v-3.545m0-5.91V1.5h3.541" stroke-width="1" fill="none" fill-rule="evenodd" stroke-linecap="round" stroke-linejoin="round" /></symbol><symbol viewBox="0 0 16 16" id="ic-measure"><g fill="none" fill-rule="evenodd"><path d="M1 12L12 1l3 3L3.995 15zm2.5-2.5l2 2" /><path stroke-linecap="square" d="M5.5 7.5l1 1m3-5l1 1" /><path d="M7.5 5.5l2 2" /></g></symbol><symbol viewBox="0 0 32 32" id="ic-metal"><g stroke="none" stroke-width="1" fill-rule="evenodd"><path fill-rule="evenodd" d="M13.118 8h5.764a1 1 0 01.894.553l2.5 5A1 1 0 0121.382 15H10.618a1 1 0 01-.894-1.447l2.5-5A1 1 0 0113.118 8z" /><path stroke-opacity=".08" stroke="#000" stroke-width="1" d="M13.118 8.5a.5.5 0 00-.447.276l-2.5 5a.5.5 0 00.447.724h10.764a.5.5 0 00.447-.724l-2.5-5a.5.5 0 00-.447-.276h-5.764z" /><path fill-rule="evenodd" d="M6.118 16h5.764a1 1 0 01.894.553l2.5 5A1 1 0 0114.382 23H3.618a1 1 0 01-.894-1.447l2.5-5A1 1 0 016.118 16z" /><path stroke-opacity=".08" stroke="#000" stroke-width="1" d="M6.118 16.5a.5.5 0 00-.447.276l-2.5 5a.5.5 0 00.447.724h10.764a.5.5 0 00.447-.724l-2.5-5a.5.5 0 00-.447-.276H6.118z" /><g><path fill-rule="evenodd" d="M20.118 16h5.764a1 1 0 01.894.553l2.5 5A1 1 0 0128.382 23H17.618a1 1 0 01-.894-1.447l2.5-5a1 1 0 01.894-.553z" /><path stroke-opacity=".08" stroke="#000" stroke-width="1" d="M20.118 16.5a.5.5 0 00-.447.276l-2.5 5a.5.5 0 00.447.724h10.764a.5.5 0 00.447-.724l-2.5-5a.5.5 0 00-.447-.276h-5.764z" /></g></g></symbol><symbol viewBox="0 0 16 16" id="ic-ohlc-normal"><path d="M8.5 13v3h-1V4H4V3h3.5V0h1v12H12v1H8.5z" stroke="none" stroke-width="1" fill-rule="evenodd" /></symbol><symbol viewBox="0 0 32 32" id="ic-oilusd"><g stroke="none" stroke-width="1" fill="none" fill-rule="evenodd"><path fill="#5798B4" d="M9 6h14v20H9z" /><g fill-rule="nonzero"><path d="M18.99 17.15c0 1.583-1.346 2.85-2.99 2.85-1.644 0-2.99-1.267-2.99-2.85C13.01 15.567 16 12 16 12s2.99 3.583 2.99 5.15z" fill="#FFC521" /><path d="M16 19.25c-1.207 0-2.203-.933-2.203-2.1 0-.133.122-.25.262-.25s.262.117.262.25c0 .883.752 1.6 1.679 1.6.14 0 .262.117.262.25s-.122.25-.262.25z" fill="#FFF" /></g><rect fill="#3B7B96" x="8" y="6" width="16" height="1" rx=".5" /><rect fill="#3B7B96" x="8" y="8" width="16" height="1" rx=".5" /><rect fill="#3B7B96" x="8" y="23" width="16" height="1" rx=".5" /><rect fill="#3B7B96" x="8" y="25" width="16" height="1" rx=".5" /></g></symbol><symbol viewBox="0 0 16 16" id="ic-otc-normal"><path d="M9.5 6.5H13A1.5 1.5 0 0114.5 8v6.5h-5v-8zm2.5 2h1l-.5-.5v1l.5-.5h-1zm0 0h-1l.5.5V8l-.5.5h1zm0 2h1l-.5-.5v1l.5-.5h-1zm0 0h-1l.5.5v-1l-.5.5h1zm-5.5-7h2v1h1v10h-8v-10h1v-1h2v-2h2v2zM4 7.5h1L4.5 7v1l.5-.5H4zm0 0H3l.5.5V7l-.5.5h1zm3 0h1L7.5 7v1l.5-.5H7zm0 0H6l.5.5V7l-.5.5h1zm-3 2h1L4.5 9v1l.5-.5H4zm0 0H3l.5.5V9l-.5.5h1zm3 0h1L7.5 9v1l.5-.5H7zm0 0H6l.5.5V9l-.5.5h1zm-3 2h1l-.5-.5v1l.5-.5H4zm0 0H3l.5.5v-1l-.5.5h1zm3 0h1l-.5-.5v1l.5-.5H7zm0 0H6l.5.5v-1l-.5.5h1z" fill-rule="evenodd" /></symbol><symbol viewBox="0 0 13 9" id="ic-otcbadge"><g stroke="none" stroke-width="1" fill="none" fill-rule="evenodd"><path d="M2 0h9a2 2 0 012 2v5a2 2 0 01-2 2H2a2 2 0 01-2-2V2a2 2 0 012-2z" fill-opacity=".4" fill="#494C5A" fill-rule="nonzero" /><path d="M2 1a1 1 0 00-1 1v5a1 1 0 001 1h9a1 1 0 001-1V2a1 1 0 00-1-1H2z" fill="#494C5A" /><path d="M5.063 4.566c0 .288-.052.54-.157.756a1.16 1.16 0 01-.45.502 1.273 1.273 0 01-.67.176c-.25 0-.472-.058-.668-.174a1.171 1.171 0 01-.455-.499 1.67 1.67 0 01-.163-.745v-.144c0-.288.053-.54.16-.76.107-.218.258-.386.453-.503.195-.117.418-.175.669-.175.25 0 .473.058.668.175.195.117.346.285.453.504.107.218.16.47.16.757v.13zm-.628-.132c0-.306-.057-.539-.17-.698a.558.558 0 00-.483-.239.558.558 0 00-.482.236c-.113.157-.17.387-.172.69v.143c0 .298.057.53.17.694a.556.556 0 00.488.247c.208 0 .368-.08.48-.238.111-.158.168-.39.169-.693v-.142zm3.345-.907h-.922V5.96h-.62V3.527h-.91V3.04H7.78v.487zm2.716 1.46c-.024.314-.143.562-.359.742-.215.18-.5.271-.853.271-.385 0-.689-.126-.91-.378-.221-.252-.332-.598-.332-1.038v-.178c0-.281.051-.528.153-.742.102-.214.248-.378.437-.493.19-.114.41-.171.66-.171.348 0 .628.09.84.27.212.181.335.435.368.76h-.62c-.015-.188-.07-.324-.162-.41-.093-.084-.235-.127-.425-.127-.207 0-.362.072-.464.216-.103.144-.156.367-.158.669v.22c0 .316.049.546.147.692.099.146.254.219.466.219.192 0 .335-.043.43-.128.094-.085.148-.216.162-.394h.62z" fill="#FFF" /></g></symbol><symbol viewBox="0 0 16 16" id="ic-pencil"><g stroke="none" stroke-width="1" fill="none" fill-rule="evenodd"><path d="M1 11.293L11.44.853a1.5 1.5 0 012.12 0l1.586 1.586a1.5 1.5 0 010 2.122L4.707 15H1v-3.707z" fill="#2A3052" fill-rule="nonzero" /><path d="M10 3.707L12.293 6l-8 8H2v-2.293l8-8zM10.707 3l1.44-1.44a.5.5 0 01.707 0l1.585 1.586a.5.5 0 010 .708L13 5.293 10.707 3z" fill="#FFF" /></g></symbol><symbol viewBox="0 0 16 16" id="ic-placeholder"><g stroke="none" stroke-width="1" fill="none" fill-rule="evenodd"><circle fill="#C2C2C2" cx="8" cy="8" r="8" /><rect fill="#6E7287" x="0" y="0" width="16" height="16" rx="3" /></g></symbol><symbol viewBox="0 0 32 32" id="ic-png"><g fill-rule="evenodd"><path fill="#4B8FFF" d="M10 6c-1.1 0-1.99.9-1.99 2L8 24c0 1.1.89 2 1.99 2H22c1.1 0 2-.9 2-2V12l-6-6h-8zm7 7V7.5l5.5 5.5H17z" /><path fill="#FFF" d="M11.766 19.575v1.372H11v-3.894h1.45c.278 0 .524.054.736.16.211.108.374.26.488.457.114.197.171.42.171.672 0 .382-.124.683-.374.903-.249.22-.594.33-1.034.33h-.671zm0-.65h.683c.203 0 .357-.05.463-.15.107-.1.16-.242.16-.427a.66.66 0 00-.16-.463.586.586 0 00-.445-.182h-.701v1.222zm5.626 2.022h-.766l-1.49-2.562v2.562h-.765v-3.894h.765l1.493 2.567v-2.567h.763v3.894zM21 20.455a1.326 1.326 0 01-.584.402 2.356 2.356 0 01-.837.143c-.322 0-.604-.074-.846-.22a1.447 1.447 0 01-.562-.641 2.353 2.353 0 01-.202-.987v-.264c0-.389.062-.725.187-1.01.125-.284.306-.501.541-.652a1.51 1.51 0 01.828-.226c.44 0 .785.11 1.034.33.248.22.395.54.441.961h-.745c-.034-.222-.11-.385-.226-.489-.116-.103-.277-.155-.48-.155a.67.67 0 00-.595.308c-.137.205-.205.51-.207.914v.249c0 .408.074.716.222.925.148.208.365.313.65.313.288 0 .493-.065.615-.193v-.671h-.696v-.59H21v1.553z" /></g></symbol><symbol viewBox="0 0 16 16" id="ic-pointfigure-normal"><g fill="none" fill-rule="evenodd"><circle cx="4.5" cy="4.5" r="2" /><circle cx="4.5" cy="11.5" r="2" /><path stroke-linecap="round" d="M9.5 2.5l4 4m0-4l-4 4m0 3l4 4m0-4l-4 4" /></g></symbol><symbol viewBox="0 0 16 16" id="ic-position-bottom"><g fill-rule="evenodd"><rect fill="none" width="15" height="13" x=".5" y="1.5" rx="1" /><path stroke="none" d="M1 11h14v3H1z" /></g></symbol><symbol viewBox="0 0 16 16" id="ic-position-left"><g fill-rule="evenodd"><rect fill="none" width="15" height="13" x=".5" y="1.5" rx="1" /><path stroke="none" d="M1 2h3v12H1z" /></g></symbol><symbol viewBox="0 0 16 16" id="ic-rangebars-normal"><g fill-rule="evenodd" fill="none" stroke-width="1"><path d="M1.5 4.5h5v7h-5v-7zM4 11.5V16M9.5 4.5h5v7h-5v-7zM12 0v4.5" /></g></symbol><symbol viewBox="0 0 16 16" id="ic-renko-normal"><path d="M2.5 8.5h3v6h-3zm4-7h3v6h-3zm4 7h3v6h-3z" fill="none" fill-rule="evenodd" /></symbol><symbol viewBox="0 0 16 16" id="ic-scale-full"><path fill-opacity=".8" fill-rule="evenodd" d="M4.045 4V2a1 1 0 112 0v3a1 1 0 01-1 1H2a1 1 0 110-2h2.045zM12 4h2a1 1 0 010 2h-3a1 1 0 01-1-1V2a1 1 0 012 0v2zM2 11.955a1 1 0 010-2h3a1 1 0 011 1V14a1 1 0 01-2 0v-2.045H2zM12 14a1 1 0 01-2 0v-3.045a1 1 0 011-1h3a1 1 0 010 2h-2V14z" /></symbol><symbol viewBox="0 0 16 16" id="ic-search-normal"><path d="M6.5 12a5.5 5.5 0 100-11 5.5 5.5 0 000 11zm4.936-1.27l4.418 4.416a.5.5 0 01-.708.708l-4.417-4.418a6.5 6.5 0 11.707-.707z" fill-rule="nonzero" stroke="none" stroke-width="1" /></symbol><symbol viewBox="0 0 32 32" id="ic-smartfx-placeholder"><g transform="translate(5 6)" stroke="none" stroke-width="1" fill="none" fill-rule="evenodd"><path fill="#6E7287" d="M3 8h16v10H3z" /><path d="M2 18h18a1 1 0 011 1H1a1 1 0 011-1zM1 8h20a1 1 0 01-1 1H2a1 1 0 01-1-1z" fill="#D2D3DA" /><rect fill="#B0B3BF" x="0" y="19" width="22" height="1" rx=".5" /><path fill="#B0B3BF" d="M2.25 9h1.5v9h-1.5z" /><path d="M2.333 17h1.334c.184 0 .333.15.333.333V18H2v-.667c0-.184.15-.333.333-.333zM2 9h2v.667c0 .184-.15.333-.333.333H2.333A.333.333 0 012 9.667V9z" fill="#E9E9ED" /><path fill="#B0B3BF" d="M7.25 9h1.5v9h-1.5z" /><path d="M7.333 17h1.334c.184 0 .333.15.333.333V18H7v-.667c0-.184.15-.333.333-.333zM7 9h2v.667c0 .184-.15.333-.333.333H7.333A.333.333 0 017 9.667V9z" fill="#E9E9ED" /><g><path fill="#B0B3BF" d="M13.25 9h1.5v9h-1.5z" /><path d="M13.333 17h1.334c.184 0 .333.15.333.333V18h-2v-.667c0-.184.15-.333.333-.333zM13 9h2v.667c0 .184-.15.333-.333.333h-1.334A.333.333 0 0113 9.667V9z" fill="#E9E9ED" /></g><g><path fill="#B0B3BF" d="M18.25 9h1.5v9h-1.5z" /><path d="M18.333 17h1.334c.184 0 .333.15.333.333V18h-2v-.667c0-.184.15-.333.333-.333zM18 9h2v.667c0 .184-.15.333-.333.333h-1.334A.333.333 0 0118 9.667V9z" fill="#E9E9ED" /></g><path stroke="#B0B3BF" fill="#F4F4F6" stroke-linecap="round" stroke-linejoin="round" d="M.5 7.5h21L11 .5z" /><circle fill="#B0B3BF" cx="11" cy="4" r="1" /></g></symbol><symbol viewBox="0 0 16 16" id="ic-spline-normal"><path d="M.985 8.122a.5.5 0 01-.97-.244C.735 5.012 2.153 3.5 4.25 3.5c2.097 0 3.515 1.512 4.235 4.379.617 2.467 1.699 3.621 3.265 3.621s2.648-1.154 3.265-3.621a.5.5 0 01.97.242C15.27 10.987 13.85 12.5 11.75 12.5c-2.1 0-3.519-1.513-4.235-4.378C6.895 5.654 5.813 4.5 4.25 4.5 2.687 4.5 1.605 5.654.985 8.122z" fill-rule="nonzero" stroke="none" stroke-width="1" /></symbol><symbol viewBox="0 0 16 16" id="ic-synth-normal"><g fill="none" fill-rule="evenodd"><rect width="15" height="15" x=".5" y=".5" rx="2" /><path stroke-linecap="round" stroke-linejoin="round" d="M.5 9.5l2 2 2-2h2l2-2 3-3 2 4 2-2M2.5 4.5l2 2 2-2-2 2zm2-2v4M13.5 11.5l-2-2-2 2m2-2v4" /></g></symbol><symbol viewBox="0 0 16 16" id="ic-tick"><path d="M3.5 8.5l3 3 6-6" stroke-width="1" fill="none" fill-rule="evenodd" stroke-linecap="round" stroke-linejoin="round" /></symbol><symbol viewBox="0 0 12 12" id="ic-time"><path stroke-width="1" fill-rule="evenodd" d="M6 11.25A5.25 5.25 0 106 .75a5.25 5.25 0 000 10.5zM6 12A6 6 0 116 0a6 6 0 010 12zm2.14-4.39a.375.375 0 11-.53.53L5.735 6.265A.375.375 0 015.625 6V2.625a.375.375 0 01.75 0v3.22L8.14 7.61z" /></symbol><symbol viewBox="0 0 16 16" id="ic-volatility-normal"><g fill="none" fill-rule="evenodd"><rect width="15" height="15" x=".5" y=".5" rx="2" /><path stroke-linecap="round" stroke-linejoin="round" d="M.5 9.5l2 2 2-2h2l2-2 3-3 2 4 2-2M2.5 4.5l2 2 2-2-2 2zm2-2v4M13.5 11.5l-2-2-2 2m2-2v4" /></g></symbol><symbol viewBox="0 0 16 16" id="ic-zoomin"><path fill-opacity=".8" fill-rule="evenodd" d="M9 7h4a1 1 0 010 2H9v4a1 1 0 01-2 0V9H3a1 1 0 110-2h4V3a1 1 0 112 0v4z" /></symbol><symbol viewBox="0 0 16 16" id="ic-zoomin-light"><path d="M8.5 7.5H13v1H8.5V13h-1V8.5H3v-1h4.5V3h1v4.5z" stroke="none" fill-rule="evenodd" /></symbol><symbol viewBox="0 0 16 16" id="ic-zoomout"><rect width="12" height="2" x="2" y="7" fill-opacity=".8" fill-rule="evenodd" rx="1" /></symbol><symbol viewBox="0 0 16 16" id="ic-zoomout-light"><path d="M3 7.5h10v1H3z" stroke="none" fill-rule="evenodd" /></symbol><symbol viewBox="0 0 24 16" id="indonesia"><path d="M21.5 1h-19A1.5 1.5 0 001 2.5V8h22V2.5A1.5 1.5 0 0021.5 1m-19-1H2a2 2 0 00-2 2v.5A2.5 2.5 0 012.5 0M22 0h-.5A2.5 2.5 0 0124 2.5V8 2a2 2 0 00-2-2" fill="#e12237" /><path d="M23 8H1v5.5A1.5 1.5 0 002.5 15h19a1.5 1.5 0 001.5-1.5V8m1 0v5.5a2.5 2.5 0 01-2.5 2.5h-19A2.5 2.5 0 010 13.5v.5a2 2 0 002 2h20a2 2 0 002-2V8" fill="#fff" /><path d="M21.5 0h-19A2.5 2.5 0 000 2.5V8h1V2.5A1.5 1.5 0 012.5 1h19A1.5 1.5 0 0123 2.5V8h1V2.5A2.5 2.5 0 0021.5 0" fill="#d82135" /><path d="M24 8h-1v5.5a1.5 1.5 0 01-1.5 1.5h-19A1.5 1.5 0 011 13.5V8H0v5.5A2.5 2.5 0 002.5 16h19a2.5 2.5 0 002.5-2.5V8" fill="#f5f5f5" /></symbol><symbol viewBox="0 0 16 16" id="info"><g stroke="none" stroke-width="1" fill="none" fill-rule="evenodd"><circle fill="#2196F3" cx="8" cy="8" r="8" /><g transform="translate(6.5 4)" fill="#FFF"><circle cx="1.5" cy="1" r="1" /><rect x=".5" y="3" width="2" height="5" rx="1" /></g></g></symbol><symbol viewBox="0 0 24 16" id="italy"><path d="M8 1H2.5A1.5 1.5 0 001 2.5v11A1.5 1.5 0 002.5 15H8V1M2.5 0H2a2 2 0 00-2 2v12a2 2 0 002 2h.5A2.5 2.5 0 010 13.5v-11A2.5 2.5 0 012.5 0" fill="#1bb65d" /><path d="M21.5 1H16v14h5.5a1.5 1.5 0 001.5-1.5v-11A1.5 1.5 0 0021.5 1m.5-1h-.5A2.5 2.5 0 0124 2.5v11a2.5 2.5 0 01-2.5 2.5h.5a2 2 0 002-2V2a2 2 0 00-2-2" fill="#e43d4c" /><path d="M16 1H8v14h8V1" fill="#fff" /><path d="M8 0H2.5A2.5 2.5 0 000 2.5v11A2.5 2.5 0 002.5 16H8v-1H2.5A1.5 1.5 0 011 13.5v-11A1.5 1.5 0 012.5 1H8V0" fill="#1aaf59" /><path d="M21.5 0H16v1h5.5A1.5 1.5 0 0123 2.5v11a1.5 1.5 0 01-1.5 1.5H16v1h5.5a2.5 2.5 0 002.5-2.5v-11A2.5 2.5 0 0021.5 0" fill="#db3b49" /><path fill="#f5f5f5" d="M16 0H8v1h8V0M16 15H8v1h8v-1" /></symbol><symbol viewBox="0 0 24 16" id="jpy"><g stroke="none" stroke-width="1" fill="none" fill-rule="evenodd"><g fill-rule="nonzero"><path d="M22.203.013H1.797C.805.013 0 .831 0 1.84v12.322c0 1.008.805 1.826 1.797 1.826h20.406c.992 0 1.797-.818 1.797-1.826V1.839C24 .831 23.195.013 22.203.013z" fill="#FFF" /><ellipse fill="#ED293F" cx="12" cy="8" rx="4.552" ry="4.624" /></g><rect stroke-opacity=".04" stroke="#000" x=".5" y=".5" width="23" height="15" rx="2" /></g></symbol><symbol viewBox="0 0 15.1 13.4" id="jump-to-today"><g stroke-width="2" fill="none" stroke-linejoin="round" stroke-linecap="round"><path d="M1 1.2l6 5.5-6 5.5M8 1.2l6 5.5-6 5.5" /></g></symbol><symbol viewBox="0 0 24 16" id="mxn"><g stroke="none" stroke-width="1" fill="none" fill-rule="evenodd"><g fill-rule="nonzero"><path d="M1.797.013C.805.013 0 .83 0 1.839v12.322c0 1.008.805 1.826 1.797 1.826H8V.013H1.797z" fill="#4CAF50" /><path fill="#FFF" d="M8 0h8v15.974H8z" /><path d="M22.203.013H16v15.974h6.203c.992 0 1.797-.818 1.797-1.826V1.839C24 .83 23.195.013 22.203.013z" fill="#F44336" /><path fill="#FFCA28" d="M12.714 8.376L12 8.738v.363h.357z" /><path fill="#732D37" d="M11.717 7.56l-.394.62-.066.203 1.026-.241z" /><path d="M12.357 6.563s.357-.725-.357-1.087c0 0 2.498-.363 2.141 2.9-.234-.19-.582-.538-.706-.816l-1.078-.634v-.363z" fill="#874150" /><path d="M12 7.288l1.784 1.088-.713.362L12 7.651v-.363z" fill="#732D37" /><path d="M11.286 6.2a.36.36 0 01.357.363.719.719 0 00-.131.821l.08.164a.71.71 0 00.131.184l.99 1.007v-.501c0-.625-.142-1.24-.417-1.798a1.069 1.069 0 00-.958-.602h-.052v.363z" fill="#783C46" /><path d="M13.435 7.56c.119.355.372.68.706.816.357-3.263-2.141-2.9-2.141-2.9 1.784 0 1.435 2.084 1.435 2.084z" fill="#9B4B5A" /><path d="M12 10.007a.18.18 0 01-.178-.181v-.725c0-.1.08-.181.178-.181a.18.18 0 01.178.181v.725c0 .1-.08.181-.178.181zm0-.725c-.7 0-1.378-.275-1.906-.773a.183.183 0 01-.009-.256.177.177 0 01.252-.01A2.42 2.42 0 0012 8.92c.61 0 1.201-.24 1.663-.677a.177.177 0 01.252.01.183.183 0 01-.01.256A2.774 2.774 0 0112 9.282z" fill="#00C3A0" /><path d="M12 10.007c-.457 0-.9-.136-1.281-.393l.197-.302a1.964 1.964 0 002.168 0l.197.302c-.38.257-.824.393-1.281.393z" fill="#42A5F5" /><path d="M10.908 8.583c-.472 0-1.038-.404-1.188-1.302l.352-.06c.125.747.577 1 .849.999.083-.002.17-.032.177-.091.008-.072.01-.089-.177-.153-.101-.035-.216-.074-.297-.168-.326-.379.116-.78.328-.972.037-.034.053-.063.049-.074-.012-.03-.082-.078-.16-.078-.227 0-.4-.13-.45-.339a.487.487 0 01.234-.543l.164.322c-.044.023-.062.089-.05.135.004.02.014.063.101.063.219 0 .427.13.494.311.03.077.073.276-.144.473-.235.213-.375.373-.297.463.017.02.093.047.143.064.16.055.46.157.417.537-.027.239-.237.405-.522.412h-.023zM12 10.733c-1.673 0-3.033-1.383-3.033-3.082h.357c0 1.5 1.2 2.719 2.676 2.719 1.476 0 2.676-1.22 2.676-2.72h.357c0 1.7-1.36 3.082-3.033 3.082z" fill="#66BB6A" /><path d="M12.178 10.188h-.356a.36.36 0 01-.357-.362c0-.2.16-.363.357-.363h.356a.36.36 0 01.357.363c0 .2-.16.362-.357.362z" fill="#FFA726" /><path d="M11.286 5.838l.235.218c.058.055.076.17-.024.219-.143.07-.568.288-.568.288v-.362l.357-.363zM9.343 8.973a.244.244 0 01-.242-.246c0-.136.108-.246.242-.246s.242.11.242.246a.244.244 0 01-.242.246zm.535.868a.244.244 0 01-.242-.246c0-.136.109-.246.242-.246.134 0 .243.11.243.246a.244.244 0 01-.243.246zm.87.657a.244.244 0 01-.242-.246c0-.136.108-.246.242-.246s.242.11.242.246a.244.244 0 01-.242.246zm3.935-1.525a.244.244 0 01-.242-.246c0-.136.108-.246.242-.246.133 0 .242.11.242.246a.244.244 0 01-.242.246zm-.536.868a.244.244 0 01-.242-.246c0-.136.108-.246.242-.246s.242.11.242.246a.244.244 0 01-.242.246zm-.87.657a.244.244 0 01-.242-.246c0-.136.109-.246.242-.246.134 0 .243.11.243.246a.244.244 0 01-.243.246z" fill="#FFCA28" /></g><rect stroke-opacity=".04" stroke="#000" x=".5" y=".5" width="23" height="15" rx="2" /></g></symbol><symbol viewBox="0 0 24 16" id="nok"><g stroke="none" stroke-width="1" fill="none" fill-rule="evenodd"><g fill-rule="nonzero"><path d="M22.203 15.987H1.797C.805 15.987 0 15.169 0 14.16V1.839C0 .831.805.013 1.797.013h20.406C23.195.013 24 .831 24 1.84v12.322c0 1.008-.805 1.826-1.797 1.826z" fill="#F44336" /><path fill="#FFF" d="M24 5.898H10.759V.013H6.62v5.885H0v4.204h6.62v5.885h4.139v-5.885H24z" /><path fill="#0D47A1" d="M24 6.739H9.931V.013H7.448V6.74H0V9.26h7.448v6.726h2.483V9.26H24z" /></g><rect stroke-opacity=".04" stroke="#000" x=".5" y=".5" width="23" height="15" rx="2" /></g></symbol><symbol viewBox="0 0 24 16" id="nzd"><g stroke="none" stroke-width="1" fill="none" fill-rule="evenodd"><g fill-rule="nonzero"><path d="M22.203 15.987H1.797C.805 15.987 0 15.169 0 14.16V1.839C0 .831.805.013 1.797.013h20.406C23.195.013 24 .831 24 1.84v12.322c0 1.008-.805 1.826-1.797 1.826z" fill="#0D47A1" /><path d="M.414 8h.719l3.833-2.551V8h2.069V5.449L10.867 8h.72A.417.417 0 0012 7.58v-.334L8.712 5.057H12V2.956H8.711L12 .767V.434a.417.417 0 00-.414-.42h-.719l-3.833 2.55V.014H4.965v2.55L1.258.097a1.807 1.807 0 00-1.017.83l3.048 2.029H0v2.101h3.289L0 7.247v.333c0 .232.185.42.414.42z" fill="#FFF" /><path d="M12 3.376v1.261H6.62V8H5.38V4.637H0V3.376h5.38V.013h1.24v3.363H12zM.386.71C.473.597.574.495.685.406l3.867 2.55h-.76L.386.71zm7.409 2.246h-.76L11.496.013h.09c.151 0 .278.087.35.211L7.795 2.956zm-3.6 2.101h.76L.491 8H.414a.408.408 0 01-.355-.216l4.135-2.727zm7.798 2.556a.416.416 0 01-.234.346l-4.4-2.902h.76l3.874 2.556z" fill="#F44336" /><path d="M18.538 13.339a.083.083 0 01-.048-.016l-.49-.355-.49.355a.082.082 0 01-.097 0 .085.085 0 01-.03-.094l.182-.583-.484-.363a.085.085 0 01-.03-.093.083.083 0 01.078-.059l.602-.005.19-.58a.083.083 0 01.08-.057c.035 0 .066.023.078.057l.19.58.602.005c.036 0 .067.024.078.059a.085.085 0 01-.03.093l-.484.363.182.583a.083.083 0 01-.08.11zm0-6.777a.083.083 0 01-.048-.016L18 6.19l-.49.356a.082.082 0 01-.097 0 .085.085 0 01-.03-.094l.182-.583-.484-.363a.085.085 0 01-.03-.094.083.083 0 01.078-.058l.602-.005.19-.58a.083.083 0 01.08-.057c.035 0 .066.023.078.057l.19.58.602.005c.036 0 .067.024.078.058a.085.085 0 01-.03.094l-.484.363.182.583a.083.083 0 01-.08.11zm2.896 2.101a.083.083 0 01-.048-.015l-.49-.356-.49.356a.082.082 0 01-.097 0 .085.085 0 01-.03-.094l.182-.583-.484-.363a.085.085 0 01-.03-.094.083.083 0 01.079-.058l.602-.005.19-.58a.083.083 0 01.079-.057c.035 0 .067.023.078.057l.19.58.603.005c.035 0 .067.023.078.058a.085.085 0 01-.03.094l-.484.363.182.583a.084.084 0 01-.08.11zm-5.793.841a.083.083 0 01-.048-.016l-.49-.355-.49.355a.082.082 0 01-.097 0 .085.085 0 01-.03-.094l.182-.582-.484-.364a.085.085 0 01-.03-.093.083.083 0 01.079-.059l.602-.004.19-.58a.083.083 0 01.079-.058c.035 0 .067.024.078.058l.19.58.602.004c.036 0 .068.024.079.059a.085.085 0 01-.03.093l-.484.364.182.582a.085.085 0 01-.03.094.083.083 0 01-.05.016z" stroke="#FFF" stroke-width=".2" fill="#F44336" /></g><rect stroke-opacity=".04" stroke="#000" x=".5" y=".5" width="23" height="15" rx="2" /></g></symbol><symbol viewBox="0 0 24 16" id="pln"><g stroke="none" stroke-width="1" fill="none" fill-rule="evenodd"><g fill-rule="nonzero"><path d="M0 14.16c0 1.01.805 1.827 1.797 1.827h20.406c.992 0 1.797-.818 1.797-1.826V8H0v6.16z" fill="#F44336" /><path d="M22.203.013H1.797C.805.013 0 .831 0 1.84V8h24V1.84C24 .83 23.195.012 22.203.012z" fill="#FFF" /></g><rect stroke-opacity=".04" stroke="#000" x=".5" y=".5" width="23" height="15" rx="2" /></g></symbol><symbol viewBox="0 0 24 16" id="portugal"><path d="M8 5a3 3 0 000 6v-1h-.17A1.32 1.32 0 016.5 8.67V6.34A.34.34 0 016.83 6H8V5m0-4H2.5A1.5 1.5 0 001 2.5v11A1.5 1.5 0 002.5 15H8v-3a4 4 0 01-4-4 4 4 0 014-4V1M2.5 0H2a2 2 0 00-2 2v12a2 2 0 002 2h.5A2.5 2.5 0 010 13.5v-11A2.5 2.5 0 012.5 0" fill="#128415" /><path d="M8 5v1h1.17a.34.34 0 01.33.34v2.33A1.33 1.33 0 018.17 10H8v1a3 3 0 000-6m13.5-4H8v3a4 4 0 010 8v3h13.5a1.5 1.5 0 001.5-1.5v-11A1.5 1.5 0 0021.5 1m.5-1h-.5A2.5 2.5 0 0124 2.5v11a2.5 2.5 0 01-2.5 2.5h.5a2 2 0 002-2V2a2 2 0 00-2-2" fill="#ff2936" /><g fill="#faf94f"><path d="M8 4a4 4 0 00-4 4 4 4 0 004 4v-1a3 3 0 010-6V4M8 4v1a3 3 0 010 6v1a4 4 0 000-8" /></g><path d="M8 6H6.83a.34.34 0 00-.33.34v2.33A1.32 1.32 0 007.83 10H8V8.92c-.41 0-.75-1.09-.75-1.5A.76.76 0 018 6.67V6M9.17 6H8v.67a.76.76 0 01.75.75c0 .41-.34 1.5-.75 1.5V10h.17A1.33 1.33 0 009.5 8.67V6.34A.34.34 0 009.17 6" fill="#fff" /><path d="M8 6.67a.76.76 0 00-.75.75c0 .41.34 1.5.75 1.5V6.67M8 6.67v2.25c.41 0 .75-1.09.75-1.5A.76.76 0 008 6.67" fill="#1d50b5" /><g><path d="M8 0H2.5A2.5 2.5 0 000 2.5v11A2.5 2.5 0 002.5 16H8v-1H2.5A1.5 1.5 0 011 13.5v-11A1.5 1.5 0 012.5 1H8V0" fill="#117f14" /><path d="M21.5 0H8v1h13.5A1.5 1.5 0 0123 2.5v11a1.5 1.5 0 01-1.5 1.5H8v1h13.5a2.5 2.5 0 002.5-2.5v-11A2.5 2.5 0 0021.5 0" fill="#f52734" /></g></symbol><symbol viewBox="0 0 6 14" id="resize-icon"><path fill="#6080c0" d="M0 9.7L3 14l3-4.3H4.2V4.3H6L3 0 0 4.3h1.8v5.4z" /></symbol><symbol viewBox="0 0 24 16" id="russia"><path d="M21.5 1h-19A1.5 1.5 0 001 2.5V5h22V2.5A1.5 1.5 0 0021.5 1m-19-1H2a2 2 0 00-2 2v.5A2.5 2.5 0 012.5 0M22 0h-.5A2.5 2.5 0 0124 2.5V5 2a2 2 0 00-2-2" fill="#fff" /><path d="M23 11H1v2.5A1.5 1.5 0 002.5 15h19a1.5 1.5 0 001.5-1.5V11m1 0v2.5a2.5 2.5 0 01-2.5 2.5h-19A2.5 2.5 0 010 13.5v.5a2 2 0 002 2h20a2 2 0 002-2v-3" fill="#e53b35" /><g fill="#0c47b7"><path d="M24 5v6-6M23 5H1v6h22V5" /></g><path d="M21.5 0h-19A2.5 2.5 0 000 2.5V5h1V2.5A1.5 1.5 0 012.5 1h19A1.5 1.5 0 0123 2.5V5h1V2.5A2.5 2.5 0 0021.5 0" fill="#f5f5f5" /><path d="M24 11h-1v2.5a1.5 1.5 0 01-1.5 1.5h-19A1.5 1.5 0 011 13.5V11H0v2.5A2.5 2.5 0 002.5 16h19a2.5 2.5 0 002.5-2.5V11" fill="#dc3933" /><path fill="#0c44b0" d="M24 5h-1v6h1V5M1 5H0v6h1V5" /></symbol><symbol viewBox="0 0 24 16" id="sek"><g stroke="none" stroke-width="1" fill="none" fill-rule="evenodd"><g fill-rule="nonzero"><path d="M22.203.013H1.797C.805.013 0 .831 0 1.84v12.322c0 1.008.805 1.826 1.797 1.826h20.406c.992 0 1.797-.818 1.797-1.826V1.839C24 .831 23.195.013 22.203.013z" fill="#0D47A1" /><path fill="#FFEB3B" d="M24 6.739H9.931V.013H7.448V6.74H0V9.26h7.448v6.726h2.483V9.26H24z" /></g><rect stroke-opacity=".04" stroke="#000" x=".5" y=".5" width="23" height="15" rx="2" /></g></symbol><symbol viewBox="0 0 24 16" id="spanish"><path d="M21.5 1h-19A1.5 1.5 0 001 2.5V4h22V2.5A1.5 1.5 0 0021.5 1m-19-1H2a2 2 0 00-2 2v.5A2.5 2.5 0 012.5 0M22 0h-.5A2.5 2.5 0 0124 2.5V4 2a2 2 0 00-2-2" fill="#dd172c" /><path fill="none" d="M0 0h24v4H0V0" /><path d="M23 12H1v1.5A1.5 1.5 0 002.5 15h19a1.5 1.5 0 001.5-1.5V12m1 0v1.5a2.5 2.5 0 01-2.5 2.5h-19A2.5 2.5 0 010 13.5v.5a2 2 0 002 2h20a2 2 0 002-2v-2" fill="#dd172c" /><path fill="none" d="M0 12h24v4H0v-4" /><path fill="#ffd133" d="M24 4v8-8M23 4H1v8h22V4" /><path fill="none" d="M0 4h24v8H0V4" /><path fill="#ffedb1" d="M5.33 7.33h1.33V8H5.33z" /><path d="M4.05 7.3l.17 2a1.12 1.12 0 002.23 0l.16-2a.26.26 0 00-.28-.3h-2a.28.28 0 00-.28.3z" fill="none" stroke="#a41517" stroke-width=".67" /><path fill="#a41517" d="M4 8h2.67v.67H6L5.33 10l-.66-1.33H4V8zM2 6h1.33v4.67H2zM7.33 6h1.33v4.67H7.33zM4 5.33a.67.67 0 01.67-.66H6a.66.66 0 01.68.66v.33a.34.34 0 01-.34.34h-2A.33.33 0 014 5.66z" /><path d="M21.5 0h-19A2.5 2.5 0 000 2.5V4h1V2.5A1.5 1.5 0 012.5 1h19A1.5 1.5 0 0123 2.5V4h1V2.5A2.5 2.5 0 0021.5 0M24 12h-1v1.5a1.5 1.5 0 01-1.5 1.5h-19A1.5 1.5 0 011 13.5V12H0v1.5A2.5 2.5 0 002.5 16h19a2.5 2.5 0 002.5-2.5V12" fill="#d4162a" /><path fill="#f5c931" d="M24 4h-1v8h1V4M1 4H0v8h1V4" /></symbol><symbol viewBox="0 0 16 16" id="success"><g stroke="none" stroke-width="1" fill="none" fill-rule="evenodd"><circle fill="#4CAF50" cx="8" cy="8" r="8" /><path d="M6.5 10.793l5.646-5.647a.5.5 0 01.708.708l-6 6a.5.5 0 01-.708 0l-3-3a.5.5 0 11.708-.708L6.5 10.793z" fill="#FFF" fill-rule="nonzero" /></g></symbol><symbol viewBox="0 0 16 16" id="table"><path fill-rule="nonzero" d="M3 3v10h10V3H3zm0-1h10a1 1 0 011 1v10a1 1 0 01-1 1H3a1 1 0 01-1-1V3a1 1 0 011-1zm0 4v1h10V6H3zm1.5-2a.5.5 0 000 1h1a.5.5 0 000-1h-1zm3 0a.5.5 0 000 1h4a.5.5 0 000-1h-4zm-3 4a.5.5 0 000 1h1a.5.5 0 000-1h-1zm3 0a.5.5 0 000 1h4a.5.5 0 000-1h-4zm-3 2a.5.5 0 000 1h1a.5.5 0 000-1h-1zm3 0a.5.5 0 000 1h4a.5.5 0 000-1h-4z" /></symbol><symbol viewBox="0 0 24 16" id="thailand"><path d="M2 0h20a2 2 0 012 2v12a2 2 0 01-2 2H2a2 2 0 01-2-2V2a2 2 0 012-2" fill="#f12532" /><path d="M23 11H1v2h22v-2m1 0v2-2m-1-8H1v2h22V3m1 0v2-2" fill="#fff" /><path d="M23 5H1v6h22V5m1 0v6-6" fill="#322b6c" /><path d="M21.5 0h-19A2.5 2.5 0 000 2.5V3h1v-.5A1.5 1.5 0 012.5 1h19A1.5 1.5 0 0123 2.5V3h1v-.5A2.5 2.5 0 0021.5 0" fill="#e82430" /><path d="M1 3H0v2h1V3m23 0h-1v2h1V3" fill="#f5f5f5" /><path d="M24 13h-1v.5a1.5 1.5 0 01-1.5 1.5h-19A1.5 1.5 0 011 13.5V13H0v.5A2.5 2.5 0 002.5 16h19a2.5 2.5 0 002.5-2.5V13" fill="#e82430" /><path d="M1 11H0v2h1v-2m23 0h-1v2h1v-2" fill="#f5f5f5" /><path d="M1 5H0v6h1V5m23 0h-1v6h1V5" fill="#302968" /></symbol><symbol viewBox="0 0 24 16" id="usd"><path d="M2 0h20a2 2 0 012 2v12a2 2 0 01-2 2H2a2 2 0 01-2-2V2a2 2 0 012-2" fill="#fff" /><path d="M21.5 1H11.2v.22h11.09A1.51 1.51 0 0021.5 1m.5-1h-.5a2.51 2.51 0 012.15 1.22h.19A2 2 0 0022 0M23 2.45H11.2v1.22H23V2.45m1 0v1.22-1.22M23 4.9H11.2v1.22H23V4.9m1 0v1.22V4.9M23 7.34H11.2v1.23H23V7.34m1 0v1.23-1.23M23 9.79H1V11h22V9.79m1 0V11 9.79M22.41 14.69H1.59a1.51 1.51 0 00.91.31h19a1.51 1.51 0 00.91-.31m1.47 0h-.18A2.5 2.5 0 0121.5 16h-19a2.5 2.5 0 01-2.2-1.31H.12A2 2 0 002 16h20a2 2 0 001.88-1.31M23 12.24H1v1.22h22v-1.22m1 0v1.22-1.22" fill="#f44336" /><path fill="none" d="M0 0h24v16H0V0" /><path d="M2 0h9.2v8.57H0V2a2 2 0 012-2" fill="#0d47a1" /><path d="M1.09 1l.1.28h.29l-.24.18.09.28-.24-.17-.24.17V1.5l-.24-.18h.32L1 1h.06m0 1.46l.1.28h.29L1.27 3l.09.28-.24-.17-.24.17L.85 3l-.24-.22h.3L1 2.43h.06m0 1.46l.1.28h.29l-.24.17.09.28-.24-.17-.24.17.09-.28-.3-.09h.32L1 3.89h.06m0 1.46l.1.28h.29l-.24.18.09.28L1.06 6l-.24.18.09-.28-.3-.2h.3L1 5.35h.06m0 1.47l.1.28h.29l-.24.18.09.28-.24-.06-.24.17.09-.28-.3-.22h.32L1 6.82h.06m1.17-5.14l.09.32h.3v.05l-.24.17.09.29-.24-.17-.23.2v-.32L1.75 2h.3l.09-.28h.07m0 1.46l.09.28h.3l-.24.17.13.37-.24-.17L2 4v-.33l-.26-.17h.31l.09-.28h.07m0 1.47l.09.28h.3l-.24.18.09.28-.24-.17-.21.2v-.32L1.75 5h.3l.09-.28h.07m0 1.46l.09.28h.3l-.2.14.09.28-.24-.17-.25.22V6.6l-.24-.17h.31l.09-.28h.07M3.36 1l.1.28h.29l-.24.18.09.28-.24-.17-.24.17H3l.1-.28-.24-.18h.34L3.3 1h.06m0 1.46l.1.28h.3L3.54 3l.09.28h-.06l-.24-.17-.24.17H3L3.12 3l-.24-.18h.3l.09-.28h.07m0 1.46l.1.28h.29l-.24.17.09.28-.24-.17-.24.17H3l.1-.28-.24-.17h.34l.1-.29h.06m0 1.46l.1.28h.29l-.24.18.09.28L3.32 6l-.24.18H3l.09-.28-.22-.2h.3l.1-.28h.06m0 1.47l.1.28h.29l-.24.18.09.28-.25-.13-.24.17H3l.1-.28-.24-.18h.34l.1-.28h.06M4.5 1.68l.09.32h.3l-.24.17.09.29-.24-.17-.24.17.1-.28L4 2h.3l.09-.28h.11m0 1.46l.09.28h.3l-.24.17.11.37-.24-.17-.3.17.09-.28L4 3.5h.31l.09-.28h.1m0 1.47l.09.28h.3V5l-.24.18.09.28-.24-.17-.24.17.1-.28L4 5h.3l.09-.28h.11m0 1.46l.09.28h.3l-.24.17.09.28-.24-.17-.24.17.09-.28-.35-.2h.31l.09-.28h.1M5.63 1l.1.28H6l-.2.22.1.28-.24-.17-.24.17.09-.28-.24-.18h.3V1h.06m0 1.46l.1.28H6L5.8 3l.1.28-.24-.17-.24.17L5.38 3l-.24-.18h.3l.1-.28h.06M5.6 4l.1.28H6l-.24.17.1.28-.24-.17-.24.17.09-.28-.24-.17h.3l.1-.28h.06m0 1.46l.1.28H6l-.24.18.1.28-.27-.2-.24.18.09-.28-.3-.2h.3l.1-.28h.06m0 1.47l.1.28H6l-.24.18.1.28-.27-.13-.24.17.1-.28-.24-.18h.3l.1-.28h.06m1.09-5.25l.1.29h.3V2l-.24.17.08.33-.24-.17-.24.17.09-.29L6.28 2v-.05h.3l.09-.29h.07m0 1.46l.1.28h.3l-.24.17L7 4l-.24-.17-.27.17.09-.28-.3-.22h.3l.09-.28h.07m0 1.47l.1.28h.3V5l-.24.18.1.24-.24-.17-.24.17.09-.28L6.28 5h.3l.09-.28h.07m0 1.46l.1.28h.3l-.24.17.1.25-.24-.17-.24.17.09-.28-.24-.17h.3l.09-.28h.07M7.89 1l.1.28h.29l-.24.18.09.28-.24-.17-.24.17.09-.28-.24-.18h.29L7.82 1m0 1.46l.1.28h.29L8.07 3l.09.28-.24-.17-.24.17L7.65 3l-.24-.18h.29l.1-.28h.07m0 1.46l.1.28h.29l-.24.17.09.28-.24-.17-.24.17.09-.28-.24-.17h.29l.1-.28m0 1.46l.1.28h.29l-.24.18.09.28-.25-.2-.24.18.09-.28-.3-.2h.29l.1-.28h.07m0 1.47L8 7.1h.29l-.24.18.09.28-.28-.06-.24.17.09-.28-.24-.18h.29l.1-.28M9 1.68l.12.32h.3v.05l-.24.17.09.29L9 2.37l-.24.17.09-.29L8.54 2h.3L9 1.68m0 1.46l.09.28h.3l-.24.17.14.41L9 3.83 8.75 4l.09-.28-.3-.22h.3L9 3.14m0 1.47l.09.28h.3l-.24.18.09.28L9 5.29l-.24.17.09-.28L8.54 5h.3L9 4.61m0 1.46l.09.28h.3l-.19.25.09.28L9 6.76l-.24.17.09-.28-.24-.17h.3L9 6.07V6m1.16-5l.1.28h.29l-.24.18.09.28-.24-.17-.24.17h-.08l.1-.28-.24-.18h.3l.1-.28m0 1.46l.1.28h.29l-.15.26.09.28-.24-.17-.24.17h-.11L9.91 3l-.24-.18H10l.1-.28h.07m0 1.46l.1.28h.29l-.24.17.09.28-.24-.17-.24.17h-.09l.1-.28-.24-.17h.3l.1-.29m0 1.46l.1.28h.29l-.24.18.09.28-.21-.19-.24.18h-.05l.09-.28-.26-.2H10l.1-.28h.07m0 1.47l.1.28h.29l-.24.18.09.28-.24-.17-.24.17h-.09l.1-.28-.24-.18h.3l.1-.28M21.5 0h-19 19M1 13.46H0a2.5 2.5 0 00.3 1.19h1.29A1.51 1.51 0 011 13.5m23 0h-1a1.51 1.51 0 01-.59 1.19h1.29a2.5 2.5 0 00.3-1.19M1 11H0v1.22h1V11m23 0h-1v1.22h1V11M1 8.57H0v1.22h1V8.57m23 0h-1v1.22h1V8.57m0-2.45h-1v1.22h1V6.12m0-2.45h-1V4.9h1V3.67m-.35-2.45h-1.36A1.52 1.52 0 0123 2.45h1a2.55 2.55 0 00-.35-1.23" fill="#f5f5f5" /><path d="M21.5 0H11.2v1h10.3a1.51 1.51 0 01.79.22h1.36A2.51 2.51 0 0021.5 0M24 2.45h-1v1.22h1V2.45M24 4.9h-1v1.22h1V4.9M24 7.34h-1v1.23h1V7.34M1 9.79H0V11h1V9.79m23 0h-1V11h1V9.79M23.7 14.69h-1.29a1.51 1.51 0 01-.91.31h-19a1.51 1.51 0 01-.91-.31H.3A2.5 2.5 0 002.5 16h19a2.5 2.5 0 002.2-1.31M1 12.24H0v1.22h1v-1.22m23 0h-1v1.22h1v-1.22" fill="#ea4034" /><path d="M11.2 0H2.5A2.5 2.5 0 000 2.5v6.07h1v-1l-.18.13.09-.28-.3-.25h.32L1 6.9v-.83l-.18.14.09-.28-.3-.23h.3L1 5.44v-.82l-.18.13.09-.28-.3-.22h.32L1 4v-.85l-.18.13L.85 3l-.24-.22h.3L1 2.51a1.48 1.48 0 01.2-.75l-.14-.1-.24.17.03-.33-.24-.18h.32L1 1h.06l.1.28h.29l-.24.18v.1A1.51 1.51 0 012.5 1H11V0" fill="#0c449b" /><path d="M1 6.9l-.07.2H.64l.24.18-.09.28.21-.02V6.9m0-1.46l-.07.19h-.3l.24.18-.09.28.22-.02v-.63M1 4l-.07.2H.64l.24.17-.12.33.24-.08V4m0-1.49l-.07.2h-.3L.85 3l-.09.28.24-.13v-.64M1.09 1H1l-.1.28H.64l.24.18-.09.28.24-.17.14.1a1.3 1.3 0 01.1-.15v-.1l.24-.18h-.32L1.09 1m2.27 0H3.3h.08m2.25 0h-.06.09m4.5 0h.08M7.88.94V1h.02V.94" fill="#ebebeb" /></symbol><symbol viewBox="0 0 24 16" id="vietnam"><path d="M2 0h20a2 2 0 012 2v12a2 2 0 01-2 2H2a2 2 0 01-2-2V2a2 2 0 012-2" fill="#ea403f" /><path fill="#fffe4e" d="M12 3.5l-1.15 3.42-3.6.04 2.89 2.14-1.08 3.44L12 10.45l2.94 2.09-1.08-3.44 2.9-2.14-3.61-.04L12 3.5" /><path d="M2.5 1h19A1.5 1.5 0 0123 2.5v11a1.5 1.5 0 01-1.5 1.5h-19A1.5 1.5 0 011 13.5v-11A1.5 1.5 0 012.5 1m19-1h-19A2.5 2.5 0 000 2.5v11A2.5 2.5 0 002.5 16h19a2.5 2.5 0 002.5-2.5v-11A2.5 2.5 0 0021.5 0" fill="#e13d3d" /></symbol><symbol viewBox="0 0 24 16" id="wallstreet"><path d="M2 0h20a2 2 0 012 2v12a2 2 0 01-2 2H2a2 2 0 01-2-2V2a2 2 0 012-2" fill="#4caf50" /><path fill="#4caf50" d="M4.52 6.06h15.4V10H4.52z" /><text transform="translate(4.5 10)" font-size="5.5" fill="#fff" font-family="Arial-BoldMT, Arial" font-weight="700"><tspan letter-spacing="-.06em">W</tspan><tspan x="4.89" y="0">ALL</tspan></text><path fill="#4caf50" d="M18.12 3.45h4.28v2.6h-4.28z" /><text transform="translate(18 6)" font-size="3.5" fill="#fff" font-family="Arial-BoldMT, Arial" font-weight="700">ST</text><g><path d="M2.5 1h19A1.5 1.5 0 0123 2.5v11a1.5 1.5 0 01-1.5 1.5h-19A1.5 1.5 0 011 13.5v-11A1.5 1.5 0 012.5 1m19-1h-19A2.5 2.5 0 000 2.5v11A2.5 2.5 0 002.5 16h19a2.5 2.5 0 002.5-2.5v-11A2.5 2.5 0 0021.5 0" fill="#94cf96" /></g></symbol><symbol viewBox="0 0 16 16" id="warning"><g stroke="none" stroke-width="1" fill="none" fill-rule="evenodd"><circle fill="#FFC107" cx="8" cy="8" r="8" /><g transform="matrix(1 0 0 -1 6.5 12)" fill="#FFF"><circle cx="1.5" cy="1" r="1" /><path d="M1.5 3a1 1 0 011 1v3a1 1 0 11-2 0V4a1 1 0 011-1z" /></g></g></symbol></defs><use id="aud-usage" xlink:href="#aud" class="sprite-symbol-usage" /><use id="cad-usage" xlink:href="#cad" class="sprite-symbol-usage" /><use id="chf-usage" xlink:href="#chf" class="sprite-symbol-usage" /><use id="chinese-usage" xlink:href="#chinese" class="sprite-symbol-usage" /><use id="chinese-traditional-usage" xlink:href="#chinese-traditional" class="sprite-symbol-usage" /><use id="dutch-usage" xlink:href="#dutch" class="sprite-symbol-usage" /><use id="error-usage" xlink:href="#error" class="sprite-symbol-usage" /><use id="eur-usage" xlink:href="#eur" class="sprite-symbol-usage" /><use id="french-usage" xlink:href="#french" class="sprite-symbol-usage" /><use id="gbp-usage" xlink:href="#gbp" class="sprite-symbol-usage" /><use id="german-usage" xlink:href="#german" class="sprite-symbol-usage" /><use id="hong kong-usage" xlink:href="#hong kong" class="sprite-symbol-usage" /><use id="ic-10-1s-index-usage" xlink:href="#ic-10-1s-index" class="sprite-symbol-usage" /><use id="ic-10-index-usage" xlink:href="#ic-10-index" class="sprite-symbol-usage" /><use id="ic-100-1s-index-usage" xlink:href="#ic-100-1s-index" class="sprite-symbol-usage" /><use id="ic-100-index-usage" xlink:href="#ic-100-index" class="sprite-symbol-usage" /><use id="ic-25-index-usage" xlink:href="#ic-25-index" class="sprite-symbol-usage" /><use id="ic-50-index-usage" xlink:href="#ic-50-index" class="sprite-symbol-usage" /><use id="ic-75-index-usage" xlink:href="#ic-75-index" class="sprite-symbol-usage" /><use id="ic-active-normal-usage" xlink:href="#ic-active-normal" class="sprite-symbol-usage" /><use id="ic-back-usage" xlink:href="#ic-back" class="sprite-symbol-usage" /><use id="ic-baseline-normal-usage" xlink:href="#ic-baseline-normal" class="sprite-symbol-usage" /><use id="ic-candle-normal-usage" xlink:href="#ic-candle-normal" class="sprite-symbol-usage" /><use id="ic-charttemplate-normal-usage" xlink:href="#ic-charttemplate-normal" class="sprite-symbol-usage" /><use id="ic-clear-usage" xlink:href="#ic-clear" class="sprite-symbol-usage" /><use id="ic-close-usage" xlink:href="#ic-close" class="sprite-symbol-usage" /><use id="ic-close-bold-usage" xlink:href="#ic-close-bold" class="sprite-symbol-usage" /><use id="ic-close-circle-usage" xlink:href="#ic-close-circle" class="sprite-symbol-usage" /><use id="ic-commodities-normal-usage" xlink:href="#ic-commodities-normal" class="sprite-symbol-usage" /><use id="ic-comparison-normal-usage" xlink:href="#ic-comparison-normal" class="sprite-symbol-usage" /><use id="ic-crosshair-off-usage" xlink:href="#ic-crosshair-off" class="sprite-symbol-usage" /><use id="ic-crosshair-on-usage" xlink:href="#ic-crosshair-on" class="sprite-symbol-usage" /><use id="ic-crosshair-tooltip-usage" xlink:href="#ic-crosshair-tooltip" class="sprite-symbol-usage" /><use id="ic-csv-usage" xlink:href="#ic-csv" class="sprite-symbol-usage" /><use id="ic-delete-usage" xlink:href="#ic-delete" class="sprite-symbol-usage" /><use id="ic-dot-normal-usage" xlink:href="#ic-dot-normal" class="sprite-symbol-usage" /><use id="ic-down-usage" xlink:href="#ic-down" class="sprite-symbol-usage" /><use id="ic-download-usage" xlink:href="#ic-download" class="sprite-symbol-usage" /><use id="ic-drawingtools-normal-usage" xlink:href="#ic-drawingtools-normal" class="sprite-symbol-usage" /><use id="ic-dropdown-usage" xlink:href="#ic-dropdown" class="sprite-symbol-usage" /><use id="ic-edit-usage" xlink:href="#ic-edit" class="sprite-symbol-usage" /><use id="ic-favorite-normal-usage" xlink:href="#ic-favorite-normal" class="sprite-symbol-usage" /><use id="ic-forex-normal-usage" xlink:href="#ic-forex-normal" class="sprite-symbol-usage" /><use id="ic-heikin-ashi-normal-usage" xlink:href="#ic-heikin-ashi-normal" class="sprite-symbol-usage" /><use id="ic-hollowcandle-normal-usage" xlink:href="#ic-hollowcandle-normal" class="sprite-symbol-usage" /><use id="ic-home-usage" xlink:href="#ic-home" class="sprite-symbol-usage" /><use id="ic-indicator-normal-usage" xlink:href="#ic-indicator-normal" class="sprite-symbol-usage" /><use id="ic-indices-normal-usage" xlink:href="#ic-indices-normal" class="sprite-symbol-usage" /><use id="ic-kagi-normal-usage" xlink:href="#ic-kagi-normal" class="sprite-symbol-usage" /><use id="ic-line-normal-usage" xlink:href="#ic-line-normal" class="sprite-symbol-usage" /><use id="ic-linebreak-normal-usage" xlink:href="#ic-linebreak-normal" class="sprite-symbol-usage" /><use id="ic-linedot-normal-usage" xlink:href="#ic-linedot-normal" class="sprite-symbol-usage" /><use id="ic-marketbear-usage" xlink:href="#ic-marketbear" class="sprite-symbol-usage" /><use id="ic-marketbull-usage" xlink:href="#ic-marketbull" class="sprite-symbol-usage" /><use id="ic-maximize-usage" xlink:href="#ic-maximize" class="sprite-symbol-usage" /><use id="ic-measure-usage" xlink:href="#ic-measure" class="sprite-symbol-usage" /><use id="ic-metal-usage" xlink:href="#ic-metal" class="sprite-symbol-usage" /><use id="ic-ohlc-normal-usage" xlink:href="#ic-ohlc-normal" class="sprite-symbol-usage" /><use id="ic-oilusd-usage" xlink:href="#ic-oilusd" class="sprite-symbol-usage" /><use id="ic-otc-normal-usage" xlink:href="#ic-otc-normal" class="sprite-symbol-usage" /><use id="ic-otcbadge-usage" xlink:href="#ic-otcbadge" class="sprite-symbol-usage" /><use id="ic-pencil-usage" xlink:href="#ic-pencil" class="sprite-symbol-usage" /><use id="ic-placeholder-usage" xlink:href="#ic-placeholder" class="sprite-symbol-usage" /><use id="ic-png-usage" xlink:href="#ic-png" class="sprite-symbol-usage" /><use id="ic-pointfigure-normal-usage" xlink:href="#ic-pointfigure-normal" class="sprite-symbol-usage" /><use id="ic-position-bottom-usage" xlink:href="#ic-position-bottom" class="sprite-symbol-usage" /><use id="ic-position-left-usage" xlink:href="#ic-position-left" class="sprite-symbol-usage" /><use id="ic-rangebars-normal-usage" xlink:href="#ic-rangebars-normal" class="sprite-symbol-usage" /><use id="ic-renko-normal-usage" xlink:href="#ic-renko-normal" class="sprite-symbol-usage" /><use id="ic-scale-full-usage" xlink:href="#ic-scale-full" class="sprite-symbol-usage" /><use id="ic-search-normal-usage" xlink:href="#ic-search-normal" class="sprite-symbol-usage" /><use id="ic-smartfx-placeholder-usage" xlink:href="#ic-smartfx-placeholder" class="sprite-symbol-usage" /><use id="ic-spline-normal-usage" xlink:href="#ic-spline-normal" class="sprite-symbol-usage" /><use id="ic-synth-normal-usage" xlink:href="#ic-synth-normal" class="sprite-symbol-usage" /><use id="ic-tick-usage" xlink:href="#ic-tick" class="sprite-symbol-usage" /><use id="ic-time-usage" xlink:href="#ic-time" class="sprite-symbol-usage" /><use id="ic-volatility-normal-usage" xlink:href="#ic-volatility-normal" class="sprite-symbol-usage" /><use id="ic-zoomin-usage" xlink:href="#ic-zoomin" class="sprite-symbol-usage" /><use id="ic-zoomin-light-usage" xlink:href="#ic-zoomin-light" class="sprite-symbol-usage" /><use id="ic-zoomout-usage" xlink:href="#ic-zoomout" class="sprite-symbol-usage" /><use id="ic-zoomout-light-usage" xlink:href="#ic-zoomout-light" class="sprite-symbol-usage" /><use id="indonesia-usage" xlink:href="#indonesia" class="sprite-symbol-usage" /><use id="info-usage" xlink:href="#info" class="sprite-symbol-usage" /><use id="italy-usage" xlink:href="#italy" class="sprite-symbol-usage" /><use id="jpy-usage" xlink:href="#jpy" class="sprite-symbol-usage" /><use id="jump-to-today-usage" xlink:href="#jump-to-today" class="sprite-symbol-usage" /><use id="mxn-usage" xlink:href="#mxn" class="sprite-symbol-usage" /><use id="nok-usage" xlink:href="#nok" class="sprite-symbol-usage" /><use id="nzd-usage" xlink:href="#nzd" class="sprite-symbol-usage" /><use id="pln-usage" xlink:href="#pln" class="sprite-symbol-usage" /><use id="portugal-usage" xlink:href="#portugal" class="sprite-symbol-usage" /><use id="resize-icon-usage" xlink:href="#resize-icon" class="sprite-symbol-usage" /><use id="russia-usage" xlink:href="#russia" class="sprite-symbol-usage" /><use id="sek-usage" xlink:href="#sek" class="sprite-symbol-usage" /><use id="spanish-usage" xlink:href="#spanish" class="sprite-symbol-usage" /><use id="success-usage" xlink:href="#success" class="sprite-symbol-usage" /><use id="table-usage" xlink:href="#table" class="sprite-symbol-usage" /><use id="thailand-usage" xlink:href="#thailand" class="sprite-symbol-usage" /><use id="usd-usage" xlink:href="#usd" class="sprite-symbol-usage" /><use id="vietnam-usage" xlink:href="#vietnam" class="sprite-symbol-usage" /><use id="wallstreet-usage" xlink:href="#wallstreet" class="sprite-symbol-usage" /><use id="warning-usage" xlink:href="#warning" class="sprite-symbol-usage" /></svg>