<svg id="Layer_1" data-name="Layer 1" xmlns="http://www.w3.org/2000/svg" viewBox="0 0 430 322"><defs><style>.cls-1{fill:#2a3052;}.cls-2{fill:#fff;}.cls-3{fill:#293052;}.cls-4{fill:#e78024;}.cls-5{fill:none;stroke:#15212d;stroke-miterlimit:10;stroke-width:1.43px;}</style></defs><title>Binary_puzzle</title><path class="cls-1" d="M72.74,53.79a2.47,2.47,0,0,1,2.41,3l-.88,4.31a6.41,6.41,0,0,0,6.28,7.7h.16A6.41,6.41,0,0,0,87,61.06l-.88-4.31a2.47,2.47,0,0,1,2.41-3h19v-19a2.47,2.47,0,0,0-3-2.42l-4.31.88A6.41,6.41,0,0,1,92.54,27v-.16a6.41,6.41,0,0,1,7.7-6.28l4.31.88a2.47,2.47,0,0,0,3-2.42V0H53.75V19a2.47,2.47,0,0,0,3,2.42L61,20.55a6.41,6.41,0,0,1,7.7,6.28V27A6.41,6.41,0,0,1,61,33.28l-4.31-.88a2.47,2.47,0,0,0-3,2.42v19Z"/><path class="cls-1" d="M142.27,268.21a2.47,2.47,0,0,1-2.41-3l.88-4.31a6.41,6.41,0,0,0-6.28-7.7h-.16a6.41,6.41,0,0,0-6.28,7.7l.88,4.31a2.47,2.47,0,0,1-2.41,3h-19v19a2.47,2.47,0,0,0,3,2.42l4.31-.88a6.41,6.41,0,0,1,7.7,6.28v.16a6.41,6.41,0,0,1-7.7,6.28l-4.31-.88a2.47,2.47,0,0,0-3,2.42v19h53.75V303a2.47,2.47,0,0,0-3-2.42l-4.31.88a6.41,6.41,0,0,1-7.7-6.28V295a6.41,6.41,0,0,1,7.7-6.28l4.31.88a2.47,2.47,0,0,0,3-2.42v-19Z"/><path class="cls-1" d="M303.52,268.21a2.47,2.47,0,0,1-2.41-3l.88-4.31a6.41,6.41,0,0,0-6.28-7.7h-.16a6.41,6.41,0,0,0-6.28,7.7l.88,4.31a2.47,2.47,0,0,1-2.41,3h-19v19a2.47,2.47,0,0,0,3,2.42l4.31-.88a6.41,6.41,0,0,1,7.7,6.28v.16a6.41,6.41,0,0,1-7.7,6.28l-4.31-.88a2.47,2.47,0,0,0-3,2.42v19h53.75V303a2.47,2.47,0,0,0-3-2.42l-4.31.88a6.41,6.41,0,0,1-7.7-6.28V295a6.41,6.41,0,0,1,7.7-6.28l4.31.88a2.47,2.47,0,0,0,3-2.42v-19Z"/><path class="cls-1" d="M53.75,195.56a2.47,2.47,0,0,1,3-2.41L61,194a6.41,6.41,0,0,0,7.7-6.28v-.16a6.41,6.41,0,0,0-7.7-6.28l-4.31.88a2.47,2.47,0,0,1-3-2.41v-19h-19a2.47,2.47,0,0,0-2.42,3l.88,4.31a6.41,6.41,0,0,1-6.28,7.7H26.8a6.41,6.41,0,0,1-6.28-7.7l.88-4.31a2.47,2.47,0,0,0-2.42-3H0v53.75H19a2.47,2.47,0,0,0,2.42-3l-.88-4.31a6.41,6.41,0,0,1,6.28-7.7H27a6.41,6.41,0,0,1,6.28,7.7l-.88,4.31a2.47,2.47,0,0,0,2.42,3h19Z"/><path class="cls-1" d="M168.52,20.55l-4.31.88a2.47,2.47,0,0,1-3-2.42V0H107.5V19a2.47,2.47,0,0,1-3,2.42l-4.31-.88a6.41,6.41,0,0,0-7.7,6.28V27a6.41,6.41,0,0,0,7.7,6.28l4.31-.88a2.47,2.47,0,0,1,3,2.42v19h19a2.47,2.47,0,0,0,2.42-3L128,46.52a6.41,6.41,0,0,1,6.28-7.7h.16a6.41,6.41,0,0,1,6.28,7.7l-.88,4.31a2.47,2.47,0,0,0,2.42,3h19v-19a2.47,2.47,0,0,1,3-2.42l4.31.88a6.41,6.41,0,0,0,7.7-6.28v-.16A6.41,6.41,0,0,0,168.52,20.55Z"/><path class="cls-1" d="M409.48,275.54l-.88-4.31a2.47,2.47,0,0,1,2.42-3h19V214.52H411a2.47,2.47,0,0,1-2.42-3l.88-4.31a6.41,6.41,0,0,0-6.28-7.7H403a6.41,6.41,0,0,0-6.28,7.7l.88,4.31a2.47,2.47,0,0,1-2.42,3h-19v19a2.47,2.47,0,0,0,3,2.42l4.31-.88a6.41,6.41,0,0,1,7.7,6.28v.16a6.41,6.41,0,0,1-7.7,6.28l-4.31-.88a2.47,2.47,0,0,0-3,2.42v19h19a2.47,2.47,0,0,1,2.42,3l-.88,4.31a6.41,6.41,0,0,0,6.28,7.7h.16A6.41,6.41,0,0,0,409.48,275.54Z"/><path class="cls-1" d="M315.23,301.45l4.31-.88a2.47,2.47,0,0,1,3,2.42v19h53.75V303a2.47,2.47,0,0,1,3-2.42l4.31.88a6.41,6.41,0,0,0,7.7-6.28V295a6.41,6.41,0,0,0-7.7-6.28l-4.31.88a2.47,2.47,0,0,1-3-2.42v-19h-19a2.47,2.47,0,0,0-2.42,3l.88,4.31a6.41,6.41,0,0,1-6.28,7.7h-.16a6.41,6.41,0,0,1-6.28-7.7l.88-4.31a2.47,2.47,0,0,0-2.42-3h-19v19a2.47,2.47,0,0,1-3,2.42l-4.31-.88a6.41,6.41,0,0,0-7.7,6.28v.16A6.41,6.41,0,0,0,315.23,301.45Z"/><path class="cls-1" d="M20.52,99.78l.88,4.31A2.47,2.47,0,0,1,19,107H0V160.8H19a2.47,2.47,0,0,1,2.42,3l-.88,4.31a6.41,6.41,0,0,0,6.28,7.7H27a6.41,6.41,0,0,0,6.28-7.7l-.88-4.31a2.47,2.47,0,0,1,2.42-3h19v-19a2.47,2.47,0,0,0-3-2.42l-4.31.88a6.41,6.41,0,0,1-7.7-6.28v-.16a6.41,6.41,0,0,1,7.7-6.28l4.31.88a2.47,2.47,0,0,0,3-2.42V107h-19a2.47,2.47,0,0,1-2.42-3l.88-4.31A6.41,6.41,0,0,0,27,92.08H26.8A6.41,6.41,0,0,0,20.52,99.78Z"/><path class="cls-1" d="M315.23,181.31l4.31.88a2.47,2.47,0,0,0,3-2.42v-19h-19a2.47,2.47,0,0,1-2.41-3l.88-4.31a6.41,6.41,0,0,0-6.28-7.7h-.16a6.41,6.41,0,0,0-6.28,7.7l.88,4.31a2.47,2.47,0,0,1-2.41,3h-19v19a2.47,2.47,0,0,1-3,2.42l-4.31-.88a6.41,6.41,0,0,0-7.7,6.28v.16a6.41,6.41,0,0,0,7.7,6.28l4.31-.88a2.47,2.47,0,0,1,3,2.42v19h19a2.47,2.47,0,0,1,2.42,3l-.88,4.31a6.41,6.41,0,0,0,6.28,7.7h.16a6.41,6.41,0,0,0,6.28-7.7l-.88-4.31a2.47,2.47,0,0,1,2.42-3h19v-19a2.47,2.47,0,0,0-3-2.42l-4.31.88a6.41,6.41,0,0,1-7.7-6.28v-.16A6.41,6.41,0,0,1,315.23,181.31Z"/><path class="cls-1" d="M222.26,247.75l-4.31-.88a2.47,2.47,0,0,0-3,2.42v19h19a2.47,2.47,0,0,1,2.41,3l-.88,4.31a6.41,6.41,0,0,0,6.28,7.7H242a6.41,6.41,0,0,0,6.28-7.7l-.88-4.31a2.47,2.47,0,0,1,2.41-3h19v-19a2.47,2.47,0,0,1,3-2.42l4.31.88a6.41,6.41,0,0,0,7.7-6.28v-.16A6.41,6.41,0,0,0,276,235l-4.31.88a2.47,2.47,0,0,1-3-2.42v-19h-19a2.47,2.47,0,0,1-2.42-3l.88-4.31a6.41,6.41,0,0,0-6.28-7.7h-.16a6.41,6.41,0,0,0-6.28,7.7l.88,4.31a2.47,2.47,0,0,1-2.42,3H215v19a2.47,2.47,0,0,0,3,2.42l4.31-.88a6.41,6.41,0,0,1,7.7,6.28v.16A6.41,6.41,0,0,1,222.26,247.75Z"/><path class="cls-1" d="M140.74,261l-.88,4.31a2.47,2.47,0,0,0,2.42,3h19v-19a2.47,2.47,0,0,1,3-2.41l4.31.88a6.41,6.41,0,0,0,7.7-6.28v-.16a6.41,6.41,0,0,0-7.7-6.28l-4.31.88a2.47,2.47,0,0,1-3-2.41v-19h-19a2.47,2.47,0,0,1-2.42-3l.88-4.31a6.41,6.41,0,0,0-6.28-7.7h-.16a6.41,6.41,0,0,0-6.28,7.7l.88,4.31a2.47,2.47,0,0,1-2.42,3h-19v19a2.47,2.47,0,0,1-3,2.42l-4.31-.88a6.41,6.41,0,0,0-7.7,6.28v.16a6.41,6.41,0,0,0,7.7,6.28l4.31-.88a2.47,2.47,0,0,1,3,2.42v19h19a2.47,2.47,0,0,0,2.42-3L128,261a6.41,6.41,0,0,1,6.28-7.7h.16A6.41,6.41,0,0,1,140.74,261Z"/><path class="cls-1" d="M61,20.55l-4.31.88a2.47,2.47,0,0,1-3-2.42V0H0V53.79H19a2.47,2.47,0,0,0,2.42-3l-.88-4.31a6.41,6.41,0,0,1,6.28-7.7H27a6.41,6.41,0,0,1,6.28,7.7l-.88,4.31a2.47,2.47,0,0,0,2.42,3h19v-19a2.47,2.47,0,0,1,3-2.42l4.31.88A6.41,6.41,0,0,0,68.72,27v-.16A6.41,6.41,0,0,0,61,20.55Z"/><path class="cls-1" d="M276,301.45l-4.31-.88a2.47,2.47,0,0,0-3,2.42v19H215V303a2.47,2.47,0,0,1,3-2.42l4.31.88a6.41,6.41,0,0,0,7.7-6.28V295a6.41,6.41,0,0,0-7.7-6.28l-4.31.88a2.47,2.47,0,0,1-3-2.42v-19h19a2.47,2.47,0,0,1,2.42,3l-.88,4.31a6.41,6.41,0,0,0,6.28,7.7H242a6.41,6.41,0,0,0,6.28-7.7l-.88-4.31a2.47,2.47,0,0,1,2.42-3h19v19a2.47,2.47,0,0,0,3,2.42l4.31-.88a6.41,6.41,0,0,1,7.7,6.28v.16A6.41,6.41,0,0,1,276,301.45Z"/><path class="cls-1" d="M430,268.21H411a2.47,2.47,0,0,0-2.42,3l.88,4.31a6.41,6.41,0,0,1-6.28,7.7H403a6.41,6.41,0,0,1-6.28-7.7l.88-4.31a2.47,2.47,0,0,0-2.42-3h-19v19a2.47,2.47,0,0,0,3,2.42l4.31-.88a6.41,6.41,0,0,1,7.7,6.28v.16a6.41,6.41,0,0,1-7.7,6.28l-4.31-.88a2.47,2.47,0,0,0-3,2.42v19H430Z"/><path class="cls-1" d="M53.75,322V303a2.47,2.47,0,0,0-3-2.42l-4.31.88a6.41,6.41,0,0,1-7.7-6.28V295a6.41,6.41,0,0,1,7.7-6.28l4.31.88a2.47,2.47,0,0,0,3-2.42v-19h-19a2.47,2.47,0,0,0-2.42,3l.88,4.31a6.41,6.41,0,0,1-6.28,7.7H26.8a6.41,6.41,0,0,1-6.28-7.7l.88-4.31a2.47,2.47,0,0,0-2.42-3H0V322Z"/><path class="cls-1" d="M329.77,20.55l-4.31.88a2.47,2.47,0,0,1-3-2.42V0H268.75V19a2.47,2.47,0,0,1-3,2.42l-4.31-.88a6.41,6.41,0,0,0-7.7,6.28V27a6.41,6.41,0,0,0,7.7,6.28l4.31-.88a2.47,2.47,0,0,1,3,2.42v19h19a2.47,2.47,0,0,1,2.42,3l-.88,4.31a6.41,6.41,0,0,0,6.28,7.7h.16a6.41,6.41,0,0,0,6.28-7.7l-.88-4.31a2.47,2.47,0,0,1,2.42-3h19v-19a2.47,2.47,0,0,1,3-2.42l4.31.88a6.41,6.41,0,0,0,7.7-6.28v-.16A6.41,6.41,0,0,0,329.77,20.55Z"/><path class="cls-1" d="M46.48,301.45l4.31-.88a2.47,2.47,0,0,1,3,2.42v19H107.5V303a2.47,2.47,0,0,1,3-2.42l4.31.88a6.41,6.41,0,0,0,7.7-6.28V295a6.41,6.41,0,0,0-7.7-6.28l-4.31.88a2.47,2.47,0,0,1-3-2.42v-19h-19a2.47,2.47,0,0,1-2.42-3l.88-4.31a6.41,6.41,0,0,0-6.28-7.7h-.16a6.41,6.41,0,0,0-6.28,7.7l.88,4.31a2.47,2.47,0,0,1-2.42,3h-19v19a2.47,2.47,0,0,1-3,2.42l-4.31-.88a6.41,6.41,0,0,0-7.7,6.28v.16A6.41,6.41,0,0,0,46.48,301.45Z"/><path class="cls-1" d="M154,301.45l4.31-.88a2.47,2.47,0,0,1,3,2.42v19H215V303a2.47,2.47,0,0,1,3-2.42l4.31.88a6.41,6.41,0,0,0,7.7-6.28V295a6.41,6.41,0,0,0-7.7-6.28l-4.31.88a2.47,2.47,0,0,1-3-2.42v-19H196a2.47,2.47,0,0,1-2.42-3l.88-4.31a6.41,6.41,0,0,0-6.28-7.7H188a6.41,6.41,0,0,0-6.28,7.7l.88,4.31a2.47,2.47,0,0,1-2.42,3h-19v19a2.47,2.47,0,0,1-3,2.42l-4.31-.88a6.41,6.41,0,0,0-7.7,6.28v.16A6.41,6.41,0,0,0,154,301.45Z"/><path class="cls-1" d="M20.52,207.25l.88,4.31a2.47,2.47,0,0,1-2.42,3H0v53.75H19a2.47,2.47,0,0,1,2.42,3l-.88,4.31a6.41,6.41,0,0,0,6.28,7.7H27a6.41,6.41,0,0,0,6.28-7.7l-.88-4.31a2.47,2.47,0,0,1,2.42-3h19v-19a2.47,2.47,0,0,1,3-2.42l4.31.88a6.41,6.41,0,0,0,7.7-6.28v-.16A6.41,6.41,0,0,0,61,235l-4.31.88a2.47,2.47,0,0,1-3-2.42v-19h-19a2.47,2.47,0,0,1-2.42-3l.88-4.31a6.41,6.41,0,0,0-6.28-7.7H26.8A6.41,6.41,0,0,0,20.52,207.25Z"/><path class="cls-1" d="M161.25,0V19a2.47,2.47,0,0,0,3,2.42l4.31-.88a6.41,6.41,0,0,1,7.7,6.28V27a6.41,6.41,0,0,1-7.7,6.28l-4.31-.88a2.47,2.47,0,0,0-3,2.42v19h19a2.47,2.47,0,0,0,2.42-3l-.88-4.31a6.41,6.41,0,0,1,6.28-7.7h.16a6.41,6.41,0,0,1,6.28,7.7l-.88,4.31a2.47,2.47,0,0,0,2.42,3h19v-19a2.47,2.47,0,0,0-3-2.42l-4.31.88A6.41,6.41,0,0,1,200,27v-.16a6.41,6.41,0,0,1,7.7-6.28l4.31.88A2.47,2.47,0,0,0,215,19V0Z"/><path class="cls-1" d="M61,73.93l-4.31.88a2.47,2.47,0,0,1-3-2.42v-19h-19a2.47,2.47,0,0,1-2.42-3l.88-4.31A6.41,6.41,0,0,0,27,38.45H26.8a6.41,6.41,0,0,0-6.28,7.7l.88,4.31a2.47,2.47,0,0,1-2.42,3H0v53.75H19a2.47,2.47,0,0,0,2.42-3l-.88-4.31a6.41,6.41,0,0,1,6.28-7.7H27a6.41,6.41,0,0,1,6.28,7.7l-.88,4.31a2.47,2.47,0,0,0,2.42,3h19v-19a2.47,2.47,0,0,1,3-2.42l4.31.88a6.41,6.41,0,0,0,7.7-6.28v-.16A6.41,6.41,0,0,0,61,73.93Z"/><path class="cls-1" d="M235.51,61.06l.88-4.31a2.47,2.47,0,0,0-2.42-3H215v-19a2.47,2.47,0,0,0-3-2.42l-4.31.88A6.41,6.41,0,0,1,200,27v-.16a6.41,6.41,0,0,1,7.7-6.28l4.31.88A2.47,2.47,0,0,0,215,19V0h53.75V19a2.47,2.47,0,0,1-3,2.42l-4.31-.88a6.41,6.41,0,0,0-7.7,6.28V27a6.41,6.41,0,0,0,7.7,6.28l4.31-.88a2.47,2.47,0,0,1,3,2.42v19h-19a2.47,2.47,0,0,0-2.42,3l.88,4.31a6.41,6.41,0,0,1-6.28,7.7h-.16A6.41,6.41,0,0,1,235.51,61.06Z"/><path class="cls-1" d="M369,181.33l4.31.88a2.47,2.47,0,0,0,3-2.42v-19h19a2.47,2.47,0,0,0,2.42-3l-.88-4.31a6.41,6.41,0,0,1,6.28-7.7h.16a6.41,6.41,0,0,1,6.28,7.7l-.88,4.31a2.47,2.47,0,0,0,2.42,3h19v53.75H411a2.47,2.47,0,0,1-2.42-3l.88-4.31a6.41,6.41,0,0,0-6.28-7.7H403a6.41,6.41,0,0,0-6.28,7.7l.88,4.31a2.47,2.47,0,0,1-2.42,3h-19v-19a2.47,2.47,0,0,0-3-2.42L369,194a6.41,6.41,0,0,1-7.7-6.28v-.16A6.41,6.41,0,0,1,369,181.33Z"/><path class="cls-1" d="M168.52,73.93l-4.31.88a2.47,2.47,0,0,1-3-2.42v-19h-19a2.47,2.47,0,0,1-2.42-3l.88-4.31a6.41,6.41,0,0,0-6.28-7.7h-.16a6.41,6.41,0,0,0-6.28,7.7l.88,4.31a2.47,2.47,0,0,1-2.42,3h-19v19a2.47,2.47,0,0,1-3,2.42l-4.31-.88a6.41,6.41,0,0,0-7.7,6.28v.16a6.41,6.41,0,0,0,7.7,6.28l4.31-.88a2.47,2.47,0,0,1,3,2.42v19h19a2.47,2.47,0,0,1,2.42,3l-.88,4.31a6.41,6.41,0,0,0,6.28,7.7h.16a6.41,6.41,0,0,0,6.28-7.7l-.88-4.31a2.47,2.47,0,0,1,2.42-3h19v-19a2.47,2.47,0,0,1,3-2.42l4.31.88a6.41,6.41,0,0,0,7.7-6.28v-.16A6.41,6.41,0,0,0,168.52,73.93Z"/><path class="cls-1" d="M222.27,127.56l-4.31.88a2.47,2.47,0,0,1-3-2.42V107H196a2.47,2.47,0,0,1-2.42-3l.88-4.31a6.41,6.41,0,0,0-6.28-7.7H188a6.41,6.41,0,0,0-6.28,7.7l.88,4.31a2.47,2.47,0,0,1-2.42,3h-19v19a2.47,2.47,0,0,1-3,2.42l-4.31-.88a6.41,6.41,0,0,0-7.7,6.28V134a6.41,6.41,0,0,0,7.7,6.28l4.31-.88a2.47,2.47,0,0,1,3,2.42v19h19a2.47,2.47,0,0,1,2.42,3l-.88,4.31a6.41,6.41,0,0,0,6.28,7.7h.16a6.41,6.41,0,0,0,6.28-7.7l-.88-4.31a2.47,2.47,0,0,1,2.42-3h19v-19a2.47,2.47,0,0,1,3-2.42l4.31.88A6.41,6.41,0,0,0,230,134v-.16A6.41,6.41,0,0,0,222.27,127.56Z"/><path class="cls-1" d="M383.52,235l-4.31.88a2.47,2.47,0,0,1-3-2.42v-19h-19a2.47,2.47,0,0,1-2.42-3l.88-4.31a6.41,6.41,0,0,0-6.28-7.7h-.16a6.41,6.41,0,0,0-6.28,7.7l.88,4.31a2.47,2.47,0,0,1-2.42,3h-19v19a2.47,2.47,0,0,1-3,2.42l-4.31-.88a6.41,6.41,0,0,0-7.7,6.28v.16a6.41,6.41,0,0,0,7.7,6.28l4.31-.88a2.47,2.47,0,0,1,3,2.42v19h19a2.47,2.47,0,0,1,2.42,3l-.88,4.31a6.41,6.41,0,0,0,6.28,7.7h.16a6.41,6.41,0,0,0,6.28-7.7l-.88-4.31a2.47,2.47,0,0,1,2.42-3h19v-19a2.47,2.47,0,0,1,3-2.42l4.31.88a6.41,6.41,0,0,0,7.7-6.28v-.16A6.41,6.41,0,0,0,383.52,235Z"/><path class="cls-1" d="M276,127.56l-4.31.88a2.47,2.47,0,0,1-3-2.42V107h-19a2.47,2.47,0,0,1-2.42-3l.88-4.31a6.41,6.41,0,0,0-6.28-7.7h-.16a6.41,6.41,0,0,0-6.28,7.7l.88,4.31a2.47,2.47,0,0,1-2.42,3H215v19a2.47,2.47,0,0,0,3,2.42l4.31-.88a6.41,6.41,0,0,1,7.7,6.28V134a6.41,6.41,0,0,1-7.7,6.28L218,139.4a2.47,2.47,0,0,0-3,2.42v19h19a2.47,2.47,0,0,0,2.42-3l-.88-4.31a6.41,6.41,0,0,1,6.28-7.7H242a6.41,6.41,0,0,1,6.28,7.7l-.88,4.31a2.47,2.47,0,0,0,2.42,3h19v-19a2.47,2.47,0,0,1,3-2.42l4.31.88a6.41,6.41,0,0,0,7.7-6.28v-.16A6.41,6.41,0,0,0,276,127.56Z"/><path class="cls-1" d="M329.76,127.56l-4.31.88a2.47,2.47,0,0,1-3-2.42V107h-19a2.47,2.47,0,0,1-2.42-3l.88-4.31a6.41,6.41,0,0,0-6.28-7.7h-.16a6.41,6.41,0,0,0-6.28,7.7l.88,4.31a2.47,2.47,0,0,1-2.42,3h-19v19a2.47,2.47,0,0,0,3,2.42l4.31-.88a6.41,6.41,0,0,1,7.7,6.28V134a6.41,6.41,0,0,1-7.7,6.28l-4.31-.88a2.47,2.47,0,0,0-3,2.42v19h19a2.47,2.47,0,0,0,2.42-3l-.88-4.31a6.41,6.41,0,0,1,6.28-7.7h.16a6.41,6.41,0,0,1,6.28,7.7l-.88,4.31a2.47,2.47,0,0,0,2.42,3h19v-19a2.47,2.47,0,0,1,3-2.42l4.31.88a6.41,6.41,0,0,0,7.7-6.28v-.16A6.41,6.41,0,0,0,329.76,127.56Z"/><path class="cls-1" d="M222.27,235l-4.31.88a2.47,2.47,0,0,1-3-2.42v-19H196a2.47,2.47,0,0,1-2.42-3l.88-4.31a6.41,6.41,0,0,0-6.28-7.7H188a6.41,6.41,0,0,0-6.28,7.7l.88,4.31a2.47,2.47,0,0,1-2.42,3h-19v19a2.47,2.47,0,0,0,3,2.42l4.31-.88a6.41,6.41,0,0,1,7.7,6.28v.16a6.41,6.41,0,0,1-7.7,6.28l-4.31-.88a2.47,2.47,0,0,0-3,2.42v19h19a2.47,2.47,0,0,0,2.42-3l-.88-4.31a6.41,6.41,0,0,1,6.28-7.7h.16a6.41,6.41,0,0,1,6.28,7.7l-.88,4.31a2.47,2.47,0,0,0,2.42,3h19v-19a2.47,2.47,0,0,1,3-2.42l4.31.88a6.41,6.41,0,0,0,7.7-6.28v-.16A6.41,6.41,0,0,0,222.27,235Z"/><path class="cls-1" d="M343,153.54l.88,4.31a2.47,2.47,0,0,1-2.42,3h-19v19a2.47,2.47,0,0,1-3,2.42l-4.31-.88a6.41,6.41,0,0,0-7.7,6.28v.16a6.41,6.41,0,0,0,7.7,6.28l4.31-.88a2.47,2.47,0,0,1,3,2.42v19h19a2.47,2.47,0,0,0,2.42-3L343,207.3a6.41,6.41,0,0,1,6.28-7.7h.16a6.41,6.41,0,0,1,6.28,7.7l-.88,4.31a2.47,2.47,0,0,0,2.42,3h19v-19a2.47,2.47,0,0,0-3-2.42L369,194a6.41,6.41,0,0,1-7.7-6.28v-.16a6.41,6.41,0,0,1,7.7-6.28l4.31.88a2.47,2.47,0,0,0,3-2.42v-19h-19a2.47,2.47,0,0,1-2.42-3l.88-4.31a6.41,6.41,0,0,0-6.28-7.7h-.16A6.41,6.41,0,0,0,343,153.54Z"/><path class="cls-1" d="M114.77,181.31l-4.31.88a2.47,2.47,0,0,1-3-2.42v-19h-19a2.47,2.47,0,0,1-2.42-3l.88-4.31a6.41,6.41,0,0,0-6.28-7.7h-.16a6.41,6.41,0,0,0-6.28,7.7l.88,4.31a2.47,2.47,0,0,1-2.42,3h-19v19a2.47,2.47,0,0,0,3,2.42l4.31-.88a6.41,6.41,0,0,1,7.7,6.28v.16A6.41,6.41,0,0,1,61,194l-4.31-.88a2.47,2.47,0,0,0-3,2.42v19h19a2.47,2.47,0,0,0,2.42-3l-.88-4.31a6.41,6.41,0,0,1,6.28-7.7h.16a6.41,6.41,0,0,1,6.28,7.7l-.88,4.31a2.47,2.47,0,0,0,2.42,3h19v-19a2.47,2.47,0,0,1,3-2.42l4.31.88a6.41,6.41,0,0,0,7.7-6.28v-.16A6.41,6.41,0,0,0,114.77,181.31Z"/><path class="cls-1" d="M100.23,140.4l4.31-.88a2.47,2.47,0,0,1,3,2.42v19h19a2.47,2.47,0,0,1,2.42,3l-.88,4.31a6.41,6.41,0,0,0,6.28,7.7h.16a6.41,6.41,0,0,0,6.28-7.7l-.88-4.31a2.47,2.47,0,0,1,2.42-3h19v-19a2.47,2.47,0,0,0-3-2.42l-4.31.88a6.41,6.41,0,0,1-7.7-6.28V134a6.41,6.41,0,0,1,7.7-6.28l4.31.88a2.47,2.47,0,0,0,3-2.42v-19h-19a2.47,2.47,0,0,0-2.42,3l.88,4.31a6.41,6.41,0,0,1-6.28,7.7h-.16a6.41,6.41,0,0,1-6.28-7.7l.88-4.31a2.47,2.47,0,0,0-2.42-3h-19v19a2.47,2.47,0,0,1-3,2.42l-4.31-.88a6.41,6.41,0,0,0-7.7,6.28v.16A6.41,6.41,0,0,0,100.23,140.4Z"/><path class="cls-1" d="M207.74,73.93l4.31.88a2.47,2.47,0,0,0,3-2.42v-19H196a2.47,2.47,0,0,1-2.42-3l.88-4.31a6.41,6.41,0,0,0-6.28-7.7H188a6.41,6.41,0,0,0-6.28,7.7l.88,4.31a2.47,2.47,0,0,1-2.42,3h-19v19a2.47,2.47,0,0,0,3,2.42l4.31-.88a6.41,6.41,0,0,1,7.7,6.28v.16a6.41,6.41,0,0,1-7.7,6.28l-4.31-.88a2.47,2.47,0,0,0-3,2.42v19h19a2.47,2.47,0,0,0,2.42-3l-.88-4.31A6.41,6.41,0,0,1,188,92.2h.16a6.41,6.41,0,0,1,6.28,7.7l-.88,4.31a2.47,2.47,0,0,0,2.42,3h19v-19a2.47,2.47,0,0,0-3-2.42l-4.31.88a6.41,6.41,0,0,1-7.7-6.28v-.16A6.41,6.41,0,0,1,207.74,73.93Z"/><path class="cls-1" d="M261.48,181.33l4.31.88a2.47,2.47,0,0,0,3-2.42v-19h-19a2.47,2.47,0,0,1-2.42-3l.88-4.31a6.41,6.41,0,0,0-6.28-7.7h-.16a6.41,6.41,0,0,0-6.28,7.7l.88,4.31a2.47,2.47,0,0,1-2.42,3H215v19a2.47,2.47,0,0,0,3,2.42l4.31-.88a6.41,6.41,0,0,1,7.7,6.28v.16a6.41,6.41,0,0,1-7.7,6.28l-4.31-.88a2.47,2.47,0,0,0-3,2.42v19h19a2.47,2.47,0,0,0,2.42-3l-.88-4.31a6.41,6.41,0,0,1,6.28-7.7H242a6.41,6.41,0,0,1,6.28,7.7l-.88,4.31a2.47,2.47,0,0,0,2.42,3h19v-19a2.47,2.47,0,0,0-3-2.42l-4.31.88a6.41,6.41,0,0,1-7.7-6.28v-.16A6.41,6.41,0,0,1,261.48,181.33Z"/><path class="cls-1" d="M100.23,235l4.31.88a2.47,2.47,0,0,0,3-2.42v-19h-19a2.47,2.47,0,0,1-2.42-3l.88-4.31a6.41,6.41,0,0,0-6.28-7.7h-.16a6.41,6.41,0,0,0-6.28,7.7l.88,4.31a2.47,2.47,0,0,1-2.42,3h-19v19a2.47,2.47,0,0,0,3,2.42L61,235a6.41,6.41,0,0,1,7.7,6.28v.16a6.41,6.41,0,0,1-7.7,6.28l-4.31-.88a2.47,2.47,0,0,0-3,2.42v19h19a2.47,2.47,0,0,0,2.42-3L74.26,261a6.41,6.41,0,0,1,6.28-7.7h.16A6.41,6.41,0,0,1,87,261l-.88,4.31a2.47,2.47,0,0,0,2.42,3h19v-19a2.47,2.47,0,0,0-3-2.42l-4.31.88a6.41,6.41,0,0,1-7.7-6.28v-.16A6.41,6.41,0,0,1,100.23,235Z"/><path class="cls-1" d="M369,127.56l4.31.88a2.47,2.47,0,0,0,3-2.42V107h-19a2.47,2.47,0,0,1-2.42-3l.88-4.31a6.41,6.41,0,0,0-6.28-7.7h-.16a6.41,6.41,0,0,0-6.28,7.7l.88,4.31a2.47,2.47,0,0,1-2.42,3h-19v19a2.47,2.47,0,0,0,3,2.42l4.31-.88a6.41,6.41,0,0,1,7.7,6.28V134a6.41,6.41,0,0,1-7.7,6.28l-4.31-.88a2.47,2.47,0,0,0-3,2.42v19h19a2.47,2.47,0,0,0,2.42-3l-.88-4.31a6.41,6.41,0,0,1,6.28-7.7h.16a6.41,6.41,0,0,1,6.28,7.7l-.88,4.31a2.47,2.47,0,0,0,2.42,3h19v-19a2.47,2.47,0,0,0-3-2.42l-4.31.88a6.41,6.41,0,0,1-7.7-6.28v-.16A6.41,6.41,0,0,1,369,127.56Z"/><path class="cls-1" d="M88.52,53.41a2.47,2.47,0,0,0-2.42,3L87,60.68a6.41,6.41,0,0,1-6.28,7.7h-.16a6.41,6.41,0,0,1-6.28-7.7l.88-4.31a2.47,2.47,0,0,0-2.42-3h-19v19a2.47,2.47,0,0,0,3,2.42L61,73.93a6.41,6.41,0,0,1,7.7,6.28v.16A6.41,6.41,0,0,1,61,86.65l-4.31-.88a2.47,2.47,0,0,0-3,2.42v19h19a2.47,2.47,0,0,0,2.42-3l-.88-4.31a6.41,6.41,0,0,1,6.28-7.7h.16A6.41,6.41,0,0,1,87,99.9l-.88,4.31a2.47,2.47,0,0,0,2.42,3h19v-19a2.47,2.47,0,0,0-3-2.42l-4.31.88a6.41,6.41,0,0,1-7.7-6.28v-.16a6.41,6.41,0,0,1,7.7-6.28l4.31.88a2.47,2.47,0,0,0,3-2.42v-19Z"/><path class="cls-1" d="M303.52,214.52a2.47,2.47,0,0,0-2.42,3l.88,4.31a6.41,6.41,0,0,1-6.28,7.7h-.16a6.41,6.41,0,0,1-6.28-7.7l.88-4.31a2.47,2.47,0,0,0-2.42-3h-19v19a2.47,2.47,0,0,0,3,2.42L276,235a6.41,6.41,0,0,1,7.7,6.28v.16a6.41,6.41,0,0,1-7.7,6.28l-4.31-.88a2.47,2.47,0,0,0-3,2.42v19h19a2.47,2.47,0,0,0,2.42-3l-.88-4.31a6.41,6.41,0,0,1,6.28-7.7h.16A6.41,6.41,0,0,1,302,261l-.88,4.31a2.47,2.47,0,0,0,2.42,3h19v-19a2.47,2.47,0,0,0-3-2.42l-4.31.88a6.41,6.41,0,0,1-7.7-6.28v-.16a6.41,6.41,0,0,1,7.7-6.28l4.31.88a2.47,2.47,0,0,0,3-2.42v-19Z"/><path class="cls-1" d="M142.27,160.81a2.47,2.47,0,0,0-2.42,3l.88,4.31a6.41,6.41,0,0,1-6.28,7.7h-.16a6.41,6.41,0,0,1-6.28-7.7l.88-4.31a2.47,2.47,0,0,0-2.42-3h-19v19a2.47,2.47,0,0,0,3,2.42l4.31-.88a6.41,6.41,0,0,1,7.7,6.28v.16a6.41,6.41,0,0,1-7.7,6.28l-4.31-.88a2.47,2.47,0,0,0-3,2.42v19h19a2.47,2.47,0,0,0,2.42-3L128,207.3a6.41,6.41,0,0,1,6.28-7.7h.16a6.41,6.41,0,0,1,6.28,7.7l-.88,4.31a2.47,2.47,0,0,0,2.42,3h19v-19a2.47,2.47,0,0,0-3-2.42L154,194a6.41,6.41,0,0,1-7.7-6.28v-.16a6.41,6.41,0,0,1,7.7-6.28l4.31.88a2.47,2.47,0,0,0,3-2.42v-19Z"/><path class="cls-1" d="M303.52,53.41a2.47,2.47,0,0,0-2.42,3l.88,4.31a6.41,6.41,0,0,1-6.28,7.7h-.16a6.41,6.41,0,0,1-6.28-7.7l.88-4.31a2.47,2.47,0,0,0-2.42-3h-19v19a2.47,2.47,0,0,0,3,2.42l4.31-.88a6.41,6.41,0,0,1,7.7,6.28v.16a6.41,6.41,0,0,1-7.7,6.28l-4.31-.88a2.47,2.47,0,0,0-3,2.42v19h19a2.47,2.47,0,0,0,2.42-3l-.88-4.31a6.41,6.41,0,0,1,6.28-7.7h.16A6.41,6.41,0,0,1,302,99.9l-.88,4.31a2.47,2.47,0,0,0,2.42,3h19v-19a2.47,2.47,0,0,0-3-2.42l-4.31.88a6.41,6.41,0,0,1-7.7-6.28v-.16a6.41,6.41,0,0,1,7.7-6.28l4.31.88a2.47,2.47,0,0,0,3-2.42v-19Z"/><path class="cls-1" d="M276,73.93l-4.31.88a2.47,2.47,0,0,1-3-2.41v-19h-19a2.47,2.47,0,0,0-2.42,3l.88,4.31a6.41,6.41,0,0,1-6.28,7.7h-.16a6.41,6.41,0,0,1-6.28-7.7l.88-4.31a2.47,2.47,0,0,0-2.42-3H215v19a2.47,2.47,0,0,1-3,2.42l-4.31-.88a6.41,6.41,0,0,0-7.7,6.28v.16a6.41,6.41,0,0,0,7.7,6.28l4.31-.88a2.47,2.47,0,0,1,3,2.42v19h19a2.47,2.47,0,0,0,2.42-3l-.88-4.31a6.41,6.41,0,0,1,6.28-7.7H242a6.41,6.41,0,0,1,6.28,7.7l-.88,4.31a2.47,2.47,0,0,0,2.42,3h19v-19a2.47,2.47,0,0,1,3-2.41l4.31.88a6.41,6.41,0,0,0,7.7-6.28v-.16A6.41,6.41,0,0,0,276,73.93Z"/><path class="cls-1" d="M222.27,181.33l-4.31.88a2.47,2.47,0,0,1-3-2.41v-19H196a2.47,2.47,0,0,0-2.42,3l.88,4.31a6.41,6.41,0,0,1-6.28,7.7H188a6.41,6.41,0,0,1-6.28-7.7l.88-4.31a2.47,2.47,0,0,0-2.42-3h-19v19a2.47,2.47,0,0,1-3,2.42l-4.31-.88a6.41,6.41,0,0,0-7.7,6.28v.16A6.41,6.41,0,0,0,154,194l4.31-.88a2.47,2.47,0,0,1,3,2.42v19h19a2.47,2.47,0,0,0,2.42-3l-.88-4.31a6.41,6.41,0,0,1,6.28-7.7h.16a6.41,6.41,0,0,1,6.28,7.7l-.88,4.31a2.47,2.47,0,0,0,2.42,3h19v-19a2.47,2.47,0,0,1,3-2.41l4.31.88a6.41,6.41,0,0,0,7.7-6.28v-.16A6.41,6.41,0,0,0,222.27,181.33Z"/><path class="cls-2" d="M273.33,63.1a82.52,82.52,0,1,0,0,116.7A82.58,82.58,0,0,0,273.33,63.1Z"/><path class="cls-3" d="M192,143.1s.95,7.08,6.9,10.35l-1.58-3S200.34,142.54,192,143.1Z"/><path class="cls-3" d="M269.15,67.28a76.62,76.62,0,1,0,0,108.36A76.66,76.66,0,0,0,269.15,67.28Zm-7.92,100.44c-.84.82-1.66,1.61-2.5,2.38-18.41,15-32.58,7.54-32.74,7.54-9.61-1.92-14.38-1.95-17.07-3.75-.68-.45-2.85-1.62-3.35-1.34a6.14,6.14,0,0,1-7.43-.44c-.25-.2-.48-.42-.69-.63-3.06-3-2-6.19-1-7.29.7-.71-.54-2.72-.54-2.72s-3.61-5.36-6.07-8.58c-2.72-3.54-3.09-10.56-3.12-10.66l0-.1a28.66,28.66,0,0,1-4-5.85,15.15,15.15,0,0,0-2.12-2.58,12.87,12.87,0,0,1-1.28-1.4.56.56,0,0,1-.06-.45c.25-1.52,3.52-4.87,4.22-5.34.87-.56,4.59-2.83,4.59-2.83s2.1-3.29,5.67-3.29A27.1,27.1,0,0,1,204.45,122l2.3.73c3.87,1.24,7.28,2.7,10,3.87a45.23,45.23,0,0,0,5.55,2.16c4.79,1.26,13.22-2.61,15-4.25,2.92-2.66,4.18-4.44,4.2-5.9a3.29,3.29,0,0,0-1.17-2.4c-.43-.4-1-1.14-1.68-1.84a2.86,2.86,0,0,0-.37-.34c-8.1-8.6-6.7-14-6.69-14.09.35-3.87-1.87-6.36-4.25-8.93l-.39-.48a3.29,3.29,0,0,1-.28-.32c3.45.57,5.8,2,12.54,2.71a23.92,23.92,0,0,0,5.67.3c4.21-.13,7.55-.5,7.78-1.46-.41-.35-2.27.1-11.22-3.32-4.14-1.59-4.79-1.82-7.43-2.69-3.38-1.14-7-2.72-7-2.72,14.59,3.83,19.36,5.33,26,5.42a20.75,20.75,0,0,0,5-.45c.95-.17,3.89-.84,4.23-1.86A23.88,23.88,0,0,1,254,84.86c-17-5.63-18.48-8.44-27.92-12.12-3.29-1.28-4.36-2-14.31-4.55-4.56-1.17-11.45-.5-12.38.09-12.91-3-15.85-2.71-19.64-1.89a65.49,65.49,0,0,1,81.49,8.82,67,67,0,0,1,8,9.66l.31.47a65.42,65.42,0,0,1-8.29,82.38ZM218.35,93.87c6.41,2.29,8.47,9.11,8.47,9.11-8.15,1.86-6.43-6.46-6.43-6.46Z"/><path class="cls-2" d="M129.12,239.67a11.84,11.84,0,0,0-3.52.49,11.68,11.68,0,0,0-2.85,1.31,11.93,11.93,0,0,0-2.27,1.9c-.17.17-.34.36-.51.56v-3.59h-8.68v33H120V254.82a7.4,7.4,0,0,1,1.77-5.28,6,6,0,0,1,4.6-1.84,5.5,5.5,0,0,1,4.43,1.76,7.77,7.77,0,0,1,1.58,5.24v18.59H141V252.5a13.54,13.54,0,0,0-3.11-9.31C135.85,240.86,132.89,239.67,129.12,239.67Z"/><path class="cls-2" d="M161.11,239.91a27.5,27.5,0,0,0-6.81.73,34.76,34.76,0,0,0-5.49,2l-.57.27,2.41,7.09.69-.29a32,32,0,0,1,4.15-1.4,18.66,18.66,0,0,1,4.62-.52,7.93,7.93,0,0,1,5.31,1.57,5.39,5.39,0,0,1,1.76,4.16,30.87,30.87,0,0,0-3-.71,28.94,28.94,0,0,0-5-.37,20.51,20.51,0,0,0-5.28.65,12.29,12.29,0,0,0-4.31,2,9.63,9.63,0,0,0-2.86,3.47,11,11,0,0,0-1,4.88v.12a9.91,9.91,0,0,0,1,4.53,9.69,9.69,0,0,0,2.64,3.28,11.33,11.33,0,0,0,3.79,2,15.37,15.37,0,0,0,4.52.66,13.74,13.74,0,0,0,6.41-1.39,15.26,15.26,0,0,0,3.11-2.14v2.87h8.56v-19.4c0-4.4-1.21-7.87-3.61-10.32S166,239.91,161.11,239.91Zm-1.5,27.27a6.93,6.93,0,0,1-4-1.08,3.27,3.27,0,0,1-1.45-2.89v-.12a3.45,3.45,0,0,1,1.61-3,8.7,8.7,0,0,1,4.93-1.19,20.91,20.91,0,0,1,3.84.34,19.91,19.91,0,0,1,2.7.7v1.32a5.27,5.27,0,0,1-.54,2.4,5.68,5.68,0,0,1-1.57,1.86,8.23,8.23,0,0,1-2.46,1.24A10.5,10.5,0,0,1,159.62,267.19Z"/><path class="cls-2" d="M220.39,262.46l-8.47-22.12H202.7l13.45,32.26a6.12,6.12,0,0,1-1.59,2.33,3.4,3.4,0,0,1-2.15.64,6.72,6.72,0,0,1-2-.3,11.52,11.52,0,0,1-2-.82l-.65-.34-3,6.65.57.3a18,18,0,0,0,3.57,1.47,15.63,15.63,0,0,0,4.23.53,12.06,12.06,0,0,0,3.62-.51,9.07,9.07,0,0,0,3-1.65,11.65,11.65,0,0,0,2.42-2.89,28,28,0,0,0,2-4.24l12.92-33.42h-9Z"/><path class="cls-4" d="M277,262.6a16.53,16.53,0,0,1-3.53,2.73,8.93,8.93,0,0,1-7.71.28,8.8,8.8,0,0,1-2.77-2,9,9,0,0,1-1.81-3,10.69,10.69,0,0,1-.64-3.71v-.12a10.44,10.44,0,0,1,.64-3.64,9.31,9.31,0,0,1,1.76-3,8.51,8.51,0,0,1,2.66-2,7.65,7.65,0,0,1,3.34-.74,8.4,8.4,0,0,1,4.29,1,16.35,16.35,0,0,1,3.41,2.73l.51.52,5.42-5.84-.43-.47a18.36,18.36,0,0,0-5.37-4.1,17.71,17.71,0,0,0-20,3.51,17,17,0,0,0-3.58,5.49,17.51,17.51,0,0,0-1.29,6.63V257a17.37,17.37,0,0,0,1.29,6.6,16.73,16.73,0,0,0,3.58,5.43,17.25,17.25,0,0,0,5.42,3.64A17.07,17.07,0,0,0,269,274a16.47,16.47,0,0,0,7.93-1.73,20.67,20.67,0,0,0,5.5-4.43l.45-.49-5.34-5.25Z"/><path class="cls-4" d="M315.59,244.69A16.92,16.92,0,0,0,310,241a18,18,0,0,0-7-1.34,17.75,17.75,0,0,0-7,1.37,17.21,17.21,0,0,0-9.22,9.15,16.81,16.81,0,0,0-1.34,6.67V257a17.08,17.08,0,0,0,1.3,6.6,16.52,16.52,0,0,0,3.66,5.43,17.41,17.41,0,0,0,5.54,3.65,18.64,18.64,0,0,0,14,0,17,17,0,0,0,9.25-9.15,16.48,16.48,0,0,0,1.34-6.61v-.12a16.79,16.79,0,0,0-5-12.05ZM303,266.35a8.38,8.38,0,0,1-3.54-.75,8.92,8.92,0,0,1-2.81-2.05,9.9,9.9,0,0,1-1.85-3,10.08,10.08,0,0,1-.67-3.66v-.12a11,11,0,0,1,.61-3.65,8.48,8.48,0,0,1,1.76-3,8.71,8.71,0,0,1,2.78-2,9.12,9.12,0,0,1,7.21,0,8.81,8.81,0,0,1,2.82,2,9.23,9.23,0,0,1,1.85,3,10.33,10.33,0,0,1,.67,3.7V257a10.68,10.68,0,0,1-.61,3.62,9.06,9.06,0,0,1-1.76,3,8.45,8.45,0,0,1-6.45,2.77Z"/><path class="cls-4" d="M371.51,243a11.34,11.34,0,0,0-8.66-3.36,12.73,12.73,0,0,0-6.55,1.64,16.23,16.23,0,0,0-4.07,3.44,10.67,10.67,0,0,0-3.34-3.42,10.94,10.94,0,0,0-6.12-1.65,11.57,11.57,0,0,0-3.45.49,10.39,10.39,0,0,0-2.8,1.33,12.51,12.51,0,0,0-2.18,1.85c-.17.17-.32.35-.47.53v-3.53h-8.68v33h8.68V254.87a7.8,7.8,0,0,1,1.67-5.33,5.5,5.5,0,0,1,4.36-1.85,5.13,5.13,0,0,1,4.17,1.72,7.88,7.88,0,0,1,1.51,5.22v18.65h8.68V254.82a7.56,7.56,0,0,1,1.69-5.34,5.62,5.62,0,0,1,4.35-1.78,5.13,5.13,0,0,1,4.17,1.72A8.05,8.05,0,0,1,366,254.7v18.59h8.67V252.44C374.63,248.41,373.59,245.25,371.51,243Z"/><rect class="cls-2" x="97.98" y="240.33" width="8.69" height="32.96"/><path class="cls-2" d="M107.13,232.62a4.81,4.81,0,1,0-4.81,4.81A4.81,4.81,0,0,0,107.13,232.62Z"/><path class="cls-4" d="M247.76,269.21A4.81,4.81,0,1,0,243,274,4.81,4.81,0,0,0,247.76,269.21Z"/><path class="cls-2" d="M90.77,253.17a12.39,12.39,0,0,0-2.89-2.29,22.61,22.61,0,0,0-2.24-1.1l-.49-.2.44-.29c.37-.24.75-.51,1.12-.79a10.4,10.4,0,0,0,2.12-2.17,10.78,10.78,0,0,0,1.46-2.85,11.48,11.48,0,0,0,.56-3.75v-.12a10.51,10.51,0,0,0-3.13-7.71c-2.69-2.71-6.71-4.09-11.94-4.09H55.37v45.48H76.42a27,27,0,0,0,6.85-.81,16.38,16.38,0,0,0,5.37-2.39,11.18,11.18,0,0,0,3.48-4,12.05,12.05,0,0,0,1.23-5.5v-.12a11.91,11.91,0,0,0-.67-4.16A9.3,9.3,0,0,0,90.77,253.17Zm-26.72-6.86V235.67H74.83a9.16,9.16,0,0,1,5.52,1.4,4.43,4.43,0,0,1,1.81,3.8V241a4.58,4.58,0,0,1-2.07,4.17,10.49,10.49,0,0,1-5.85,1.42H64.05Zm20.61,13.47a4.68,4.68,0,0,1-2.09,4.2,10.81,10.81,0,0,1-6,1.45H64.05V254.13H76c3,0,5.2.5,6.62,1.49a4.59,4.59,0,0,1,2.07,4Z"/><path class="cls-2" d="M199.52,239.73a10.83,10.83,0,0,0-7.39,2.13,13.54,13.54,0,0,0-3.13,3.46v-5h-8.68v33H189V260.58a16.83,16.83,0,0,1,.74-5.26,10,10,0,0,1,2.06-3.66A8.53,8.53,0,0,1,195,249.5a11.15,11.15,0,0,1,4.11-.73h1.07v-9Z"/><path class="cls-5" d="M72.74,53.79a2.47,2.47,0,0,1,2.41,3l-.88,4.31a6.41,6.41,0,0,0,6.28,7.7h.16A6.41,6.41,0,0,0,87,61.06l-.88-4.31a2.47,2.47,0,0,1,2.41-3h19v-19a2.47,2.47,0,0,0-3-2.42l-4.31.88A6.41,6.41,0,0,1,92.54,27v-.16a6.41,6.41,0,0,1,7.7-6.28l4.31.88a2.47,2.47,0,0,0,3-2.42V0H53.75V19a2.47,2.47,0,0,0,3,2.42L61,20.55a6.41,6.41,0,0,1,7.7,6.28V27A6.41,6.41,0,0,1,61,33.28l-4.31-.88a2.47,2.47,0,0,0-3,2.42v19Z"/><path class="cls-5" d="M142.27,268.21a2.47,2.47,0,0,1-2.41-3l.88-4.31a6.41,6.41,0,0,0-6.28-7.7h-.16a6.41,6.41,0,0,0-6.28,7.7l.88,4.31a2.47,2.47,0,0,1-2.41,3h-19v19a2.47,2.47,0,0,0,3,2.42l4.31-.88a6.41,6.41,0,0,1,7.7,6.28v.16a6.41,6.41,0,0,1-7.7,6.28l-4.31-.88a2.47,2.47,0,0,0-3,2.42v19h53.75V303a2.47,2.47,0,0,0-3-2.42l-4.31.88a6.41,6.41,0,0,1-7.7-6.28V295a6.41,6.41,0,0,1,7.7-6.28l4.31.88a2.47,2.47,0,0,0,3-2.42v-19Z"/><path class="cls-5" d="M303.52,268.21a2.47,2.47,0,0,1-2.41-3l.88-4.31a6.41,6.41,0,0,0-6.28-7.7h-.16a6.41,6.41,0,0,0-6.28,7.7l.88,4.31a2.47,2.47,0,0,1-2.41,3h-19v19a2.47,2.47,0,0,0,3,2.42l4.31-.88a6.41,6.41,0,0,1,7.7,6.28v.16a6.41,6.41,0,0,1-7.7,6.28l-4.31-.88a2.47,2.47,0,0,0-3,2.42v19h53.75V303a2.47,2.47,0,0,0-3-2.42l-4.31.88a6.41,6.41,0,0,1-7.7-6.28V295a6.41,6.41,0,0,1,7.7-6.28l4.31.88a2.47,2.47,0,0,0,3-2.42v-19Z"/><path class="cls-5" d="M53.75,195.56a2.47,2.47,0,0,1,3-2.41L61,194a6.41,6.41,0,0,0,7.7-6.28v-.16a6.41,6.41,0,0,0-7.7-6.28l-4.31.88a2.47,2.47,0,0,1-3-2.41v-19h-19a2.47,2.47,0,0,0-2.42,3l.88,4.31a6.41,6.41,0,0,1-6.28,7.7H26.8a6.41,6.41,0,0,1-6.28-7.7l.88-4.31a2.47,2.47,0,0,0-2.42-3H0v53.75H19a2.47,2.47,0,0,0,2.42-3l-.88-4.31a6.41,6.41,0,0,1,6.28-7.7H27a6.41,6.41,0,0,1,6.28,7.7l-.88,4.31a2.47,2.47,0,0,0,2.42,3h19Z"/><path class="cls-5" d="M168.52,20.55l-4.31.88a2.47,2.47,0,0,1-3-2.42V0H107.5V19a2.47,2.47,0,0,1-3,2.42l-4.31-.88a6.41,6.41,0,0,0-7.7,6.28V27a6.41,6.41,0,0,0,7.7,6.28l4.31-.88a2.47,2.47,0,0,1,3,2.42v19h19a2.47,2.47,0,0,0,2.42-3L128,46.52a6.41,6.41,0,0,1,6.28-7.7h.16a6.41,6.41,0,0,1,6.28,7.7l-.88,4.31a2.47,2.47,0,0,0,2.42,3h19v-19a2.47,2.47,0,0,1,3-2.42l4.31.88a6.41,6.41,0,0,0,7.7-6.28v-.16A6.41,6.41,0,0,0,168.52,20.55Z"/><path class="cls-5" d="M409.48,275.54l-.88-4.31a2.47,2.47,0,0,1,2.42-3h19V214.52H411a2.47,2.47,0,0,1-2.42-3l.88-4.31a6.41,6.41,0,0,0-6.28-7.7H403a6.41,6.41,0,0,0-6.28,7.7l.88,4.31a2.47,2.47,0,0,1-2.42,3h-19v19a2.47,2.47,0,0,0,3,2.42l4.31-.88a6.41,6.41,0,0,1,7.7,6.28v.16a6.41,6.41,0,0,1-7.7,6.28l-4.31-.88a2.47,2.47,0,0,0-3,2.42v19h19a2.47,2.47,0,0,1,2.42,3l-.88,4.31a6.41,6.41,0,0,0,6.28,7.7h.16A6.41,6.41,0,0,0,409.48,275.54Z"/><path class="cls-5" d="M315.23,301.45l4.31-.88a2.47,2.47,0,0,1,3,2.42v19h53.75V303a2.47,2.47,0,0,1,3-2.42l4.31.88a6.41,6.41,0,0,0,7.7-6.28V295a6.41,6.41,0,0,0-7.7-6.28l-4.31.88a2.47,2.47,0,0,1-3-2.42v-19h-19a2.47,2.47,0,0,0-2.42,3l.88,4.31a6.41,6.41,0,0,1-6.28,7.7h-.16a6.41,6.41,0,0,1-6.28-7.7l.88-4.31a2.47,2.47,0,0,0-2.42-3h-19v19a2.47,2.47,0,0,1-3,2.42l-4.31-.88a6.41,6.41,0,0,0-7.7,6.28v.16A6.41,6.41,0,0,0,315.23,301.45Z"/><path class="cls-5" d="M20.52,99.78l.88,4.31A2.47,2.47,0,0,1,19,107H0V160.8H19a2.47,2.47,0,0,1,2.42,3l-.88,4.31a6.41,6.41,0,0,0,6.28,7.7H27a6.41,6.41,0,0,0,6.28-7.7l-.88-4.31a2.47,2.47,0,0,1,2.42-3h19v-19a2.47,2.47,0,0,0-3-2.42l-4.31.88a6.41,6.41,0,0,1-7.7-6.28v-.16a6.41,6.41,0,0,1,7.7-6.28l4.31.88a2.47,2.47,0,0,0,3-2.42V107h-19a2.47,2.47,0,0,1-2.42-3l.88-4.31A6.41,6.41,0,0,0,27,92.08H26.8A6.41,6.41,0,0,0,20.52,99.78Z"/><path class="cls-5" d="M315.23,181.31l4.31.88a2.47,2.47,0,0,0,3-2.42v-19h-19a2.47,2.47,0,0,1-2.41-3l.88-4.31a6.41,6.41,0,0,0-6.28-7.7h-.16a6.41,6.41,0,0,0-6.28,7.7l.88,4.31a2.47,2.47,0,0,1-2.41,3h-19v19a2.47,2.47,0,0,1-3,2.42l-4.31-.88a6.41,6.41,0,0,0-7.7,6.28v.16a6.41,6.41,0,0,0,7.7,6.28l4.31-.88a2.47,2.47,0,0,1,3,2.42v19h19a2.47,2.47,0,0,1,2.42,3l-.88,4.31a6.41,6.41,0,0,0,6.28,7.7h.16a6.41,6.41,0,0,0,6.28-7.7l-.88-4.31a2.47,2.47,0,0,1,2.42-3h19v-19a2.47,2.47,0,0,0-3-2.42l-4.31.88a6.41,6.41,0,0,1-7.7-6.28v-.16A6.41,6.41,0,0,1,315.23,181.31Z"/><path class="cls-5" d="M222.26,247.75l-4.31-.88a2.47,2.47,0,0,0-3,2.42v19h19a2.47,2.47,0,0,1,2.41,3l-.88,4.31a6.41,6.41,0,0,0,6.28,7.7H242a6.41,6.41,0,0,0,6.28-7.7l-.88-4.31a2.47,2.47,0,0,1,2.41-3h19v-19a2.47,2.47,0,0,1,3-2.42l4.31.88a6.41,6.41,0,0,0,7.7-6.28v-.16A6.41,6.41,0,0,0,276,235l-4.31.88a2.47,2.47,0,0,1-3-2.42v-19h-19a2.47,2.47,0,0,1-2.42-3l.88-4.31a6.41,6.41,0,0,0-6.28-7.7h-.16a6.41,6.41,0,0,0-6.28,7.7l.88,4.31a2.47,2.47,0,0,1-2.42,3H215v19a2.47,2.47,0,0,0,3,2.42l4.31-.88a6.41,6.41,0,0,1,7.7,6.28v.16A6.41,6.41,0,0,1,222.26,247.75Z"/><path class="cls-5" d="M140.74,261l-.88,4.31a2.47,2.47,0,0,0,2.42,3h19v-19a2.47,2.47,0,0,1,3-2.41l4.31.88a6.41,6.41,0,0,0,7.7-6.28v-.16a6.41,6.41,0,0,0-7.7-6.28l-4.31.88a2.47,2.47,0,0,1-3-2.41v-19h-19a2.47,2.47,0,0,1-2.42-3l.88-4.31a6.41,6.41,0,0,0-6.28-7.7h-.16a6.41,6.41,0,0,0-6.28,7.7l.88,4.31a2.47,2.47,0,0,1-2.42,3h-19v19a2.47,2.47,0,0,1-3,2.42l-4.31-.88a6.41,6.41,0,0,0-7.7,6.28v.16a6.41,6.41,0,0,0,7.7,6.28l4.31-.88a2.47,2.47,0,0,1,3,2.42v19h19a2.47,2.47,0,0,0,2.42-3L128,261a6.41,6.41,0,0,1,6.28-7.7h.16A6.41,6.41,0,0,1,140.74,261Z"/><path class="cls-5" d="M61,20.55l-4.31.88a2.47,2.47,0,0,1-3-2.42V0H0V53.79H19a2.47,2.47,0,0,0,2.42-3l-.88-4.31a6.41,6.41,0,0,1,6.28-7.7H27a6.41,6.41,0,0,1,6.28,7.7l-.88,4.31a2.47,2.47,0,0,0,2.42,3h19v-19a2.47,2.47,0,0,1,3-2.42l4.31.88A6.41,6.41,0,0,0,68.72,27v-.16A6.41,6.41,0,0,0,61,20.55Z"/><path class="cls-5" d="M276,301.45l-4.31-.88a2.47,2.47,0,0,0-3,2.42v19H215V303a2.47,2.47,0,0,1,3-2.42l4.31.88a6.41,6.41,0,0,0,7.7-6.28V295a6.41,6.41,0,0,0-7.7-6.28l-4.31.88a2.47,2.47,0,0,1-3-2.42v-19h19a2.47,2.47,0,0,1,2.42,3l-.88,4.31a6.41,6.41,0,0,0,6.28,7.7H242a6.41,6.41,0,0,0,6.28-7.7l-.88-4.31a2.47,2.47,0,0,1,2.42-3h19v19a2.47,2.47,0,0,0,3,2.42l4.31-.88a6.41,6.41,0,0,1,7.7,6.28v.16A6.41,6.41,0,0,1,276,301.45Z"/><path class="cls-5" d="M430,268.21H411a2.47,2.47,0,0,0-2.42,3l.88,4.31a6.41,6.41,0,0,1-6.28,7.7H403a6.41,6.41,0,0,1-6.28-7.7l.88-4.31a2.47,2.47,0,0,0-2.42-3h-19v19a2.47,2.47,0,0,0,3,2.42l4.31-.88a6.41,6.41,0,0,1,7.7,6.28v.16a6.41,6.41,0,0,1-7.7,6.28l-4.31-.88a2.47,2.47,0,0,0-3,2.42v19H430Z"/><path class="cls-5" d="M53.75,322V303a2.47,2.47,0,0,0-3-2.42l-4.31.88a6.41,6.41,0,0,1-7.7-6.28V295a6.41,6.41,0,0,1,7.7-6.28l4.31.88a2.47,2.47,0,0,0,3-2.42v-19h-19a2.47,2.47,0,0,0-2.42,3l.88,4.31a6.41,6.41,0,0,1-6.28,7.7H26.8a6.41,6.41,0,0,1-6.28-7.7l.88-4.31a2.47,2.47,0,0,0-2.42-3H0V322Z"/><path class="cls-5" d="M329.77,20.55l-4.31.88a2.47,2.47,0,0,1-3-2.42V0H268.75V19a2.47,2.47,0,0,1-3,2.42l-4.31-.88a6.41,6.41,0,0,0-7.7,6.28V27a6.41,6.41,0,0,0,7.7,6.28l4.31-.88a2.47,2.47,0,0,1,3,2.42v19h19a2.47,2.47,0,0,1,2.42,3l-.88,4.31a6.41,6.41,0,0,0,6.28,7.7h.16a6.41,6.41,0,0,0,6.28-7.7l-.88-4.31a2.47,2.47,0,0,1,2.42-3h19v-19a2.47,2.47,0,0,1,3-2.42l4.31.88a6.41,6.41,0,0,0,7.7-6.28v-.16A6.41,6.41,0,0,0,329.77,20.55Z"/><path class="cls-5" d="M46.48,301.45l4.31-.88a2.47,2.47,0,0,1,3,2.42v19H107.5V303a2.47,2.47,0,0,1,3-2.42l4.31.88a6.41,6.41,0,0,0,7.7-6.28V295a6.41,6.41,0,0,0-7.7-6.28l-4.31.88a2.47,2.47,0,0,1-3-2.42v-19h-19a2.47,2.47,0,0,1-2.42-3l.88-4.31a6.41,6.41,0,0,0-6.28-7.7h-.16a6.41,6.41,0,0,0-6.28,7.7l.88,4.31a2.47,2.47,0,0,1-2.42,3h-19v19a2.47,2.47,0,0,1-3,2.42l-4.31-.88a6.41,6.41,0,0,0-7.7,6.28v.16A6.41,6.41,0,0,0,46.48,301.45Z"/><path class="cls-5" d="M154,301.45l4.31-.88a2.47,2.47,0,0,1,3,2.42v19H215V303a2.47,2.47,0,0,1,3-2.42l4.31.88a6.41,6.41,0,0,0,7.7-6.28V295a6.41,6.41,0,0,0-7.7-6.28l-4.31.88a2.47,2.47,0,0,1-3-2.42v-19H196a2.47,2.47,0,0,1-2.42-3l.88-4.31a6.41,6.41,0,0,0-6.28-7.7H188a6.41,6.41,0,0,0-6.28,7.7l.88,4.31a2.47,2.47,0,0,1-2.42,3h-19v19a2.47,2.47,0,0,1-3,2.42l-4.31-.88a6.41,6.41,0,0,0-7.7,6.28v.16A6.41,6.41,0,0,0,154,301.45Z"/><path class="cls-5" d="M20.52,207.25l.88,4.31a2.47,2.47,0,0,1-2.42,3H0v53.75H19a2.47,2.47,0,0,1,2.42,3l-.88,4.31a6.41,6.41,0,0,0,6.28,7.7H27a6.41,6.41,0,0,0,6.28-7.7l-.88-4.31a2.47,2.47,0,0,1,2.42-3h19v-19a2.47,2.47,0,0,1,3-2.42l4.31.88a6.41,6.41,0,0,0,7.7-6.28v-.16A6.41,6.41,0,0,0,61,235l-4.31.88a2.47,2.47,0,0,1-3-2.42v-19h-19a2.47,2.47,0,0,1-2.42-3l.88-4.31a6.41,6.41,0,0,0-6.28-7.7H26.8A6.41,6.41,0,0,0,20.52,207.25Z"/><path class="cls-5" d="M161.25,0V19a2.47,2.47,0,0,0,3,2.42l4.31-.88a6.41,6.41,0,0,1,7.7,6.28V27a6.41,6.41,0,0,1-7.7,6.28l-4.31-.88a2.47,2.47,0,0,0-3,2.42v19h19a2.47,2.47,0,0,0,2.42-3l-.88-4.31a6.41,6.41,0,0,1,6.28-7.7h.16a6.41,6.41,0,0,1,6.28,7.7l-.88,4.31a2.47,2.47,0,0,0,2.42,3h19v-19a2.47,2.47,0,0,0-3-2.42l-4.31.88A6.41,6.41,0,0,1,200,27v-.16a6.41,6.41,0,0,1,7.7-6.28l4.31.88A2.47,2.47,0,0,0,215,19V0Z"/><path class="cls-5" d="M61,73.93l-4.31.88a2.47,2.47,0,0,1-3-2.42v-19h-19a2.47,2.47,0,0,1-2.42-3l.88-4.31A6.41,6.41,0,0,0,27,38.45H26.8a6.41,6.41,0,0,0-6.28,7.7l.88,4.31a2.47,2.47,0,0,1-2.42,3H0v53.75H19a2.47,2.47,0,0,0,2.42-3l-.88-4.31a6.41,6.41,0,0,1,6.28-7.7H27a6.41,6.41,0,0,1,6.28,7.7l-.88,4.31a2.47,2.47,0,0,0,2.42,3h19v-19a2.47,2.47,0,0,1,3-2.42l4.31.88a6.41,6.41,0,0,0,7.7-6.28v-.16A6.41,6.41,0,0,0,61,73.93Z"/><path class="cls-5" d="M235.51,61.06l.88-4.31a2.47,2.47,0,0,0-2.42-3H215v-19a2.47,2.47,0,0,0-3-2.42l-4.31.88A6.41,6.41,0,0,1,200,27v-.16a6.41,6.41,0,0,1,7.7-6.28l4.31.88A2.47,2.47,0,0,0,215,19V0h53.75V19a2.47,2.47,0,0,1-3,2.42l-4.31-.88a6.41,6.41,0,0,0-7.7,6.28V27a6.41,6.41,0,0,0,7.7,6.28l4.31-.88a2.47,2.47,0,0,1,3,2.42v19h-19a2.47,2.47,0,0,0-2.42,3l.88,4.31a6.41,6.41,0,0,1-6.28,7.7h-.16A6.41,6.41,0,0,1,235.51,61.06Z"/><path class="cls-5" d="M369,181.33l4.31.88a2.47,2.47,0,0,0,3-2.42v-19h19a2.47,2.47,0,0,0,2.42-3l-.88-4.31a6.41,6.41,0,0,1,6.28-7.7h.16a6.41,6.41,0,0,1,6.28,7.7l-.88,4.31a2.47,2.47,0,0,0,2.42,3h19v53.75H411a2.47,2.47,0,0,1-2.42-3l.88-4.31a6.41,6.41,0,0,0-6.28-7.7H403a6.41,6.41,0,0,0-6.28,7.7l.88,4.31a2.47,2.47,0,0,1-2.42,3h-19v-19a2.47,2.47,0,0,0-3-2.42L369,194a6.41,6.41,0,0,1-7.7-6.28v-.16A6.41,6.41,0,0,1,369,181.33Z"/><path class="cls-5" d="M168.52,73.93l-4.31.88a2.47,2.47,0,0,1-3-2.42v-19h-19a2.47,2.47,0,0,1-2.42-3l.88-4.31a6.41,6.41,0,0,0-6.28-7.7h-.16a6.41,6.41,0,0,0-6.28,7.7l.88,4.31a2.47,2.47,0,0,1-2.42,3h-19v19a2.47,2.47,0,0,1-3,2.42l-4.31-.88a6.41,6.41,0,0,0-7.7,6.28v.16a6.41,6.41,0,0,0,7.7,6.28l4.31-.88a2.47,2.47,0,0,1,3,2.42v19h19a2.47,2.47,0,0,1,2.42,3l-.88,4.31a6.41,6.41,0,0,0,6.28,7.7h.16a6.41,6.41,0,0,0,6.28-7.7l-.88-4.31a2.47,2.47,0,0,1,2.42-3h19v-19a2.47,2.47,0,0,1,3-2.42l4.31.88a6.41,6.41,0,0,0,7.7-6.28v-.16A6.41,6.41,0,0,0,168.52,73.93Z"/><path class="cls-5" d="M222.27,127.56l-4.31.88a2.47,2.47,0,0,1-3-2.42V107H196a2.47,2.47,0,0,1-2.42-3l.88-4.31a6.41,6.41,0,0,0-6.28-7.7H188a6.41,6.41,0,0,0-6.28,7.7l.88,4.31a2.47,2.47,0,0,1-2.42,3h-19v19a2.47,2.47,0,0,1-3,2.42l-4.31-.88a6.41,6.41,0,0,0-7.7,6.28V134a6.41,6.41,0,0,0,7.7,6.28l4.31-.88a2.47,2.47,0,0,1,3,2.42v19h19a2.47,2.47,0,0,1,2.42,3l-.88,4.31a6.41,6.41,0,0,0,6.28,7.7h.16a6.41,6.41,0,0,0,6.28-7.7l-.88-4.31a2.47,2.47,0,0,1,2.42-3h19v-19a2.47,2.47,0,0,1,3-2.42l4.31.88A6.41,6.41,0,0,0,230,134v-.16A6.41,6.41,0,0,0,222.27,127.56Z"/><path class="cls-5" d="M383.52,235l-4.31.88a2.47,2.47,0,0,1-3-2.42v-19h-19a2.47,2.47,0,0,1-2.42-3l.88-4.31a6.41,6.41,0,0,0-6.28-7.7h-.16a6.41,6.41,0,0,0-6.28,7.7l.88,4.31a2.47,2.47,0,0,1-2.42,3h-19v19a2.47,2.47,0,0,1-3,2.42l-4.31-.88a6.41,6.41,0,0,0-7.7,6.28v.16a6.41,6.41,0,0,0,7.7,6.28l4.31-.88a2.47,2.47,0,0,1,3,2.42v19h19a2.47,2.47,0,0,1,2.42,3l-.88,4.31a6.41,6.41,0,0,0,6.28,7.7h.16a6.41,6.41,0,0,0,6.28-7.7l-.88-4.31a2.47,2.47,0,0,1,2.42-3h19v-19a2.47,2.47,0,0,1,3-2.42l4.31.88a6.41,6.41,0,0,0,7.7-6.28v-.16A6.41,6.41,0,0,0,383.52,235Z"/><path class="cls-5" d="M276,127.56l-4.31.88a2.47,2.47,0,0,1-3-2.42V107h-19a2.47,2.47,0,0,1-2.42-3l.88-4.31a6.41,6.41,0,0,0-6.28-7.7h-.16a6.41,6.41,0,0,0-6.28,7.7l.88,4.31a2.47,2.47,0,0,1-2.42,3H215v19a2.47,2.47,0,0,0,3,2.42l4.31-.88a6.41,6.41,0,0,1,7.7,6.28V134a6.41,6.41,0,0,1-7.7,6.28L218,139.4a2.47,2.47,0,0,0-3,2.42v19h19a2.47,2.47,0,0,0,2.42-3l-.88-4.31a6.41,6.41,0,0,1,6.28-7.7H242a6.41,6.41,0,0,1,6.28,7.7l-.88,4.31a2.47,2.47,0,0,0,2.42,3h19v-19a2.47,2.47,0,0,1,3-2.42l4.31.88a6.41,6.41,0,0,0,7.7-6.28v-.16A6.41,6.41,0,0,0,276,127.56Z"/><path class="cls-5" d="M329.76,127.56l-4.31.88a2.47,2.47,0,0,1-3-2.42V107h-19a2.47,2.47,0,0,1-2.42-3l.88-4.31a6.41,6.41,0,0,0-6.28-7.7h-.16a6.41,6.41,0,0,0-6.28,7.7l.88,4.31a2.47,2.47,0,0,1-2.42,3h-19v19a2.47,2.47,0,0,0,3,2.42l4.31-.88a6.41,6.41,0,0,1,7.7,6.28V134a6.41,6.41,0,0,1-7.7,6.28l-4.31-.88a2.47,2.47,0,0,0-3,2.42v19h19a2.47,2.47,0,0,0,2.42-3l-.88-4.31a6.41,6.41,0,0,1,6.28-7.7h.16a6.41,6.41,0,0,1,6.28,7.7l-.88,4.31a2.47,2.47,0,0,0,2.42,3h19v-19a2.47,2.47,0,0,1,3-2.42l4.31.88a6.41,6.41,0,0,0,7.7-6.28v-.16A6.41,6.41,0,0,0,329.76,127.56Z"/><path class="cls-5" d="M222.27,235l-4.31.88a2.47,2.47,0,0,1-3-2.42v-19H196a2.47,2.47,0,0,1-2.42-3l.88-4.31a6.41,6.41,0,0,0-6.28-7.7H188a6.41,6.41,0,0,0-6.28,7.7l.88,4.31a2.47,2.47,0,0,1-2.42,3h-19v19a2.47,2.47,0,0,0,3,2.42l4.31-.88a6.41,6.41,0,0,1,7.7,6.28v.16a6.41,6.41,0,0,1-7.7,6.28l-4.31-.88a2.47,2.47,0,0,0-3,2.42v19h19a2.47,2.47,0,0,0,2.42-3l-.88-4.31a6.41,6.41,0,0,1,6.28-7.7h.16a6.41,6.41,0,0,1,6.28,7.7l-.88,4.31a2.47,2.47,0,0,0,2.42,3h19v-19a2.47,2.47,0,0,1,3-2.42l4.31.88a6.41,6.41,0,0,0,7.7-6.28v-.16A6.41,6.41,0,0,0,222.27,235Z"/><path class="cls-5" d="M343,153.54l.88,4.31a2.47,2.47,0,0,1-2.42,3h-19v19a2.47,2.47,0,0,1-3,2.42l-4.31-.88a6.41,6.41,0,0,0-7.7,6.28v.16a6.41,6.41,0,0,0,7.7,6.28l4.31-.88a2.47,2.47,0,0,1,3,2.42v19h19a2.47,2.47,0,0,0,2.42-3L343,207.3a6.41,6.41,0,0,1,6.28-7.7h.16a6.41,6.41,0,0,1,6.28,7.7l-.88,4.31a2.47,2.47,0,0,0,2.42,3h19v-19a2.47,2.47,0,0,0-3-2.42L369,194a6.41,6.41,0,0,1-7.7-6.28v-.16a6.41,6.41,0,0,1,7.7-6.28l4.31.88a2.47,2.47,0,0,0,3-2.42v-19h-19a2.47,2.47,0,0,1-2.42-3l.88-4.31a6.41,6.41,0,0,0-6.28-7.7h-.16A6.41,6.41,0,0,0,343,153.54Z"/><path class="cls-5" d="M74.27,99.78l.88,4.31a2.47,2.47,0,0,1-2.42,3h-19v19a2.47,2.47,0,0,1-3,2.42l-4.31-.88a6.41,6.41,0,0,0-7.7,6.28V134a6.41,6.41,0,0,0,7.7,6.28l4.31-.88a2.47,2.47,0,0,1,3,2.42v19h19a2.47,2.47,0,0,0,2.42-3l-.88-4.31a6.41,6.41,0,0,1,6.28-7.7h.16a6.41,6.41,0,0,1,6.28,7.7l-.88,4.31a2.47,2.47,0,0,0,2.42,3h19v-19a2.47,2.47,0,0,0-3-2.42l-4.31.88a6.41,6.41,0,0,1-7.7-6.28v-.16a6.41,6.41,0,0,1,7.7-6.28l4.31.88a2.47,2.47,0,0,0,3-2.42V107h-19a2.47,2.47,0,0,1-2.42-3L87,99.78a6.41,6.41,0,0,0-6.28-7.7h-.16A6.41,6.41,0,0,0,74.27,99.78Z"/><path class="cls-5" d="M114.77,181.31l-4.31.88a2.47,2.47,0,0,1-3-2.42v-19h-19a2.47,2.47,0,0,1-2.42-3l.88-4.31a6.41,6.41,0,0,0-6.28-7.7h-.16a6.41,6.41,0,0,0-6.28,7.7l.88,4.31a2.47,2.47,0,0,1-2.42,3h-19v19a2.47,2.47,0,0,0,3,2.42l4.31-.88a6.41,6.41,0,0,1,7.7,6.28v.16A6.41,6.41,0,0,1,61,194l-4.31-.88a2.47,2.47,0,0,0-3,2.42v19h19a2.47,2.47,0,0,0,2.42-3l-.88-4.31a6.41,6.41,0,0,1,6.28-7.7h.16a6.41,6.41,0,0,1,6.28,7.7l-.88,4.31a2.47,2.47,0,0,0,2.42,3h19v-19a2.47,2.47,0,0,1,3-2.42l4.31.88a6.41,6.41,0,0,0,7.7-6.28v-.16A6.41,6.41,0,0,0,114.77,181.31Z"/><path class="cls-5" d="M100.23,140.4l4.31-.88a2.47,2.47,0,0,1,3,2.42v19h19a2.47,2.47,0,0,1,2.42,3l-.88,4.31a6.41,6.41,0,0,0,6.28,7.7h.16a6.41,6.41,0,0,0,6.28-7.7l-.88-4.31a2.47,2.47,0,0,1,2.42-3h19v-19a2.47,2.47,0,0,0-3-2.42l-4.31.88a6.41,6.41,0,0,1-7.7-6.28V134a6.41,6.41,0,0,1,7.7-6.28l4.31.88a2.47,2.47,0,0,0,3-2.42v-19h-19a2.47,2.47,0,0,0-2.42,3l.88,4.31a6.41,6.41,0,0,1-6.28,7.7h-.16a6.41,6.41,0,0,1-6.28-7.7l.88-4.31a2.47,2.47,0,0,0-2.42-3h-19v19a2.47,2.47,0,0,1-3,2.42l-4.31-.88a6.41,6.41,0,0,0-7.7,6.28v.16A6.41,6.41,0,0,0,100.23,140.4Z"/><path class="cls-5" d="M207.74,73.93l4.31.88a2.47,2.47,0,0,0,3-2.42v-19H196a2.47,2.47,0,0,1-2.42-3l.88-4.31a6.41,6.41,0,0,0-6.28-7.7H188a6.41,6.41,0,0,0-6.28,7.7l.88,4.31a2.47,2.47,0,0,1-2.42,3h-19v19a2.47,2.47,0,0,0,3,2.42l4.31-.88a6.41,6.41,0,0,1,7.7,6.28v.16a6.41,6.41,0,0,1-7.7,6.28l-4.31-.88a2.47,2.47,0,0,0-3,2.42v19h19a2.47,2.47,0,0,0,2.42-3l-.88-4.31A6.41,6.41,0,0,1,188,92.2h.16a6.41,6.41,0,0,1,6.28,7.7l-.88,4.31a2.47,2.47,0,0,0,2.42,3h19v-19a2.47,2.47,0,0,0-3-2.42l-4.31.88a6.41,6.41,0,0,1-7.7-6.28v-.16A6.41,6.41,0,0,1,207.74,73.93Z"/><path class="cls-5" d="M261.48,181.33l4.31.88a2.47,2.47,0,0,0,3-2.42v-19h-19a2.47,2.47,0,0,1-2.42-3l.88-4.31a6.41,6.41,0,0,0-6.28-7.7h-.16a6.41,6.41,0,0,0-6.28,7.7l.88,4.31a2.47,2.47,0,0,1-2.42,3H215v19a2.47,2.47,0,0,0,3,2.42l4.31-.88a6.41,6.41,0,0,1,7.7,6.28v.16a6.41,6.41,0,0,1-7.7,6.28l-4.31-.88a2.47,2.47,0,0,0-3,2.42v19h19a2.47,2.47,0,0,0,2.42-3l-.88-4.31a6.41,6.41,0,0,1,6.28-7.7H242a6.41,6.41,0,0,1,6.28,7.7l-.88,4.31a2.47,2.47,0,0,0,2.42,3h19v-19a2.47,2.47,0,0,0-3-2.42l-4.31.88a6.41,6.41,0,0,1-7.7-6.28v-.16A6.41,6.41,0,0,1,261.48,181.33Z"/><path class="cls-5" d="M100.23,235l4.31.88a2.47,2.47,0,0,0,3-2.42v-19h-19a2.47,2.47,0,0,1-2.42-3l.88-4.31a6.41,6.41,0,0,0-6.28-7.7h-.16a6.41,6.41,0,0,0-6.28,7.7l.88,4.31a2.47,2.47,0,0,1-2.42,3h-19v19a2.47,2.47,0,0,0,3,2.42L61,235a6.41,6.41,0,0,1,7.7,6.28v.16a6.41,6.41,0,0,1-7.7,6.28l-4.31-.88a2.47,2.47,0,0,0-3,2.42v19h19a2.47,2.47,0,0,0,2.42-3L74.26,261a6.41,6.41,0,0,1,6.28-7.7h.16A6.41,6.41,0,0,1,87,261l-.88,4.31a2.47,2.47,0,0,0,2.42,3h19v-19a2.47,2.47,0,0,0-3-2.42l-4.31.88a6.41,6.41,0,0,1-7.7-6.28v-.16A6.41,6.41,0,0,1,100.23,235Z"/><path class="cls-5" d="M369,127.56l4.31.88a2.47,2.47,0,0,0,3-2.42V107h-19a2.47,2.47,0,0,1-2.42-3l.88-4.31a6.41,6.41,0,0,0-6.28-7.7h-.16a6.41,6.41,0,0,0-6.28,7.7l.88,4.31a2.47,2.47,0,0,1-2.42,3h-19v19a2.47,2.47,0,0,0,3,2.42l4.31-.88a6.41,6.41,0,0,1,7.7,6.28V134a6.41,6.41,0,0,1-7.7,6.28l-4.31-.88a2.47,2.47,0,0,0-3,2.42v19h19a2.47,2.47,0,0,0,2.42-3l-.88-4.31a6.41,6.41,0,0,1,6.28-7.7h.16a6.41,6.41,0,0,1,6.28,7.7l-.88,4.31a2.47,2.47,0,0,0,2.42,3h19v-19a2.47,2.47,0,0,0-3-2.42l-4.31.88a6.41,6.41,0,0,1-7.7-6.28v-.16A6.41,6.41,0,0,1,369,127.56Z"/><path class="cls-5" d="M88.52,53.41a2.47,2.47,0,0,0-2.42,3L87,60.68a6.41,6.41,0,0,1-6.28,7.7h-.16a6.41,6.41,0,0,1-6.28-7.7l.88-4.31a2.47,2.47,0,0,0-2.42-3h-19v19a2.47,2.47,0,0,0,3,2.42L61,73.93a6.41,6.41,0,0,1,7.7,6.28v.16A6.41,6.41,0,0,1,61,86.65l-4.31-.88a2.47,2.47,0,0,0-3,2.42v19h19a2.47,2.47,0,0,0,2.42-3l-.88-4.31a6.41,6.41,0,0,1,6.28-7.7h.16A6.41,6.41,0,0,1,87,99.9l-.88,4.31a2.47,2.47,0,0,0,2.42,3h19v-19a2.47,2.47,0,0,0-3-2.42l-4.31.88a6.41,6.41,0,0,1-7.7-6.28v-.16a6.41,6.41,0,0,1,7.7-6.28l4.31.88a2.47,2.47,0,0,0,3-2.42v-19Z"/><path class="cls-5" d="M303.52,214.52a2.47,2.47,0,0,0-2.42,3l.88,4.31a6.41,6.41,0,0,1-6.28,7.7h-.16a6.41,6.41,0,0,1-6.28-7.7l.88-4.31a2.47,2.47,0,0,0-2.42-3h-19v19a2.47,2.47,0,0,0,3,2.42L276,235a6.41,6.41,0,0,1,7.7,6.28v.16a6.41,6.41,0,0,1-7.7,6.28l-4.31-.88a2.47,2.47,0,0,0-3,2.42v19h19a2.47,2.47,0,0,0,2.42-3l-.88-4.31a6.41,6.41,0,0,1,6.28-7.7h.16A6.41,6.41,0,0,1,302,261l-.88,4.31a2.47,2.47,0,0,0,2.42,3h19v-19a2.47,2.47,0,0,0-3-2.42l-4.31.88a6.41,6.41,0,0,1-7.7-6.28v-.16a6.41,6.41,0,0,1,7.7-6.28l4.31.88a2.47,2.47,0,0,0,3-2.42v-19Z"/><path class="cls-5" d="M142.27,160.81a2.47,2.47,0,0,0-2.42,3l.88,4.31a6.41,6.41,0,0,1-6.28,7.7h-.16a6.41,6.41,0,0,1-6.28-7.7l.88-4.31a2.47,2.47,0,0,0-2.42-3h-19v19a2.47,2.47,0,0,0,3,2.42l4.31-.88a6.41,6.41,0,0,1,7.7,6.28v.16a6.41,6.41,0,0,1-7.7,6.28l-4.31-.88a2.47,2.47,0,0,0-3,2.42v19h19a2.47,2.47,0,0,0,2.42-3L128,207.3a6.41,6.41,0,0,1,6.28-7.7h.16a6.41,6.41,0,0,1,6.28,7.7l-.88,4.31a2.47,2.47,0,0,0,2.42,3h19v-19a2.47,2.47,0,0,0-3-2.42L154,194a6.41,6.41,0,0,1-7.7-6.28v-.16a6.41,6.41,0,0,1,7.7-6.28l4.31.88a2.47,2.47,0,0,0,3-2.42v-19Z"/><path class="cls-5" d="M303.52,53.41a2.47,2.47,0,0,0-2.42,3l.88,4.31a6.41,6.41,0,0,1-6.28,7.7h-.16a6.41,6.41,0,0,1-6.28-7.7l.88-4.31a2.47,2.47,0,0,0-2.42-3h-19v19a2.47,2.47,0,0,0,3,2.42l4.31-.88a6.41,6.41,0,0,1,7.7,6.28v.16a6.41,6.41,0,0,1-7.7,6.28l-4.31-.88a2.47,2.47,0,0,0-3,2.42v19h19a2.47,2.47,0,0,0,2.42-3l-.88-4.31a6.41,6.41,0,0,1,6.28-7.7h.16A6.41,6.41,0,0,1,302,99.9l-.88,4.31a2.47,2.47,0,0,0,2.42,3h19v-19a2.47,2.47,0,0,0-3-2.42l-4.31.88a6.41,6.41,0,0,1-7.7-6.28v-.16a6.41,6.41,0,0,1,7.7-6.28l4.31.88a2.47,2.47,0,0,0,3-2.42v-19Z"/><path class="cls-5" d="M276,73.93l-4.31.88a2.47,2.47,0,0,1-3-2.41v-19h-19a2.47,2.47,0,0,0-2.42,3l.88,4.31a6.41,6.41,0,0,1-6.28,7.7h-.16a6.41,6.41,0,0,1-6.28-7.7l.88-4.31a2.47,2.47,0,0,0-2.42-3H215v19a2.47,2.47,0,0,1-3,2.42l-4.31-.88a6.41,6.41,0,0,0-7.7,6.28v.16a6.41,6.41,0,0,0,7.7,6.28l4.31-.88a2.47,2.47,0,0,1,3,2.42v19h19a2.47,2.47,0,0,0,2.42-3l-.88-4.31a6.41,6.41,0,0,1,6.28-7.7H242a6.41,6.41,0,0,1,6.28,7.7l-.88,4.31a2.47,2.47,0,0,0,2.42,3h19v-19a2.47,2.47,0,0,1,3-2.41l4.31.88a6.41,6.41,0,0,0,7.7-6.28v-.16A6.41,6.41,0,0,0,276,73.93Z"/><path class="cls-5" d="M222.27,181.33l-4.31.88a2.47,2.47,0,0,1-3-2.41v-19H196a2.47,2.47,0,0,0-2.42,3l.88,4.31a6.41,6.41,0,0,1-6.28,7.7H188a6.41,6.41,0,0,1-6.28-7.7l.88-4.31a2.47,2.47,0,0,0-2.42-3h-19v19a2.47,2.47,0,0,1-3,2.42l-4.31-.88a6.41,6.41,0,0,0-7.7,6.28v.16A6.41,6.41,0,0,0,154,194l4.31-.88a2.47,2.47,0,0,1,3,2.42v19h19a2.47,2.47,0,0,0,2.42-3l-.88-4.31a6.41,6.41,0,0,1,6.28-7.7h.16a6.41,6.41,0,0,1,6.28,7.7l-.88,4.31a2.47,2.47,0,0,0,2.42,3h19v-19a2.47,2.47,0,0,1,3-2.41l4.31.88a6.41,6.41,0,0,0,7.7-6.28v-.16A6.41,6.41,0,0,0,222.27,181.33Z"/></svg>