<svg id="Layer_1" data-name="Layer 1" xmlns="http://www.w3.org/2000/svg" viewBox="0 0 159.63 63.07"><defs><style>.cls-1{fill:#d1010e}.cls-2{fill:#818084}</style></defs><title>MGA_logo</title><path class="cls-1" d="M31.3 10.58v19.66L20.93 1.81C19.75-1.43 22.57.66 22.57.66l5.92 4.39a7.42 7.42 0 0 1 2.81 5.52m-10.37 48.1L31.3 30.24l-29.42 10C-1.47 41.38.69 38.66.69 38.66L5.24 33a7.92 7.92 0 0 1 5.71-2.72 7.92 7.92 0 0 1-5.71-2.72L.7 21.8s-2.16-2.72 1.19-1.58l29.42 10V49.9a7.41 7.41 0 0 1-2.81 5.52l-5.93 4.39s-2.81 2.09-1.63-1.14"/><path class="cls-2" d="M148.62 32.11v6.07a9.39 9.39 0 0 1-4.76 1.17c-2.49 0-4.07-1.1-4.07-3.38a3 3 0 0 1 1.45-2.83 8.19 8.19 0 0 1 3.87-.9zm2.45 14.57h8.56a24.46 24.46 0 0 1-.55-6.42V25.63c0-7.94-4.14-12.42-14.22-12.42a29.58 29.58 0 0 0-13.46 3.17l3.24 6.56a18.78 18.78 0 0 1 8.28-2c3.52 0 5.73 1.24 5.73 4.28v.34l-5.18.21a20.38 20.38 0 0 0-8.63 2 9.33 9.33 0 0 0-5.45 8.9c0 6.28 4.69 10.7 11.11 10.7a13.2 13.2 0 0 0 9.11-3.45zm-41-15.88c-3.11 0-4.62-2.48-4.62-5 0-3.45 2-5 4.49-5 3.17 0 4.76 2.62 4.76 5.11 0 3.24-2 4.9-4.62 4.9m.69 25.19c-5.18 0-8.14-1.86-8.14-4.55a4.08 4.08 0 0 1 1.38-3c3.31 1.73 13.74.76 13.74 4.62 0 2-3.31 3-7 3m-1.52 7c12.42 0 18.29-5.31 18.29-11.18 0-12.25-21.45-6.89-21.45-12.46a3.58 3.58 0 0 1 .28-1.45 14.6 14.6 0 0 0 3.73.41c8.35 0 14.22-4.76 14.22-12.29a12 12 0 0 0-2.35-7.25 6.86 6.86 0 0 1 1.93-.28 13.14 13.14 0 0 1 2.76.35l1.93-7.18c-.55-.07-1.66-.14-2.35-.14-4.69 0-6.83 1.17-8.7 2.9-.28.28-.48.41-.83.21a13.88 13.88 0 0 0-6.83-1.52c-10.08 0-14.15 6.56-14.15 12.29 0 4.28 1.93 8.28 5.73 10.28-2.62 1.45-4.35 3.73-4.35 6a4.49 4.49 0 0 0 2.14 4 8.13 8.13 0 0 0-5.8 7.52c0 5.45 5.52 9.73 15.81 9.73m-71-16.36h10.43V24.31a11.1 11.1 0 0 1 6.28-2.14c3.86 0 4.28 2.76 4.28 5.94v18.57h10.42V24.31a10.9 10.9 0 0 1 6.21-2.14c3.87 0 4.35 2.62 4.35 5.8v18.71h10.42v-21.4c0-9.11-5.56-12.08-11.56-12.08-3.38 0-7.52 1.45-11.46 4.62-1.73-2.9-4.76-4.62-8.9-4.62-3.93 0-7.66 1.86-10.7 4.14L47 14h-8.76z"/></svg>