<svg width="16" height="16" viewBox="0 0 16 16" fill="none" xmlns="http://www.w3.org/2000/svg">
<path d="M7.29289 0.292893C6.90237 0.683418 6.90237 1.31658 7.29289 1.70711L12.586 6.999L1 7C0.447716 7 0 7.44772 0 8C0 8.55229 0.447716 9 1 9L12.586 8.999L7.29289 14.2929C6.90237 14.6834 6.90237 15.3166 7.29289 15.7071C7.68342 16.0976 8.31658 16.0976 8.70711 15.7071L15.7071 8.70711L15.7803 8.62545C15.7826 8.62256 15.7849 8.61966 15.7872 8.61675L15.7071 8.70711C15.7425 8.67171 15.7747 8.63433 15.8037 8.59531C15.8215 8.57113 15.8383 8.54628 15.8539 8.52066C15.8614 8.50861 15.8685 8.49639 15.8753 8.48406C15.8862 8.46429 15.8966 8.44389 15.9063 8.4231C15.9143 8.4061 15.9218 8.3888 15.9288 8.37134C15.9367 8.35158 15.9439 8.3318 15.9505 8.31174C15.9553 8.29685 15.9599 8.28146 15.9642 8.26599C15.9702 8.24444 15.9754 8.22275 15.9798 8.20079C15.9833 8.18338 15.9864 8.16595 15.989 8.14847C15.9919 8.1295 15.9942 8.10985 15.996 8.09003C15.9981 8.06599 15.9994 8.04268 15.9998 8.01935C15.9999 8.01347 16 8.00674 16 8L15.9998 7.98065C15.9994 7.95732 15.9981 7.93401 15.996 7.91075L16 8C16 7.94938 15.9962 7.89964 15.989 7.85104C15.9864 7.83405 15.9833 7.81663 15.9798 7.79927C15.9754 7.77725 15.9702 7.75556 15.9643 7.73416C15.9599 7.71854 15.9553 7.70315 15.9503 7.68786C15.9439 7.6682 15.9367 7.64842 15.9289 7.62894C15.9218 7.6112 15.9143 7.5939 15.9063 7.57678C15.8966 7.55611 15.8862 7.53571 15.8751 7.51572C15.8685 7.50361 15.8614 7.49139 15.854 7.47929C15.8383 7.45373 15.8215 7.42887 15.8037 7.40484C15.7982 7.3974 15.7927 7.39016 15.7871 7.38298C15.7623 7.35153 15.7356 7.32136 15.7071 7.29289L8.70711 0.292893C8.31658 -0.0976311 7.68342 -0.0976311 7.29289 0.292893Z" fill="#FF444F"/>
</svg>
