<svg width="24" height="16" xmlns="http://www.w3.org/2000/svg"><g fill="none" fill-rule="evenodd"><rect fill="#ED3C3C" width="24" height="16" rx="2"/><rect stroke-opacity=".04" stroke="#000" x=".5" y=".5" width="23" height="15" rx="1"/><path d="M8.602 4.413a18 18 0 01-.38.432h3.605c0 .431-.011.83-.033 1.175h.617v.648h-.67l-.098.68h.444v.528h-.563c-.022.065-.033.119-.054.173l.314.237c-.585.291-1.18.54-1.786.744a165.06 165.06 0 012.23-.075c.454-.227.908-.475 1.374-.734l.725.475a18.267 18.267 0 01-4.091 1.683 126.13 126.13 0 004.177-.248c-.238-.173-.487-.356-.746-.53l.725-.441c1.028.647 1.818 1.208 2.37 1.704l-.812.561a12.63 12.63 0 00-.768-.69c-.93.054-1.818.108-2.663.15v1.263c0 .56-.335.852-.995.852h-1.018l-.173-.82c.314.033.617.054.899.054.205 0 .313-.108.313-.302v-1.003c-1.287.065-2.478.108-3.56.14l-.217-.841c.282.01.552.021.823.021.78-.162 1.59-.42 2.446-.766l-2.468.087-.151-.712c.368 0 .617-.033.768-.097a12.58 12.58 0 001.44-.637c.021-.086.054-.173.075-.248H7.574c.075-.41.14-.81.205-1.208h-.703V6.02h.779c.043-.312.076-.614.097-.916-.14.129-.281.258-.422.366L7 4.834c.595-.442 1.115-1.047 1.548-1.823l.844.183c-.098.173-.195.345-.292.507h3.181v.712h-3.68zm0 2.168l-.13.766h1.656a7.341 7.341 0 00-1.147-.41l.227-.356h-.606zm1.558.766h.671a9.43 9.43 0 00.13-.766h-1.71c.422.12.8.249 1.147.4l-.238.366zm.844-1.219l.033-.766H8.742c-.021.26-.054.518-.086.766h1.504a6.009 6.009 0 00-1.017-.399l.249-.356c.39.108.757.26 1.093.432l-.206.323h.725zm2.587-1.337a3.23 3.23 0 00.941 1.424c.347-.41.617-.885.79-1.424h-1.731zm.335 1.985a4.244 4.244 0 01-.876-1.316 7.07 7.07 0 01-.52.582l-.54-.647c.562-.583 1.049-1.381 1.46-2.395l.877.194c-.108.28-.227.54-.346.788h2.813v.809h-.627c-.195.776-.52 1.413-.953 1.93.498.324 1.093.594 1.786.82l-.465.81c-.78-.28-1.429-.615-1.948-1.004-.542.432-1.202.745-1.96.95l-.475-.745c.714-.172 1.298-.431 1.774-.776zm-.173 4.347c1.082.259 2.078.583 2.976.97l-.519.81a16.903 16.903 0 00-2.965-1.025l.508-.755zm-3.798.043l.54.615c-.8.453-1.785.83-2.943 1.133l-.379-.799c1.126-.237 2.056-.56 2.782-.949z" fill="#FFF" fill-rule="nonzero"/></g></svg>