<svg width="24" height="16" xmlns="http://www.w3.org/2000/svg" xmlns:xlink="http://www.w3.org/1999/xlink"><defs><rect id="a" x="0" y="0" width="24" height="16" rx="2"/></defs><g fill="none" fill-rule="evenodd"><mask id="b" fill="#fff"><use xlink:href="#a"/></mask><use fill="#0D47A1" xlink:href="#a"/><path d="M23.975 1.537A1.806 1.806 0 0022.203.013h-.468l-7.666 5.102V.013H9.931v5.102L2.265.013h-.468C.906.013.167.673.025 1.537l6.552 4.361H0v4.204h6.577l-6.552 4.36a1.806 1.806 0 001.772 1.525h.468l7.666-5.102v5.102h4.138v-5.102l7.666 5.102h.468c.891 0 1.63-.66 1.772-1.524l-6.552-4.361H24V5.898h-6.577l6.552-4.36z" fill="#FFF" fill-rule="nonzero" mask="url(#b)"/><path d="M13.241.013V6.74H24v2.52H13.241v6.726H10.76V9.26H0V6.74h10.759V.013h2.482zM9.908 10.102l-8.746 5.767a1.793 1.793 0 01-.606-.389l-.124-.132 7.956-5.246h1.52zm6.329 0l7.527 4.963c-.113.2-.262.378-.439.521l-.137.102-8.471-5.586h1.52zM.725.373l8.378 5.525h-1.52L.19 1.023C.316.766.5.543.725.373zM22.824.125a1.8 1.8 0 01.735.517l-7.97 5.256h-1.52L22.824.125z" fill="#F44336" fill-rule="nonzero" mask="url(#b)"/><rect stroke-opacity=".04" stroke="#000" mask="url(#b)" x=".5" y=".5" width="23" height="15" rx="1"/></g></svg>