<svg width="24" height="16" xmlns="http://www.w3.org/2000/svg" xmlns:xlink="http://www.w3.org/1999/xlink"><defs><rect id="a" x="0" y="0" width="24" height="16" rx="2"/></defs><g fill="none" fill-rule="evenodd"><mask id="b" fill="#fff"><use xlink:href="#a"/></mask><use fill="#DD172C" xlink:href="#a"/><path fill="#FFD133" fill-rule="nonzero" mask="url(#b)" d="M0 4h24v8H0z"/><g mask="url(#b)"><path fill="#FFEDB1" d="M5.333 7.333h1.334V8H5.333z"/><path d="M4.054 7.3l.167 2.007a1.138 1.138 0 001.112 1.026c.566 0 1.065-.461 1.112-1.026L6.613 7.3c.014-.174-.105-.3-.288-.3H4.341c-.176 0-.301.133-.287.3z" stroke="#A41517" stroke-width=".667"/><path fill="#A41517" d="M4 8h2.667v.667H6L5.333 10l-.666-1.333H4zM2 6h1.333v4.667H2zm5.333 0h1.333v4.667H7.333zM4 5.333c0-.368.306-.666.673-.666h1.32c.372 0 .674.296.674.666v.33A.33.33 0 016.34 6H4.327A.327.327 0 014 5.664v-.33z"/></g><rect stroke-opacity=".04" stroke="#000" mask="url(#b)" x=".5" y=".5" width="23" height="15" rx="1"/></g></svg>