<svg width="24" height="16" xmlns="http://www.w3.org/2000/svg"><g fill="none" fill-rule="evenodd"><rect fill="#ED3C3C" width="24" height="16" rx="2"/><rect stroke-opacity=".04" stroke="#000" x=".5" y=".5" width="23" height="15" rx="1"/><path d="M7.742 7.186h1.04V13h-1.04V7.186zm7.453 5.77h-.952l-.255-.927.996.032c.244 0 .366-.161.366-.474V6.883h-4.11v-.938h5.15v5.922c0 .723-.399 1.09-1.196 1.09zM9.968 7.64h4.175v4.207H9.968V7.639zm3.2 3.355v-.863h-2.203v.863h2.203zM10.965 9.31h2.203v-.842h-2.203v.842zM9.082 5.503c.576.496 1.019.938 1.329 1.327l-.775.517c-.333-.41-.776-.863-1.33-1.38l.776-.464zm-.3-.874a7.406 7.406 0 01-.896 1.23L7 5.298C7.664 4.586 8.13 3.82 8.417 3l1.02.216c-.067.183-.145.356-.211.518h2.746v.895h-1.461c.232.324.42.636.564.917l-.93.334a9.512 9.512 0 00-.73-1.251h-.632zm4.707 0a6.6 6.6 0 01-.686 1.068l-.886-.561c.543-.658.93-1.37 1.152-2.125l1.007.216c-.066.172-.121.345-.177.507H17v.895h-1.661c.21.291.387.572.531.83l-.93.335a9.04 9.04 0 00-.697-1.165h-.754z" fill="#FFF" fill-rule="nonzero"/></g></svg>