<svg width="24" height="16" xmlns="http://www.w3.org/2000/svg" xmlns:xlink="http://www.w3.org/1999/xlink"><defs><rect id="a" x="0" y="0" width="24" height="16" rx="2"/></defs><g fill="none" fill-rule="evenodd"><mask id="b" fill="#fff"><use xlink:href="#a"/></mask><use fill="#FF2936" fill-rule="nonzero" xlink:href="#a"/><path d="M2 0h6v16H2a2 2 0 01-2-2V2a2 2 0 012-2z" fill="#128415" fill-rule="nonzero" mask="url(#b)"/><g mask="url(#b)"><g transform="translate(4.5 4.5)"><circle stroke="#FAF94F" cx="3.5" cy="3.5" r="3.5"/><g fill-rule="nonzero"><path d="M2 1.841c0-.188.145-.341.333-.341h2.334c.184 0 .333.152.333.341v2.327C5 4.904 4.407 5.5 3.675 5.5h-.35C2.593 5.5 2 4.91 2 4.168V1.841z" fill="#FFF"/><path d="M3.5 4.42c.414 0 .75-1.086.75-1.5a.75.75 0 10-1.5 0c0 .414.336 1.5.75 1.5z" fill="#1D50B5"/></g></g></g><rect stroke-opacity=".04" stroke="#000" mask="url(#b)" x=".5" y=".5" width="23" height="15" rx="1"/></g></svg>