<svg xmlns="http://www.w3.org/2000/svg" width="48" height="48"><g fill="none"><path fill="#2775CA" d="M24 48c13.3 0 24-10.7 24-24S37.3 0 24 0 0 10.7 0 24s10.7 24 24 24z"/><path fill="#FFF" d="M30.6 27.8c0-3.5-2.1-4.7-6.3-5.2-3-.4-3.6-1.2-3.6-2.6 0-1.4 1-2.3 3-2.3 1.8 0 2.8.6 3.3 2.1.1.3.4.5.7.5h1.6c.4 0 .7-.3.7-.7v-.1c-.4-2.2-2.2-3.9-4.5-4.1V13c0-.4-.3-.7-.8-.8h-1.5c-.4 0-.7.3-.8.8v2.3c-3 .4-4.9 2.4-4.9 4.9 0 3.3 2 4.6 6.2 5.1 2.8.5 3.7 1.1 3.7 2.7s-1.4 2.7-3.3 2.7c-2.6 0-3.5-1.1-3.8-2.6-.1-.4-.4-.6-.7-.6h-1.7c-.4 0-.7.3-.7.7v.1c.4 2.5 2 4.3 5.3 4.8v2.4c0 .4.3.7.8.8h1.5c.4 0 .7-.3.8-.8v-2.4c3-.5 5-2.6 5-5.3z"/><path fill="#FFF" d="M18.9 38.3C11.1 35.5 7.1 26.8 10 19.1c1.5-4.2 4.8-7.4 8.9-8.9.4-.2.6-.5.6-1V7.8c0-.4-.2-.7-.6-.8-.1 0-.3 0-.4.1C9 10.1 3.8 20.2 6.8 29.7c1.8 5.6 6.1 9.9 11.7 11.7.4.2.8 0 .9-.4.1-.1.1-.2.1-.4v-1.4c0-.3-.3-.7-.6-.9zM29.5 7.1c-.4-.2-.8 0-.9.4-.1.1-.1.2-.1.4v1.4c0 .4.3.8.6 1 7.8 2.8 11.8 11.5 8.9 19.2-1.5 4.2-4.8 7.4-8.9 8.9-.4.2-.6.5-.6 1v1.4c0 .4.2.7.6.8.1 0 .3 0 .4-.1 9.5-3 14.7-13.1 11.7-22.6-1.8-5.7-6.2-10-11.7-11.8z"/></g></svg>
