<svg xmlns="http://www.w3.org/2000/svg" height="48" width="48"><g fill="none"><path fill="#FFF" d="M48 24c0 13.254-10.746 24-24 24S0 37.254 0 24 10.746 0 24 0s24 10.746 24 24"/><path fill="#2469E4" d="M0 24c0 13.255 10.745 24 24 24 3.277.004 6.52-.665 9.527-1.965a33.78 33.78 0 01-3.452-.536c-2.544-.548-4.876-1.383-6.995-2.504-4.414-2.34-7.52-5.765-9.315-10.272H5.76l2.432-5.752h4.152a27.614 27.614 0 01-.225-3.4c0-1.095.038-2.078.112-2.95H5.76l2.432-5.717h5.2c1.645-4.83 4.7-8.553 9.164-11.168A26.038 26.038 0 0130.063.772 24.131 24.131 0 0024 0C10.745 0 0 10.745 0 24zM38.16 4.62c-7.376.946-14.715 4.003-17.445 10.285h22.229l-2.47 5.717H19.303c-.1.847-.15 1.88-.15 3.1 0 1.221.1 2.304.3 3.249h18.106l-2.47 5.752H21.733c3.032 4.999 10.764 8.245 18.857 8.62A23.929 23.929 0 0048 24c0-7.96-3.875-15.013-9.84-19.38z"/></g></svg>