<svg xmlns="http://www.w3.org/2000/svg" width="24" height="24" viewBox="0 0 20 20"><g fill="none" fill-rule="evenodd"><circle cx="10" cy="10" r="10" fill="#FFF"/><path fill="#F44336" fill-rule="nonzero" d="M12.18 1.833h3.583A9.951 9.951 0 0010.578.018h-.308c.906.114 1.323.783 1.91 1.815zm.926 3.628h5.799a9.976 9.976 0 00-1.186-1.814h-5.066c.179.564.33 1.173.453 1.814zm6.839 3.629a9.913 9.913 0 00-.331-1.814h-6.19c.062.594.103 1.202.123 1.814h6.398zm-.345 3.629a9.885 9.885 0 00.341-1.814h-6.24c-.022.612-.064 1.22-.127 1.814h6.025zm-6.789 3.629h4.865a9.985 9.985 0 001.203-1.815h-5.61a15.76 15.76 0 01-.458 1.815zm-2.818 3.627a9.845 9.845 0 005.698-1.812h-3.616c-.642 1.122-1.066 1.812-2.082 1.812z"/><path fill="#F44336" fill-rule="nonzero" d="M4.223 1.833h8.288C11.924.8 11.176.132 10.27.018h-.861a9.95 9.95 0 00-5.186 1.815zM2.268 3.647A9.983 9.983 0 001.082 5.46H13.73a15.962 15.962 0 00-.453-1.814H2.267zM.041 9.09h14.077c-.02-.612-.062-1.22-.124-1.814H.373A9.9 9.9 0 00.04 9.09zm.346 3.629H13.99a25.53 25.53 0 00.127-1.814H.046a9.87 9.87 0 00.341 1.814zm.721 1.814a9.97 9.97 0 001.202 1.815h10.952c.18-.564.334-1.173.458-1.815H1.108zm8.462 5.433l.061.002c.12.004.24.007.362.007 1.016 0 1.845-.69 2.487-1.813H4.295a9.843 9.843 0 005.275 1.804z"/><path fill="#283991" fill-rule="nonzero" d="M9.787.005A9.99 9.99 0 00.043 9.093h9.744V.005z"/><path fill="#EFEFEF" fill-rule="nonzero" d="M2 5.65l.152.468h.493l-.399.289.152.468L2 6.585l-.4.29.153-.468-.399-.29h.493zm0 1.653l.152.468h.493l-.399.289.152.468L2 8.238l-.4.29.153-.468-.399-.29h.493zM3.656 3.17l.152.468h.493l-.399.29.153.468-.399-.29-.399.29.152-.468-.399-.29h.494zm0 1.653l.152.468h.493l-.399.29.153.468-.399-.29-.399.29.152-.469-.399-.289h.494zm0 1.653l.152.468h.493l-.399.29.153.467-.399-.289-.399.29.152-.469-.399-.289h.494zM.742 7.701L.59 7.233l.398-.289H.496L.484 6.91a9.53 9.53 0 00-.148.507l.007-.005.399.29zM1.6 5.222l.4-.29.398.29-.152-.468.399-.29h-.493l-.153-.467-.152.468h-.182a9.409 9.409 0 00-.099.154l.187.135-.152.468zm2.056-2.769l.399.29-.153-.468.4-.29h-.286a9.92 9.92 0 00-.7.573l-.06.185.4-.29zm1.258-.537l.398-.29.4.29-.153-.468.399-.289h-.493l-.021-.063a9.895 9.895 0 00-.494.268l.116.084-.152.468zm.398.428l.153.468h.493l-.4.29.153.467-.399-.29-.398.29.152-.468-.4-.29h.494zm0 1.653l.153.468h.493l-.4.29.153.467-.399-.29-.398.29.152-.468-.4-.29h.494zm0 1.653l.153.468h.493l-.4.289.153.468-.399-.29-.398.29.152-.468-.4-.29h.494zm0 1.653l.153.468h.493l-.4.289.153.468-.399-.29-.398.29.152-.468-.4-.29h.494zm1.657-5.786l.152.468h.493l-.398.29.152.468-.4-.29-.398.29.152-.468-.399-.29h.493zm0 1.653l.152.468h.493l-.398.29.152.468-.4-.29-.398.29.152-.468-.399-.29h.493zm0 1.653l.152.468h.493l-.398.29.152.468-.4-.29-.398.29.152-.469-.399-.289h.493zm0 1.653l.152.468h.493l-.398.29.152.467-.4-.289-.398.29.152-.469-.399-.289h.493zM8.625.691l.153.468h.493l-.4.29.153.467-.399-.29-.399.29.153-.468-.4-.289h.494zm0 1.653l.153.468h.493l-.4.29.153.467-.399-.29-.399.29.153-.468-.4-.29h.494zm0 1.653l.153.468h.493l-.4.29.153.467-.399-.29-.399.29.153-.468-.4-.29h.494zm0 1.653l.153.468h.493l-.4.289.153.468-.399-.29-.399.29.153-.468-.4-.29h.494zm0 1.653l.153.468h.493l-.4.289.153.468-.399-.29-.399.29.153-.468-.4-.29h.494z"/></g></svg>