<svg xmlns="http://www.w3.org/2000/svg" width="48" height="48"><g fill="none"><path fill="#002868" d="M24 48C10.8 48 0 37.2 0 24S10.8 0 24 0s24 10.8 24 24-10.8 24-24 24z"/><path fill="#FFF" d="M36.096 9.6a2.311 2.311 0 012.304 2.304v24.192a2.311 2.311 0 01-2.304 2.304H11.904A2.311 2.311 0 019.6 36.096V11.904A2.311 2.311 0 0111.904 9.6h24.192zm0 .384H11.904c-1.056 0-1.92.864-1.92 1.92v15.168c0 .211.173.384.384.384h27.264a.385.385 0 00.384-.384V11.904c0-1.056-.864-1.92-1.92-1.92z"/><path fill="#002868" d="M19.813 30.311a.15.15 0 01.145.145v2.678c0 .771.397 1.32 1.084 1.32.688 0 1.084-.549 1.084-1.32v-2.678c0-.076.062-.145.137-.145h.916a.15.15 0 01.145.145v2.641c0 1.565-.885 2.473-2.29 2.473-1.396 0-2.274-.908-2.274-2.473v-2.641c0-.076.062-.145.138-.145h.915zm6.52-.06c1.175 0 1.992.633 2.16 1.58.023.106-.008.175-.122.175h-.841c-.122 0-.16-.047-.206-.138-.16-.374-.512-.61-1.046-.61-.48 0-.885.168-.885.488 0 .352.374.497 1.198.595 1.252.145 1.969.527 1.969 1.52 0 1.114-.977 1.701-2.228 1.701-1.084 0-2.015-.527-2.16-1.633-.016-.106.038-.145.145-.145h.84c.106 0 .168.046.199.13.114.367.504.649 1.068.649.496 0 .931-.183.931-.572 0-.466-.458-.55-1.374-.665-1.053-.137-1.785-.442-1.785-1.412s.832-1.663 2.137-1.663zm-8.549.06a.15.15 0 01.145.145v.748c0 .076-.07.137-.145.137h-1.358a.15.15 0 00-.145.145v3.87c0 .076-.062.145-.138.145h-.923c-.076 0-.137-.07-.137-.145v-3.87c0-.076-.062-.145-.138-.145H13.58c-.077 0-.145-.061-.145-.137v-.748c0-.076.07-.145.145-.145h4.205zm13.89 0c1.541 0 2.74 1.06 2.74 2.61 0 1.527-1.184 2.58-2.74 2.58h-2.076c-.076 0-.138-.07-.138-.145v-4.9c0-.076.062-.145.138-.145h2.075zm-.008 1.03h-.862a.143.143 0 00-.138.144v2.847c0 .075.062.137.138.137h.87c.832 0 1.48-.656 1.48-1.564s-.65-1.565-1.488-1.565z"/><path fill="#FFF" d="M29.664 13.206a.29.29 0 01.288.288v2.496a.29.29 0 01-.288.288h-3.962v7.776a.29.29 0 01-.288.288h-2.496a.29.29 0 01-.288-.288v-7.776h-4.294a.29.29 0 01-.288-.288v-2.496c0-.159.13-.288.288-.288h11.328z"/></g></svg>