<svg xmlns="http://www.w3.org/2000/svg" width="48" height="48"><g fill="none"><circle cx="24" cy="24" r="23" stroke="#F7B14A" stroke-width="2"/><path fill="#FFCC80" d="M9 24h15v15z"/><path fill="#FFB74D" d="M24 9v19.5L9 24z"/><path fill="#FFF" d="M13.5 24L24 13.5v6L19.5 24z"/><path fill="#F7C57B" d="M39 24H24v15z"/><path fill="#F7B14A" d="M24 9v19.5L39 24z"/><path fill="#FFF" d="M34.5 24L24 13.5v6l4.5 4.5z"/><path fill="#F5AC37" d="M24 0c13.256 0 24 10.746 24 24 0 13.256-10.744 24-24 24C10.746 48 0 37.255 0 24 0 10.746 10.746 0 24 0z"/><path fill="#FEFEFD" d="M24.885 25.695h9.12c.194 0 .285 0 .3-.255a17.56 17.56 0 000-2.79c0-.18-.09-.255-.286-.255H15.87c-.224 0-.284.075-.284.285v2.67c0 .345 0 .345.36.345h8.94zm8.4-6.42a.282.282 0 000-.21 5.892 5.892 0 00-.541-.945 7.708 7.708 0 00-1.11-1.395 3.676 3.676 0 00-.69-.675 10.786 10.786 0 00-4.501-2.28 11.212 11.212 0 00-2.55-.27h-8.055c-.224 0-.255.09-.255.285v5.325c0 .224 0 .285.286.285h17.309s.15-.03.18-.12h-.073zm0 9.54a3.503 3.503 0 00-.766 0H15.885c-.225 0-.3 0-.3.3v5.206c0 .24 0 .3.3.3h7.68c.367.028.734.002 1.094-.075a11.46 11.46 0 003.256-.72 6.01 6.01 0 001.094-.51h.105a9.742 9.742 0 004.185-4.213s.105-.227-.013-.286v-.002zM12.57 37.32v-8.295c0-.195 0-.224-.24-.224H9.075c-.18 0-.255 0-.255-.24v-2.85h3.48c.195 0 .27 0 .27-.255v-2.82c0-.18 0-.225-.24-.225H9.075c-.18 0-.255 0-.255-.24v-2.639c0-.165 0-.21.24-.21h3.225c.225 0 .285 0 .285-.285v-8.085c0-.24 0-.3.3-.3h11.25c.816.033 1.627.122 2.43.27 1.653.306 3.242.897 4.695 1.74.963.567 1.85 1.252 2.64 2.04a14.507 14.507 0 011.604 1.995c.472.72.864 1.49 1.172 2.295a.39.39 0 00.448.315h2.685c.345 0 .345 0 .36.33v2.461c0 .24-.09.3-.33.3h-2.071c-.21 0-.27 0-.255.27.082.914.082 1.831 0 2.745 0 .255 0 .285.286.285h2.369c.104.135 0 .27 0 .406.015.174.015.35 0 .524v1.815c0 .255-.075.33-.3.33h-2.836a.377.377 0 00-.435.286 12.002 12.002 0 01-3.15 4.59c-.51.459-1.046.89-1.605 1.29-.6.345-1.185.705-1.8.99-1.133.51-2.321.885-3.54 1.124a18.519 18.519 0 01-3.51.285H12.565v-.015l.004-.003z"/></g></svg>