<svg xmlns="http://www.w3.org/2000/svg" width="24" height="24" viewBox="0 0 20 20"><g fill="none" fill-rule="evenodd"><path fill="#85ACB0" d="M20 10c0 5.523-4.477 10-10 10-5.522 0-10-4.477-10-10C0 4.478 4.478 0 10 0c5.523 0 10 4.478 10 10"/><path fill="#FFF" fill-rule="nonzero" d="M11.272 3.333c3.385 0 6.228 3.164 6.228 6.667 0 3.427-2.72 6.529-6.008 6.662l-.22.005H5.833a.833.833 0 01-.104-1.66L5.833 15h.833v-2.5h-.833a.833.833 0 01-.827-.729L5 11.667c0-.425.318-.776.729-.827l.104-.007h.833V9.165h-.833a.833.833 0 01-.827-.728L5 8.333c0-.46.373-.833.833-.833h.833V5h-.833a.833.833 0 01-.827-.729L5 4.167c0-.425.318-.776.729-.827l.104-.007h5.44zm0 1.667H8.333v2.5h2.5c.425 0 .776.318.827.729l.007.104c0 .46-.373.834-.834.834h-2.5v1.665l2.5.001c.425 0 .776.318.827.73l.007.104a.833.833 0 01-.73.827l-.104.006h-2.5V15h2.94c2.421 0 4.56-2.38 4.56-5 0-2.55-2.025-4.871-4.365-4.995L11.272 5z"/></g></svg>