<svg xmlns="http://www.w3.org/2000/svg" width="20" height="20"><g fill="none"><circle cx="10" cy="10" r="10" fill="#F7931A"/><path fill="#FFF" d="M14.493 8.762c.196-1.31-.802-2.014-2.165-2.484l.442-1.775-1.08-.269-.431 1.729a35.44 35.44 0 00-.866-.204l.434-1.74-1.08-.269-.442 1.774a30.808 30.808 0 01-.69-.162l.001-.006-1.49-.372-.287 1.154s.802.184.785.195c.437.11.516.399.503.629l-.504 2.022a.96.96 0 01.113.035l-.115-.028-.706 2.833c-.054.132-.19.332-.496.256.012.016-.785-.196-.785-.196l-.536 1.237 1.406.35c.262.066.518.135.77.199l-.447 1.795 1.08.269.442-1.775c.295.08.581.153.861.223l-.441 1.767 1.08.27.447-1.792c1.842.349 3.227.208 3.81-1.458.47-1.341-.023-2.116-.992-2.62.706-.163 1.237-.627 1.38-1.587zm-2.469 3.462c-.333 1.342-2.592.616-3.325.434l.594-2.378c.733.183 3.08.545 2.731 1.944zm.335-3.48c-.305 1.22-2.185.6-2.794.447l.537-2.156c.61.152 2.574.435 2.257 1.708z"/></g></svg>