<svg xmlns="http://www.w3.org/2000/svg" width="48" height="48"><g fill="none"><circle cx="24" cy="24" r="24" fill="#0D74F6"/><g fill="#FFF"><path d="M14.328 10.785c2.84-.02 5.681-.004 8.521-.01.143 3.37.008 6.747.063 10.116 2.392-1.437 4.44-3.398 6.174-5.57.213-.314.522-.589.6-.973-.611-1.222-1.389-2.355-2.016-3.57 3.546.007 7.094-.022 10.64.017-1.901 5.258-5.807 9.72-10.62 12.528-5.252 3.072-11.67 4.085-17.611 2.775-1.536-.384-3.119-.736-4.5-1.536 2.89.305 5.828.387 8.697-.176.07-4.533-.046-9.07.052-13.6"/><path d="M26.5 25.78c1.406-.63 2.69-1.483 4-2.285 2.628 4.565 5.28 9.123 7.821 13.737-2.833.036-5.667.012-8.5.014-1.628-2.73-2.989-5.614-4.58-8.367-.792.205-1.57.459-2.33.761-.037 2.536.05 5.072-.037 7.606-2.852 0-5.705.017-8.557-.01a379.746 379.746 0 01-.008-8.93c4.184.054 8.406-.706 12.19-2.526"/></g></g></svg>