<svg xmlns="http://www.w3.org/2000/svg" width="20" height="20"><g fill="none"><path fill="#53AE94" d="M10 0c5.523 0 10 4.477 10 10s-4.478 10-10 10S0 15.524 0 10 4.477 0 10 0"/><path fill="#FFF" d="M11.234 8.668V7.18h3.402V4.913H5.373V7.18h3.402v1.486c-2.765.127-4.844.675-4.844 1.331 0 .656 2.08 1.204 4.844 1.331v4.765h2.46v-4.765c2.76-.127 4.835-.675 4.835-1.33s-2.075-1.203-4.835-1.33m0 2.256c-.07.004-.426.025-1.22.025-.635 0-1.081-.018-1.239-.026v.002c-2.443-.108-4.266-.534-4.266-1.043 0-.509 1.824-.934 4.266-1.042v1.661c.16.011.618.038 1.25.038a14.5 14.5 0 001.21-.038V8.84c2.437.109 4.257.534 4.257 1.042 0 .507-1.82.933-4.258 1.041"/></g></svg>