<svg xmlns="http://www.w3.org/2000/svg" width="20" height="20"><g fill="none"><circle cx="10" cy="10" r="10" fill="#8DC351"/><path fill="#FFF" d="M13.254 6.584c-.485-1.233-1.7-1.344-3.117-1.069l-.505-1.758-1.07.307.492 1.712c-.281.08-.568.169-.852.256L7.708 4.31l-1.07.306.504 1.758c-.23.071-.456.141-.678.205l-.002-.006-1.476.423.328 1.144s.786-.243.777-.224c.433-.124.646.087.75.292l.575 2.003a.951.951 0 01.115-.025l-.113.032.804 2.807c.02.142.002.382-.3.47.017.008-.779.222-.779.222l.155 1.34 1.392-.4c.26-.074.516-.142.766-.213l.51 1.778 1.07-.306-.505-1.76c.287-.075.573-.155.858-.237l.501 1.752 1.07-.307-.508-1.775c1.77-.62 2.899-1.434 2.57-3.169-.263-1.396-1.077-1.82-2.169-1.772.53-.494.758-1.161.401-2.063zm-.406 4.231c.381 1.33-1.937 1.83-2.662 2.04l-.676-2.357c.725-.208 2.94-1.069 3.338.318v-.001zm-1.451-3.181c.346 1.21-1.592 1.612-2.196 1.785l-.613-2.137c.604-.173 2.447-.909 2.809.352z"/></g></svg>