<svg xmlns="http://www.w3.org/2000/svg" width="20" height="20"><g fill="none"><path fill="#283991" d="M9.993 0v19.986c5.52 0 9.993-4.474 9.993-9.993C19.986 4.473 15.512 0 9.993 0z"/><path fill="#283991" d="M9.993 0C4.474 0 0 4.474 0 9.993c0 5.52 4.474 9.993 9.993 9.993 5.52 0 5.52-19.986 0-19.986z"/><path fill="#F8D12E" d="M9.976 1.733l.244.75h.789l-.639.464.244.75-.638-.464-.638.464.244-.75-.639-.464h.79zm0 14.161l.244.75h.789l-.639.464.244.75-.638-.463-.638.463.244-.75-.639-.464h.79zm3.886-12.906l.244.75h.789l-.638.464.244.75-.639-.463-.638.463.244-.75-.638-.464h.789zm2.652 2.616l.244.75h.789l-.639.464.244.75-.638-.463-.638.463.244-.75-.639-.464h.79zm.063 6.61l.244.75h.789l-.638.464.243.75-.638-.463-.638.463.244-.75-.639-.464h.79zM3.534 5.604l.244.75h.788l-.638.464.244.75-.638-.463-.638.463.243-.75-.638-.464h.79zm13.595 3.153l.243.75h.79l-.639.463.244.75-.638-.463-.639.464.244-.75-.638-.464h.789zm-14.198 0l.244.75h.789l-.639.463.244.75-.638-.463-.638.464.244-.75-.638-.464h.788zm.517 3.457l.244.75h.789l-.638.464.243.75-.638-.463-.638.463.244-.75-.638-.464h.789zm10.529 2.728l.243.75h.79l-.639.464.244.75-.638-.464-.639.464.244-.75-.638-.464h.79zM6.215 2.988l.244.75h.789l-.638.464.244.75-.639-.463-.638.463.244-.75-.638-.464h.789zm-.287 11.906l.243.75h.79l-.639.464.244.75-.638-.464-.638.464.243-.75-.638-.464h.789z"/></g></svg>