<svg xmlns="http://www.w3.org/2000/svg" width="48" height="48"><g fill="none"><circle cx="24" cy="24" r="24" fill="#F2F3F4"/><path fill="#0293D6" d="M14.677 35.1a10.724 10.724 0 007.43 3.631 6.753 6.753 0 004.475-2.026 78.055 78.055 0 017.346-5.573l1.436-.591c.59-.253 1.604-.844 2.533-1.942 1.013-1.351 1.182-2.786 1.182-3.293a9.282 9.282 0 00-1.52-4.475 28.033 28.033 0 01-22.882 14.27z"/><path fill="#EBE638" d="M17.886 11.12a6.76 6.76 0 014.897-2.11 4.389 4.389 0 013.208 1.097 14.69 14.69 0 008.275 2.702c.76.085 2.28.338 3.293 1.605.76 1.013.844 2.11.844 2.617a11.731 11.731 0 01-.844 3.8L17.886 11.12z"/><path fill="#BAD147" d="M14.677 35.1c-.76-.084-1.773-.337-2.955-.844-1.182-.507-2.618-1.098-3.547-2.702-.59-1.013-.675-2.026-.675-2.702.02-1.791.454-3.554 1.267-5.15a23.862 23.862 0 001.604-6.164l.422-1.689c.253-.844.422-1.689 1.013-2.533l.929-1.013a8.018 8.018 0 015.15-1.182 26.343 26.343 0 00-3.208 23.98z"/><path fill="#78B650" d="M17.886 11.12c-.085 0 4.56.254 7.43 1.267L27.68 13.4c-.929-.084-6.84-.337-11.314 4.138-5.657 5.741-3.8 13.594-3.715 14.016a8.615 8.615 0 01-1.858-5.826 20.264 20.264 0 017.093-14.607z"/><path fill="#2F8260" d="M29.2 31.976A16.887 16.887 0 0027.68 13.4a11.572 11.572 0 016.417 3.378c1.013.844 2.28 2.11 3.462 4.053A24.923 24.923 0 0129.2 31.976z"/><path fill="#085229" d="M31.902 17.116c-1.351-2.28-3.293-3.293-4.137-3.716-.676-.168-7.009-1.182-11.821 3.462-3.884 3.716-4.138 8.528-4.138 9.457a14.438 14.438 0 003.04 8.781c2.51.484 5.09.484 7.6 0 1.266-.253 4.22-.76 6.754-2.955.338-.338 4.053-3.8 4.306-9.288 0-.929 0-3.293-1.604-5.741zm-3.04 12.243a8.36 8.36 0 01-6.164 2.702c-.506 0-3.884-.085-6.248-2.871-.338-.422-2.026-2.449-1.942-5.488.169-4.053 3.378-6.417 4.053-6.924a7.596 7.596 0 014.137-1.436c.507-.084 2.28-.168 4.053.845 3.884 2.11 4.053 7.177 4.053 7.515 0 .928 0 3.461-1.942 5.657z"/></g></svg>