<svg xmlns="http://www.w3.org/2000/svg" width="20" height="20"><path fill="#4bb4b3" d="M20 10.128c-.038 5.523-4.545 9.97-10.068 9.933C4.41 20.023-.038 15.516 0 9.993.037 4.471 4.545.023 10.067.061 15.59.098 20.037 4.606 20 10.128"/><path fill="#fff" d="M8.59 11.926l.018-2.605c.86-.029 1.507-.175 1.939-.439.432-.264.65-.714.655-1.35l.002-.238c.002-.432-.118-.762-.362-.99-.244-.23-.561-.346-.954-.348-.425-.003-.776.131-1.056.402-.28.27-.47.616-.57 1.035l-1.988-.882c.1-.34.244-.671.431-.993a3.28 3.28 0 01.733-.865A3.646 3.646 0 018.52 4.04c.421-.155.91-.232 1.465-.228a4.501 4.501 0 011.55.266 3.6 3.6 0 011.205.723c.335.309.592.68.768 1.113.177.433.264.91.26 1.432a3.495 3.495 0 01-.238 1.293 3.24 3.24 0 01-1.547 1.71 3.804 3.804 0 01-1.097.367l-.008 1.227zm1.055 4.383c-.561-.004-.961-.137-1.2-.4a1.361 1.361 0 01-.353-.96l.003-.427c.002-.378.124-.697.366-.956s.644-.386 1.205-.382c.562.003.962.136 1.2.399.238.261.356.582.354.96l-.003.427a1.361 1.361 0 01-.367.956c-.241.259-.643.386-1.205.383z"/></svg>