<svg xmlns="http://www.w3.org/2000/svg" width="20" height="20"><g fill="none"><path fill="#283991" d="M9.993 0v19.986c5.52 0 9.993-4.474 9.993-9.993C19.986 4.473 15.512 0 9.993 0z"/><path fill="#283991" d="M9.993 0C4.474 0 0 4.474 0 9.993c0 5.52 4.474 9.993 9.993 9.993 5.52 0 5.52-19.986 0-19.986z"/><path fill="#FFF" d="M6.853 15.319l.674-.84-1.04.188-.362-1.008-.393 1.008-1.062-.188.675.821-.701.821 1.069-.168.36.988.393-.987 1.09.194zm7.966.741l.382-.475-.59.107-.205-.572-.222.572-.603-.107.383.465-.397.465.606-.095.204.56.222-.56.618.111zm0-10.518l.382-.477-.59.107-.205-.57-.222.57-.603-.107.383.466-.397.465.606-.095.204.56.222-.56.618.11zm2.472 2.721l.382-.476-.59.107-.205-.572-.222.572-.603-.107.383.465-.397.465.605-.095.205.56.222-.56.618.11zm-4.611 1.21l.382-.476-.59.107-.204-.572-.223.572-.602-.107.383.465-.397.465.605-.095.205.56.222-.56.618.11z"/><path fill="#283991" d="M2.099 3.87c-.157.202-.307.41-.448.623h1.07L2.1 3.87zM7.26 9.993h.962l-.963-.962zM4.068 1.947c-.23.169-.45.348-.664.536l.664.663v-1.2zm-.963 8.046h.963V9.03zM9.993 0c-.948 0-1.864.135-2.734.382v2.764L9.993.412V0zm0 9.072V7.684H8.606zm-9.581.921l2.31-2.309H.272A10.004 10.004 0 000 9.994h.412zm8.193-5.5h1.388V3.105z"/><g fill="#FFF"><path d="M9.993 9.363v-.291L8.606 7.684h1.387v-.496H7.818zm-7.271-4.87H1.65c-.107.162-.209.328-.307.497H3.45L2.2 3.74a9.019 9.019 0 00-.1.13l.623.623zM4.068 9.03v.963h.497v-1.69l-1.69 1.69h.23zM7.26.382a8.964 8.964 0 00-.497.155v3.336l3.23-3.23v-.23L7.26 3.146V.382zM4.05 7.684l.018-.017.48-.48H.401a9.55 9.55 0 00-.13.497h2.45l-2.31 2.31h1.33l2.309-2.31z"/><path d="M.412 9.993l2.31-2.309-2.31 2.31zM9.993 4.99v-.497H8.605l1.388-1.388v-1.33L6.78 4.99z"/><path d="M9.993 3.105L8.605 4.493l1.388-1.388zm-5.925.041l-.664-.663a10.16 10.16 0 00-.676.653l1.34 1.34.014.015.483.482V1.605c-.169.11-.335.222-.497.342v1.2zM7.26 9.03l.962.963H9.49L6.763 7.266v2.727h.496z"/></g><path fill="#D32030" d="M4.068 4.476l.034.034-.034-.034z"/><path fill="#F44336" d="M8.314 7.684l-.496-.496h2.175V4.99H6.78l-.016.017V4.99h.016l3.214-3.214V.643l-3.23 3.23V.537a9.957 9.957 0 00-2.198 1.068v3.368l.017.017h-.017v-.017l-.483-.482.003.002h-.017v-.017l-1.34-1.34c-.184.195-.36.396-.528.605L3.449 4.99H1.344a9.918 9.918 0 00-.942 2.198h4.145l.018-.018v.018h-.018l-.479.48v.017h-.017L1.74 9.993h1.134l1.69-1.69v1.69h2.198V7.266L9.49 9.993h.375c.043-.044.087-.089.129-.135v-.495l-1.68-1.679z"/><path fill="#D32030" d="M6.763 3.873l3.23-3.23zM4.092 7.709v-.042l-.041.042zm.497-.539l-.042.042h.042zm2.174-2.14l.04-.04h-.04zm-2.695-.513h.04l-.006-.007-.034-.034zm.538.496l-.041-.04v.04z"/></g></svg>