<svg xmlns="http://www.w3.org/2000/svg" width="48" height="48"><path fill="#EE3549" d="M18.366 18.498V5.472a19.345 19.345 0 00-12.93 13.026h12.93zm4.637 3.219l12.94-12.942A19.349 19.349 0 0024 4.637c-.316 0-.646.01-.997.03v17.05zM4.66 23.134c-.016.308-.023.591-.023.866 0 4.328 1.465 8.542 4.138 11.944l9.591-9.59v-3.22H4.66zm7.397 16.092A19.359 19.359 0 0024 43.363c10.677 0 19.363-8.686 19.363-19.363 0-4.327-1.464-8.54-4.137-11.942L12.057 39.226zM24 48a23.981 23.981 0 01-15.231-5.46l-.011.011-.473-.402a26.86 26.86 0 01-2.021-1.962l-.02-.021a9.505 9.505 0 01-.218-.242l-.016-.017a6.15 6.15 0 01-.179-.212l-.23-.294A23.987 23.987 0 010 24C0 10.766 10.766 0 24 0a23.987 23.987 0 0115.295 5.513l.014-.011.407.348c.227.194.437.385.639.572a22.12 22.12 0 011.776 1.84l.054.055.007.016.247.28-.011.02A23.99 23.99 0 0148 24c0 13.234-10.766 24-24 24z"/></svg>