<svg xmlns="http://www.w3.org/2000/svg" width="20" height="20"><g fill="none"><circle cx="10" cy="10" r="10" fill="#FFF"/><path fill="#283991" d="M2.067 3.912a9.964 9.964 0 00-1.723 3.48h5.203l-3.48-3.48zm17.589 3.479a9.964 9.964 0 00-1.723-3.48l-3.48 3.48h5.203zM.344 12.609a9.965 9.965 0 001.723 3.48l3.48-3.48H.344zM16.088 2.067a9.964 9.964 0 00-3.48-1.723v5.203l3.48-3.48zM3.912 17.933a9.964 9.964 0 003.48 1.723v-5.203l-3.48 3.48zM7.391.344a9.965 9.965 0 00-3.48 1.723l3.48 3.48V.344zm5.218 19.312a9.965 9.965 0 003.48-1.723l-3.48-3.48v5.203zm1.844-7.047l3.48 3.48a9.964 9.964 0 001.723-3.48h-5.203z"/><g fill="#F44336"><path d="M19.915 8.696h-8.61V.085a10.1 10.1 0 00-2.61 0v8.61H.086a10.1 10.1 0 000 2.61h8.61v8.61a10.099 10.099 0 002.61 0v-8.61h8.61a10.099 10.099 0 000-2.61z"/><path d="M12.609 12.609l4.462 4.462c.205-.205.401-.42.588-.642l-3.82-3.82h-1.23zm-5.218 0L2.93 17.07c.205.205.42.401.642.588l3.82-3.82v-1.23zm.003-5.218L2.932 2.93c-.206.205-.401.42-.588.642l3.82 3.82h1.23zm5.215 0L17.07 2.93a10.21 10.21 0 00-.642-.588l-3.82 3.82v1.23z"/></g></g></svg>