<svg xmlns="http://www.w3.org/2000/svg" width="48" height="48"><g fill="none"><path fill="#53AE94" d="M24 0c13.254 0 24 10.746 24 24S37.254 48 24 48 0 37.257 0 24 10.744 0 24 0"/><path fill="#FFF" d="M26.962 20.802v-3.57h8.164v-5.44H12.895v5.44h8.165v3.567c-6.636.305-11.626 1.62-11.626 3.194 0 1.574 4.992 2.888 11.626 3.195v11.436h5.904V27.187c6.624-.306 11.604-1.619 11.604-3.192 0-1.573-4.98-2.886-11.604-3.192m0 5.416v-.003c-.167.01-1.022.062-2.928.062-1.524 0-2.595-.044-2.973-.063v.005c-5.863-.26-10.239-1.281-10.239-2.503 0-1.221 4.377-2.24 10.239-2.501v3.986c.384.027 1.482.092 2.998.092 1.82 0 2.736-.076 2.904-.092v-3.986c5.851.26 10.217 1.283 10.217 2.5s-4.368 2.24-10.217 2.5"/></g></svg>