<svg id="Layer_1" xmlns="http://www.w3.org/2000/svg" viewBox="0 0 1473.9 341.1"><style>.st0{fill:#2a3152}.st1{fill:#e88124}.st2{fill:#fff}</style><title>Binarycom_official_logo_</title><path class="st0" d="M639.1 77.1c-4.1-.1-8.1.5-12 1.7-3.4 1-6.7 2.6-9.7 4.5-2.8 1.8-5.4 4-7.7 6.5-.6.6-1.2 1.2-1.7 1.9V79.3h-29.5v112.1H608v-62.8c0-7.7 2-13.8 6-18s9.1-6.3 15.6-6.3 11.5 2 15 6 5.4 10 5.4 17.8v63.2h29.5v-70.6c0-13.1-3.6-23.8-10.6-31.6s-16.9-12-29.8-12zM747.9 77.9c-7.8-.1-15.6.7-23.2 2.5-6.4 1.7-12.6 3.9-18.7 6.6l-2 .9 8.2 24.1 2.3-1c4.6-1.9 9.3-3.5 14.1-4.8 5.1-1.2 10.4-1.8 15.7-1.8 7.9 0 14 1.8 18.1 5.3 3.8 3.3 5.8 7.9 6 14.1-3.4-1-6.9-1.8-10.4-2.4-5.6-.9-11.3-1.3-17-1.2-6.1 0-12.1.7-18 2.2-5.3 1.3-10.3 3.7-14.6 6.9-4.1 3.1-7.5 7.2-9.7 11.8-2.4 5.2-3.6 10.9-3.4 16.6v.4c-.1 5.3 1.1 10.6 3.4 15.4 2.1 4.3 5.2 8.1 9 11.1s8.2 5.3 12.9 6.7c5 1.5 10.2 2.3 15.4 2.2 8.5 0 15.8-1.6 21.8-4.7 3.8-2 7.4-4.4 10.6-7.3v9.8h29.1v-66c0-15-4.1-26.8-12.3-35.1s-20.7-12.3-37.3-12.3zm-5.1 92.7c-4.8.2-9.4-1.1-13.5-3.7-3.3-2.3-4.9-5.5-4.9-9.8v-.4c-.1-4.1 2-8 5.5-10.3 3.9-2.7 9.6-4 16.8-4 4.4 0 8.8.4 13.1 1.2 3.1.6 6.2 1.4 9.2 2.4v4.5c0 2.8-.6 5.6-1.8 8.2-1.3 2.5-3.1 4.6-5.3 6.3-2.5 1.9-5.4 3.3-8.4 4.2-3.5 1-7.1 1.5-10.7 1.4zM949.5 154.6l-28.8-75.2h-31.4L935 189c-1.8 3.9-3.6 6.5-5.4 7.9-2.1 1.5-4.7 2.3-7.3 2.2-2.3 0-4.5-.3-6.7-1-2.3-.7-4.5-1.7-6.6-2.8l-2.2-1.2-10.3 22.6 1.9 1c3.9 2.1 7.9 3.8 12.2 5 4.7 1.3 9.5 1.9 14.4 1.8 4.2.1 8.3-.5 12.3-1.7 3.7-1.2 7.2-3.1 10.2-5.6 3.3-2.8 6-6.1 8.2-9.8 2.7-4.6 5-9.4 6.9-14.4l43.9-113.6h-30.7l-26.3 75.2z"/><path class="st1" d="M1142.1 152.3c-3.6 3.6-7.6 6.7-12 9.3-8.1 4.3-17.8 4.6-26.2.9-3.6-1.6-6.8-4-9.4-6.9-2.7-3-4.8-6.4-6.2-10.2-1.5-4-2.2-8.3-2.2-12.6v-.4c0-4.2.7-8.4 2.2-12.4 1.4-3.7 3.4-7.2 6-10.1 2.5-2.8 5.6-5.1 9-6.8 3.5-1.7 7.4-2.5 11.4-2.5 5.8 0 10.7 1.2 14.6 3.4 4.3 2.6 8.2 5.7 11.6 9.3l1.7 1.8 18.4-19.9-1.4-1.6c-5.2-5.7-11.4-10.5-18.3-13.9-7-3.5-15.9-5.3-26.4-5.3-23.7-.3-45.1 14-53.9 35.9-2.9 7.2-4.4 14.8-4.4 22.5v.4c0 7.7 1.5 15.3 4.4 22.5 2.8 6.9 6.9 13.2 12.2 18.5 5.3 5.3 11.5 9.5 18.4 12.4 7.3 3.1 15.2 4.6 23.1 4.6 10.8 0 19.9-2 27-5.9 7.1-3.9 13.4-9 18.7-15l1.5-1.7-18.2-17.9-1.6 1.6zM1273.2 91.4c-5.4-5.4-11.8-9.6-18.9-12.5-7.5-3.1-15.6-4.6-23.8-4.6-8.2-.1-16.2 1.5-23.8 4.7-14.1 5.9-25.4 17.1-31.3 31.1-3.1 7.2-4.6 14.9-4.6 22.7v.4c0 7.7 1.5 15.3 4.4 22.5 2.9 6.9 7.1 13.2 12.4 18.5 5.4 5.3 11.8 9.5 18.8 12.4 15.2 6.1 32.2 6 47.4-.1 14.2-5.8 25.5-17 31.4-31.1 3.1-7.1 4.6-14.8 4.6-22.5v-.4c.4-15.5-5.7-30.2-16.6-41.1zm-42.7 73.6c-4.1 0-8.2-.8-12-2.5-3.6-1.7-6.9-4.1-9.6-7-2.7-3-4.8-6.5-6.3-10.2-1.5-4-2.3-8.2-2.3-12.5v-.4c0-4.2.7-8.4 2.1-12.4 1.3-3.7 3.3-7.1 6-10 2.7-2.9 5.9-5.2 9.5-6.8 7.8-3.4 16.7-3.4 24.5 0 3.6 1.6 6.9 4 9.6 6.9 2.7 3 4.9 6.4 6.3 10.2 1.5 4 2.3 8.3 2.3 12.6v.4c0 4.2-.7 8.4-2.1 12.3-1.3 3.7-3.4 7.1-6 10.1-2.7 2.9-5.9 5.2-9.4 6.9-4 1.6-8.3 2.5-12.6 2.4zM1463.3 85.7c-7.1-7.6-17-11.4-29.5-11.4-8.5 0-16 1.9-22.3 5.6-5.2 3.1-9.9 7.1-13.9 11.7-2.8-4.7-6.7-8.7-11.3-11.7-5.7-3.7-12.7-5.6-20.8-5.6-4 0-7.9.5-11.7 1.7-3.4 1-6.6 2.5-9.5 4.5-2.7 1.8-5.2 3.9-7.4 6.3-.6.6-1.1 1.2-1.6 1.8v-12h-29.5v112.1h29.5V126c0-7.7 1.9-13.8 5.7-18.1s8.6-6.3 14.8-6.3 10.9 1.9 14.2 5.9 5.1 10 5.1 17.8v63.4h29.5v-62.8c0-8 1.9-14.1 5.7-18.2s8.7-6.1 14.8-6.1 10.9 1.9 14.2 5.9 5.1 10.1 5.1 18v63.2h29.5v-70.9c0-13.8-3.5-24.5-10.6-32.1z"/><path class="st0" d="M533.2 79.3h29.5v112.1h-29.5zM564.4 53.1c0-9-7.3-16.3-16.3-16.3s-16.3 7.3-16.3 16.3 7.3 16.3 16.3 16.3c8.9 0 16.3-7.3 16.3-16.3z"/><path class="st1" d="M1042.5 174.8c0-9-7.3-16.4-16.3-16.4s-16.4 7.3-16.4 16.3 7.3 16.4 16.3 16.4c9.1 0 16.4-7.3 16.4-16.3z"/><path class="st0" d="M508.8 123c-2.9-3.1-6.2-5.7-9.8-7.8-2.5-1.4-5-2.6-7.6-3.8l-1.7-.7 1.5-1c1.3-.8 2.5-1.7 3.8-2.7 2.8-2.1 5.2-4.6 7.2-7.4 2.1-3 3.8-6.2 5-9.7 1.3-4.1 2-8.4 1.9-12.7v-.4c.2-9.8-3.6-19.3-10.7-26.2-9.2-9.2-22.8-13.9-40.6-13.9h-69.5v154.7h71.6c7.8.1 15.7-.9 23.3-2.8 6.5-1.6 12.7-4.3 18.2-8.1 5-3.5 9.1-8.2 11.9-13.6 2.9-5.8 4.3-12.2 4.2-18.7v-.4c.1-4.8-.7-9.6-2.3-14.1-1.4-4-3.6-7.6-6.4-10.7zm-90.9-23.3V63.5h36.7c8.2 0 14.5 1.6 18.8 4.8s6.2 7.3 6.2 12.9v.4c0 6.4-2.3 11.1-7 14.2s-11.6 4.8-19.9 4.8H418v-.9h-.1zm70.1 45.8c0 6.4-2.3 11.1-7.1 14.3s-11.8 4.9-20.5 4.9h-42.5v-38.5h40.5c10.1 0 17.7 1.7 22.5 5s7 7.7 7 13.8l.1.5zM878.5 77.3c-10-.4-18.5 2-25.1 7.2-4.2 3.3-7.8 7.2-10.6 11.8v-17h-29.5v112.1h29.5v-43.2c-.1-6.1.7-12.1 2.5-17.9 1.4-4.6 3.8-8.8 7-12.5 3-3.2 6.7-5.7 10.8-7.3 4.5-1.7 9.2-2.5 14-2.5h3.6V77.4l-2.2-.1zM388.4 288.5l7.7-.7-.1 2c0 2.2.5 4.3 1.5 6.2 1.2 2 3 3.5 5.2 4.4 2.7 1.1 5.6 1.6 8.6 1.5 4.7 0 8.3-1 10.8-3.1 2.3-1.7 3.6-4.3 3.7-7.1 0-1.9-.7-3.6-2-5-1.3-1.5-5-3.5-11-6.1-3.3-1.3-6.4-2.8-9.5-4.6-2.3-1.4-4.3-3.4-5.9-5.7-1.3-2.1-1.9-4.5-1.9-7 0-2.9.8-5.7 2.5-8.1 1.8-2.6 4.4-4.5 7.3-5.6 3.4-1.3 7.1-2 10.8-1.9 4.2-.1 8.3.7 12.1 2.4 5.5 2.5 9.2 8 9.4 14.1 0 .2 0 .6-.1 1.2l-7.6.6c0-1.3-.1-2.6-.5-3.9-.5-1.6-1.4-3-2.5-4.2-1.3-1.2-2.9-2.1-4.6-2.7-2.1-.7-4.4-1-6.6-1-4.3 0-7.6 1-10 2.9-2.9 2.4-3.6 6.5-1.6 9.7 1.1 1.4 2.5 2.6 4.1 3.4 1.4.8 4.7 2.3 9.9 4.6 3 1.2 5.9 2.7 8.7 4.4 2 1.3 3.7 3.1 4.9 5.1 1.2 2.1 1.8 4.5 1.7 6.9 0 3.2-1 6.3-2.9 8.8-2 2.8-4.8 4.9-8 6.2-3.7 1.5-7.7 2.3-11.8 2.2-6.6 0-12.1-1.5-16.3-4.4s-6-8-6-15.5zM441.7 307.5l12.3-58.7h7.2l-4.7 22.6c2.2-2.3 4.7-4.2 7.5-5.7 2.2-1.1 4.7-1.7 7.2-1.7 3.5 0 6.2.9 8.2 2.8 2 1.9 3.1 4.6 2.9 7.4-.2 2.8-.6 5.5-1.3 8.2l-5.2 25.1h-7.3l5.4-25.8c.6-2.3.9-4.6 1.2-7 0-1.3-.5-2.5-1.4-3.4-1.2-1-2.6-1.4-4.1-1.3-5.4 0-10.4 3-13.1 7.7-1.4 2.4-2.6 6.3-3.7 11.6l-3.8 18.3-7.3-.1zM517.7 302.2c-2.2 1.9-4.6 3.5-7.3 4.7-2.4 1-4.9 1.5-7.5 1.5-3.5.2-6.9-1.1-9.5-3.5-2.4-2.3-3.7-5.5-3.6-8.9 0-2.2.5-4.4 1.6-6.3 1.1-1.8 2.5-3.3 4.3-4.4 2-1.2 4.2-2 6.5-2.4 3.1-.4 6.2-.7 9.3-.8 4.5-.2 7.8-.6 9.8-1.4.5-1.6.8-3.3.8-4.9.1-1.6-.6-3-1.8-4-1.7-1.3-4.1-2-7.4-2-2.6-.1-5.2.6-7.5 2-2 1.4-3.5 3.4-4.2 5.8l-7.2-.6c1.2-3.9 3.7-7.3 7.1-9.7 3.2-2.2 7.3-3.4 12.3-3.4 5.3 0 9.4 1.2 12.5 3.8 2.3 1.7 3.6 4.4 3.5 7.3-.1 2.7-.4 5.3-1 7.9l-2.4 10.6c-.7 2.7-1 5.4-1.1 8.2.1 2 .4 3.9.9 5.8h-7.3c-.5-1.8-.7-3.5-.8-5.3zm2.7-16.2c-1.1.4-2.1.7-3.3.9-1.2.2-3.1.4-5.8.7-3 .2-6.1.6-9 1.4-1.6.5-2.9 1.4-3.9 2.7-.9 1.2-1.3 2.7-1.3 4.2-.1 1.9.7 3.7 2.1 5 1.7 1.4 3.8 2.1 6 2 5.1 0 9.7-2.8 12.2-7.2 1.5-3.1 2.5-6.4 3-9.7zM536.2 307.5l9-42.6h6.4l-1.8 8.7c1.7-2.8 3.9-5.3 6.4-7.3 1.8-1.5 4.1-2.3 6.4-2.3 1.9.1 3.7.6 5.3 1.5l-3 6.8c-1.2-.9-2.6-1.4-4.1-1.4-2.5 0-5.2 1.4-7.8 4.3s-4.8 7.9-6.3 15.3l-3.6 17.1h-6.9zM561.7 323.8l12.3-58.9h6.7l-1.2 6c1.9-2.1 4.2-4 6.7-5.4 1.9-1 4.1-1.5 6.2-1.5 3.9-.1 7.5 1.5 10.1 4.4 2.7 3 4 7.2 4 12.7 0 4.1-.7 8.3-2.2 12.1-1.2 3.2-3.1 6.2-5.4 8.8-1.9 2-4.1 3.7-6.5 4.9-2.1 1-4.4 1.5-6.7 1.5-5.1 0-9.1-2.6-11.9-7.8l-4.8 23.1-7.3.1zm14.3-33.7c-.1 2.2.1 4.5.7 6.6.7 1.7 1.8 3.2 3.3 4.2 1.5 1.1 3.4 1.6 5.2 1.6 4.2 0 7.6-2.3 10.1-7 2.5-4.4 3.8-9.3 3.8-14.4 0-3.6-.9-6.4-2.6-8.4-1.6-1.9-4-3-6.5-2.9-1.8 0-3.6.5-5.2 1.5-1.7 1.1-3.2 2.6-4.4 4.4-1.5 2.2-2.6 4.6-3.4 7.1-.5 2.4-.9 4.8-1 7.3zM637.7 307.5l12.3-58.7h24.5c4.3 0 7.4.5 9.6 1.5 2.2 1.1 4.1 2.8 5.2 5 1.4 2.4 2.1 5.2 2.1 8-.1 5-1.9 9.8-5.2 13.6-1.3 1.5-2.9 2.7-4.6 3.7-1.6.8-3.3 1.5-5 1.8-3.7.9-7.6 1.3-11.4 1.3h-14.7l-5 23.9-7.8-.1zM652 277h12.9c5 0 8.7-.5 11.1-1.6 4.7-2.2 7.7-6.8 7.8-12 .1-1.6-.3-3.3-1.2-4.7-.7-1.2-1.8-2.1-3.2-2.7-1.4-.6-4-.9-7.9-.9h-15.1L652 277zM693.3 307.5l8.9-42.6h6.4l-1.8 8.7c1.7-2.8 3.9-5.3 6.5-7.3 1.8-1.5 4.1-2.3 6.4-2.3 1.9.1 3.7.6 5.3 1.5l-3 6.8c-1.2-.9-2.6-1.4-4.1-1.4-2.5 0-5.1 1.4-7.8 4.3-2.7 2.8-4.8 7.9-6.3 15.3l-3.6 17.1h-6.9zM722 307.5l8.9-42.6h7.2l-8.8 42.6H722zm10.6-50.5l1.7-8.2h7.2l-1.7 8.2h-7.2zM771.5 292l7.3.8c-1.8 5.3-4.4 9.3-7.7 11.8s-7.3 3.9-11.5 3.9c-4.2.2-8.3-1.5-11.2-4.5-2.9-3-4.3-7.2-4.3-12.5 0-4.7.9-9.4 2.7-13.7 1.6-4.1 4.4-7.7 8-10.2 3.5-2.3 7.6-3.6 11.8-3.5 4.5 0 8.2 1.3 10.8 3.9s4 6 4 10.2l-7.1.5c.1-2.3-.8-4.6-2.4-6.3-1.6-1.6-3.8-2.4-6-2.3-2.8-.1-5.5.9-7.6 2.8-2.1 1.8-3.8 4.6-5 8.4-1.2 3.5-1.8 7.1-1.9 10.8 0 3.7.8 6.4 2.4 8.2 1.5 1.8 3.7 2.8 5.9 2.7 2.5-.1 4.9-1 6.7-2.7 2.5-2.3 4.2-5.2 5.1-8.3zM816.1 293.1l7.1.7c-1 3.5-3.4 6.8-7 10-3.6 3.1-8.2 4.8-13 4.7-3 0-6-.7-8.7-2.2-2.6-1.4-4.7-3.7-6-6.4-1.4-3-2.2-6.2-2.1-9.5 0-4.7 1.1-9.3 3.2-13.6 1.8-4 4.7-7.3 8.3-9.7 3.3-2.1 7.2-3.2 11.1-3.2 5.1 0 9.1 1.6 12.1 4.7s4.6 7.5 4.6 12.9c0 2.2-.2 4.3-.6 6.4h-31.4c-.1.7-.2 1.5-.2 2.2 0 4 .9 7 2.7 9.1 1.6 2 4.1 3.2 6.7 3.1 2.6 0 5.2-.9 7.3-2.4 2.8-1.6 4.7-4 5.9-6.8zM795 282.5h23.9v-1.6c0-3.7-.9-6.5-2.7-8.4-1.8-1.9-4.4-3-7-2.9-3.1 0-6.1 1.1-8.5 3.2-2.5 2.2-4.4 5.4-5.7 9.7zM832.8 292.9l7.2-.4c0 1.8.3 3.6 1 5.3.7 1.6 2 2.8 3.5 3.6 1.9.9 3.9 1.4 6 1.4 3.2 0 5.6-.6 7.2-1.9 2.5-1.6 3.2-5 1.5-7.5-.2-.2-.3-.4-.5-.6-1-1.1-3.4-2.5-7.2-4.1-2.5-1-5-2.2-7.4-3.5-1.6-1-3-2.3-4-3.9-.9-1.5-1.4-3.3-1.3-5.1 0-3.3 1.5-6.5 4-8.6 2.7-2.4 6.4-3.6 11.2-3.6 5.3 0 9.4 1.2 12.2 3.7 2.8 2.5 4.4 6 4.3 9.8l-7.1.5c0-2.3-1-4.6-2.7-6.1-1.7-1.5-4.2-2.3-7.3-2.3-2.1-.1-4.2.5-5.8 1.7-1.2.8-2 2.2-2.1 3.7 0 1.4.7 2.7 1.8 3.5.8.7 2.9 1.8 6.2 3.2 5.6 2.4 9 4.3 10.5 5.7 2.2 2.1 3.5 5 3.5 8.1 0 2.2-.7 4.4-2 6.2-1.4 2.2-3.5 3.9-5.9 4.9-3 1.3-6.2 1.9-9.4 1.8-4.5.1-8.9-1.1-12.5-3.6-3.5-2.4-5.1-6.4-4.9-11.9zM876.8 307.5l1.8-8.2h8.2l-1.8 8.2h-8.2zM926.7 288.5l7.7-.7-.1 2c0 2.2.5 4.3 1.6 6.2 1.2 2 3 3.5 5.2 4.4 2.7 1.1 5.7 1.6 8.6 1.5 4.7 0 8.3-1 10.7-3.1s3.7-4.4 3.7-7.1c0-1.8-.7-3.6-1.9-5-1.3-1.5-5-3.5-10.9-6.1-3.3-1.3-6.4-2.8-9.5-4.6-2.3-1.4-4.4-3.4-5.9-5.7-1.3-2.1-1.9-4.5-1.9-7 0-2.9.8-5.7 2.5-8.1 1.8-2.6 4.3-4.5 7.3-5.6 3.4-1.3 7.1-2 10.8-1.9 4.2-.1 8.3.7 12.1 2.4 3 1.3 5.5 3.6 7.2 6.4 1.4 2.3 2.2 5 2.2 7.7v1.2l-7.6.6c0-1.3-.1-2.6-.4-3.9-.5-1.6-1.3-3-2.5-4.2-1.3-1.2-2.9-2.1-4.6-2.7-2.1-.7-4.4-1-6.6-1-4.2 0-7.6 1-10 2.9-1.8 1.4-2.8 3.6-2.7 5.8 0 1.4.4 2.7 1.1 3.9 1.1 1.4 2.4 2.6 4 3.4 1.4.8 4.7 2.3 9.9 4.6 3 1.2 5.9 2.7 8.7 4.4 2 1.3 3.7 3.1 4.9 5.1 1.2 2.1 1.8 4.5 1.7 6.9 0 3.2-1 6.2-2.9 8.8-2 2.8-4.8 4.9-8 6.2-3.7 1.5-7.7 2.3-11.8 2.2-6.6 0-12.1-1.5-16.3-4.4s-6.3-8-6.3-15.5zM980 307.5l8.9-42.6h7.3l-1.5 7c2.1-2.5 4.5-4.6 7.3-6.2 2.1-1.1 4.5-1.7 6.9-1.7 2.4-.1 4.7.6 6.6 2.1 1.8 1.5 3.1 3.6 3.5 5.9 1.9-2.4 4.2-4.5 6.8-6 2.3-1.3 4.9-2 7.6-2 3.6 0 6.2.8 8 2.5 1.9 1.9 2.8 4.5 2.7 7.1-.1 2.2-.4 4.4-.9 6.5l-5.8 27.4h-7.2l5.8-28.1c.4-1.6.7-3.3.8-4.9.1-1.2-.4-2.4-1.3-3.3-1.1-.8-2.4-1.3-3.7-1.2-2.3.1-4.6.7-6.6 2-2.2 1.2-4 3-5.2 5.1-1.6 3.1-2.7 6.4-3.3 9.8l-4.4 20.7h-7.3l6-28.8c.3-1.4.5-2.8.6-4.1.1-1.3-.4-2.5-1.3-3.4-.9-.9-2.1-1.3-3.4-1.3-2.3.1-4.5.8-6.5 2-2.3 1.3-4.2 3.2-5.5 5.5-1.7 3.1-2.9 6.5-3.5 10l-4.2 20.1-7.2-.1zM1078.8 302.2c-2.2 1.9-4.6 3.5-7.3 4.7-2.4 1-4.9 1.5-7.5 1.5-3.5.2-6.9-1.1-9.5-3.5-2.4-2.3-3.7-5.5-3.6-8.9 0-2.2.5-4.4 1.6-6.3 1.1-1.8 2.5-3.3 4.3-4.4 2-1.2 4.2-2 6.6-2.4 3.1-.4 6.2-.7 9.3-.8 4.6-.2 7.8-.6 9.8-1.4.5-1.6.8-3.3.8-4.9.1-1.6-.6-3-1.8-4-1.7-1.3-4.2-2-7.4-2-2.6-.1-5.2.6-7.5 2-2 1.4-3.5 3.4-4.2 5.8l-7.3-.7c1.3-3.9 3.8-7.3 7.1-9.7 3.2-2.2 7.3-3.4 12.3-3.4 5.3 0 9.4 1.2 12.5 3.8 2.3 1.7 3.6 4.4 3.5 7.3 0 2.7-.4 5.3-1 7.9l-2.3 10.6c-.7 2.7-1.1 5.4-1.1 8.2.1 2 .4 3.9.9 5.8h-7.3c-.6-1.6-.8-3.4-.9-5.2zm2.6-16.2c-1.1.4-2.2.7-3.3.9-1.1.2-3.1.5-5.8.7-3 .2-6.1.6-9 1.4-1.6.5-2.9 1.4-3.9 2.7-.9 1.2-1.3 2.7-1.3 4.2-.1 1.9.7 3.7 2.1 5 1.7 1.4 3.8 2.1 6 2 2.5 0 4.9-.7 7-2 2.2-1.3 4-3.1 5.2-5.3 1.6-3 2.6-6.3 3-9.6zM1097.4 307.5l8.8-42.6h6.4l-1.8 8.7c1.7-2.8 3.9-5.2 6.4-7.3 1.8-1.5 4.1-2.3 6.5-2.3 1.9.1 3.7.6 5.3 1.5l-3 6.8c-1.2-.9-2.6-1.4-4.1-1.4-2.6 0-5.2 1.4-7.8 4.3s-4.7 7.9-6.2 15.3l-3.6 17.1h-6.9v-.1zM1143.3 301.6l-1.2 5.9c-1.7.4-3.4.7-5.1.7-2.5.1-4.9-.6-6.9-2.1-1.3-1.1-2-2.7-1.9-4.4.2-2.2.5-4.3 1-6.5l5.2-24.7h-5.7l1.2-5.6h5.7l2.2-10.4 8.3-5-3.2 15.4h7.2l-1.2 5.6h-7.1l-5 23.5c-.4 1.8-.7 3.6-.9 5.4-.1.7.2 1.5.7 2 .7.5 1.6.8 2.4.7 1.4 0 2.8-.1 4.3-.5zM1191.1 307.5l10.9-52.1h-19.3l1.4-6.7h46.2l-1.4 6.7h-19.1l-10.8 52.1h-7.9zM1220.9 307.5l8.9-42.6h6.4l-1.8 8.7c1.7-2.8 3.9-5.2 6.4-7.3 1.8-1.5 4.1-2.3 6.5-2.3 1.9.1 3.7.6 5.3 1.5l-3 6.8c-1.2-.9-2.7-1.4-4.2-1.4-2.5 0-5.1 1.4-7.8 4.3-2.7 2.8-4.8 7.9-6.3 15.3l-3.6 17.1-6.8-.1zM1278.5 302.2c-2.2 1.9-4.6 3.5-7.2 4.7-2.3 1-4.9 1.5-7.4 1.5-3.5.2-6.9-1.1-9.5-3.5-2.4-2.3-3.7-5.5-3.6-8.9 0-2.2.5-4.4 1.6-6.3 1.1-1.8 2.5-3.3 4.3-4.4 2-1.2 4.3-2 6.6-2.4 3.1-.4 6.2-.7 9.2-.8 4.6-.2 7.8-.6 9.8-1.4.5-1.6.8-3.3.8-4.9.1-1.6-.6-3-1.8-4-1.7-1.3-4.2-2-7.4-2-2.6-.1-5.3.6-7.5 2-2 1.4-3.5 3.4-4.2 5.8l-7.3-.7c1.3-3.9 3.8-7.3 7.1-9.7 3.2-2.2 7.3-3.4 12.3-3.4 5.2 0 9.4 1.2 12.5 3.8 2.3 1.7 3.6 4.4 3.5 7.3 0 2.7-.4 5.3-1 7.9l-2.4 10.6c-.6 2.7-1 5.4-1.1 8.2.1 2 .4 3.9.9 5.8h-7.3c-.5-1.7-.8-3.4-.9-5.2zm2.7-16.2c-1.1.4-2.1.7-3.3.9-1.2.2-3.1.4-5.8.7-3 .2-6 .6-8.9 1.4-1.6.5-3 1.4-4 2.7-.9 1.2-1.3 2.7-1.3 4.2 0 1.9.7 3.7 2.1 5 1.7 1.4 3.8 2.1 6 2 2.4 0 4.8-.7 6.9-1.9 2.2-1.3 4-3.1 5.3-5.3 1.5-3.1 2.5-6.4 3-9.7zM1325.8 301.3c-4.2 4.8-8.5 7.1-13 7.1-3.9.1-7.6-1.5-10.1-4.5-2.7-3-4-7.3-4-13-.1-4.9 1-9.8 3.2-14.2 1.8-3.9 4.5-7.2 8-9.6 2.8-2 6.1-3.1 9.6-3.2 5.3 0 9.3 2.5 12 7.6l4.8-22.9h7.2l-12.3 58.8h-6.7l1.3-6.1zm-19.8-11.6c-.1 2.4.2 4.7.9 7 .6 1.7 1.6 3.2 3 4.3 1.5 1.1 3.3 1.7 5.1 1.7 3.3 0 6.2-1.7 8.9-5.1 3.6-4.5 5.4-10.1 5.4-16.8 0-3.4-.9-6-2.7-7.9-1.7-1.9-4.1-2.9-6.7-2.8-1.7 0-3.3.4-4.8 1.1-1.7 1-3.1 2.4-4.2 4-1.6 2.1-2.7 4.5-3.5 7.1-.9 2.3-1.4 4.8-1.4 7.4zM1344.1 307.5l8.9-42.6h7.2l-8.9 42.6h-7.2zm10.6-50.5l1.7-8.2h7.2l-1.7 8.2h-7.2zM1364.3 307.5l8.9-42.6h6.6l-1.6 7.4c2.3-2.5 5-4.7 8-6.4 2.3-1.3 5-2 7.6-2 3-.2 5.9.8 8.1 2.8 2 2 3.1 4.7 2.9 7.5-.1 2.5-.4 5-1 7.4l-5.4 25.8h-7.2l5.6-27c.5-1.9.8-3.9.9-5.8 0-1.3-.5-2.6-1.5-3.4-1.2-1-2.7-1.4-4.2-1.3-3.7 0-7.3 1.4-9.9 4-2.9 2.7-5 7.2-6.4 13.7l-4.1 19.8-7.3.1zM1411.2 311.3l7.3.7c-.1 1.3.1 2.6.6 3.7.5.9 1.2 1.5 2.1 1.9 1.6.6 3.4.9 5.1.9 4.4 0 7.5-1.1 9.5-3.4 1.2-1.5 2.4-4.9 3.5-10l.7-3.4c-3.8 3.8-7.8 5.7-12 5.7-4.1.1-8.1-1.7-10.8-4.8-2.9-3.2-4.3-7.7-4.3-13.5 0-4.6 1.1-9.2 3.4-13.2 1.9-3.6 4.7-6.7 8.1-9.1 2.9-1.9 6.3-3 9.7-3 5.6 0 9.9 2.6 12.9 7.9l1.4-7h6.7l-8.6 41.1c-.6 3.7-1.9 7.3-3.7 10.6-1.5 2.5-3.7 4.6-6.3 5.9-2.9 1.4-6.2 2.1-9.4 2.1-3 .1-6-.4-8.8-1.3-2.2-.7-4.1-2-5.5-3.9-1.2-1.7-1.9-3.7-1.8-5.8 0-.6.1-1.3.2-2.1zm9.1-22.6c-.1 2.2.2 4.5.8 6.6.6 1.9 1.8 3.5 3.4 4.7 1.4 1.1 3.2 1.7 5 1.6 2.6-.1 5.1-.9 7.1-2.5 2.6-2 4.6-4.7 5.7-7.8 1.4-3.2 2.1-6.6 2.2-10 .2-3.1-.9-6.1-2.9-8.4-1.8-2-4.4-3.2-7.2-3.1-1.8 0-3.6.5-5.2 1.4-1.8 1.1-3.4 2.6-4.6 4.3-1.5 2.1-2.6 4.4-3.2 6.9-.6 2.1-1 4.2-1.1 6.3zM1460.9 307.5l1.7-8.2h8.2l-1.8 8.2h-8.1z"/><path class="st2" d="M291.1 49.9c-66.5-66.6-174.7-66.6-241.2 0s-66.5 174.8 0 241.3 174.8 66.5 241.2 0 66.6-174.8 0-241.3z"/><path class="st0" d="M123 218s2 14.6 14.3 21.4l-3.3-6.1s6.2-16.4-11-15.3z"/><path class="st0" d="M282.5 61.3C220.7-.5 120.3-.5 58.6 61.3s-61.8 162.3 0 224 162.2 61.8 223.9 0 61.8-162.3 0-224zm-16.4 207.6c-1.7 1.7-3.4 3.3-5.2 4.9-38 31-67.4 15.6-67.7 15.6-19.9-4-29.7-4-35.3-7.8-1.4-.9-5.9-3.4-6.9-2.8-4.1 2.4-9.6 3.6-15.4-.9-.5-.4-1-.9-1.4-1.3-6.3-6.3-4.2-12.8-2.1-15.1 1.4-1.5-1.1-5.6-1.1-5.6s-7.5-11.1-12.5-17.7c-5.6-7.3-6.4-21.8-6.4-22l-.1-.2c-5.7-6.7-6.3-8.8-8.2-12.1-1.3-1.9-2.7-3.7-4.4-5.3-.9-.9-1.8-1.9-2.6-2.9-.2-.3-.2-.6-.1-.9.5-3.1 7.3-10.1 8.7-11 1.8-1.2 9.5-5.8 9.5-5.8s4.3-6.8 11.7-6.8c6.6 0 10.7-.4 22.2 3.4l4.8 1.5c8 2.6 15 5.6 20.7 8 3.7 1.7 7.6 3.2 11.5 4.5 9.9 2.6 27.3-5.4 31-8.8 6-5.5 8.6-9.2 8.7-12.2 0-1.7-.7-3.2-2.4-5-.9-.8-2-2.4-3.5-3.8-.2-.3-.5-.5-.8-.7-16.7-17.8-13.8-29-13.8-29.1.7-8-3.9-13.1-8.8-18.5l-.8-1-.6-.6c7.1 1.2 12 4 25.9 5.6 7.9.9 5.4.8 11.7.6 8.7-.3 15.6-1 16.1-3-.9-.7-4.7.2-23.2-6.9-8.6-3.3-9.9-3.8-15.4-5.6-7-2.4-14.6-5.7-14.6-5.7 30.2 7.9 40 11 53.8 11.2 3.5.1 7-.2 10.4-.9 2-.4 8-1.7 8.7-3.8.2-.4-5.8 1-17-2.7-35.2-11.6-38.2-17.5-57.7-25-6.8-2.6-9-4.1-29.6-9.4-9.4-2.4-23.7-1-25.6.2-26.7-6.3-32.8-5.6-40.6-3.9C149.9 26 220.4 32.1 266.1 77.8c6.1 6.1 11.6 12.8 16.5 20l.6 1c35.5 53.5 28.3 124.7-17.1 170.1zm-88.7-152.6c13.2 4.7 17.5 18.8 17.5 18.8-16.9 3.9-13.3-13.4-13.3-13.4l-4.2-5.4z"/></svg>