<svg width="565" height="52" viewBox="0 0 565 52" fill="none" xmlns="http://www.w3.org/2000/svg">
<g clip-path="url(#clip0_1346_26639)">
<path fill-rule="evenodd" clip-rule="evenodd" d="M455.603 45.589H560C562.781 45.589 565.066 43.2485 565.066 40.3992V5.18982C565.066 2.34051 562.781 0 560 0H455.603V8.34442C455.603 8.85323 455.403 9.36204 455.103 9.76908L449.5 16.3836C449.2 16.7906 449 17.2994 449 17.8082V27.4755C449 27.9843 449.2 28.4932 449.5 28.9002L455.103 35.5147C455.403 35.9217 455.603 36.4305 455.603 36.9393V45.589Z" fill="#FF444F"/>
<path d="M445.397 45.2838H38.3173C37.817 45.2838 37.3168 45.4873 36.9166 45.7926L30.4136 51.4912C30.0134 51.7965 29.5132 52 29.013 52H19.5086C19.0083 52 18.5081 51.7965 18.1079 51.4912L11.6049 45.7926C11.2047 45.4873 10.7045 45.2838 10.2043 45.2838H5.50208C3.00093 45.2838 1 43.2485 1 40.7045V4.57926C1 2.03523 3.00093 0 5.50208 0H10.2043C10.7045 0 11.2047 0.203522 11.6049 0.508806L18.1079 6.20744C18.5081 6.51272 19.0083 6.71624 19.5086 6.71624H29.013C29.5132 6.71624 30.0134 6.51272 30.4136 6.20744L36.9166 0.508806C37.3168 0.203522 37.817 0 38.3173 0H452V8.34442C452 8.85323 451.8 9.36204 451.5 9.76908L445.897 16.3836C445.597 16.7906 445.397 17.2994 445.397 17.8082V27.4755C445.397 27.9843 445.597 28.4932 445.897 28.9002L451.5 35.5147C451.8 35.9217 452 36.4305 452 36.9393V45.2838H445.397Z" fill="white"/>
<mask id="mask0_1346_26639" style="mask-type:alpha" maskUnits="userSpaceOnUse" x="1" y="0" width="450" height="52">
<path d="M443.897 45.2838H38.3173C37.817 45.2838 37.3168 45.4873 36.9166 45.7926L30.4136 51.4912C30.0134 51.7965 29.5132 52 29.013 52H19.5086C19.0083 52 18.5081 51.7965 18.1079 51.4912L11.6049 45.7926C11.2047 45.4873 10.7045 45.2838 10.2043 45.2838H5.50208C3.00093 45.2838 1 43.2485 1 40.7045V4.57926C1 2.03523 3.00093 0 5.50208 0H10.2043C10.7045 0 11.2047 0.203522 11.6049 0.508806L18.1079 6.20744C18.5081 6.51272 19.0083 6.71624 19.5086 6.71624H29.013C29.5132 6.71624 30.0134 6.51272 30.4136 6.20744L36.9166 0.508806C37.3168 0.203522 37.817 0 38.3173 0H450.5V8.34442C450.5 8.85323 450.3 9.36204 450 9.76908L444.397 16.3836C444.097 16.7906 443.897 17.2994 443.897 17.8082V27.4755C443.897 27.9843 444.097 28.4932 444.397 28.9002L450 35.5147C450.3 35.9217 450.5 36.4305 450.5 36.9393V45.0802L443.897 45.2838Z" fill="white"/>
</mask>
<g mask="url(#mask0_1346_26639)">
<path d="M-25 0H60.16L75.76 52H-25V0Z" fill="#D6DADB"/>
<path d="M19 16C19 12.6863 21.6863 10 25 10H45C48.3137 10 51 12.6863 51 16V36C51 39.3137 48.3137 42 45 42H25C21.6863 42 19 39.3137 19 36V16Z" fill="#2A3052"/>
<path fill-rule="evenodd" clip-rule="evenodd" d="M36.4356 26.1022C36.427 25.99 36.3762 25.8851 36.2934 25.8089C36.2691 25.7867 36.2421 25.7553 36.2116 25.7197C36.1749 25.677 36.133 25.6283 36.0845 25.5822C36.0718 25.5667 36.0568 25.5532 36.04 25.5422C35.0874 24.5301 35.205 23.8801 35.2169 23.8142L35.2178 23.8089C35.2191 23.5993 35.173 23.392 35.083 23.2027C34.9929 23.0134 34.8613 22.8469 34.6978 22.7156L34.6489 22.6534C34.6359 22.6428 34.6239 22.6309 34.6134 22.6178C35.1186 22.7592 35.6322 22.8691 36.1511 22.9467C36.3812 22.9885 36.6156 23.002 36.8489 22.9867C37.3689 22.9867 37.7778 22.9245 37.8045 22.8045C37.3322 22.7186 36.8704 22.583 36.4267 22.4L36.408 22.3928C35.918 22.2037 35.836 22.172 35.5156 22.0667C35.0978 21.9289 34.6489 21.7334 34.6489 21.7334C34.8233 21.7796 34.9864 21.823 35.1394 21.8638C36.5462 22.2385 37.1074 22.388 37.8489 22.4C38.0549 22.4051 38.2608 22.3857 38.4622 22.3422C38.5822 22.3422 38.9422 22.24 38.9822 22.1156C38.6378 22.1209 38.295 22.0668 37.9689 21.9556C36.6799 21.5277 36.1186 21.2336 35.6052 20.9646C35.2866 20.7976 34.9865 20.6403 34.5422 20.4667C33.9721 20.2286 33.3815 20.0426 32.7778 19.9111C32.2777 19.7955 31.7579 19.7955 31.2578 19.9111C29.6711 19.5378 29.3111 19.5778 28.8445 19.68C30.3857 18.6948 32.217 18.2652 34.0356 18.4622V14.8889H29.2222C27.8078 14.8889 26.4512 15.4508 25.451 16.451C24.4508 17.4512 23.8889 18.8078 23.8889 20.2222V31.7778C23.8889 33.1923 24.4508 34.5488 25.451 35.549C26.4512 36.5492 27.8078 37.1111 29.2222 37.1111H34.0445V33.2578C33.8434 33.2224 33.6632 33.1935 33.5018 33.1677C32.9747 33.0833 32.6465 33.0308 32.4356 32.8845C32.3511 32.8311 32.0845 32.6889 32.0222 32.7245C31.8849 32.8155 31.7215 32.8592 31.557 32.8488C31.3925 32.8383 31.2359 32.7744 31.1111 32.6667C31.081 32.6439 31.0527 32.6186 31.0267 32.5911C30.8945 32.4882 30.8075 32.3379 30.7843 32.1719C30.7611 32.006 30.8034 31.8375 30.9022 31.7022C30.9867 31.6134 30.8356 31.3689 30.8356 31.3689C30.8356 31.3689 30.3911 30.7067 30.0889 30.3111C29.8638 29.9103 29.7331 29.4634 29.7067 29.0045C29.5166 28.7802 29.354 28.534 29.2222 28.2711C29.1469 28.1565 29.059 28.0506 28.96 27.9556C28.9043 27.9014 28.8523 27.8435 28.8045 27.7822C28.7968 27.7637 28.7968 27.743 28.8045 27.7245C28.9264 27.4703 29.1041 27.247 29.3245 27.0711C29.4311 27 29.8889 26.7245 29.8889 26.7245C29.962 26.6108 30.06 26.5153 30.1755 26.4452C30.2911 26.3752 30.421 26.3323 30.5556 26.32C31.0091 26.2933 31.4632 26.3614 31.8889 26.52L32.1734 26.6089C32.5905 26.7451 33 26.9039 33.4 27.0845C33.6212 27.1856 33.8483 27.2731 34.08 27.3467C34.6667 27.5022 35.7067 27.0267 35.9245 26.8267C36.28 26.5022 36.4311 26.2845 36.4356 26.1022ZM33.7067 23.3334L33.4178 22.9556C33.7017 23.074 33.9569 23.2519 34.1662 23.4773C34.3755 23.7027 34.5341 23.9704 34.6311 24.2622C33.4622 24.5422 33.7067 23.3334 33.7067 23.3334Z" fill="white"/>
<path d="M38.5511 32.4222C38.6548 32.3304 38.757 32.2326 38.8578 32.1289C40.2428 30.7488 41.0717 28.9074 41.1867 26.9556H46.1111V31.7778C46.1111 33.1923 45.5492 34.5488 44.549 35.549C43.5488 36.5492 42.1923 37.1111 40.7778 37.1111H35.9556V33.5556C36.9173 33.4558 37.8242 33.0598 38.5511 32.4222Z" fill="white"/>
<path d="M30.6414 29.8392C30.4949 29.6199 30.3974 29.3715 30.3555 29.1111C31.3822 29.04 31 30 31 30L31.2044 30.3822C30.9799 30.2438 30.7879 30.0586 30.6414 29.8392Z" fill="white"/>
<path d="M35.9556 14.8889H40.7778C42.1923 14.8889 43.5488 15.4508 44.549 16.451C45.5492 17.4512 46.1111 18.8078 46.1111 20.2222V25.0311H41.0978C40.9105 23.9476 40.4987 22.9151 39.8889 22L39.84 21.9556C39.5501 21.5318 39.2213 21.136 38.8578 20.7734C38.0385 19.9486 37.0476 19.3143 35.9556 18.9156V14.8889Z" fill="white"/>
</g>
<path d="M492.12 20.37V26H490.6V20.37H488.71V19.02H494.01V20.37H492.12ZM494.521 26V20.75H496.001V21.89H496.051C496.078 21.7433 496.124 21.6033 496.191 21.47C496.258 21.33 496.344 21.2067 496.451 21.1C496.564 20.9933 496.698 20.91 496.851 20.85C497.004 20.7833 497.184 20.75 497.391 20.75H497.651V22.13H497.281C496.848 22.13 496.524 22.1867 496.311 22.3C496.104 22.4133 496.001 22.6233 496.001 22.93V26H494.521ZM501.842 20.75H503.222L501.202 26.81C501.069 27.2167 500.879 27.5167 500.632 27.71C500.392 27.9033 500.046 28 499.592 28H498.672V26.85H499.662L499.842 26.27L498.002 20.75H499.472L500.242 23.2L500.622 24.72H500.682L501.072 23.2L501.842 20.75ZM506.337 26V20.75H507.817V21.64H507.877C507.971 21.3667 508.134 21.13 508.367 20.93C508.601 20.73 508.924 20.63 509.337 20.63C509.877 20.63 510.284 20.81 510.557 21.17C510.837 21.53 510.977 22.0433 510.977 22.71V26H509.497V22.83C509.497 22.49 509.444 22.24 509.337 22.08C509.231 21.9133 509.041 21.83 508.767 21.83C508.647 21.83 508.531 21.8467 508.417 21.88C508.304 21.9067 508.201 21.9533 508.107 22.02C508.021 22.0867 507.951 22.17 507.897 22.27C507.844 22.3633 507.817 22.4733 507.817 22.6V26H506.337ZM514.424 26.12C514.038 26.12 513.691 26.0567 513.384 25.93C513.084 25.8033 512.828 25.62 512.614 25.38C512.408 25.14 512.248 24.85 512.134 24.51C512.021 24.17 511.964 23.79 511.964 23.37C511.964 22.95 512.021 22.57 512.134 22.23C512.248 21.89 512.408 21.6033 512.614 21.37C512.828 21.13 513.084 20.9467 513.384 20.82C513.691 20.6933 514.038 20.63 514.424 20.63C514.811 20.63 515.154 20.6933 515.454 20.82C515.761 20.9467 516.018 21.13 516.224 21.37C516.438 21.6033 516.601 21.89 516.714 22.23C516.828 22.57 516.884 22.95 516.884 23.37C516.884 23.79 516.828 24.17 516.714 24.51C516.601 24.85 516.438 25.14 516.224 25.38C516.018 25.62 515.761 25.8033 515.454 25.93C515.154 26.0567 514.811 26.12 514.424 26.12ZM514.424 24.95C514.718 24.95 514.944 24.86 515.104 24.68C515.264 24.5 515.344 24.2433 515.344 23.91V22.84C515.344 22.5067 515.264 22.25 515.104 22.07C514.944 21.89 514.718 21.8 514.424 21.8C514.131 21.8 513.904 21.89 513.744 22.07C513.584 22.25 513.504 22.5067 513.504 22.84V23.91C513.504 24.2433 513.584 24.5 513.744 24.68C513.904 24.86 514.131 24.95 514.424 24.95ZM517.341 20.75H518.771L519.281 22.87L519.641 24.47H519.681L520.101 22.87L520.701 20.75H522.051L522.661 22.87L523.091 24.47H523.131L523.491 22.87L524.001 20.75H525.371L523.921 26H522.371L521.731 23.78L521.361 22.42H521.331L520.971 23.78L520.331 26H518.811L517.341 20.75Z" fill="white"/>
<path d="M104.416 20.244V27H102.592V20.244H100.324V18.624H106.684V20.244H104.416ZM107.297 27V20.7H109.073V22.068H109.133C109.165 21.892 109.221 21.724 109.301 21.564C109.381 21.396 109.485 21.248 109.613 21.12C109.749 20.992 109.909 20.892 110.093 20.82C110.277 20.74 110.493 20.7 110.741 20.7H111.053V22.356H110.609C110.089 22.356 109.701 22.424 109.445 22.56C109.197 22.696 109.073 22.948 109.073 23.316V27H107.297ZM116.64 27C116.32 27 116.052 26.9 115.836 26.7C115.628 26.5 115.496 26.232 115.44 25.896H115.368C115.272 26.304 115.06 26.616 114.732 26.832C114.404 27.04 114 27.144 113.52 27.144C112.888 27.144 112.404 26.976 112.068 26.64C111.732 26.304 111.564 25.86 111.564 25.308C111.564 24.644 111.804 24.152 112.284 23.832C112.772 23.504 113.432 23.34 114.264 23.34H115.26V22.944C115.26 22.64 115.18 22.4 115.02 22.224C114.86 22.04 114.592 21.948 114.216 21.948C113.864 21.948 113.584 22.024 113.376 22.176C113.168 22.328 112.996 22.5 112.86 22.692L111.804 21.756C112.06 21.38 112.38 21.088 112.764 20.88C113.156 20.664 113.684 20.556 114.348 20.556C115.244 20.556 115.916 20.752 116.364 21.144C116.812 21.536 117.036 22.108 117.036 22.86V25.62H117.624V27H116.64ZM114.18 25.908C114.476 25.908 114.728 25.844 114.936 25.716C115.152 25.588 115.26 25.38 115.26 25.092V24.348H114.396C113.7 24.348 113.352 24.584 113.352 25.056V25.236C113.352 25.468 113.424 25.64 113.568 25.752C113.712 25.856 113.916 25.908 114.18 25.908ZM122.68 25.944H122.62C122.572 26.112 122.496 26.272 122.392 26.424C122.288 26.568 122.16 26.696 122.008 26.808C121.864 26.912 121.696 26.992 121.504 27.048C121.32 27.112 121.128 27.144 120.928 27.144C120.128 27.144 119.524 26.864 119.116 26.304C118.708 25.736 118.504 24.916 118.504 23.844C118.504 22.772 118.708 21.956 119.116 21.396C119.524 20.836 120.128 20.556 120.928 20.556C121.336 20.556 121.696 20.668 122.008 20.892C122.328 21.116 122.532 21.404 122.62 21.756H122.68V18.12H124.456V27H122.68V25.944ZM121.516 25.704C121.852 25.704 122.128 25.624 122.344 25.464C122.568 25.296 122.68 25.068 122.68 24.78V22.92C122.68 22.632 122.568 22.408 122.344 22.248C122.128 22.08 121.852 21.996 121.516 21.996C121.18 21.996 120.9 22.116 120.676 22.356C120.46 22.588 120.352 22.904 120.352 23.304V24.396C120.352 24.796 120.46 25.116 120.676 25.356C120.9 25.588 121.18 25.704 121.516 25.704ZM128.745 27.144C128.265 27.144 127.837 27.068 127.461 26.916C127.085 26.756 126.765 26.536 126.501 26.256C126.245 25.968 126.049 25.62 125.913 25.212C125.785 24.804 125.721 24.348 125.721 23.844C125.721 23.348 125.785 22.9 125.913 22.5C126.041 22.092 126.229 21.744 126.477 21.456C126.733 21.168 127.045 20.948 127.413 20.796C127.781 20.636 128.201 20.556 128.673 20.556C129.193 20.556 129.637 20.644 130.005 20.82C130.381 20.996 130.685 21.232 130.917 21.528C131.157 21.824 131.329 22.168 131.433 22.56C131.545 22.944 131.601 23.348 131.601 23.772V24.3H127.557V24.396C127.557 24.812 127.669 25.144 127.893 25.392C128.117 25.632 128.469 25.752 128.949 25.752C129.317 25.752 129.617 25.68 129.849 25.536C130.081 25.384 130.297 25.204 130.497 24.996L131.385 26.1C131.105 26.428 130.737 26.684 130.281 26.868C129.833 27.052 129.321 27.144 128.745 27.144ZM128.709 21.864C128.349 21.864 128.065 21.984 127.857 22.224C127.657 22.456 127.557 22.768 127.557 23.16V23.256H129.765V23.148C129.765 22.764 129.677 22.456 129.501 22.224C129.333 21.984 129.069 21.864 128.709 21.864ZM135.787 18.624H139.855C140.551 18.624 141.091 18.82 141.475 19.212C141.867 19.604 142.063 20.124 142.063 20.772C142.063 21.092 142.019 21.364 141.931 21.588C141.851 21.812 141.739 21.996 141.595 22.14C141.459 22.284 141.295 22.392 141.103 22.464C140.919 22.528 140.719 22.564 140.503 22.572V22.644C140.703 22.644 140.911 22.68 141.127 22.752C141.351 22.824 141.555 22.94 141.739 23.1C141.923 23.252 142.075 23.452 142.195 23.7C142.323 23.948 142.387 24.252 142.387 24.612C142.387 24.94 142.331 25.252 142.219 25.548C142.115 25.836 141.967 26.088 141.775 26.304C141.583 26.52 141.355 26.692 141.091 26.82C140.827 26.94 140.539 27 140.227 27H135.787V18.624ZM137.611 25.464H139.711C139.951 25.464 140.139 25.4 140.275 25.272C140.419 25.136 140.491 24.948 140.491 24.708V24.3C140.491 24.06 140.419 23.876 140.275 23.748C140.139 23.612 139.951 23.544 139.711 23.544H137.611V25.464ZM137.611 22.056H139.423C139.663 22.056 139.851 21.988 139.987 21.852C140.123 21.716 140.191 21.528 140.191 21.288V20.928C140.191 20.688 140.123 20.5 139.987 20.364C139.851 20.228 139.663 20.16 139.423 20.16H137.611V22.056ZM144.583 20.028C144.223 20.028 143.959 19.948 143.791 19.788C143.631 19.62 143.551 19.408 143.551 19.152V18.888C143.551 18.632 143.631 18.424 143.791 18.264C143.959 18.096 144.223 18.012 144.583 18.012C144.943 18.012 145.203 18.096 145.363 18.264C145.531 18.424 145.615 18.632 145.615 18.888V19.152C145.615 19.408 145.531 19.62 145.363 19.788C145.203 19.948 144.943 20.028 144.583 20.028ZM143.695 20.7H145.471V27H143.695V20.7ZM147.129 27V20.7H148.905V21.768H148.977C149.089 21.44 149.285 21.156 149.565 20.916C149.845 20.676 150.233 20.556 150.729 20.556C151.377 20.556 151.865 20.772 152.193 21.204C152.529 21.636 152.697 22.252 152.697 23.052V27H150.921V23.196C150.921 22.788 150.857 22.488 150.729 22.296C150.601 22.096 150.373 21.996 150.045 21.996C149.901 21.996 149.761 22.016 149.625 22.056C149.489 22.088 149.365 22.144 149.253 22.224C149.149 22.304 149.065 22.404 149.001 22.524C148.937 22.636 148.905 22.768 148.905 22.92V27H147.129ZM158.933 27C158.613 27 158.345 26.9 158.129 26.7C157.921 26.5 157.789 26.232 157.733 25.896H157.661C157.565 26.304 157.353 26.616 157.025 26.832C156.697 27.04 156.293 27.144 155.813 27.144C155.181 27.144 154.697 26.976 154.361 26.64C154.025 26.304 153.857 25.86 153.857 25.308C153.857 24.644 154.097 24.152 154.577 23.832C155.065 23.504 155.725 23.34 156.557 23.34H157.553V22.944C157.553 22.64 157.473 22.4 157.313 22.224C157.153 22.04 156.885 21.948 156.509 21.948C156.157 21.948 155.877 22.024 155.669 22.176C155.461 22.328 155.289 22.5 155.153 22.692L154.097 21.756C154.353 21.38 154.673 21.088 155.057 20.88C155.449 20.664 155.977 20.556 156.641 20.556C157.537 20.556 158.209 20.752 158.657 21.144C159.105 21.536 159.329 22.108 159.329 22.86V25.62H159.917V27H158.933ZM156.473 25.908C156.769 25.908 157.021 25.844 157.229 25.716C157.445 25.588 157.553 25.38 157.553 25.092V24.348H156.689C155.993 24.348 155.645 24.584 155.645 25.056V25.236C155.645 25.468 155.717 25.64 155.861 25.752C156.005 25.856 156.209 25.908 156.473 25.908ZM161.109 27V20.7H162.885V22.068H162.945C162.977 21.892 163.033 21.724 163.113 21.564C163.193 21.396 163.297 21.248 163.425 21.12C163.561 20.992 163.721 20.892 163.905 20.82C164.089 20.74 164.305 20.7 164.553 20.7H164.865V22.356H164.421C163.901 22.356 163.513 22.424 163.257 22.56C163.009 22.696 162.885 22.948 162.885 23.316V27H161.109ZM169.895 20.7H171.551L169.127 27.972C168.967 28.46 168.739 28.82 168.443 29.052C168.155 29.284 167.739 29.4 167.195 29.4H166.091V28.02H167.279L167.495 27.324L165.287 20.7H167.051L167.975 23.64L168.431 25.464H168.503L168.971 23.64L169.895 20.7ZM175.385 18.624H179.453C180.149 18.624 180.689 18.82 181.073 19.212C181.465 19.604 181.661 20.124 181.661 20.772C181.661 21.092 181.617 21.364 181.529 21.588C181.449 21.812 181.337 21.996 181.193 22.14C181.057 22.284 180.893 22.392 180.701 22.464C180.517 22.528 180.317 22.564 180.101 22.572V22.644C180.301 22.644 180.509 22.68 180.725 22.752C180.949 22.824 181.153 22.94 181.337 23.1C181.521 23.252 181.673 23.452 181.793 23.7C181.921 23.948 181.985 24.252 181.985 24.612C181.985 24.94 181.929 25.252 181.817 25.548C181.713 25.836 181.565 26.088 181.373 26.304C181.181 26.52 180.953 26.692 180.689 26.82C180.425 26.94 180.137 27 179.825 27H175.385V18.624ZM177.209 25.464H179.309C179.549 25.464 179.737 25.4 179.873 25.272C180.017 25.136 180.089 24.948 180.089 24.708V24.3C180.089 24.06 180.017 23.876 179.873 23.748C179.737 23.612 179.549 23.544 179.309 23.544H177.209V25.464ZM177.209 22.056H179.021C179.261 22.056 179.449 21.988 179.585 21.852C179.721 21.716 179.789 21.528 179.789 21.288V20.928C179.789 20.688 179.721 20.5 179.585 20.364C179.449 20.228 179.261 20.16 179.021 20.16H177.209V22.056ZM185.849 27.144C185.385 27.144 184.969 27.068 184.601 26.916C184.241 26.764 183.933 26.544 183.677 26.256C183.429 25.968 183.237 25.62 183.101 25.212C182.965 24.804 182.897 24.348 182.897 23.844C182.897 23.34 182.965 22.884 183.101 22.476C183.237 22.068 183.429 21.724 183.677 21.444C183.933 21.156 184.241 20.936 184.601 20.784C184.969 20.632 185.385 20.556 185.849 20.556C186.313 20.556 186.725 20.632 187.085 20.784C187.453 20.936 187.761 21.156 188.009 21.444C188.265 21.724 188.461 22.068 188.597 22.476C188.733 22.884 188.801 23.34 188.801 23.844C188.801 24.348 188.733 24.804 188.597 25.212C188.461 25.62 188.265 25.968 188.009 26.256C187.761 26.544 187.453 26.764 187.085 26.916C186.725 27.068 186.313 27.144 185.849 27.144ZM185.849 25.74C186.201 25.74 186.473 25.632 186.665 25.416C186.857 25.2 186.953 24.892 186.953 24.492V23.208C186.953 22.808 186.857 22.5 186.665 22.284C186.473 22.068 186.201 21.96 185.849 21.96C185.497 21.96 185.225 22.068 185.033 22.284C184.841 22.5 184.745 22.808 184.745 23.208V24.492C184.745 24.892 184.841 25.2 185.033 25.416C185.225 25.632 185.497 25.74 185.849 25.74ZM192.204 27C191.588 27 191.12 26.844 190.8 26.532C190.488 26.22 190.332 25.764 190.332 25.164V22.08H189.444V20.7H189.888C190.128 20.7 190.292 20.644 190.38 20.532C190.468 20.412 190.512 20.244 190.512 20.028V18.996H192.108V20.7H193.356V22.08H192.108V25.62H193.26V27H192.204ZM199.982 27.144C199.518 27.144 199.102 27.068 198.734 26.916C198.374 26.764 198.066 26.544 197.81 26.256C197.562 25.968 197.37 25.62 197.234 25.212C197.098 24.804 197.03 24.348 197.03 23.844C197.03 23.34 197.098 22.884 197.234 22.476C197.37 22.068 197.562 21.724 197.81 21.444C198.066 21.156 198.374 20.936 198.734 20.784C199.102 20.632 199.518 20.556 199.982 20.556C200.446 20.556 200.858 20.632 201.218 20.784C201.586 20.936 201.894 21.156 202.142 21.444C202.398 21.724 202.594 22.068 202.73 22.476C202.866 22.884 202.934 23.34 202.934 23.844C202.934 24.348 202.866 24.804 202.73 25.212C202.594 25.62 202.398 25.968 202.142 26.256C201.894 26.544 201.586 26.764 201.218 26.916C200.858 27.068 200.446 27.144 199.982 27.144ZM199.982 25.74C200.334 25.74 200.606 25.632 200.798 25.416C200.99 25.2 201.086 24.892 201.086 24.492V23.208C201.086 22.808 200.99 22.5 200.798 22.284C200.606 22.068 200.334 21.96 199.982 21.96C199.63 21.96 199.358 22.068 199.166 22.284C198.974 22.5 198.878 22.808 198.878 23.208V24.492C198.878 24.892 198.974 25.2 199.166 25.416C199.358 25.632 199.63 25.74 199.982 25.74ZM204.199 27V20.7H205.975V21.768H206.047C206.159 21.44 206.355 21.156 206.635 20.916C206.915 20.676 207.303 20.556 207.799 20.556C208.447 20.556 208.935 20.772 209.263 21.204C209.599 21.636 209.767 22.252 209.767 23.052V27H207.991V23.196C207.991 22.788 207.927 22.488 207.799 22.296C207.671 22.096 207.443 21.996 207.115 21.996C206.971 21.996 206.831 22.016 206.695 22.056C206.559 22.088 206.435 22.144 206.323 22.224C206.219 22.304 206.135 22.404 206.071 22.524C206.007 22.636 205.975 22.768 205.975 22.92V27H204.199ZM214.279 18.624H217.435C217.987 18.624 218.491 18.712 218.947 18.888C219.403 19.064 219.791 19.328 220.111 19.68C220.431 20.024 220.679 20.46 220.855 20.988C221.031 21.508 221.119 22.116 221.119 22.812C221.119 23.508 221.031 24.12 220.855 24.648C220.679 25.168 220.431 25.604 220.111 25.956C219.791 26.3 219.403 26.56 218.947 26.736C218.491 26.912 217.987 27 217.435 27H214.279V18.624ZM217.435 25.38C217.979 25.38 218.407 25.228 218.719 24.924C219.031 24.62 219.187 24.132 219.187 23.46V22.164C219.187 21.492 219.031 21.004 218.719 20.7C218.407 20.396 217.979 20.244 217.435 20.244H216.103V25.38H217.435ZM225.179 27.144C224.699 27.144 224.271 27.068 223.895 26.916C223.519 26.756 223.199 26.536 222.935 26.256C222.679 25.968 222.483 25.62 222.347 25.212C222.219 24.804 222.155 24.348 222.155 23.844C222.155 23.348 222.219 22.9 222.347 22.5C222.475 22.092 222.663 21.744 222.911 21.456C223.167 21.168 223.479 20.948 223.847 20.796C224.215 20.636 224.635 20.556 225.107 20.556C225.627 20.556 226.071 20.644 226.439 20.82C226.815 20.996 227.119 21.232 227.351 21.528C227.591 21.824 227.763 22.168 227.867 22.56C227.979 22.944 228.035 23.348 228.035 23.772V24.3H223.991V24.396C223.991 24.812 224.103 25.144 224.327 25.392C224.551 25.632 224.903 25.752 225.383 25.752C225.751 25.752 226.051 25.68 226.283 25.536C226.515 25.384 226.731 25.204 226.931 24.996L227.819 26.1C227.539 26.428 227.171 26.684 226.715 26.868C226.267 27.052 225.755 27.144 225.179 27.144ZM225.143 21.864C224.783 21.864 224.499 21.984 224.291 22.224C224.091 22.456 223.991 22.768 223.991 23.16V23.256H226.199V23.148C226.199 22.764 226.111 22.456 225.935 22.224C225.767 21.984 225.503 21.864 225.143 21.864ZM229.289 27V20.7H231.065V22.068H231.125C231.157 21.892 231.213 21.724 231.293 21.564C231.373 21.396 231.477 21.248 231.605 21.12C231.741 20.992 231.901 20.892 232.085 20.82C232.269 20.74 232.485 20.7 232.733 20.7H233.045V22.356H232.601C232.081 22.356 231.693 22.424 231.437 22.56C231.189 22.696 231.065 22.948 231.065 23.316V27H229.289ZM235.029 20.028C234.669 20.028 234.405 19.948 234.237 19.788C234.077 19.62 233.997 19.408 233.997 19.152V18.888C233.997 18.632 234.077 18.424 234.237 18.264C234.405 18.096 234.669 18.012 235.029 18.012C235.389 18.012 235.649 18.096 235.809 18.264C235.977 18.424 236.061 18.632 236.061 18.888V19.152C236.061 19.408 235.977 19.62 235.809 19.788C235.649 19.948 235.389 20.028 235.029 20.028ZM234.141 20.7H235.917V27H234.141V20.7ZM238.918 27L236.854 20.7H238.606L239.386 23.244L239.974 25.524H240.07L240.658 23.244L241.414 20.7H243.094L241.03 27H238.918ZM251.523 27C251.203 27 250.935 26.9 250.719 26.7C250.511 26.5 250.379 26.232 250.323 25.896H250.251C250.155 26.304 249.943 26.616 249.615 26.832C249.287 27.04 248.883 27.144 248.403 27.144C247.771 27.144 247.287 26.976 246.951 26.64C246.615 26.304 246.447 25.86 246.447 25.308C246.447 24.644 246.687 24.152 247.167 23.832C247.655 23.504 248.315 23.34 249.147 23.34H250.143V22.944C250.143 22.64 250.063 22.4 249.903 22.224C249.743 22.04 249.475 21.948 249.099 21.948C248.747 21.948 248.467 22.024 248.259 22.176C248.051 22.328 247.879 22.5 247.743 22.692L246.687 21.756C246.943 21.38 247.263 21.088 247.647 20.88C248.039 20.664 248.567 20.556 249.231 20.556C250.127 20.556 250.799 20.752 251.247 21.144C251.695 21.536 251.919 22.108 251.919 22.86V25.62H252.507V27H251.523ZM249.063 25.908C249.359 25.908 249.611 25.844 249.819 25.716C250.035 25.588 250.143 25.38 250.143 25.092V24.348H249.279C248.583 24.348 248.235 24.584 248.235 25.056V25.236C248.235 25.468 248.307 25.64 248.451 25.752C248.595 25.856 248.799 25.908 249.063 25.908ZM253.699 27V20.7H255.475V21.768H255.547C255.659 21.44 255.855 21.156 256.135 20.916C256.415 20.676 256.803 20.556 257.299 20.556C257.947 20.556 258.435 20.772 258.763 21.204C259.099 21.636 259.267 22.252 259.267 23.052V27H257.491V23.196C257.491 22.788 257.427 22.488 257.299 22.296C257.171 22.096 256.943 21.996 256.615 21.996C256.471 21.996 256.331 22.016 256.195 22.056C256.059 22.088 255.935 22.144 255.823 22.224C255.719 22.304 255.635 22.404 255.571 22.524C255.507 22.636 255.475 22.768 255.475 22.92V27H253.699ZM264.712 25.944H264.652C264.604 26.112 264.528 26.272 264.424 26.424C264.32 26.568 264.192 26.696 264.04 26.808C263.896 26.912 263.728 26.992 263.536 27.048C263.352 27.112 263.16 27.144 262.96 27.144C262.16 27.144 261.556 26.864 261.148 26.304C260.74 25.736 260.536 24.916 260.536 23.844C260.536 22.772 260.74 21.956 261.148 21.396C261.556 20.836 262.16 20.556 262.96 20.556C263.368 20.556 263.728 20.668 264.04 20.892C264.36 21.116 264.564 21.404 264.652 21.756H264.712V18.12H266.488V27H264.712V25.944ZM263.548 25.704C263.884 25.704 264.16 25.624 264.376 25.464C264.6 25.296 264.712 25.068 264.712 24.78V22.92C264.712 22.632 264.6 22.408 264.376 22.248C264.16 22.08 263.884 21.996 263.548 21.996C263.212 21.996 262.932 22.116 262.708 22.356C262.492 22.588 262.384 22.904 262.384 23.304V24.396C262.384 24.796 262.492 25.116 262.708 25.356C262.932 25.588 263.212 25.704 263.548 25.704ZM273.612 27.144C273.132 27.144 272.704 27.068 272.328 26.916C271.952 26.756 271.632 26.536 271.368 26.256C271.112 25.968 270.916 25.62 270.78 25.212C270.652 24.804 270.588 24.348 270.588 23.844C270.588 23.348 270.652 22.9 270.78 22.5C270.908 22.092 271.096 21.744 271.344 21.456C271.6 21.168 271.912 20.948 272.28 20.796C272.648 20.636 273.068 20.556 273.54 20.556C274.06 20.556 274.504 20.644 274.872 20.82C275.248 20.996 275.552 21.232 275.784 21.528C276.024 21.824 276.196 22.168 276.3 22.56C276.412 22.944 276.468 23.348 276.468 23.772V24.3H272.424V24.396C272.424 24.812 272.536 25.144 272.76 25.392C272.984 25.632 273.336 25.752 273.816 25.752C274.184 25.752 274.484 25.68 274.716 25.536C274.948 25.384 275.164 25.204 275.364 24.996L276.252 26.1C275.972 26.428 275.604 26.684 275.148 26.868C274.7 27.052 274.188 27.144 273.612 27.144ZM273.576 21.864C273.216 21.864 272.932 21.984 272.724 22.224C272.524 22.456 272.424 22.768 272.424 23.16V23.256H274.632V23.148C274.632 22.764 274.544 22.456 274.368 22.224C274.2 21.984 273.936 21.864 273.576 21.864ZM277.723 27V20.7H279.499V21.768H279.571C279.683 21.44 279.879 21.156 280.159 20.916C280.439 20.676 280.827 20.556 281.323 20.556C281.971 20.556 282.459 20.772 282.787 21.204C283.123 21.636 283.291 22.252 283.291 23.052V27H281.515V23.196C281.515 22.788 281.451 22.488 281.323 22.296C281.195 22.096 280.967 21.996 280.639 21.996C280.495 21.996 280.355 22.016 280.219 22.056C280.083 22.088 279.959 22.144 279.847 22.224C279.743 22.304 279.659 22.404 279.595 22.524C279.531 22.636 279.499 22.768 279.499 22.92V27H277.723ZM284.871 20.7H286.647V27.672C286.647 28.232 286.507 28.66 286.227 28.956C285.947 29.252 285.495 29.4 284.871 29.4H283.935V28.02H284.871V20.7ZM285.759 20.028C285.399 20.028 285.135 19.948 284.967 19.788C284.807 19.62 284.727 19.408 284.727 19.152V18.888C284.727 18.632 284.807 18.424 284.967 18.264C285.135 18.096 285.399 18.012 285.759 18.012C286.119 18.012 286.379 18.096 286.539 18.264C286.707 18.424 286.791 18.632 286.791 18.888V19.152C286.791 19.408 286.707 19.62 286.539 19.788C286.379 19.948 286.119 20.028 285.759 20.028ZM290.861 27.144C290.397 27.144 289.981 27.068 289.613 26.916C289.253 26.764 288.945 26.544 288.689 26.256C288.441 25.968 288.249 25.62 288.113 25.212C287.977 24.804 287.909 24.348 287.909 23.844C287.909 23.34 287.977 22.884 288.113 22.476C288.249 22.068 288.441 21.724 288.689 21.444C288.945 21.156 289.253 20.936 289.613 20.784C289.981 20.632 290.397 20.556 290.861 20.556C291.325 20.556 291.737 20.632 292.097 20.784C292.465 20.936 292.773 21.156 293.021 21.444C293.277 21.724 293.473 22.068 293.609 22.476C293.745 22.884 293.813 23.34 293.813 23.844C293.813 24.348 293.745 24.804 293.609 25.212C293.473 25.62 293.277 25.968 293.021 26.256C292.773 26.544 292.465 26.764 292.097 26.916C291.737 27.068 291.325 27.144 290.861 27.144ZM290.861 25.74C291.213 25.74 291.485 25.632 291.677 25.416C291.869 25.2 291.965 24.892 291.965 24.492V23.208C291.965 22.808 291.869 22.5 291.677 22.284C291.485 22.068 291.213 21.96 290.861 21.96C290.509 21.96 290.237 22.068 290.045 22.284C289.853 22.5 289.757 22.808 289.757 23.208V24.492C289.757 24.892 289.853 25.2 290.045 25.416C290.237 25.632 290.509 25.74 290.861 25.74ZM298.813 20.7H300.469L298.045 27.972C297.885 28.46 297.657 28.82 297.361 29.052C297.073 29.284 296.657 29.4 296.113 29.4H295.009V28.02H296.197L296.413 27.324L294.205 20.7H295.969L296.893 23.64L297.349 25.464H297.421L297.889 23.64L298.813 20.7ZM304.207 27V20.7H305.983V21.768H306.055C306.167 21.44 306.363 21.156 306.643 20.916C306.923 20.676 307.311 20.556 307.807 20.556C308.455 20.556 308.943 20.772 309.271 21.204C309.607 21.636 309.775 22.252 309.775 23.052V27H307.999V23.196C307.999 22.788 307.935 22.488 307.807 22.296C307.679 22.096 307.451 21.996 307.123 21.996C306.979 21.996 306.839 22.016 306.703 22.056C306.567 22.088 306.443 22.144 306.331 22.224C306.227 22.304 306.143 22.404 306.079 22.524C306.015 22.636 305.983 22.768 305.983 22.92V27H304.207ZM313.983 27.144C313.503 27.144 313.075 27.068 312.699 26.916C312.323 26.756 312.003 26.536 311.739 26.256C311.483 25.968 311.287 25.62 311.151 25.212C311.023 24.804 310.959 24.348 310.959 23.844C310.959 23.348 311.023 22.9 311.151 22.5C311.279 22.092 311.467 21.744 311.715 21.456C311.971 21.168 312.283 20.948 312.651 20.796C313.019 20.636 313.439 20.556 313.911 20.556C314.431 20.556 314.875 20.644 315.243 20.82C315.619 20.996 315.923 21.232 316.155 21.528C316.395 21.824 316.567 22.168 316.671 22.56C316.783 22.944 316.839 23.348 316.839 23.772V24.3H312.795V24.396C312.795 24.812 312.907 25.144 313.131 25.392C313.355 25.632 313.707 25.752 314.187 25.752C314.555 25.752 314.855 25.68 315.087 25.536C315.319 25.384 315.535 25.204 315.735 24.996L316.623 26.1C316.343 26.428 315.975 26.684 315.519 26.868C315.071 27.052 314.559 27.144 313.983 27.144ZM313.947 21.864C313.587 21.864 313.303 21.984 313.095 22.224C312.895 22.456 312.795 22.768 312.795 23.16V23.256H315.003V23.148C315.003 22.764 314.915 22.456 314.739 22.224C314.571 21.984 314.307 21.864 313.947 21.864ZM317.435 20.7H319.151L319.763 23.244L320.195 25.164H320.243L320.747 23.244L321.467 20.7H323.087L323.819 23.244L324.335 25.164H324.383L324.815 23.244L325.427 20.7H327.071L325.331 27H323.471L322.703 24.336L322.259 22.704H322.223L321.791 24.336L321.023 27H319.199L317.435 20.7ZM330.961 20.7H332.737V21.756H332.797C332.885 21.404 333.085 21.116 333.397 20.892C333.717 20.668 334.081 20.556 334.489 20.556C335.289 20.556 335.893 20.836 336.301 21.396C336.709 21.956 336.913 22.772 336.913 23.844C336.913 24.916 336.709 25.736 336.301 26.304C335.893 26.864 335.289 27.144 334.489 27.144C334.281 27.144 334.085 27.112 333.901 27.048C333.717 26.992 333.549 26.912 333.397 26.808C333.253 26.696 333.129 26.568 333.025 26.424C332.921 26.272 332.845 26.112 332.797 25.944H332.737V29.4H330.961V20.7ZM333.901 25.704C334.237 25.704 334.513 25.588 334.729 25.356C334.953 25.116 335.065 24.796 335.065 24.396V23.304C335.065 22.904 334.953 22.588 334.729 22.356C334.513 22.116 334.237 21.996 333.901 21.996C333.565 21.996 333.285 22.08 333.061 22.248C332.845 22.408 332.737 22.632 332.737 22.92V24.78C332.737 25.068 332.845 25.296 333.061 25.464C333.285 25.624 333.565 25.704 333.901 25.704ZM340.026 27C339.418 27 338.97 26.852 338.682 26.556C338.402 26.26 338.262 25.832 338.262 25.272V18.12H340.038V25.62H340.83V27H340.026ZM346.55 27C346.23 27 345.962 26.9 345.746 26.7C345.538 26.5 345.406 26.232 345.35 25.896H345.278C345.182 26.304 344.97 26.616 344.642 26.832C344.314 27.04 343.91 27.144 343.43 27.144C342.798 27.144 342.314 26.976 341.978 26.64C341.642 26.304 341.474 25.86 341.474 25.308C341.474 24.644 341.714 24.152 342.194 23.832C342.682 23.504 343.342 23.34 344.174 23.34H345.17V22.944C345.17 22.64 345.09 22.4 344.93 22.224C344.77 22.04 344.502 21.948 344.126 21.948C343.774 21.948 343.494 22.024 343.286 22.176C343.078 22.328 342.906 22.5 342.77 22.692L341.714 21.756C341.97 21.38 342.29 21.088 342.674 20.88C343.066 20.664 343.594 20.556 344.258 20.556C345.154 20.556 345.826 20.752 346.274 21.144C346.722 21.536 346.946 22.108 346.946 22.86V25.62H347.534V27H346.55ZM344.09 25.908C344.386 25.908 344.638 25.844 344.846 25.716C345.062 25.588 345.17 25.38 345.17 25.092V24.348H344.306C343.61 24.348 343.262 24.584 343.262 25.056V25.236C343.262 25.468 343.334 25.64 343.478 25.752C343.622 25.856 343.826 25.908 344.09 25.908ZM350.864 27C350.248 27 349.78 26.844 349.46 26.532C349.148 26.22 348.992 25.764 348.992 25.164V22.08H348.104V20.7H348.548C348.788 20.7 348.952 20.644 349.04 20.532C349.128 20.412 349.172 20.244 349.172 20.028V18.996H350.768V20.7H352.016V22.08H350.768V25.62H351.92V27H350.864ZM353.562 22.08H352.674V20.7H353.562V19.956C353.562 19.348 353.722 18.892 354.042 18.588C354.362 18.276 354.83 18.12 355.446 18.12H356.598V19.5H355.338V20.7H356.598V22.08H355.338V27H353.562V22.08ZM360.095 27.144C359.631 27.144 359.215 27.068 358.847 26.916C358.487 26.764 358.179 26.544 357.923 26.256C357.675 25.968 357.483 25.62 357.347 25.212C357.211 24.804 357.143 24.348 357.143 23.844C357.143 23.34 357.211 22.884 357.347 22.476C357.483 22.068 357.675 21.724 357.923 21.444C358.179 21.156 358.487 20.936 358.847 20.784C359.215 20.632 359.631 20.556 360.095 20.556C360.559 20.556 360.971 20.632 361.331 20.784C361.699 20.936 362.007 21.156 362.255 21.444C362.511 21.724 362.707 22.068 362.843 22.476C362.979 22.884 363.047 23.34 363.047 23.844C363.047 24.348 362.979 24.804 362.843 25.212C362.707 25.62 362.511 25.968 362.255 26.256C362.007 26.544 361.699 26.764 361.331 26.916C360.971 27.068 360.559 27.144 360.095 27.144ZM360.095 25.74C360.447 25.74 360.719 25.632 360.911 25.416C361.103 25.2 361.199 24.892 361.199 24.492V23.208C361.199 22.808 361.103 22.5 360.911 22.284C360.719 22.068 360.447 21.96 360.095 21.96C359.743 21.96 359.471 22.068 359.279 22.284C359.087 22.5 358.991 22.808 358.991 23.208V24.492C358.991 24.892 359.087 25.2 359.279 25.416C359.471 25.632 359.743 25.74 360.095 25.74ZM364.312 27V20.7H366.088V22.068H366.148C366.18 21.892 366.236 21.724 366.316 21.564C366.396 21.396 366.5 21.248 366.628 21.12C366.764 20.992 366.924 20.892 367.108 20.82C367.292 20.74 367.508 20.7 367.756 20.7H368.068V22.356H367.624C367.104 22.356 366.716 22.424 366.46 22.56C366.212 22.696 366.088 22.948 366.088 23.316V27H364.312ZM369.164 27V20.7H370.94V21.768H371.012C371.124 21.432 371.316 21.148 371.588 20.916C371.86 20.676 372.232 20.556 372.704 20.556C373.136 20.556 373.504 20.664 373.808 20.88C374.112 21.096 374.332 21.412 374.468 21.828H374.504C374.56 21.652 374.644 21.488 374.756 21.336C374.876 21.176 375.02 21.04 375.188 20.928C375.356 20.816 375.544 20.728 375.752 20.664C375.96 20.592 376.184 20.556 376.424 20.556C377.032 20.556 377.496 20.772 377.816 21.204C378.144 21.636 378.308 22.252 378.308 23.052V27H376.532V23.196C376.532 22.396 376.244 21.996 375.668 21.996C375.404 21.996 375.164 22.072 374.948 22.224C374.732 22.376 374.624 22.608 374.624 22.92V27H372.848V23.196C372.848 22.396 372.56 21.996 371.984 21.996C371.856 21.996 371.728 22.016 371.6 22.056C371.48 22.088 371.368 22.144 371.264 22.224C371.168 22.304 371.088 22.404 371.024 22.524C370.968 22.636 370.94 22.768 370.94 22.92V27H369.164ZM382.023 27.144C381.415 27.144 380.903 27.048 380.487 26.856C380.071 26.656 379.699 26.376 379.371 26.016L380.415 24.96C380.639 25.208 380.887 25.404 381.159 25.548C381.431 25.692 381.739 25.764 382.083 25.764C382.435 25.764 382.679 25.712 382.815 25.608C382.951 25.496 383.019 25.348 383.019 25.164C383.019 24.868 382.807 24.692 382.383 24.636L381.699 24.552C380.283 24.376 379.575 23.728 379.575 22.608C379.575 22.304 379.631 22.028 379.743 21.78C379.863 21.524 380.027 21.308 380.235 21.132C380.451 20.948 380.707 20.808 381.003 20.712C381.307 20.608 381.647 20.556 382.023 20.556C382.351 20.556 382.639 20.58 382.887 20.628C383.143 20.668 383.367 20.732 383.559 20.82C383.759 20.9 383.939 21.004 384.099 21.132C384.267 21.252 384.431 21.388 384.591 21.54L383.571 22.584C383.371 22.384 383.143 22.228 382.887 22.116C382.639 21.996 382.383 21.936 382.119 21.936C381.815 21.936 381.599 21.984 381.471 22.08C381.343 22.176 381.279 22.304 381.279 22.464C381.279 22.632 381.323 22.764 381.411 22.86C381.507 22.948 381.683 23.012 381.939 23.052L382.647 23.148C384.031 23.332 384.723 23.964 384.723 25.044C384.723 25.348 384.659 25.628 384.531 25.884C384.403 26.14 384.219 26.364 383.979 26.556C383.747 26.74 383.463 26.884 383.127 26.988C382.799 27.092 382.431 27.144 382.023 27.144ZM390.977 27C390.361 27 389.893 26.844 389.573 26.532C389.261 26.22 389.105 25.764 389.105 25.164V22.08H388.217V20.7H388.661C388.901 20.7 389.065 20.644 389.153 20.532C389.241 20.412 389.285 20.244 389.285 20.028V18.996H390.881V20.7H392.129V22.08H390.881V25.62H392.033V27H390.977ZM395.872 27.144C395.408 27.144 394.992 27.068 394.624 26.916C394.264 26.764 393.956 26.544 393.7 26.256C393.452 25.968 393.26 25.62 393.124 25.212C392.988 24.804 392.92 24.348 392.92 23.844C392.92 23.34 392.988 22.884 393.124 22.476C393.26 22.068 393.452 21.724 393.7 21.444C393.956 21.156 394.264 20.936 394.624 20.784C394.992 20.632 395.408 20.556 395.872 20.556C396.336 20.556 396.748 20.632 397.108 20.784C397.476 20.936 397.784 21.156 398.032 21.444C398.288 21.724 398.484 22.068 398.62 22.476C398.756 22.884 398.824 23.34 398.824 23.844C398.824 24.348 398.756 24.804 398.62 25.212C398.484 25.62 398.288 25.968 398.032 26.256C397.784 26.544 397.476 26.764 397.108 26.916C396.748 27.068 396.336 27.144 395.872 27.144ZM395.872 25.74C396.224 25.74 396.496 25.632 396.688 25.416C396.88 25.2 396.976 24.892 396.976 24.492V23.208C396.976 22.808 396.88 22.5 396.688 22.284C396.496 22.068 396.224 21.96 395.872 21.96C395.52 21.96 395.248 22.068 395.056 22.284C394.864 22.5 394.768 22.808 394.768 23.208V24.492C394.768 24.892 394.864 25.2 395.056 25.416C395.248 25.632 395.52 25.74 395.872 25.74ZM402.646 27.144C402.182 27.144 401.766 27.068 401.398 26.916C401.038 26.764 400.73 26.544 400.474 26.256C400.226 25.968 400.034 25.62 399.898 25.212C399.762 24.804 399.694 24.348 399.694 23.844C399.694 23.34 399.762 22.884 399.898 22.476C400.034 22.068 400.226 21.724 400.474 21.444C400.73 21.156 401.038 20.936 401.398 20.784C401.766 20.632 402.182 20.556 402.646 20.556C403.11 20.556 403.522 20.632 403.882 20.784C404.25 20.936 404.558 21.156 404.806 21.444C405.062 21.724 405.258 22.068 405.394 22.476C405.53 22.884 405.598 23.34 405.598 23.844C405.598 24.348 405.53 24.804 405.394 25.212C405.258 25.62 405.062 25.968 404.806 26.256C404.558 26.544 404.25 26.764 403.882 26.916C403.522 27.068 403.11 27.144 402.646 27.144ZM402.646 25.74C402.998 25.74 403.27 25.632 403.462 25.416C403.654 25.2 403.75 24.892 403.75 24.492V23.208C403.75 22.808 403.654 22.5 403.462 22.284C403.27 22.068 402.998 21.96 402.646 21.96C402.294 21.96 402.022 22.068 401.83 22.284C401.638 22.5 401.542 22.808 401.542 23.208V24.492C401.542 24.892 401.638 25.2 401.83 25.416C402.022 25.632 402.294 25.74 402.646 25.74Z" fill="#333333"/>
</g>
<defs>
<clipPath id="clip0_1346_26639">
<rect width="565" height="52" fill="white"/>
</clipPath>
</defs>
</svg>
