<svg width="565" height="52" viewBox="0 0 565 52" fill="none" xmlns="http://www.w3.org/2000/svg">
<g clip-path="url(#clip0_1393_26641)">
<path fill-rule="evenodd" clip-rule="evenodd" d="M470.5 45.589H560C562.781 45.589 565.066 43.2485 565.066 40.3992V5.18982C565.066 2.34051 562.781 0 560 0H470.5V8.34437C470.5 8.85318 470.3 9.36198 470 9.76903L464.397 16.3835C464.097 16.7906 463.897 17.2994 463.897 17.8082V27.4755C463.897 27.9843 464.097 28.4931 464.397 28.9001L470 35.5146C470.3 35.9217 470.5 36.4305 470.5 36.9393V45.589Z" fill="#FF444F"/>
<path d="M460.177 45.2838H39.5584C39.0416 45.2838 38.5247 45.4873 38.1112 45.7926L31.3919 51.4912C30.9784 51.7965 30.4615 52 29.9447 52H20.1242C19.6073 52 19.0904 51.7965 18.6769 51.4912L11.9576 45.7926C11.5441 45.4873 11.0273 45.2838 10.5104 45.2838H5.65182C3.06748 45.2838 1 43.2485 1 40.7045V4.57926C1 2.03523 3.06748 0 5.65182 0H10.5104C11.0273 0 11.5441 0.203522 11.9576 0.508806L18.6769 6.20744C19.0904 6.51272 19.6073 6.71624 20.1242 6.71624H29.9447C30.4615 6.71624 30.9784 6.51272 31.3919 6.20744L38.1112 0.508806C38.5247 0.203522 39.0416 0 39.5584 0H467V8.34442C467 8.85323 466.793 9.36204 466.483 9.76908L460.694 16.3836C460.384 16.7906 460.177 17.2994 460.177 17.8082V27.4755C460.177 27.9843 460.384 28.4932 460.694 28.9002L466.483 35.5147C466.793 35.9217 467 36.4305 467 36.9393V45.2838H460.177Z" fill="white"/>
<mask id="mask0_1393_26641" style="mask-type:alpha" maskUnits="userSpaceOnUse" x="1" y="0" width="465" height="52">
<path d="M458.627 45.2838H39.5584C39.0416 45.2838 38.5247 45.4873 38.1112 45.7926L31.3919 51.4912C30.9784 51.7965 30.4615 52 29.9447 52H20.1242C19.6073 52 19.0904 51.7965 18.6769 51.4912L11.9576 45.7926C11.5441 45.4873 11.0273 45.2838 10.5104 45.2838H5.65182C3.06748 45.2838 1 43.2485 1 40.7045V4.57926C1 2.03523 3.06748 0 5.65182 0H10.5104C11.0273 0 11.5441 0.203522 11.9576 0.508806L18.6769 6.20744C19.0904 6.51272 19.6073 6.71624 20.1242 6.71624H29.9447C30.4615 6.71624 30.9784 6.51272 31.3919 6.20744L38.1112 0.508806C38.5247 0.203522 39.0416 0 39.5584 0H465.45V8.34442C465.45 8.85323 465.243 9.36204 464.933 9.76908L459.144 16.3836C458.834 16.7906 458.627 17.2994 458.627 17.8082V27.4755C458.627 27.9843 458.834 28.4932 459.144 28.9002L464.933 35.5147C465.243 35.9217 465.45 36.4305 465.45 36.9393V45.0802L458.627 45.2838Z" fill="white"/>
</mask>
<g mask="url(#mask0_1393_26641)">
<path d="M0.658997 0L53.819 0L69.419 52H0.658997V0Z" fill="#D6DADB"/>
<g clip-path="url(#clip1_1393_26641)">
<path d="M16.4989 16C16.4989 12.6863 19.1852 10 22.4989 10H42.4989C45.8126 10 48.4989 12.6863 48.4989 16V36C48.4989 39.3137 45.8126 42 42.4989 42H22.4989C19.1852 42 16.4989 39.3137 16.4989 36V16Z" fill="#2A3052"/>
<path fill-rule="evenodd" clip-rule="evenodd" d="M33.9345 26.1022C33.9259 25.99 33.8751 25.8851 33.7923 25.8089C33.768 25.7867 33.741 25.7553 33.7105 25.7197C33.6738 25.677 33.6319 25.6283 33.5834 25.5822C33.5707 25.5667 33.5558 25.5532 33.5389 25.5422C32.5863 24.5301 32.7039 23.8801 32.7158 23.8142L32.7167 23.8089C32.718 23.5993 32.6719 23.392 32.5819 23.2027C32.4918 23.0134 32.3602 22.8469 32.1967 22.7156L32.1478 22.6534C32.1348 22.6428 32.1228 22.6309 32.1123 22.6178C32.6175 22.7592 33.1311 22.8691 33.65 22.9467C33.8801 22.9885 34.1145 23.002 34.3478 22.9867C34.8678 22.9867 35.2767 22.9245 35.3034 22.8045C34.8312 22.7186 34.3693 22.583 33.9256 22.4L33.9069 22.3928C33.4169 22.2037 33.3349 22.172 33.0145 22.0667C32.5967 21.9289 32.1478 21.7334 32.1478 21.7334C32.3222 21.7796 32.4853 21.823 32.6383 21.8638C34.0451 22.2385 34.6063 22.388 35.3478 22.4C35.5538 22.4051 35.7597 22.3857 35.9612 22.3422C36.0812 22.3422 36.4412 22.24 36.4812 22.1156C36.1367 22.1209 35.7939 22.0668 35.4678 21.9556C34.1788 21.5277 33.6175 21.2336 33.1041 20.9646C32.7855 20.7976 32.4854 20.6403 32.0412 20.4667C31.471 20.2286 30.8804 20.0426 30.2767 19.9111C29.7766 19.7955 29.2568 19.7955 28.7567 19.9111C27.17 19.5378 26.81 19.5778 26.3434 19.68C27.8846 18.6948 29.7159 18.2652 31.5345 18.4622V14.8889H26.7212C25.3067 14.8889 23.9501 15.4508 22.9499 16.451C21.9497 17.4512 21.3878 18.8078 21.3878 20.2222V31.7778C21.3878 33.1923 21.9497 34.5488 22.9499 35.549C23.9501 36.5492 25.3067 37.1111 26.7212 37.1111H31.5434V33.2578C31.3423 33.2224 31.1621 33.1935 31.0007 33.1677C30.4736 33.0833 30.1454 33.0308 29.9345 32.8845C29.85 32.8311 29.5834 32.6889 29.5212 32.7245C29.3838 32.8155 29.2204 32.8592 29.0559 32.8488C28.8914 32.8383 28.7348 32.7744 28.61 32.6667C28.5799 32.6439 28.5516 32.6186 28.5256 32.5911C28.3934 32.4882 28.3064 32.3379 28.2832 32.1719C28.26 32.006 28.3023 31.8375 28.4012 31.7022C28.4856 31.6134 28.3345 31.3689 28.3345 31.3689C28.3345 31.3689 27.89 30.7067 27.5878 30.3111C27.3627 29.9103 27.232 29.4634 27.2056 29.0045C27.0155 28.7802 26.8529 28.534 26.7212 28.2711C26.6458 28.1565 26.5579 28.0506 26.4589 27.9556C26.4032 27.9014 26.3512 27.8435 26.3034 27.7822C26.2957 27.7637 26.2957 27.743 26.3034 27.7245C26.4253 27.4703 26.603 27.247 26.8234 27.0711C26.93 27 27.3878 26.7245 27.3878 26.7245C27.4609 26.6108 27.5589 26.5153 27.6744 26.4452C27.79 26.3752 27.9199 26.3323 28.0545 26.32C28.508 26.2933 28.9621 26.3614 29.3878 26.52L29.6723 26.6089C30.0894 26.7451 30.4989 26.9039 30.8989 27.0845C31.1201 27.1856 31.3472 27.2731 31.5789 27.3467C32.1656 27.5022 33.2056 27.0267 33.4234 26.8267C33.7789 26.5022 33.93 26.2845 33.9345 26.1022ZM31.2056 23.3334L30.9167 22.9556C31.2006 23.074 31.4558 23.2519 31.6651 23.4773C31.8744 23.7027 32.033 23.9704 32.13 24.2622C30.9612 24.5422 31.2056 23.3334 31.2056 23.3334Z" fill="white"/>
<path d="M36.05 32.4222C36.1537 32.3304 36.2559 32.2326 36.3567 32.1289C37.7417 30.7488 38.5706 28.9074 38.6856 26.9556H43.61V31.7778C43.61 33.1923 43.0481 34.5488 42.0479 35.549C41.0477 36.5492 39.6912 37.1111 38.2767 37.1111H33.4545V33.5556C34.4162 33.4558 35.3231 33.0598 36.05 32.4222Z" fill="white"/>
<path d="M28.1403 29.8392C27.9938 29.6199 27.8963 29.3715 27.8544 29.1111C28.8811 29.04 28.4989 30 28.4989 30L28.7033 30.3822C28.4788 30.2438 28.2868 30.0586 28.1403 29.8392Z" fill="white"/>
<path d="M33.4545 14.8889H38.2767C39.6912 14.8889 41.0477 15.4508 42.0479 16.451C43.0481 17.4512 43.61 18.8078 43.61 20.2222V25.0311H38.5967C38.4094 23.9476 37.9976 22.9151 37.3878 22L37.3389 21.9556C37.049 21.5318 36.7202 21.136 36.3567 20.7734C35.5374 19.9486 34.5465 19.3143 33.4545 18.9156V14.8889Z" fill="white"/>
</g>
</g>
<path d="M491.719 20.37V26H490.199V20.37H488.309V19.02H493.609V20.37H491.719ZM496.105 26.12C495.705 26.12 495.348 26.0567 495.035 25.93C494.721 25.7967 494.455 25.6133 494.235 25.38C494.021 25.14 493.858 24.85 493.745 24.51C493.638 24.17 493.585 23.79 493.585 23.37C493.585 22.9567 493.638 22.5833 493.745 22.25C493.851 21.91 494.008 21.62 494.215 21.38C494.428 21.14 494.688 20.9567 494.995 20.83C495.301 20.6967 495.651 20.63 496.045 20.63C496.478 20.63 496.848 20.7033 497.155 20.85C497.468 20.9967 497.721 21.1933 497.915 21.44C498.115 21.6867 498.258 21.9733 498.345 22.3C498.438 22.62 498.485 22.9567 498.485 23.31V23.75H495.115V23.83C495.115 24.1767 495.208 24.4533 495.395 24.66C495.581 24.86 495.875 24.96 496.275 24.96C496.581 24.96 496.831 24.9 497.025 24.78C497.218 24.6533 497.398 24.5033 497.565 24.33L498.305 25.25C498.071 25.5233 497.765 25.7367 497.385 25.89C497.011 26.0433 496.585 26.12 496.105 26.12ZM496.075 21.72C495.775 21.72 495.538 21.82 495.365 22.02C495.198 22.2133 495.115 22.4733 495.115 22.8V22.88H496.955V22.79C496.955 22.47 496.881 22.2133 496.735 22.02C496.595 21.82 496.375 21.72 496.075 21.72ZM499.53 26V20.75H501.01V21.64H501.07C501.163 21.3667 501.327 21.13 501.56 20.93C501.793 20.73 502.117 20.63 502.53 20.63C503.07 20.63 503.477 20.81 503.75 21.17C504.03 21.53 504.17 22.0433 504.17 22.71V26H502.69V22.83C502.69 22.49 502.637 22.24 502.53 22.08C502.423 21.9133 502.233 21.83 501.96 21.83C501.84 21.83 501.723 21.8467 501.61 21.88C501.497 21.9067 501.393 21.9533 501.3 22.02C501.213 22.0867 501.143 22.17 501.09 22.27C501.037 22.3633 501.01 22.4733 501.01 22.6V26H499.53ZM507.327 26C506.814 26 506.424 25.87 506.157 25.61C505.897 25.35 505.767 24.97 505.767 24.47V21.9H505.027V20.75H505.397C505.597 20.75 505.734 20.7033 505.807 20.61C505.88 20.51 505.917 20.37 505.917 20.19V19.33H507.247V20.75H508.287V21.9H507.247V24.85H508.207V26H507.327ZM511.466 26.12C511.066 26.12 510.709 26.0567 510.396 25.93C510.083 25.7967 509.816 25.6133 509.596 25.38C509.383 25.14 509.219 24.85 509.106 24.51C508.999 24.17 508.946 23.79 508.946 23.37C508.946 22.9567 508.999 22.5833 509.106 22.25C509.213 21.91 509.369 21.62 509.576 21.38C509.789 21.14 510.049 20.9567 510.356 20.83C510.663 20.6967 511.013 20.63 511.406 20.63C511.839 20.63 512.209 20.7033 512.516 20.85C512.829 20.9967 513.083 21.1933 513.276 21.44C513.476 21.6867 513.619 21.9733 513.706 22.3C513.799 22.62 513.846 22.9567 513.846 23.31V23.75H510.476V23.83C510.476 24.1767 510.569 24.4533 510.756 24.66C510.943 24.86 511.236 24.96 511.636 24.96C511.943 24.96 512.193 24.9 512.386 24.78C512.579 24.6533 512.759 24.5033 512.926 24.33L513.666 25.25C513.433 25.5233 513.126 25.7367 512.746 25.89C512.373 26.0433 511.946 26.12 511.466 26.12ZM511.436 21.72C511.136 21.72 510.899 21.82 510.726 22.02C510.559 22.2133 510.476 22.4733 510.476 22.8V22.88H512.316V22.79C512.316 22.47 512.243 22.2133 512.096 22.02C511.956 21.82 511.736 21.72 511.436 21.72ZM521.134 26C520.868 26 520.644 25.9167 520.464 25.75C520.291 25.5833 520.181 25.36 520.134 25.08H520.074C519.994 25.42 519.818 25.68 519.544 25.86C519.271 26.0333 518.934 26.12 518.534 26.12C518.008 26.12 517.604 25.98 517.324 25.7C517.044 25.42 516.904 25.05 516.904 24.59C516.904 24.0367 517.104 23.6267 517.504 23.36C517.911 23.0867 518.461 22.95 519.154 22.95H519.984V22.62C519.984 22.3667 519.918 22.1667 519.784 22.02C519.651 21.8667 519.428 21.79 519.114 21.79C518.821 21.79 518.588 21.8533 518.414 21.98C518.241 22.1067 518.098 22.25 517.984 22.41L517.104 21.63C517.318 21.3167 517.584 21.0733 517.904 20.9C518.231 20.72 518.671 20.63 519.224 20.63C519.971 20.63 520.531 20.7933 520.904 21.12C521.278 21.4467 521.464 21.9233 521.464 22.55V24.85H521.954V26H521.134ZM519.084 25.09C519.331 25.09 519.541 25.0367 519.714 24.93C519.894 24.8233 519.984 24.65 519.984 24.41V23.79H519.264C518.684 23.79 518.394 23.9867 518.394 24.38V24.53C518.394 24.7233 518.454 24.8667 518.574 24.96C518.694 25.0467 518.864 25.09 519.084 25.09ZM527.808 26.38C527.808 26.66 527.758 26.9067 527.658 27.12C527.564 27.3333 527.408 27.5133 527.188 27.66C526.968 27.8133 526.674 27.9267 526.308 28C525.948 28.08 525.501 28.12 524.968 28.12C524.514 28.12 524.128 28.09 523.808 28.03C523.494 27.9767 523.238 27.8967 523.038 27.79C522.844 27.69 522.701 27.5633 522.608 27.41C522.521 27.2633 522.478 27.0933 522.478 26.9C522.478 26.6067 522.564 26.3767 522.738 26.21C522.911 26.0433 523.151 25.94 523.458 25.9V25.79C523.204 25.7433 523.014 25.6367 522.888 25.47C522.761 25.2967 522.698 25.0967 522.698 24.87C522.698 24.73 522.724 24.61 522.778 24.51C522.838 24.4033 522.911 24.3133 522.998 24.24C523.091 24.16 523.198 24.0967 523.318 24.05C523.438 24.0033 523.558 23.9667 523.678 23.94V23.9C523.358 23.7533 523.121 23.5533 522.968 23.3C522.814 23.04 522.738 22.74 522.738 22.4C522.738 21.8667 522.921 21.44 523.288 21.12C523.661 20.7933 524.228 20.63 524.988 20.63C525.334 20.63 525.631 20.6633 525.878 20.73V20.53C525.878 20.25 525.944 20.05 526.078 19.93C526.218 19.8033 526.414 19.74 526.668 19.74H527.498V20.84H526.338V20.9C526.644 21.0467 526.871 21.25 527.018 21.51C527.164 21.7633 527.238 22.06 527.238 22.4C527.238 22.9267 527.051 23.35 526.678 23.67C526.311 23.9833 525.748 24.14 524.988 24.14C524.648 24.14 524.338 24.1033 524.058 24.03C523.904 24.13 523.828 24.27 523.828 24.45C523.828 24.5767 523.874 24.6767 523.968 24.75C524.068 24.8167 524.231 24.85 524.458 24.85H525.978C526.618 24.85 527.081 24.9833 527.368 25.25C527.661 25.5167 527.808 25.8933 527.808 26.38ZM526.418 26.58C526.418 26.4267 526.358 26.31 526.238 26.23C526.118 26.15 525.908 26.11 525.608 26.11H523.808C523.741 26.1767 523.691 26.25 523.658 26.33C523.631 26.4167 523.618 26.5 523.618 26.58C523.618 26.7733 523.701 26.9133 523.868 27C524.034 27.0933 524.318 27.14 524.718 27.14H525.318C525.718 27.14 526.001 27.0933 526.168 27C526.334 26.9133 526.418 26.7733 526.418 26.58ZM524.988 23.17C525.281 23.17 525.498 23.11 525.638 22.99C525.784 22.8633 525.858 22.6833 525.858 22.45V22.33C525.858 22.0967 525.784 21.92 525.638 21.8C525.498 21.6733 525.281 21.61 524.988 21.61C524.694 21.61 524.474 21.6733 524.328 21.8C524.188 21.92 524.118 22.0967 524.118 22.33V22.45C524.118 22.6833 524.188 22.8633 524.328 22.99C524.474 23.11 524.694 23.17 524.988 23.17ZM530.537 26.12C530.15 26.12 529.803 26.0567 529.497 25.93C529.197 25.8033 528.94 25.62 528.727 25.38C528.52 25.14 528.36 24.85 528.247 24.51C528.133 24.17 528.077 23.79 528.077 23.37C528.077 22.95 528.133 22.57 528.247 22.23C528.36 21.89 528.52 21.6033 528.727 21.37C528.94 21.13 529.197 20.9467 529.497 20.82C529.803 20.6933 530.15 20.63 530.537 20.63C530.923 20.63 531.267 20.6933 531.567 20.82C531.873 20.9467 532.13 21.13 532.337 21.37C532.55 21.6033 532.713 21.89 532.827 22.23C532.94 22.57 532.997 22.95 532.997 23.37C532.997 23.79 532.94 24.17 532.827 24.51C532.713 24.85 532.55 25.14 532.337 25.38C532.13 25.62 531.873 25.8033 531.567 25.93C531.267 26.0567 530.923 26.12 530.537 26.12ZM530.537 24.95C530.83 24.95 531.057 24.86 531.217 24.68C531.377 24.5 531.457 24.2433 531.457 23.91V22.84C531.457 22.5067 531.377 22.25 531.217 22.07C531.057 21.89 530.83 21.8 530.537 21.8C530.243 21.8 530.017 21.89 529.857 22.07C529.697 22.25 529.617 22.5067 529.617 22.84V23.91C529.617 24.2433 529.697 24.5 529.857 24.68C530.017 24.86 530.243 24.95 530.537 24.95ZM534.051 26V20.75H535.531V21.89H535.581C535.608 21.7433 535.655 21.6033 535.721 21.47C535.788 21.33 535.875 21.2067 535.981 21.1C536.095 20.9933 536.228 20.91 536.381 20.85C536.535 20.7833 536.715 20.75 536.921 20.75H537.181V22.13H536.811C536.378 22.13 536.055 22.1867 535.841 22.3C535.635 22.4133 535.531 22.6233 535.531 22.93V26H534.051ZM541.838 26C541.571 26 541.348 25.9167 541.168 25.75C540.994 25.5833 540.884 25.36 540.838 25.08H540.778C540.698 25.42 540.521 25.68 540.248 25.86C539.974 26.0333 539.638 26.12 539.238 26.12C538.711 26.12 538.308 25.98 538.028 25.7C537.748 25.42 537.608 25.05 537.608 24.59C537.608 24.0367 537.808 23.6267 538.208 23.36C538.614 23.0867 539.164 22.95 539.858 22.95H540.688V22.62C540.688 22.3667 540.621 22.1667 540.488 22.02C540.354 21.8667 540.131 21.79 539.818 21.79C539.524 21.79 539.291 21.8533 539.118 21.98C538.944 22.1067 538.801 22.25 538.688 22.41L537.808 21.63C538.021 21.3167 538.288 21.0733 538.608 20.9C538.934 20.72 539.374 20.63 539.928 20.63C540.674 20.63 541.234 20.7933 541.608 21.12C541.981 21.4467 542.168 21.9233 542.168 22.55V24.85H542.658V26H541.838ZM539.788 25.09C540.034 25.09 540.244 25.0367 540.418 24.93C540.598 24.8233 540.688 24.65 540.688 24.41V23.79H539.968C539.388 23.79 539.098 23.9867 539.098 24.38V24.53C539.098 24.7233 539.158 24.8667 539.278 24.96C539.398 25.0467 539.568 25.09 539.788 25.09Z" fill="white"/>
<path d="M95.084 27L94.484 25.008H91.688L91.088 27H89.24L92 18.624H94.256L96.98 27H95.084ZM93.104 20.28H93.044L92.12 23.46H94.04L93.104 20.28ZM100.587 27.144C100.115 27.144 99.6948 27.068 99.3268 26.916C98.9588 26.756 98.6508 26.536 98.4028 26.256C98.1548 25.968 97.9668 25.62 97.8388 25.212C97.7108 24.804 97.6468 24.348 97.6468 23.844C97.6468 23.34 97.7108 22.888 97.8388 22.488C97.9668 22.08 98.1548 21.732 98.4028 21.444C98.6508 21.156 98.9588 20.936 99.3268 20.784C99.6948 20.632 100.115 20.556 100.587 20.556C101.227 20.556 101.759 20.7 102.183 20.988C102.615 21.276 102.923 21.68 103.107 22.2L101.667 22.824C101.611 22.584 101.495 22.38 101.319 22.212C101.143 22.044 100.899 21.96 100.587 21.96C100.227 21.96 99.9548 22.08 99.7708 22.32C99.5868 22.552 99.4948 22.868 99.4948 23.268V24.444C99.4948 24.844 99.5868 25.16 99.7708 25.392C99.9548 25.624 100.227 25.74 100.587 25.74C100.907 25.74 101.159 25.656 101.343 25.488C101.535 25.312 101.675 25.084 101.763 24.804L103.143 25.404C102.935 26.004 102.611 26.444 102.171 26.724C101.739 27.004 101.211 27.144 100.587 27.144ZM106.811 27.144C106.331 27.144 105.903 27.068 105.527 26.916C105.151 26.756 104.831 26.536 104.567 26.256C104.311 25.968 104.115 25.62 103.979 25.212C103.851 24.804 103.787 24.348 103.787 23.844C103.787 23.348 103.851 22.9 103.979 22.5C104.107 22.092 104.295 21.744 104.543 21.456C104.799 21.168 105.111 20.948 105.479 20.796C105.847 20.636 106.267 20.556 106.739 20.556C107.259 20.556 107.703 20.644 108.071 20.82C108.447 20.996 108.751 21.232 108.983 21.528C109.223 21.824 109.395 22.168 109.499 22.56C109.611 22.944 109.667 23.348 109.667 23.772V24.3H105.623V24.396C105.623 24.812 105.735 25.144 105.959 25.392C106.183 25.632 106.535 25.752 107.015 25.752C107.383 25.752 107.683 25.68 107.915 25.536C108.147 25.384 108.363 25.204 108.563 24.996L109.451 26.1C109.171 26.428 108.803 26.684 108.347 26.868C107.899 27.052 107.387 27.144 106.811 27.144ZM106.775 21.864C106.415 21.864 106.131 21.984 105.923 22.224C105.723 22.456 105.623 22.768 105.623 23.16V23.256H107.831V23.148C107.831 22.764 107.743 22.456 107.567 22.224C107.399 21.984 107.135 21.864 106.775 21.864ZM113.058 27.144C112.45 27.144 111.938 27.048 111.522 26.856C111.106 26.656 110.734 26.376 110.406 26.016L111.45 24.96C111.674 25.208 111.922 25.404 112.194 25.548C112.466 25.692 112.774 25.764 113.118 25.764C113.47 25.764 113.714 25.712 113.85 25.608C113.986 25.496 114.054 25.348 114.054 25.164C114.054 24.868 113.842 24.692 113.418 24.636L112.734 24.552C111.318 24.376 110.61 23.728 110.61 22.608C110.61 22.304 110.666 22.028 110.778 21.78C110.898 21.524 111.062 21.308 111.27 21.132C111.486 20.948 111.742 20.808 112.038 20.712C112.342 20.608 112.682 20.556 113.058 20.556C113.386 20.556 113.674 20.58 113.922 20.628C114.178 20.668 114.402 20.732 114.594 20.82C114.794 20.9 114.974 21.004 115.134 21.132C115.302 21.252 115.466 21.388 115.626 21.54L114.606 22.584C114.406 22.384 114.178 22.228 113.922 22.116C113.674 21.996 113.418 21.936 113.154 21.936C112.85 21.936 112.634 21.984 112.506 22.08C112.378 22.176 112.314 22.304 112.314 22.464C112.314 22.632 112.358 22.764 112.446 22.86C112.542 22.948 112.718 23.012 112.974 23.052L113.682 23.148C115.066 23.332 115.758 23.964 115.758 25.044C115.758 25.348 115.694 25.628 115.566 25.884C115.438 26.14 115.254 26.364 115.014 26.556C114.782 26.74 114.498 26.884 114.162 26.988C113.834 27.092 113.466 27.144 113.058 27.144ZM119.023 27.144C118.415 27.144 117.903 27.048 117.487 26.856C117.071 26.656 116.699 26.376 116.371 26.016L117.415 24.96C117.639 25.208 117.887 25.404 118.159 25.548C118.431 25.692 118.739 25.764 119.083 25.764C119.435 25.764 119.679 25.712 119.815 25.608C119.951 25.496 120.019 25.348 120.019 25.164C120.019 24.868 119.807 24.692 119.383 24.636L118.699 24.552C117.283 24.376 116.575 23.728 116.575 22.608C116.575 22.304 116.631 22.028 116.743 21.78C116.863 21.524 117.027 21.308 117.235 21.132C117.451 20.948 117.707 20.808 118.003 20.712C118.307 20.608 118.647 20.556 119.023 20.556C119.351 20.556 119.639 20.58 119.887 20.628C120.143 20.668 120.367 20.732 120.559 20.82C120.759 20.9 120.939 21.004 121.099 21.132C121.267 21.252 121.431 21.388 121.591 21.54L120.571 22.584C120.371 22.384 120.143 22.228 119.887 22.116C119.639 21.996 119.383 21.936 119.119 21.936C118.815 21.936 118.599 21.984 118.471 22.08C118.343 22.176 118.279 22.304 118.279 22.464C118.279 22.632 118.323 22.764 118.411 22.86C118.507 22.948 118.683 23.012 118.939 23.052L119.647 23.148C121.031 23.332 121.723 23.964 121.723 25.044C121.723 25.348 121.659 25.628 121.531 25.884C121.403 26.14 121.219 26.364 120.979 26.556C120.747 26.74 120.463 26.884 120.127 26.988C119.799 27.092 119.431 27.144 119.023 27.144ZM125.561 27.144C125.081 27.144 124.653 27.068 124.277 26.916C123.901 26.756 123.581 26.536 123.317 26.256C123.061 25.968 122.865 25.62 122.729 25.212C122.601 24.804 122.537 24.348 122.537 23.844C122.537 23.348 122.601 22.9 122.729 22.5C122.857 22.092 123.045 21.744 123.293 21.456C123.549 21.168 123.861 20.948 124.229 20.796C124.597 20.636 125.017 20.556 125.489 20.556C126.009 20.556 126.453 20.644 126.821 20.82C127.197 20.996 127.501 21.232 127.733 21.528C127.973 21.824 128.145 22.168 128.249 22.56C128.361 22.944 128.417 23.348 128.417 23.772V24.3H124.373V24.396C124.373 24.812 124.485 25.144 124.709 25.392C124.933 25.632 125.285 25.752 125.765 25.752C126.133 25.752 126.433 25.68 126.665 25.536C126.897 25.384 127.113 25.204 127.313 24.996L128.201 26.1C127.921 26.428 127.553 26.684 127.097 26.868C126.649 27.052 126.137 27.144 125.561 27.144ZM125.525 21.864C125.165 21.864 124.881 21.984 124.673 22.224C124.473 22.456 124.373 22.768 124.373 23.16V23.256H126.581V23.148C126.581 22.764 126.493 22.456 126.317 22.224C126.149 21.984 125.885 21.864 125.525 21.864ZM132.604 18.624H136.672C137.368 18.624 137.908 18.82 138.292 19.212C138.684 19.604 138.88 20.124 138.88 20.772C138.88 21.092 138.836 21.364 138.748 21.588C138.668 21.812 138.556 21.996 138.412 22.14C138.276 22.284 138.112 22.392 137.92 22.464C137.736 22.528 137.536 22.564 137.32 22.572V22.644C137.52 22.644 137.728 22.68 137.944 22.752C138.168 22.824 138.372 22.94 138.556 23.1C138.74 23.252 138.892 23.452 139.012 23.7C139.14 23.948 139.204 24.252 139.204 24.612C139.204 24.94 139.148 25.252 139.036 25.548C138.932 25.836 138.784 26.088 138.592 26.304C138.4 26.52 138.172 26.692 137.908 26.82C137.644 26.94 137.356 27 137.044 27H132.604V18.624ZM134.428 25.464H136.528C136.768 25.464 136.956 25.4 137.092 25.272C137.236 25.136 137.308 24.948 137.308 24.708V24.3C137.308 24.06 137.236 23.876 137.092 23.748C136.956 23.612 136.768 23.544 136.528 23.544H134.428V25.464ZM134.428 22.056H136.24C136.48 22.056 136.668 21.988 136.804 21.852C136.94 21.716 137.008 21.528 137.008 21.288V20.928C137.008 20.688 136.94 20.5 136.804 20.364C136.668 20.228 136.48 20.16 136.24 20.16H134.428V22.056ZM141.4 20.028C141.04 20.028 140.776 19.948 140.608 19.788C140.448 19.62 140.368 19.408 140.368 19.152V18.888C140.368 18.632 140.448 18.424 140.608 18.264C140.776 18.096 141.04 18.012 141.4 18.012C141.76 18.012 142.02 18.096 142.18 18.264C142.348 18.424 142.432 18.632 142.432 18.888V19.152C142.432 19.408 142.348 19.62 142.18 19.788C142.02 19.948 141.76 20.028 141.4 20.028ZM140.512 20.7H142.288V27H140.512V20.7ZM143.945 27V20.7H145.721V21.768H145.793C145.905 21.44 146.101 21.156 146.381 20.916C146.661 20.676 147.049 20.556 147.545 20.556C148.193 20.556 148.681 20.772 149.009 21.204C149.345 21.636 149.513 22.252 149.513 23.052V27H147.737V23.196C147.737 22.788 147.673 22.488 147.545 22.296C147.417 22.096 147.189 21.996 146.861 21.996C146.717 21.996 146.577 22.016 146.441 22.056C146.305 22.088 146.181 22.144 146.069 22.224C145.965 22.304 145.881 22.404 145.817 22.524C145.753 22.636 145.721 22.768 145.721 22.92V27H143.945ZM155.75 27C155.43 27 155.162 26.9 154.946 26.7C154.738 26.5 154.606 26.232 154.55 25.896H154.478C154.382 26.304 154.17 26.616 153.842 26.832C153.514 27.04 153.11 27.144 152.63 27.144C151.998 27.144 151.514 26.976 151.178 26.64C150.842 26.304 150.674 25.86 150.674 25.308C150.674 24.644 150.914 24.152 151.394 23.832C151.882 23.504 152.542 23.34 153.374 23.34H154.37V22.944C154.37 22.64 154.29 22.4 154.13 22.224C153.97 22.04 153.702 21.948 153.326 21.948C152.974 21.948 152.694 22.024 152.486 22.176C152.278 22.328 152.106 22.5 151.97 22.692L150.914 21.756C151.17 21.38 151.49 21.088 151.874 20.88C152.266 20.664 152.794 20.556 153.458 20.556C154.354 20.556 155.026 20.752 155.474 21.144C155.922 21.536 156.146 22.108 156.146 22.86V25.62H156.734V27H155.75ZM153.29 25.908C153.586 25.908 153.838 25.844 154.046 25.716C154.262 25.588 154.37 25.38 154.37 25.092V24.348H153.506C152.81 24.348 152.462 24.584 152.462 25.056V25.236C152.462 25.468 152.534 25.64 152.678 25.752C152.822 25.856 153.026 25.908 153.29 25.908ZM157.926 27V20.7H159.702V22.068H159.762C159.794 21.892 159.85 21.724 159.93 21.564C160.01 21.396 160.114 21.248 160.242 21.12C160.378 20.992 160.538 20.892 160.722 20.82C160.906 20.74 161.122 20.7 161.37 20.7H161.682V22.356H161.238C160.718 22.356 160.33 22.424 160.074 22.56C159.826 22.696 159.702 22.948 159.702 23.316V27H157.926ZM166.711 20.7H168.367L165.943 27.972C165.783 28.46 165.555 28.82 165.259 29.052C164.971 29.284 164.555 29.4 164.011 29.4H162.907V28.02H164.095L164.311 27.324L162.103 20.7H163.867L164.791 23.64L165.247 25.464H165.319L165.787 23.64L166.711 20.7ZM172.201 18.624H176.269C176.965 18.624 177.505 18.82 177.889 19.212C178.281 19.604 178.477 20.124 178.477 20.772C178.477 21.092 178.433 21.364 178.345 21.588C178.265 21.812 178.153 21.996 178.009 22.14C177.873 22.284 177.709 22.392 177.517 22.464C177.333 22.528 177.133 22.564 176.917 22.572V22.644C177.117 22.644 177.325 22.68 177.541 22.752C177.765 22.824 177.969 22.94 178.153 23.1C178.337 23.252 178.489 23.452 178.609 23.7C178.737 23.948 178.801 24.252 178.801 24.612C178.801 24.94 178.745 25.252 178.633 25.548C178.529 25.836 178.381 26.088 178.189 26.304C177.997 26.52 177.769 26.692 177.505 26.82C177.241 26.94 176.953 27 176.641 27H172.201V18.624ZM174.025 25.464H176.125C176.365 25.464 176.553 25.4 176.689 25.272C176.833 25.136 176.905 24.948 176.905 24.708V24.3C176.905 24.06 176.833 23.876 176.689 23.748C176.553 23.612 176.365 23.544 176.125 23.544H174.025V25.464ZM174.025 22.056H175.837C176.077 22.056 176.265 21.988 176.401 21.852C176.537 21.716 176.605 21.528 176.605 21.288V20.928C176.605 20.688 176.537 20.5 176.401 20.364C176.265 20.228 176.077 20.16 175.837 20.16H174.025V22.056ZM182.665 27.144C182.201 27.144 181.785 27.068 181.417 26.916C181.057 26.764 180.749 26.544 180.493 26.256C180.245 25.968 180.053 25.62 179.917 25.212C179.781 24.804 179.713 24.348 179.713 23.844C179.713 23.34 179.781 22.884 179.917 22.476C180.053 22.068 180.245 21.724 180.493 21.444C180.749 21.156 181.057 20.936 181.417 20.784C181.785 20.632 182.201 20.556 182.665 20.556C183.129 20.556 183.541 20.632 183.901 20.784C184.269 20.936 184.577 21.156 184.825 21.444C185.081 21.724 185.277 22.068 185.413 22.476C185.549 22.884 185.617 23.34 185.617 23.844C185.617 24.348 185.549 24.804 185.413 25.212C185.277 25.62 185.081 25.968 184.825 26.256C184.577 26.544 184.269 26.764 183.901 26.916C183.541 27.068 183.129 27.144 182.665 27.144ZM182.665 25.74C183.017 25.74 183.289 25.632 183.481 25.416C183.673 25.2 183.769 24.892 183.769 24.492V23.208C183.769 22.808 183.673 22.5 183.481 22.284C183.289 22.068 183.017 21.96 182.665 21.96C182.313 21.96 182.041 22.068 181.849 22.284C181.657 22.5 181.561 22.808 181.561 23.208V24.492C181.561 24.892 181.657 25.2 181.849 25.416C182.041 25.632 182.313 25.74 182.665 25.74ZM189.02 27C188.404 27 187.936 26.844 187.616 26.532C187.304 26.22 187.148 25.764 187.148 25.164V22.08H186.26V20.7H186.704C186.944 20.7 187.108 20.644 187.196 20.532C187.284 20.412 187.328 20.244 187.328 20.028V18.996H188.924V20.7H190.172V22.08H188.924V25.62H190.076V27H189.02ZM194.242 27V20.7H196.018V21.768H196.09C196.202 21.44 196.398 21.156 196.678 20.916C196.958 20.676 197.346 20.556 197.842 20.556C198.49 20.556 198.978 20.772 199.306 21.204C199.642 21.636 199.81 22.252 199.81 23.052V27H198.034V23.196C198.034 22.788 197.97 22.488 197.842 22.296C197.714 22.096 197.486 21.996 197.158 21.996C197.014 21.996 196.874 22.016 196.738 22.056C196.602 22.088 196.478 22.144 196.366 22.224C196.262 22.304 196.178 22.404 196.114 22.524C196.05 22.636 196.018 22.768 196.018 22.92V27H194.242ZM206.047 27C205.727 27 205.459 26.9 205.243 26.7C205.035 26.5 204.903 26.232 204.847 25.896H204.775C204.679 26.304 204.467 26.616 204.139 26.832C203.811 27.04 203.407 27.144 202.927 27.144C202.295 27.144 201.811 26.976 201.475 26.64C201.139 26.304 200.971 25.86 200.971 25.308C200.971 24.644 201.211 24.152 201.691 23.832C202.179 23.504 202.839 23.34 203.671 23.34H204.667V22.944C204.667 22.64 204.587 22.4 204.427 22.224C204.267 22.04 203.999 21.948 203.623 21.948C203.271 21.948 202.991 22.024 202.783 22.176C202.575 22.328 202.403 22.5 202.267 22.692L201.211 21.756C201.467 21.38 201.787 21.088 202.171 20.88C202.563 20.664 203.091 20.556 203.755 20.556C204.651 20.556 205.323 20.752 205.771 21.144C206.219 21.536 206.443 22.108 206.443 22.86V25.62H207.031V27H206.047ZM203.587 25.908C203.883 25.908 204.135 25.844 204.343 25.716C204.559 25.588 204.667 25.38 204.667 25.092V24.348H203.803C203.107 24.348 202.759 24.584 202.759 25.056V25.236C202.759 25.468 202.831 25.64 202.975 25.752C203.119 25.856 203.323 25.908 203.587 25.908ZM211.154 18.624H214.31C214.862 18.624 215.366 18.712 215.822 18.888C216.278 19.064 216.666 19.328 216.986 19.68C217.306 20.024 217.554 20.46 217.73 20.988C217.906 21.508 217.994 22.116 217.994 22.812C217.994 23.508 217.906 24.12 217.73 24.648C217.554 25.168 217.306 25.604 216.986 25.956C216.666 26.3 216.278 26.56 215.822 26.736C215.366 26.912 214.862 27 214.31 27H211.154V18.624ZM214.31 25.38C214.854 25.38 215.282 25.228 215.594 24.924C215.906 24.62 216.062 24.132 216.062 23.46V22.164C216.062 21.492 215.906 21.004 215.594 20.7C215.282 20.396 214.854 20.244 214.31 20.244H212.978V25.38H214.31ZM222.054 27.144C221.574 27.144 221.146 27.068 220.77 26.916C220.394 26.756 220.074 26.536 219.81 26.256C219.554 25.968 219.358 25.62 219.222 25.212C219.094 24.804 219.03 24.348 219.03 23.844C219.03 23.348 219.094 22.9 219.222 22.5C219.35 22.092 219.538 21.744 219.786 21.456C220.042 21.168 220.354 20.948 220.722 20.796C221.09 20.636 221.51 20.556 221.982 20.556C222.502 20.556 222.946 20.644 223.314 20.82C223.69 20.996 223.994 21.232 224.226 21.528C224.466 21.824 224.638 22.168 224.742 22.56C224.854 22.944 224.91 23.348 224.91 23.772V24.3H220.866V24.396C220.866 24.812 220.978 25.144 221.202 25.392C221.426 25.632 221.778 25.752 222.258 25.752C222.626 25.752 222.926 25.68 223.158 25.536C223.39 25.384 223.606 25.204 223.806 24.996L224.694 26.1C224.414 26.428 224.046 26.684 223.59 26.868C223.142 27.052 222.63 27.144 222.054 27.144ZM222.018 21.864C221.658 21.864 221.374 21.984 221.166 22.224C220.966 22.456 220.866 22.768 220.866 23.16V23.256H223.074V23.148C223.074 22.764 222.986 22.456 222.81 22.224C222.642 21.984 222.378 21.864 222.018 21.864ZM226.164 27V20.7H227.94V22.068H228C228.032 21.892 228.088 21.724 228.168 21.564C228.248 21.396 228.352 21.248 228.48 21.12C228.616 20.992 228.776 20.892 228.96 20.82C229.144 20.74 229.36 20.7 229.608 20.7H229.92V22.356H229.476C228.956 22.356 228.568 22.424 228.312 22.56C228.064 22.696 227.94 22.948 227.94 23.316V27H226.164ZM231.904 20.028C231.544 20.028 231.28 19.948 231.112 19.788C230.952 19.62 230.872 19.408 230.872 19.152V18.888C230.872 18.632 230.952 18.424 231.112 18.264C231.28 18.096 231.544 18.012 231.904 18.012C232.264 18.012 232.524 18.096 232.684 18.264C232.852 18.424 232.936 18.632 232.936 18.888V19.152C232.936 19.408 232.852 19.62 232.684 19.788C232.524 19.948 232.264 20.028 231.904 20.028ZM231.016 20.7H232.792V27H231.016V20.7ZM235.793 27L233.729 20.7H235.481L236.261 23.244L236.849 25.524H236.945L237.533 23.244L238.289 20.7H239.969L237.905 27H235.793ZM246.37 27.144C245.89 27.144 245.462 27.068 245.086 26.916C244.71 26.756 244.39 26.536 244.126 26.256C243.87 25.968 243.674 25.62 243.538 25.212C243.41 24.804 243.346 24.348 243.346 23.844C243.346 23.348 243.41 22.9 243.538 22.5C243.666 22.092 243.854 21.744 244.102 21.456C244.358 21.168 244.67 20.948 245.038 20.796C245.406 20.636 245.826 20.556 246.298 20.556C246.818 20.556 247.262 20.644 247.63 20.82C248.006 20.996 248.31 21.232 248.542 21.528C248.782 21.824 248.954 22.168 249.058 22.56C249.17 22.944 249.226 23.348 249.226 23.772V24.3H245.182V24.396C245.182 24.812 245.294 25.144 245.518 25.392C245.742 25.632 246.094 25.752 246.574 25.752C246.942 25.752 247.242 25.68 247.474 25.536C247.706 25.384 247.922 25.204 248.122 24.996L249.01 26.1C248.73 26.428 248.362 26.684 247.906 26.868C247.458 27.052 246.946 27.144 246.37 27.144ZM246.334 21.864C245.974 21.864 245.69 21.984 245.482 22.224C245.282 22.456 245.182 22.768 245.182 23.16V23.256H247.39V23.148C247.39 22.764 247.302 22.456 247.126 22.224C246.958 21.984 246.694 21.864 246.334 21.864ZM257.972 27C257.652 27 257.384 26.9 257.168 26.7C256.96 26.5 256.828 26.232 256.772 25.896H256.7C256.604 26.304 256.392 26.616 256.064 26.832C255.736 27.04 255.332 27.144 254.852 27.144C254.22 27.144 253.736 26.976 253.4 26.64C253.064 26.304 252.896 25.86 252.896 25.308C252.896 24.644 253.136 24.152 253.616 23.832C254.104 23.504 254.764 23.34 255.596 23.34H256.592V22.944C256.592 22.64 256.512 22.4 256.352 22.224C256.192 22.04 255.924 21.948 255.548 21.948C255.196 21.948 254.916 22.024 254.708 22.176C254.5 22.328 254.328 22.5 254.192 22.692L253.136 21.756C253.392 21.38 253.712 21.088 254.096 20.88C254.488 20.664 255.016 20.556 255.68 20.556C256.576 20.556 257.248 20.752 257.696 21.144C258.144 21.536 258.368 22.108 258.368 22.86V25.62H258.956V27H257.972ZM255.512 25.908C255.808 25.908 256.06 25.844 256.268 25.716C256.484 25.588 256.592 25.38 256.592 25.092V24.348H255.728C255.032 24.348 254.684 24.584 254.684 25.056V25.236C254.684 25.468 254.756 25.64 254.9 25.752C255.044 25.856 255.248 25.908 255.512 25.908ZM260.148 20.7H261.924V21.756H261.984C262.072 21.404 262.272 21.116 262.584 20.892C262.904 20.668 263.268 20.556 263.676 20.556C264.476 20.556 265.08 20.836 265.488 21.396C265.896 21.956 266.1 22.772 266.1 23.844C266.1 24.916 265.896 25.736 265.488 26.304C265.08 26.864 264.476 27.144 263.676 27.144C263.468 27.144 263.272 27.112 263.088 27.048C262.904 26.992 262.736 26.912 262.584 26.808C262.44 26.696 262.316 26.568 262.212 26.424C262.108 26.272 262.032 26.112 261.984 25.944H261.924V29.4H260.148V20.7ZM263.088 25.704C263.424 25.704 263.7 25.588 263.916 25.356C264.14 25.116 264.252 24.796 264.252 24.396V23.304C264.252 22.904 264.14 22.588 263.916 22.356C263.7 22.116 263.424 21.996 263.088 21.996C262.752 21.996 262.472 22.08 262.248 22.248C262.032 22.408 261.924 22.632 261.924 22.92V24.78C261.924 25.068 262.032 25.296 262.248 25.464C262.472 25.624 262.752 25.704 263.088 25.704ZM267.449 27V20.7H269.225V22.068H269.285C269.317 21.892 269.373 21.724 269.453 21.564C269.533 21.396 269.637 21.248 269.765 21.12C269.901 20.992 270.061 20.892 270.245 20.82C270.429 20.74 270.645 20.7 270.893 20.7H271.205V22.356H270.761C270.241 22.356 269.853 22.424 269.597 22.56C269.349 22.696 269.225 22.948 269.225 23.316V27H267.449ZM274.798 27.144C274.334 27.144 273.918 27.068 273.55 26.916C273.19 26.764 272.882 26.544 272.626 26.256C272.378 25.968 272.186 25.62 272.05 25.212C271.914 24.804 271.846 24.348 271.846 23.844C271.846 23.34 271.914 22.884 272.05 22.476C272.186 22.068 272.378 21.724 272.626 21.444C272.882 21.156 273.19 20.936 273.55 20.784C273.918 20.632 274.334 20.556 274.798 20.556C275.262 20.556 275.674 20.632 276.034 20.784C276.402 20.936 276.71 21.156 276.958 21.444C277.214 21.724 277.41 22.068 277.546 22.476C277.682 22.884 277.75 23.34 277.75 23.844C277.75 24.348 277.682 24.804 277.546 25.212C277.41 25.62 277.214 25.968 276.958 26.256C276.71 26.544 276.402 26.764 276.034 26.916C275.674 27.068 275.262 27.144 274.798 27.144ZM274.798 25.74C275.15 25.74 275.422 25.632 275.614 25.416C275.806 25.2 275.902 24.892 275.902 24.492V23.208C275.902 22.808 275.806 22.5 275.614 22.284C275.422 22.068 275.15 21.96 274.798 21.96C274.446 21.96 274.174 22.068 273.982 22.284C273.79 22.5 273.694 22.808 273.694 23.208V24.492C273.694 24.892 273.79 25.2 273.982 25.416C274.174 25.632 274.446 25.74 274.798 25.74ZM280.266 27L278.202 20.7H279.954L280.734 23.244L281.322 25.524H281.418L282.006 23.244L282.762 20.7H284.442L282.378 27H280.266ZM287.913 27.144C287.433 27.144 287.005 27.068 286.629 26.916C286.253 26.756 285.933 26.536 285.669 26.256C285.413 25.968 285.217 25.62 285.081 25.212C284.953 24.804 284.889 24.348 284.889 23.844C284.889 23.348 284.953 22.9 285.081 22.5C285.209 22.092 285.397 21.744 285.645 21.456C285.901 21.168 286.213 20.948 286.581 20.796C286.949 20.636 287.369 20.556 287.841 20.556C288.361 20.556 288.805 20.644 289.173 20.82C289.549 20.996 289.853 21.232 290.085 21.528C290.325 21.824 290.497 22.168 290.601 22.56C290.713 22.944 290.769 23.348 290.769 23.772V24.3H286.725V24.396C286.725 24.812 286.837 25.144 287.061 25.392C287.285 25.632 287.637 25.752 288.117 25.752C288.485 25.752 288.785 25.68 289.017 25.536C289.249 25.384 289.465 25.204 289.665 24.996L290.553 26.1C290.273 26.428 289.905 26.684 289.449 26.868C289.001 27.052 288.489 27.144 287.913 27.144ZM287.877 21.864C287.517 21.864 287.233 21.984 287.025 22.224C286.825 22.456 286.725 22.768 286.725 23.16V23.256H288.933V23.148C288.933 22.764 288.845 22.456 288.669 22.224C288.501 21.984 288.237 21.864 287.877 21.864ZM292.911 20.028C292.551 20.028 292.287 19.948 292.119 19.788C291.959 19.62 291.879 19.408 291.879 19.152V18.888C291.879 18.632 291.959 18.424 292.119 18.264C292.287 18.096 292.551 18.012 292.911 18.012C293.271 18.012 293.531 18.096 293.691 18.264C293.859 18.424 293.943 18.632 293.943 18.888V19.152C293.943 19.408 293.859 19.62 293.691 19.788C293.531 19.948 293.271 20.028 292.911 20.028ZM292.023 20.7H293.799V27H292.023V20.7ZM297.665 27C297.049 27 296.581 26.844 296.261 26.532C295.949 26.22 295.793 25.764 295.793 25.164V22.08H294.905V20.7H295.349C295.589 20.7 295.753 20.644 295.841 20.532C295.929 20.412 295.973 20.244 295.973 20.028V18.996H297.569V20.7H298.817V22.08H297.569V25.62H298.721V27H297.665ZM302.632 27.144C302.152 27.144 301.724 27.068 301.348 26.916C300.972 26.756 300.652 26.536 300.388 26.256C300.132 25.968 299.936 25.62 299.8 25.212C299.672 24.804 299.608 24.348 299.608 23.844C299.608 23.348 299.672 22.9 299.8 22.5C299.928 22.092 300.116 21.744 300.364 21.456C300.62 21.168 300.932 20.948 301.3 20.796C301.668 20.636 302.088 20.556 302.56 20.556C303.08 20.556 303.524 20.644 303.892 20.82C304.268 20.996 304.572 21.232 304.804 21.528C305.044 21.824 305.216 22.168 305.32 22.56C305.432 22.944 305.488 23.348 305.488 23.772V24.3H301.444V24.396C301.444 24.812 301.556 25.144 301.78 25.392C302.004 25.632 302.356 25.752 302.836 25.752C303.204 25.752 303.504 25.68 303.736 25.536C303.968 25.384 304.184 25.204 304.384 24.996L305.272 26.1C304.992 26.428 304.624 26.684 304.168 26.868C303.72 27.052 303.208 27.144 302.632 27.144ZM302.596 21.864C302.236 21.864 301.952 21.984 301.744 22.224C301.544 22.456 301.444 22.768 301.444 23.16V23.256H303.652V23.148C303.652 22.764 303.564 22.456 303.388 22.224C303.22 21.984 302.956 21.864 302.596 21.864ZM314.234 27C313.914 27 313.646 26.9 313.43 26.7C313.222 26.5 313.09 26.232 313.034 25.896H312.962C312.866 26.304 312.654 26.616 312.326 26.832C311.998 27.04 311.594 27.144 311.114 27.144C310.482 27.144 309.998 26.976 309.662 26.64C309.326 26.304 309.158 25.86 309.158 25.308C309.158 24.644 309.398 24.152 309.878 23.832C310.366 23.504 311.026 23.34 311.858 23.34H312.854V22.944C312.854 22.64 312.774 22.4 312.614 22.224C312.454 22.04 312.186 21.948 311.81 21.948C311.458 21.948 311.178 22.024 310.97 22.176C310.762 22.328 310.59 22.5 310.454 22.692L309.398 21.756C309.654 21.38 309.974 21.088 310.358 20.88C310.75 20.664 311.278 20.556 311.942 20.556C312.838 20.556 313.51 20.752 313.958 21.144C314.406 21.536 314.63 22.108 314.63 22.86V25.62H315.218V27H314.234ZM311.774 25.908C312.07 25.908 312.322 25.844 312.53 25.716C312.746 25.588 312.854 25.38 312.854 25.092V24.348H311.99C311.294 24.348 310.946 24.584 310.946 25.056V25.236C310.946 25.468 311.018 25.64 311.162 25.752C311.306 25.856 311.51 25.908 311.774 25.908ZM318.546 27.144C317.938 27.144 317.426 27.048 317.01 26.856C316.594 26.656 316.222 26.376 315.894 26.016L316.938 24.96C317.162 25.208 317.41 25.404 317.682 25.548C317.954 25.692 318.262 25.764 318.606 25.764C318.958 25.764 319.202 25.712 319.338 25.608C319.474 25.496 319.542 25.348 319.542 25.164C319.542 24.868 319.33 24.692 318.906 24.636L318.222 24.552C316.806 24.376 316.098 23.728 316.098 22.608C316.098 22.304 316.154 22.028 316.266 21.78C316.386 21.524 316.55 21.308 316.758 21.132C316.974 20.948 317.23 20.808 317.526 20.712C317.83 20.608 318.17 20.556 318.546 20.556C318.874 20.556 319.162 20.58 319.41 20.628C319.666 20.668 319.89 20.732 320.082 20.82C320.282 20.9 320.462 21.004 320.622 21.132C320.79 21.252 320.954 21.388 321.114 21.54L320.094 22.584C319.894 22.384 319.666 22.228 319.41 22.116C319.162 21.996 318.906 21.936 318.642 21.936C318.338 21.936 318.122 21.984 317.994 22.08C317.866 22.176 317.802 22.304 317.802 22.464C317.802 22.632 317.846 22.764 317.934 22.86C318.03 22.948 318.206 23.012 318.462 23.052L319.17 23.148C320.554 23.332 321.246 23.964 321.246 25.044C321.246 25.348 321.182 25.628 321.054 25.884C320.926 26.14 320.742 26.364 320.502 26.556C320.27 26.74 319.986 26.884 319.65 26.988C319.322 27.092 318.954 27.144 318.546 27.144ZM325.293 27V20.7H327.069V21.768H327.141C327.253 21.44 327.449 21.156 327.729 20.916C328.009 20.676 328.397 20.556 328.893 20.556C329.541 20.556 330.029 20.772 330.357 21.204C330.693 21.636 330.861 22.252 330.861 23.052V27H329.085V23.196C329.085 22.788 329.021 22.488 328.893 22.296C328.765 22.096 328.537 21.996 328.209 21.996C328.065 21.996 327.925 22.016 327.789 22.056C327.653 22.088 327.529 22.144 327.417 22.224C327.313 22.304 327.229 22.404 327.165 22.524C327.101 22.636 327.069 22.768 327.069 22.92V27H325.293ZM334.997 27.144C334.533 27.144 334.117 27.068 333.749 26.916C333.389 26.764 333.081 26.544 332.825 26.256C332.577 25.968 332.385 25.62 332.249 25.212C332.113 24.804 332.045 24.348 332.045 23.844C332.045 23.34 332.113 22.884 332.249 22.476C332.385 22.068 332.577 21.724 332.825 21.444C333.081 21.156 333.389 20.936 333.749 20.784C334.117 20.632 334.533 20.556 334.997 20.556C335.461 20.556 335.873 20.632 336.233 20.784C336.601 20.936 336.909 21.156 337.157 21.444C337.413 21.724 337.609 22.068 337.745 22.476C337.881 22.884 337.949 23.34 337.949 23.844C337.949 24.348 337.881 24.804 337.745 25.212C337.609 25.62 337.413 25.968 337.157 26.256C336.909 26.544 336.601 26.764 336.233 26.916C335.873 27.068 335.461 27.144 334.997 27.144ZM334.997 25.74C335.349 25.74 335.621 25.632 335.813 25.416C336.005 25.2 336.101 24.892 336.101 24.492V23.208C336.101 22.808 336.005 22.5 335.813 22.284C335.621 22.068 335.349 21.96 334.997 21.96C334.645 21.96 334.373 22.068 334.181 22.284C333.989 22.5 333.893 22.808 333.893 23.208V24.492C333.893 24.892 333.989 25.2 334.181 25.416C334.373 25.632 334.645 25.74 334.997 25.74ZM340.465 27L338.401 20.7H340.153L340.933 23.244L341.521 25.524H341.617L342.205 23.244L342.961 20.7H344.641L342.577 27H340.465ZM350.129 27C349.809 27 349.541 26.9 349.325 26.7C349.117 26.5 348.985 26.232 348.929 25.896H348.857C348.761 26.304 348.549 26.616 348.221 26.832C347.893 27.04 347.489 27.144 347.009 27.144C346.377 27.144 345.893 26.976 345.557 26.64C345.221 26.304 345.053 25.86 345.053 25.308C345.053 24.644 345.293 24.152 345.773 23.832C346.261 23.504 346.921 23.34 347.753 23.34H348.749V22.944C348.749 22.64 348.669 22.4 348.509 22.224C348.349 22.04 348.081 21.948 347.705 21.948C347.353 21.948 347.073 22.024 346.865 22.176C346.657 22.328 346.485 22.5 346.349 22.692L345.293 21.756C345.549 21.38 345.869 21.088 346.253 20.88C346.645 20.664 347.173 20.556 347.837 20.556C348.733 20.556 349.405 20.752 349.853 21.144C350.301 21.536 350.525 22.108 350.525 22.86V25.62H351.113V27H350.129ZM347.669 25.908C347.965 25.908 348.217 25.844 348.425 25.716C348.641 25.588 348.749 25.38 348.749 25.092V24.348H347.885C347.189 24.348 346.841 24.584 346.841 25.056V25.236C346.841 25.468 346.913 25.64 347.057 25.752C347.201 25.856 347.405 25.908 347.669 25.908ZM354.441 27.144C353.833 27.144 353.321 27.048 352.905 26.856C352.489 26.656 352.117 26.376 351.789 26.016L352.833 24.96C353.057 25.208 353.305 25.404 353.577 25.548C353.849 25.692 354.157 25.764 354.501 25.764C354.853 25.764 355.097 25.712 355.233 25.608C355.369 25.496 355.437 25.348 355.437 25.164C355.437 24.868 355.225 24.692 354.801 24.636L354.117 24.552C352.701 24.376 351.993 23.728 351.993 22.608C351.993 22.304 352.049 22.028 352.161 21.78C352.281 21.524 352.445 21.308 352.653 21.132C352.869 20.948 353.125 20.808 353.421 20.712C353.725 20.608 354.065 20.556 354.441 20.556C354.769 20.556 355.057 20.58 355.305 20.628C355.561 20.668 355.785 20.732 355.977 20.82C356.177 20.9 356.357 21.004 356.517 21.132C356.685 21.252 356.849 21.388 357.009 21.54L355.989 22.584C355.789 22.384 355.561 22.228 355.305 22.116C355.057 21.996 354.801 21.936 354.537 21.936C354.233 21.936 354.017 21.984 353.889 22.08C353.761 22.176 353.697 22.304 353.697 22.464C353.697 22.632 353.741 22.764 353.829 22.86C353.925 22.948 354.101 23.012 354.357 23.052L355.065 23.148C356.449 23.332 357.141 23.964 357.141 25.044C357.141 25.348 357.077 25.628 356.949 25.884C356.821 26.14 356.637 26.364 356.397 26.556C356.165 26.74 355.881 26.884 355.545 26.988C355.217 27.092 354.849 27.144 354.441 27.144ZM361.187 20.7H362.963V21.756H363.023C363.111 21.404 363.311 21.116 363.623 20.892C363.943 20.668 364.307 20.556 364.715 20.556C365.515 20.556 366.119 20.836 366.527 21.396C366.935 21.956 367.139 22.772 367.139 23.844C367.139 24.916 366.935 25.736 366.527 26.304C366.119 26.864 365.515 27.144 364.715 27.144C364.507 27.144 364.311 27.112 364.127 27.048C363.943 26.992 363.775 26.912 363.623 26.808C363.479 26.696 363.355 26.568 363.251 26.424C363.147 26.272 363.071 26.112 363.023 25.944H362.963V29.4H361.187V20.7ZM364.127 25.704C364.463 25.704 364.739 25.588 364.955 25.356C365.179 25.116 365.291 24.796 365.291 24.396V23.304C365.291 22.904 365.179 22.588 364.955 22.356C364.739 22.116 364.463 21.996 364.127 21.996C363.791 21.996 363.511 22.08 363.287 22.248C363.071 22.408 362.963 22.632 362.963 22.92V24.78C362.963 25.068 363.071 25.296 363.287 25.464C363.511 25.624 363.791 25.704 364.127 25.704ZM370.252 27C369.644 27 369.196 26.852 368.908 26.556C368.628 26.26 368.488 25.832 368.488 25.272V18.12H370.264V25.62H371.056V27H370.252ZM376.777 27C376.457 27 376.189 26.9 375.973 26.7C375.765 26.5 375.633 26.232 375.577 25.896H375.505C375.409 26.304 375.197 26.616 374.869 26.832C374.541 27.04 374.137 27.144 373.657 27.144C373.025 27.144 372.541 26.976 372.205 26.64C371.869 26.304 371.701 25.86 371.701 25.308C371.701 24.644 371.941 24.152 372.421 23.832C372.909 23.504 373.569 23.34 374.401 23.34H375.397V22.944C375.397 22.64 375.317 22.4 375.157 22.224C374.997 22.04 374.729 21.948 374.353 21.948C374.001 21.948 373.721 22.024 373.513 22.176C373.305 22.328 373.133 22.5 372.997 22.692L371.941 21.756C372.197 21.38 372.517 21.088 372.901 20.88C373.293 20.664 373.821 20.556 374.485 20.556C375.381 20.556 376.053 20.752 376.501 21.144C376.949 21.536 377.173 22.108 377.173 22.86V25.62H377.761V27H376.777ZM374.317 25.908C374.613 25.908 374.865 25.844 375.073 25.716C375.289 25.588 375.397 25.38 375.397 25.092V24.348H374.533C373.837 24.348 373.489 24.584 373.489 25.056V25.236C373.489 25.468 373.561 25.64 373.705 25.752C373.849 25.856 374.053 25.908 374.317 25.908ZM381.091 27C380.475 27 380.007 26.844 379.687 26.532C379.375 26.22 379.219 25.764 379.219 25.164V22.08H378.331V20.7H378.775C379.015 20.7 379.179 20.644 379.267 20.532C379.355 20.412 379.399 20.244 379.399 20.028V18.996H380.995V20.7H382.243V22.08H380.995V25.62H382.147V27H381.091ZM388.132 27C387.812 27 387.544 26.9 387.328 26.7C387.12 26.5 386.988 26.232 386.932 25.896H386.86C386.764 26.304 386.552 26.616 386.224 26.832C385.896 27.04 385.492 27.144 385.012 27.144C384.38 27.144 383.896 26.976 383.56 26.64C383.224 26.304 383.056 25.86 383.056 25.308C383.056 24.644 383.296 24.152 383.776 23.832C384.264 23.504 384.924 23.34 385.756 23.34H386.752V22.944C386.752 22.64 386.672 22.4 386.512 22.224C386.352 22.04 386.084 21.948 385.708 21.948C385.356 21.948 385.076 22.024 384.868 22.176C384.66 22.328 384.488 22.5 384.352 22.692L383.296 21.756C383.552 21.38 383.872 21.088 384.256 20.88C384.648 20.664 385.176 20.556 385.84 20.556C386.736 20.556 387.408 20.752 387.856 21.144C388.304 21.536 388.528 22.108 388.528 22.86V25.62H389.116V27H388.132ZM385.672 25.908C385.968 25.908 386.22 25.844 386.428 25.716C386.644 25.588 386.752 25.38 386.752 25.092V24.348H385.888C385.192 24.348 384.844 24.584 384.844 25.056V25.236C384.844 25.468 384.916 25.64 385.06 25.752C385.204 25.856 385.408 25.908 385.672 25.908ZM390.62 22.08H389.732V20.7H390.62V19.956C390.62 19.348 390.78 18.892 391.1 18.588C391.42 18.276 391.888 18.12 392.504 18.12H393.656V19.5H392.396V20.7H393.656V22.08H392.396V27H390.62V22.08ZM397.154 27.144C396.69 27.144 396.274 27.068 395.906 26.916C395.546 26.764 395.238 26.544 394.982 26.256C394.734 25.968 394.542 25.62 394.406 25.212C394.27 24.804 394.202 24.348 394.202 23.844C394.202 23.34 394.27 22.884 394.406 22.476C394.542 22.068 394.734 21.724 394.982 21.444C395.238 21.156 395.546 20.936 395.906 20.784C396.274 20.632 396.69 20.556 397.154 20.556C397.618 20.556 398.03 20.632 398.39 20.784C398.758 20.936 399.066 21.156 399.314 21.444C399.57 21.724 399.766 22.068 399.902 22.476C400.038 22.884 400.106 23.34 400.106 23.844C400.106 24.348 400.038 24.804 399.902 25.212C399.766 25.62 399.57 25.968 399.314 26.256C399.066 26.544 398.758 26.764 398.39 26.916C398.03 27.068 397.618 27.144 397.154 27.144ZM397.154 25.74C397.506 25.74 397.778 25.632 397.97 25.416C398.162 25.2 398.258 24.892 398.258 24.492V23.208C398.258 22.808 398.162 22.5 397.97 22.284C397.778 22.068 397.506 21.96 397.154 21.96C396.802 21.96 396.53 22.068 396.338 22.284C396.146 22.5 396.05 22.808 396.05 23.208V24.492C396.05 24.892 396.146 25.2 396.338 25.416C396.53 25.632 396.802 25.74 397.154 25.74ZM401.371 27V20.7H403.147V22.068H403.207C403.239 21.892 403.295 21.724 403.375 21.564C403.455 21.396 403.559 21.248 403.687 21.12C403.823 20.992 403.983 20.892 404.167 20.82C404.351 20.74 404.567 20.7 404.815 20.7H405.127V22.356H404.683C404.163 22.356 403.775 22.424 403.519 22.56C403.271 22.696 403.147 22.948 403.147 23.316V27H401.371ZM406.223 27V20.7H407.999V21.768H408.071C408.183 21.432 408.375 21.148 408.647 20.916C408.919 20.676 409.291 20.556 409.763 20.556C410.195 20.556 410.563 20.664 410.867 20.88C411.171 21.096 411.391 21.412 411.527 21.828H411.563C411.619 21.652 411.703 21.488 411.815 21.336C411.935 21.176 412.079 21.04 412.247 20.928C412.415 20.816 412.603 20.728 412.811 20.664C413.019 20.592 413.243 20.556 413.483 20.556C414.091 20.556 414.555 20.772 414.875 21.204C415.203 21.636 415.367 22.252 415.367 23.052V27H413.591V23.196C413.591 22.396 413.303 21.996 412.727 21.996C412.463 21.996 412.223 22.072 412.007 22.224C411.791 22.376 411.683 22.608 411.683 22.92V27H409.907V23.196C409.907 22.396 409.619 21.996 409.043 21.996C408.915 21.996 408.787 22.016 408.659 22.056C408.539 22.088 408.427 22.144 408.323 22.224C408.227 22.304 408.147 22.404 408.083 22.524C408.027 22.636 407.999 22.768 407.999 22.92V27H406.223ZM421.601 27C421.281 27 421.013 26.9 420.797 26.7C420.589 26.5 420.457 26.232 420.401 25.896H420.329C420.233 26.304 420.021 26.616 419.693 26.832C419.365 27.04 418.961 27.144 418.481 27.144C417.849 27.144 417.365 26.976 417.029 26.64C416.693 26.304 416.525 25.86 416.525 25.308C416.525 24.644 416.765 24.152 417.245 23.832C417.733 23.504 418.393 23.34 419.225 23.34H420.221V22.944C420.221 22.64 420.141 22.4 419.981 22.224C419.821 22.04 419.553 21.948 419.177 21.948C418.825 21.948 418.545 22.024 418.337 22.176C418.129 22.328 417.957 22.5 417.821 22.692L416.765 21.756C417.021 21.38 417.341 21.088 417.725 20.88C418.117 20.664 418.645 20.556 419.309 20.556C420.205 20.556 420.877 20.752 421.325 21.144C421.773 21.536 421.997 22.108 421.997 22.86V25.62H422.585V27H421.601ZM419.141 25.908C419.437 25.908 419.689 25.844 419.897 25.716C420.113 25.588 420.221 25.38 420.221 25.092V24.348H419.357C418.661 24.348 418.313 24.584 418.313 25.056V25.236C418.313 25.468 418.385 25.64 418.529 25.752C418.673 25.856 418.877 25.908 419.141 25.908ZM425.913 27.144C425.305 27.144 424.793 27.048 424.377 26.856C423.961 26.656 423.589 26.376 423.261 26.016L424.305 24.96C424.529 25.208 424.777 25.404 425.049 25.548C425.321 25.692 425.629 25.764 425.973 25.764C426.325 25.764 426.569 25.712 426.705 25.608C426.841 25.496 426.909 25.348 426.909 25.164C426.909 24.868 426.697 24.692 426.273 24.636L425.589 24.552C424.173 24.376 423.465 23.728 423.465 22.608C423.465 22.304 423.521 22.028 423.633 21.78C423.753 21.524 423.917 21.308 424.125 21.132C424.341 20.948 424.597 20.808 424.893 20.712C425.197 20.608 425.537 20.556 425.913 20.556C426.241 20.556 426.529 20.58 426.777 20.628C427.033 20.668 427.257 20.732 427.449 20.82C427.649 20.9 427.829 21.004 427.989 21.132C428.157 21.252 428.321 21.388 428.481 21.54L427.461 22.584C427.261 22.384 427.033 22.228 426.777 22.116C426.529 21.996 426.273 21.936 426.009 21.936C425.705 21.936 425.489 21.984 425.361 22.08C425.233 22.176 425.169 22.304 425.169 22.464C425.169 22.632 425.213 22.764 425.301 22.86C425.397 22.948 425.573 23.012 425.829 23.052L426.537 23.148C427.921 23.332 428.613 23.964 428.613 25.044C428.613 25.348 428.549 25.628 428.421 25.884C428.293 26.14 428.109 26.364 427.869 26.556C427.637 26.74 427.353 26.884 427.017 26.988C426.689 27.092 426.321 27.144 425.913 27.144Z" fill="#333333"/>
</g>
<defs>
<clipPath id="clip0_1393_26641">
<rect width="565" height="52" fill="white"/>
</clipPath>
<clipPath id="clip1_1393_26641">
<rect width="32" height="32" fill="white" transform="translate(16.4989 10)"/>
</clipPath>
</defs>
</svg>
