<svg width="138" height="32" viewBox="0 0 138 32" fill="none" xmlns="http://www.w3.org/2000/svg">
<g clip-path="url(#clip0_2124_531)">
<path d="M27.4224 4.68281C25.1847 2.44553 22.3337 0.922046 19.2301 0.304978C16.1265 -0.312089 12.9096 0.00497746 9.98624 1.21609C7.06284 2.4272 4.5642 4.47796 2.80626 7.10907C1.04831 9.74017 0.110023 12.8335 0.110023 15.9978C0.110023 19.1622 1.04831 22.2554 2.80626 24.8865C4.5642 27.5177 7.06284 29.5684 9.98624 30.7795C12.9096 31.9906 16.1265 32.3077 19.2301 31.6906C22.3337 31.0736 25.1847 29.5501 27.4224 27.3128C28.9086 25.827 30.0874 24.063 30.8917 22.1216C31.6961 20.1801 32.11 18.0993 32.11 15.9978C32.11 13.8964 31.6961 11.8155 30.8917 9.87403C30.0874 7.93258 28.9086 6.16859 27.4224 4.68281Z" fill="white"/>
<path d="M11.6525 20.2029C11.7209 20.6124 11.8757 21.0025 12.1068 21.3474C12.3379 21.6923 12.6398 21.9839 12.9925 22.2029L12.6825 21.6329C12.6825 21.6329 13.2725 20.0929 11.6525 20.2029Z" fill="#293052"/>
<path d="M26.6124 5.49282C24.5351 3.41246 21.8873 1.99505 19.0042 1.41993C16.121 0.844806 13.1321 1.13783 10.4155 2.26191C7.69895 3.386 5.37687 5.29063 3.74308 7.73481C2.10929 10.179 1.23722 13.0529 1.23722 15.9928C1.23722 18.9328 2.10929 21.8066 3.74308 24.2508C5.37687 26.695 7.69895 28.5996 10.4155 29.7237C13.1321 30.8478 16.121 31.1408 19.0042 30.5657C21.8873 29.9906 24.5351 28.5732 26.6124 26.4928C29.3921 23.7054 30.9531 19.9294 30.9531 15.9928C30.9531 12.0562 29.3921 8.28028 26.6124 5.49282ZM25.1124 25.0028L24.6224 25.4628C21.0524 28.3728 18.3024 26.9228 18.2724 26.9228C16.4124 26.5528 15.4824 26.5428 14.9624 26.1928C14.8324 26.1028 14.4124 25.8828 14.3124 25.9328C14.0957 26.0776 13.8374 26.1472 13.5772 26.1309C13.3171 26.1147 13.0695 26.0135 12.8724 25.8428L12.7424 25.7228C12.6367 25.6432 12.5478 25.5434 12.481 25.4292C12.4141 25.315 12.3706 25.1887 12.3529 25.0575C12.3352 24.9264 12.3438 24.793 12.378 24.6652C12.4123 24.5373 12.4716 24.4176 12.5524 24.3128C12.6924 24.1728 12.4524 23.7828 12.4524 23.7828C12.4524 23.7828 11.7524 22.7828 11.2724 22.1228C10.9131 21.4893 10.7076 20.7803 10.6724 20.0528C10.37 19.7095 10.1114 19.3299 9.90243 18.9228C9.78456 18.7416 9.64706 18.5739 9.49243 18.4228C9.40289 18.3388 9.31936 18.2485 9.24243 18.1528C9.23608 18.1387 9.2328 18.1233 9.2328 18.1078C9.2328 18.0923 9.23608 18.077 9.24243 18.0628C9.43981 17.6738 9.71965 17.3326 10.0624 17.0628L10.9524 16.5128C11.0745 16.329 11.2372 16.1757 11.4279 16.0647C11.6186 15.9537 11.8323 15.8881 12.0524 15.8728C12.7602 15.8383 13.4677 15.9471 14.1324 16.1928L14.5824 16.3328C15.3324 16.5728 15.9924 16.8528 16.5224 17.0828C16.8728 17.2465 17.2336 17.3868 17.6024 17.5028C18.6384 17.5775 19.6679 17.2874 20.5124 16.6828C21.0824 16.1628 21.3224 15.8228 21.3224 15.5428C21.3194 15.4527 21.2973 15.3642 21.2577 15.2832C21.218 15.2022 21.1617 15.1305 21.0924 15.0728C21.0124 14.9928 20.9024 14.8528 20.7624 14.7128L20.6924 14.6428C19.1224 12.9728 19.3924 11.9228 19.3924 11.9128C19.3949 11.5813 19.3225 11.2535 19.1805 10.9539C19.0385 10.6544 18.8306 10.3908 18.5724 10.1828L18.3724 9.94282C19.1709 10.1664 19.9824 10.34 20.8024 10.4628C21.1654 10.5263 21.5347 10.5465 21.9024 10.5228C22.7224 10.5228 23.3624 10.4228 23.4124 10.2428C22.666 10.1035 21.9357 9.88911 21.2324 9.60282C20.4324 9.29282 20.3024 9.25282 19.7924 9.08282C19.2824 8.91282 18.4224 8.55282 18.4224 8.55282C21.2524 9.29282 22.1824 9.55282 23.4724 9.60282C23.8082 9.61431 24.1441 9.58408 24.4724 9.51282C24.6524 9.51282 25.2324 9.35282 25.2924 9.15282C24.7485 9.16434 24.2069 9.0797 23.6924 8.90282C20.3724 7.81282 20.1124 7.27282 18.2624 6.55282C17.3636 6.17802 16.4333 5.88353 15.4824 5.67282C14.6927 5.49141 13.8721 5.49141 13.0824 5.67282C10.5824 5.08282 10.0124 5.15282 9.27243 5.30282C11.7105 3.73652 14.6109 3.05109 17.4921 3.36032C20.3734 3.66955 23.0623 4.95483 25.1124 7.00282C25.6866 7.57618 26.2055 8.20227 26.6624 8.87282L26.7224 8.96282C28.3539 11.409 29.0852 14.3457 28.7916 17.2713C28.4979 20.1969 27.1975 22.9297 25.1124 25.0028ZM16.7624 10.6528C17.1465 10.8134 17.4916 11.0545 17.7745 11.3598C18.0575 11.6652 18.2716 12.0277 18.4024 12.4228C16.8224 12.7828 17.1524 11.1728 17.1524 11.1728L16.7624 10.6528Z" fill="#293052"/>
<path d="M106.811 14.0999C106.476 14.4398 106.095 14.7325 105.681 14.9699C105.304 15.1678 104.887 15.2786 104.461 15.2942C104.036 15.3098 103.612 15.2297 103.221 15.0599C102.889 14.9062 102.59 14.6887 102.341 14.4199C102.083 14.1289 101.885 13.7888 101.761 13.4199C101.626 13.0414 101.558 12.6419 101.561 12.2399C101.559 11.8445 101.626 11.4517 101.761 11.0799C101.882 10.7137 102.072 10.3742 102.321 10.0799C102.56 9.8127 102.848 9.59521 103.171 9.43991C103.506 9.28354 103.872 9.20492 104.241 9.20991C104.718 9.19267 105.191 9.30315 105.611 9.52991C106.012 9.76985 106.378 10.0625 106.701 10.3999L106.861 10.5699L108.591 8.70991L108.451 8.55991C107.964 8.02017 107.381 7.57592 106.731 7.24991C105.68 6.75761 104.503 6.601 103.359 6.80139C102.216 7.00179 101.162 7.54945 100.341 8.36991C99.8515 8.87398 99.4643 9.46831 99.2011 10.1199C98.9293 10.7901 98.79 11.5067 98.7912 12.2299C98.7888 12.9533 98.928 13.6701 99.2011 14.3399C99.4646 14.9855 99.8519 15.5732 100.341 16.0699C100.853 16.5804 101.462 16.9839 102.131 17.2569C102.801 17.5298 103.518 17.6669 104.241 17.6599C105.117 17.6907 105.987 17.5016 106.771 17.1099C107.434 16.7445 108.03 16.2675 108.531 15.6999L108.671 15.5399L106.971 13.8699L106.811 14.0999ZM119.111 8.38991C118.604 7.8867 118.003 7.48902 117.341 7.21991C116.634 6.92923 115.876 6.78302 115.111 6.78991C114.346 6.78428 113.587 6.93396 112.881 7.22991C111.557 7.78094 110.501 8.8293 109.941 10.1499C109.654 10.8231 109.508 11.548 109.511 12.2799C109.51 13.0041 109.653 13.7214 109.931 14.3899C110.202 15.0503 110.603 15.649 111.111 16.1499C111.621 16.6465 112.222 17.0404 112.881 17.3099C114.309 17.8855 115.904 17.8855 117.331 17.3099C118.662 16.7647 119.722 15.7149 120.281 14.3899C120.568 13.7237 120.715 13.0053 120.711 12.2799C120.721 11.557 120.584 10.8397 120.309 10.1711C120.034 9.50249 119.627 8.89657 119.111 8.38991ZM115.111 15.2999C114.722 15.303 114.336 15.2211 113.981 15.0599C113.641 14.9043 113.336 14.6835 113.081 14.4099C112.824 14.1159 112.624 13.7768 112.491 13.4099C112.349 13.0363 112.278 12.6396 112.281 12.2399C112.281 11.8414 112.349 11.4457 112.481 11.0699C112.602 10.7219 112.793 10.4021 113.041 10.1299C113.293 9.85982 113.595 9.64229 113.931 9.48991C114.294 9.33364 114.686 9.25304 115.081 9.25304C115.477 9.25304 115.868 9.33364 116.231 9.48991C116.571 9.64457 116.877 9.86555 117.131 10.1399C117.391 10.4316 117.591 10.7713 117.721 11.1399C117.863 11.5171 117.934 11.917 117.931 12.3199C117.935 12.7147 117.871 13.1072 117.741 13.4799C117.617 13.8295 117.427 14.152 117.181 14.4299C116.932 14.6985 116.633 14.916 116.301 15.0699C115.926 15.2332 115.52 15.3117 115.111 15.2999ZM136.941 7.85991C136.582 7.49716 136.151 7.21431 135.676 7.02991C135.2 6.84551 134.691 6.76372 134.181 6.78991C133.45 6.77193 132.728 6.95159 132.091 7.30991C131.6 7.6025 131.161 7.97417 130.791 8.40991C130.522 7.97013 130.156 7.59739 129.721 7.31991C129.123 6.94515 128.426 6.76036 127.721 6.78991C127.349 6.7874 126.978 6.84134 126.621 6.94991C126.305 7.04478 126.005 7.18635 125.731 7.36991C125.502 7.55636 125.294 7.76765 125.111 7.99991L124.961 8.16991V6.99991H122.191V17.5099H124.961V11.6399C124.922 11.0273 125.111 10.4219 125.491 9.93991C125.664 9.74403 125.879 9.58937 126.119 9.48727C126.36 9.38518 126.62 9.33824 126.881 9.34991C127.13 9.33443 127.379 9.37591 127.61 9.47122C127.84 9.56653 128.046 9.71314 128.211 9.89991C128.564 10.3821 128.734 10.9739 128.691 11.5699V17.5699H131.461V11.6199C131.417 11.005 131.61 10.3967 132.001 9.91991C132.178 9.72986 132.393 9.58045 132.633 9.48203C132.873 9.38361 133.132 9.33853 133.391 9.34991C133.64 9.33443 133.889 9.37591 134.12 9.47122C134.35 9.56653 134.556 9.71314 134.721 9.89991C135.075 10.3894 135.245 10.9877 135.201 11.5899V17.5199H137.971V10.8599C138.029 9.76431 137.66 8.68899 136.941 7.85991Z" fill="#E78024"/>
<path d="M97.4712 16.2099C97.4712 15.9073 97.3814 15.6115 97.2133 15.3599C97.0452 15.1083 96.8062 14.9122 96.5267 14.7964C96.2471 14.6806 95.9395 14.6503 95.6427 14.7093C95.3459 14.7683 95.0733 14.9141 94.8593 15.128C94.6453 15.342 94.4996 15.6146 94.4406 15.9114C94.3815 16.2082 94.4118 16.5158 94.5276 16.7954C94.6434 17.075 94.8395 17.3139 95.0911 17.4821C95.3427 17.6502 95.6386 17.7399 95.9412 17.7399C96.3469 17.7399 96.7361 17.5787 97.023 17.2918C97.31 17.0049 97.4712 16.6157 97.4712 16.2099Z" fill="#E78024"/>
<path d="M59.6211 6.79003C59.2419 6.78688 58.8643 6.84081 58.5011 6.95003C58.1803 7.04846 57.8742 7.18973 57.5911 7.37003C57.3238 7.53888 57.0785 7.74044 56.8611 7.97003L56.7011 8.15003V7.00003H53.9311V17.51H56.7011V11.62C56.6626 11.0086 56.8635 10.4061 57.2611 9.94003C57.4497 9.74226 57.6785 9.58724 57.9321 9.48546C58.1857 9.38368 58.4581 9.3375 58.7311 9.35003C58.9882 9.33613 59.2451 9.37911 59.4837 9.4759C59.7222 9.5727 59.9364 9.72093 60.1111 9.91003C60.4744 10.3878 60.652 10.9812 60.6111 11.58V17.51H63.3811V10.88C63.4389 9.78959 63.0816 8.7177 62.3811 7.88003C62.0261 7.51105 61.5959 7.22275 61.1197 7.03468C60.6435 6.84661 60.1324 6.76317 59.6211 6.79003ZM69.8311 6.86003C69.101 6.84595 68.372 6.92322 67.6611 7.09003C67.0613 7.24701 66.4759 7.45442 65.9111 7.71003L65.7311 7.80003L66.5011 10.06L66.7111 10C67.1403 9.82006 67.5813 9.66971 68.0311 9.55003C68.5126 9.43629 69.0064 9.38255 69.5011 9.39003C70.1062 9.34876 70.7059 9.5262 71.1911 9.89003C71.3752 10.0579 71.5206 10.2638 71.6173 10.4935C71.714 10.7231 71.7597 10.971 71.7511 11.22C71.422 11.126 71.0882 11.0493 70.7511 10.99C70.2256 10.9042 69.6936 10.8641 69.1611 10.87C68.591 10.8661 68.0229 10.9367 67.4711 11.08C66.9822 11.1976 66.5205 11.4081 66.1111 11.7C65.7243 11.9929 65.4125 12.3733 65.2011 12.81C64.9729 13.2978 64.86 13.8316 64.8711 14.37C64.8627 14.8686 64.9723 15.362 65.1911 15.81C65.3967 16.1994 65.6831 16.5403 66.0311 16.81C66.3907 17.095 66.8014 17.3088 67.2411 17.44C67.708 17.5813 68.1933 17.6521 68.6811 17.65C69.3732 17.6635 70.0586 17.5127 70.6811 17.21C71.0415 17.026 71.3775 16.7975 71.6811 16.53V17.45H74.4111V11.34C74.461 10.7388 74.3903 10.1336 74.2031 9.56006C74.0159 8.9865 73.7161 8.45612 73.3211 8.00003C72.846 7.58506 72.292 7.27021 71.6923 7.07433C71.0926 6.87845 70.4596 6.80556 69.8311 6.86003ZM69.3511 15.56C68.9132 15.5721 68.4816 15.4538 68.1111 15.22C67.9583 15.1227 67.8348 14.9857 67.7538 14.8237C67.6727 14.6617 67.6373 14.4807 67.6511 14.3C67.6385 14.1029 67.6792 13.906 67.7689 13.7301C67.8587 13.5541 67.9942 13.4056 68.1611 13.3C68.6353 13.0208 69.1817 12.8885 69.7311 12.92C70.1436 12.9186 70.5554 12.9554 70.9611 13.03C71.2526 13.0831 71.5399 13.1567 71.8211 13.25V13.67C71.8263 13.9365 71.7681 14.2005 71.6511 14.44C71.5138 14.6636 71.3296 14.8547 71.1111 15C70.8754 15.1762 70.6117 15.3114 70.3311 15.4C70.0142 15.5016 69.6839 15.5555 69.3511 15.56ZM88.7411 14.05L86.0311 7.00003H83.1111L87.4011 17.29C87.2895 17.5722 87.115 17.8252 86.8911 18.03C86.6903 18.1728 86.4471 18.2433 86.2011 18.23C85.9873 18.2282 85.775 18.1945 85.5711 18.13C85.357 18.0624 85.1494 17.9754 84.9511 17.87L84.7411 17.76L83.7411 19.88L83.9211 19.98C84.2831 20.1773 84.6653 20.3349 85.0611 20.45C85.5013 20.5679 85.9555 20.6251 86.4111 20.62C86.8003 20.6251 87.1881 20.5712 87.5611 20.46C87.926 20.3508 88.2658 20.1707 88.5611 19.93C88.8659 19.667 89.1259 19.3563 89.3311 19.01C89.5854 18.5791 89.8029 18.1275 89.9811 17.66L94.1111 7.00003H91.2011L88.7411 14.05Z" fill="white"/>
<path d="M49.6811 7.00003H52.4511V17.52H49.6811V7.00003ZM52.6011 4.54003C52.601 4.23574 52.5102 3.9384 52.3402 3.686C52.1703 3.4336 51.9289 3.23761 51.647 3.12307C51.3651 3.00854 51.0554 2.98067 50.7576 3.04302C50.4598 3.10537 50.1873 3.25511 49.975 3.4731C49.7627 3.6911 49.6202 3.96744 49.5658 4.26682C49.5114 4.5662 49.5474 4.87501 49.6694 5.15378C49.7913 5.43256 49.9937 5.66864 50.2505 5.83185C50.5073 5.99506 50.8069 6.07799 51.1111 6.07003C51.5099 6.0596 51.8889 5.89381 52.1672 5.608C52.4455 5.3222 52.6012 4.93898 52.6011 4.54003Z" fill="white"/>
<path d="M47.3911 11.09C47.122 10.8028 46.812 10.5568 46.4711 10.36C46.241 10.2306 46.0039 10.1137 45.7611 10.01L45.6011 9.95003L45.7411 9.86003L46.1111 9.60003C46.3704 9.40463 46.5995 9.17214 46.7911 8.91003C46.9853 8.63062 47.1369 8.32395 47.2411 8.00003C47.3675 7.61283 47.4283 7.20726 47.4211 6.80003C47.4309 6.34348 47.3472 5.88975 47.1753 5.46672C47.0033 5.04368 46.7467 4.66027 46.4211 4.34003C45.9085 3.87243 45.3069 3.51281 44.6524 3.2826C43.9978 3.05238 43.3036 2.95629 42.6111 3.00003H36.1111V17.51H42.8111C43.5492 17.5177 44.2853 17.4303 45.0011 17.25C45.6122 17.1016 46.1914 16.8441 46.7111 16.49C47.1775 16.1617 47.5582 15.7262 47.8211 15.22C48.0874 14.6756 48.221 14.076 48.2111 13.47C48.2213 13.0177 48.1501 12.5672 48.0011 12.14C47.8715 11.7521 47.6639 11.3948 47.3911 11.09ZM38.8611 5.51003H42.3011C42.9419 5.46993 43.5781 5.64215 44.1111 6.00003C44.3007 6.13766 44.453 6.32036 44.5543 6.53161C44.6555 6.74287 44.7026 6.97604 44.6911 7.21003C44.7101 7.47049 44.6589 7.73127 44.5428 7.96519C44.4267 8.19912 44.25 8.39763 44.0311 8.54003C43.4518 8.88276 42.7828 9.04305 42.1111 9.00003H38.8611V5.51003ZM45.4311 13.2C45.4477 13.4627 45.3945 13.725 45.2768 13.9604C45.1591 14.1957 44.9812 14.3957 44.7611 14.54C44.1796 14.8771 43.5123 15.037 42.8411 15H38.8411V11.4H42.6411C43.3752 11.348 44.1085 11.5113 44.7511 11.87C44.9632 12.0097 45.1354 12.202 45.2511 12.4281C45.3668 12.6541 45.4219 12.9063 45.4111 13.16L45.4311 13.2ZM82.1111 6.80003C81.2678 6.73048 80.4282 6.9724 79.7511 7.48003C79.3569 7.78631 79.0185 8.15846 78.7511 8.58003V7.00003H75.9511V17.51H78.7211V13.46C78.7112 12.8908 78.7922 12.3237 78.9611 11.78C79.0959 11.3477 79.3208 10.9489 79.6211 10.61C79.8984 10.3078 80.2402 10.072 80.6211 9.92003C81.0395 9.76175 81.4839 9.68372 81.9311 9.69003H82.2711V6.81003L82.1111 6.80003Z" fill="white"/>
<path d="M36.8911 29.0001L37.8911 24.0601H36.1111L36.2411 23.4201H40.6111L40.4811 24.0601H38.6711L37.6711 29.0001H36.8911ZM39.5611 29.0001L40.4011 25.0001H41.0111L40.8411 25.8301C41.0051 25.5681 41.2112 25.335 41.4511 25.1401C41.6244 25.001 41.839 24.9236 42.0611 24.9201C42.2402 24.9313 42.4145 24.9826 42.5711 25.0701L42.2911 25.7101C42.1786 25.6257 42.0417 25.5801 41.9011 25.5801C41.757 25.5927 41.617 25.6347 41.4897 25.7035C41.3625 25.7723 41.2506 25.8664 41.1611 25.9801C40.8385 26.403 40.6317 26.9028 40.5611 27.4301L40.2111 29.0001H39.5611ZM44.9111 28.2301C44.7383 28.4679 44.5151 28.6646 44.2576 28.8064C44.0001 28.9481 43.7145 29.0313 43.4211 29.0501C43.1455 29.0611 42.8765 28.9642 42.6711 28.7801C42.5779 28.6976 42.5037 28.5959 42.4536 28.4819C42.4035 28.368 42.3788 28.2445 42.3811 28.1201C42.3988 27.8268 42.4423 27.5357 42.5111 27.2501L43.0011 24.9201H43.6911L43.1111 27.5101C43.0957 27.6731 43.0957 27.8371 43.1111 28.0001C43.1069 28.0667 43.1173 28.1333 43.1415 28.1955C43.1657 28.2577 43.2031 28.3138 43.2511 28.3601C43.3665 28.4535 43.5129 28.4999 43.6611 28.4901C43.8562 28.4885 44.0482 28.4405 44.2211 28.3501C44.4055 28.2578 44.5689 28.1284 44.7011 27.9701C44.8419 27.7996 44.9534 27.607 45.0311 27.4001C45.1127 27.1619 45.1762 26.9179 45.2211 26.6701L45.5911 24.9201H46.2811L45.4411 28.9201H44.8011L44.9111 28.2301ZM46.5511 27.5801H47.2411C47.2355 27.7545 47.2661 27.9282 47.3311 28.0901C47.4021 28.239 47.5222 28.3591 47.6711 28.4301C47.8472 28.5205 48.0432 28.5652 48.2411 28.5601C48.4815 28.5776 48.7209 28.5143 48.9211 28.3801C48.9905 28.3315 49.0475 28.2672 49.0874 28.1925C49.1274 28.1178 49.1492 28.0348 49.1511 27.9501C49.1483 27.8233 49.0984 27.7021 49.0111 27.6101C48.8071 27.4386 48.5732 27.3064 48.3211 27.2201C48.0815 27.124 47.8477 27.0138 47.6211 26.8901C47.4669 26.7986 47.3366 26.6718 47.2411 26.5201C47.1466 26.3637 47.1013 26.1825 47.1111 26.0001C47.1108 25.844 47.1446 25.6897 47.2103 25.548C47.2759 25.4063 47.3718 25.2808 47.4911 25.1801C47.7897 24.9385 48.1677 24.8173 48.5511 24.8401C48.9676 24.8103 49.3805 24.9349 49.7111 25.1901C49.8423 25.3065 49.9468 25.4499 50.0176 25.6104C50.0883 25.7708 50.1236 25.9447 50.1211 26.1201H49.4511C49.4515 26.0105 49.4286 25.902 49.3837 25.802C49.3389 25.702 49.2732 25.6127 49.1911 25.5401C48.9952 25.3867 48.7492 25.3118 48.5011 25.3301C48.3014 25.3158 48.1031 25.3725 47.9411 25.4901C47.8834 25.5294 47.8354 25.5814 47.8007 25.642C47.7661 25.7027 47.7457 25.7704 47.7411 25.8401C47.743 25.9043 47.7592 25.9673 47.7887 26.0244C47.8181 26.0815 47.8599 26.1313 47.9111 26.1701C48.0955 26.2925 48.2935 26.3932 48.5011 26.4701C48.8584 26.6016 49.1952 26.7834 49.5011 27.0101C49.6085 27.1069 49.6937 27.2259 49.7506 27.3589C49.8076 27.4918 49.8351 27.6355 49.8311 27.7801C49.8297 27.9901 49.7672 28.1951 49.6511 28.3701C49.5131 28.5746 49.3185 28.7344 49.0911 28.8301C48.8101 28.9499 48.5065 29.0079 48.2011 29.0001C47.7774 29.0125 47.3607 28.8899 47.0111 28.6501C46.852 28.5236 46.7267 28.3597 46.6464 28.173C46.5662 27.9863 46.5334 27.7826 46.5511 27.5801ZM51.9911 28.4101L51.8811 28.9701C51.7243 29.0106 51.563 29.0307 51.4011 29.0301C51.1677 29.0414 50.9378 28.9706 50.7511 28.8301C50.6919 28.7799 50.6449 28.7169 50.6137 28.6459C50.5825 28.5748 50.5679 28.4976 50.5711 28.4201C50.5893 28.2146 50.6227 28.0107 50.6711 27.8101L51.1111 25.4601H50.5711L50.6811 24.9301H51.2211L51.4311 23.9301L52.2211 23.4501L51.9111 24.9201H52.5911L52.4811 25.4501H51.8111L51.3411 27.6801C51.3006 27.8481 51.2705 28.0184 51.2511 28.1901C51.2482 28.2249 51.253 28.26 51.2651 28.2928C51.2772 28.3256 51.2963 28.3554 51.3211 28.3801C51.3877 28.428 51.4696 28.4493 51.5511 28.4401C51.6985 28.4498 51.8464 28.4397 51.9911 28.4101ZM55.5111 27.5901L56.1811 27.6601C56.0595 28.0348 55.8299 28.3653 55.5211 28.6101C55.1781 28.909 54.736 29.0695 54.2811 29.0601C53.9943 29.0617 53.7119 28.9893 53.4611 28.8501C53.2134 28.7142 53.0142 28.5044 52.8911 28.2501C52.7553 27.9698 52.6868 27.6616 52.6911 27.3501C52.6938 26.9052 52.7999 26.467 53.0011 26.0701C53.1726 25.6952 53.4464 25.3763 53.7911 25.1501C54.1065 24.9546 54.4701 24.8507 54.8411 24.8501C55.0535 24.8411 55.2655 24.8764 55.4635 24.9539C55.6615 25.0314 55.8412 25.1493 55.9911 25.3001C56.1394 25.4652 56.2537 25.658 56.3275 25.8673C56.4012 26.0766 56.4331 26.2985 56.4211 26.5201C56.4217 26.7245 56.405 26.9285 56.3711 27.1301H53.3711C53.3667 27.2 53.3667 27.2702 53.3711 27.3401C53.3485 27.6521 53.441 27.9616 53.6311 28.2101C53.7082 28.3052 53.8058 28.3816 53.9167 28.4336C54.0275 28.4855 54.1487 28.5117 54.2711 28.5101C54.5225 28.5067 54.7668 28.4265 54.9711 28.2801C55.2153 28.1085 55.4033 27.8684 55.5111 27.5901ZM53.5111 26.5901H55.7811V26.4401C55.799 26.1531 55.706 25.8703 55.5211 25.6501C55.4362 25.5579 55.3324 25.4852 55.2167 25.4368C55.1011 25.3885 54.9764 25.3657 54.8511 25.3701C54.557 25.3704 54.2729 25.4769 54.0511 25.6701C53.7833 25.9159 53.5952 26.2364 53.5111 26.5901ZM59.6011 28.3801C59.4583 28.5765 59.2741 28.7392 59.0616 28.8567C58.8491 28.9742 58.6134 29.0436 58.3711 29.0601C58.1834 29.0712 57.9957 29.0391 57.8223 28.9663C57.649 28.8935 57.4946 28.7819 57.3711 28.6401C57.0954 28.2919 56.9599 27.8531 56.9911 27.4101C56.9846 26.9429 57.0873 26.4806 57.2911 26.0601C57.4602 25.6953 57.7223 25.3814 58.0511 25.1501C58.3175 24.9612 58.6346 24.8567 58.9611 24.8501C59.202 24.8456 59.4388 24.9126 59.6416 25.0425C59.8445 25.1724 60.0044 25.3594 60.1011 25.5801L60.5611 23.4101H61.2411L60.1111 29.0001H59.4711L59.6011 28.3801ZM57.7111 27.2701C57.7018 27.4963 57.7288 27.7225 57.7911 27.9401C57.8471 28.0986 57.9478 28.2376 58.0811 28.3401C58.2177 28.4474 58.3874 28.504 58.5611 28.5001C58.7323 28.4902 58.8987 28.4397 59.0465 28.3528C59.1943 28.2658 59.3193 28.1449 59.4111 28.0001C59.7605 27.5415 59.9407 26.9763 59.9211 26.4001C59.9376 26.1272 59.848 25.8585 59.6711 25.6501C59.5914 25.5628 59.4939 25.4936 59.3853 25.447C59.2766 25.4005 59.1593 25.3776 59.0411 25.3801C58.8842 25.3782 58.7294 25.416 58.5911 25.4901C58.4335 25.5843 58.2973 25.7103 58.1911 25.8601C58.0426 26.0637 57.9278 26.29 57.8511 26.5301C57.7637 26.7673 57.7164 27.0174 57.7111 27.2701ZM63.3711 29.0001L64.5311 23.4301H65.2211L64.8111 25.4301C64.9858 25.2615 65.1846 25.12 65.4011 25.0101C65.5765 24.929 65.7678 24.888 65.9611 24.8901C66.1389 24.8873 66.3152 24.9235 66.4776 24.9961C66.64 25.0686 66.7845 25.1758 66.9011 25.3101C67.1768 25.6583 67.3123 26.097 67.2811 26.5401C67.288 26.8795 67.2373 27.2176 67.1311 27.5401C67.0439 27.8082 66.9157 28.0612 66.7511 28.2901C66.6212 28.471 66.4663 28.6326 66.2911 28.7701C66.1425 28.8845 65.9772 28.9756 65.8011 29.0401C65.6474 29.0972 65.4851 29.1276 65.3211 29.1301C65.0716 29.1346 64.8269 29.0612 64.6211 28.9201C64.3764 28.7429 64.1971 28.4898 64.1111 28.2001L63.9511 28.9601L63.3711 29.0001ZM64.3711 27.3401V27.4701C64.3514 27.7556 64.4407 28.0379 64.6211 28.2601C64.6985 28.3476 64.7941 28.4172 64.9012 28.4638C65.0083 28.5105 65.1243 28.5331 65.2411 28.5301C65.4842 28.5297 65.7188 28.4409 65.9011 28.2801C66.1344 28.0654 66.3069 27.7929 66.4011 27.4901C66.5223 27.1704 66.5866 26.832 66.5911 26.4901C66.6069 26.2051 66.518 25.9241 66.3411 25.7001C66.2672 25.6104 66.1739 25.5386 66.0682 25.4901C65.9626 25.4416 65.8473 25.4177 65.7311 25.4201C65.4757 25.4263 65.2324 25.5301 65.0511 25.7101C64.8096 25.9574 64.6312 26.2592 64.5311 26.5901C64.4469 26.8212 64.3996 27.0642 64.3911 27.3101L64.3711 27.3401ZM67.4411 30.5201V29.8701C67.5744 29.9088 67.7123 29.929 67.8511 29.9301C67.9723 29.9344 68.0916 29.8993 68.1911 29.8301C68.3432 29.6984 68.4688 29.5389 68.5611 29.3601L68.7811 28.9601L68.1111 24.9601H68.7911L69.0911 26.9601C69.1511 27.3601 69.2044 27.7634 69.2511 28.1701L71.1111 24.9301H71.8311L69.2411 29.5001C69.0799 29.8362 68.8559 30.1383 68.5811 30.3901C68.3887 30.5363 68.1528 30.6138 67.9111 30.6101C67.7505 30.6071 67.5915 30.5766 67.4411 30.5201ZM75.3711 28.4101L75.2611 28.9701C75.1043 29.0106 74.943 29.0307 74.7811 29.0301C74.5477 29.0414 74.3177 28.9706 74.1311 28.8301C74.0719 28.7799 74.0249 28.7169 73.9937 28.6459C73.9625 28.5748 73.9479 28.4976 73.9511 28.4201C73.9693 28.2146 74.0027 28.0107 74.0511 27.8101L74.5411 25.4601H74.0011L74.1111 24.9301H74.6511L74.8611 23.9301L75.6511 23.4501L75.3411 24.9201H76.0211L75.9111 25.4501H75.2111L74.7411 27.6801C74.7006 27.8481 74.6705 28.0184 74.6511 28.1901C74.6482 28.2249 74.653 28.26 74.6651 28.2928C74.6772 28.3256 74.6963 28.3554 74.7211 28.3801C74.7877 28.428 74.8696 28.4493 74.9511 28.4401C75.0918 28.4481 75.233 28.438 75.3711 28.4101ZM75.9211 29.0001L76.7611 25.0001H77.3711L77.2011 25.8301C77.3651 25.5681 77.5712 25.335 77.8111 25.1401C77.9844 25.001 78.199 24.9236 78.4211 24.9201C78.6002 24.9313 78.7745 24.9826 78.9311 25.0701L78.6511 25.7101C78.5386 25.6257 78.4017 25.5801 78.2611 25.5801C78.117 25.5927 77.977 25.6347 77.8497 25.7035C77.7225 25.7723 77.6106 25.8664 77.5211 25.9801C77.1985 26.403 76.9917 26.9028 76.9211 27.4301L76.5811 29.0001H75.9211ZM81.2411 28.4601C81.0351 28.644 80.8025 28.7957 80.5511 28.9101C80.3266 29.0051 80.0849 29.0528 79.8411 29.0501C79.6768 29.057 79.5127 29.0314 79.3582 28.9748C79.2038 28.9182 79.062 28.8316 78.9411 28.7201C78.829 28.6115 78.7409 28.4807 78.6824 28.336C78.6238 28.1914 78.5961 28.0361 78.6011 27.8801C78.5954 27.6701 78.6473 27.4626 78.7511 27.2801C78.8512 27.1086 78.992 26.9643 79.1611 26.8601C79.3518 26.7458 79.562 26.6678 79.7811 26.6301C80.0727 26.5883 80.3666 26.5649 80.6611 26.5601C80.9764 26.5602 81.2899 26.513 81.5911 26.4201C81.6387 26.2677 81.6656 26.1096 81.6711 25.9501C81.6755 25.8777 81.6623 25.8054 81.6327 25.7392C81.6031 25.6731 81.5579 25.6151 81.5011 25.5701C81.2956 25.4302 81.0491 25.3632 80.8011 25.3801C80.5505 25.3683 80.3023 25.4347 80.0911 25.5701C79.902 25.7056 79.7617 25.8985 79.6911 26.1201L78.9911 26.0601C79.1103 25.6897 79.3452 25.3672 79.6611 25.1401C80.0086 24.9149 80.4174 24.8031 80.8311 24.8201C81.2577 24.7967 81.679 24.9241 82.0211 25.1801C82.1268 25.2608 82.2118 25.3654 82.2692 25.4853C82.3266 25.6053 82.3546 25.7372 82.3511 25.8701C82.345 26.123 82.3115 26.3744 82.2511 26.6201L82.0311 27.6201C81.9672 27.8755 81.9304 28.1369 81.9211 28.4001C81.9281 28.5857 81.9549 28.7701 82.0011 28.9501H81.3011C81.2652 28.7891 81.2451 28.625 81.2411 28.4601ZM81.4911 26.9201C81.3909 26.9601 81.2871 26.9902 81.1811 27.0101L80.6311 27.0701C80.3441 27.0845 80.0593 27.1281 79.7811 27.2001C79.6327 27.2441 79.5028 27.3354 79.4111 27.4601C79.326 27.576 79.2804 27.7163 79.2811 27.8601C79.2777 27.9498 79.2938 28.0392 79.3284 28.1221C79.3629 28.2049 79.415 28.2793 79.4811 28.3401C79.6392 28.4751 79.8436 28.5432 80.0511 28.5301C80.2872 28.529 80.5189 28.4655 80.7226 28.3461C80.9263 28.2267 81.0948 28.0556 81.2111 27.8501C81.3555 27.5578 81.4502 27.2435 81.4911 26.9201ZM85.5711 28.3801C85.4283 28.5765 85.2441 28.7392 85.0316 28.8567C84.8191 28.9742 84.5834 29.0436 84.3411 29.0601C84.1534 29.0712 83.9657 29.0391 83.7923 28.9663C83.619 28.8935 83.4646 28.7819 83.3411 28.6401C83.0654 28.2919 82.9299 27.8531 82.9611 27.4101C82.9546 26.9429 83.0573 26.4806 83.2611 26.0601C83.4302 25.6953 83.6923 25.3814 84.0211 25.1501C84.2875 24.9612 84.6046 24.8567 84.9311 24.8501C85.172 24.8456 85.4088 24.9126 85.6116 25.0425C85.8145 25.1724 85.9744 25.3594 86.0711 25.5801L86.5311 23.4101H87.2111L86.1111 29.0001H85.4711L85.5711 28.3801ZM83.6811 27.2701C83.6718 27.4963 83.6988 27.7225 83.7611 27.9401C83.8171 28.0986 83.9178 28.2376 84.0511 28.3401C84.1877 28.4474 84.3574 28.504 84.5311 28.5001C84.7014 28.4913 84.8672 28.4423 85.015 28.3572C85.1627 28.272 85.2882 28.1531 85.3811 28.0101C85.7305 27.5515 85.9107 26.9863 85.8911 26.4101C85.9076 26.1372 85.818 25.8685 85.6411 25.6601C85.5614 25.5728 85.4639 25.5036 85.3553 25.457C85.2466 25.4105 85.1293 25.3876 85.0111 25.3901C84.8542 25.3882 84.6994 25.426 84.5611 25.5001C84.4035 25.5943 84.2673 25.7203 84.1611 25.8701C84.0126 26.0737 83.8978 26.3 83.8211 26.5401C83.7348 26.7741 83.6875 27.0207 83.6811 27.2701ZM90.1111 27.5901L90.7811 27.6601C90.6595 28.0348 90.4299 28.3653 90.1211 28.6101C89.7781 28.909 89.336 29.0695 88.8811 29.0601C88.5943 29.0617 88.3119 28.9893 88.0611 28.8501C87.8134 28.7142 87.6142 28.5044 87.4911 28.2501C87.3553 27.9698 87.2868 27.6616 87.2911 27.3501C87.2938 26.9052 87.3999 26.467 87.6011 26.0701C87.7726 25.6952 88.0464 25.3763 88.3911 25.1501C88.7065 24.9546 89.0701 24.8507 89.4411 24.8501C89.6535 24.8411 89.8655 24.8764 90.0635 24.9539C90.2615 25.0314 90.4412 25.1493 90.5911 25.3001C90.7544 25.4567 90.8845 25.6445 90.9738 25.8523C91.0631 26.0602 91.1098 26.2839 91.1111 26.5101C91.1117 26.7145 91.095 26.9185 91.0611 27.1201H88.0611C88.0567 27.19 88.0567 27.2602 88.0611 27.3301C88.0385 27.6421 88.131 27.9516 88.3211 28.2001C88.3982 28.2952 88.4958 28.3716 88.6067 28.4236C88.7175 28.4755 88.8387 28.5017 88.9611 28.5001C89.2125 28.4967 89.4568 28.4165 89.6611 28.2701C89.8706 28.089 90.0263 27.8537 90.1111 27.5901ZM88.1111 26.5901H90.4111V26.4401C90.4291 26.1531 90.336 25.8703 90.1511 25.6501C90.0662 25.5579 89.9624 25.4852 89.8467 25.4368C89.7311 25.3885 89.6064 25.3657 89.4811 25.3701C89.187 25.3704 88.9029 25.4769 88.6811 25.6701C88.4022 25.9119 88.2034 26.2327 88.1111 26.5901ZM91.5111 29.0001L92.3511 25.0001H92.9611L92.7911 25.8301C92.9551 25.5681 93.1612 25.335 93.4011 25.1401C93.5744 25.001 93.789 24.9236 94.0111 24.9201C94.1902 24.9313 94.3645 24.9826 94.5211 25.0701L94.2411 25.7101C94.1286 25.6257 93.9917 25.5801 93.8511 25.5801C93.707 25.5927 93.567 25.6347 93.4397 25.7035C93.3125 25.7723 93.2006 25.8664 93.1111 25.9801C92.7885 26.403 92.5817 26.9028 92.5111 27.4301L92.1611 29.0001H91.5111ZM94.1711 27.5801H94.8611C94.8555 27.7545 94.8861 27.9282 94.9511 28.0901C95.0221 28.239 95.1422 28.3591 95.2911 28.4301C95.4672 28.5205 95.6632 28.5652 95.8611 28.5601C96.1015 28.5776 96.3409 28.5143 96.5411 28.3801C96.6105 28.3315 96.6675 28.2672 96.7074 28.1925C96.7474 28.1178 96.7692 28.0348 96.7711 27.9501C96.7683 27.8233 96.7184 27.7021 96.6311 27.6101C96.4271 27.4386 96.1932 27.3064 95.9411 27.2201C95.7015 27.124 95.4677 27.0138 95.2411 26.8901C95.0869 26.7986 94.9566 26.6718 94.8611 26.5201C94.774 26.3753 94.729 26.2091 94.7311 26.0401C94.7308 25.884 94.7646 25.7297 94.8303 25.588C94.8959 25.4463 94.9918 25.3208 95.1111 25.2201C95.4097 24.9785 95.7877 24.8573 96.1711 24.8801C96.5876 24.8503 97.0005 24.9749 97.3311 25.2301C97.4623 25.3465 97.5668 25.4899 97.6376 25.6504C97.7083 25.8108 97.7436 25.9847 97.7411 26.1601H97.0711C97.0715 26.0505 97.0486 25.942 97.0037 25.842C96.9589 25.742 96.8932 25.6527 96.8111 25.5801C96.6152 25.4267 96.3692 25.3518 96.1211 25.3701C95.9214 25.3558 95.7231 25.4125 95.5611 25.5301C95.5034 25.5694 95.4554 25.6214 95.4207 25.682C95.3861 25.7427 95.3657 25.8104 95.3611 25.8801C95.363 25.9443 95.3792 26.0073 95.4087 26.0644C95.4381 26.1215 95.4799 26.1713 95.5311 26.2101C95.7155 26.3325 95.9135 26.4332 96.1211 26.5101C96.4784 26.6416 96.8152 26.8234 97.1211 27.0501C97.2285 27.1469 97.3137 27.2659 97.3706 27.3989C97.4276 27.5318 97.455 27.6755 97.4511 27.8201C97.4497 28.0301 97.3872 28.2351 97.2711 28.4101C97.1331 28.6146 96.9385 28.7744 96.7111 28.8701C96.4301 28.9899 96.1265 29.0479 95.8211 29.0401C95.3974 29.0525 94.9806 28.9299 94.6311 28.6901C94.4659 28.5598 94.3369 28.3894 94.2563 28.1951C94.1758 28.0007 94.1465 27.789 94.1711 27.5801ZM100.231 27.5801H100.921C100.915 27.7545 100.946 27.9282 101.011 28.0901C101.082 28.239 101.202 28.3591 101.351 28.4301C101.527 28.5205 101.723 28.5652 101.921 28.5601C102.162 28.5776 102.401 28.5143 102.601 28.3801C102.67 28.3315 102.727 28.2672 102.767 28.1925C102.807 28.1178 102.829 28.0348 102.831 27.9501C102.828 27.8233 102.778 27.7021 102.691 27.6101C102.487 27.4386 102.253 27.3064 102.001 27.2201C101.761 27.124 101.528 27.0138 101.301 26.8901C101.147 26.7986 101.017 26.6718 100.921 26.5201C100.834 26.3753 100.789 26.2091 100.791 26.0401C100.791 25.884 100.825 25.7297 100.89 25.588C100.956 25.4463 101.052 25.3208 101.171 25.2201C101.47 24.9785 101.848 24.8573 102.231 24.8801C102.648 24.8503 103.061 24.9749 103.391 25.2301C103.522 25.3465 103.627 25.4899 103.698 25.6504C103.768 25.8108 103.804 25.9847 103.801 26.1601H103.131C103.132 26.0505 103.109 25.942 103.064 25.842C103.019 25.742 102.953 25.6527 102.871 25.5801C102.675 25.4267 102.429 25.3518 102.181 25.3701C101.981 25.3558 101.783 25.4125 101.621 25.5301C101.563 25.5694 101.515 25.6214 101.481 25.682C101.446 25.7427 101.426 25.8104 101.421 25.8801C101.423 25.9443 101.439 26.0073 101.469 26.0644C101.498 26.1215 101.54 26.1713 101.591 26.2101C101.776 26.3325 101.974 26.4332 102.181 26.5101C102.538 26.6416 102.875 26.8234 103.181 27.0501C103.289 27.1469 103.374 27.2659 103.431 27.3989C103.488 27.5318 103.515 27.6755 103.511 27.8201C103.51 28.0301 103.447 28.2351 103.331 28.4101C103.193 28.6146 102.998 28.7744 102.771 28.8701C102.49 28.9899 102.187 29.0479 101.881 29.0401C101.457 29.0525 101.041 28.9299 100.691 28.6901C100.526 28.5598 100.397 28.3894 100.316 28.1951C100.236 28.0007 100.206 27.789 100.231 27.5801ZM104.031 29.0001L104.871 25.0001H105.561L104.721 29.0001H104.031ZM105.031 24.2001L105.191 23.4201H105.871L105.711 24.2001H105.031ZM105.791 29.0001L106.631 25.0001H107.251L107.101 25.7001C107.324 25.4638 107.58 25.2616 107.861 25.1001C108.081 24.9776 108.329 24.9123 108.581 24.9101C108.863 24.8948 109.14 24.9919 109.351 25.1801C109.445 25.2723 109.518 25.3831 109.566 25.5054C109.615 25.6277 109.637 25.7587 109.631 25.8901C109.619 26.1293 109.586 26.3669 109.531 26.6001L109.031 29.0001H108.341L108.881 26.4401C108.925 26.2597 108.952 26.0755 108.961 25.8901C108.964 25.8282 108.952 25.7665 108.928 25.7094C108.904 25.6523 108.867 25.6014 108.821 25.5601C108.709 25.4682 108.566 25.4218 108.421 25.4301C108.07 25.4298 107.733 25.5661 107.481 25.8101C107.151 26.1721 106.939 26.6252 106.871 27.1101L106.471 29.0001H105.791ZM112.901 27.4901L113.591 27.5601C113.461 27.9984 113.203 28.3882 112.851 28.6801C112.541 28.9242 112.156 29.0548 111.761 29.0501C111.563 29.0579 111.365 29.0236 111.18 28.9495C110.996 28.8754 110.829 28.7631 110.691 28.6201C110.403 28.2932 110.255 27.8653 110.281 27.4301C110.282 26.9839 110.37 26.5422 110.541 26.1301C110.684 25.7283 110.945 25.3796 111.291 25.1301C111.622 24.9077 112.013 24.7925 112.411 24.8001C112.78 24.7888 113.138 24.9215 113.411 25.1701C113.542 25.2999 113.644 25.4563 113.71 25.6288C113.775 25.8014 113.803 25.9859 113.791 26.1701H113.111C113.116 26.0604 113.1 25.9508 113.062 25.8478C113.024 25.7447 112.966 25.6503 112.891 25.5701C112.815 25.4957 112.724 25.4378 112.624 25.3999C112.524 25.3621 112.418 25.3451 112.311 25.3501C112.047 25.345 111.791 25.4376 111.591 25.6101C111.361 25.8278 111.195 26.1045 111.111 26.4101C111.004 26.7328 110.946 27.07 110.941 27.4101C110.919 27.6895 111.001 27.9672 111.171 28.1901C111.239 28.2722 111.325 28.3382 111.422 28.3832C111.519 28.4281 111.624 28.451 111.731 28.4501C111.967 28.445 112.194 28.3564 112.371 28.2001C112.608 28.0155 112.792 27.7702 112.901 27.4901ZM116.981 27.5901L117.651 27.6601C117.529 28.0348 117.3 28.3653 116.991 28.6101C116.648 28.909 116.206 29.0695 115.751 29.0601C115.464 29.0617 115.182 28.9893 114.931 28.8501C114.683 28.7142 114.484 28.5044 114.361 28.2501C114.225 27.9698 114.157 27.6616 114.161 27.3501C114.164 26.9052 114.27 26.467 114.471 26.0701C114.643 25.6952 114.916 25.3763 115.261 25.1501C115.576 24.9546 115.94 24.8507 116.311 24.8501C116.524 24.8411 116.736 24.8764 116.934 24.9539C117.132 25.0314 117.311 25.1493 117.461 25.3001C117.609 25.4652 117.724 25.658 117.797 25.8673C117.871 26.0766 117.903 26.2985 117.891 26.5201C117.892 26.7245 117.875 26.9285 117.841 27.1301H114.841C114.837 27.2 114.837 27.2702 114.841 27.3401C114.819 27.6521 114.911 27.9616 115.101 28.2101C115.178 28.3052 115.276 28.3816 115.387 28.4336C115.498 28.4855 115.619 28.5117 115.741 28.5101C115.992 28.5067 116.237 28.4265 116.441 28.2801C116.685 28.1085 116.873 27.8684 116.981 27.5901ZM114.981 26.5901H117.251V26.4401C117.269 26.1531 117.176 25.8703 116.991 25.6501C116.906 25.5579 116.802 25.4852 116.687 25.4368C116.571 25.3885 116.446 25.3657 116.321 25.3701C116.027 25.3704 115.743 25.4769 115.521 25.6701C115.253 25.9159 115.065 26.2364 114.981 26.5901ZM120.701 29.0001C120.756 28.7107 120.854 28.431 120.991 28.1701C121.126 27.9335 121.294 27.7179 121.491 27.5301C121.698 27.3301 122.098 26.9968 122.691 26.5301C122.95 26.3311 123.197 26.1174 123.431 25.8901C123.599 25.7212 123.738 25.5251 123.841 25.3101C123.901 25.1783 123.932 25.035 123.931 24.8901C123.933 24.769 123.91 24.6488 123.864 24.5369C123.817 24.4251 123.748 24.324 123.661 24.2401C123.574 24.1517 123.469 24.0822 123.354 24.0358C123.239 23.9893 123.115 23.967 122.991 23.9701C122.738 23.971 122.496 24.0674 122.311 24.2401C122.085 24.4803 121.939 24.7839 121.891 25.1101L121.221 25.0101C121.264 24.562 121.47 24.1455 121.801 23.8401C122.128 23.5499 122.554 23.396 122.991 23.4101C123.29 23.4068 123.585 23.4754 123.851 23.6101C124.098 23.7322 124.3 23.9279 124.431 24.1701C124.556 24.3967 124.621 24.6513 124.621 24.9101C124.613 25.3018 124.472 25.679 124.221 25.9801C123.784 26.4424 123.305 26.8642 122.791 27.2401C122.524 27.4439 122.27 27.6643 122.031 27.9001C121.887 28.0467 121.763 28.2114 121.661 28.3901H124.151L124.021 29.0201L120.701 29.0001ZM125.111 27.1401C125.129 26.2318 125.362 25.3407 125.791 24.5401C125.935 24.2873 126.118 24.0579 126.331 23.8601C126.494 23.7116 126.68 23.59 126.881 23.5001C127.071 23.4187 127.275 23.3779 127.481 23.3801C127.684 23.3766 127.885 23.4178 128.07 23.5008C128.255 23.5837 128.419 23.7064 128.551 23.8601C128.859 24.2478 129.012 24.7359 128.981 25.2301C128.979 25.8522 128.878 26.47 128.681 27.0601C128.503 27.6787 128.157 28.2359 127.681 28.6701C127.38 28.9355 126.992 29.0814 126.591 29.0801C126.389 29.0823 126.189 29.0394 126.006 28.9546C125.822 28.8699 125.66 28.7454 125.531 28.5901C125.217 28.1751 125.067 27.6587 125.111 27.1401ZM125.781 27.3101C125.767 27.587 125.825 27.863 125.951 28.1101C126.017 28.2349 126.116 28.3386 126.239 28.4094C126.361 28.4802 126.5 28.5151 126.641 28.5101C126.781 28.5046 126.919 28.4697 127.044 28.4077C127.17 28.3457 127.281 28.2579 127.371 28.1501C127.729 27.7211 127.974 27.2086 128.081 26.6601C128.222 26.1343 128.303 25.5941 128.321 25.0501C128.349 24.7421 128.267 24.4342 128.091 24.1801C128.017 24.0917 127.923 24.0214 127.817 23.9746C127.712 23.9278 127.597 23.9057 127.481 23.9101C127.302 23.9101 127.125 23.9585 126.971 24.0501C126.786 24.1732 126.632 24.3375 126.521 24.5301C126.265 24.9815 126.083 25.471 125.981 25.9801C125.872 26.4154 125.812 26.8615 125.801 27.3101H125.781ZM129.461 27.1401C129.479 26.2318 129.712 25.3407 130.141 24.5401C130.285 24.2873 130.468 24.0579 130.681 23.8601C130.844 23.7116 131.03 23.59 131.231 23.5001C131.421 23.4187 131.625 23.3779 131.831 23.3801C132.034 23.3766 132.235 23.4178 132.42 23.5008C132.605 23.5837 132.769 23.7064 132.901 23.8601C133.209 24.2478 133.362 24.7359 133.331 25.2301C133.329 25.8522 133.228 26.47 133.031 27.0601C132.853 27.6787 132.507 28.2359 132.031 28.6701C131.73 28.9355 131.342 29.0814 130.941 29.0801C130.739 29.0823 130.539 29.0394 130.356 28.9546C130.172 28.8699 130.01 28.7454 129.881 28.5901C129.567 28.1751 129.418 27.6587 129.461 27.1401ZM130.131 27.3101C130.117 27.587 130.175 27.863 130.301 28.1101C130.367 28.2349 130.466 28.3386 130.589 28.4094C130.711 28.4802 130.85 28.5151 130.991 28.5101C131.131 28.5046 131.269 28.4697 131.394 28.4077C131.52 28.3457 131.631 28.2579 131.721 28.1501C132.079 27.7211 132.324 27.2086 132.431 26.6601C132.572 26.1343 132.653 25.5941 132.671 25.0501C132.699 24.7421 132.617 24.4342 132.441 24.1801C132.367 24.0917 132.273 24.0214 132.167 23.9746C132.062 23.9278 131.947 23.9057 131.831 23.9101C131.652 23.9101 131.475 23.9585 131.321 24.0501C131.136 24.1732 130.982 24.3375 130.871 24.5301C130.615 24.9815 130.433 25.471 130.331 25.9801C130.209 26.4139 130.135 26.8599 130.111 27.3101H130.131ZM133.791 27.1401C133.809 26.2318 134.042 25.3407 134.471 24.5401C134.615 24.2873 134.798 24.0579 135.011 23.8601C135.174 23.7116 135.36 23.59 135.561 23.5001C135.751 23.4187 135.955 23.3779 136.161 23.3801C136.364 23.3766 136.565 23.4178 136.75 23.5008C136.935 23.5837 137.099 23.7064 137.231 23.8601C137.539 24.2478 137.692 24.7359 137.661 25.2301C137.659 25.8522 137.558 26.47 137.361 27.0601C137.183 27.6787 136.837 28.2359 136.361 28.6701C136.06 28.9355 135.672 29.0814 135.271 29.0801C135.069 29.0823 134.869 29.0394 134.686 28.9546C134.502 28.8699 134.34 28.7454 134.211 28.5901C133.897 28.1751 133.747 27.6587 133.791 27.1401ZM134.461 27.3101C134.447 27.587 134.505 27.863 134.631 28.1101C134.697 28.2349 134.796 28.3386 134.919 28.4094C135.041 28.4802 135.18 28.5151 135.321 28.5101C135.461 28.5046 135.599 28.4697 135.724 28.4077C135.85 28.3457 135.961 28.2579 136.051 28.1501C136.409 27.7211 136.654 27.2086 136.761 26.6601C136.902 26.1343 136.983 25.5941 137.001 25.0501C137.029 24.7421 136.947 24.4342 136.771 24.1801C136.697 24.0917 136.603 24.0214 136.497 23.9746C136.392 23.9278 136.277 23.9057 136.161 23.9101C135.982 23.9101 135.805 23.9585 135.651 24.0501C135.466 24.1732 135.312 24.3375 135.201 24.5301C134.945 24.9815 134.763 25.471 134.661 25.9801C134.545 26.4146 134.478 26.8607 134.461 27.3101Z" fill="white"/>
</g>
<defs>
<clipPath id="clip0_2124_531">
<rect width="137.778" height="32" fill="white" transform="translate(0.111107)"/>
</clipPath>
</defs>
</svg>
