<svg width="40" height="40" viewBox="0 0 40 40" fill="none" xmlns="http://www.w3.org/2000/svg">
<path d="M0 20C0 8.95431 8.95431 0 20 0C31.0457 0 40 8.95431 40 20C40 31.0457 31.0457 40 20 40C8.95431 40 0 31.0457 0 20Z" fill="#333333"/>
<path d="M25.5105 8.00499L22.3923 8C18.8893 8 16.6254 10.3183 16.6254 13.9064V16.6297H13.4903C13.2194 16.6297 13 16.8489 13 17.1193V21.065C13 21.3354 13.2196 21.5544 13.4903 21.5544H16.6254V31.5106C16.6254 31.781 16.8448 32 17.1157 32H21.2061C21.4771 32 21.6964 31.7808 21.6964 31.5106V21.5544H25.3621C25.633 21.5544 25.8524 21.3354 25.8524 21.065L25.8539 17.1193C25.8539 16.9895 25.8021 16.8651 25.7103 16.7733C25.6185 16.6814 25.4934 16.6297 25.3634 16.6297H21.6964V14.3212C21.6964 13.2116 21.9613 12.6483 23.4095 12.6483L25.51 12.6475C25.7806 12.6475 26 12.4283 26 12.1582V8.49437C26 8.22446 25.7809 8.00549 25.5105 8.00499Z" fill="white"/>
</svg>
