<svg width="328" height="113" viewBox="0 0 328 113" fill="none" xmlns="http://www.w3.org/2000/svg">
<g clip-path="url(#clip0_1860_26691)">
<path d="M77.9663 48.2069L30.8737 48.2069C30.3912 48.2069 30 47.837 30 47.3807V39.6639C30 35.2103 33.8178 31.6 38.5273 31.6L77.9663 31.6C78.4488 31.6 78.84 31.9699 78.84 32.4262V47.4138C78.84 47.8701 78.4488 48.24 77.9663 48.24V48.2069Z" fill="#35A8E0"/>
<path fill-rule="evenodd" clip-rule="evenodd" d="M31.0327 48.24H77.8073C78.3777 48.24 78.84 47.8081 78.84 47.2755V32.5645C78.84 32.0318 78.3777 31.6 77.8073 31.6H38.678C33.8853 31.6 30 35.2288 30 39.7052V47.2755C30 47.8081 30.4623 48.24 31.0327 48.24ZM30.3905 39.7133C30.3953 35.4491 34.0952 31.9935 38.6607 31.989L77.8073 31.9809C77.9753 31.9809 78.1365 32.0433 78.2553 32.1542C78.3741 32.2652 78.4408 32.4157 78.4408 32.5726V47.2836C78.4408 47.4405 78.3741 47.591 78.2553 47.7019C78.1365 47.8129 77.9753 47.8752 77.8073 47.8752H31.024C30.6741 47.8752 30.3905 47.6103 30.3905 47.2836V39.7133Z" fill="white"/>
<path fill-rule="evenodd" clip-rule="evenodd" d="M47.246 45.5068V39.3406C47.246 39.3086 47.2322 39.2779 47.2077 39.2561C47.1832 39.2342 47.1503 39.2231 47.1168 39.2254H42.1986C42.132 39.2254 42.0781 39.277 42.0781 39.3406V41.7363C42.0781 41.8 42.132 41.8516 42.1986 41.8516H44.3606C44.4272 41.8516 44.4812 41.9032 44.4812 41.9668V42.362C44.4827 42.4012 44.4632 42.4384 44.4295 42.4608C44.1338 42.6568 43.8043 42.8017 43.4562 42.8889C43.0913 42.9814 42.7129 43.0148 42.3365 42.9877C41.9585 42.9619 41.5882 42.8727 41.2426 42.7242C40.8855 42.5714 40.5613 42.3565 40.2865 42.0903C39.6758 41.5094 39.3325 40.7198 39.3325 39.8963C39.3325 39.0728 39.6758 38.2833 40.2865 37.7023C40.5923 37.4082 40.959 37.1782 41.3632 37.0273C42.1481 36.7259 43.0244 36.7259 43.8093 37.0273C44.1765 37.1655 44.5127 37.3695 44.7999 37.6282C44.8225 37.6504 44.8536 37.6628 44.886 37.6628C44.9184 37.6628 44.9494 37.6504 44.9721 37.6282L46.7551 35.9241C46.7782 35.9024 46.7913 35.8727 46.7913 35.8418C46.7913 35.8108 46.7782 35.7811 46.7551 35.7594C46.2101 35.2523 45.5663 34.8524 44.8602 34.5822C43.4074 34.0192 41.7823 34.0192 40.3296 34.5822C39.5827 34.8667 38.9053 35.2955 38.3399 35.8418C37.7691 36.3811 37.3231 37.029 37.0307 37.7435C36.7464 38.433 36.6003 39.1675 36.6 39.9087C36.6 40.6472 36.746 41.379 37.0307 42.0656C37.3252 42.7674 37.7679 43.4036 38.3313 43.9344C38.8967 44.4807 39.5741 44.9095 40.3209 45.194C41.0361 45.4809 41.8021 45.6346 42.5776 45.6468C42.8978 45.6453 43.2174 45.6205 43.5337 45.5727C43.7965 45.5347 44.0557 45.4769 44.3089 45.3998C44.3459 45.3863 44.3874 45.391 44.4201 45.4123C44.4527 45.4337 44.4723 45.469 44.4726 45.5068C44.4726 45.5705 44.5265 45.6221 44.5931 45.6221H47.1255C47.1921 45.6221 47.246 45.5705 47.246 45.5068ZM56.2556 44.3707L56.669 45.5562C56.6666 45.5882 56.6782 45.6197 56.7011 45.6431C56.724 45.6665 56.7561 45.6798 56.7896 45.6797H59.4253C59.4663 45.6823 59.506 45.6648 59.5304 45.6331C59.5548 45.6014 59.5606 45.56 59.5458 45.5233L55.7646 34.327C55.7489 34.2764 55.6992 34.2425 55.644 34.2445H53.2151C53.1631 34.2461 53.1179 34.2793 53.1031 34.327L49.1151 45.5233C49.101 45.5586 49.1059 45.5983 49.1282 45.6295C49.1506 45.6608 49.1875 45.6795 49.2271 45.6797H51.88C51.932 45.6782 51.9771 45.645 51.992 45.5974L52.4226 44.3707C52.4375 44.3231 52.4826 44.2899 52.5346 44.2884H56.135C56.1902 44.2862 56.2398 44.3201 56.2556 44.3707ZM53.5768 41.621H55.1789C55.22 41.6237 55.2596 41.6061 55.284 41.5744C55.3085 41.5427 55.3143 41.5013 55.2995 41.4646L54.5243 39.176C54.5099 39.1259 54.4623 39.0912 54.408 39.0912C54.3537 39.0912 54.3061 39.1259 54.2917 39.176L53.4304 41.4646C53.4113 41.506 53.4194 41.5542 53.4509 41.5879C53.4824 41.6216 53.5317 41.6346 53.5768 41.621ZM72.75 34.187H70.1144C70.0599 34.1895 70.014 34.2267 70.0024 34.2776L67.5907 41.0448C67.5763 41.0948 67.5287 41.1295 67.4744 41.1295C67.4201 41.1295 67.3725 41.0948 67.3581 41.0448L64.8775 34.2776C64.8626 34.2299 64.8175 34.1967 64.7655 34.1953H62.1298C62.0665 34.1951 62.0138 34.2419 62.0092 34.3023L61.2513 45.4739C61.2489 45.5059 61.2605 45.5373 61.2834 45.5608C61.3063 45.5842 61.3383 45.5975 61.3719 45.5974H63.9042C63.9675 45.5975 64.0202 45.5508 64.0248 45.4904L64.3004 41.3247C64.3004 41.261 64.3544 41.2094 64.421 41.2094C64.4876 41.2094 64.5416 41.261 64.5416 41.3247L66.092 45.5562C66.1068 45.6039 66.1519 45.6371 66.2039 45.6386H68.7879C68.8399 45.6371 68.8851 45.6039 68.8999 45.5562L70.3125 41.5552C70.3125 41.4915 70.3665 41.4399 70.4331 41.4399C70.4997 41.4399 70.5536 41.4915 70.5536 41.5552L70.8034 45.5233C70.808 45.5837 70.8606 45.6305 70.924 45.6303H73.4391C73.4726 45.6304 73.5047 45.6171 73.5276 45.5937C73.5504 45.5703 73.5621 45.5388 73.5597 45.5068L72.8706 34.294C72.8661 34.2336 72.8134 34.1869 72.75 34.187Z" fill="white"/>
<path d="M79.7252 31.6H127.455C127.944 31.6 128.34 31.9706 128.34 32.4278V40.1601C128.34 44.6225 124.472 48.24 119.701 48.24H79.7252C79.2363 48.24 78.84 47.8693 78.84 47.4121V32.3947C78.859 31.9505 79.2498 31.5996 79.7252 31.6Z" fill="#1D1D1B"/>
<path fill-rule="evenodd" clip-rule="evenodd" d="M79.9002 48.24H120.099C125.013 48.2355 128.995 44.6112 129 40.1389V32.565C129 32.032 128.525 31.6 127.94 31.6H79.9002C79.3147 31.6 78.84 32.032 78.84 32.565V47.275C78.84 47.8079 79.3147 48.24 79.9002 48.24ZM79.2498 32.5731C79.2498 32.2461 79.541 31.9811 79.9002 31.9811L127.94 31.973C128.299 31.973 128.59 32.238 128.59 32.565V40.1389C128.585 44.4051 124.787 47.8625 120.099 47.867H79.9002C79.541 47.867 79.2498 47.6019 79.2498 47.275V32.5731Z" fill="white"/>
<path fill-rule="evenodd" clip-rule="evenodd" d="M86.8621 44.3939C86.4803 44.3932 86.1003 44.3448 85.7324 44.2499C85.3533 44.1523 84.9926 44.0012 84.663 43.802C84.088 43.4616 83.6161 42.9908 83.2919 42.434C82.983 41.9051 82.8145 41.3155 82.8003 40.7141C82.7979 40.6831 82.8096 40.6525 82.8325 40.6297C82.8554 40.607 82.8875 40.5941 82.921 40.5941H85.4823C85.549 40.5941 85.603 40.6443 85.603 40.7061C85.6047 40.9185 85.677 41.1252 85.81 41.2981C85.914 41.4323 86.0424 41.5487 86.1894 41.6421C86.378 41.7624 86.599 41.8316 86.8276 41.8421C87.0589 41.8528 87.2897 41.8117 87.5002 41.7221C87.6391 41.6718 87.7653 41.5956 87.8711 41.4981C87.9553 41.4194 88.0278 41.3306 88.0866 41.2341C88.1312 41.1569 88.1605 41.0729 88.1729 40.9861C88.1946 40.8562 88.1946 40.724 88.1729 40.5941C88.1599 40.5049 88.1307 40.4184 88.0866 40.3382C88.0306 40.24 87.9578 40.1508 87.8711 40.0742C87.7616 39.979 87.6364 39.9007 87.5002 39.8422L87.1208 39.7062L86.6896 39.5702L85.8272 39.2982C85.5255 39.1899 85.2366 39.0532 84.9649 38.8903C84.5914 38.6825 84.2636 38.4111 83.999 38.0903C83.4804 37.4387 83.238 36.633 83.3177 35.8264C83.3568 35.4157 83.4828 35.0161 83.6886 34.6505C83.8763 34.3154 84.1242 34.0125 84.4216 33.7546C84.708 33.5055 85.0374 33.3028 85.396 33.1546C85.7625 33.007 86.1532 32.9177 86.5516 32.8906C86.9746 32.8602 87.4001 32.8953 87.8107 32.9946C88.2077 33.0796 88.5866 33.2256 88.9318 33.4266C89.259 33.6189 89.5502 33.8594 89.7941 34.1385C90.018 34.4062 90.1928 34.7062 90.3116 35.0265C90.4273 35.3356 90.4913 35.6593 90.5013 35.9864C90.5037 36.0175 90.492 36.0481 90.4691 36.0708C90.4462 36.0936 90.4141 36.1065 90.3806 36.1064H87.8797C87.8192 36.107 87.7676 36.066 87.7589 36.0104C87.753 35.855 87.6662 35.7119 87.5261 35.6264C87.3998 35.5517 87.2636 35.4925 87.1208 35.4505H86.9828C86.8915 35.4355 86.7981 35.4355 86.7069 35.4505C86.5948 35.4678 86.4869 35.5029 86.3878 35.5545C86.2743 35.6157 86.184 35.7079 86.1291 35.8184C86.0425 35.974 86.024 36.1545 86.0773 36.3224C86.1275 36.4938 86.2442 36.642 86.405 36.7384C86.5683 36.8226 86.7384 36.8948 86.9138 36.9544L87.5002 37.1464L88.0608 37.3143C88.2505 37.373 88.4431 37.4423 88.6386 37.5223C90.0256 38.0876 90.9243 39.3569 90.9325 40.7621C90.9377 41.4554 90.7217 42.1345 90.3116 42.714C89.7222 43.5358 88.8088 44.1103 87.7676 44.3139C87.4695 44.3694 87.1661 44.3962 86.8621 44.3939ZM123.72 37.9623C123.725 38.5772 123.596 39.1868 123.34 39.7542C123.091 40.3031 122.731 40.8027 122.28 41.2261C121.827 41.6512 121.291 41.9931 120.702 42.234C120.133 42.4684 119.521 42.5987 118.899 42.618C118.833 42.618 118.778 42.6682 118.778 42.73V44.2819C118.778 44.3438 118.724 44.3939 118.658 44.3939H116.148C116.082 44.3939 116.027 44.3438 116.027 44.2819V33.4026C116.027 33.3407 116.082 33.2906 116.148 33.2906H118.77C119.433 33.2962 120.088 33.4297 120.693 33.6826C121.282 33.9282 121.817 34.2726 122.271 34.6985C122.723 35.1219 123.083 35.6215 123.332 36.1704C123.59 36.7372 123.722 37.3468 123.72 37.9623ZM118.808 40.0443C118.784 40.0231 118.77 39.9933 118.77 39.9622V35.9624C118.779 35.9037 118.835 35.8616 118.899 35.8664C119.15 35.888 119.396 35.9502 119.624 36.0504C119.881 36.1625 120.115 36.317 120.313 36.5064C120.512 36.6985 120.67 36.9238 120.779 37.1704C121.004 37.6832 121.004 38.2574 120.779 38.7703C120.671 39.0169 120.513 39.2422 120.313 39.4342C120.115 39.6237 119.881 39.7781 119.624 39.8902C119.396 39.9905 119.15 40.0528 118.899 40.0742C118.866 40.0764 118.833 40.0656 118.808 40.0443ZM107.481 33.2825C108.282 33.2785 109.075 33.4283 109.81 33.7226C110.519 34.003 111.166 34.4046 111.716 34.9065C112.261 35.4116 112.697 36.009 113.001 36.6664C113.631 38.0498 113.631 39.6108 113.001 40.9941C112.697 41.6515 112.261 42.2489 111.716 42.754C111.168 43.2647 110.522 43.6745 109.81 43.9619C108.321 44.546 106.641 44.546 105.153 43.9619C103.722 43.3978 102.584 42.3391 101.979 41.0101C101.354 39.6258 101.354 38.0667 101.979 36.6824C102.584 35.3534 103.722 34.2947 105.153 33.7306C105.887 33.4335 106.68 33.281 107.481 33.2825ZM107.486 41.8341C107.917 41.8375 108.344 41.7585 108.74 41.6021C109.517 41.2966 110.136 40.7229 110.465 40.0022C110.802 39.2577 110.802 38.4188 110.465 37.6743C110.136 36.9536 109.517 36.3799 108.74 36.0744C107.938 35.762 107.034 35.762 106.231 36.0744C105.454 36.3799 104.835 36.9536 104.506 37.6743C104.169 38.4188 104.169 39.2577 104.506 40.0022C104.835 40.7229 105.454 41.2966 106.231 41.6021C106.628 41.7585 107.055 41.8375 107.486 41.8341Z" fill="white"/>
<rect x="96" y="35.44" width="2.64" height="8.96" rx="0.162105" fill="white"/>
<rect x="93.36" y="34.16" width="7.92" height="2.56" rx="0.162105" fill="white"/>
</g>
<path fill-rule="evenodd" clip-rule="evenodd" d="M162.494 40.1134V28.3435V28.3375C162.446 27.0418 161.872 25.8335 160.924 25.0289L157.614 22.3976C157.614 22.3976 156.038 21.1448 156.697 23.0869L162.489 40.1115L146.054 34.1216C144.181 33.4383 145.389 35.0686 145.389 35.0686L147.927 38.5211C148.733 39.5163 149.89 40.1069 151.119 40.1514C149.89 40.196 148.733 40.7866 147.927 41.7818L145.383 45.1743C145.383 45.1743 144.176 46.8046 146.048 46.1213L162.494 40.1275L156.697 57.1681H156.703C156.043 59.1041 157.614 57.8514 157.614 57.8514L160.929 55.2201C161.878 54.416 162.452 53.2073 162.5 51.9114V40.1155L162.494 40.1134ZM162.494 40.1134L162.489 40.1115L162.494 40.1275V40.1134Z" fill="#D1010E"/>
<path fill-rule="evenodd" clip-rule="evenodd" d="M206.975 55.375C213.881 55.375 217.145 52.28 217.145 48.8586C217.145 44.5941 212.89 43.9911 209.463 43.5053C207.152 43.1778 205.217 42.9036 205.217 41.5961C205.213 41.3061 205.266 41.0183 205.373 40.7509C206.052 40.9238 206.749 41.0041 207.447 40.9899C212.09 40.9899 215.354 38.2155 215.354 33.8265C215.368 32.3065 214.91 30.8231 214.048 29.6008C214.396 29.4931 214.758 29.4381 215.121 29.4376C215.638 29.4484 216.152 29.5168 216.656 29.6416L217.729 25.4566C217.423 25.4158 216.806 25.375 216.422 25.375C213.814 25.375 212.624 26.057 211.584 27.0653C211.429 27.2285 211.317 27.3043 211.123 27.1877C209.95 26.5573 208.642 26.2523 207.325 26.3018C201.72 26.3018 199.457 30.1253 199.457 33.4651C199.457 35.9598 200.53 38.2913 202.643 39.457C201.186 40.3021 200.224 41.6311 200.224 42.9542C200.189 43.8997 200.644 44.7911 201.414 45.2856C199.552 45.8683 198.254 47.633 198.189 49.6688C198.189 52.8454 201.258 55.34 206.98 55.34L206.975 55.375ZM235 45.8219H230.24L229.428 44.2132C228.046 45.5359 226.234 46.2553 224.363 46.224C220.793 46.224 218.185 43.6478 218.185 39.9874C218.092 37.7723 219.291 35.7198 221.215 34.7999C222.714 34.0472 224.352 33.6492 226.014 33.6342L228.894 33.5118V33.3136C228.894 31.5417 227.666 30.8189 225.708 30.8189C224.109 30.8327 222.533 31.2316 221.104 31.9847L219.302 28.1611C221.623 26.934 224.188 26.3008 226.787 26.3132C232.392 26.3132 234.694 28.9246 234.694 33.5526V42.0799C234.638 43.3359 234.741 44.5941 235 45.8219ZM228.878 40.8675V37.3295L226.926 37.4053C226.178 37.3924 225.439 37.5725 224.774 37.9299C224.227 38.2729 223.914 38.9132 223.968 39.5794C223.968 40.9083 224.846 41.5495 226.231 41.5495C227.155 41.5718 228.069 41.3365 228.878 40.8675ZM207.442 36.566C205.712 36.566 204.873 35.1205 204.873 33.6517C204.873 31.6408 205.985 30.7373 207.369 30.7373C209.132 30.7373 210.016 32.2645 210.016 33.7158C210.016 35.6043 208.904 36.5718 207.447 36.5718L207.442 36.566ZM203.305 48.6021C203.305 50.17 204.951 51.2542 207.831 51.2542L207.82 51.295C209.872 51.295 211.712 50.7121 211.712 49.5464C211.712 48.1269 209.404 47.8281 207.237 47.5476C205.97 47.3835 204.751 47.2257 204.072 46.8535C203.593 47.297 203.314 47.932 203.305 48.6021ZM173.3 45.8044H167.5V26.7739H172.371L172.933 28.7206C174.623 27.3917 176.697 26.3076 178.883 26.3076C181.185 26.3076 182.869 27.3101 183.831 29.0004C186.022 27.1527 188.324 26.3076 190.204 26.3076C193.54 26.3076 196.632 28.0387 196.632 33.3486V45.8219H190.838V34.9165C190.838 33.063 190.571 31.5359 188.419 31.5359C187.173 31.5696 185.967 32.0051 184.966 32.7832V45.8219H179.172V34.9981C179.172 33.1446 178.938 31.5359 176.792 31.5359C175.534 31.5688 174.315 32.004 173.3 32.7832V45.8044Z" fill="#818084"/>
<path fill-rule="evenodd" clip-rule="evenodd" d="M299 40C299 26.7452 288.255 16 275 16C261.745 16 251 26.7452 251 40C251 53.2548 261.745 64 275 64C288.255 64 299 53.2548 299 40ZM253 40C253 27.8497 262.85 18 275 18C287.15 18 297 27.8497 297 40C297 52.1503 287.15 62 275 62C262.85 62 253 52.1503 253 40Z" fill="#85ACB0"/>
<path fill-rule="evenodd" clip-rule="evenodd" d="M274.84 45.552C275.501 45.552 276.091 45.4693 276.608 45.304C277.125 45.1387 277.56 44.912 277.912 44.624C278.264 44.336 278.533 43.9947 278.72 43.6C278.907 43.2053 279 42.7733 279 42.304C279 41.5893 278.803 41.0053 278.408 40.552C278.013 40.0987 277.48 39.7813 276.808 39.6V39.472C277.352 39.2693 277.797 38.96 278.144 38.544C278.491 38.128 278.664 37.5947 278.664 36.944C278.664 36.5173 278.581 36.1227 278.416 35.76C278.251 35.3973 278.005 35.0853 277.68 34.824C277.355 34.5627 276.955 34.36 276.48 34.216C276.005 34.072 275.459 34 274.84 34C274.221 34 273.675 34.072 273.2 34.216C272.725 34.36 272.325 34.5627 272 34.824C271.675 35.0853 271.429 35.3973 271.264 35.76C271.099 36.1227 271.016 36.5173 271.016 36.944C271.016 37.5947 271.189 38.128 271.536 38.544C271.883 38.96 272.328 39.2693 272.872 39.472V39.6C272.2 39.7813 271.667 40.0987 271.272 40.552C270.877 41.0053 270.68 41.5893 270.68 42.304C270.68 42.7733 270.773 43.2053 270.96 43.6C271.147 43.9947 271.416 44.336 271.768 44.624C272.12 44.912 272.555 45.1387 273.072 45.304C273.589 45.4693 274.179 45.552 274.84 45.552ZM269.72 45.36V43.424H267.352V34.192H263.672L261 37.712L262.536 38.912L264.808 35.936H264.952V43.424H261.944V45.36H269.72ZM273.672 38.424C273.939 38.664 274.328 38.784 274.84 38.784C275.352 38.784 275.741 38.664 276.008 38.424C276.275 38.184 276.408 37.856 276.408 37.44V37.184C276.408 36.768 276.275 36.44 276.008 36.2C275.741 35.96 275.352 35.84 274.84 35.84C274.328 35.84 273.939 35.96 273.672 36.2C273.405 36.44 273.272 36.768 273.272 37.184V37.44C273.272 37.856 273.405 38.184 273.672 38.424ZM274.84 43.712C274.307 43.712 273.899 43.5867 273.616 43.336C273.333 43.0853 273.192 42.736 273.192 42.288V41.968C273.192 41.52 273.333 41.1707 273.616 40.92C273.899 40.6693 274.307 40.544 274.84 40.544C275.373 40.544 275.781 40.6693 276.064 40.92C276.347 41.1707 276.488 41.52 276.488 41.968V42.288C276.488 42.736 276.347 43.0853 276.064 43.336C275.781 43.5867 275.373 43.712 274.84 43.712ZM285.464 41.408V44.352H283.416V41.408H280.712V39.52H283.416V36.576H285.464V39.52H288.168V41.408H285.464Z" fill="#85ACB0"/>
<g clip-path="url(#clip1_1860_26691)">
<path d="M83.962 109H77.55V107.796L80.742 104.856C81.1993 104.436 81.582 103.993 81.89 103.526C82.198 103.05 82.352 102.574 82.352 102.098V101.93C82.352 101.389 82.2027 100.95 81.904 100.614C81.6053 100.278 81.1527 100.11 80.546 100.11C80.2473 100.11 79.986 100.152 79.762 100.236C79.538 100.32 79.342 100.437 79.174 100.586C79.0153 100.735 78.88 100.913 78.768 101.118C78.6653 101.314 78.5813 101.529 78.516 101.762L77.466 101.356C77.5593 101.067 77.6853 100.787 77.844 100.516C78.012 100.236 78.2173 99.9887 78.46 99.774C78.712 99.5593 79.0107 99.3867 79.356 99.256C79.7107 99.1253 80.126 99.06 80.602 99.06C81.078 99.06 81.5027 99.13 81.876 99.27C82.2493 99.41 82.562 99.606 82.814 99.858C83.066 100.11 83.2573 100.409 83.388 100.754C83.528 101.099 83.598 101.482 83.598 101.902C83.598 102.285 83.542 102.639 83.43 102.966C83.3273 103.293 83.1827 103.605 82.996 103.904C82.8093 104.193 82.5807 104.478 82.31 104.758C82.0487 105.038 81.764 105.318 81.456 105.598L78.824 107.964H83.962V109ZM89.0945 109.168C87.9279 109.168 87.0739 108.725 86.5325 107.838C86.0005 106.951 85.7345 105.71 85.7345 104.114C85.7345 102.518 86.0005 101.277 86.5325 100.39C87.0739 99.5033 87.9279 99.06 89.0945 99.06C90.2612 99.06 91.1105 99.5033 91.6425 100.39C92.1839 101.277 92.4545 102.518 92.4545 104.114C92.4545 105.71 92.1839 106.951 91.6425 107.838C91.1105 108.725 90.2612 109.168 89.0945 109.168ZM89.0945 108.146C89.4772 108.146 89.8039 108.067 90.0745 107.908C90.3452 107.749 90.5645 107.525 90.7325 107.236C90.9005 106.947 91.0219 106.606 91.0965 106.214C91.1805 105.822 91.2225 105.388 91.2225 104.912V103.316C91.2225 102.84 91.1805 102.406 91.0965 102.014C91.0219 101.622 90.9005 101.281 90.7325 100.992C90.5645 100.703 90.3452 100.479 90.0745 100.32C89.8039 100.161 89.4772 100.082 89.0945 100.082C88.7119 100.082 88.3852 100.161 88.1145 100.32C87.8439 100.479 87.6245 100.703 87.4565 100.992C87.2885 101.281 87.1625 101.622 87.0785 102.014C87.0039 102.406 86.9665 102.84 86.9665 103.316V104.912C86.9665 105.388 87.0039 105.822 87.0785 106.214C87.1625 106.606 87.2885 106.947 87.4565 107.236C87.6245 107.525 87.8439 107.749 88.1145 107.908C88.3852 108.067 88.7119 108.146 89.0945 108.146ZM100.751 109H94.3391V107.796L97.5311 104.856C97.9884 104.436 98.3711 103.993 98.6791 103.526C98.9871 103.05 99.1411 102.574 99.1411 102.098V101.93C99.1411 101.389 98.9917 100.95 98.6931 100.614C98.3944 100.278 97.9417 100.11 97.3351 100.11C97.0364 100.11 96.7751 100.152 96.5511 100.236C96.3271 100.32 96.1311 100.437 95.9631 100.586C95.8044 100.735 95.6691 100.913 95.5571 101.118C95.4544 101.314 95.3704 101.529 95.3051 101.762L94.2551 101.356C94.3484 101.067 94.4744 100.787 94.6331 100.516C94.8011 100.236 95.0064 99.9887 95.2491 99.774C95.5011 99.5593 95.7997 99.3867 96.1451 99.256C96.4997 99.1253 96.9151 99.06 97.3911 99.06C97.8671 99.06 98.2917 99.13 98.6651 99.27C99.0384 99.41 99.3511 99.606 99.6031 99.858C99.8551 100.11 100.046 100.409 100.177 100.754C100.317 101.099 100.387 101.482 100.387 101.902C100.387 102.285 100.331 102.639 100.219 102.966C100.116 103.293 99.9717 103.605 99.7851 103.904C99.5984 104.193 99.3697 104.478 99.0991 104.758C98.8377 105.038 98.5531 105.318 98.2451 105.598L95.6131 107.964H100.751V109ZM102.916 109V107.964H105.646V100.096H105.548L103.084 102.392L102.398 101.65L104.988 99.228H106.822V107.964H109.342V109H102.916ZM114.689 99.228H117.965C118.571 99.228 119.122 99.3307 119.617 99.536C120.111 99.7413 120.531 100.049 120.877 100.46C121.231 100.861 121.502 101.37 121.689 101.986C121.875 102.593 121.969 103.302 121.969 104.114C121.969 104.926 121.875 105.64 121.689 106.256C121.502 106.863 121.231 107.371 120.877 107.782C120.531 108.183 120.111 108.487 119.617 108.692C119.122 108.897 118.571 109 117.965 109H114.689V99.228ZM117.965 107.964C118.366 107.964 118.735 107.899 119.071 107.768C119.407 107.628 119.696 107.427 119.939 107.166C120.181 106.905 120.368 106.587 120.499 106.214C120.639 105.831 120.709 105.397 120.709 104.912V103.316C120.709 102.831 120.639 102.401 120.499 102.028C120.368 101.645 120.181 101.323 119.939 101.062C119.696 100.801 119.407 100.605 119.071 100.474C118.735 100.334 118.366 100.264 117.965 100.264H115.865V107.964H117.965ZM126.685 109.168C126.191 109.168 125.743 109.079 125.341 108.902C124.949 108.725 124.609 108.473 124.319 108.146C124.039 107.81 123.82 107.413 123.661 106.956C123.512 106.489 123.437 105.967 123.437 105.388C123.437 104.819 123.512 104.301 123.661 103.834C123.82 103.367 124.039 102.971 124.319 102.644C124.609 102.308 124.949 102.051 125.341 101.874C125.743 101.697 126.191 101.608 126.685 101.608C127.171 101.608 127.605 101.697 127.987 101.874C128.37 102.051 128.697 102.299 128.967 102.616C129.238 102.924 129.443 103.293 129.583 103.722C129.733 104.151 129.807 104.623 129.807 105.136V105.668H124.613V106.004C124.613 106.312 124.66 106.601 124.753 106.872C124.856 107.133 124.996 107.362 125.173 107.558C125.36 107.754 125.584 107.908 125.845 108.02C126.116 108.132 126.419 108.188 126.755 108.188C127.213 108.188 127.609 108.081 127.945 107.866C128.291 107.651 128.557 107.343 128.743 106.942L129.541 107.516C129.308 108.011 128.944 108.412 128.449 108.72C127.955 109.019 127.367 109.168 126.685 109.168ZM126.685 102.546C126.377 102.546 126.097 102.602 125.845 102.714C125.593 102.817 125.374 102.966 125.187 103.162C125.01 103.358 124.87 103.591 124.767 103.862C124.665 104.123 124.613 104.413 124.613 104.73V104.828H128.603V104.674C128.603 104.03 128.426 103.517 128.071 103.134C127.726 102.742 127.264 102.546 126.685 102.546ZM131.653 109V101.776H132.773V103.106H132.843C132.974 102.761 133.207 102.453 133.543 102.182C133.879 101.911 134.341 101.776 134.929 101.776H135.363V102.896H134.705C134.098 102.896 133.622 103.013 133.277 103.246C132.941 103.47 132.773 103.755 132.773 104.1V109H131.653ZM137.354 100.082C137.111 100.082 136.934 100.026 136.822 99.914C136.719 99.7927 136.668 99.6387 136.668 99.452V99.27C136.668 99.0833 136.719 98.934 136.822 98.822C136.934 98.7007 137.111 98.64 137.354 98.64C137.596 98.64 137.769 98.7007 137.872 98.822C137.984 98.934 138.04 99.0833 138.04 99.27V99.452C138.04 99.6387 137.984 99.7927 137.872 99.914C137.769 100.026 137.596 100.082 137.354 100.082ZM136.794 101.776H137.914V109H136.794V101.776ZM141.89 109L139.356 101.776H140.476L141.736 105.36L142.52 107.824H142.59L143.374 105.36L144.662 101.776H145.74L143.192 109H141.89ZM151.025 110.932V98.36H151.977V110.932H151.025ZM164.434 109L163.454 106.116H159.506L158.526 109H157.336L160.752 99.228H162.25L165.666 109H164.434ZM161.508 100.32H161.438L159.786 105.08H163.16L161.508 100.32ZM168.362 109C167.97 109 167.672 108.893 167.466 108.678C167.27 108.454 167.172 108.174 167.172 107.838V98.64H168.292V108.02H169.356V109H168.362ZM172.109 109C171.717 109 171.418 108.893 171.213 108.678C171.017 108.454 170.919 108.174 170.919 107.838V98.64H172.039V108.02H173.103V109H172.109ZM178.042 109V101.776H179.162V103.106H179.232C179.362 102.761 179.596 102.453 179.932 102.182C180.268 101.911 180.73 101.776 181.318 101.776H181.752V102.896H181.094C180.487 102.896 180.011 103.013 179.666 103.246C179.33 103.47 179.162 103.755 179.162 104.1V109H178.042ZM183.742 100.082C183.5 100.082 183.322 100.026 183.21 99.914C183.108 99.7927 183.056 99.6387 183.056 99.452V99.27C183.056 99.0833 183.108 98.934 183.21 98.822C183.322 98.7007 183.5 98.64 183.742 98.64C183.985 98.64 184.158 98.7007 184.26 98.822C184.372 98.934 184.428 99.0833 184.428 99.27V99.452C184.428 99.6387 184.372 99.7927 184.26 99.914C184.158 100.026 183.985 100.082 183.742 100.082ZM183.182 101.776H184.302V109H183.182V101.776ZM192.772 109.798C192.772 110.545 192.478 111.091 191.89 111.436C191.312 111.791 190.439 111.968 189.272 111.968C188.143 111.968 187.331 111.814 186.836 111.506C186.342 111.198 186.094 110.759 186.094 110.19C186.094 109.798 186.197 109.49 186.402 109.266C186.608 109.051 186.888 108.893 187.242 108.79V108.636C186.813 108.431 186.598 108.095 186.598 107.628C186.598 107.264 186.715 106.989 186.948 106.802C187.182 106.606 187.48 106.461 187.844 106.368V106.312C187.415 106.107 187.079 105.813 186.836 105.43C186.603 105.047 186.486 104.604 186.486 104.1C186.486 103.736 186.552 103.4 186.682 103.092C186.813 102.784 186.995 102.523 187.228 102.308C187.471 102.084 187.756 101.911 188.082 101.79C188.418 101.669 188.792 101.608 189.202 101.608C189.716 101.608 190.173 101.701 190.574 101.888V101.762C190.574 101.482 190.64 101.253 190.77 101.076C190.901 100.889 191.116 100.796 191.414 100.796H192.492V101.776H191.12V102.238C191.382 102.462 191.582 102.733 191.722 103.05C191.872 103.358 191.946 103.708 191.946 104.1C191.946 104.464 191.881 104.8 191.75 105.108C191.62 105.416 191.433 105.682 191.19 105.906C190.957 106.121 190.672 106.289 190.336 106.41C190 106.531 189.627 106.592 189.216 106.592C188.983 106.592 188.75 106.569 188.516 106.522C188.274 106.587 188.054 106.685 187.858 106.816C187.662 106.937 187.564 107.11 187.564 107.334C187.564 107.549 187.667 107.693 187.872 107.768C188.078 107.843 188.344 107.88 188.67 107.88H190.21C191.106 107.88 191.755 108.053 192.156 108.398C192.567 108.734 192.772 109.201 192.772 109.798ZM191.722 109.882C191.722 109.593 191.61 109.359 191.386 109.182C191.172 109.014 190.784 108.93 190.224 108.93H187.816C187.368 109.135 187.144 109.462 187.144 109.91C187.144 110.227 187.261 110.498 187.494 110.722C187.737 110.946 188.143 111.058 188.712 111.058H189.748C190.374 111.058 190.859 110.96 191.204 110.764C191.55 110.568 191.722 110.274 191.722 109.882ZM189.216 105.696C189.692 105.696 190.07 105.584 190.35 105.36C190.63 105.127 190.77 104.772 190.77 104.296V103.904C190.77 103.428 190.63 103.078 190.35 102.854C190.07 102.621 189.692 102.504 189.216 102.504C188.74 102.504 188.362 102.621 188.082 102.854C187.802 103.078 187.662 103.428 187.662 103.904V104.296C187.662 104.772 187.802 105.127 188.082 105.36C188.362 105.584 188.74 105.696 189.216 105.696ZM194.079 98.64H195.199V102.952H195.255C195.432 102.541 195.679 102.215 195.997 101.972C196.323 101.729 196.757 101.608 197.299 101.608C198.045 101.608 198.633 101.851 199.063 102.336C199.501 102.812 199.721 103.489 199.721 104.366V109H198.601V104.562C198.601 103.265 198.055 102.616 196.963 102.616C196.739 102.616 196.519 102.644 196.305 102.7C196.099 102.756 195.913 102.84 195.745 102.952C195.577 103.064 195.441 103.209 195.339 103.386C195.245 103.554 195.199 103.755 195.199 103.988V109H194.079V98.64ZM203.632 109C203.24 109 202.941 108.893 202.736 108.678C202.54 108.454 202.442 108.165 202.442 107.81V102.756H201.252V101.776H201.924C202.166 101.776 202.33 101.729 202.414 101.636C202.507 101.533 202.554 101.361 202.554 101.118V99.774H203.562V101.776H205.144V102.756H203.562V108.02H205.032V109H203.632ZM209.114 109.168C208.442 109.168 207.877 109.042 207.42 108.79C206.972 108.529 206.585 108.183 206.258 107.754L207.056 107.11C207.336 107.465 207.649 107.74 207.994 107.936C208.339 108.123 208.741 108.216 209.198 108.216C209.674 108.216 210.043 108.113 210.304 107.908C210.575 107.703 210.71 107.413 210.71 107.04C210.71 106.76 210.617 106.522 210.43 106.326C210.253 106.121 209.926 105.981 209.45 105.906L208.876 105.822C208.54 105.775 208.232 105.705 207.952 105.612C207.672 105.509 207.425 105.379 207.21 105.22C207.005 105.052 206.841 104.847 206.72 104.604C206.608 104.361 206.552 104.072 206.552 103.736C206.552 103.381 206.617 103.073 206.748 102.812C206.879 102.541 207.056 102.317 207.28 102.14C207.513 101.963 207.789 101.832 208.106 101.748C208.423 101.655 208.764 101.608 209.128 101.608C209.716 101.608 210.206 101.711 210.598 101.916C210.999 102.121 211.349 102.406 211.648 102.77L210.906 103.442C210.747 103.218 210.514 103.017 210.206 102.84C209.898 102.653 209.511 102.56 209.044 102.56C208.577 102.56 208.223 102.663 207.98 102.868C207.747 103.064 207.63 103.335 207.63 103.68C207.63 104.035 207.747 104.291 207.98 104.45C208.223 104.609 208.568 104.725 209.016 104.8L209.576 104.884C210.379 105.005 210.948 105.239 211.284 105.584C211.62 105.92 211.788 106.363 211.788 106.914C211.788 107.614 211.55 108.165 211.074 108.566C210.598 108.967 209.945 109.168 209.114 109.168ZM217.075 109V101.776H218.195V103.106H218.265C218.395 102.761 218.629 102.453 218.965 102.182C219.301 101.911 219.763 101.776 220.351 101.776H220.785V102.896H220.127C219.52 102.896 219.044 103.013 218.699 103.246C218.363 103.47 218.195 103.755 218.195 104.1V109H217.075ZM224.863 109.168C224.368 109.168 223.92 109.079 223.519 108.902C223.127 108.725 222.786 108.473 222.497 108.146C222.217 107.81 221.998 107.413 221.839 106.956C221.69 106.489 221.615 105.967 221.615 105.388C221.615 104.819 221.69 104.301 221.839 103.834C221.998 103.367 222.217 102.971 222.497 102.644C222.786 102.308 223.127 102.051 223.519 101.874C223.92 101.697 224.368 101.608 224.863 101.608C225.348 101.608 225.782 101.697 226.165 101.874C226.548 102.051 226.874 102.299 227.145 102.616C227.416 102.924 227.621 103.293 227.761 103.722C227.91 104.151 227.985 104.623 227.985 105.136V105.668H222.791V106.004C222.791 106.312 222.838 106.601 222.931 106.872C223.034 107.133 223.174 107.362 223.351 107.558C223.538 107.754 223.762 107.908 224.023 108.02C224.294 108.132 224.597 108.188 224.933 108.188C225.39 108.188 225.787 108.081 226.123 107.866C226.468 107.651 226.734 107.343 226.921 106.942L227.719 107.516C227.486 108.011 227.122 108.412 226.627 108.72C226.132 109.019 225.544 109.168 224.863 109.168ZM224.863 102.546C224.555 102.546 224.275 102.602 224.023 102.714C223.771 102.817 223.552 102.966 223.365 103.162C223.188 103.358 223.048 103.591 222.945 103.862C222.842 104.123 222.791 104.413 222.791 104.73V104.828H226.781V104.674C226.781 104.03 226.604 103.517 226.249 103.134C225.904 102.742 225.442 102.546 224.863 102.546ZM232.001 109.168C231.329 109.168 230.764 109.042 230.307 108.79C229.859 108.529 229.471 108.183 229.145 107.754L229.943 107.11C230.223 107.465 230.535 107.74 230.881 107.936C231.226 108.123 231.627 108.216 232.085 108.216C232.561 108.216 232.929 108.113 233.191 107.908C233.461 107.703 233.597 107.413 233.597 107.04C233.597 106.76 233.503 106.522 233.317 106.326C233.139 106.121 232.813 105.981 232.337 105.906L231.763 105.822C231.427 105.775 231.119 105.705 230.839 105.612C230.559 105.509 230.311 105.379 230.097 105.22C229.891 105.052 229.728 104.847 229.607 104.604C229.495 104.361 229.439 104.072 229.439 103.736C229.439 103.381 229.504 103.073 229.635 102.812C229.765 102.541 229.943 102.317 230.167 102.14C230.4 101.963 230.675 101.832 230.993 101.748C231.31 101.655 231.651 101.608 232.015 101.608C232.603 101.608 233.093 101.711 233.485 101.916C233.886 102.121 234.236 102.406 234.535 102.77L233.793 103.442C233.634 103.218 233.401 103.017 233.093 102.84C232.785 102.653 232.397 102.56 231.931 102.56C231.464 102.56 231.109 102.663 230.867 102.868C230.633 103.064 230.517 103.335 230.517 103.68C230.517 104.035 230.633 104.291 230.867 104.45C231.109 104.609 231.455 104.725 231.903 104.8L232.463 104.884C233.265 105.005 233.835 105.239 234.171 105.584C234.507 105.92 234.675 106.363 234.675 106.914C234.675 107.614 234.437 108.165 233.961 108.566C233.485 108.967 232.831 109.168 232.001 109.168ZM239.369 109.168C238.874 109.168 238.426 109.079 238.025 108.902C237.633 108.725 237.292 108.473 237.003 108.146C236.723 107.81 236.504 107.413 236.345 106.956C236.196 106.489 236.121 105.967 236.121 105.388C236.121 104.819 236.196 104.301 236.345 103.834C236.504 103.367 236.723 102.971 237.003 102.644C237.292 102.308 237.633 102.051 238.025 101.874C238.426 101.697 238.874 101.608 239.369 101.608C239.854 101.608 240.288 101.697 240.671 101.874C241.054 102.051 241.38 102.299 241.651 102.616C241.922 102.924 242.127 103.293 242.267 103.722C242.416 104.151 242.491 104.623 242.491 105.136V105.668H237.297V106.004C237.297 106.312 237.344 106.601 237.437 106.872C237.54 107.133 237.68 107.362 237.857 107.558C238.044 107.754 238.268 107.908 238.529 108.02C238.8 108.132 239.103 108.188 239.439 108.188C239.896 108.188 240.293 108.081 240.629 107.866C240.974 107.651 241.24 107.343 241.427 106.942L242.225 107.516C241.992 108.011 241.628 108.412 241.133 108.72C240.638 109.019 240.05 109.168 239.369 109.168ZM239.369 102.546C239.061 102.546 238.781 102.602 238.529 102.714C238.277 102.817 238.058 102.966 237.871 103.162C237.694 103.358 237.554 103.591 237.451 103.862C237.348 104.123 237.297 104.413 237.297 104.73V104.828H241.287V104.674C241.287 104.03 241.11 103.517 240.755 103.134C240.41 102.742 239.948 102.546 239.369 102.546ZM244.336 109V101.776H245.456V103.106H245.526C245.657 102.761 245.89 102.453 246.226 102.182C246.562 101.911 247.024 101.776 247.612 101.776H248.046V102.896H247.388C246.782 102.896 246.306 103.013 245.96 103.246C245.624 103.47 245.456 103.755 245.456 104.1V109H244.336ZM251.21 109L248.676 101.776H249.796L251.056 105.36L251.84 107.824H251.91L252.694 105.36L253.982 101.776H255.06L252.512 109H251.21ZM259.111 109.168C258.616 109.168 258.168 109.079 257.767 108.902C257.375 108.725 257.034 108.473 256.745 108.146C256.465 107.81 256.246 107.413 256.087 106.956C255.938 106.489 255.863 105.967 255.863 105.388C255.863 104.819 255.938 104.301 256.087 103.834C256.246 103.367 256.465 102.971 256.745 102.644C257.034 102.308 257.375 102.051 257.767 101.874C258.168 101.697 258.616 101.608 259.111 101.608C259.596 101.608 260.03 101.697 260.413 101.874C260.796 102.051 261.122 102.299 261.393 102.616C261.664 102.924 261.869 103.293 262.009 103.722C262.158 104.151 262.233 104.623 262.233 105.136V105.668H257.039V106.004C257.039 106.312 257.086 106.601 257.179 106.872C257.282 107.133 257.422 107.362 257.599 107.558C257.786 107.754 258.01 107.908 258.271 108.02C258.542 108.132 258.845 108.188 259.181 108.188C259.638 108.188 260.035 108.081 260.371 107.866C260.716 107.651 260.982 107.343 261.169 106.942L261.967 107.516C261.734 108.011 261.37 108.412 260.875 108.72C260.38 109.019 259.792 109.168 259.111 109.168ZM259.111 102.546C258.803 102.546 258.523 102.602 258.271 102.714C258.019 102.817 257.8 102.966 257.613 103.162C257.436 103.358 257.296 103.591 257.193 103.862C257.09 104.123 257.039 104.413 257.039 104.73V104.828H261.029V104.674C261.029 104.03 260.852 103.517 260.497 103.134C260.152 102.742 259.69 102.546 259.111 102.546ZM268.699 107.824H268.643C268.204 108.72 267.499 109.168 266.529 109.168C266.081 109.168 265.675 109.079 265.311 108.902C264.947 108.725 264.634 108.473 264.373 108.146C264.121 107.819 263.925 107.423 263.785 106.956C263.654 106.489 263.589 105.967 263.589 105.388C263.589 104.809 263.654 104.287 263.785 103.82C263.925 103.353 264.121 102.957 264.373 102.63C264.634 102.303 264.947 102.051 265.311 101.874C265.675 101.697 266.081 101.608 266.529 101.608C267.033 101.608 267.462 101.72 267.817 101.944C268.181 102.159 268.456 102.495 268.643 102.952H268.699V98.64H269.819V109H268.699V107.824ZM266.837 108.16C267.089 108.16 267.327 108.127 267.551 108.062C267.784 107.997 267.985 107.903 268.153 107.782C268.321 107.651 268.451 107.497 268.545 107.32C268.647 107.133 268.699 106.923 268.699 106.69V104.002C268.699 103.806 268.647 103.624 268.545 103.456C268.451 103.279 268.321 103.129 268.153 103.008C267.985 102.887 267.784 102.793 267.551 102.728C267.327 102.653 267.089 102.616 266.837 102.616C266.202 102.616 265.703 102.817 265.339 103.218C264.975 103.61 264.793 104.128 264.793 104.772V106.004C264.793 106.648 264.975 107.171 265.339 107.572C265.703 107.964 266.202 108.16 266.837 108.16Z" fill="#333333"/>
<path fill-rule="evenodd" clip-rule="evenodd" d="M64.5 97C68.9183 97 72.5 100.582 72.5 105C72.5 109.418 68.9183 113 64.5 113C60.0817 113 56.5 109.418 56.5 105C56.5 100.582 60.0817 97 64.5 97ZM64.5 98C60.634 98 57.5 101.134 57.5 105C57.5 108.866 60.634 112 64.5 112C68.366 112 71.5 108.866 71.5 105C71.5 101.134 68.366 98 64.5 98ZM63.362 108.294C63.7633 108.471 64.216 108.56 64.72 108.56C65.4107 108.56 65.987 108.406 66.449 108.098C66.911 107.79 67.2587 107.375 67.492 106.852L66.68 106.306C66.2787 107.146 65.6253 107.566 64.72 107.566C64.0573 107.566 63.5557 107.363 63.215 106.957C62.8743 106.551 62.704 106.031 62.704 105.396V104.164C62.704 103.847 62.746 103.555 62.83 103.289C62.914 103.023 63.04 102.794 63.208 102.603C63.376 102.412 63.586 102.262 63.838 102.155C64.09 102.048 64.384 101.994 64.72 101.994C65.168 101.994 65.5413 102.097 65.84 102.302C66.1387 102.507 66.3533 102.797 66.484 103.17L67.422 102.694C67.2073 102.19 66.883 101.782 66.449 101.469C66.015 101.156 65.4387 101 64.72 101C64.216 101 63.7633 101.089 63.362 101.266C62.9607 101.443 62.6223 101.695 62.347 102.022C62.0717 102.349 61.8617 102.745 61.717 103.212C61.5723 103.679 61.5 104.201 61.5 104.78C61.5 105.359 61.5723 105.881 61.717 106.348C61.8617 106.815 62.0717 107.211 62.347 107.538C62.6223 107.865 62.9607 108.117 63.362 108.294Z" fill="#333333"/>
</g>
<defs>
<clipPath id="clip0_1860_26691">
<rect width="99" height="28.8" fill="white" transform="translate(30 25.6)"/>
</clipPath>
<clipPath id="clip1_1860_26691">
<rect width="215" height="17" fill="white" transform="translate(56.5 96)"/>
</clipPath>
</defs>
</svg>
