<svg width="40" height="40" viewBox="0 0 40 40" fill="none" xmlns="http://www.w3.org/2000/svg">
<path d="M0 20C0 8.95431 8.95431 0 20 0C31.0457 0 40 8.95431 40 20C40 31.0457 31.0457 40 20 40C8.95431 40 0 31.0457 0 20Z" fill="#333333"/>
<path fill-rule="evenodd" clip-rule="evenodd" d="M14.623 8H25.3767C29.0289 8 32.0001 10.9712 32 14.6231V25.3769C32 29.0288 29.0289 32 25.3767 32H14.623C10.9711 32 8 29.0289 8 25.3769V14.6231C8 10.9712 10.9711 8 14.623 8ZM25.3765 29.8706C27.8544 29.8706 29.8704 27.8548 29.8704 25.3769H29.8702V14.6231C29.8702 12.1454 27.8543 10.1294 25.3764 10.1294H14.6226C12.1449 10.1294 10.129 12.1454 10.129 14.6231V25.3769C10.129 27.8548 12.1449 29.8707 14.6226 29.8706H25.3765ZM13.7147 20.0001C13.7147 16.5341 16.5344 13.7143 20.0004 13.7143C23.4664 13.7143 26.2861 16.5341 26.2861 20.0001C26.2861 23.4661 23.4664 26.2857 20.0004 26.2857C16.5344 26.2857 13.7147 23.4661 13.7147 20.0001ZM15.8786 20C15.8786 22.2725 17.7275 24.1212 19.9999 24.1212C22.2724 24.1212 24.1213 22.2725 24.1213 20C24.1213 17.7274 22.2725 15.8785 19.9999 15.8785C17.7274 15.8785 15.8786 17.7274 15.8786 20ZM25.5621 12.4182C25.8272 12.1519 26.1959 12 26.5712 12C26.9479 12 27.3167 12.1519 27.5816 12.4182C27.8479 12.6831 27.9998 13.0519 27.9998 13.4286C27.9998 13.8039 27.8479 14.1727 27.5816 14.439C27.3154 14.7039 26.9479 14.8571 26.5712 14.8571C26.1959 14.8571 25.8271 14.7039 25.5621 14.439C25.2959 14.1727 25.1427 13.804 25.1427 13.4286C25.1427 13.0519 25.2958 12.6831 25.5621 12.4182Z" fill="white"/>
</svg>
