<svg width="48" height="48" viewBox="0 0 48 48" fill="none" xmlns="http://www.w3.org/2000/svg">
<path d="M39 0H9C4.02944 0 0 4.02944 0 9V39C0 43.9706 4.02944 48 9 48H39C43.9706 48 48 43.9706 48 39V9C48 4.02944 43.9706 0 39 0Z" fill="#FFC71B"/>
<path d="M29.9999 15C28.3499 15 26.9999 16.35 26.9999 18C26.9999 19.02 27.5099 19.905 28.2749 20.445L25.7999 27.03C25.6949 27.03 25.5899 27 25.4849 27C24.6599 27 23.9249 27.33 23.3849 27.87L20.8499 26.355C20.9249 26.085 20.9849 25.8 20.9849 25.515C20.9849 23.865 19.6349 22.515 17.9849 22.515C16.3349 22.515 14.9849 23.865 14.9849 25.515C14.9849 27.165 16.3349 28.515 17.9849 28.515C18.8099 28.515 19.5449 28.185 20.0849 27.645L22.6199 29.16C22.5449 29.43 22.4849 29.715 22.4849 30C22.4849 31.65 23.8349 33 25.4849 33C27.1349 33 28.4849 31.65 28.4849 30C28.4849 28.98 27.9749 28.095 27.2099 27.555L29.6699 20.97C29.7749 20.97 29.8799 21 29.9849 21C31.6349 21 32.9849 19.65 32.9849 18C32.9849 16.35 31.6349 15 29.9849 15H29.9999Z" fill="white"/>
</svg>
