<svg width="238" height="100" fill="none" xmlns="http://www.w3.org/2000/svg"><path d="M0 0h183l55 100H0V0z" fill="#E98024"/><g opacity=".32" fill="#fff"><path d="M49.418 2.581a5.4 5.4 0 10-7.636 7.637 5.4 5.4 0 007.636-7.637zm-.895 5.73l-1.012 1.013L45.6 7.412l-1.912 1.912-1.012-1.013L44.587 6.4l-1.911-1.911 1.012-1.013L45.6 5.388l1.91-1.912 1.013 1.013-1.91 1.911 1.91 1.911z"/><path d="M40.636 11.364A7.004 7.004 0 0138.584 6.4H27.24A3.24 3.24 0 0024 9.64v15.12A3.24 3.24 0 0027.24 28h15.12a3.24 3.24 0 003.24-3.24V13.416a7.003 7.003 0 01-4.964-2.052zM31.02 9.41a1.89 1.89 0 110 3.78 1.89 1.89 0 010-3.78zm-3.78 6.805a2.265 2.265 0 012.268-2.268h3.024a2.268 2.268 0 012.268 2.268v.756h-7.56v-.756zm15.12 8.1H27.24v-1.35h15.12v1.35zm0-3.24H27.24v-1.368h15.12v1.367z"/></g><g opacity=".32" fill="#fff"><path d="M111.954 36.28V20.6H62.672a11.629 11.629 0 00-8.253 3.444A11.805 11.805 0 0051 32.36v54.88c0 3.119 1.23 6.11 3.419 8.316A11.629 11.629 0 0062.672 99h54.472c3.095 0 6.064-1.239 8.253-3.444a11.805 11.805 0 003.419-8.316V44.12h-9.081a7.759 7.759 0 01-5.5-2.298 7.873 7.873 0 01-2.281-5.542zM76.29 31.52c1.347 0 2.663.402 3.783 1.156a6.85 6.85 0 012.508 3.079 6.908 6.908 0 01.387 3.963 6.876 6.876 0 01-1.863 3.513 6.794 6.794 0 01-3.486 1.877 6.762 6.762 0 01-3.934-.39 6.82 6.82 0 01-3.056-2.527 6.896 6.896 0 01.847-8.662 6.783 6.783 0 014.814-2.009zM62.672 56.223c0-1.081.21-2.152.62-3.151a8.23 8.23 0 011.772-2.672 8.16 8.16 0 012.651-1.784 8.112 8.112 0 013.128-.625h10.894a8.14 8.14 0 015.778 2.411 8.263 8.263 0 012.393 5.821v2.737H62.672v-2.737zm54.472 29.4H62.672v-4.9h54.472v4.9zm0-11.76H62.672V68.9h54.472v4.963z"/><path d="M115.844 35.846a4.383 4.383 0 001.273 3.077 4.318 4.318 0 003.056 1.277h17.286a4.318 4.318 0 003.056-1.277 4.383 4.383 0 001.273-3.077V9.708h-25.944v26.138zm4.329-21.784h17.286v21.784h-17.286V14.062zM136.382 3.177L134.221 1h-10.81l-2.161 2.177h-7.566v4.354h30.264V3.177h-7.566z"/><path d="M127.392 17.023h-4.03v15.862h4.03V17.023zM134.27 17.023h-4.03v15.862h4.03V17.023z"/></g><g opacity=".32" fill="#fff"><path d="M155.159 77.398a5.866 5.866 0 003.22-.96 5.724 5.724 0 002.135-2.558 5.621 5.621 0 00-1.257-6.21 5.824 5.824 0 00-2.967-1.56 5.889 5.889 0 00-3.349.324 5.777 5.777 0 00-2.601 2.099 5.63 5.63 0 00-.977 3.166 5.658 5.658 0 001.699 4.029 5.851 5.851 0 004.097 1.67zm0-8.808c.626 0 1.238.182 1.759.524.521.341.926.827 1.166 1.396.24.568.303 1.194.181 1.798a3.1 3.1 0 01-.866 1.593 3.184 3.184 0 01-1.621.852c-.614.12-1.25.058-1.828-.178a3.146 3.146 0 01-1.42-1.147 3.066 3.066 0 01.397-3.923 3.193 3.193 0 012.232-.91v-.005zM146.585 89.942v-4.186a4.175 4.175 0 011.256-2.965 4.319 4.319 0 013.016-1.233h8.602a4.307 4.307 0 012.515.804 9.69 9.69 0 013.08-.507h.055a6.864 6.864 0 00-2.465-2.124 6.997 6.997 0 00-3.185-.765h-8.602a6.974 6.974 0 00-4.882 1.99 6.746 6.746 0 00-2.027 4.8v6.774h11.664a8.35 8.35 0 010-2.593l-9.027.005z"/><path d="M170.636 85.747a7.938 7.938 0 00-4.042-2.126 8.02 8.02 0 00-4.562.442 7.87 7.87 0 00-3.544 2.86 7.67 7.67 0 00-1.331 4.313 7.67 7.67 0 001.331 4.314 7.87 7.87 0 003.544 2.86 8.019 8.019 0 004.562.44 7.937 7.937 0 004.042-2.124 7.696 7.696 0 002.312-5.49 7.696 7.696 0 00-2.312-5.49zm-1.306 8.25l-1.481 1.456-2.795-2.76-2.795 2.748-1.481-1.457 2.794-2.748-2.794-2.748 1.481-1.457 2.795 2.748 2.795-2.748 1.481 1.457-2.795 2.748 2.795 2.76z"/></g></svg>