<svg width="48" height="48" viewBox="0 0 48 48" fill="none" xmlns="http://www.w3.org/2000/svg">
<path d="M39 0H9C4.02944 0 0 4.02944 0 9V39C0 43.9706 4.02944 48 9 48H39C43.9706 48 48 43.9706 48 39V9C48 4.02944 43.9706 0 39 0Z" fill="#3C77AE"/>
<path d="M22.5 18C22.5 19.65 21.15 21 19.5 21C17.85 21 16.5 19.65 16.5 18C16.5 16.35 17.85 15 19.5 15C21.15 15 22.5 16.35 22.5 18ZM25.5 24L24 22.5H18C16.35 22.5 15 23.85 15 25.5V31.5C15 32.325 15.675 33 16.5 33H22.5C23.325 33 24 32.325 24 31.5V28.5L22.5 27L24 25.5L25.5 24ZM27 18.75C27 19.995 28.005 21 29.25 21C30.495 21 31.5 19.995 31.5 18.75C31.5 17.505 30.495 16.5 29.25 16.5C28.005 16.5 27 17.505 27 18.75ZM25.5 22.5L27 24L25.5 25.5L24 27L25.5 28.5V31.5C25.5 32.325 26.175 33 27 33H31.5C32.325 33 33 32.325 33 31.5V25.5C33 23.85 31.65 22.5 30 22.5H25.5Z" fill="white"/>
</svg>
