<svg xmlns="http://www.w3.org/2000/svg" xmlns:xlink="http://www.w3.org/1999/xlink" width="312" height="51.2" viewBox="0 0 312 51.2"><style>.st0{fill:#17212c}.st1{fill:#ff444f}.st2{fill:#fff}.st3{fill:#ff6444}.st4{fill:none}.st11{fill:#0e0e0e}</style><g id="Layer_1"><image width="3360" height="2100" xlink:href="1F572F8A6FD3ED8A.png" transform="matrix(.5 0 0 .5 -349.693 1250.814)" overflow="visible"/><path class="st0" d="M-2053.5 1418.2h2v60h-2z"/><image width="3360" height="2100" xlink:href="1F572F8A6FD3ED8E.png" transform="matrix(.5 0 0 .5 -2326.01 2478.58)" overflow="visible"/><image width="3360" height="2100" xlink:href="1F572F8A6FD3ED89.png" transform="matrix(.5 0 0 .5 -4136.892 2478.58)" overflow="visible"/><image width="3360" height="2100" xlink:href="1F572F8A6FD3ED8B.png" transform="matrix(.5 0 0 .5 -4136.892 1250.814)" overflow="visible"/></g><g id="Layer_3"><defs><path id="SVGID_1_" d="M-72.3 1424.1h418.2v53.7H-72.3z"/></defs><clipPath id="SVGID_2_"><use xlink:href="#SVGID_1_" overflow="visible"/></clipPath><path class="st0" d="M-3864.4 1418.2h2v60h-2z"/><path class="st1" d="M-3547.5 1431.6h116c2.2 0 4 1.8 4 4v24c0 2.2-1.8 4-4 4h-116c-2.2 0-4-1.8-4-4v-24c0-2.2 1.8-4 4-4z"/><path class="st2" d="M-3513.5 1444.8v7.9h-2.1v-7.9h-2.6v-1.9h7.4v1.9h-2.7zM-3509.5 1452.6v-7.3h2.1v1.6h.1c0-.2.1-.4.2-.6.1-.2.2-.4.4-.5.2-.1.3-.3.6-.4.2-.1.5-.1.8-.1h.4v1.9h-.5c-.6 0-1.1.1-1.4.2-.3.2-.4.5-.4.9v4.3h-2.3zM-3499.3 1445.3h1.9l-2.8 8.5c-.2.6-.5 1-.8 1.3-.3.3-.8.4-1.5.4h-1.3v-1.6h1.4l.3-.8-2.6-7.7h2.1l1.1 3.4.5 2.1h.1l.5-2.1 1.1-3.5zM-3492.9 1442.9h3.7c.6 0 1.2.1 1.8.3.5.2 1 .5 1.4.9.4.4.7.9.9 1.5.2.6.3 1.3.3 2.1s-.1 1.5-.3 2.1c-.2.6-.5 1.1-.9 1.5-.4.4-.8.7-1.4.9-.5.2-1.1.3-1.8.3h-3.7v-9.6zm3.6 7.9c.6 0 1.1-.2 1.5-.5.4-.4.5-.9.5-1.7v-1.5c0-.8-.2-1.4-.5-1.7-.4-.4-.9-.5-1.5-.5h-1.6v6h1.6zM-3483.2 1442.9h4.7c.8 0 1.4.2 1.9.7.5.5.7 1.1.7 1.8 0 .4 0 .7-.1 1-.1.3-.2.5-.4.6-.2.2-.4.3-.6.4-.2.1-.5.1-.7.1v.1c.2 0 .5 0 .7.1s.5.2.7.4c.2.2.4.4.5.7.1.3.2.6.2 1.1 0 .4-.1.7-.2 1.1s-.3.6-.5.9c-.2.3-.5.5-.8.6s-.6.2-1 .2h-5.2v-9.8zm2.1 4h2.1c.3 0 .5-.1.7-.2.2-.2.2-.4.2-.7v-.4c0-.3-.1-.5-.2-.7-.2-.2-.4-.2-.7-.2h-2.1v2.2zm0 3.9h2.4c.3 0 .5-.1.7-.2.2-.2.2-.4.2-.7v-.5c0-.3-.1-.5-.2-.7-.2-.2-.4-.2-.7-.2h-2.4v2.3zM-3471 1452.8c-.5 0-1-.1-1.4-.3-.4-.2-.8-.4-1.1-.8s-.5-.7-.7-1.2c-.2-.5-.2-1-.2-1.6s.1-1.1.2-1.6c.2-.5.4-.9.7-1.2.3-.3.7-.6 1.1-.8.4-.2.9-.3 1.4-.3.5 0 1 .1 1.4.3.4.2.8.4 1.1.8.3.3.5.7.7 1.2.2.5.2 1 .2 1.6s-.1 1.1-.2 1.6-.4.9-.7 1.2-.7.6-1.1.8c-.4.2-.8.3-1.4.3zm0-1.6c.4 0 .7-.1 1-.4s.3-.6.3-1.1v-1.5c0-.5-.1-.8-.3-1.1s-.5-.4-1-.4c-.4 0-.7.1-1 .4s-.3.6-.3 1.1v1.5c0 .5.1.8.3 1.1s.6.4 1 .4zM-3463.5 1452.6c-.7 0-1.3-.2-1.6-.5-.4-.4-.6-.9-.6-1.6v-3.6h-1v-1.6h.5c.3 0 .5-.1.6-.2.1-.1.2-.3.2-.6v-1.2h1.9v2h1.5v1.6h-1.5v4.1h1.3v1.6h-1.3z"/><g id="logo_x2F_platforms_x2F_DBot_3_" transform="translate(16 8)"><g id="_x33_-icons_x2F_2-binarybot_3_"><g id="ic_platform-binarybot_3_"><path id="Rectangle_6_" class="st3" d="M-3841.5 1423.6h20c3.3 0 6 2.7 6 6v20c0 3.3-2.7 6-6 6h-20c-3.3 0-6-2.7-6-6v-20c0-3.3 2.7-6 6-6z"/><path id="Path_12_" class="st4" d="M-3833.7 1436.9c.5 0 .8-.4.8-.8s-.4-.8-.8-.8-.8.4-.8.8c0 .2.1.4.2.6s.3.2.6.2z"/><path id="Path_11_" class="st2" d="M-3822.2 1439.1v-4.6c0-2.7-2.2-4.8-4.8-4.8h-3.9v9.4h8.7z"/><path id="Path_10_" class="st2" d="M-3830.9 1449.6h3.9c2.7 0 4.8-2.2 4.8-4.8v-4.6h-8.7v9.4z"/><path id="Path_9_" class="st2" d="M-3835.7 1437.5c-1.5 0-2.7-1.2-2.8-2.6s1-2.8 2.5-3 2.9.8 3.1 2.3h.9v-4.5h-3.9c-2.7 0-4.8 2.2-4.8 4.8v10.3c0 2.7 2.2 4.8 4.8 4.8h3.9v-14.4h-.9c-.2 1.4-1.4 2.3-2.8 2.3z"/><path id="Rectangle_5_" class="st4" d="M-3847.5 1423.6h32v32h-32z"/></g></g></g><path class="st2" d="M-3786.4 1442.5v-9.8h6.3v1.4h-4.7v2.7h4.2v1.4h-4.2v2.9h4.7v1.4h-6.3zM-3779.1 1442.5l2.6-3.7-2.5-3.6h1.8l1.6 2.5 1.7-2.5h1.6l-2.5 3.6 2.5 3.7h-1.8l-1.7-2.6-1.8 2.6h-1.5zM-3770.8 1435.2h1.5v1.2h.1c.2-.4.4-.8.8-1s.8-.4 1.3-.4c.9 0 1.6.3 2.1 1s.8 1.6.8 2.8-.3 2.1-.8 2.8-1.2 1-2.1 1c-.5 0-.9-.1-1.3-.4-.4-.2-.6-.6-.8-1h-.1v4h-1.5v-10zm3.1 6.1c.5 0 1-.2 1.3-.5s.5-.8.5-1.4v-1.3c0-.6-.2-1-.5-1.4s-.7-.5-1.3-.5c-.5 0-.9.1-1.2.3-.3.2-.5.5-.5.9v2.5c0 .4.2.7.5.9.4.4.8.5 1.2.5zM-3759.7 1442.7c-.5 0-1-.1-1.4-.3-.4-.2-.8-.4-1-.8-.3-.3-.5-.7-.7-1.2-.2-.5-.2-1-.2-1.6 0-.6.1-1.1.2-1.6s.4-.9.7-1.2c.3-.3.6-.6 1-.8.4-.2.9-.3 1.4-.3.5 0 1 .1 1.4.3.4.2.7.4 1 .8.3.3.5.7.6 1.2.1.4.2.9.2 1.4v.6h-5v.2c0 .6.2 1 .5 1.4.3.4.8.5 1.4.5.4 0 .8-.1 1.1-.3.3-.2.6-.5.8-.8l.9.9c-.3.4-.7.8-1.2 1.1-.4.3-1 .5-1.7.5zm0-6.5c-.3 0-.5 0-.7.1-.2.1-.4.2-.6.4s-.3.4-.4.6-.1.5-.1.8v.1h3.4v-.1c0-.6-.1-1-.4-1.4-.3-.3-.7-.5-1.2-.5zM-3754.8 1442.5v-7.3h1.5v1.4h.1c.1-.4.3-.7.6-1 .3-.3.8-.4 1.4-.4h.4v1.5h-.6c-.6 0-1.1.1-1.4.3-.3.2-.5.5-.5.9v4.6h-1.5zM-3748.6 1433.9c-.3 0-.5-.1-.7-.2s-.2-.3-.2-.6v-.2c0-.2.1-.4.2-.6.1-.1.4-.2.7-.2s.5.1.7.2c.1.1.2.3.2.6v.2c0 .2-.1.4-.2.6-.2.1-.4.2-.7.2zm-.8 1.3h1.5v7.3h-1.5v-7.3zM-3742.8 1442.7c-.5 0-1-.1-1.4-.3-.4-.2-.8-.4-1-.8-.3-.3-.5-.7-.7-1.2-.2-.5-.2-1-.2-1.6 0-.6.1-1.1.2-1.6s.4-.9.7-1.2c.3-.3.6-.6 1-.8.4-.2.9-.3 1.4-.3.5 0 1 .1 1.4.3.4.2.7.4 1 .8.3.3.5.7.6 1.2.1.4.2.9.2 1.4v.6h-5v.2c0 .6.2 1 .5 1.4.3.4.8.5 1.4.5.4 0 .8-.1 1.1-.3.3-.2.6-.5.8-.8l.9.9c-.3.4-.7.8-1.2 1.1-.5.3-1.1.5-1.7.5zm0-6.5c-.3 0-.5 0-.7.1-.2.1-.4.2-.6.4s-.3.4-.4.6-.1.5-.1.8v.1h3.4v-.1c0-.6-.1-1-.4-1.4-.3-.3-.7-.5-1.2-.5zM-3737.9 1442.5v-7.3h1.5v1.2h.1c.2-.4.4-.7.7-1 .3-.3.8-.4 1.3-.4.7 0 1.3.2 1.7.7.4.5.6 1.2.6 2.1v4.6h-1.5v-4.4c0-1.1-.5-1.7-1.4-1.7-.2 0-.4 0-.6.1-.2.1-.4.1-.5.2-.1.1-.3.2-.4.4-.1.2-.1.3-.1.6v4.9h-1.4zM-3727 1442.7c-.5 0-1-.1-1.4-.3-.4-.2-.8-.4-1-.8-.3-.3-.5-.7-.6-1.2-.1-.5-.2-1-.2-1.6 0-.6.1-1.1.2-1.6s.4-.9.6-1.2c.3-.3.6-.6 1-.8.4-.2.9-.3 1.4-.3.7 0 1.3.2 1.8.5s.8.8 1 1.3l-1.3.6c-.1-.3-.3-.6-.5-.8-.3-.2-.6-.3-1-.3-.6 0-1 .2-1.3.5-.3.3-.4.8-.4 1.4v1.3c0 .6.1 1 .4 1.4.3.3.7.5 1.3.5.4 0 .8-.1 1.1-.3.3-.2.5-.5.6-.9l1.2.6c-.2.6-.6 1.1-1.1 1.4-.5.4-1.1.6-1.8.6zM-3719.9 1442.7c-.5 0-1-.1-1.4-.3-.4-.2-.8-.4-1-.8-.3-.3-.5-.7-.7-1.2-.2-.5-.2-1-.2-1.6 0-.6.1-1.1.2-1.6s.4-.9.7-1.2c.3-.3.6-.6 1-.8.4-.2.9-.3 1.4-.3.5 0 1 .1 1.4.3.4.2.7.4 1 .8.3.3.5.7.6 1.2.1.4.2.9.2 1.4v.6h-5v.2c0 .6.2 1 .5 1.4.3.4.8.5 1.4.5.4 0 .8-.1 1.1-.3.3-.2.6-.5.8-.8l.9.9c-.3.4-.7.8-1.2 1.1-.4.3-1 .5-1.7.5zm0-6.5c-.3 0-.5 0-.7.1-.2.1-.4.2-.6.4s-.3.4-.4.6-.1.5-.1.8v.1h3.4v-.1c0-.6-.1-1-.4-1.4-.3-.3-.7-.5-1.2-.5zM-3711.5 1432.7h3.5c.6 0 1.2.1 1.7.3s.9.5 1.3.9.6.9.8 1.5c.2.6.3 1.3.3 2.1s-.1 1.5-.3 2.1c-.2.6-.5 1.1-.8 1.5-.4.4-.8.7-1.3.9-.5.2-1.1.3-1.7.3h-3.5v-9.6zm3.4 8.4c.7 0 1.3-.2 1.8-.7.4-.5.7-1.1.7-2v-1.6c0-.9-.2-1.6-.7-2-.4-.5-1-.7-1.8-.7h-1.9v7h1.9zM-3702 1432.7h4.3c.8 0 1.4.2 1.9.7s.7 1.1.7 1.8c0 .4-.1.7-.2.9-.1.3-.2.5-.4.6-.2.2-.3.3-.5.4-.2.1-.4.1-.6.1v.1c.2 0 .4.1.7.1.2.1.5.2.7.4.2.2.4.4.5.7.1.3.2.6.2 1s-.1.8-.2 1.1c-.1.3-.3.6-.5.9-.2.3-.5.5-.8.6-.3.1-.6.2-1 .2h-4.8v-9.6zm1.6 4.2h2.4c.4 0 .7-.1.9-.3.2-.2.3-.5.3-.9v-.4c0-.4-.1-.7-.3-.9-.2-.2-.5-.3-.9-.3h-2.4v2.8zm0 4.2h2.7c.4 0 .7-.1 1-.3s.4-.5.4-.9v-.5c0-.4-.1-.7-.4-.9s-.6-.3-1-.3h-2.7v2.9zM-3690 1442.7c-.5 0-1-.1-1.4-.3-.4-.2-.8-.4-1.1-.8-.3-.3-.5-.7-.7-1.2-.2-.5-.2-1-.2-1.6 0-.6.1-1.1.2-1.6s.4-.9.7-1.2c.3-.3.6-.6 1.1-.8.4-.2.9-.3 1.4-.3.5 0 1 .1 1.4.3.4.2.8.4 1.1.8.3.3.5.7.7 1.2.2.5.2 1 .2 1.6 0 .6-.1 1.1-.2 1.6-.2.5-.4.9-.7 1.2-.3.3-.6.6-1.1.8-.4.2-.9.3-1.4.3zm0-1.3c.5 0 .9-.2 1.3-.5.3-.3.5-.8.5-1.4v-1.2c0-.6-.2-1.1-.5-1.4s-.7-.5-1.3-.5c-.5 0-.9.2-1.3.5s-.5.8-.5 1.4v1.2c0 .6.2 1.1.5 1.4.4.3.8.5 1.3.5zM-3683 1442.5c-.5 0-.9-.1-1.2-.4-.3-.3-.4-.7-.4-1.2v-4.5h-1.1v-1.2h.6c.3 0 .4-.1.5-.2.1-.1.1-.3.1-.5v-1.3h1.4v2h1.5v1.2h-1.5v4.8h1.4v1.2h-1.3zM-3780.8 1463.9c-1 0-1.9-.2-2.8-.5-.8-.3-1.5-.8-2.1-1.5-.6-.7-1-1.5-1.4-2.5-.3-1-.5-2.1-.5-3.4s.2-2.5.5-3.4c.3-1 .8-1.8 1.4-2.5.6-.7 1.3-1.2 2.1-1.5.8-.3 1.8-.5 2.8-.5s1.9.2 2.8.5c.8.3 1.5.8 2.1 1.5.6.7 1 1.5 1.4 2.5.3 1 .5 2.1.5 3.4s-.2 2.5-.5 3.4c-.3 1-.8 1.8-1.4 2.5-.6.7-1.3 1.2-2.1 1.5-.9.3-1.8.5-2.8.5zm0-3c1 0 1.8-.3 2.4-1 .6-.7.8-1.6.8-2.8v-2.3c0-1.2-.3-2.2-.8-2.8-.6-.7-1.4-1-2.4-1s-1.8.3-2.4 1-.8 1.6-.8 2.8v2.3c0 1.2.3 2.2.8 2.8s1.4 1 2.4 1zM-3764.6 1461.7h-.1c-.1.3-.2.6-.4.8-.2.3-.4.5-.6.7-.3.2-.6.4-.9.5s-.8.2-1.2.2c-1.2 0-2.1-.4-2.7-1.2-.6-.8-.9-1.9-.9-3.4v-7.3h3.3v7c0 .7.1 1.2.4 1.6.2.4.7.6 1.3.6.2 0 .5 0 .7-.1.2-.1.5-.2.7-.3.2-.1.3-.3.5-.5.1-.2.2-.4.2-.7v-7.5h3.3v11.5h-3.3v-1.9zM-3758.3 1463.6v-11.5h3.3v2.5h.1l.3-.9c.1-.3.3-.6.6-.8.2-.2.5-.4.9-.6s.7-.2 1.2-.2h.6v3h-.8c-1 0-1.7.1-2.1.4-.5.2-.7.7-.7 1.4v6.8h-3.4zM-3744.2 1463.6v-11.5h3.3v2h.1c.2-.6.6-1.1 1.1-1.6.5-.4 1.2-.7 2.1-.7 1.2 0 2.1.4 2.7 1.2.6.8.9 1.9.9 3.4v7.2h-3.3v-7c0-.7-.1-1.3-.4-1.7-.2-.4-.7-.5-1.3-.5-.3 0-.5 0-.8.1-.2.1-.5.2-.7.3-.2.1-.4.3-.5.5-.1.2-.2.5-.2.7v7.5h-3zM-3726.3 1463.9c-.9 0-1.7-.1-2.4-.4s-1.3-.7-1.7-1.2-.8-1.2-1.1-1.9c-.2-.7-.4-1.6-.4-2.5 0-.9.1-1.7.4-2.5.2-.7.6-1.4 1-1.9s1-.9 1.7-1.2c.7-.3 1.4-.4 2.3-.4 1 0 1.8.2 2.5.5s1.2.8 1.7 1.3c.4.5.7 1.2.9 1.9.2.7.3 1.5.3 2.2v1h-7.4v.2c0 .8.2 1.4.6 1.8.4.4 1.1.7 1.9.7.7 0 1.2-.1 1.6-.4.4-.3.8-.6 1.2-1l1.6 2c-.5.6-1.2 1.1-2 1.4-.7.2-1.6.4-2.7.4zm-.1-9.7c-.7 0-1.2.2-1.6.6-.4.4-.6 1-.6 1.7v.2h4v-.2c0-.7-.2-1.3-.5-1.7s-.6-.6-1.3-.6zM-3720 1452.1h3.1l1.1 4.7.8 3.5h.1l.9-3.5 1.3-4.7h3l1.3 4.7.9 3.5h.1l.8-3.5 1.1-4.7h3l-3.2 11.5h-3.4l-1.4-4.9-.8-3h-.1l-.8 3-1.4 4.9h-3.3l-3.1-11.5zM-3695.2 1447.4h3.3v6.7h.1c.2-.6.5-1.2 1.1-1.6.6-.4 1.2-.6 2-.6 1.5 0 2.6.5 3.3 1.5.7 1 1.1 2.5 1.1 4.5s-.4 3.5-1.1 4.5-1.9 1.6-3.3 1.6c-.4 0-.7-.1-1.1-.2-.3-.1-.6-.3-.9-.5-.3-.2-.5-.4-.7-.7-.2-.3-.3-.6-.4-.9h-.1v1.9h-3.3v-16.2zm5.4 13.9c.6 0 1.1-.2 1.5-.6.4-.4.6-1 .6-1.7v-2c0-.7-.2-1.3-.6-1.7-.4-.4-.9-.6-1.5-.6s-1.1.2-1.5.5-.6.7-.6 1.2v3.4c0 .5.2.9.6 1.2.4.1.9.3 1.5.3zM-3677.1 1463.9c-.9 0-1.6-.1-2.3-.4s-1.2-.7-1.7-1.2-.8-1.2-1.1-1.9c-.2-.7-.4-1.6-.4-2.5s.1-1.8.4-2.5c.2-.7.6-1.4 1.1-1.9.5-.5 1-.9 1.7-1.2.7-.3 1.4-.4 2.3-.4.9 0 1.6.1 2.3.4.7.3 1.2.7 1.7 1.2s.8 1.2 1.1 1.9c.2.7.4 1.6.4 2.5s-.1 1.8-.4 2.5c-.2.7-.6 1.4-1.1 1.9-.5.5-1 .9-1.7 1.2s-1.5.4-2.3.4zm0-2.6c.6 0 1.1-.2 1.5-.6.4-.4.5-1 .5-1.7v-2.4c0-.7-.2-1.3-.5-1.7-.4-.4-.9-.6-1.5-.6s-1.1.2-1.5.6c-.4.4-.5 1-.5 1.7v2.4c0 .7.2 1.3.5 1.7.3.4.8.6 1.5.6zM-3665.5 1463.6c-1.1 0-2-.3-2.6-.9-.6-.6-.9-1.4-.9-2.5v-5.7h-1.6v-2.5h.8c.4 0 .7-.1.9-.3.2-.2.2-.5.2-.9v-1.9h2.9v3.1h2.3v2.5h-2.3v6.5h2.1v2.5h-1.8zM-3655.9 1447.4h3.3v6.7h.1c.2-.6.5-1.2 1.1-1.6.6-.4 1.2-.6 2-.6 1.5 0 2.6.5 3.3 1.5.7 1 1.1 2.5 1.1 4.5s-.4 3.5-1.1 4.5-1.9 1.6-3.3 1.6c-.4 0-.7-.1-1.1-.2-.3-.1-.6-.3-.9-.5-.3-.2-.5-.4-.7-.7-.2-.3-.3-.6-.4-.9h-.1v1.9h-3.3v-16.2zm5.4 13.9c.6 0 1.1-.2 1.5-.6.4-.4.6-1 .6-1.7v-2c0-.7-.2-1.3-.6-1.7-.4-.4-.9-.6-1.5-.6s-1.1.2-1.5.5-.6.7-.6 1.2v3.4c0 .5.2.9.6 1.2.4.1.9.3 1.5.3zM-3635.7 1461.7h-.1c-.1.3-.2.6-.4.8-.2.3-.4.5-.6.7-.3.2-.6.4-.9.5s-.8.2-1.2.2c-1.2 0-2.1-.4-2.7-1.2-.6-.8-.9-1.9-.9-3.4v-7.3h3.3v7c0 .7.1 1.2.4 1.6.2.4.7.6 1.3.6.2 0 .5 0 .7-.1.2-.1.5-.2.7-.3.2-.1.3-.3.5-.5.1-.2.2-.4.2-.7v-7.5h3.3v11.5h-3.3v-1.9zM-3627.8 1450.9c-.7 0-1.1-.2-1.4-.5-.3-.3-.5-.7-.5-1.2v-.5c0-.5.2-.9.5-1.2.3-.3.8-.5 1.4-.5s1.1.2 1.4.5c.3.3.5.7.5 1.2v.5c0 .5-.2.9-.5 1.2-.2.3-.7.5-1.4.5zm-1.6 1.2h3.3v11.5h-3.3v-11.5zM-3619.9 1463.6c-1.1 0-1.9-.3-2.5-.8-.5-.5-.8-1.3-.8-2.4v-13.1h3.3v13.8h1.5v2.5h-1.5zM-3609.4 1461.7h-.1c-.1.3-.2.6-.4.9-.2.3-.4.5-.7.7-.3.2-.6.4-.9.5-.3.1-.7.2-1.1.2-1.5 0-2.6-.5-3.3-1.6s-1.1-2.5-1.1-4.5.4-3.5 1.1-4.5c.7-1 1.9-1.5 3.3-1.5.7 0 1.4.2 2 .6.6.4.9.9 1.1 1.6h.1v-6.7h3.3v16.3h-3.3v-2zm-2.1-.4c.6 0 1.1-.2 1.5-.5.4-.3.6-.7.6-1.2v-3.4c0-.5-.2-.9-.6-1.2-.4-.3-.9-.5-1.5-.5s-1.1.2-1.5.6c-.4.4-.6 1-.6 1.7v2c0 .7.2 1.3.6 1.7.4.5.9.8 1.5.8zM-3598.3 1463.9c-.9 0-1.7-.1-2.4-.4s-1.3-.7-1.7-1.2-.8-1.2-1.1-1.9c-.2-.7-.4-1.6-.4-2.5 0-.9.1-1.7.4-2.5.2-.7.6-1.4 1-1.9s1-.9 1.7-1.2c.7-.3 1.4-.4 2.3-.4 1 0 1.8.2 2.5.5s1.2.8 1.7 1.3c.4.5.7 1.2.9 1.9.2.7.3 1.5.3 2.2v1h-7.4v.2c0 .8.2 1.4.6 1.8.4.4 1.1.7 1.9.7.7 0 1.2-.1 1.6-.4.4-.3.8-.6 1.2-1l1.6 2c-.5.6-1.2 1.1-2 1.4-.7.2-1.6.4-2.7.4zm0-9.7c-.7 0-1.2.2-1.6.6-.4.4-.6 1-.6 1.7v.2h4v-.2c0-.7-.2-1.3-.5-1.7s-.7-.6-1.3-.6zM-3590.7 1463.6v-11.5h3.3v2.5h.1l.3-.9c.1-.3.3-.6.6-.8.2-.2.5-.4.9-.6s.7-.2 1.2-.2h.6v3h-.8c-1 0-1.7.1-2.1.4-.5.2-.7.7-.7 1.4v6.8h-3.4z"/><circle class="st3" cx="-1565.8" cy="2401.9" r="26.4"/><circle cx="-1652" cy="2401.9" r="26.4" fill="#cc2e3d"/><circle class="st1" cx="-1738.1" cy="2401.9" r="26.4"/><circle cx="-1221.4" cy="2401.9" r="26.4" fill="#bccdce"/><circle cx="-1307.5" cy="2401.9" r="26.4" fill="#c7e5e5"/><circle cx="-1393.6" cy="2401.9" r="26.4" fill="#85acb0"/><circle cx="-1049.2" cy="2401.9" r="26.4" fill="#e1f4f3"/><circle cx="-1135.3" cy="2401.9" r="26.4" fill="#e5e5e5"/><circle class="st11" cx="-1479.7" cy="2401.9" r="26.4"/><g><path class="st1" d="M-309.7 2783.6h1160c22.1 0 40 17.9 40 40v240c0 22.1-17.9 40-40 40h-1160c-22.1 0-40-17.9-40-40v-240c0-22.1 17.9-40 40-40z"/><path class="st2" d="M-18 2993.6l-31.5-97.7H-28l14.6 46.9 7.7 30.7h.4l7.4-30.7 14.6-46.9h20.9l-31.8 97.7H-18zM59.5 2912.3c-4.2 0-7.3-1-9.2-2.9-1.9-1.9-2.9-4.4-2.9-7.3v-3.1c0-3 1-5.4 2.9-7.4 1.9-1.9 5-2.9 9.2-2.9 4.2 0 7.3 1 9.2 2.9 1.9 1.9 2.9 4.4 2.9 7.4v3.1c0 3-1 5.4-2.9 7.3-1.9 1.9-5 2.9-9.2 2.9zm-10.3 7.8h20.7v73.5H49.2v-73.5zM114.1 2995.3c-7.1 0-13.1-1.1-17.9-3.4-4.9-2.3-9.2-5.5-13-9.7l12.2-12.3c2.6 2.9 5.5 5.2 8.7 6.9 3.2 1.7 6.8 2.5 10.8 2.5 4.1 0 7-.6 8.5-1.9 1.6-1.3 2.4-3 2.4-5.1 0-3.5-2.5-5.5-7.4-6.2l-8-1c-16.5-2.1-24.8-9.6-24.8-22.7 0-3.5.7-6.8 2-9.7 1.4-2.9 3.3-5.5 5.7-7.6 2.5-2.1 5.5-3.7 9-4.9 3.5-1.2 7.4-1.8 11.8-1.8 3.8 0 7.2.3 10.2.8 2.9.5 5.6 1.3 7.8 2.2 2.3 1 4.4 2.2 6.3 3.6 1.9 1.4 3.8 3.1 5.7 4.8l-11.9 12.2c-2.3-2.3-5-4.2-7.9-5.5-2.9-1.4-6-2-9-2-3.5 0-6.1.6-7.6 1.7s-2.2 2.6-2.2 4.5c0 2 .5 3.5 1.6 4.6 1.1 1.1 3.1 1.8 6.1 2.3l8.3 1.1c16.1 2.1 24.2 9.5 24.2 22.1 0 3.5-.7 6.8-2.2 9.8-1.5 3-3.6 5.6-6.4 7.8-2.8 2.2-6.1 3.9-9.9 5.1-4 1.2-8.3 1.8-13.1 1.8zM170.1 2912.3c-4.2 0-7.3-1-9.2-2.9-1.9-1.9-2.9-4.4-2.9-7.3v-3.1c0-3 1-5.4 2.9-7.4 1.9-1.9 5-2.9 9.2-2.9 4.2 0 7.3 1 9.2 2.9 1.9 1.9 2.9 4.4 2.9 7.4v3.1c0 3-1 5.4-2.9 7.3-1.9 1.9-5 2.9-9.2 2.9zm-10.3 7.8h20.7v73.5h-20.7v-73.5zM225.6 2993.6c-7.2 0-12.6-1.8-16.3-5.5-3.7-3.6-5.5-9-5.5-16v-36h-10.4V2920h5.2c2.8 0 4.7-.7 5.7-2 1-1.4 1.5-3.3 1.5-5.8v-12h18.6v19.9H239v16.1h-14.6v41.3h13.4v16.1h-12.2zM287.6 2895.9h36.8c6.4 0 12.3 1 17.6 3.1 5.3 2.1 9.8 5.1 13.6 9.2 3.7 4.1 6.6 9.1 8.7 15.3 2.1 6.1 3.1 13.2 3.1 21.3 0 8.1-1 15.2-3.1 21.3-2.1 6.1-4.9 11.2-8.7 15.3-3.7 4.1-8.3 7.1-13.6 9.2-5.3 2.1-11.2 3.1-17.6 3.1h-36.8v-97.8zm36.8 78.8c6.3 0 11.3-1.8 15-5.3s5.5-9.2 5.5-17.1v-15.1c0-7.8-1.8-13.5-5.5-17.1-3.6-3.5-8.6-5.3-15-5.3h-15.5v59.9h15.5zM384.1 2890h20.7v42.4h.7c1-4.1 3.4-7.5 7.1-10.1 3.7-2.6 7.9-3.9 12.7-3.9 9.3 0 16.4 3.3 21.1 9.8s7.1 16.1 7.1 28.6-2.4 22.1-7.1 28.6-11.8 9.9-21.1 9.9c-2.4 0-4.7-.3-6.9-1-2.1-.7-4.1-1.7-5.8-2.9-1.7-1.3-3.2-2.8-4.4-4.5-1.2-1.7-2.1-3.6-2.7-5.5h-.7v12.3h-20.7V2890zm34.3 88.5c3.9 0 7.2-1.4 9.7-4.1 2.6-2.8 3.8-6.5 3.8-11.1v-12.7c0-4.7-1.3-8.4-3.8-11.1-2.6-2.8-5.8-4.1-9.7-4.1s-7.2 1-9.7 2.9c-2.6 1.9-3.9 4.6-3.9 7.9v21.7c0 3.4 1.3 6 3.9 7.9 2.5 1.8 5.7 2.7 9.7 2.7zM499 2995.3c-5.4 0-10.2-.9-14.5-2.7-4.2-1.8-7.8-4.3-10.8-7.7s-5.2-7.4-6.8-12.2c-1.6-4.8-2.4-10.1-2.4-16s.8-11.2 2.4-16c1.6-4.8 3.8-8.8 6.8-12.1s6.5-5.9 10.8-7.6c4.2-1.8 9.1-2.7 14.5-2.7s10.2.9 14.5 2.7c4.2 1.8 7.8 4.3 10.8 7.6s5.2 7.3 6.8 12.1c1.6 4.8 2.4 10.1 2.4 16s-.8 11.2-2.4 16c-1.6 4.8-3.8 8.8-6.8 12.2s-6.5 5.9-10.8 7.7c-4.3 1.8-9.1 2.7-14.5 2.7zm0-16.4c4.1 0 7.3-1.3 9.5-3.8s3.4-6.1 3.4-10.8v-15c0-4.7-1.1-8.3-3.4-10.8s-5.4-3.8-9.5-3.8-7.3 1.3-9.5 3.8-3.4 6.1-3.4 10.8v15c0 4.7 1.1 8.3 3.4 10.8 2.2 2.6 5.4 3.8 9.5 3.8zM573.9 2993.6c-7.2 0-12.6-1.8-16.3-5.5-3.7-3.6-5.5-9-5.5-16v-36h-10.4V2920h5.2c2.8 0 4.7-.7 5.7-2 1-1.4 1.5-3.3 1.5-5.8v-12h18.6v19.9h14.6v16.1h-14.6v41.3h13.4v16.1h-12.2z"/></g><g><path class="st11" d="M-1565.3 2680.8v-9.8h6.3v1.4h-4.7v2.7h4.2v1.4h-4.2v2.9h4.7v1.4h-6.3zM-1557.9 2680.8l2.6-3.7-2.5-3.6h1.8l1.6 2.5 1.7-2.5h1.6l-2.5 3.6 2.5 3.7h-1.8l-1.7-2.6-1.8 2.6h-1.5zM-1549.7 2673.6h1.5v1.2h.1c.2-.4.4-.8.8-1s.8-.4 1.3-.4c.9 0 1.6.3 2.1 1s.8 1.6.8 2.8-.3 2.1-.8 2.8-1.2 1-2.1 1c-.5 0-.9-.1-1.3-.4-.4-.2-.6-.6-.8-1h-.1v4h-1.5v-10zm3.2 6.1c.5 0 1-.2 1.3-.5s.5-.8.5-1.4v-1.3c0-.6-.2-1-.5-1.4s-.7-.5-1.3-.5c-.5 0-.9.1-1.2.3-.3.2-.5.5-.5.9v2.5c0 .4.2.7.5.9.4.4.8.5 1.2.5zM-1538.5 2681c-.5 0-1-.1-1.4-.3-.4-.2-.8-.4-1-.8-.3-.3-.5-.7-.7-1.2-.2-.5-.2-1-.2-1.6 0-.6.1-1.1.2-1.6.2-.5.4-.9.7-1.2s.6-.6 1-.8c.4-.2.9-.3 1.4-.3.5 0 1 .1 1.4.3s.7.4 1 .8c.3.3.5.7.6 1.2.1.4.2.9.2 1.4v.6h-5v.2c0 .6.2 1 .5 1.4.3.4.8.5 1.4.5.4 0 .8-.1 1.1-.3.3-.2.6-.5.8-.8l.9.9c-.3.4-.7.8-1.2 1.1s-1 .5-1.7.5zm0-6.4c-.3 0-.5 0-.7.1-.2.1-.4.2-.6.4-.2.2-.3.4-.4.6s-.1.5-.1.8v.1h3.4v-.1c0-.6-.1-1-.4-1.4-.3-.3-.7-.5-1.2-.5zM-1533.6 2680.8v-7.3h1.5v1.4h.1c.1-.4.3-.7.6-1 .3-.3.8-.4 1.4-.4h.4v1.5h-.6c-.6 0-1.1.1-1.4.3-.3.2-.5.5-.5.9v4.6h-1.5zM-1527.5 2672.3c-.3 0-.5-.1-.7-.2s-.2-.3-.2-.6v-.2c0-.2.1-.4.2-.6.1-.1.4-.2.7-.2s.5.1.7.2c.1.1.2.3.2.6v.2c0 .2-.1.4-.2.6s-.3.2-.7.2zm-.7 1.3h1.5v7.3h-1.5v-7.3zM-1521.7 2681c-.5 0-1-.1-1.4-.3-.4-.2-.8-.4-1-.8-.3-.3-.5-.7-.7-1.2-.2-.5-.2-1-.2-1.6 0-.6.1-1.1.2-1.6.2-.5.4-.9.7-1.2.3-.3.6-.6 1-.8.4-.2.9-.3 1.4-.3.5 0 1 .1 1.4.3.4.2.7.4 1 .8.3.3.5.7.6 1.2.1.4.2.9.2 1.4v.6h-5v.2c0 .6.2 1 .5 1.4.3.4.8.5 1.4.5.4 0 .8-.1 1.1-.3.3-.2.6-.5.8-.8l.9.9c-.3.4-.7.8-1.2 1.1-.4.4-1 .5-1.7.5zm0-6.4c-.3 0-.5 0-.7.1-.2.1-.4.2-.6.4-.2.2-.3.4-.4.6s-.1.5-.1.8v.1h3.4v-.1c0-.6-.1-1-.4-1.4s-.7-.5-1.2-.5zM-1516.7 2680.8v-7.3h1.5v1.2h.1c.2-.4.4-.7.7-1 .3-.3.8-.4 1.3-.4.7 0 1.3.2 1.7.7s.6 1.2.6 2.1v4.6h-1.5v-4.4c0-1.1-.5-1.7-1.4-1.7-.2 0-.4 0-.6.1-.2.1-.4.1-.5.2-.1.1-.3.2-.4.4-.1.2-.1.3-.1.6v4.9h-1.4zM-1505.8 2681c-.5 0-1-.1-1.4-.3-.4-.2-.8-.4-1-.8-.3-.3-.5-.7-.6-1.2-.1-.5-.2-1-.2-1.6 0-.6.1-1.1.2-1.6s.4-.9.6-1.2c.3-.3.6-.6 1-.8.4-.2.9-.3 1.4-.3.7 0 1.3.2 1.8.5s.8.8 1 1.3l-1.3.6c-.1-.3-.3-.6-.5-.8-.3-.2-.6-.3-1-.3-.6 0-1 .2-1.3.5-.3.3-.4.8-.4 1.4v1.3c0 .6.1 1 .4 1.4.3.3.7.5 1.3.5.4 0 .8-.1 1.1-.3.3-.2.5-.5.6-.9l1.2.6c-.2.6-.6 1.1-1.1 1.4-.5.4-1.1.6-1.8.6zM-1498.7 2681c-.5 0-1-.1-1.4-.3-.4-.2-.8-.4-1-.8-.3-.3-.5-.7-.7-1.2-.2-.5-.2-1-.2-1.6 0-.6.1-1.1.2-1.6s.4-.9.7-1.2.6-.6 1-.8c.4-.2.9-.3 1.4-.3.5 0 1 .1 1.4.3.4.2.7.4 1 .8.3.3.5.7.6 1.2.1.4.2.9.2 1.4v.6h-5v.2c0 .6.2 1 .5 1.4.3.4.8.5 1.4.5.4 0 .8-.1 1.1-.3.3-.2.6-.5.8-.8l.9.9c-.3.4-.7.8-1.2 1.1-.4.4-1 .5-1.7.5zm0-6.4c-.3 0-.5 0-.7.1-.2.1-.4.2-.6.4s-.3.4-.4.6-.1.5-.1.8v.1h3.4v-.1c0-.6-.1-1-.4-1.4s-.7-.5-1.2-.5zM-1487.6 2681c-.5 0-1-.1-1.4-.3-.4-.2-.8-.4-1.1-.8-.3-.3-.5-.7-.7-1.2-.2-.5-.2-1-.2-1.6 0-.6.1-1.1.2-1.6.2-.5.4-.9.7-1.2s.6-.6 1.1-.8c.4-.2.9-.3 1.4-.3s1 .1 1.4.3c.4.2.8.4 1.1.8s.5.7.7 1.2c.2.5.2 1 .2 1.6 0 .6-.1 1.1-.2 1.6-.2.5-.4.9-.7 1.2-.3.3-.6.6-1.1.8-.4.2-.9.3-1.4.3zm0-1.3c.5 0 .9-.2 1.3-.5.3-.3.5-.8.5-1.4v-1.2c0-.6-.2-1.1-.5-1.4s-.7-.5-1.3-.5c-.5 0-.9.2-1.3.5-.3.3-.5.8-.5 1.4v1.2c0 .6.2 1.1.5 1.4.3.4.8.5 1.3.5zM-1478.2 2679.6c-.1.2-.2.4-.3.5-.1.2-.2.3-.4.4l-.6.3c-.2.1-.5.1-.8.1-.8 0-1.3-.2-1.8-.7-.4-.5-.6-1.2-.6-2.1v-4.6h1.5v4.4c0 1.1.5 1.7 1.4 1.7.2 0 .4 0 .6-.1.2-.1.4-.1.5-.2.1-.1.3-.2.4-.4.1-.2.1-.3.1-.6v-4.9h1.5v7.3h-1.5v-1.1zM-1474.5 2680.8v-7.3h1.5v1.4h.1c.1-.4.3-.7.6-1 .3-.3.8-.4 1.4-.4h.4v1.5h-.6c-.6 0-1.1.1-1.4.3-.3.2-.5.5-.5.9v4.6h-1.5zM-1465.8 2680.8v-7.3h1.5v1.2h.1c.2-.4.4-.7.7-1 .3-.3.8-.4 1.3-.4.7 0 1.3.2 1.7.7.4.5.6 1.2.6 2.1v4.6h-1.5v-4.4c0-1.1-.5-1.7-1.4-1.7-.2 0-.4 0-.6.1-.2.1-.4.1-.5.2-.1.1-.3.2-.4.4-.1.2-.1.3-.1.6v4.9h-1.4zM-1454.8 2681c-.5 0-1-.1-1.4-.3-.4-.2-.8-.4-1-.8-.3-.3-.5-.7-.7-1.2-.2-.5-.2-1-.2-1.6 0-.6.1-1.1.2-1.6s.4-.9.7-1.2.6-.6 1-.8c.4-.2.9-.3 1.4-.3.5 0 1 .1 1.4.3.4.2.7.4 1 .8.3.3.5.7.6 1.2.1.4.2.9.2 1.4v.6h-5v.2c0 .6.2 1 .5 1.4.3.4.8.5 1.4.5.4 0 .8-.1 1.1-.3.3-.2.6-.5.8-.8l.9.9c-.3.4-.7.8-1.2 1.1-.4.4-1 .5-1.7.5zm0-6.4c-.3 0-.5 0-.7.1-.2.1-.4.2-.6.4s-.3.4-.4.6-.1.5-.1.8v.1h3.4v-.1c0-.6-.1-1-.4-1.4s-.7-.5-1.2-.5zM-1450.7 2673.6h1.5l.7 3.1.7 2.8.8-2.8.9-3.1h1.4l.9 3.1.8 2.8.6-2.8.8-3.1h1.4l-2 7.3h-1.7l-1-3.3-.6-2-.6 2-1 3.3h-1.7l-1.9-7.3zM-1435.5 2673.6h1.5v1.2h.1c.2-.4.4-.8.8-1s.8-.4 1.3-.4c.9 0 1.6.3 2.1 1s.8 1.6.8 2.8-.3 2.1-.8 2.8-1.2 1-2.1 1c-.5 0-.9-.1-1.3-.4-.4-.2-.6-.6-.8-1h-.1v4h-1.5v-10zm3.2 6.1c.5 0 1-.2 1.3-.5s.5-.8.5-1.4v-1.3c0-.6-.2-1-.5-1.4s-.7-.5-1.3-.5c-.5 0-.9.1-1.2.3s-.5.5-.5.9v2.5c0 .4.2.7.5.9.4.4.7.5 1.2.5zM-1425.6 2680.8c-.5 0-.9-.1-1.2-.4-.3-.3-.4-.6-.4-1.1v-8.8h1.5v9.1h1v1.2h-.9zM-1417.9 2680.8c-.4 0-.7-.1-.9-.3s-.3-.5-.4-.9h-.1c-.1.5-.4.8-.8 1-.4.2-.8.3-1.4.3-.8 0-1.3-.2-1.7-.6s-.6-.9-.6-1.6c0-.7.3-1.3.8-1.6.5-.4 1.3-.5 2.3-.5h1.3v-.6c0-.4-.1-.8-.4-1-.2-.2-.6-.4-1.1-.4-.4 0-.8.1-1.1.3-.3.2-.5.4-.7.7l-.9-.8c.2-.4.6-.7 1-1 .4-.3 1-.4 1.7-.4.9 0 1.7.2 2.2.7s.8 1.1.8 1.9v3.7h.8v1.2h-.8zm-3-1c.5 0 .9-.1 1.2-.3.3-.2.5-.5.5-.8v-1h-1.3c-1.1 0-1.6.3-1.6 1v.3c0 .3.1.6.3.7.2.1.5.1.9.1zM-1413.5 2680.8c-.5 0-.9-.1-1.2-.4-.3-.3-.4-.7-.4-1.2v-4.5h-1.1v-1.2h.6c.3 0 .4-.1.5-.2.1-.1.1-.3.1-.5v-1.3h1.4v2h1.5v1.2h-1.5v4.8h1.4v1.2h-1.3zM-1410.1 2674.8h-1.1v-1.2h1.1v-1.2c0-.6.2-1 .5-1.4.3-.3.8-.5 1.4-.5h1.2v1.2h-1.5v1.8h1.5v1.2h-1.5v6h-1.5v-5.9zM-1403 2681c-.5 0-1-.1-1.4-.3-.4-.2-.8-.4-1.1-.8-.3-.3-.5-.7-.7-1.2-.2-.5-.2-1-.2-1.6 0-.6.1-1.1.2-1.6.2-.5.4-.9.7-1.2s.6-.6 1.1-.8c.4-.2.9-.3 1.4-.3s1 .1 1.4.3c.4.2.8.4 1.1.8s.5.7.7 1.2c.2.5.2 1 .2 1.6 0 .6-.1 1.1-.2 1.6-.2.5-.4.9-.7 1.2-.3.3-.6.6-1.1.8-.4.2-.9.3-1.4.3zm0-1.3c.5 0 .9-.2 1.3-.5.3-.3.5-.8.5-1.4v-1.2c0-.6-.2-1.1-.5-1.4s-.7-.5-1.3-.5c-.5 0-.9.2-1.3.5-.3.3-.5.8-.5 1.4v1.2c0 .6.2 1.1.5 1.4.4.4.8.5 1.3.5zM-1397.9 2680.8v-7.3h1.5v1.4h.1c.1-.4.3-.7.6-1 .3-.3.8-.4 1.4-.4h.4v1.5h-.6c-.6 0-1.1.1-1.4.3-.3.2-.5.5-.5.9v4.6h-1.5zM-1392.6 2680.8v-7.3h1.5v1.2h.1c.1-.2.2-.4.3-.5s.2-.3.4-.4c.2-.1.3-.2.5-.3.2-.1.5-.1.7-.1.5 0 .9.1 1.3.4.4.2.7.6.8 1.1.1-.4.4-.8.8-1s.9-.4 1.4-.4c.7 0 1.3.2 1.7.7s.6 1.2.6 2.1v4.6h-1.5v-4.4c0-.6-.1-1-.3-1.3-.2-.3-.6-.4-1-.4-.2 0-.4 0-.6.1-.2.1-.3.1-.5.2-.1.1-.2.2-.3.4-.1.2-.1.3-.1.5v4.9h-1.5v-4.4c0-1.1-.4-1.7-1.3-1.7-.2 0-.4 0-.6.1-.2.1-.3.1-.5.2-.1.1-.3.2-.3.4-.1.2-.1.3-.1.5v4.9h-1.5z"/></g><g><path class="st1" d="M-1358.7 2664h87.5c1.7 0 3 1.4 3 3v18.1c0 1.7-1.4 3-3 3h-87.5c-1.7 0-3-1.4-3-3V2667c0-1.6 1.3-3 3-3z"/><path class="st2" d="M-1336.7 2679.9l-2.4-7.4h1.6l1.1 3.5.6 2.3.6-2.3 1.1-3.5h1.6l-2.4 7.4h-1.8zM-1330.8 2673.8c-.3 0-.5-.1-.7-.2-.1-.1-.2-.3-.2-.6v-.2c0-.2.1-.4.2-.6s.4-.2.7-.2c.3 0 .5.1.7.2s.2.3.2.6v.2c0 .2-.1.4-.2.6-.2.1-.4.2-.7.2zm-.8.5h1.6v5.5h-1.6v-5.5zM-1326.7 2680c-.5 0-1-.1-1.4-.3-.4-.2-.7-.4-1-.7l.9-.9c.2.2.4.4.7.5.2.1.5.2.8.2.3 0 .5 0 .6-.1.1-.1.2-.2.2-.4 0-.3-.2-.4-.6-.5l-.6-.1c-1.2-.2-1.9-.7-1.9-1.7 0-.3.1-.5.2-.7.1-.2.2-.4.4-.6.2-.2.4-.3.7-.4.3-.1.6-.1.9-.1.3 0 .5 0 .8.1.2 0 .4.1.6.2.2.1.3.2.5.3s.3.2.4.4l-.9.9c-.2-.2-.4-.3-.6-.4-.2-.1-.4-.2-.7-.2-.3 0-.5 0-.6.1-.1.1-.2.2-.2.3 0 .1 0 .3.1.3s.2.1.5.2l.6.1c1.2.2 1.8.7 1.8 1.7 0 .3-.1.5-.2.7s-.3.4-.5.6c-.2.2-.5.3-.8.4 0 .1-.4.1-.7.1zM-1322.5 2673.8c-.3 0-.5-.1-.7-.2-.1-.1-.2-.3-.2-.6v-.2c0-.2.1-.4.2-.6s.4-.2.7-.2c.3 0 .5.1.7.2s.2.3.2.6v.2c0 .2-.1.4-.2.6-.2.1-.4.2-.7.2zm-.8.5h1.6v5.5h-1.6v-5.5zM-1318.3 2679.9c-.5 0-1-.1-1.2-.4s-.4-.7-.4-1.2v-2.7h-.8v-1.2h.4c.2 0 .4-.1.4-.2.1-.1.1-.2.1-.4v-.9h1.4v1.5h1.1v1.2h-1.1v3.1h1v1.2h-.9zM-1313.6 2672.5h2.8c.5 0 .9.1 1.3.2.4.2.7.4 1 .7.3.3.5.7.7 1.2.2.5.2 1 .2 1.6 0 .6-.1 1.2-.2 1.6-.2.5-.4.8-.7 1.2-.3.3-.6.5-1 .7-.4.2-.8.2-1.3.2h-2.8v-7.4zm2.7 6c.5 0 .9-.1 1.1-.4.3-.3.4-.7.4-1.3v-1.1c0-.6-.1-1-.4-1.3-.3-.3-.7-.4-1.1-.4h-1.2v4.5h1.2zM-1306.4 2672.1h1.6v3.2h.1c.1-.3.3-.6.5-.8s.6-.3 1-.3c.7 0 1.2.2 1.6.7.4.5.5 1.2.5 2.2 0 .9-.2 1.7-.5 2.2-.4.5-.9.7-1.6.7-.2 0-.4 0-.5-.1s-.3-.1-.4-.2l-.3-.3c-.1-.1-.2-.3-.2-.4h-.1v.9h-1.6v-7.8zm2.6 6.7c.3 0 .5-.1.7-.3.2-.2.3-.5.3-.8v-1c0-.4-.1-.6-.3-.8-.2-.2-.4-.3-.7-.3s-.5.1-.7.2c-.2.1-.3.3-.3.6v1.6c0 .3.1.5.3.6.2.1.4.2.7.2zM-1297.7 2680c-.4 0-.8-.1-1.1-.2-.3-.1-.6-.3-.8-.6-.2-.3-.4-.6-.5-.9-.1-.4-.2-.8-.2-1.2 0-.4.1-.8.2-1.2.1-.4.3-.7.5-.9s.5-.4.8-.6c.3-.1.7-.2 1.1-.2s.8.1 1.1.2c.3.1.6.3.8.6s.4.6.5.9c.1.4.2.8.2 1.2 0 .4-.1.8-.2 1.2-.1.4-.3.7-.5.9-.2.3-.5.4-.8.6s-.7.2-1.1.2zm0-1.2c.3 0 .5-.1.7-.3.2-.2.3-.5.3-.8v-1.1c0-.4-.1-.6-.3-.8-.2-.2-.4-.3-.7-.3s-.5.1-.7.3c-.2.2-.3.5-.3.8v1.1c0 .4.1.6.3.8.2.2.4.3.7.3zM-1292 2679.9c-.5 0-1-.1-1.2-.4s-.4-.7-.4-1.2v-2.7h-.8v-1.2h.4c.2 0 .4-.1.4-.2.1-.1.1-.2.1-.4v-.9h1.4v1.5h1.1v1.2h-1.1v3.1h1v1.2h-.9z"/></g><path class="st2" d="M-3634.9 2387.6h75v75h-75z"/><g><path class="st2" d="M-3376.1 2680.8v-9.8h6.3v1.4h-4.7v2.7h4.2v1.4h-4.2v2.9h4.7v1.4h-6.3zM-3368.8 2680.8l2.6-3.7-2.5-3.6h1.8l1.6 2.5 1.7-2.5h1.6l-2.5 3.6 2.5 3.7h-1.8l-1.7-2.6-1.8 2.6h-1.5zM-3360.5 2673.6h1.5v1.2h.1c.2-.4.4-.8.8-1s.8-.4 1.3-.4c.9 0 1.6.3 2.1 1s.8 1.6.8 2.8-.3 2.1-.8 2.8-1.2 1-2.1 1c-.5 0-.9-.1-1.3-.4-.4-.2-.6-.6-.8-1h-.1v4h-1.5v-10zm3.1 6.1c.5 0 1-.2 1.3-.5s.5-.8.5-1.4v-1.3c0-.6-.2-1-.5-1.4s-.7-.5-1.3-.5c-.5 0-.9.1-1.2.3-.3.2-.5.5-.5.9v2.5c0 .4.2.7.5.9.4.4.8.5 1.2.5zM-3349.4 2681c-.5 0-1-.1-1.4-.3-.4-.2-.8-.4-1-.8-.3-.3-.5-.7-.7-1.2-.2-.5-.2-1-.2-1.6 0-.6.1-1.1.2-1.6s.4-.9.7-1.2c.3-.3.6-.6 1-.8.4-.2.9-.3 1.4-.3.5 0 1 .1 1.4.3.4.2.7.4 1 .8.3.3.5.7.6 1.2.1.4.2.9.2 1.4v.6h-5v.2c0 .6.2 1 .5 1.4.3.4.8.5 1.4.5.4 0 .8-.1 1.1-.3.3-.2.6-.5.8-.8l.9.9c-.3.4-.7.8-1.2 1.1-.4.4-1 .5-1.7.5zm0-6.4c-.3 0-.5 0-.7.1-.2.1-.4.2-.6.4s-.3.4-.4.6-.1.5-.1.8v.1h3.4v-.1c0-.6-.1-1-.4-1.4-.3-.3-.7-.5-1.2-.5zM-3344.5 2680.8v-7.3h1.5v1.4h.1c.1-.4.3-.7.6-1 .3-.3.8-.4 1.4-.4h.4v1.5h-.6c-.6 0-1.1.1-1.4.3-.3.2-.5.5-.5.9v4.6h-1.5zM-3338.3 2672.3c-.3 0-.5-.1-.7-.2s-.2-.3-.2-.6v-.2c0-.2.1-.4.2-.6.1-.1.4-.2.7-.2s.5.1.7.2c.1.1.2.3.2.6v.2c0 .2-.1.4-.2.6-.2.1-.4.2-.7.2zm-.8 1.3h1.5v7.3h-1.5v-7.3zM-3332.5 2681c-.5 0-1-.1-1.4-.3-.4-.2-.8-.4-1-.8-.3-.3-.5-.7-.7-1.2-.2-.5-.2-1-.2-1.6 0-.6.1-1.1.2-1.6s.4-.9.7-1.2c.3-.3.6-.6 1-.8.4-.2.9-.3 1.4-.3.5 0 1 .1 1.4.3.4.2.7.4 1 .8.3.3.5.7.6 1.2.1.4.2.9.2 1.4v.6h-5v.2c0 .6.2 1 .5 1.4.3.4.8.5 1.4.5.4 0 .8-.1 1.1-.3.3-.2.6-.5.8-.8l.9.9c-.3.4-.7.8-1.2 1.1-.5.4-1.1.5-1.7.5zm0-6.4c-.3 0-.5 0-.7.1-.2.1-.4.2-.6.4s-.3.4-.4.6-.1.5-.1.8v.1h3.4v-.1c0-.6-.1-1-.4-1.4-.3-.3-.7-.5-1.2-.5zM-3327.6 2680.8v-7.3h1.5v1.2h.1c.2-.4.4-.7.7-1 .3-.3.8-.4 1.3-.4.7 0 1.3.2 1.7.7.4.5.6 1.2.6 2.1v4.6h-1.5v-4.4c0-1.1-.5-1.7-1.4-1.7-.2 0-.4 0-.6.1-.2.1-.4.1-.5.2-.1.1-.3.2-.4.4-.1.2-.1.3-.1.6v4.9h-1.4zM-3316.7 2681c-.5 0-1-.1-1.4-.3-.4-.2-.8-.4-1-.8-.3-.3-.5-.7-.6-1.2-.1-.5-.2-1-.2-1.6 0-.6.1-1.1.2-1.6s.4-.9.6-1.2c.3-.3.6-.6 1-.8.4-.2.9-.3 1.4-.3.7 0 1.3.2 1.8.5s.8.8 1 1.3l-1.3.6c-.1-.3-.3-.6-.5-.8-.3-.2-.6-.3-1-.3-.6 0-1 .2-1.3.5-.3.3-.4.8-.4 1.4v1.3c0 .6.1 1 .4 1.4.3.3.7.5 1.3.5.4 0 .8-.1 1.1-.3.3-.2.5-.5.6-.9l1.2.6c-.2.6-.6 1.1-1.1 1.4-.5.4-1.1.6-1.8.6zM-3309.6 2681c-.5 0-1-.1-1.4-.3-.4-.2-.8-.4-1-.8-.3-.3-.5-.7-.7-1.2-.2-.5-.2-1-.2-1.6 0-.6.1-1.1.2-1.6s.4-.9.7-1.2.6-.6 1-.8c.4-.2.9-.3 1.4-.3.5 0 1 .1 1.4.3.4.2.7.4 1 .8.3.3.5.7.6 1.2.1.4.2.9.2 1.4v.6h-5v.2c0 .6.2 1 .5 1.4.3.4.8.5 1.4.5.4 0 .8-.1 1.1-.3.3-.2.6-.5.8-.8l.9.9c-.3.4-.7.8-1.2 1.1-.4.4-1 .5-1.7.5zm0-6.4c-.3 0-.5 0-.7.1-.2.1-.4.2-.6.4s-.3.4-.4.6-.1.5-.1.8v.1h3.4v-.1c0-.6-.1-1-.4-1.4s-.7-.5-1.2-.5zM-3298.5 2681c-.5 0-1-.1-1.4-.3-.4-.2-.8-.4-1.1-.8-.3-.3-.5-.7-.7-1.2-.2-.5-.2-1-.2-1.6 0-.6.1-1.1.2-1.6.2-.5.4-.9.7-1.2s.6-.6 1.1-.8c.4-.2.9-.3 1.4-.3s1 .1 1.4.3c.4.2.8.4 1.1.8s.5.7.7 1.2c.2.5.2 1 .2 1.6 0 .6-.1 1.1-.2 1.6-.2.5-.4.9-.7 1.2-.3.3-.6.6-1.1.8-.4.2-.9.3-1.4.3zm0-1.3c.5 0 .9-.2 1.3-.5.3-.3.5-.8.5-1.4v-1.2c0-.6-.2-1.1-.5-1.4s-.7-.5-1.3-.5c-.5 0-.9.2-1.3.5-.3.3-.5.8-.5 1.4v1.2c0 .6.2 1.1.5 1.4.4.4.8.5 1.3.5zM-3289 2679.6c-.1.2-.2.4-.3.5-.1.2-.2.3-.4.4l-.6.3c-.2.1-.5.1-.8.1-.8 0-1.3-.2-1.8-.7-.4-.5-.6-1.2-.6-2.1v-4.6h1.5v4.4c0 1.1.5 1.7 1.4 1.7.2 0 .4 0 .6-.1.2-.1.4-.1.5-.2.1-.1.3-.2.4-.4.1-.2.1-.3.1-.6v-4.9h1.5v7.3h-1.5v-1.1zM-3285.3 2680.8v-7.3h1.5v1.4h.1c.1-.4.3-.7.6-1 .3-.3.8-.4 1.4-.4h.4v1.5h-.6c-.6 0-1.1.1-1.4.3-.3.2-.5.5-.5.9v4.6h-1.5zM-3276.7 2680.8v-7.3h1.5v1.2h.1c.2-.4.4-.7.7-1 .3-.3.8-.4 1.3-.4.7 0 1.3.2 1.7.7.4.5.6 1.2.6 2.1v4.6h-1.5v-4.4c0-1.1-.5-1.7-1.4-1.7-.2 0-.4 0-.6.1-.2.1-.4.1-.5.2-.1.1-.3.2-.4.4-.1.2-.1.3-.1.6v4.9h-1.4zM-3265.7 2681c-.5 0-1-.1-1.4-.3-.4-.2-.8-.4-1-.8-.3-.3-.5-.7-.7-1.2-.2-.5-.2-1-.2-1.6 0-.6.1-1.1.2-1.6s.4-.9.7-1.2.6-.6 1-.8c.4-.2.9-.3 1.4-.3.5 0 1 .1 1.4.3.4.2.7.4 1 .8.3.3.5.7.6 1.2.1.4.2.9.2 1.4v.6h-5v.2c0 .6.2 1 .5 1.4.3.4.8.5 1.4.5.4 0 .8-.1 1.1-.3.3-.2.6-.5.8-.8l.9.9c-.3.4-.7.8-1.2 1.1-.4.4-1 .5-1.7.5zm0-6.4c-.3 0-.5 0-.7.1-.2.1-.4.2-.6.4s-.3.4-.4.6-.1.5-.1.8v.1h3.4v-.1c0-.6-.1-1-.4-1.4s-.7-.5-1.2-.5zM-3261.6 2673.6h1.5l.7 3.1.7 2.8.8-2.8.9-3.1h1.4l.9 3.1.8 2.8.6-2.8.8-3.1h1.4l-2 7.3h-1.7l-1-3.3-.6-2-.6 2-1 3.3h-1.7l-1.9-7.3zM-3246.3 2673.6h1.5v1.2h.1c.2-.4.4-.8.8-1s.8-.4 1.3-.4c.9 0 1.6.3 2.1 1s.8 1.6.8 2.8-.3 2.1-.8 2.8-1.2 1-2.1 1c-.5 0-.9-.1-1.3-.4-.4-.2-.6-.6-.8-1h-.1v4h-1.5v-10zm3.1 6.1c.5 0 1-.2 1.3-.5s.5-.8.5-1.4v-1.3c0-.6-.2-1-.5-1.4s-.7-.5-1.3-.5c-.5 0-.9.1-1.2.3s-.5.5-.5.9v2.5c0 .4.2.7.5.9.4.4.8.5 1.2.5zM-3236.5 2680.8c-.5 0-.9-.1-1.2-.4-.3-.3-.4-.6-.4-1.1v-8.8h1.5v9.1h1v1.2h-.9zM-3228.7 2680.8c-.4 0-.7-.1-.9-.3s-.3-.5-.4-.9h-.1c-.1.5-.4.8-.8 1-.4.2-.8.3-1.4.3-.8 0-1.3-.2-1.7-.6s-.6-.9-.6-1.6c0-.7.3-1.3.8-1.6.5-.4 1.3-.5 2.3-.5h1.3v-.6c0-.4-.1-.8-.4-1-.2-.2-.6-.4-1.1-.4-.4 0-.8.1-1.1.3-.3.2-.5.4-.7.7l-.9-.8c.2-.4.6-.7 1-1 .4-.3 1-.4 1.7-.4.9 0 1.7.2 2.2.7s.8 1.1.8 1.9v3.7h.8v1.2h-.8zm-3.1-1c.5 0 .9-.1 1.2-.3.3-.2.5-.5.5-.8v-1h-1.3c-1.1 0-1.6.3-1.6 1v.3c0 .3.1.6.3.7.2.1.5.1.9.1zM-3224.4 2680.8c-.5 0-.9-.1-1.2-.4-.3-.3-.4-.7-.4-1.2v-4.5h-1.1v-1.2h.6c.3 0 .4-.1.5-.2.1-.1.1-.3.1-.5v-1.3h1.4v2h1.5v1.2h-1.5v4.8h1.4v1.2h-1.3zM-3221 2674.8h-1.1v-1.2h1.1v-1.2c0-.6.2-1 .5-1.4.3-.3.8-.5 1.4-.5h1.2v1.2h-1.5v1.8h1.5v1.2h-1.5v6h-1.5v-5.9zM-3213.8 2681c-.5 0-1-.1-1.4-.3-.4-.2-.8-.4-1.1-.8-.3-.3-.5-.7-.7-1.2-.2-.5-.2-1-.2-1.6 0-.6.1-1.1.2-1.6.2-.5.4-.9.7-1.2s.6-.6 1.1-.8c.4-.2.9-.3 1.4-.3s1 .1 1.4.3c.4.2.8.4 1.1.8s.5.7.7 1.2c.2.5.2 1 .2 1.6 0 .6-.1 1.1-.2 1.6-.2.5-.4.9-.7 1.2-.3.3-.6.6-1.1.8-.5.2-.9.3-1.4.3zm0-1.3c.5 0 .9-.2 1.3-.5.3-.3.5-.8.5-1.4v-1.2c0-.6-.2-1.1-.5-1.4s-.7-.5-1.3-.5c-.5 0-.9.2-1.3.5-.3.3-.5.8-.5 1.4v1.2c0 .6.2 1.1.5 1.4.3.4.7.5 1.3.5zM-3208.8 2680.8v-7.3h1.5v1.4h.1c.1-.4.3-.7.6-1 .3-.3.8-.4 1.4-.4h.4v1.5h-.6c-.6 0-1.1.1-1.4.3-.3.2-.5.5-.5.9v4.6h-1.5zM-3203.4 2680.8v-7.3h1.5v1.2h.1c.1-.2.2-.4.3-.5s.2-.3.4-.4c.2-.1.3-.2.5-.3.2-.1.5-.1.7-.1.5 0 .9.1 1.3.4.4.2.7.6.8 1.1.1-.4.4-.8.8-1s.9-.4 1.4-.4c.7 0 1.3.2 1.7.7s.6 1.2.6 2.1v4.6h-1.5v-4.4c0-.6-.1-1-.3-1.3-.2-.3-.6-.4-1-.4-.2 0-.4 0-.6.1-.2.1-.3.1-.5.2-.1.1-.2.2-.3.4-.1.2-.1.3-.1.5v4.9h-1.5v-4.4c0-1.1-.4-1.7-1.3-1.7-.2 0-.4 0-.6.1-.2.1-.3.1-.5.2-.1.1-.3.2-.3.4-.1.2-.1.3-.1.5v4.9h-1.5z"/></g><g><path class="st1" d="M-3169.6 2664h87.5c1.7 0 3 1.4 3 3v18.1c0 1.7-1.4 3-3 3h-87.5c-1.7 0-3-1.4-3-3V2667c0-1.6 1.3-3 3-3z"/><path class="st2" d="M-3147.6 2679.9l-2.4-7.4h1.6l1.1 3.5.6 2.3.6-2.3 1.1-3.5h1.6l-2.4 7.4h-1.8zM-3141.7 2673.8c-.3 0-.5-.1-.7-.2-.1-.1-.2-.3-.2-.6v-.2c0-.2.1-.4.2-.6s.4-.2.7-.2c.3 0 .5.1.7.2s.2.3.2.6v.2c0 .2-.1.4-.2.6-.2.1-.4.2-.7.2zm-.8.5h1.6v5.5h-1.6v-5.5zM-3137.6 2680c-.5 0-1-.1-1.4-.3-.4-.2-.7-.4-1-.7l.9-.9c.2.2.4.4.7.5.2.1.5.2.8.2.3 0 .5 0 .6-.1.1-.1.2-.2.2-.4 0-.3-.2-.4-.6-.5l-.6-.1c-1.2-.2-1.9-.7-1.9-1.7 0-.3.1-.5.2-.7.1-.2.2-.4.4-.6.2-.2.4-.3.7-.4.3-.1.6-.1.9-.1.3 0 .5 0 .8.1.2 0 .4.1.6.2.2.1.3.2.5.3s.3.2.4.4l-.9.9c-.2-.2-.4-.3-.6-.4-.2-.1-.4-.2-.7-.2-.3 0-.5 0-.6.1-.1.1-.2.2-.2.3 0 .1 0 .3.1.3s.2.1.5.2l.6.1c1.2.2 1.8.7 1.8 1.7 0 .3-.1.5-.2.7s-.3.4-.5.6c-.2.2-.5.3-.8.4 0 .1-.4.1-.7.1zM-3133.4 2673.8c-.3 0-.5-.1-.7-.2-.1-.1-.2-.3-.2-.6v-.2c0-.2.1-.4.2-.6s.4-.2.7-.2c.3 0 .5.1.7.2s.2.3.2.6v.2c0 .2-.1.4-.2.6-.1.1-.4.2-.7.2zm-.8.5h1.6v5.5h-1.6v-5.5zM-3129.2 2679.9c-.5 0-1-.1-1.2-.4s-.4-.7-.4-1.2v-2.7h-.8v-1.2h.4c.2 0 .4-.1.4-.2.1-.1.1-.2.1-.4v-.9h1.4v1.5h1.1v1.2h-1.1v3.1h1v1.2h-.9zM-3124.5 2672.5h2.8c.5 0 .9.1 1.3.2.4.2.7.4 1 .7.3.3.5.7.7 1.2.2.5.2 1 .2 1.6 0 .6-.1 1.2-.2 1.6-.2.5-.4.8-.7 1.2-.3.3-.6.5-1 .7-.4.2-.8.2-1.3.2h-2.8v-7.4zm2.8 6c.5 0 .9-.1 1.1-.4.3-.3.4-.7.4-1.3v-1.1c0-.6-.1-1-.4-1.3-.3-.3-.7-.4-1.1-.4h-1.2v4.5h1.2zM-3117.2 2672.1h1.6v3.2h.1c.1-.3.3-.6.5-.8s.6-.3 1-.3c.7 0 1.2.2 1.6.7.4.5.5 1.2.5 2.2 0 .9-.2 1.7-.5 2.2-.4.5-.9.7-1.6.7-.2 0-.4 0-.5-.1s-.3-.1-.4-.2l-.3-.3c-.1-.1-.2-.3-.2-.4h-.1v.9h-1.6v-7.8zm2.5 6.7c.3 0 .5-.1.7-.3.2-.2.3-.5.3-.8v-1c0-.4-.1-.6-.3-.8-.2-.2-.4-.3-.7-.3s-.5.1-.7.2c-.2.1-.3.3-.3.6v1.6c0 .3.1.5.3.6.2.1.4.2.7.2zM-3108.6 2680c-.4 0-.8-.1-1.1-.2-.3-.1-.6-.3-.8-.6-.2-.3-.4-.6-.5-.9-.1-.4-.2-.8-.2-1.2 0-.4.1-.8.2-1.2.1-.4.3-.7.5-.9s.5-.4.8-.6c.3-.1.7-.2 1.1-.2s.8.1 1.1.2c.3.1.6.3.8.6s.4.6.5.9c.1.4.2.8.2 1.2 0 .4-.1.8-.2 1.2-.1.4-.3.7-.5.9-.2.3-.5.4-.8.6s-.7.2-1.1.2zm0-1.2c.3 0 .5-.1.7-.3.2-.2.3-.5.3-.8v-1.1c0-.4-.1-.6-.3-.8-.2-.2-.4-.3-.7-.3s-.5.1-.7.3c-.2.2-.3.5-.3.8v1.1c0 .4.1.6.3.8.2.2.4.3.7.3zM-3102.9 2679.9c-.5 0-1-.1-1.2-.4s-.4-.7-.4-1.2v-2.7h-.8v-1.2h.4c.2 0 .4-.1.4-.2.1-.1.1-.2.1-.4v-.9h1.4v1.5h1.1v1.2h-1.1v3.1h1v1.2h-.9z"/></g><path class="st2" d="M-3393.7 2430.6h32v32h-32zM-3078.9 2442.6h16v16h-16z"/><g><path class="st2" d="M219.7 44.5H37.5c-.5 0-1 .2-1.4.5l-6.5 5.6c-.4.3-.9.5-1.4.5h-9.5c-.5 0-1-.2-1.4-.5L10.8 45c-.4-.3-.9-.5-1.4-.5H4.7c-2.5 0-4.5-2-4.5-4.5V4.5C0 2 2 0 4.5 0h4.7c.5 0 1 .2 1.4.5l6.5 5.6c.4.3.9.5 1.4.5H28c.5 0 1-.2 1.4-.5L35.9.5C36.5.2 37 0 37.6 0h188.8v8.2c0 .5-.2 1-.5 1.4l-5.6 6.5c-.3.4-.5.9-.5 1.4V27c0 .5.2 1 .5 1.4l5.6 6.5c.3.4.5.9.5 1.4v8l-6.7.2z"/></g><g id="logo_x2F_platforms_x2F_DBot_4_" transform="translate(16 8)"><g id="_x33_-icons_x2F_2-binarybot_4_"><g id="ic_platform-binarybot_4_"><path id="Rectangle_8_" class="st3" d="M1.6 4.2H18c2.7 0 4.9 2.2 4.9 4.9v16.4c0 2.7-2.2 4.9-4.9 4.9H1.6c-2.7 0-4.9-2.2-4.9-4.9V9.1c0-2.7 2.2-4.9 4.9-4.9z"/><path id="Path_16_" class="st4" d="M7.9 15.1c.4 0 .7-.3.7-.7s-.3-.7-.7-.7c-.4 0-.7.3-.7.7 0 .2.1.4.2.5.2.1.3.2.5.2z"/><path id="Path_15_" class="st2" d="M17.4 16.8V13c0-2.2-1.8-4-4-4h-3.2v7.7h7.2z"/><path id="Path_14_" class="st2" d="M10.3 25.5h3.2c2.2 0 4-1.8 4-4v-3.8h-7.1v7.8z"/><path id="Path_13_" class="st2" d="M6.3 15.6c-1.2 0-2.2-.9-2.3-2.2 0-1.2.8-2.3 2-2.4 1.2-.2 2.3.7 2.6 1.9h.7V9.1H6.2c-2.2 0-4 1.8-4 4v8.5c0 2.2 1.8 4 4 4h3.2V13.7h-.8c-.2 1.1-1.1 1.9-2.3 1.9z"/><path id="Rectangle_7_" class="st4" d="M-3.3 4.2h26.2v26.2H-3.3z"/></g></g></g><g id="logo_x2F_platforms_x2F_DBot_1_" transform="translate(16 8)"><g id="_x33_-icons_x2F_2-binarybot_1_"><g id="ic_platform-binarybot_1_"><path id="Rectangle_2_" class="st3" d="M-67.1 1420.6h27.3c4.5 0 8.2 3.7 8.2 8.2v27.3c0 4.5-3.7 8.2-8.2 8.2h-27.3c-4.5 0-8.2-3.7-8.2-8.2v-27.3c.1-4.6 3.7-8.2 8.2-8.2z"/><path id="Path_7_" class="st4" d="M-56.5 1438.6c.6 0 1.2-.5 1.2-1.2s-.5-1.2-1.2-1.2-1.2.5-1.2 1.2c0 .3.1.6.3.8s.6.4.9.4z"/><path id="Path_6_" class="st2" d="M-40.8 1441.6v-6.3c0-3.6-3-6.6-6.6-6.6h-5.3v12.9h11.9z"/><path id="Path_5_" class="st2" d="M-52.6 1456h5.3c3.6 0 6.6-3 6.6-6.6v-6.3h-11.9v12.9z"/><path id="Path_4_" class="st2" d="M-59.2 1439.5c-2 0-3.7-1.6-3.9-3.6-.1-2 1.3-3.8 3.4-4.1 2-.3 3.9 1.1 4.3 3.1h1.2v-6.2h-5.3c-3.6 0-6.6 3-6.6 6.6v14.1c0 3.6 3 6.6 6.6 6.6h5.3v-19.6h-1.2c-.3 1.8-1.9 3.1-3.8 3.1z"/><path id="Rectangle_1_" class="st4" d="M-75.2 1420.6h43.7v43.7h-43.7z"/></g></g></g><g><path class="st11" d="M49.4 15.9c0-2.6 1.3-4 3.4-4 1.4 0 2.3.6 2.9 1.8l-1.4.7c-.2-.6-.6-1.1-1.4-1.1-1 0-1.6.7-1.6 1.9v1.2c0 1.2.6 1.9 1.6 1.9.8 0 1.3-.5 1.5-1.1l1.4.8c-.6 1.2-1.5 1.8-2.9 1.8-2.2 0-3.5-1.3-3.5-3.9zM56.4 16.8c0-1.9 1-3 2.7-3s2.7 1.2 2.7 3-1 3-2.7 3-2.7-1.2-2.7-3zm3.7.6v-1.2c0-.7-.4-1.1-1-1.1s-1 .4-1 1.1v1.2c0 .7.4 1.1 1 1.1s1-.4 1-1.1zM63 19.7v-5.8h1.6v1h.1c.2-.6.7-1.1 1.6-1.1 1.2 0 1.8.8 1.8 2.3v3.6h-1.6v-3.5c0-.7-.2-1.1-.8-1.1-.5 0-1 .3-1 .8v3.7H63zM69 18.8l1-1c.4.5.9.7 1.5.7s.9-.2.9-.5-.2-.4-.6-.5l-.6-.1c-1.3-.2-1.9-.7-1.9-1.8s.9-1.9 2.2-1.9c1.2 0 1.8.3 2.4.9l-.9 1c-.5-.3-1-.6-1.4-.6-.6 0-.8.2-.8.5s.1.5.6.5l.6.1c1.3.2 1.9.7 1.9 1.7 0 1.1-1 1.9-2.5 1.9-1 .1-1.8-.3-2.4-.9zM77 19.7c-1.1 0-1.7-.6-1.7-1.7v-2.8h-.8v-1.3h.4c.4 0 .6-.2.6-.6v-.9H77V14h1v1.3h-1.1v3.2H78v1.3h-1zM79.2 19.7v-5.8h1.6v1.3h.1c.1-.6.6-1.3 1.5-1.3h.3v1.5h-.4c-.9 0-1.4.2-1.4.9v3.4h-1.7zM87 18.7c-.3.6-.7 1.1-1.7 1.1-1.2 0-1.8-.8-1.8-2.3v-3.6h1.6v3.5c0 .7.2 1.1.8 1.1.5 0 1-.3 1-.8v-3.8h1.6v5.8H87v-1zM90 12.5v-.2c0-.5.3-.8.9-.8s.9.3.9.8v.2c0 .5-.3.8-.9.8s-.9-.4-.9-.8zm.2 1.4h1.6v5.8h-1.6v-5.8zM93.3 19.7v-5.8H95v1.3c.1-.6.6-1.3 1.5-1.3h.3v1.5h-.4c-.9 0-1.4.2-1.4.9v3.4h-1.7zM103.8 18.7c-.3.6-.7 1.1-1.7 1.1-1.2 0-1.8-.8-1.8-2.3v-3.6h1.6v3.5c0 .7.2 1.1.8 1.1.5 0 1-.3 1-.8v-3.8h1.6v5.8h-1.6v-1zM106.9 19.7v-5.8h1.6v1h.1c.2-.6.7-1.1 1.6-1.1.8 0 1.4.4 1.6 1.2.2-.6.9-1.2 1.8-1.2 1.1 0 1.7.8 1.7 2.3v3.6h-1.6v-3.5c0-.7-.3-1.1-.8-1.1s-1 .3-1 .8v3.7h-1.6v-3.5c0-.7-.3-1.1-.8-1.1s-1 .3-1 .8v3.7h-1.6zM119.3 11.5h1.6v3.3h.1c.2-.6.8-1.1 1.6-1.1 1.5 0 2.2 1.1 2.2 3 0 2-.8 3-2.2 3-.7 0-1.4-.5-1.6-1.1v1h-1.6v-8.1zm3.8 5.8v-1c0-.7-.5-1.2-1.1-1.2-.6 0-1.1.3-1.1.8v1.7c0 .5.5.8 1.1.8.7.1 1.1-.4 1.1-1.1zM125.7 16.8c0-1.9 1-3 2.7-3 1.7 0 2.7 1.2 2.7 3s-1 3-2.7 3c-1.7 0-2.7-1.2-2.7-3zm3.7.6v-1.2c0-.7-.4-1.1-1-1.1s-1 .4-1 1.1v1.2c0 .7.4 1.1 1 1.1s1-.4 1-1.1zM134.2 19.7c-1.1 0-1.7-.6-1.7-1.7v-2.8h-.8v-1.3h.4c.4 0 .6-.2.6-.6v-.9h1.5V14h1.1v1.3h-1.1v3.2h1.1v1.3h-1.1zM142.5 18.7c-.2.6-.9 1.1-1.6 1.1-1.5 0-2.2-1.1-2.2-3 0-2 .8-3 2.2-3 .7 0 1.4.5 1.6 1.1h.1v-3.3h1.6v8.1h-1.6v-1zm0-1.1v-1.7c0-.5-.5-.8-1.1-.8s-1.1.5-1.1 1.2v1c0 .7.5 1.2 1.1 1.2s1.1-.3 1.1-.9zM145.3 16.8c0-1.8 1-3 2.7-3 1.9 0 2.7 1.4 2.7 2.9v.5H147v.1c0 .8.4 1.2 1.3 1.2.7 0 1.1-.3 1.4-.7l.8 1c-.5.6-1.4 1-2.4 1-1.8 0-2.8-1.2-2.8-3zm1.7-.6l2 .1v-.1c0-.7-.3-1.2-1-1.2-.6 0-1 .4-1 1.2zM154.4 19.7v-5.8h1.6v1h.1c.2-.6.7-1.1 1.6-1.1 1.2 0 1.8.8 1.8 2.3v3.6h-1.6v-3.5c0-.7-.2-1.1-.8-1.1-.5 0-1 .3-1 .8v3.7h-1.7zM160.6 16.8c0-1.8 1-3 2.7-3 1.9 0 2.7 1.4 2.7 2.9v.5h-3.7v.1c0 .8.4 1.2 1.3 1.2.7 0 1.1-.3 1.4-.7l.8 1c-.5.6-1.4 1-2.4 1-1.8 0-2.8-1.2-2.8-3zm1.7-.6l2 .1v-.1c0-.7-.3-1.2-1-1.2-.6 0-1 .4-1 1.2zM169.4 22c-2 0-2.7-.5-2.7-1.3 0-.6.4-1 1.1-1.1v-.1c-.5-.1-.8-.5-.8-1 0-.6.5-.9 1.1-1-.7-.3-1-.9-1-1.6 0-1.2.8-1.9 2.5-1.9.4 0 .7 0 1 .1v-.2c0-.6.3-.9.9-.9h.9v1h-1.3v.1c.7.3 1 .9 1 1.7 0 1.2-.8 1.9-2.5 1.9-.4 0-.7 0-1-.1-.2.1-.3.3-.3.5 0 .3.2.4.7.4h1.7c1.4 0 2 .6 2 1.7-.2 1.1-.9 1.8-3.3 1.8zm.7-2.2h-2c-.1.1-.2.3-.2.5 0 .4.3.6 1.2.6h.7c.9 0 1.2-.2 1.2-.6 0-.3-.2-.5-.9-.5zm.3-4v-.1c0-.5-.3-.8-1-.8-.6 0-1 .3-1 .8v.1c0 .5.3.8 1 .8s1-.3 1-.8zM172.8 16.8c0-1.9 1-3 2.7-3s2.7 1.2 2.7 3-1 3-2.7 3-2.7-1.2-2.7-3zm3.7.6v-1.2c0-.7-.4-1.1-1-1.1s-1 .4-1 1.1v1.2c0 .7.4 1.1 1 1.1.7 0 1-.4 1-1.1zM179 16.8c0-1.8 1-3 2.7-3 1.2 0 2 .6 2.3 1.5l-1.3.6c-.1-.4-.4-.8-1-.8-.7 0-1 .5-1 1.2v1.1c0 .7.3 1.2 1 1.2.6 0 .9-.4 1.1-.9l1.3.5c-.4 1.1-1.2 1.6-2.3 1.6-1.8 0-2.8-1.2-2.8-3zM184.9 12.5v-.2c0-.5.3-.8.9-.8s.9.3.9.8v.2c0 .5-.3.8-.9.8s-.9-.4-.9-.8zm.2 1.4h1.6v5.8h-1.6v-5.8zM192.5 19.7c-.6 0-1-.4-1.1-1h-.1c-.2.7-.8 1.1-1.7 1.1-1.2 0-1.8-.7-1.8-1.7 0-1.2.9-1.8 2.5-1.8h.9V16c0-.6-.3-.9-1-.9-.6 0-1 .3-1.2.7l-1-.9c.5-.7 1.1-1.1 2.3-1.1 1.6 0 2.5.7 2.5 2.1v2.5h.5v1.3h-.8zm-1.3-1.8v-.7h-.8c-.6 0-1 .2-1 .6v.2c0 .4.3.6.8.6.6.1 1-.1 1-.7zM199.1 15.3l-1.3.6c-.1-.4-.4-.8-1-.8-.7 0-1 .5-1 1.2v1.1c0 .7.3 1.2 1 1.2.6 0 .9-.4 1.1-.9l1.3.5c-.4 1.1-1.2 1.6-2.2 1.6l-.1.5c.2 0 .4-.1.5-.1.4 0 .8.2.8.8 0 .7-.7 1-1.5 1s-1.2-.3-1.4-.5l.5-.6c.1.2.4.3.7.3.3 0 .5-.1.5-.3 0-.2-.1-.4-.8-.4h-.2l.2-.7c-1.3-.3-2.1-1.4-2.1-3 0-1.8 1-3 2.7-3 1.2 0 2 .5 2.3 1.5zM204.4 19.7c-.6 0-1-.4-1.1-1h-.1c-.2.7-.8 1.1-1.7 1.1-1.2 0-1.8-.7-1.8-1.7 0-1.2.9-1.8 2.5-1.8h.9V16c0-.6-.3-.9-1-.9-.6 0-1 .3-1.2.7l-1-.9c.5-.7 1.1-1.1 2.3-1.1 1.6 0 2.5.7 2.5 2.1v2.5h.5v1.3h-.8zm-2.1-6.9c-.3-.1-.6-.2-.9-.2-.3 0-.4.1-.6.3l-.6-.7c.3-.4.7-.7 1.3-.7.3 0 .6.1.8.2.3.1.6.2.9.2.3 0 .4-.1.6-.3l.6.7c-.3.4-.7.7-1.3.7-.2.1-.5 0-.8-.2zm.9 5.1v-.7h-.8c-.6 0-1 .2-1 .6v.2c0 .4.3.6.8.6.5.1 1-.1 1-.7zM206.1 16.8c0-1.9 1-3 2.7-3s2.7 1.2 2.7 3-1 3-2.7 3-2.7-1.2-2.7-3zm3.7.6v-1.2c0-.7-.4-1.1-1-1.1s-1 .4-1 1.1v1.2c0 .7.4 1.1 1 1.1s1-.4 1-1.1zM49.9 28.4h-.8v-1.3h.8v-.7c0-1.1.6-1.7 1.7-1.7h1.1V26h-1.2v1.1h3.7v5.8h-1.6v-4.5h-2.1v4.5h-1.6v-4.5zm3.5-2.7v-.2c0-.5.3-.8.9-.8s.9.3.9.8v.2c0 .5-.3.8-.9.8s-.9-.4-.9-.8zM56.3 30c0-1.8 1-3 2.7-3 1.2 0 2 .6 2.3 1.5L60 29c-.1-.4-.4-.8-1-.8-.7 0-1 .5-1 1.2v1.1c0 .7.3 1.2 1 1.2.6 0 .9-.4 1.1-.9l1.3.5C61 32.5 60.2 33 59 33c-1.7 0-2.7-1.2-2.7-3zM62 30c0-1.9 1-3 2.7-3 1.7 0 2.7 1.2 2.7 3s-1 3-2.7 3C63 33 62 31.8 62 30zm3.7.6v-1.2c0-.7-.4-1.1-1-1.1s-1 .4-1 1.1v1.2c0 .7.4 1.1 1 1.1s1-.4 1-1.1zM72 31.9c-.3.6-.7 1.1-1.7 1.1-1.2 0-1.8-.8-1.8-2.3v-3.6h1.6v3.5c0 .7.2 1.1.8 1.1.5 0 1-.3 1-.8v-3.8h1.6v5.8H72v-1zM77.7 32.9v-5.8h1.6v1h.1c.2-.6.7-1.1 1.6-1.1.8 0 1.4.4 1.6 1.2.2-.6.9-1.2 1.8-1.2 1.1 0 1.7.8 1.7 2.3v3.6h-1.6v-3.5c0-.7-.3-1.1-.8-1.1s-1 .3-1 .8v3.7h-1.6v-3.5c0-.7-.3-1.1-.8-1.1s-1 .3-1 .8v3.7h-1.6zM91.8 32.9c-.6 0-1-.4-1.1-1h-.1c-.2.7-.8 1.1-1.7 1.1-1.2 0-1.8-.7-1.8-1.7 0-1.2.9-1.8 2.5-1.8h.9v-.4c0-.6-.3-.9-1-.9-.6 0-1 .3-1.2.7l-1-.9c.5-.7 1.1-1.1 2.3-1.1 1.6 0 2.5.7 2.5 2.1v2.5h.5v1.3h-.8zm-1.3-1.8v-.7h-.8c-.6 0-1 .2-1 .6v.2c0 .4.3.6.8.6.6.1 1-.1 1-.7zM93.7 25.7v-.2c0-.5.3-.8.9-.8s.9.3.9.8v.2c0 .5-.3.8-.9.8s-.9-.4-.9-.8zm.1 1.4h1.6v5.8h-1.6v-5.8zM96.5 32l1-1c.4.5.9.7 1.5.7s.9-.2.9-.5-.2-.4-.6-.5l-.6-.1c-1.3-.2-1.9-.7-1.9-1.8s.9-1.9 2.2-1.9c1.2 0 1.8.3 2.4.9l-.9 1c-.4-.4-.8-.6-1.3-.6-.6 0-.8.2-.8.5s.1.5.6.5l.6.1c1.3.2 1.9.7 1.9 1.7 0 1.1-1 1.9-2.5 1.9-1.2.1-1.9-.3-2.5-.9zM104.6 32l1-1c.4.5.9.7 1.5.7s.9-.2.9-.5-.2-.4-.6-.5l-.6-.1c-1.3-.2-1.9-.7-1.9-1.8s.9-1.9 2.2-1.9c1.2 0 1.8.3 2.4.9l-.9 1c-.4-.4-.8-.6-1.3-.6-.6 0-.8.2-.8.5s.1.5.6.5l.6.1c1.3.2 1.9.7 1.9 1.7 0 1.1-1 1.9-2.5 1.9-1.2.1-1.9-.3-2.5-.9zM110.5 25.7v-.2c0-.5.3-.8.9-.8s.9.3.9.8v.2c0 .5-.3.8-.9.8s-.9-.4-.9-.8zm.1 1.4h1.6v5.8h-1.6v-5.8zM113.8 32.9v-5.8h1.6v1h.1c.2-.6.7-1.1 1.6-1.1.8 0 1.4.4 1.6 1.2.2-.6.9-1.2 1.8-1.2 1.1 0 1.7.8 1.7 2.3v3.6h-1.6v-3.5c0-.7-.3-1.1-.8-1.1s-1 .3-1 .8v3.7h-1.6v-3.5c0-.7-.3-1.1-.8-1.1s-1 .3-1 .8v3.7h-1.6zM123.6 27.1h1.6v1h.1c.2-.6.8-1.1 1.6-1.1 1.5 0 2.2 1.1 2.2 3 0 2-.8 3-2.2 3-.7 0-1.4-.5-1.6-1.1h-.1v3.2h-1.6v-8zm3.8 3.4v-1c0-.7-.5-1.2-1.1-1.2-.6 0-1.1.3-1.1.8v1.7c0 .5.5.8 1.1.8.6.1 1.1-.4 1.1-1.1zM131.9 32.9c-1.1 0-1.6-.6-1.6-1.6v-6.6h1.6v6.9h.7v1.3h-.7zM133.3 30c0-1.8 1-3 2.7-3 1.9 0 2.7 1.4 2.7 2.9v.5H135v.1c0 .8.4 1.2 1.3 1.2.7 0 1.1-.3 1.4-.7l.8 1c-.5.6-1.4 1-2.4 1-1.8 0-2.8-1.2-2.8-3zm1.6-.6l2 .1v-.1c0-.7-.3-1.2-1-1.2-.6 0-1 .4-1 1.2zM139.3 32l1-1c.4.5.9.7 1.5.7s.9-.2.9-.5-.2-.4-.6-.5l-.6-.1c-1.3-.2-1.9-.7-1.9-1.8s.9-1.9 2.2-1.9c1.2 0 1.8.3 2.4.9l-.9 1c-.4-.4-.8-.6-1.3-.6-.6 0-.8.2-.8.5s.1.5.6.5l.6.1c1.3.2 1.9.7 1.9 1.7 0 1.1-1 1.9-2.5 1.9-1.2.1-1.9-.3-2.5-.9zM147.6 30c0-1.8 1-3 2.7-3 1.9 0 2.7 1.4 2.7 2.9v.5h-3.7v.1c0 .8.4 1.2 1.3 1.2.7 0 1.1-.3 1.4-.7l.8 1c-.5.6-1.4 1-2.4 1-1.8 0-2.8-1.2-2.8-3zm1.7-.6l2 .1v-.1c0-.7-.3-1.2-1-1.2-.6 0-1 .4-1 1.2zM156.7 32.9v-5.8h1.6v1h.1c.2-.6.7-1.1 1.6-1.1.8 0 1.4.4 1.6 1.2.2-.6.9-1.2 1.8-1.2 1.1 0 1.7.8 1.7 2.3v3.6h-1.6v-3.5c0-.7-.3-1.1-.8-1.1s-1 .3-1 .8v3.7h-1.6v-3.5c0-.7-.3-1.1-.8-1.1s-1 .3-1 .8v3.7h-1.6zM166.2 30c0-1.8 1-3 2.7-3 1.9 0 2.7 1.4 2.7 2.9v.5h-3.7v.1c0 .8.4 1.2 1.3 1.2.7 0 1.1-.3 1.4-.7l.8 1c-.5.6-1.4 1-2.4 1-1.8 0-2.8-1.2-2.8-3zm1.7-.6l2 .1v-.1c0-.7-.3-1.2-1-1.2-.6 0-1 .4-1 1.2zM174.3 32.9c-1.1 0-1.6-.6-1.6-1.6v-6.6h1.6v6.9h.7v1.3h-.7zM176.1 24.7h1.6V28h.1c.2-.6.7-1.1 1.6-1.1 1.2 0 1.8.8 1.8 2.3v3.6h-1.6v-3.5c0-.7-.2-1.1-.8-1.1-.5 0-1 .3-1 .8v3.7h-1.6v-8zM182.3 30c0-1.9 1-3 2.7-3s2.7 1.2 2.7 3-1 3-2.7 3-2.7-1.2-2.7-3zm3.7.6v-1.2c0-.7-.4-1.1-1-1.1s-1 .4-1 1.1v1.2c0 .7.4 1.1 1 1.1s1-.4 1-1.1zM188.8 32.9v-5.8h1.6v1.3h.1c.1-.6.6-1.3 1.5-1.3h.3v1.5h-.4c-.9 0-1.4.2-1.4.9v3.4h-1.7z"/></g><path class="st1" d="M228.2 1439.6h98.4c1.5 0 2.7 1.2 2.7 2.7v16.1c0 1.5-1.2 2.7-2.7 2.7h-98.4c-1.5 0-2.7-1.2-2.7-2.7v-16.1c0-1.5 1.2-2.7 2.7-2.7z"/><g><path class="st2" d="M242.8 1448.3v5.3h-1.4v-5.3h-1.8v-1.3h5v1.3h-1.8zM245.5 1453.6v-4.9h1.4v1.1c0-.1.1-.3.1-.4s.1-.2.2-.3c.1-.1.2-.2.4-.2.1-.1.3-.1.5-.1h.2v1.3h-.3c-.4 0-.7.1-.9.2-.2.1-.3.3-.3.6v2.9h-1.3zM252.3 1448.7h1.3l-1.9 5.7c-.1.4-.3.7-.5.8-.2.2-.6.3-1 .3h-.9v-1.1h.9l.2-.5-1.7-5.2h1.4l.7 2.3.4 1.4h.1l.4-1.4.6-2.3zM256.6 1447.1h2.5c.4 0 .8.1 1.2.2.4.1.7.3.9.6.2.3.4.6.6 1s.2.9.2 1.4-.1 1-.2 1.4c-.1.4-.3.8-.6 1-.2.3-.6.5-.9.6s-.8.2-1.2.2h-2.5v-6.4zm2.4 5.3c.4 0 .8-.1 1-.4s.4-.6.4-1.1v-1c0-.5-.1-.9-.4-1.1s-.6-.4-1-.4h-1v4h1zM263.1 1447.1h3.2c.5 0 1 .2 1.3.5.3.3.5.7.5 1.2 0 .2 0 .5-.1.6s-.2.3-.3.4c-.1.1-.2.2-.4.2-.1.1-.3.1-.5.1v.1c.2 0 .3 0 .5.1s.3.1.5.3c.1.1.3.3.4.5.1.2.1.4.1.7 0 .3 0 .5-.1.7-.1.2-.2.4-.4.6-.2.2-.3.3-.5.4s-.4.1-.7.1h-3.5v-6.5zm1.4 2.7h1.4c.2 0 .3-.1.4-.2s.2-.3.2-.4v-.3c0-.2-.1-.3-.2-.4-.1-.1-.3-.2-.4-.2h-1.4v1.5zm0 2.6h1.6c.2 0 .3-.1.4-.2.1-.1.2-.2.2-.4v-.3c0-.2-.1-.3-.2-.4-.1-.1-.3-.2-.4-.2h-1.6v1.5zM271.3 1453.7c-.4 0-.7-.1-1-.2-.3-.1-.5-.3-.7-.5-.2-.2-.3-.5-.5-.8-.1-.3-.2-.7-.2-1.1s.1-.8.2-1.1c.1-.3.3-.6.5-.8.2-.2.4-.4.7-.5.3-.1.6-.2 1-.2s.7.1 1 .2c.3.1.5.3.7.5.2.2.3.5.5.8.1.3.2.7.2 1.1s-.1.8-.2 1.1c-.1.3-.3.6-.5.8-.2.2-.4.4-.7.5-.3.2-.7.2-1 .2zm0-1.1c.3 0 .5-.1.6-.3.1-.2.2-.4.2-.7v-1c0-.3-.1-.6-.2-.7-.2-.2-.4-.3-.6-.3-.3 0-.5.1-.6.3-.2.2-.2.4-.2.7v1c0 .3.1.6.2.7.1.3.3.3.6.3zM276.3 1453.6c-.5 0-.8-.1-1.1-.4-.2-.2-.4-.6-.4-1.1v-2.4h-.7v-1.1h.3c.2 0 .3 0 .4-.1.1-.1.1-.2.1-.4v-.8h1.2v1.3h1v1.1h-1v2.8h.9v1.1h-.7zM282.4 1453.7c-.4 0-.7-.1-1-.2-.3-.1-.5-.3-.7-.5-.2-.2-.3-.5-.5-.8-.1-.3-.2-.7-.2-1.1s.1-.8.2-1.1c.1-.3.3-.6.5-.8.2-.2.4-.4.7-.5.3-.1.6-.2 1-.2s.7.1 1 .2c.3.1.5.3.7.5.2.2.3.5.5.8.1.3.2.7.2 1.1s-.1.8-.2 1.1c-.1.3-.3.6-.5.8-.2.2-.4.4-.7.5-.4.2-.7.2-1 .2zm0-1.1c.3 0 .5-.1.6-.3.1-.2.2-.4.2-.7v-1c0-.3-.1-.6-.2-.7-.2-.2-.4-.3-.6-.3-.3 0-.5.1-.6.3-.2.2-.2.4-.2.7v1c0 .3.1.6.2.7.1.3.3.3.6.3zM285.7 1453.6v-4.9h1.4v.8h.1c.1-.3.2-.5.5-.7s.5-.3.9-.3c.5 0 .9.2 1.1.5.3.3.4.8.4 1.4v3.1h-1.4v-3c0-.3-.1-.6-.2-.7-.1-.2-.3-.2-.5-.2h-.3c-.1 0-.2.1-.3.1-.1.1-.2.1-.2.2s-.1.2-.1.3v3.2h-1.4zM293.5 1447.1h2.5c.4 0 .8.1 1.2.2.4.1.7.3.9.6.2.3.4.6.6 1s.2.9.2 1.4-.1 1-.2 1.4c-.1.4-.3.8-.6 1-.2.3-.6.5-.9.6s-.8.2-1.2.2h-2.5v-6.4zm2.5 5.3c.4 0 .8-.1 1-.4s.4-.6.4-1.1v-1c0-.5-.1-.9-.4-1.1s-.6-.4-1-.4h-1v4h1zM302 1453.7c-.4 0-.7-.1-1-.2s-.5-.3-.7-.5c-.2-.2-.4-.5-.5-.8-.1-.3-.2-.7-.2-1.1 0-.4 0-.7.1-1.1.1-.3.2-.6.4-.8.2-.2.4-.4.7-.5.3-.1.6-.2 1-.2s.8.1 1 .2c.3.1.5.3.7.6s.3.5.4.8c.1.3.1.6.1 1v.4h-3.2v.1c0 .3.1.6.3.8.2.2.4.3.8.3.3 0 .5-.1.7-.2.2-.1.3-.3.5-.4l.7.9c-.2.3-.5.5-.9.6 0 .1-.4.1-.9.1zm0-4.1c-.3 0-.5.1-.7.3-.2.2-.2.4-.2.7v.1h1.7v-.1c0-.3-.1-.5-.2-.7s-.3-.3-.6-.3zM305.3 1453.6v-4.9h1.4v1.1c0-.1.1-.3.1-.4s.1-.2.2-.3c.1-.1.2-.2.4-.2.1-.1.3-.1.5-.1h.2v1.3h-.3c-.4 0-.7.1-.9.2-.2.1-.3.3-.3.6v2.9h-1.3zM309.7 1448.2c-.3 0-.5-.1-.6-.2s-.2-.3-.2-.5v-.2c0-.2.1-.4.2-.5s.3-.2.6-.2.5.1.6.2.2.3.2.5v.2c0 .2-.1.4-.2.5s-.3.2-.6.2zm-.7.5h1.4v4.9H309v-4.9zM312.8 1453.6l-1.6-4.9h1.4l.6 2 .5 1.8h.1l.5-1.8.6-2h1.3l-1.6 4.9h-1.8z"/></g><g><path class="st11" d="M68.3 1439.9h4.2c1.4 0 2.3.9 2.3 2.2 0 1.3-.7 1.8-1.6 1.9v.1c.8 0 2 .5 2 2 0 1.4-1 2.5-2.2 2.5h-4.6v-8.7zm1.9 3.5h1.9c.5 0 .8-.3.8-.8v-.4c0-.5-.3-.8-.8-.8h-1.9v2zm0 3.6h2.2c.5 0 .8-.3.8-.8v-.4c0-.5-.3-.8-.8-.8h-2.2v2zM80.4 1447.5c-.3.7-.8 1.2-1.9 1.2-1.3 0-2-.9-2-2.6v-4.1h1.8v4c0 .8.3 1.2.9 1.2.6 0 1.2-.3 1.2-.9v-4.3h1.8v6.6h-1.8v-1.1zM83.8 1440.4v-.3c0-.5.3-.9 1.1-.9s1.1.4 1.1.9v.3c0 .5-.3.9-1.1.9s-1.1-.3-1.1-.9zm.2 1.6h1.8v6.6H84v-6.6zM89.4 1448.6c-1.3 0-1.8-.6-1.8-1.8v-7.4h1.8v7.8h.8v1.4h-.8zM95.4 1447.5c-.2.7-1 1.2-1.8 1.2-1.7 0-2.5-1.2-2.5-3.4s.9-3.4 2.5-3.4c.8 0 1.6.5 1.8 1.2h.1v-3.8h1.8v9.2h-1.8v-1zm0-1.2v-1.9c0-.6-.5-1-1.2-1s-1.2.5-1.2 1.4v1.1c0 .8.5 1.4 1.2 1.4.6-.1 1.2-.4 1.2-1zM98.8 1440.4v-.3c0-.5.3-.9 1.1-.9s1.1.4 1.1.9v.3c0 .5-.3.9-1.1.9s-1.1-.3-1.1-.9zm.1 1.6h1.8v6.6h-1.8v-6.6zM102.5 1448.6v-6.6h1.8v1.1h.1c.2-.7.8-1.3 1.8-1.3 1.3 0 2 .9 2 2.6v4.1h-1.8v-4c0-.8-.2-1.2-.9-1.2-.6 0-1.2.3-1.2 1v4.2h-1.8zM112.5 1451.2c-2.3 0-3.1-.6-3.1-1.5 0-.7.5-1.1 1.2-1.2v-.1c-.6-.1-.9-.6-.9-1.1 0-.7.6-1 1.2-1.2-.8-.4-1.2-1-1.2-1.9 0-1.3.9-2.2 2.8-2.2.4 0 .8 0 1.1.1v-.2c0-.7.4-1 1-1h1v1.4h-1.4v.1c.8.4 1.1 1 1.1 1.9 0 1.3-.9 2.2-2.8 2.2-.4 0-.8 0-1.2-.1-.2.1-.3.3-.3.5 0 .3.2.5.8.5h1.9c1.6 0 2.3.7 2.3 1.9s-.9 1.9-3.5 1.9zm.8-2.5H111c-.2.2-.2.4-.2.6 0 .5.4.7 1.4.7h.7c1 0 1.4-.2 1.4-.7 0-.4-.3-.6-1-.6zm.3-4.5v-.1c0-.6-.4-.9-1.1-.9-.7 0-1.1.3-1.1.9v.1c0 .6.4.9 1.1.9.7 0 1.1-.4 1.1-.9zM124.6 1448.6c-.7 0-1.1-.4-1.2-1.1h-.1c-.2.8-.9 1.3-1.9 1.3-1.3 0-2-.8-2-1.9 0-1.4 1.1-2 2.8-2h1v-.4c0-.6-.3-1-1.1-1-.7 0-1.1.4-1.4.8l-1.1-1c.5-.8 1.3-1.2 2.6-1.2 1.8 0 2.8.8 2.8 2.4v2.9h.6v1.4h-1zm-1.4-2v-.8h-.9c-.7 0-1.1.3-1.1.7v.2c0 .5.3.7.9.7.6.1 1.1-.2 1.1-.8zM132.1 1448.6c-1.3 0-1.9-.7-1.9-1.9v-3.2h-.9v-1.4h.5c.5 0 .6-.2.6-.7v-1.1h1.7v1.8h1.3v1.4H132v3.7h1.2v1.4h-1.1zM134.6 1448.6v-6.6h1.8v1.4h.1c.2-.7.6-1.4 1.7-1.4h.3v1.7h-.5c-1.1 0-1.6.2-1.6 1v3.8h-1.8zM144.3 1448.6c-.7 0-1.1-.4-1.2-1.1h-.1c-.2.8-.9 1.3-1.9 1.3-1.3 0-2-.8-2-1.9 0-1.4 1.1-2 2.8-2h1v-.4c0-.6-.3-1-1.1-1-.7 0-1.1.4-1.4.8l-1.1-1c.5-.8 1.3-1.2 2.6-1.2 1.8 0 2.8.8 2.8 2.4v2.9h.6v1.4h-1zm-1.4-2v-.8h-.9c-.7 0-1.1.3-1.1.7v.2c0 .5.3.7.9.7.6.1 1.1-.2 1.1-.8zM150.6 1447.5c-.2.7-1 1.2-1.8 1.2-1.7 0-2.5-1.2-2.5-3.4s.9-3.4 2.5-3.4c.8 0 1.6.5 1.8 1.2h.1v-3.8h1.8v9.2h-1.8v-1zm0-1.2v-1.9c0-.6-.5-1-1.2-1s-1.2.5-1.2 1.4v1.1c0 .8.5 1.4 1.2 1.4.7-.1 1.2-.4 1.2-1zM154 1440.4v-.3c0-.5.3-.9 1.1-.9s1.1.4 1.1.9v.3c0 .5-.3.9-1.1.9s-1.1-.3-1.1-.9zm.2 1.6h1.8v6.6h-1.8v-6.6zM157.7 1448.6v-6.6h1.8v1.1h.1c.2-.7.8-1.3 1.8-1.3 1.3 0 2 .9 2 2.6v4.1h-1.8v-4c0-.8-.2-1.2-.9-1.2-.6 0-1.2.3-1.2 1v4.2h-1.8zM167.7 1451.2c-2.3 0-3.1-.6-3.1-1.5 0-.7.5-1.1 1.2-1.2v-.1c-.6-.1-.9-.6-.9-1.1 0-.7.6-1 1.2-1.2-.8-.4-1.2-1-1.2-1.9 0-1.3.9-2.2 2.8-2.2.4 0 .8 0 1.1.1v-.2c0-.7.4-1 1-1h1v1.4h-1.4v.1c.8.4 1.1 1 1.1 1.9 0 1.3-.9 2.2-2.8 2.2-.4 0-.8 0-1.2-.1-.2.1-.3.3-.3.5 0 .3.2.5.8.5h1.9c1.6 0 2.3.7 2.3 1.9.1 1.2-.8 1.9-3.5 1.9zm.8-2.5h-2.2c-.2.2-.2.4-.2.6 0 .5.4.7 1.4.7h.7c1 0 1.4-.2 1.4-.7-.1-.4-.4-.6-1.1-.6zm.3-4.5v-.1c0-.6-.4-.9-1.1-.9-.7 0-1.1.3-1.1.9v.1c0 .6.4.9 1.1.9.8 0 1.1-.4 1.1-.9zM175 1439.4h1.8v3.8h.1c.2-.7.9-1.2 1.8-1.2 1.7 0 2.5 1.2 2.5 3.4s-.9 3.4-2.5 3.4c-.8 0-1.6-.5-1.8-1.2h-.1v1.1H175v-9.3zm4.3 6.5v-1.1c0-.8-.5-1.4-1.2-1.4s-1.2.4-1.2 1v1.9c0 .6.5 1 1.2 1 .7-.1 1.2-.6 1.2-1.4zM182.2 1445.3c0-2.1 1.1-3.4 3.1-3.4 1.9 0 3.1 1.3 3.1 3.4s-1.1 3.4-3.1 3.4-3.1-1.3-3.1-3.4zm4.2.7v-1.3c0-.8-.4-1.3-1.1-1.3-.7 0-1.1.5-1.1 1.3v1.3c0 .8.4 1.3 1.1 1.3.7 0 1.1-.5 1.1-1.3zM191.9 1448.6c-1.3 0-1.9-.7-1.9-1.9v-3.2h-1v-1.4h.5c.5 0 .6-.2.6-.7v-1.1h1.7v1.8h1.3v1.4h-1.3v3.7h1.2v1.4h-1.1zM197.3 1442h1.8v7.3c0 1.2-.6 1.8-1.8 1.8h-1v-1.4h1v-7.7zm-.1-1.6v-.3c0-.5.3-.9 1.1-.9s1.1.4 1.1.9v.3c0 .5-.3.9-1.1.9s-1.1-.3-1.1-.9zM204.7 1447.5c-.3.7-.8 1.2-1.9 1.2-1.3 0-2-.9-2-2.6v-4.1h1.8v4c0 .8.3 1.2.9 1.2.6 0 1.2-.3 1.2-.9v-4.3h1.8v6.6h-1.8v-1.1zM207.8 1447.6l1.1-1.1c.5.5 1 .8 1.7.8s1-.2 1-.6c0-.3-.2-.5-.7-.5l-.7-.1c-1.5-.2-2.2-.8-2.2-2 0-1.3 1-2.1 2.5-2.1 1.4 0 2 .4 2.7 1l-1.1 1.1c-.4-.4-1-.7-1.5-.7-.6 0-.9.2-.9.5s.1.5.7.6l.7.1c1.4.2 2.2.8 2.2 2 0 1.3-1.1 2.2-2.8 2.2-1.2-.1-2-.5-2.7-1.2zM216.8 1448.6c-1.3 0-1.9-.7-1.9-1.9v-3.2h-.9v-1.4h.5c.5 0 .6-.2.6-.7v-1.1h1.7v1.8h1.3v1.4h-1.3v3.7h1.2v1.4h-1.2zM70.7 1466.2c-2.3 0-3.1-.6-3.1-1.5 0-.7.5-1.1 1.2-1.2v-.1c-.6-.1-.9-.6-.9-1.1 0-.7.6-1 1.2-1.2-.8-.4-1.2-1-1.2-1.9 0-1.3.9-2.2 2.8-2.2.4 0 .8 0 1.1.1v-.2c0-.7.4-1 1-1h1v1.4h-1.4v.1c.8.4 1.1 1 1.1 1.9 0 1.3-.9 2.2-2.8 2.2-.4 0-.8 0-1.2-.1-.2.1-.3.3-.3.5 0 .3.2.5.8.5h2c1.6 0 2.3.7 2.3 1.9 0 1.1-.9 1.9-3.6 1.9zm.8-2.5h-2.2c-.2.2-.2.4-.2.6 0 .5.4.7 1.4.7h.7c1 0 1.4-.2 1.4-.7 0-.4-.3-.6-1.1-.6zm.4-4.6v-.1c0-.6-.4-.9-1.1-.9-.7 0-1.1.3-1.1.9v.1c0 .6.4.9 1.1.9.7 0 1.1-.3 1.1-.9zM74.6 1460.3c0-2.1 1.1-3.4 3.1-3.4 1.9 0 3.1 1.3 3.1 3.4s-1.1 3.4-3.1 3.4c-1.9 0-3.1-1.3-3.1-3.4zm4.2.7v-1.3c0-.8-.4-1.3-1.1-1.3-.7 0-1.1.5-1.1 1.3v1.3c0 .8.4 1.3 1.1 1.3.7 0 1.1-.5 1.1-1.3zM84.3 1463.6c-1.3 0-1.9-.7-1.9-1.9v-3.2h-.9v-1.4h.5c.5 0 .6-.2.6-.7v-1.1h1.7v1.8h1.3v1.4h-1.3v3.7h1.2v1.4h-1.2zM89.2 1462.5l1.1-1.1c.5.5 1 .8 1.7.8s1-.2 1-.6c0-.3-.2-.5-.7-.5l-.7-.1c-1.5-.2-2.2-.8-2.2-2 0-1.3 1-2.1 2.5-2.1 1.4 0 2 .4 2.7 1l-1.1 1.1c-.4-.4-1-.7-1.5-.7-.6 0-.9.2-.9.5s.1.5.7.6l.7.1c1.4.2 2.2.8 2.2 2 0 1.3-1.1 2.2-2.8 2.2-1.2 0-2-.4-2.7-1.2zM95.9 1455.4v-.3c0-.5.3-.9 1.1-.9s1.1.4 1.1.9v.3c0 .5-.3.9-1.1.9s-1.1-.4-1.1-.9zm.1 1.6h1.8v6.6H96v-6.6zM99.6 1463.6v-6.6h1.8v1.1h.1c.2-.7.8-1.3 1.8-1.3.9 0 1.5.5 1.8 1.3.2-.7 1-1.3 2-1.3 1.3 0 2 .9 2 2.6v4.1h-1.8v-4c0-.8-.3-1.2-.9-1.2-.5 0-1.1.3-1.1 1v4.2h-1.8v-4c0-.8-.3-1.2-.9-1.2-.5 0-1.1.3-1.1 1v4.2h-1.9zM110.8 1457h1.8v1.1h.1c.2-.7.9-1.2 1.8-1.2 1.7 0 2.5 1.2 2.5 3.4s-.9 3.4-2.5 3.4c-.8 0-1.6-.5-1.8-1.2h-.1v3.6h-1.8v-9.1zm4.2 3.9v-1.1c0-.8-.5-1.4-1.2-1.4s-1.2.4-1.2 1v1.9c0 .6.5 1 1.2 1 .7-.1 1.2-.6 1.2-1.4zM120.2 1463.6c-1.3 0-1.8-.6-1.8-1.8v-7.4h1.8v7.8h.8v1.4h-.8zM121.7 1460.3c0-2.1 1.1-3.4 3.1-3.4 2.2 0 3 1.6 3 3.3v.5h-4.2v.1c0 .9.5 1.4 1.4 1.4.8 0 1.2-.4 1.6-.8l.9 1.1c-.6.7-1.5 1.1-2.7 1.1-1.9.1-3.1-1.2-3.1-3.3zm1.9-.7l2.3.1v-.1c0-.8-.4-1.3-1.1-1.3s-1.2.5-1.2 1.3zM129.1 1463.6v-6.6h1.8v1.4h.1c.2-.7.6-1.4 1.7-1.4h.3v1.7h-.5c-1.1 0-1.6.2-1.6 1v3.8h-1.8zM142 1463.6c-.7 0-1.1-.4-1.2-1.1h-.1c-.2.8-.9 1.3-1.9 1.3-1.3 0-2-.8-2-1.9 0-1.4 1.1-2 2.8-2h1v-.4c0-.6-.3-1-1.1-1-.7 0-1.1.4-1.4.8l-1.1-1c.5-.8 1.3-1.2 2.6-1.2 1.8 0 2.8.8 2.8 2.4v2.9h.6v1.4h-1zm-1.5-2v-.8h-.9c-.7 0-1.1.3-1.1.7v.2c0 .5.3.7.9.7.6 0 1.1-.2 1.1-.8zM144.2 1463.6v-6.6h1.8v1.1h.1c.2-.7.8-1.3 1.8-1.3 1.3 0 2 .9 2 2.6v4.1h-1.8v-4c0-.8-.2-1.2-.9-1.2-.6 0-1.2.3-1.2 1v4.2h-1.8zM155.7 1462.5c-.2.7-1 1.2-1.8 1.2-1.7 0-2.5-1.2-2.5-3.4s.9-3.4 2.5-3.4c.8 0 1.6.5 1.8 1.2h.1v-3.8h1.8v9.2h-1.8v-1zm0-1.2v-1.9c0-.6-.5-1-1.2-1s-1.2.5-1.2 1.4v1.1c0 .8.5 1.4 1.2 1.4.7-.1 1.2-.4 1.2-1zM162.2 1454.3h1.8v3.8h.1c.2-.7.9-1.2 1.8-1.2 1.7 0 2.5 1.2 2.5 3.4s-.9 3.4-2.5 3.4c-.8 0-1.6-.5-1.8-1.2h-.1v1.1h-1.8v-9.3zm4.3 6.6v-1.1c0-.8-.5-1.4-1.2-1.4s-1.2.4-1.2 1v1.9c0 .6.5 1 1.2 1 .7-.1 1.2-.6 1.2-1.4zM169.4 1460.3c0-2.1 1.1-3.4 3.1-3.4 2.2 0 3 1.6 3 3.3v.5h-4.2v.1c0 .9.5 1.4 1.4 1.4.8 0 1.2-.4 1.6-.8l.9 1.1c-.6.7-1.5 1.1-2.7 1.1-2 .1-3.1-1.2-3.1-3.3zm1.9-.7l2.3.1v-.1c0-.8-.4-1.3-1.1-1.3s-1.2.5-1.2 1.3zM179.1 1463.6c-1.3 0-1.9-.7-1.9-1.9v-3.2h-.9v-1.4h.5c.5 0 .6-.2.6-.7v-1.1h1.7v1.8h1.3v1.4H179v3.7h1.2v1.4h-1.1zM183.8 1463.6c-1.3 0-1.9-.7-1.9-1.9v-3.2h-.9v-1.4h.5c.5 0 .6-.2.6-.7v-1.1h1.7v1.8h1.3v1.4h-1.3v3.7h1.2v1.4h-1.2zM185.9 1460.3c0-2.1 1.1-3.4 3.1-3.4 2.2 0 3 1.6 3 3.3v.5h-4.2v.1c0 .9.5 1.4 1.4 1.4.8 0 1.2-.4 1.6-.8l.9 1.1c-.6.7-1.5 1.1-2.7 1.1-2 .1-3.1-1.2-3.1-3.3zm1.9-.7l2.3.1v-.1c0-.8-.4-1.3-1.1-1.3s-1.2.5-1.2 1.3zM193.3 1463.6v-6.6h1.8v1.4h.1c.2-.7.6-1.4 1.7-1.4h.3v1.7h-.5c-1.1 0-1.6.2-1.6 1v3.8h-1.8z"/></g><path class="st1" d="M230 44.6l76.9.2c2.8 0 5.1-2.3 5.1-5.1V5.1c0-2.8-2.3-5.1-5.1-5.1H230v8.4c0 .5-.2 1-.5 1.4l-5.2 6.4c-.3.4-.8.9-.8 1.4V27c0 .5.2 1 .5 1.4l5.5 6.5c.3.4.5.9.5 1.4v8.3z"/><g><path class="st2" d="M237.9 19.1v-6.5h4.5v1.3h-3v1.3h2.6v1.3h-2.6v1.4h3v1.3h-4.5zM243 19.1l1.6-2.5-1.6-2.4h1.6l.9 1.5.9-1.5h1.5l-1.6 2.5 1.6 2.5h-1.6l-.9-1.6-.9 1.6H243zM248.7 14.2h1.4v.8c.1-.3.2-.5.5-.7.2-.2.5-.3.8-.3.6 0 1.1.2 1.4.7.3.4.5 1.1.5 1.9 0 .8-.2 1.5-.5 1.9-.3.4-.8.7-1.4.7-.2 0-.3 0-.5-.1-.1 0-.3-.1-.4-.2l-.3-.3c-.1-.1-.1-.2-.2-.4V21h-1.4v-6.8zm2.3 3.9c.3 0 .5-.1.7-.3.2-.2.3-.4.3-.7v-.9c0-.3-.1-.6-.3-.7s-.4-.3-.7-.3c-.3 0-.5.1-.7.2-.2.1-.3.3-.3.5v1.5c0 .2.1.4.3.5.2.1.5.2.7.2zM256.5 19.2c-.4 0-.7-.1-1-.2-.3-.1-.5-.3-.7-.5s-.4-.5-.5-.8-.2-.7-.2-1.1c0-.4 0-.7.1-1.1.1-.3.2-.6.4-.8.2-.2.4-.4.7-.5.3-.1.6-.2 1-.2s.8.1 1 .2c.3.1.5.3.7.6.2.2.3.5.4.8s.1.6.1 1v.4h-3.2v.1c0 .3.1.6.3.8.2.2.4.3.8.3.3 0 .5-.1.7-.2s.3-.3.5-.4l.7.9c-.2.3-.5.5-.9.6-.1 0-.5.1-.9.1zm-.1-4.1c-.3 0-.5.1-.7.3-.2.2-.2.4-.2.7v.1h1.7v-.1c0-.3-.1-.5-.2-.7-.1-.2-.3-.3-.6-.3zM259.7 19.1v-4.9h1.4v1.1c0-.1.1-.3.1-.4.1-.1.1-.2.2-.3.1-.1.2-.2.4-.2.1-.1.3-.1.5-.1h.2v1.3h-.3c-.4 0-.7.1-.9.2s-.3.3-.3.6v2.9h-1.3zM264.2 13.7c-.3 0-.5-.1-.6-.2-.1-.1-.2-.3-.2-.5v-.2c0-.2.1-.4.2-.5.1-.1.3-.2.6-.2s.5.1.6.2c.1.1.2.3.2.5v.2c0 .2-.1.4-.2.5-.1.1-.3.2-.6.2zm-.7.5h1.4v4.9h-1.4v-4.9zM266.2 19.1v-4.9h1.4v.8h.1c.1-.3.2-.5.4-.7.2-.2.5-.3.9-.3.3 0 .6.1.9.3.2.2.4.4.5.7 0-.1.1-.3.2-.4l.3-.3c.1-.1.3-.2.4-.2s.3-.1.5-.1c.5 0 .8.2 1.1.5.3.3.4.8.4 1.4V19h-1.4v-3c0-.6-.2-.9-.7-.9-.2 0-.4.1-.6.2-.2.1-.3.3-.3.5V19H269v-3c0-.6-.2-.9-.7-.9h-.3c-.1 0-.2.1-.3.1s-.1.1-.2.2c0 .1-.1.2-.1.3v3.2h-1.2zM276.6 19.2c-.4 0-.7-.1-1-.2-.3-.1-.5-.3-.7-.5-.2-.2-.4-.5-.5-.8s-.2-.7-.2-1.1c0-.4.1-.7.2-1.1.1-.3.2-.6.4-.8s.4-.4.7-.5c.3-.1.6-.2 1-.2s.8.1 1 .2c.3.1.5.3.7.6.2.2.3.5.4.8.1.3.1.6.1 1v.4h-3.2v.1c0 .3.1.6.3.8s.4.3.8.3c.3 0 .5-.1.7-.2.2-.1.3-.3.5-.4l.7.9c-.2.3-.5.5-.9.6-.1 0-.6.1-1 .1zm0-4.1c-.3 0-.5.1-.7.3-.2.2-.2.4-.2.7v.1h1.7v-.1c0-.3-.1-.5-.2-.7-.1-.2-.3-.3-.6-.3zM279.8 19.1v-4.9h1.4v.8h.1c.1-.3.2-.5.5-.7s.5-.3.9-.3c.5 0 .9.2 1.1.5s.4.8.4 1.4V19h-1.4v-3c0-.3-.1-.6-.2-.7s-.3-.2-.5-.2h-.3c-.1 0-.2.1-.3.1-.1.1-.2.1-.2.2s-.1.2-.1.3v3.2h-1.4zM287.1 19.1c-.5 0-.8-.1-1.1-.4-.2-.2-.4-.6-.4-1.1v-2.4h-.6v-1.1h.3c.2 0 .3 0 .4-.1s.1-.2.1-.4v-.8h1.2v1.3h1v1.1h-1V18h.9v1.1h-.8zM291 19.2c-.4 0-.7-.1-1-.2-.3-.1-.5-.3-.7-.5s-.4-.5-.5-.8-.2-.7-.2-1.1c0-.4 0-.7.1-1.1.1-.3.2-.6.4-.8.2-.2.4-.4.7-.5.3-.1.6-.2 1-.2s.8.1 1 .2c.3.1.5.3.7.6.2.2.3.5.4.8s.1.6.1 1v.4h-3.2v.1c0 .3.1.6.3.8.2.2.4.3.8.3.3 0 .5-.1.7-.2s.3-.3.5-.4l.7.9c-.2.3-.5.5-.9.6 0 0-.4.1-.9.1zm0-4.1c-.3 0-.5.1-.7.3-.2.2-.2.4-.2.7v.1h1.7v-.1c0-.3-.1-.5-.2-.7-.1-.2-.3-.3-.6-.3zM239.8 30.5c-.4 0-.7-.1-1-.2-.3-.1-.5-.3-.7-.5-.2-.2-.3-.5-.5-.8-.1-.3-.2-.7-.2-1.1 0-.4.1-.8.2-1.1.1-.3.3-.6.5-.8.2-.2.4-.4.7-.5.3-.1.6-.2 1-.2s.7.1 1 .2.5.3.7.5c.2.2.3.5.5.8.1.3.2.7.2 1.1 0 .4-.1.8-.2 1.1-.1.3-.3.6-.5.8-.2.2-.4.4-.7.5s-.7.2-1 .2zm0-1.1c.3 0 .5-.1.6-.3.1-.2.2-.4.2-.7v-1c0-.3-.1-.6-.2-.7-.2-.2-.4-.3-.6-.3s-.5.1-.6.3c-.2.2-.2.4-.2.7v1c0 .3.1.6.2.7.1.2.3.3.6.3zM245.4 23.8h2.5c.4 0 .8.1 1.2.2.4.1.7.3.9.6.2.3.4.6.6 1 .1.4.2.9.2 1.4s-.1 1-.2 1.4c-.1.4-.3.8-.6 1s-.6.5-.9.6c-.4.1-.8.2-1.2.2h-2.5v-6.4zm2.4 5.3c.4 0 .8-.1 1-.4s.4-.6.4-1.1v-1c0-.5-.1-.9-.4-1.1-.2-.2-.6-.4-1-.4h-1v4h1zM251.8 23.4h1.4v2.8c.1-.3.2-.5.5-.7.2-.2.5-.3.8-.3.6 0 1.1.2 1.4.7.3.4.5 1.1.5 1.9 0 .8-.2 1.5-.5 1.9-.3.4-.8.7-1.4.7-.2 0-.3 0-.5-.1-.1 0-.3-.1-.4-.2l-.3-.3c-.1-.1-.1-.2-.2-.4v.8h-1.4v-6.8zm2.3 5.9c.3 0 .5-.1.7-.3.2-.2.3-.4.3-.7v-.9c0-.3-.1-.6-.3-.7s-.4-.3-.7-.3c-.3 0-.5.1-.7.2-.2.1-.3.3-.3.5v1.5c0 .2.1.4.3.5.2.2.5.2.7.2zM259.5 30.5c-.4 0-.7-.1-1-.2-.3-.1-.5-.3-.7-.5-.2-.2-.3-.5-.5-.8-.1-.3-.2-.7-.2-1.1 0-.4.1-.8.2-1.1.1-.3.3-.6.5-.8.2-.2.4-.4.7-.5.3-.1.6-.2 1-.2s.7.1 1 .2c.3.1.5.3.7.5.2.2.3.5.5.8s.2.7.2 1.1c0 .4-.1.8-.2 1.1s-.3.6-.5.8c-.2.2-.4.4-.7.5-.3.1-.6.2-1 .2zm0-1.1c.3 0 .5-.1.6-.3.2-.2.2-.4.2-.7v-1c0-.3-.1-.6-.2-.7s-.4-.3-.6-.3c-.3 0-.5.1-.6.3s-.2.4-.2.7v1c0 .3.1.6.2.7.1.2.3.3.6.3zM264.5 30.4c-.5 0-.8-.1-1.1-.4-.2-.2-.4-.6-.4-1.1v-2.4h-.7v-1.1h.3c.2 0 .3 0 .4-.1s.1-.2.1-.4v-.8h1.2v1.3h1v1.1h-1v2.8h.9v1.1h-.7zM268.6 30.4v-4.9h1.4v.8h.1c.1-.3.2-.5.5-.7s.5-.3.9-.3c.5 0 .9.2 1.1.5.3.3.4.8.4 1.4v3.1h-1.4v-3c0-.3-.1-.6-.2-.7s-.3-.2-.5-.2h-.3c-.1 0-.2.1-.3.1s-.2.1-.2.2c-.1.1-.1.2-.1.3v3.2h-1.4zM277.8 30.4c-.2 0-.5-.1-.6-.2s-.3-.4-.3-.6h-.1c-.1.3-.2.6-.5.7-.3.2-.6.2-.9.2-.5 0-.9-.1-1.1-.4-.3-.3-.4-.6-.4-1 0-.5.2-.9.6-1.2s.9-.4 1.5-.4h.8v-.3c0-.2-.1-.4-.2-.6s-.3-.2-.6-.2-.5.1-.7.2c-.2.1-.3.3-.4.4l-.8-.7c.2-.3.5-.5.8-.7s.7-.2 1.2-.2c.7 0 1.2.2 1.6.5s.5.8.5 1.3v2.2h.5v1.1h-.9zm-1.9-.9c.2 0 .4 0 .6-.1s.2-.3.2-.5v-.6h-.7c-.5 0-.8.2-.8.5v.2c0 .2.1.3.2.4.1.1.3.1.5.1zM281.8 23.8h2.5c.4 0 .8.1 1.2.2.4.1.7.3.9.6.2.3.4.6.6 1 .1.4.2.9.2 1.4s-.1 1-.2 1.4c-.1.4-.3.8-.6 1s-.6.5-.9.6c-.4.1-.8.2-1.2.2h-2.5v-6.4zm2.5 5.3c.4 0 .8-.1 1-.4s.4-.6.4-1.1v-1c0-.5-.1-.9-.4-1.1-.2-.2-.6-.4-1-.4h-1v4h1zM290.3 30.5c-.4 0-.7-.1-1-.2-.3-.1-.5-.3-.7-.5s-.4-.5-.5-.8-.2-.7-.2-1.1c0-.4 0-.7.1-1.1.1-.3.2-.6.4-.8.2-.2.4-.4.7-.5.3-.1.6-.2 1-.2s.8.1 1 .2c.3.1.5.3.7.6.2.2.3.5.4.8s.1.6.1 1v.4h-3.2v.1c0 .3.1.6.3.8.2.2.4.3.8.3.3 0 .5-.1.7-.2s.3-.3.5-.4l.7.9c-.2.3-.5.5-.9.6 0 0-.4.1-.9.1zm0-4.2c-.3 0-.5.1-.7.3-.2.2-.2.4-.2.7v.1h1.7v-.1c0-.3-.1-.5-.2-.7-.1-.2-.3-.3-.6-.3zM293.6 30.4v-4.9h1.4v1.1c0-.1.1-.3.1-.4.1-.1.1-.2.2-.3.1-.1.2-.2.4-.2.1-.1.3-.1.5-.1h.2v1.3h-.3c-.4 0-.7.1-.9.2s-.3.3-.3.6v2.9h-1.3zM298 24.9c-.3 0-.5-.1-.6-.2-.1-.1-.2-.3-.2-.5V24c0-.2.1-.4.2-.5.1-.1.3-.2.6-.2s.5.1.6.2c.1.1.2.3.2.5v.2c0 .2-.1.4-.2.5-.1.1-.3.2-.6.2zm-.7.5h1.4v4.9h-1.4v-4.9zM301.1 30.4l-1.6-4.9h1.4l.6 2 .5 1.8h.1l.5-1.8.6-2h1.3l-1.6 4.9h-1.8z"/></g></g></svg>