<svg width="40" height="40" viewBox="0 0 40 40" fill="none" xmlns="http://www.w3.org/2000/svg">
<g clip-path="url(#clip0_4402_24970)">
<circle cx="20" cy="20" r="20" fill="#333333"/>
<path fill-rule="evenodd" clip-rule="evenodd" d="M30.4334 9.98832C30.4334 8.84166 29.4967 7.90666 28.35 7.90666C27.9627 7.9042 27.5828 8.01298 27.2554 8.22009C26.9281 8.42719 26.6671 8.72391 26.5034 9.07499L21.66 8.04666C21.5237 8.02215 21.3831 8.04697 21.2634 8.11666C21.1482 8.19406 21.0653 8.3108 21.03 8.44499L19.555 15.415C16.445 15.51 13.66 16.4217 11.6484 17.8933C11.1334 17.4033 10.4084 17.0767 9.63671 17.0767C8.02338 17.0767 6.71338 18.3867 6.71338 20C6.71266 20.5645 6.87593 21.117 7.18335 21.5904C7.49077 22.0638 7.9291 22.4377 8.44505 22.6667C8.39838 22.9467 8.37338 23.2517 8.37338 23.5567C8.37338 28.0467 13.59 31.6733 20.0467 31.6733C26.5034 31.6733 31.72 28.0467 31.72 23.5567C31.721 23.2663 31.6976 22.9764 31.65 22.69C32.6084 22.2217 33.3334 21.1933 33.3334 20C33.3334 18.3867 32.0234 17.0767 30.41 17.0767C29.615 17.0767 28.9117 17.38 28.3984 17.895C26.4084 16.4683 23.6484 15.5317 20.6084 15.415L21.9417 9.16999L26.27 10.0817C26.3001 10.6214 26.5387 11.1284 26.9356 11.4954C27.3324 11.8625 27.8564 12.0609 28.3969 12.0488C28.9373 12.0367 29.4519 11.815 29.8319 11.4305C30.2119 11.046 30.4276 10.5289 30.4334 9.98832ZM13.3334 22.0833C13.3334 20.9367 14.2684 20 15.4167 20H15.415C16.5617 20 17.4967 20.935 17.4967 22.0817C17.4967 23.2283 16.5617 24.1633 15.4167 24.1633C14.2684 24.1633 13.3334 23.2283 13.3334 22.0833ZM22.5034 22.0833C22.5034 20.935 23.4384 20 24.5834 20C25.73 20 26.6667 20.9367 26.6667 22.0817C26.6667 23.2283 25.7317 24.1633 24.585 24.1633C23.4384 24.1633 22.5034 23.2283 22.5034 22.0833ZM15.0884 26.8067C15.191 26.7056 15.3294 26.6493 15.4734 26.65V26.6483C15.5451 26.6479 15.6162 26.6617 15.6825 26.6888C15.7489 26.716 15.8092 26.7561 15.86 26.8067C16.7484 27.6967 18.6667 28.0233 20.0467 28.0233C21.4267 28.0233 23.3217 27.695 24.2334 26.8067C24.3363 26.7049 24.4753 26.6478 24.62 26.6478C24.7648 26.6478 24.9038 26.7049 25.0067 26.8067C25.0906 26.9205 25.1317 27.0602 25.1229 27.2013C25.1141 27.3424 25.0558 27.4759 24.9584 27.5783C23.5317 29.0067 20.8184 29.1 20.0234 29.1C19.2284 29.1 16.4917 28.9817 15.0884 27.5783C14.9871 27.4754 14.9303 27.3369 14.9303 27.1925C14.9303 27.0481 14.9871 26.9095 15.0884 26.8067Z" fill="white"/>
</g>
<defs>
<clipPath id="clip0_4402_24970">
<rect width="40" height="40" fill="white"/>
</clipPath>
</defs>
</svg>
