<svg width="40" height="40" viewBox="0 0 40 40" fill="none" xmlns="http://www.w3.org/2000/svg">
<circle cx="20" cy="20" r="20" fill="#333333"/>
<path fill-rule="evenodd" clip-rule="evenodd" d="M30.4334 9.98845C30.4334 8.84178 29.4967 7.90678 28.35 7.90678C27.9627 7.90432 27.5828 8.01311 27.2554 8.22021C26.9281 8.42731 26.6671 8.72403 26.5034 9.07511L21.66 8.04678C21.5237 8.02227 21.3831 8.04709 21.2634 8.11678C21.1482 8.19418 21.0653 8.31092 21.03 8.44511L19.555 15.4151C16.445 15.5101 13.66 16.4218 11.6484 17.8934C11.1334 17.4034 10.4084 17.0768 9.63671 17.0768C8.02338 17.0768 6.71338 18.3868 6.71338 20.0001C6.71266 20.5646 6.87593 21.1171 7.18335 21.5905C7.49077 22.0639 7.9291 22.4378 8.44505 22.6668C8.39838 22.9468 8.37338 23.2518 8.37338 23.5568C8.37338 28.0468 13.59 31.6734 20.0467 31.6734C26.5034 31.6734 31.72 28.0468 31.72 23.5568C31.721 23.2664 31.6976 22.9765 31.65 22.6901C32.6084 22.2218 33.3334 21.1934 33.3334 20.0001C33.3334 18.3868 32.0234 17.0768 30.41 17.0768C29.615 17.0768 28.9117 17.3801 28.3984 17.8951C26.4084 16.4684 23.6484 15.5318 20.6084 15.4151L21.9417 9.17011L26.27 10.0818C26.3001 10.6215 26.5387 11.1285 26.9356 11.4955C27.3324 11.8626 27.8564 12.061 28.3969 12.0489C28.9373 12.0368 29.4519 11.8151 29.8319 11.4306C30.2119 11.0461 30.4276 10.529 30.4334 9.98845ZM13.3334 22.0834C13.3334 20.9368 14.2684 20.0001 15.4167 20.0001H15.415C16.5617 20.0001 17.4967 20.9351 17.4967 22.0818C17.4967 23.2284 16.5617 24.1634 15.4167 24.1634C14.2684 24.1634 13.3334 23.2284 13.3334 22.0834ZM22.5034 22.0834C22.5034 20.9351 23.4384 20.0001 24.5834 20.0001C25.73 20.0001 26.6667 20.9368 26.6667 22.0818C26.6667 23.2284 25.7317 24.1634 24.585 24.1634C23.4384 24.1634 22.5034 23.2284 22.5034 22.0834ZM15.0884 26.8068C15.191 26.7057 15.3294 26.6494 15.4734 26.6501V26.6484C15.5451 26.648 15.6162 26.6618 15.6825 26.689C15.7489 26.7161 15.8092 26.7562 15.86 26.8068C16.7484 27.6968 18.6667 28.0234 20.0467 28.0234C21.4267 28.0234 23.3217 27.6951 24.2334 26.8068C24.3363 26.705 24.4753 26.6479 24.62 26.6479C24.7648 26.6479 24.9038 26.705 25.0067 26.8068C25.0906 26.9206 25.1317 27.0603 25.1229 27.2014C25.1141 27.3425 25.0558 27.476 24.9584 27.5784C23.5317 29.0068 20.8184 29.1001 20.0234 29.1001C19.2284 29.1001 16.4917 28.9818 15.0884 27.5784C14.9871 27.4756 14.9303 27.337 14.9303 27.1926C14.9303 27.0482 14.9871 26.9097 15.0884 26.8068Z" fill="white"/>
</svg>
