<svg width="48" height="48" viewBox="0 0 48 48" fill="none" xmlns="http://www.w3.org/2000/svg">
<rect width="48" height="48" rx="8" fill="#7862AA"/>
<path d="M24 14C18.48 14 14 18.48 14 24C14 29.52 18.48 34 24 34C29.52 34 34 29.52 34 24C34 18.48 29.52 14 24 14ZM31.46 21.12L28.68 22.27C28.17 20.91 27.1 19.83 25.73 19.33L26.88 16.55C28.98 17.35 30.65 19.02 31.46 21.12ZM24 27C22.34 27 21 25.66 21 24C21 22.34 22.34 21 24 21C25.66 21 27 22.34 27 24C27 25.66 25.66 27 24 27ZM21.13 16.54L22.3 19.32C20.92 19.82 19.83 20.91 19.32 22.29L16.54 21.13C17.35 19.02 19.02 17.35 21.13 16.54ZM16.54 26.87L19.32 25.72C19.83 27.1 20.91 28.18 22.29 28.68L21.12 31.46C19.02 30.65 17.35 28.98 16.54 26.87ZM26.88 31.46L25.73 28.68C27.1 28.17 28.18 27.09 28.68 25.71L31.46 26.88C30.65 28.98 28.98 30.65 26.88 31.46Z" fill="white"/>
</svg>
