<svg width="40" height="40" viewBox="0 0 40 40" fill="none" xmlns="http://www.w3.org/2000/svg">
<path d="M5.82483 5.89076C9.55539 2.1427 14.6185 0.0246783 19.9067 0H20C25.3043 0 30.3914 2.10714 34.1421 5.85786C37.8929 9.60859 40 14.6957 40 20C40 25.3043 37.8929 30.3914 34.1421 34.1421C30.3914 37.8929 25.3043 40 20 40C14.6957 40 9.60859 37.8929 5.85786 34.1421C2.10714 30.3914 1.18729e-09 25.3043 1.18729e-09 20C-5.75792e-05 14.7118 2.09426 9.63882 5.82483 5.89076Z" fill="#333333"/>
<path d="M28.9515 12.2733C28.7115 12.0783 28.3432 12.0366 28.1765 12.04C27.4248 12.0533 26.2698 12.455 20.7165 14.765C18.7698 15.5733 14.8832 17.2483 9.05317 19.7883C8.1065 20.165 7.60983 20.5333 7.56483 20.8933C7.48861 21.5017 8.24916 21.7413 9.28627 22.068C9.42831 22.1127 9.57553 22.1591 9.7265 22.2083C10.7482 22.54 12.1215 22.9283 12.8348 22.9416C13.4832 22.9583 14.2048 22.6916 15.0048 22.1416C20.4515 18.4666 23.2632 16.6066 23.4398 16.5666C23.5648 16.5383 23.7382 16.5033 23.8548 16.6066C23.9715 16.71 23.9598 16.9066 23.9482 16.96C23.872 17.281 20.889 20.055 19.3386 21.4967C18.8523 21.9489 18.5069 22.2701 18.4365 22.3433C18.2803 22.5052 18.1212 22.6585 17.9682 22.8059C17.0189 23.7202 16.3056 24.4071 18.0065 25.5266C18.8245 26.0661 19.479 26.512 20.1322 26.957C20.8431 27.4413 21.5526 27.9247 22.4698 28.5266C22.7047 28.6804 22.9289 28.8402 23.1473 28.9959C23.975 29.5858 24.7186 30.1157 25.6365 30.03C26.1715 29.9816 26.7232 29.48 27.0032 27.98C27.6665 24.4383 28.9698 16.765 29.2698 13.6016C29.2965 13.325 29.2632 12.97 29.2365 12.815C29.2127 12.6051 29.111 12.4118 28.9515 12.2733Z" fill="white"/>
</svg>
