<svg width="40" height="40" viewBox="0 0 40 40" fill="none" xmlns="http://www.w3.org/2000/svg">
<path d="M5.82483 5.89076C9.55539 2.1427 14.6185 0.0246783 19.9067 0H20C25.3043 0 30.3914 2.10714 34.1421 5.85786C37.8929 9.60859 40 14.6957 40 20C40 25.3043 37.8929 30.3914 34.1421 34.1421C30.3914 37.8929 25.3043 40 20 40C14.6957 40 9.60859 37.8929 5.85786 34.1421C2.10714 30.3914 1.18729e-09 25.3043 1.18729e-09 20C-5.75792e-05 14.7118 2.09426 9.63882 5.82483 5.89076Z" fill="#333333"/>
<path d="M28.9516 12.2733C28.7116 12.0783 28.3433 12.0366 28.1766 12.04C27.425 12.0533 26.27 12.455 20.7166 14.765C18.77 15.5733 14.8833 17.2483 9.05329 19.7883C8.10662 20.165 7.60995 20.5333 7.56495 20.8933C7.48873 21.5017 8.24928 21.7413 9.28639 22.068C9.42843 22.1127 9.57565 22.1591 9.72662 22.2083C10.7483 22.54 12.1216 22.9283 12.835 22.9416C13.4833 22.9583 14.205 22.6916 15.005 22.1416C20.4516 18.4666 23.2633 16.6066 23.44 16.5666C23.565 16.5383 23.7383 16.5033 23.855 16.6066C23.9716 16.71 23.96 16.9066 23.9483 16.96C23.8722 17.281 20.8891 20.055 19.3387 21.4967C18.8524 21.9489 18.5071 22.2701 18.4366 22.3433C18.2805 22.5052 18.1213 22.6585 17.9683 22.8059C17.019 23.7202 16.3058 24.4071 18.0066 25.5266C18.8246 26.0661 19.4791 26.512 20.1323 26.957C20.8432 27.4413 21.5527 27.9247 22.47 28.5266C22.7048 28.6804 22.929 28.8402 23.1474 28.9959C23.9752 29.5858 24.7188 30.1157 25.6366 30.03C26.1716 29.9816 26.7233 29.48 27.0033 27.98C27.6666 24.4383 28.97 16.765 29.27 13.6016C29.2966 13.325 29.2633 12.97 29.2366 12.815C29.2128 12.6051 29.1111 12.4118 28.9516 12.2733Z" fill="white"/>
</svg>
