<svg width="48" height="48" viewBox="0 0 48 48" fill="none" xmlns="http://www.w3.org/2000/svg">
<path d="M39 0H9C4.02944 0 0 4.02944 0 9V39C0 43.9706 4.02944 48 9 48H39C43.9706 48 48 43.9706 48 39V9C48 4.02944 43.9706 0 39 0Z" fill="#FF444F"/>
<path d="M21 22.5H16.5C15.675 22.5 15 21.825 15 21V16.5C15 15.675 15.675 15 16.5 15H21C21.825 15 22.5 15.675 22.5 16.5V21C22.5 21.825 21.825 22.5 21 22.5ZM22.5 31.5V27C22.5 26.175 21.825 25.5 21 25.5H16.5C15.675 25.5 15 26.175 15 27V31.5C15 32.325 15.675 33 16.5 33H21C21.825 33 22.5 32.325 22.5 31.5ZM33 21V16.5C33 15.675 32.325 15 31.5 15H27C26.175 15 25.5 15.675 25.5 16.5V21C25.5 21.825 26.175 22.5 27 22.5H31.5C32.325 22.5 33 21.825 33 21ZM33 31.5V27C33 26.175 32.325 25.5 31.5 25.5H27C26.175 25.5 25.5 26.175 25.5 27V31.5C25.5 32.325 26.175 33 27 33H31.5C32.325 33 33 32.325 33 31.5Z" fill="white"/>
</svg>
