<svg width="48" height="48" viewBox="0 0 48 48" fill="none" xmlns="http://www.w3.org/2000/svg">
<path d="M39 0H9C4.02944 0 0 4.02944 0 9V39C0 43.9706 4.02944 48 9 48H39C43.9706 48 48 43.9706 48 39V9C48 4.02944 43.9706 0 39 0Z" fill="#8CB761"/>
<path d="M19.5 21.75V29.25C19.5 29.67 19.17 30 18.75 30H18V32.25C18 32.655 17.67 33 17.25 33C16.83 33 16.5 32.655 16.5 32.25V30H15.75C15.33 30 15 29.67 15 29.25V21.75C15 21.33 15.33 21 15.75 21H16.5V18.75C16.5 18.33 16.83 18 17.25 18C17.67 18 18 18.33 18 18.75V21H18.75C19.17 21 19.5 21.33 19.5 21.75ZM24.75 16.5H24V14.25C24 13.83 23.67 13.5 23.25 13.5C22.83 13.5 22.5 13.83 22.5 14.25V16.5H21.75C21.33 16.5 21 16.83 21 17.25V30.75C21 31.17 21.33 31.5 21.75 31.5H22.5V33.75C22.5 34.155 22.83 34.5 23.25 34.5C23.67 34.5 24 34.155 24 33.75V31.5H24.75C25.17 31.5 25.5 31.17 25.5 30.75V17.25C25.5 16.83 25.17 16.5 24.75 16.5ZM30.75 18H30V15.75C30 15.33 29.67 15 29.25 15C28.83 15 28.5 15.33 28.5 15.75V18H27.75C27.33 18 27 18.33 27 18.75V26.25C27 26.67 27.33 27 27.75 27H28.5V29.25C28.5 29.655 28.83 30 29.25 30C29.67 30 30 29.655 30 29.25V27H30.75C31.17 27 31.5 26.67 31.5 26.25V18.75C31.5 18.33 31.17 18 30.75 18Z" fill="white"/>
</svg>
