<svg xmlns="http://www.w3.org/2000/svg" height="46" width="180" viewBox="0 0 192.48 51.03"><path fill="#fff" d="M44.46 7.15a7.15 7.15 0 0 0-2.12.29 7.06 7.06 0 0 0-1.72.79 7.18 7.18 0 0 0-1.37 1.14l-.3.33V7.55h-5.24v19.87h5.23V16.29A4.46 4.46 0 0 1 40 13.1a3.61 3.61 0 0 1 2.78-1.1 3.31 3.31 0 0 1 2.67 1.06 4.69 4.69 0 0 1 1 3.16v11.2h5.24V14.89a8.16 8.16 0 0 0-1.87-5.61 6.74 6.74 0 0 0-5.36-2.13zM63.75 7.3a16.55 16.55 0 0 0-4.11.44 20.87 20.87 0 0 0-3.31 1.18l-.33.16 1.45 4.28.41-.17a19.25 19.25 0 0 1 2.5-.85 11.25 11.25 0 0 1 2.78-.34 4.78 4.78 0 0 1 3.2.95 3.25 3.25 0 0 1 1.06 2.51 18.61 18.61 0 0 0-1.84-.43 17.45 17.45 0 0 0-3-.22 12.37 12.37 0 0 0-3.18.39 7.41 7.41 0 0 0-2.6 1.23A5.81 5.81 0 0 0 55 18.54a6.63 6.63 0 0 0-.62 2.94v.07a6 6 0 0 0 .6 2.73 5.84 5.84 0 0 0 1.59 2 6.83 6.83 0 0 0 2.28 1.19 9.26 9.26 0 0 0 2.72.4 8.29 8.29 0 0 0 3.92-.87 9.17 9.17 0 0 0 1.88-1.29v1.73h5.16V15.76a8.56 8.56 0 0 0-2.18-6.22C68.91 8 66.69 7.3 63.75 7.3zm-.9 16.44a4.18 4.18 0 0 1-2.39-.65 2 2 0 0 1-.87-1.74v-.07a2.08 2.08 0 0 1 1-1.82 5.25 5.25 0 0 1 3-.72 12.61 12.61 0 0 1 2.32.2 12 12 0 0 1 1.63.42v.79a3.18 3.18 0 0 1-.33 1.45 3.42 3.42 0 0 1-.95 1.12 5 5 0 0 1-1.48.75 6.35 6.35 0 0 1-1.93.27zM99.49 20.89L94.38 7.55h-5.56L96.93 27a3.7 3.7 0 0 1-1 1.4 2.06 2.06 0 0 1-1.3.39 4.06 4.06 0 0 1-1.19-.18 7 7 0 0 1-1.17-.49l-.39-.21-1.82 4 .34.18a10.82 10.82 0 0 0 2.15.88 9.42 9.42 0 0 0 2.55.32 7.27 7.27 0 0 0 2.22-.29 5.48 5.48 0 0 0 1.8-1 7 7 0 0 0 1.46-1.74 16.78 16.78 0 0 0 1.22-2.55l7.79-20.15h-5.45z"/><path fill="#e78024" d="M133.64 21a10 10 0 0 1-2.13 1.65 5.38 5.38 0 0 1-4.65.17 5.3 5.3 0 0 1-1.67-1.22 5.48 5.48 0 0 1-1.09-1.81 6.47 6.47 0 0 1-.38-2.23v-.07a6.31 6.31 0 0 1 .38-2.2 5.61 5.61 0 0 1 1.06-1.8 5.14 5.14 0 0 1 1.6-1.2 4.62 4.62 0 0 1 2-.44 5.06 5.06 0 0 1 2.58.61 9.86 9.86 0 0 1 2.06 1.64l.31.32 3.29-3.56-.26-.28a11.06 11.06 0 0 0-3.24-2.47 10.67 10.67 0 0 0-12.07 2.12 10.27 10.27 0 0 0-2.16 3.31 10.56 10.56 0 0 0-.78 4v.07a10.47 10.47 0 0 0 .78 4 10.09 10.09 0 0 0 2.16 3.27 10.29 10.29 0 0 0 7.36 3 9.92 9.92 0 0 0 4.78-1 12.46 12.46 0 0 0 3.32-2.67l.27-.29-3.22-3.16zM156.88 10.18A10.2 10.2 0 0 0 153.54 8a10.84 10.84 0 0 0-4.22-.81 10.7 10.7 0 0 0-4.22.81 10.37 10.37 0 0 0-5.56 5.52 10.12 10.12 0 0 0-.81 4v.07a10.32 10.32 0 0 0 .79 4 10 10 0 0 0 2.21 3.27 10.49 10.49 0 0 0 3.34 2.2 11.24 11.24 0 0 0 8.41 0 10.28 10.28 0 0 0 5.57-5.52 10 10 0 0 0 .81-4v-.07a10.12 10.12 0 0 0-3-7.27zm-7.56 13.05a5.06 5.06 0 0 1-2.14-.45 5.39 5.39 0 0 1-1.7-1.24 6 6 0 0 1-1.12-1.82 6.08 6.08 0 0 1-.4-2.21v-.07a6.63 6.63 0 0 1 .37-2.2 5.14 5.14 0 0 1 1.06-1.78 5.26 5.26 0 0 1 1.68-1.2 5.5 5.5 0 0 1 4.35 0 5.31 5.31 0 0 1 1.7 1.22 5.57 5.57 0 0 1 1.11 1.81 6.23 6.23 0 0 1 .4 2.23v.07a6.44 6.44 0 0 1-.37 2.18 5.49 5.49 0 0 1-1.06 1.79 5.32 5.32 0 0 1-1.67 1.22 5.26 5.26 0 0 1-2.21.46zM190.59 9.18a6.83 6.83 0 0 0-5.22-2 7.68 7.68 0 0 0-3.95 1 9.81 9.81 0 0 0-2.42 2.03 6.43 6.43 0 0 0-2-2.06 6.6 6.6 0 0 0-3.69-1 7 7 0 0 0-2.08.29 6.26 6.26 0 0 0-1.69.8 7.54 7.54 0 0 0-1.31 1.11l-.28.32V7.55h-5.23v19.87h5.23v-11.1a4.7 4.7 0 0 1 1-3.21 3.32 3.32 0 0 1 2.58-1.11 3.09 3.09 0 0 1 2.47 1 4.75 4.75 0 0 1 .91 3.15v11.27h5.23V16.29a4.56 4.56 0 0 1 1-3.22 3.39 3.39 0 0 1 2.69-1.07 3.09 3.09 0 0 1 2.51 1 4.86 4.86 0 0 1 .91 3.19v11.23h5.23V14.85a8 8 0 0 0-1.89-5.67z"/><path fill="#fff" d="M25.69 7.55h5.24v19.87h-5.24zM31.21 2.9a2.9 2.9 0 1 0-2.9 2.9 2.9 2.9 0 0 0 2.9-2.9z"/><path fill="#e78024" d="M116 25a2.9 2.9 0 1 0-2.89 2.9A2.9 2.9 0 0 0 116 25z"/><path fill="#fff" d="M21.35 15.29a7.49 7.49 0 0 0-1.74-1.38 13.76 13.76 0 0 0-1.35-.66l-.26-.13.27-.17c.23-.14.45-.31.67-.48a6.26 6.26 0 0 0 1.28-1.31 6.51 6.51 0 0 0 .88-1.72 6.92 6.92 0 0 0 .34-2.26v-.07a6.33 6.33 0 0 0-1.89-4.65C17.88.83 15.46 0 12.31 0H0v27.42h12.69a16.26 16.26 0 0 0 4.13-.49 9.88 9.88 0 0 0 3.23-1.44 6.73 6.73 0 0 0 2.1-2.4 7.27 7.27 0 0 0 .74-3.32v-.07a7.15 7.15 0 0 0-.4-2.51 5.58 5.58 0 0 0-1.14-1.9zM5.24 11.16V4.74h6.5a5.52 5.52 0 0 1 3.33.84 2.67 2.67 0 0 1 1.09 2.29V8a2.76 2.76 0 0 1-1.25 2.51 6.33 6.33 0 0 1-3.52.86H5.24zm12.42 8.12a2.82 2.82 0 0 1-1.26 2.53 6.52 6.52 0 0 1-3.63.87H5.24v-6.81h7.19a7.14 7.14 0 0 1 4 .9 2.77 2.77 0 0 1 1.25 2.44zM86.9 7.19a6.53 6.53 0 0 0-4.46 1.28 8.18 8.18 0 0 0-1.88 2.08v-3h-5.23v19.87h5.24v-7.66a10.11 10.11 0 0 1 .43-3.17 6.05 6.05 0 0 1 1.24-2.21 5.16 5.16 0 0 1 1.91-1.3 6.72 6.72 0 0 1 2.48-.44h.64V7.21zM1.51 47.93l1.95-9.33H0l.25-1.2h8.29l-.25 1.2H4.87l-1.95 9.33zM6.55 47.93l1.6-7.63H9.3L9 41.86a5.31 5.31 0 0 1 1.15-1.31 1.9 1.9 0 0 1 1.15-.42 2.26 2.26 0 0 1 1 .28l-.53 1.21a1.24 1.24 0 0 0-.74-.24 2 2 0 0 0-1.4.76 5.79 5.79 0 0 0-1.13 2.74l-.65 3.06zM16.67 46.55a3.84 3.84 0 0 1-2.81 1.55 2 2 0 0 1-1.43-.51 1.63 1.63 0 0 1-.54-1.24 9.47 9.47 0 0 1 .24-1.65l.92-4.41h1.3l-1 4.88a4.92 4.92 0 0 0-.13.95.87.87 0 0 0 .26.67 1.11 1.11 0 0 0 .77.24 2.32 2.32 0 0 0 1.07-.27 2.84 2.84 0 0 0 .9-.72 3.76 3.76 0 0 0 .6-1.04 9.51 9.51 0 0 0 .37-1.39l.69-3.3h1.3l-1.6 7.63h-1.2zM19.76 45.32l1.3-.08a2.38 2.38 0 0 0 .17 1 1.37 1.37 0 0 0 .64.65 2.23 2.23 0 0 0 1.13.21 2 2 0 0 0 1.29-.34 1 1 0 0 0 .43-.81 1 1 0 0 0-.26-.64 4.09 4.09 0 0 0-1.3-.74 12.35 12.35 0 0 1-1.32-.62 2.13 2.13 0 0 1-.73-.69 1.72 1.72 0 0 1-.24-.92 2 2 0 0 1 .72-1.55 2.9 2.9 0 0 1 2-.65 3.2 3.2 0 0 1 2.19.66 2.31 2.31 0 0 1 .78 1.75l-1.27.09a1.46 1.46 0 0 0-.49-1.09 1.91 1.91 0 0 0-1.3-.4 1.6 1.6 0 0 0-1 .31.87.87 0 0 0-.37.67.81.81 0 0 0 .32.63 5.41 5.41 0 0 0 1.11.57 7.49 7.49 0 0 1 1.88 1 1.94 1.94 0 0 1 .56 1.46 2 2 0 0 1-.35 1.11 2.4 2.4 0 0 1-1.06.87 4 4 0 0 1-1.69.33 3.8 3.8 0 0 1-2.25-.65 2.32 2.32 0 0 1-.89-2.13zM30 46.87l-.22 1.06a3.57 3.57 0 0 1-.91.12 1.88 1.88 0 0 1-1.24-.38 1 1 0 0 1-.34-.78 7.86 7.86 0 0 1 .19-1.16l.93-4.43h-1l.21-1h1l.4-1.88 1.49-.9L30 40.3h1.28l-.22 1h-1.31l-.88 4.22a7.9 7.9 0 0 0-.17 1 .45.45 0 0 0 .13.35.63.63 0 0 0 .43.12 3.12 3.12 0 0 0 .74-.12zM36.69 45.34l1.26.13a3.83 3.83 0 0 1-1.25 1.79 3.46 3.46 0 0 1-2.34.85 3.16 3.16 0 0 1-1.56-.39 2.57 2.57 0 0 1-1.08-1.14 3.79 3.79 0 0 1-.37-1.7 5.43 5.43 0 0 1 .58-2.43 4.13 4.13 0 0 1 1.5-1.75 3.7 3.7 0 0 1 2-.57 2.89 2.89 0 0 1 2.18.85 3.2 3.2 0 0 1 .82 2.31 6.83 6.83 0 0 1-.1 1.15h-5.62a3.17 3.17 0 0 0 0 .4 2.42 2.42 0 0 0 .49 1.63 1.54 1.54 0 0 0 1.2.56 2.32 2.32 0 0 0 1.32-.44 2.85 2.85 0 0 0 .97-1.25zm-3.78-1.89h4.29v-.29a2.11 2.11 0 0 0-.49-1.5 1.65 1.65 0 0 0-1.26-.52 2.31 2.31 0 0 0-1.52.57 3.45 3.45 0 0 0-1.02 1.74zM44.42 46.82a3.14 3.14 0 0 1-2.33 1.28 2.33 2.33 0 0 1-1.81-.8 3.36 3.36 0 0 1-.72-2.3 5.66 5.66 0 0 1 .57-2.55 4.32 4.32 0 0 1 1.43-1.73 3.07 3.07 0 0 1 1.72-.57 2.31 2.31 0 0 1 2.15 1.37l.86-4.1h1.29l-2.2 10.54h-1.2zm-3.56-2.09A4 4 0 0 0 41 46a1.65 1.65 0 0 0 .54.77 1.41 1.41 0 0 0 .91.31 2 2 0 0 0 1.6-.92 4.72 4.72 0 0 0 1-3 2 2 0 0 0-.47-1.42 1.56 1.56 0 0 0-1.19-.51 1.76 1.76 0 0 0-.85.21 2.49 2.49 0 0 0-.76.71 4.45 4.45 0 0 0-.64 1.27 4.32 4.32 0 0 0-.29 1.31zM51.55 47.93l2.2-10.54H55l-.78 3.77a4.61 4.61 0 0 1 1.12-.8 2.46 2.46 0 0 1 1-.23 2.3 2.3 0 0 1 1.79.8 3.37 3.37 0 0 1 .72 2.32 5.7 5.7 0 0 1-.29 1.85 5.15 5.15 0 0 1-.71 1.41 4.46 4.46 0 0 1-.88.91 3.48 3.48 0 0 1-.93.51 2.72 2.72 0 0 1-.91.17 2.27 2.27 0 0 1-1.33-.4 2.58 2.58 0 0 1-.9-1.22l-.3 1.44zm1.93-3.13v.2a2.13 2.13 0 0 0 .47 1.49 1.51 1.51 0 0 0 1.15.51 1.91 1.91 0 0 0 1.25-.48 3.41 3.41 0 0 0 .94-1.49 5.53 5.53 0 0 0 .37-1.87 2.2 2.2 0 0 0-.46-1.49 1.46 1.46 0 0 0-1.2-.49 1.87 1.87 0 0 0-1.29.54 4.06 4.06 0 0 0-1 1.67 4.43 4.43 0 0 0-.24 1.41zM59.25 50.88l.08-1.22a2.85 2.85 0 0 0 .78.11 1.05 1.05 0 0 0 .64-.18 3 3 0 0 0 .69-.89l.42-.75-1.28-7.65h1.28l.57 3.86q.17 1.14.29 2.29l3.41-6.14h1.37l-4.87 8.65a5.53 5.53 0 0 1-1.25 1.67 2 2 0 0 1-1.26.41 2.66 2.66 0 0 1-.87-.16zM74.22 46.87L74 47.94a3.57 3.57 0 0 1-.91.12 1.88 1.88 0 0 1-1.24-.38 1 1 0 0 1-.34-.78 7.86 7.86 0 0 1 .19-1.16l.93-4.43h-1l.21-1h1l.4-1.88 1.49-.9-.58 2.77h1.28l-.22 1h-1.28l-.88 4.22a7.9 7.9 0 0 0-.17 1 .45.45 0 0 0 .13.35.63.63 0 0 0 .43.12 3.12 3.12 0 0 0 .78-.12zM75.27 47.93l1.6-7.63H78l-.32 1.56a5.31 5.31 0 0 1 1.15-1.31 1.9 1.9 0 0 1 1.17-.42 2.26 2.26 0 0 1 1 .28l-.53 1.21a1.24 1.24 0 0 0-.74-.24 2 2 0 0 0-1.4.76 5.79 5.79 0 0 0-1.13 2.74l-.65 3.06zM85.32 47a5.17 5.17 0 0 1-1.3.85 3.34 3.34 0 0 1-1.34.27 2.35 2.35 0 0 1-1.7-.62 2.11 2.11 0 0 1-.65-1.59 2.18 2.18 0 0 1 .29-1.13 2.28 2.28 0 0 1 .77-.79 3.4 3.4 0 0 1 1.18-.43 13.16 13.16 0 0 1 1.66-.14 6 6 0 0 0 1.77-.28 3.36 3.36 0 0 0 .15-.88.85.85 0 0 0-.33-.71 2.09 2.09 0 0 0-1.32-.36 2.29 2.29 0 0 0-1.34.36 2 2 0 0 0-.76 1l-1.32-.11a3.43 3.43 0 0 1 1.28-1.74 3.79 3.79 0 0 1 2.2-.6 3.44 3.44 0 0 1 2.24.68 1.59 1.59 0 0 1 .63 1.31 6.6 6.6 0 0 1-.18 1.42l-.42 1.9a7.11 7.11 0 0 0-.2 1.47 4.93 4.93 0 0 0 .16 1h-1.32a4.8 4.8 0 0 1-.15-.88zm.48-2.92a3.14 3.14 0 0 1-.59.17q-.31.06-1 .12a8 8 0 0 0-1.6.26 1.34 1.34 0 0 0-.7.49 1.27 1.27 0 0 0-.24.75 1.17 1.17 0 0 0 .38.9 1.52 1.52 0 0 0 1.07.35 2.54 2.54 0 0 0 2.18-1.29 5.53 5.53 0 0 0 .5-1.77zM93.5 46.82a3.14 3.14 0 0 1-2.33 1.28 2.33 2.33 0 0 1-1.81-.8 3.36 3.36 0 0 1-.72-2.3 5.66 5.66 0 0 1 .57-2.55 4.32 4.32 0 0 1 1.43-1.73 3.07 3.07 0 0 1 1.72-.57 2.31 2.31 0 0 1 2.15 1.37l.86-4.1h1.29l-2.2 10.54h-1.2zm-3.56-2.09A4 4 0 0 0 90.1 46a1.65 1.65 0 0 0 .54.77 1.41 1.41 0 0 0 .91.31 2 2 0 0 0 1.6-.92 4.72 4.72 0 0 0 1-3 2 2 0 0 0-.47-1.42 1.56 1.56 0 0 0-1.19-.51 1.76 1.76 0 0 0-.85.21 2.49 2.49 0 0 0-.76.71 4.45 4.45 0 0 0-.64 1.27 4.32 4.32 0 0 0-.3 1.31zM102.15 45.34l1.26.13a3.83 3.83 0 0 1-1.25 1.79 3.46 3.46 0 0 1-2.34.85 3.16 3.16 0 0 1-1.56-.39 2.57 2.57 0 0 1-1.08-1.14 3.79 3.79 0 0 1-.37-1.7 5.43 5.43 0 0 1 .58-2.43 4.13 4.13 0 0 1 1.5-1.75 3.7 3.7 0 0 1 2-.57 2.89 2.89 0 0 1 2.18.85 3.2 3.2 0 0 1 .82 2.31 6.83 6.83 0 0 1-.1 1.15h-5.63a3.17 3.17 0 0 0 0 .4 2.42 2.42 0 0 0 .49 1.63 1.54 1.54 0 0 0 1.2.56 2.32 2.32 0 0 0 1.32-.44 2.85 2.85 0 0 0 .98-1.25zm-3.78-1.89h4.28v-.29a2.11 2.11 0 0 0-.49-1.5 1.65 1.65 0 0 0-1.26-.52 2.31 2.31 0 0 0-1.52.57 3.45 3.45 0 0 0-1.01 1.74zM104.73 47.93l1.6-7.63h1.15l-.32 1.56a5.31 5.31 0 0 1 1.15-1.31 1.9 1.9 0 0 1 1.15-.42 2.26 2.26 0 0 1 1 .28l-.53 1.21a1.24 1.24 0 0 0-.74-.24 2 2 0 0 0-1.4.76 5.79 5.79 0 0 0-1.13 2.74l-.66 3.05zM109.75 45.32l1.3-.08a2.38 2.38 0 0 0 .17 1 1.37 1.37 0 0 0 .64.65 2.23 2.23 0 0 0 1.08.25 2 2 0 0 0 1.29-.34 1 1 0 0 0 .43-.81 1 1 0 0 0-.26-.64 4.09 4.09 0 0 0-1.3-.74 12.35 12.35 0 0 1-1.32-.62 2.13 2.13 0 0 1-.73-.69 1.72 1.72 0 0 1-.24-.92 2 2 0 0 1 .72-1.55 2.9 2.9 0 0 1 2-.65 3.2 3.2 0 0 1 2.19.66 2.31 2.31 0 0 1 .78 1.75l-1.27.09a1.46 1.46 0 0 0-.49-1.09 1.91 1.91 0 0 0-1.3-.4 1.6 1.6 0 0 0-1 .31.87.87 0 0 0-.37.67.81.81 0 0 0 .32.63 5.41 5.41 0 0 0 1.11.57 7.49 7.49 0 0 1 1.88 1 1.94 1.94 0 0 1 .62 1.45 2 2 0 0 1-.35 1.11 2.4 2.4 0 0 1-1.06.87 4 4 0 0 1-1.69.33 3.8 3.8 0 0 1-2.25-.65 2.32 2.32 0 0 1-.9-2.16zM121.2 45.32l1.3-.08a2.38 2.38 0 0 0 .17 1 1.37 1.37 0 0 0 .64.65 2.23 2.23 0 0 0 1.08.25 2 2 0 0 0 1.29-.34 1 1 0 0 0 .43-.81 1 1 0 0 0-.26-.64 4.09 4.09 0 0 0-1.3-.74 12.35 12.35 0 0 1-1.32-.62 2.13 2.13 0 0 1-.73-.69 1.72 1.72 0 0 1-.24-.92 2 2 0 0 1 .72-1.55 2.9 2.9 0 0 1 2-.65 3.2 3.2 0 0 1 2.19.66 2.31 2.31 0 0 1 .78 1.75l-1.27.09a1.46 1.46 0 0 0-.49-1.09 1.91 1.91 0 0 0-1.3-.4 1.6 1.6 0 0 0-1 .31.87.87 0 0 0-.37.67.81.81 0 0 0 .32.63 5.41 5.41 0 0 0 1.11.57 7.49 7.49 0 0 1 1.88 1 1.94 1.94 0 0 1 .62 1.45 2 2 0 0 1-.35 1.11 2.4 2.4 0 0 1-1.06.87 4 4 0 0 1-1.69.33 3.8 3.8 0 0 1-2.25-.65 2.32 2.32 0 0 1-.9-2.16zM128.39 47.93L130 40.3h1.3l-1.6 7.63zm1.9-9.06l.31-1.47h1.29l-.31 1.47zM131.71 47.93l1.6-7.63h1.18l-.28 1.33a6.24 6.24 0 0 1 1.44-1.14 2.85 2.85 0 0 1 1.37-.36 2 2 0 0 1 1.46.5A1.77 1.77 0 0 1 139 42a7.5 7.5 0 0 1-.19 1.34l-1 4.62h-1.3l1-4.84a5.55 5.55 0 0 0 .15-1 .79.79 0 0 0-.26-.62 1.09 1.09 0 0 0-.76-.24 2.55 2.55 0 0 0-1.78.72 4.59 4.59 0 0 0-1.15 2.46l-.71 3.49zM145.16 45.15l1.3.14a4.37 4.37 0 0 1-1.39 2.12 3.28 3.28 0 0 1-2.05.69 2.67 2.67 0 0 1-2-.8 3.12 3.12 0 0 1-.77-2.25 6.42 6.42 0 0 1 .5-2.46 4 4 0 0 1 1.42-1.84 3.66 3.66 0 0 1 2.11-.63 2.69 2.69 0 0 1 1.95.69 2.43 2.43 0 0 1 .72 1.84l-1.28.09a1.55 1.55 0 0 0-.42-1.14 1.48 1.48 0 0 0-1.09-.41 2 2 0 0 0-1.36.5 3.27 3.27 0 0 0-.9 1.51 6.3 6.3 0 0 0-.33 1.94 2.16 2.16 0 0 0 .43 1.47 1.36 1.36 0 0 0 1.06.49 1.87 1.87 0 0 0 1.21-.48 3.16 3.16 0 0 0 .89-1.47zM152.86 45.34l1.26.13a3.83 3.83 0 0 1-1.25 1.79 3.46 3.46 0 0 1-2.34.85 3.16 3.16 0 0 1-1.56-.39 2.57 2.57 0 0 1-1.08-1.14 3.79 3.79 0 0 1-.37-1.7 5.43 5.43 0 0 1 .58-2.43 4.13 4.13 0 0 1 1.5-1.75 3.7 3.7 0 0 1 2-.57 2.89 2.89 0 0 1 2.18.85 3.2 3.2 0 0 1 .82 2.31 6.83 6.83 0 0 1-.1 1.15h-5.62a3.17 3.17 0 0 0 0 .4 2.42 2.42 0 0 0 .49 1.63 1.54 1.54 0 0 0 1.2.56 2.32 2.32 0 0 0 1.32-.44 2.85 2.85 0 0 0 .97-1.25zm-3.78-1.89h4.28v-.29a2.11 2.11 0 0 0-.49-1.5 1.65 1.65 0 0 0-1.26-.52 2.31 2.31 0 0 0-1.52.57 3.45 3.45 0 0 0-1.01 1.74zM159.9 47.93a5.66 5.66 0 0 1 .56-1.58 5.28 5.28 0 0 1 .95-1.21q.59-.57 2.27-1.92a16.1 16.1 0 0 0 1.39-1.2 4 4 0 0 0 .78-1.1 1.92 1.92 0 0 0 .17-.8 1.67 1.67 0 0 0-.51-1.23 1.73 1.73 0 0 0-1.26-.51 1.84 1.84 0 0 0-1.29.51 3.05 3.05 0 0 0-.79 1.65l-1.27-.19a3.47 3.47 0 0 1 1.1-2.19 3.24 3.24 0 0 1 2.25-.81 3.52 3.52 0 0 1 1.63.37 2.51 2.51 0 0 1 1.1 1 2.89 2.89 0 0 1 .37 1.39 3.27 3.27 0 0 1-.75 2 19.89 19.89 0 0 1-2.7 2.38 15.06 15.06 0 0 0-1.43 1.25 4.48 4.48 0 0 0-.71.92h4.71l-.25 1.19zM168.26 44.47a10.85 10.85 0 0 1 1.29-4.92 5.4 5.4 0 0 1 1-1.29 3.92 3.92 0 0 1 1-.69 2.8 2.8 0 0 1 1.12-.22 2.6 2.6 0 0 1 2 .9 3.75 3.75 0 0 1 .81 2.59 11 11 0 0 1-.48 3.46 6.6 6.6 0 0 1-1.84 3 3.1 3.1 0 0 1-2.06.77 2.56 2.56 0 0 1-2-.93 4 4 0 0 1-.84-2.67zm1.26.33a3 3 0 0 0 .32 1.52 1.41 1.41 0 0 0 1.3.75 1.83 1.83 0 0 0 1.37-.68 6.27 6.27 0 0 0 1.34-2.82 13.5 13.5 0 0 0 .45-3 2.49 2.49 0 0 0-.43-1.64 1.44 1.44 0 0 0-1.15-.5 1.86 1.86 0 0 0-1 .27 2.72 2.72 0 0 0-.86.91 9.18 9.18 0 0 0-1 2.73 11.45 11.45 0 0 0-.34 2.46zM176.45 44.47a10.85 10.85 0 0 1 1.29-4.92 5.4 5.4 0 0 1 1-1.29 3.92 3.92 0 0 1 1-.69 2.8 2.8 0 0 1 1.12-.22 2.6 2.6 0 0 1 2 .9 3.75 3.75 0 0 1 .81 2.59 11 11 0 0 1-.56 3.46 6.6 6.6 0 0 1-1.84 3 3.1 3.1 0 0 1-2.06.77 2.56 2.56 0 0 1-2-.93 4 4 0 0 1-.76-2.67zm1.26.33a3 3 0 0 0 .32 1.52 1.41 1.41 0 0 0 1.3.75 1.83 1.83 0 0 0 1.37-.68 6.27 6.27 0 0 0 1.3-2.82 13.5 13.5 0 0 0 .45-3 2.49 2.49 0 0 0-.43-1.64 1.44 1.44 0 0 0-1.15-.5 1.86 1.86 0 0 0-1 .27 2.72 2.72 0 0 0-.86.91 9.18 9.18 0 0 0-1 2.73 11.45 11.45 0 0 0-.3 2.46zM184.63 44.47a10.85 10.85 0 0 1 1.29-4.92 5.4 5.4 0 0 1 1-1.29 3.92 3.92 0 0 1 1-.69 2.8 2.8 0 0 1 1.12-.22 2.6 2.6 0 0 1 2 .9 3.75 3.75 0 0 1 .81 2.59 11 11 0 0 1-.56 3.46 6.6 6.6 0 0 1-1.84 3 3.1 3.1 0 0 1-2.06.77 2.56 2.56 0 0 1-2-.93 4 4 0 0 1-.76-2.67zm1.26.33a3 3 0 0 0 .32 1.52 1.41 1.41 0 0 0 1.3.75 1.83 1.83 0 0 0 1.37-.68 6.27 6.27 0 0 0 1.34-2.82 13.5 13.5 0 0 0 .45-3 2.49 2.49 0 0 0-.43-1.64 1.44 1.44 0 0 0-1.15-.5 1.86 1.86 0 0 0-1 .27 2.72 2.72 0 0 0-.86.91 9.18 9.18 0 0 0-1 2.73 11.45 11.45 0 0 0-.34 2.46z"/></svg>