<svg xmlns="http://www.w3.org/2000/svg" width="312" height="51.2" viewBox="0 0 312 51.2"><style>.st3{fill:none}.st4{fill:#fff}.st11{fill:#0e0e0e}.st12{font-family:&apos;IBMPlexSans-Bold&apos;}.st13{font-size:12.4841px}</style><g id="Layer_3"><path class="st4" d="M219.7 44.5H37.5c-.5 0-1 .2-1.4.5l-6.5 5.6c-.4.3-.9.5-1.4.5h-9.5c-.5 0-1-.2-1.4-.5L10.8 45c-.4-.3-.9-.5-1.4-.5H4.7c-2.5 0-4.5-2-4.5-4.5V4.5C0 2 2 0 4.5 0h4.7c.5 0 1 .2 1.4.5l6.5 5.6c.4.3.9.5 1.4.5H28c.5 0 1-.2 1.4-.5L35.9.5C36.5.2 37 0 37.6 0h188.8v8.2c0 .5-.2 1-.5 1.4l-5.6 6.5c-.3.4-.5.9-.5 1.4V27c0 .5.2 1 .5 1.4l5.6 6.5c.3.4.5.9.5 1.4v8l-6.7.2z"/><g id="logo_x2F_platforms_x2F_DBot_4_" transform="translate(16 8)"><g id="_x33_-icons_x2F_2-binarybot_4_"><g id="ic_platform-binarybot_4_"><path id="Rectangle_8_" d="M1.6 4.2H18c2.7 0 4.9 2.2 4.9 4.9v16.4c0 2.7-2.2 4.9-4.9 4.9H1.6c-2.7 0-4.9-2.2-4.9-4.9V9.1c0-2.7 2.2-4.9 4.9-4.9z" fill="#ff6444"/><path id="Path_16_" class="st3" d="M7.9 15.1c.4 0 .7-.3.7-.7s-.3-.7-.7-.7c-.4 0-.7.3-.7.7 0 .2.1.4.2.5.2.1.3.2.5.2z"/><path id="Path_15_" class="st4" d="M17.4 16.8V13c0-2.2-1.8-4-4-4h-3.2v7.7h7.2z"/><path id="Path_14_" class="st4" d="M10.3 25.5h3.2c2.2 0 4-1.8 4-4v-3.8h-7.1v7.8z"/><path id="Path_13_" class="st4" d="M6.3 15.6c-1.2 0-2.2-.9-2.3-2.2 0-1.2.8-2.3 2-2.4 1.2-.2 2.3.7 2.6 1.9h.7V9.1H6.2c-2.2 0-4 1.8-4 4v8.5c0 2.2 1.8 4 4 4h3.2V13.7h-.8c-.2 1.1-1.1 1.9-2.3 1.9z"/><path id="Rectangle_7_" class="st3" d="M-3.3 4.2h26.2v26.2H-3.3z"/></g></g></g><path class="st3" d="M50.4 10.5h155.9V39H50.4z"/><text transform="translate(50.392 19.695)"><tspan x="0" y="0" class="st11 st12 st13">Building a trading bot just </tspan><tspan x="0" y="15" class="st11 st12 st13">got simpler and better</tspan></text><path d="M230 44.6l76.9.2c2.8 0 5.1-2.3 5.1-5.1V5.1c0-2.8-2.3-5.1-5.1-5.1H230v8.4c0 .5-.2 1-.5 1.4l-5.2 6.4c-.3.4-.8.9-.8 1.4V27c0 .5.2 1 .5 1.4l5.5 6.5c.3.4.5.9.5 1.4v8.3z" fill="#ff444f"/><text transform="translate(229.186 25.07)" class="st4 st12" font-size="9.377">Try DBot on Deriv</text></g></svg>