<svg xmlns="http://www.w3.org/2000/svg" width="615" height="51" viewBox="0 0 615 51"><style>.st0{fill:#fff}.st1{fill:#0e0e0e}.st4{fill:none}</style><g id="Layer_3"><path class="st0" d="M474.3 44.4H37.4c-.5 0-1 .2-1.4.5l-6.5 5.6c-.4.3-.9.5-1.4.5h-9.5c-.5 0-1-.2-1.4-.5l-6.5-5.6c-.4-.3-.9-.5-1.4-.5H4.6c-2.5 0-4.5-2-4.5-4.5V4.5C.1 2 2.1 0 4.6 0h4.7c.5 0 1 .2 1.4.5l6.5 5.6c.4.3.9.5 1.4.5h9.5c.5 0 1-.2 1.4-.5L36 .5c.4-.3.9-.5 1.4-.5h443.5v8.2c0 .5-.2 1-.5 1.4l-5.6 6.5c-.3.4-.5.9-.5 1.4V27c0 .5.2 1 .5 1.4l5.6 6.5c.3.4.5.9.5 1.4v8l-6.6.1z"/><path class="st1" d="M54.9 29.2c-.8 0-1.4-.1-2-.4-.6-.2-1.1-.6-1.6-1.1s-.8-1.1-1-1.8c-.2-.7-.4-1.5-.4-2.5 0-.9.1-1.8.4-2.5.2-.7.6-1.3 1-1.8s.9-.9 1.6-1.1c.6-.3 1.3-.4 2-.4 1 0 1.9.2 2.6.6.7.4 1.2 1.1 1.6 2L57 21.4c-.2-.5-.4-.8-.7-1.1-.3-.3-.8-.4-1.4-.4-.7 0-1.3.2-1.7.7-.4.5-.6 1.1-.6 2v1.8c0 .9.2 1.6.6 2 .4.5 1 .7 1.7.7.6 0 1.1-.2 1.4-.5s.6-.7.8-1.2l2 1.2c-.4.9-1 1.5-1.6 2s-1.6.6-2.6.6zM60.7 29v-8.4H63v1.8h.1c0-.2.1-.5.2-.7s.2-.4.4-.6c.2-.2.4-.3.6-.4.2-.1.5-.2.9-.2h.4v2.2H65c-.7 0-1.2.1-1.5.3s-.5.5-.5 1v5h-2.3zM68.3 19.7c-.5 0-.8-.1-1-.3-.2-.2-.3-.5-.3-.8v-.4c0-.3.1-.6.3-.8.2-.2.6-.3 1-.3.5 0 .8.1 1 .3.2.2.3.5.3.8v.4c0 .3-.1.6-.3.8s-.5.3-1 .3zm-1.2.9h2.4V29h-2.4v-8.4zM77.9 29c-.4 0-.8-.1-1.1-.4-.3-.3-.5-.6-.5-1.1h-.1c-.1.5-.4 1-.8 1.2-.4.3-1 .4-1.6.4-.8 0-1.5-.2-1.9-.7-.4-.4-.7-1-.7-1.8 0-.9.3-1.5 1-2 .6-.4 1.5-.6 2.6-.6h1.3v-.5c0-.4-.1-.7-.3-1-.2-.2-.6-.4-1.1-.4-.5 0-.8.1-1.1.3-.3.2-.5.4-.7.7L71.5 22c.3-.5.8-.9 1.3-1.2.5-.3 1.2-.4 2.1-.4 1.2 0 2.1.3 2.7.8.6.5.9 1.3.9 2.3v3.7h.8V29h-1.4zm-3.3-1.5c.4 0 .7-.1 1-.3.3-.2.4-.4.4-.8v-1h-1.2c-.9 0-1.4.3-1.4.9v.2c0 .3.1.5.3.7.3.3.6.3.9.3zM80.8 29v-8.4h2.4v1.8h.1c0-.2.1-.5.2-.7s.2-.4.4-.6c.2-.2.4-.3.6-.4.2-.1.5-.2.9-.2h.4v2.2h-.6c-.7 0-1.2.1-1.5.3s-.5.5-.5 1v5h-2.4zM96 27.6c-.2.2-.3.4-.4.6-.1.2-.3.4-.5.5s-.4.3-.7.4c-.3.1-.6.1-.9.1-.9 0-1.5-.3-2-.9-.4-.6-.7-1.4-.7-2.5v-5.3h2.4v5.1c0 .5.1.9.3 1.2s.5.4.9.4c.2 0 .4 0 .5-.1.2-.1.3-.1.5-.2s.3-.2.3-.4c.1-.1.1-.3.1-.5v-5.5h2.4V29H96v-1.4zM100.6 29v-8.4h2.4V22h.1c.1-.4.4-.8.8-1.1.4-.3.9-.5 1.5-.5s1.1.1 1.5.4.7.7.9 1.3c.1-.2.2-.5.3-.7.2-.2.3-.4.6-.5s.5-.3.8-.4.6-.1.9-.1c.8 0 1.4.3 1.9.9.4.6.6 1.4.6 2.5V29h-2.4v-5.1c0-1.1-.4-1.6-1.2-1.6-.4 0-.7.1-1 .3-.3.2-.4.5-.4.9V29h-2.4v-5.1c0-1.1-.4-1.6-1.2-1.6-.2 0-.3 0-.5.1-.2 0-.3.1-.4.2-.1.1-.2.2-.3.4-.1.2-.1.3-.1.5V29h-2.4zM118.7 17.2h2.4V22h.1c.1-.5.4-.9.8-1.2.4-.3.9-.4 1.4-.4 1.1 0 1.9.4 2.4 1.1.5.7.8 1.8.8 3.3s-.3 2.5-.8 3.3c-.5.8-1.3 1.1-2.4 1.1-.3 0-.5 0-.8-.1s-.5-.2-.7-.3c-.2-.1-.4-.3-.5-.5l-.3-.6h-.1V29h-2.4V17.2zm3.9 10.1c.4 0 .8-.2 1.1-.5.3-.3.4-.7.4-1.3V24c0-.5-.1-1-.4-1.3-.3-.3-.7-.5-1.1-.5-.4 0-.8.1-1.1.3-.3.2-.4.5-.4.9V26c0 .4.1.7.4.9.3.3.6.4 1.1.4zM131.8 29.2c-.6 0-1.2-.1-1.7-.3-.5-.2-.9-.5-1.2-.9s-.6-.8-.8-1.4-.3-1.2-.3-1.8.1-1.3.3-1.8.4-1 .8-1.4.7-.7 1.2-.9c.5-.2 1-.3 1.7-.3.6 0 1.2.1 1.7.3.5.2.9.5 1.2.9s.6.8.8 1.4.3 1.2.3 1.8-.1 1.3-.3 1.8-.4 1-.8 1.4-.7.7-1.2.9c-.5.2-1.1.3-1.7.3zm0-1.9c.5 0 .8-.1 1.1-.4s.4-.7.4-1.2V24c0-.5-.1-.9-.4-1.2s-.6-.4-1.1-.4-.8.1-1.1.4-.4.7-.4 1.2v1.7c0 .5.1.9.4 1.2s.6.4 1.1.4zM140.3 29c-.8 0-1.4-.2-1.9-.6-.4-.4-.6-1-.6-1.8v-4.1h-1.2v-1.8h.6c.3 0 .5-.1.7-.2.1-.2.2-.4.2-.7v-1.4h2.1v2.3h1.7v1.8h-1.7v4.7h1.5V29h-1.4zM152.4 27.6c-.1.2-.2.4-.4.6-.1.2-.3.4-.5.5-.2.1-.4.3-.7.3-.3.1-.5.1-.8.1-1.1 0-1.9-.4-2.4-1.1-.5-.8-.8-1.8-.8-3.3s.3-2.5.8-3.3c.5-.7 1.3-1.1 2.4-1.1.5 0 1 .1 1.4.4.4.3.7.7.8 1.2h.1v-4.8h2.4V29h-2.4v-1.4zm-1.6-.3c.4 0 .8-.1 1.1-.3.3-.2.4-.5.4-.9v-2.5c0-.4-.1-.7-.4-.9-.3-.2-.7-.3-1.1-.3s-.8.2-1.1.5c-.3.3-.4.7-.4 1.3v1.5c0 .5.1 1 .4 1.3.3.1.7.3 1.1.3zM160.5 29.2c-.6 0-1.2-.1-1.7-.3-.5-.2-.9-.5-1.3-.9s-.6-.8-.8-1.4-.3-1.2-.3-1.8c0-.7.1-1.3.3-1.8.2-.5.4-1 .8-1.4.3-.4.7-.7 1.2-.9.5-.2 1-.3 1.7-.3s1.3.1 1.8.4c.5.2.9.5 1.2.9s.5.9.7 1.4c.1.5.2 1.1.2 1.6v.7h-5.4v.1c0 .5.1 1 .4 1.3.3.3.8.5 1.4.5.5 0 .9-.1 1.2-.3.3-.2.6-.4.9-.7l1.2 1.5c-.4.4-.9.8-1.5 1-.6.3-1.3.4-2 .4zm-.1-7c-.5 0-.9.2-1.1.5-.3.3-.4.7-.4 1.3h2.9v-.1c0-.5-.1-.9-.3-1.2-.3-.4-.6-.5-1.1-.5zM169.7 29v-8.4h2.4V22h.1c.1-.4.4-.8.8-1.1.4-.3.9-.5 1.6-.5.9 0 1.5.3 2 .9.4.6.7 1.4.7 2.5V29h-2.4v-5.1c0-.5-.1-.9-.3-1.2-.2-.3-.5-.4-.9-.4-.2 0-.4 0-.6.1-.2 0-.3.1-.5.2-.1.1-.3.2-.3.4-.1.2-.1.3-.1.5V29h-2.5zM182.8 29.2c-.6 0-1.2-.1-1.7-.3-.5-.2-.9-.5-1.3-.9s-.6-.8-.8-1.4-.3-1.2-.3-1.8c0-.7.1-1.3.3-1.8.2-.5.4-1 .8-1.4.3-.4.7-.7 1.2-.9.5-.2 1-.3 1.7-.3s1.3.1 1.8.4c.5.2.9.5 1.2.9s.5.9.7 1.4c.1.5.2 1.1.2 1.6v.7h-5.4v.1c0 .5.1 1 .4 1.3.3.3.8.5 1.4.5.5 0 .9-.1 1.2-.3.3-.2.6-.4.9-.7l1.2 1.5c-.4.4-.9.8-1.5 1-.6.3-1.3.4-2 .4zm-.1-7c-.5 0-.9.2-1.1.5-.3.3-.4.7-.4 1.3h2.9v-.1c0-.5-.1-.9-.3-1.2-.3-.4-.6-.5-1.1-.5zM196 29.6c0 .4-.1.8-.2 1.2-.2.3-.4.6-.8.9-.4.2-.8.4-1.4.5-.6.1-1.3.2-2.2.2-.7 0-1.3 0-1.8-.1s-.9-.2-1.2-.4c-.3-.2-.5-.4-.7-.6-.1-.2-.2-.5-.2-.8 0-.5.1-.8.4-1.1s.7-.4 1.2-.5v-.2c-.4-.1-.7-.2-.9-.5-.2-.3-.3-.6-.3-1 0-.2 0-.4.1-.6.1-.2.2-.3.4-.4.1-.1.3-.2.5-.3.2-.1.4-.1.6-.2v-.1c-.5-.2-.9-.6-1.1-1-.2-.4-.4-.9-.4-1.4 0-.9.3-1.5.9-2.1.6-.5 1.5-.8 2.7-.8.6 0 1 .1 1.4.2v-.3c0-.4.1-.8.3-1s.5-.3.9-.3h1.3v1.8h-1.9v.1c.5.2.9.6 1.1 1 .2.4.4.9.4 1.4 0 .8-.3 1.5-.9 2-.6.5-1.5.8-2.7.8-.5 0-1-.1-1.5-.2-.2.2-.4.4-.4.7 0 .2.1.4.2.5.2.1.4.2.8.2h2.4c1 0 1.8.2 2.2.6s.8 1 .8 1.8zm-2.2.3c0-.2-.1-.4-.3-.6s-.5-.2-1-.2h-2.9c-.1.1-.2.2-.2.4 0 .1-.1.3-.1.4 0 .3.1.5.4.7.3.1.7.2 1.4.2h1c.6 0 1.1-.1 1.4-.2.2-.1.3-.4.3-.7zm-2.3-5.4c.5 0 .8-.1 1-.3s.3-.5.3-.9v-.2c0-.4-.1-.7-.3-.8-.2-.2-.6-.3-1-.3s-.8.1-1 .3c-.2.2-.3.5-.3.8v.2c0 .4.1.7.3.9s.5.3 1 .3zM200.4 29.2c-.6 0-1.2-.1-1.7-.3-.5-.2-.9-.5-1.2-.9s-.6-.8-.8-1.4c-.2-.5-.3-1.2-.3-1.8s.1-1.3.3-1.8c.2-.5.4-1 .8-1.4s.7-.7 1.2-.9c.5-.2 1-.3 1.7-.3.6 0 1.2.1 1.7.3.5.2.9.5 1.2.9s.6.8.8 1.4c.2.5.3 1.2.3 1.8s-.1 1.3-.3 1.8c-.2.5-.4 1-.8 1.4s-.7.7-1.2.9c-.5.2-1.1.3-1.7.3zm0-1.9c.5 0 .8-.1 1.1-.4s.4-.7.4-1.2V24c0-.5-.1-.9-.4-1.2s-.6-.4-1.1-.4c-.5 0-.8.1-1.1.4-.3.3-.4.7-.4 1.2v1.7c0 .5.1.9.4 1.2.3.3.6.4 1.1.4zM209.4 29.2c-.6 0-1.2-.1-1.7-.3-.5-.2-.9-.5-1.2-.9-.3-.4-.6-.8-.8-1.4-.2-.5-.3-1.2-.3-1.8s.1-1.3.3-1.8c.2-.5.4-1 .8-1.4.3-.4.7-.7 1.2-.9.5-.2 1.1-.3 1.7-.3.9 0 1.6.2 2.1.6.6.4 1 .9 1.2 1.6l-1.9.8c-.1-.3-.2-.6-.5-.8-.2-.2-.6-.3-1-.3-.5 0-.8.2-1.1.5-.2.3-.4.7-.4 1.3v1.6c0 .5.1 1 .4 1.3.2.3.6.5 1.1.5.5 0 .8-.1 1-.4.2-.3.4-.5.5-.9l1.8.8c-.3.8-.7 1.4-1.3 1.8-.3.2-1.1.4-1.9.4zM215.5 19.7c-.5 0-.8-.1-1-.3s-.3-.5-.3-.8v-.4c0-.3.1-.6.3-.8.2-.2.6-.3 1-.3.5 0 .8.1 1 .3.2.2.3.5.3.8v.4c0 .3-.1.6-.3.8s-.5.3-1 .3zm-1.2.9h2.4V29h-2.4v-8.4zM225.1 29c-.4 0-.8-.1-1.1-.4-.3-.3-.5-.6-.5-1.1h-.1c-.1.5-.4 1-.8 1.2-.4.3-1 .4-1.6.4-.8 0-1.5-.2-1.9-.7-.4-.4-.7-1-.7-1.8 0-.9.3-1.5 1-2 .6-.4 1.5-.6 2.6-.6h1.3v-.5c0-.4-.1-.7-.3-1-.2-.2-.6-.4-1.1-.4-.5 0-.8.1-1.1.3-.3.2-.5.4-.7.7l-1.4-1.3c.3-.5.8-.9 1.3-1.2.5-.3 1.2-.4 2.1-.4 1.2 0 2.1.3 2.7.8.6.5.9 1.3.9 2.3V27h.8v2h-1.4zm-3.3-1.5c.4 0 .7-.1 1-.3.3-.2.4-.4.4-.8v-1H222c-.9 0-1.4.3-1.4.9v.2c0 .3.1.5.3.7.3.3.5.3.9.3zM231.4 20.4c.9 0 1.6.2 2.1.6.6.4 1 .9 1.2 1.6l-1.9.8c-.1-.3-.2-.6-.5-.8-.2-.2-.6-.3-1-.3-.5 0-.8.2-1.1.5s-.4.7-.4 1.3v1.6c0 .5.1 1 .4 1.3s.6.5 1.1.5c.5 0 .8-.1 1-.4.2-.2.4-.5.5-.9l1.8.8c-.3.8-.7 1.4-1.2 1.7-.6.4-1.2.6-2 .6l-.1.7.1.1c.1 0 .3-.1.4-.1h.4c.3 0 .6.1.8.3s.3.5.3.9c0 .3-.1.5-.2.7-.1.2-.3.3-.5.5-.2.1-.4.2-.7.2-.3 0-.5.1-.8.1-.6 0-1-.1-1.3-.2-.3-.2-.5-.3-.7-.5l.7-.9c.1.1.2.2.4.3s.4.1.6.1c.2 0 .4 0 .5-.1.1-.1.2-.2.2-.3v-.2c0-.1-.1-.1-.2-.2s-.2-.1-.4-.2c-.2 0-.4-.1-.6-.1h-.3l.2-1.1c-1-.2-1.7-.7-2.2-1.4-.5-.8-.8-1.7-.8-2.9 0-.7.1-1.3.3-1.8.2-.5.4-1 .8-1.4.3-.4.7-.7 1.2-.9.7-.4 1.2-.5 1.9-.5zM242.5 29c-.4 0-.8-.1-1.1-.4-.3-.3-.5-.6-.5-1.1h-.1c-.1.5-.4 1-.8 1.2-.4.3-1 .4-1.6.4-.8 0-1.5-.2-1.9-.7s-.7-1-.7-1.8c0-.9.3-1.5 1-2s1.5-.6 2.6-.6h1.3v-.5c0-.4-.1-.7-.3-1-.2-.2-.6-.4-1.1-.4-.5 0-.8.1-1.1.3-.3.2-.5.4-.7.7L236 22c.3-.5.8-.9 1.3-1.2.5-.3 1.2-.4 2.1-.4 1.2 0 2.1.3 2.7.8.6.5.9 1.3.9 2.3v3.7h.8V29h-1.3zm-1.8-9.6c-.2 0-.5 0-.6-.1-.2-.1-.4-.1-.6-.2-.2-.1-.4-.2-.6-.2-.2-.1-.4-.1-.6-.1-.2 0-.3 0-.5.1-.1.1-.3.2-.5.3l-.8-1.1c.2-.3.4-.5.7-.7.3-.2.7-.3 1.1-.3.2 0 .5 0 .6.1.2.1.4.1.6.2.2.1.4.2.6.2.2.1.4.1.6.1.2 0 .3 0 .5-.1.1-.1.3-.2.5-.3l.8 1.1c-.2.3-.4.5-.7.7s-.7.3-1.1.3zm-1.5 8.1c.4 0 .7-.1 1-.3.3-.2.4-.4.4-.8v-1h-1.2c-.9 0-1.4.3-1.4.9v.2c0 .3.1.5.3.7.2.3.5.3.9.3zM248.8 29.2c-.6 0-1.2-.1-1.7-.3-.5-.2-.9-.5-1.2-.9s-.6-.8-.8-1.4c-.2-.5-.3-1.2-.3-1.8s.1-1.3.3-1.8c.2-.5.4-1 .8-1.4s.7-.7 1.2-.9c.5-.2 1-.3 1.7-.3.6 0 1.2.1 1.7.3.5.2.9.5 1.2.9s.6.8.8 1.4c.2.5.3 1.2.3 1.8s-.1 1.3-.3 1.8c-.2.5-.4 1-.8 1.4s-.7.7-1.2.9c-.6.2-1.1.3-1.7.3zm0-1.9c.5 0 .8-.1 1.1-.4s.4-.7.4-1.2V24c0-.5-.1-.9-.4-1.2s-.6-.4-1.1-.4c-.5 0-.8.1-1.1.4-.3.3-.4.7-.4 1.2v1.7c0 .5.1.9.4 1.2.2.3.6.4 1.1.4zM258.6 22.4h-1.2v-1.8h1.2v-1c0-.8.2-1.4.6-1.8.4-.4 1.1-.6 1.9-.6h1.5V19h-1.7v1.6h5.4V29h-2.4v-6.6h-3V29h-2.4v-6.6zm6.5-2.7c-.5 0-.8-.1-1-.3-.2-.2-.3-.5-.3-.8v-.4c0-.3.1-.6.3-.8.2-.2.6-.3 1-.3.5 0 .8.1 1 .3.2.2.3.5.3.8v.4c0 .3-.1.6-.3.8s-.5.3-1 .3zM271.9 29.2c-.6 0-1.2-.1-1.7-.3-.5-.2-.9-.5-1.2-.9-.3-.4-.6-.8-.8-1.4s-.3-1.2-.3-1.8.1-1.3.3-1.8c.2-.5.4-1 .8-1.4.3-.4.7-.7 1.2-.9.5-.2 1.1-.3 1.7-.3.9 0 1.6.2 2.1.6.6.4 1 .9 1.2 1.6l-1.9.8c-.1-.3-.2-.6-.5-.8-.2-.2-.6-.3-1-.3-.5 0-.8.2-1.1.5-.2.3-.4.7-.4 1.3v1.6c0 .5.1 1 .4 1.3s.6.5 1.1.5c.5 0 .8-.1 1-.4.2-.3.4-.5.5-.9l1.8.8c-.3.8-.7 1.4-1.3 1.8-.4.2-1.1.4-1.9.4zM280.1 29.2c-.6 0-1.2-.1-1.7-.3-.5-.2-.9-.5-1.2-.9s-.6-.8-.8-1.4-.3-1.2-.3-1.8.1-1.3.3-1.8.4-1 .8-1.4.7-.7 1.2-.9c.5-.2 1-.3 1.7-.3.6 0 1.2.1 1.7.3.5.2.9.5 1.2.9s.6.8.8 1.4.3 1.2.3 1.8-.1 1.3-.3 1.8-.4 1-.8 1.4-.7.7-1.2.9c-.5.2-1.1.3-1.7.3zm0-1.9c.5 0 .8-.1 1.1-.4s.4-.7.4-1.2V24c0-.5-.1-.9-.4-1.2s-.6-.4-1.1-.4-.8.1-1.1.4-.4.7-.4 1.2v1.7c0 .5.1.9.4 1.2s.6.4 1.1.4zM290.7 27.6c-.2.2-.3.4-.4.6-.1.2-.3.4-.5.5-.2.1-.4.3-.7.4-.3.1-.6.1-.9.1-.9 0-1.5-.3-2-.9-.4-.6-.7-1.4-.7-2.5v-5.3h2.4v5.1c0 .5.1.9.3 1.2.2.3.5.4.9.4.2 0 .4 0 .5-.1.2-.1.3-.1.5-.2.1-.1.2-.2.3-.4.1-.1.1-.3.1-.5v-5.5h2.4V29h-2.4v-1.4zM299 29v-8.4h2.4V22h.1c.1-.4.4-.8.8-1.1.4-.3.9-.5 1.5-.5s1.1.1 1.5.4.7.7.9 1.3c.1-.2.2-.5.3-.7.2-.2.3-.4.6-.5s.5-.3.8-.4.6-.1.9-.1c.8 0 1.4.3 1.9.9.4.6.6 1.4.6 2.5V29h-2.4v-5.1c0-1.1-.4-1.6-1.2-1.6-.4 0-.7.1-1 .3-.3.2-.4.5-.4.9V29h-2.4v-5.1c0-1.1-.4-1.6-1.2-1.6-.2 0-.3 0-.5.1-.2 0-.3.1-.4.2-.1.1-.2.2-.3.4-.1.2-.1.3-.1.5V29H299zM319.5 29c-.4 0-.8-.1-1.1-.4-.3-.3-.5-.6-.5-1.1h-.1c-.1.5-.4 1-.8 1.2-.4.3-1 .4-1.6.4-.8 0-1.5-.2-1.9-.7s-.7-1-.7-1.8c0-.9.3-1.5 1-2s1.5-.6 2.6-.6h1.3v-.5c0-.4-.1-.7-.3-1-.2-.2-.6-.4-1.1-.4-.5 0-.8.1-1.1.3-.3.2-.5.4-.7.7l-1.4-1.3c.3-.5.8-.9 1.3-1.2.5-.3 1.2-.4 2.1-.4 1.2 0 2.1.3 2.7.8.6.5.9 1.3.9 2.3V27h.8v2h-1.4zm-3.2-1.5c.4 0 .7-.1 1-.3.3-.2.4-.4.4-.8v-1h-1.2c-.9 0-1.4.3-1.4.9v.2c0 .3.1.5.3.7.2.3.5.3.9.3zM323.6 19.7c-.5 0-.8-.1-1-.3s-.3-.5-.3-.8v-.4c0-.3.1-.6.3-.8.2-.2.6-.3 1-.3.5 0 .8.1 1 .3.2.2.3.5.3.8v.4c0 .3-.1.6-.3.8s-.5.3-1 .3zm-1.2.9h2.4V29h-2.4v-8.4zM329.9 29.2c-.8 0-1.5-.1-2-.4-.6-.3-1.1-.6-1.5-1.1l1.4-1.4c.3.3.6.6 1 .8.4.2.8.3 1.2.3.5 0 .8-.1 1-.2.2-.1.3-.3.3-.6 0-.4-.3-.6-.8-.7l-.9-.1c-1.9-.2-2.8-1.1-2.8-2.6 0-.4.1-.8.2-1.1.2-.3.4-.6.7-.9.3-.2.6-.4 1-.6.4-.1.9-.2 1.4-.2.4 0 .8 0 1.2.1.3.1.6.1.9.3.3.1.5.3.7.4.2.2.4.3.6.6l-1.4 1.4c-.3-.3-.6-.5-.9-.6-.3-.2-.7-.2-1-.2-.4 0-.7.1-.9.2-.2.1-.3.3-.3.5s.1.4.2.5c.1.1.4.2.7.3l.9.1c1.8.2 2.8 1.1 2.8 2.5 0 .4-.1.8-.3 1.1-.2.3-.4.6-.7.9-.3.2-.7.4-1.1.6-.6 0-1.1.1-1.6.1zM341.7 29.2c-.8 0-1.5-.1-2-.4-.6-.3-1.1-.6-1.5-1.1l1.4-1.4c.3.3.6.6 1 .8.4.2.8.3 1.2.3.5 0 .8-.1 1-.2.2-.1.3-.3.3-.6 0-.4-.3-.6-.8-.7l-.9-.1c-1.9-.2-2.8-1.1-2.8-2.6 0-.4.1-.8.2-1.1.2-.3.4-.6.7-.9.3-.2.6-.4 1-.6.4-.1.9-.2 1.4-.2.4 0 .8 0 1.2.1.3.1.6.1.9.3.3.1.5.3.7.4.2.2.4.3.6.6l-1.4 1.4c-.3-.3-.6-.5-.9-.6-.3-.2-.7-.2-1-.2-.4 0-.7.1-.9.2-.2.1-.3.3-.3.5s.1.4.2.5c.1.1.4.2.7.3l.9.1c1.8.2 2.8 1.1 2.8 2.5 0 .4-.1.8-.3 1.1-.2.3-.4.6-.7.9-.3.2-.7.4-1.1.6-.6 0-1.1.1-1.6.1zM348.1 19.7c-.5 0-.8-.1-1-.3s-.3-.5-.3-.8v-.4c0-.3.1-.6.3-.8.2-.2.6-.3 1-.3.5 0 .8.1 1 .3.2.2.3.5.3.8v.4c0 .3-.1.6-.3.8s-.5.3-1 .3zm-1.2.9h2.4V29h-2.4v-8.4zM351.5 29v-8.4h2.4V22h.1c.1-.4.4-.8.8-1.1s.9-.5 1.5-.5 1.1.1 1.5.4.7.7.9 1.3c.1-.2.2-.5.3-.7.2-.2.3-.4.6-.5.2-.1.5-.3.8-.4s.6-.1.9-.1c.8 0 1.4.3 1.9.9.4.6.6 1.4.6 2.5V29h-2.4v-5.1c0-1.1-.4-1.6-1.2-1.6-.4 0-.7.1-1 .3-.3.2-.4.5-.4.9V29h-2.4v-5.1c0-1.1-.4-1.6-1.2-1.6-.2 0-.3 0-.5.1-.2 0-.3.1-.4.2-.1.1-.2.2-.3.4-.1.2-.1.3-.1.5V29h-2.4zM365.8 20.6h2.4V22h.1c.1-.5.4-.9.8-1.2.4-.3.9-.4 1.4-.4 1.1 0 1.9.4 2.4 1.1.5.7.8 1.8.8 3.3s-.3 2.5-.8 3.3c-.5.8-1.3 1.1-2.4 1.1-.3 0-.5 0-.8-.1-.2-.1-.5-.2-.7-.3-.2-.1-.4-.3-.5-.5l-.3-.6h-.1v4.6h-2.4V20.6zm3.9 6.7c.4 0 .8-.2 1.1-.5.3-.3.4-.7.4-1.3V24c0-.5-.1-1-.4-1.3-.3-.3-.7-.5-1.1-.5-.4 0-.8.1-1.1.3-.3.2-.4.5-.4.9V26c0 .4.1.7.4.9.3.3.7.4 1.1.4zM377.9 29c-.8 0-1.4-.2-1.8-.6s-.6-1-.6-1.7v-9.5h2.4v10h1.1V29h-1.1zM383.9 29.2c-.6 0-1.2-.1-1.7-.3-.5-.2-.9-.5-1.3-.9s-.6-.8-.8-1.4-.3-1.2-.3-1.8c0-.7.1-1.3.3-1.8.2-.5.4-1 .8-1.4.3-.4.7-.7 1.2-.9.5-.2 1.1-.3 1.7-.3.7 0 1.3.1 1.8.4.5.2.9.5 1.2.9s.5.9.7 1.4c.1.5.2 1.1.2 1.6v.7h-5.4v.1c0 .5.1 1 .4 1.3.3.3.8.5 1.4.5.5 0 .9-.1 1.2-.3.3-.2.6-.4.9-.7l1.2 1.5c-.4.4-.9.8-1.5 1s-1.3.4-2 .4zm-.1-7c-.5 0-.9.2-1.1.5-.3.3-.4.7-.4 1.3h2.9v-.1c0-.5-.1-.9-.3-1.2s-.6-.5-1.1-.5zM392.2 29.2c-.8 0-1.5-.1-2-.4-.6-.3-1.1-.6-1.5-1.1l1.4-1.4c.3.3.6.6 1 .8.4.2.8.3 1.2.3.5 0 .8-.1 1-.2.2-.1.3-.3.3-.6 0-.4-.3-.6-.8-.7l-.9-.1c-1.9-.2-2.8-1.1-2.8-2.6 0-.4.1-.8.2-1.1s.4-.6.7-.9c.3-.2.6-.4 1-.6.4-.1.9-.2 1.4-.2.4 0 .8 0 1.2.1s.6.1.9.3.5.3.7.4c.2.2.4.3.6.6l-1.4 1.4c-.3-.3-.6-.5-.9-.6-.3-.2-.7-.2-1-.2-.4 0-.7.1-.9.2-.2.1-.3.3-.3.5s.1.4.2.5c.1.1.4.2.7.3l.9.1c1.8.2 2.8 1.1 2.8 2.5 0 .4-.1.8-.3 1.1-.2.3-.4.6-.7.9-.3.2-.7.4-1.1.6-.6 0-1 .1-1.6.1zM404.7 29.2c-.6 0-1.2-.1-1.7-.3-.5-.2-.9-.5-1.3-.9s-.6-.8-.8-1.4-.3-1.2-.3-1.8c0-.7.1-1.3.3-1.8.2-.5.4-1 .8-1.4.3-.4.7-.7 1.2-.9.5-.2 1.1-.3 1.7-.3.7 0 1.3.1 1.8.4.5.2.9.5 1.2.9s.5.9.7 1.4c.1.5.2 1.1.2 1.6v.7h-5.4v.1c0 .5.1 1 .4 1.3.3.3.8.5 1.4.5.5 0 .9-.1 1.2-.3.3-.2.6-.4.9-.7l1.2 1.5c-.4.4-.9.8-1.5 1s-1.2.4-2 .4zm0-7c-.5 0-.9.2-1.1.5-.3.3-.4.7-.4 1.3h2.9v-.1c0-.5-.1-.9-.3-1.2s-.7-.5-1.1-.5zM414 29v-8.4h2.4V22h.1c.1-.4.4-.8.8-1.1s.9-.5 1.5-.5 1.1.1 1.5.4.7.7.9 1.3c.1-.2.2-.5.3-.7.2-.2.3-.4.6-.5.2-.1.5-.3.8-.4s.6-.1.9-.1c.8 0 1.4.3 1.9.9.4.6.6 1.4.6 2.5V29h-2.4v-5.1c0-1.1-.4-1.6-1.2-1.6-.4 0-.7.1-1 .3-.3.2-.4.5-.4.9V29h-2.4v-5.1c0-1.1-.4-1.6-1.2-1.6-.2 0-.3 0-.5.1-.2 0-.3.1-.4.2-.1.1-.2.2-.3.4-.1.2-.1.3-.1.5V29H414zM431.8 29.2c-.6 0-1.2-.1-1.7-.3-.5-.2-.9-.5-1.3-.9s-.6-.8-.8-1.4-.3-1.2-.3-1.8c0-.7.1-1.3.3-1.8.2-.5.4-1 .8-1.4.3-.4.7-.7 1.2-.9.5-.2 1.1-.3 1.7-.3.7 0 1.3.1 1.8.4.5.2.9.5 1.2.9s.5.9.7 1.4c.1.5.2 1.1.2 1.6v.7h-5.4v.1c0 .5.1 1 .4 1.3.3.3.8.5 1.4.5.5 0 .9-.1 1.2-.3.3-.2.6-.4.9-.7l1.2 1.5c-.4.4-.9.8-1.5 1s-1.3.4-2 .4zm-.1-7c-.5 0-.9.2-1.1.5-.3.3-.4.7-.4 1.3h2.9v-.1c0-.5-.1-.9-.3-1.2s-.6-.5-1.1-.5zM439.6 29c-.8 0-1.4-.2-1.8-.6s-.6-1-.6-1.7v-9.5h2.4v10h1.1V29h-1.1zM442.1 17.2h2.4V22h.1c.1-.4.4-.8.8-1.1.4-.3.9-.5 1.6-.5.9 0 1.5.3 2 .9.4.6.7 1.4.7 2.5V29h-2.4v-5.1c0-.5-.1-.9-.3-1.2-.2-.3-.5-.4-.9-.4-.2 0-.4 0-.6.1-.2 0-.3.1-.5.2-.1.1-.3.2-.3.4-.1.2-.1.3-.1.5V29h-2.4V17.2zM455.1 29.2c-.6 0-1.2-.1-1.7-.3-.5-.2-.9-.5-1.2-.9s-.6-.8-.8-1.4-.3-1.2-.3-1.8.1-1.3.3-1.8.4-1 .8-1.4.7-.7 1.2-.9c.5-.2 1-.3 1.7-.3.6 0 1.2.1 1.7.3.5.2.9.5 1.2.9s.6.8.8 1.4.3 1.2.3 1.8-.1 1.3-.3 1.8-.4 1-.8 1.4-.7.7-1.2.9c-.6.2-1.1.3-1.7.3zm0-1.9c.5 0 .8-.1 1.1-.4.3-.3.4-.7.4-1.2V24c0-.5-.1-.9-.4-1.2-.3-.3-.6-.4-1.1-.4-.5 0-.8.1-1.1.4s-.4.7-.4 1.2v1.7c0 .5.1.9.4 1.2s.6.4 1.1.4zM460.7 29v-8.4h2.4v1.8h.1c0-.2.1-.5.2-.7.1-.2.2-.4.4-.6s.4-.3.6-.4.5-.2.9-.2h.4v2.2h-.6c-.7 0-1.2.1-1.5.3s-.5.5-.5 1v5h-2.4z"/><path d="M484.4 44.8l125.3.2c2.8 0 5.1-2.3 5.1-5.1V5.1c0-2.8-2.3-5.1-5.1-5.1H484.4v8.4c0 .5-.2 1-.5 1.4l-5.2 6.4c-.3.4-.8.9-.8 1.4V27c0 .5.2 1 .5 1.4l5.5 6.5c.3.4.5.9.5 1.4v8.5z" fill="#ff444f"/><g><path class="st0" d="M499.3 19.9v-9.1h6.2v1.8h-4.2v1.8h3.6v1.8h-3.6v2h4.2V20h-6.2zM506.4 19.9l2.2-3.5-2.2-3.4h2.2l1.3 2.1h.1l1.2-2.1h2l-2.3 3.4 2.3 3.4H511l-1.3-2.2h-.1l-1.3 2.2h-1.9zM514.4 13.1h1.9v1.1h.1c.1-.4.3-.7.7-.9.3-.2.7-.4 1.2-.4.9 0 1.5.3 2 .9.4.6.7 1.5.7 2.7 0 1.2-.2 2-.7 2.7-.4.6-1.1.9-2 .9-.2 0-.4 0-.6-.1s-.4-.2-.5-.3c-.2-.1-.3-.3-.4-.4s-.2-.3-.2-.5h-.1v3.7h-1.9v-9.4zm3.2 5.4c.4 0 .7-.1.9-.4.2-.3.4-.6.4-1v-1.2c0-.4-.1-.8-.4-1-.2-.3-.5-.4-.9-.4s-.7.1-.9.3-.4.4-.4.7v2c0 .3.1.6.4.7s.5.3.9.3zM525.1 20.1c-.5 0-1-.1-1.4-.3-.4-.2-.8-.4-1-.7s-.5-.7-.6-1.1c-.1-.4-.2-.9-.2-1.5 0-.5.1-1 .2-1.5s.3-.8.6-1.1c.3-.3.6-.6 1-.7s.9-.3 1.4-.3c.6 0 1 .1 1.4.3.4.2.7.4 1 .8.3.3.4.7.6 1.1.1.4.2.9.2 1.3v.6h-4.4v.1c0 .4.1.8.4 1.1.2.3.6.4 1.1.4.4 0 .7-.1 1-.2.3-.2.5-.4.7-.6l1 1.2c-.3.4-.7.6-1.2.8-.6.2-1.1.3-1.8.3zm0-5.7c-.4 0-.7.1-.9.4-.2.3-.3.6-.3 1v.1h2.4v-.1c0-.4-.1-.8-.3-1-.2-.3-.5-.4-.9-.4zM529.6 19.9v-6.8h1.9v1.5h.1c0-.2.1-.4.2-.6.1-.2.2-.3.3-.5.1-.1.3-.2.5-.3.2-.1.4-.1.7-.1h.3v1.8h-.5c-.6 0-1 .1-1.3.2-.3.1-.4.4-.4.8v4h-1.8zM535.8 12.4c-.4 0-.7-.1-.9-.3-.2-.2-.3-.4-.3-.7v-.3c0-.3.1-.5.3-.7.2-.2.5-.3.9-.3s.7.1.9.3c.2.2.3.4.3.7v.3c0 .3-.1.5-.3.7-.2.2-.5.3-.9.3zm-1 .7h1.9v6.8h-1.9v-6.8zM538.6 19.9v-6.8h1.9v1.2h.1c.1-.4.3-.7.6-.9.3-.3.7-.4 1.2-.4s.9.1 1.2.4.6.6.7 1c.1-.2.2-.4.3-.5.1-.2.3-.3.5-.4l.6-.3c.2-.1.5-.1.7-.1.7 0 1.2.2 1.5.7.4.5.5 1.1.5 2v4.3h-1.9V16c0-.9-.3-1.3-.9-1.3-.3 0-.5.1-.8.2s-.4.4-.4.8v4.4h-1.9V16c0-.9-.3-1.3-.9-1.3-.1 0-.3 0-.4.1-.1 0-.3.1-.4.2l-.3.3c-.1.1-.1.3-.1.4v4.4h-1.8zM553 20.1c-.5 0-1-.1-1.4-.3-.4-.2-.8-.4-1-.7s-.5-.7-.6-1.1c-.1-.4-.2-.9-.2-1.5 0-.5.1-1 .2-1.5s.3-.8.6-1.1c.3-.3.6-.6 1-.7s.9-.3 1.4-.3c.6 0 1 .1 1.4.3.4.2.7.4 1 .8.3.3.4.7.6 1.1.1.4.2.9.2 1.3v.6h-4.4v.1c0 .4.1.8.4 1.1.2.3.6.4 1.1.4.4 0 .7-.1 1-.2.3-.2.5-.4.7-.6l1 1.2c-.3.4-.7.6-1.2.8-.6.2-1.1.3-1.8.3zm0-5.7c-.4 0-.7.1-.9.4-.2.3-.3.6-.3 1v.1h2.4v-.1c0-.4-.1-.8-.3-1-.2-.3-.5-.4-.9-.4zM557.5 19.9v-6.8h1.9v1.2h.1c.1-.4.3-.7.6-.9.3-.3.7-.4 1.3-.4.7 0 1.2.2 1.6.7.4.5.5 1.1.5 2V20h-1.9v-4.1c0-.4-.1-.8-.2-1s-.4-.3-.7-.3c-.2 0-.3 0-.5.1-.1 0-.3.1-.4.2l-.3.3c-.1.1-.1.3-.1.4V20h-1.9zM567.6 19.9c-.7 0-1.2-.2-1.5-.5-.3-.3-.5-.8-.5-1.5v-3.3h-1v-1.5h.5c.3 0 .4-.1.5-.2.1-.1.1-.3.1-.5v-1.1h1.7v1.8h1.4v1.5h-1.4v3.8h1.2v1.5h-1zM573.1 20.1c-.5 0-1-.1-1.4-.3-.4-.2-.8-.4-1-.7s-.5-.7-.6-1.1c-.1-.4-.2-.9-.2-1.5 0-.5.1-1 .2-1.5s.3-.8.6-1.1c.3-.3.6-.6 1-.7s.9-.3 1.4-.3c.6 0 1 .1 1.4.3.4.2.7.4 1 .8.3.3.4.7.6 1.1.1.4.2.9.2 1.3v.6h-4.4v.1c0 .4.1.8.4 1.1.2.3.6.4 1.1.4.4 0 .7-.1 1-.2.3-.2.5-.4.7-.6l1 1.2c-.3.4-.7.6-1.2.8-.7.2-1.2.3-1.8.3zm-.1-5.7c-.4 0-.7.1-.9.4-.2.3-.3.6-.3 1v.1h2.4v-.1c0-.4-.1-.8-.3-1-.2-.3-.5-.4-.9-.4zM502 35.7c-.5 0-1-.1-1.3-.2s-.7-.4-1-.7c-.3-.3-.5-.7-.6-1.1-.1-.4-.2-.9-.2-1.5 0-.5.1-1 .2-1.5.1-.4.4-.8.6-1.1.3-.3.6-.5 1-.7s.8-.2 1.3-.2 1 .1 1.3.2.7.4 1 .7c.3.3.5.7.6 1.1s.2.9.2 1.5c0 .5-.1 1-.2 1.5s-.4.8-.6 1.1c-.3.3-.6.6-1 .7s-.8.2-1.3.2zm0-1.5c.4 0 .7-.1.9-.4.2-.2.3-.6.3-1v-1.4c0-.4-.1-.8-.3-1s-.5-.4-.9-.4-.7.1-.9.4-.3.6-.3 1v1.4c0 .4.1.8.3 1 .2.2.5.4.9.4zM509.7 26.4h3.4c.6 0 1.1.1 1.6.3.5.2.9.5 1.3.9s.6.8.8 1.4c.2.6.3 1.2.3 2s-.1 1.4-.3 2c-.2.6-.5 1-.8 1.4s-.8.7-1.3.9c-.5.2-1 .3-1.6.3h-3.4v-9.2zm3.4 7.4c.6 0 1.1-.2 1.4-.5.3-.3.5-.9.5-1.6v-1.4c0-.7-.2-1.3-.5-1.6-.3-.3-.8-.5-1.4-.5h-1.4v5.6h1.4zM518.7 25.9h1.9v3.9h.1c.1-.4.3-.7.7-.9.3-.2.7-.4 1.2-.4.9 0 1.5.3 2 .9.4.6.7 1.5.7 2.7 0 1.2-.2 2-.7 2.7-.4.6-1.1.9-2 .9-.2 0-.4 0-.6-.1s-.4-.2-.5-.3c-.2-.1-.3-.3-.4-.4s-.2-.3-.2-.5h-.1v1.1h-1.9v-9.6zm3.2 8.2c.4 0 .7-.1.9-.4.2-.3.4-.6.4-1v-1.2c0-.4-.1-.8-.4-1-.2-.3-.5-.4-.9-.4s-.7.1-.9.3-.4.4-.4.7v2c0 .3.1.6.4.7s.5.3.9.3zM529.3 35.7c-.5 0-1-.1-1.3-.2s-.7-.4-1-.7c-.3-.3-.5-.7-.6-1.1-.1-.4-.2-.9-.2-1.5 0-.5.1-1 .2-1.5.1-.4.4-.8.6-1.1.3-.3.6-.5 1-.7s.8-.2 1.3-.2 1 .1 1.3.2.7.4 1 .7c.3.3.5.7.6 1.1s.2.9.2 1.5c0 .5-.1 1-.2 1.5s-.4.8-.6 1.1c-.3.3-.6.6-1 .7s-.7.2-1.3.2zm0-1.5c.4 0 .7-.1.9-.4.2-.2.3-.6.3-1v-1.4c0-.4-.1-.8-.3-1s-.5-.4-.9-.4-.7.1-.9.4-.3.6-.3 1v1.4c0 .4.1.8.3 1 .3.2.6.4.9.4zM536.3 35.5c-.7 0-1.2-.2-1.5-.5-.3-.3-.5-.8-.5-1.5v-3.3h-1v-1.5h.5c.3 0 .4-.1.5-.2.1-.1.1-.3.1-.5v-1.1h1.7v1.8h1.4v1.5h-1.4V34h1.2v1.5h-1zM542 35.5v-6.8h1.9v1.2h.1c.1-.4.3-.7.6-.9.3-.3.7-.4 1.3-.4.7 0 1.2.2 1.6.7.4.5.5 1.1.5 2v4.3h-1.9v-4.1c0-.4-.1-.8-.2-1s-.4-.3-.7-.3c-.2 0-.3 0-.5.1-.1 0-.3.1-.4.2l-.3.3c-.1.1-.1.3-.1.4v4.4H542zM554.8 35.5c-.3 0-.6-.1-.9-.3-.2-.2-.4-.5-.4-.9h-.1c-.1.4-.3.8-.7 1s-.8.3-1.3.3c-.7 0-1.2-.2-1.6-.5-.4-.4-.5-.8-.5-1.4 0-.7.3-1.3.8-1.6.5-.3 1.2-.5 2.1-.5h1.1v-.4c0-.3-.1-.6-.3-.8-.2-.2-.5-.3-.9-.3s-.7.1-.9.2l-.6.6-1.1-1c.3-.4.6-.7 1-1 .4-.2 1-.3 1.7-.3 1 0 1.7.2 2.2.6.5.4.7 1 .7 1.9v3h.6v1.5h-.9zm-2.7-1.2c.3 0 .6-.1.8-.2s.3-.4.3-.7v-.8h-.9c-.8 0-1.1.3-1.1.8v.2c0 .2.1.4.2.5.2.2.4.2.7.2zM560.3 26.4h3.4c.6 0 1.1.1 1.6.3.5.2.9.5 1.3.9s.6.8.8 1.4c.2.6.3 1.2.3 2s-.1 1.4-.3 2c-.2.6-.5 1-.8 1.4s-.8.7-1.3.9c-.5.2-1 .3-1.6.3h-3.4v-9.2zm3.4 7.4c.6 0 1.1-.2 1.4-.5.3-.3.5-.9.5-1.6v-1.4c0-.7-.2-1.3-.5-1.6-.3-.3-.8-.5-1.4-.5h-1.4v5.6h1.4zM572.1 35.7c-.5 0-1-.1-1.4-.3-.4-.2-.8-.4-1-.7s-.5-.7-.6-1.1c-.1-.4-.2-.9-.2-1.5 0-.5.1-1 .2-1.5s.3-.8.6-1.1c.3-.3.6-.6 1-.7s.9-.3 1.4-.3c.6 0 1 .1 1.4.3.4.2.7.4 1 .8.3.3.4.7.6 1.1.1.4.2.9.2 1.3v.6h-4.4v.1c0 .4.1.8.4 1.1.2.3.6.4 1.1.4.4 0 .7-.1 1-.2.3-.2.5-.4.7-.6l1 1.2c-.3.4-.7.6-1.2.8-.6.2-1.2.3-1.8.3zM572 30c-.4 0-.7.1-.9.4-.2.3-.3.6-.3 1v.1h2.4v-.1c0-.4-.1-.8-.3-1-.2-.3-.5-.4-.9-.4zM576.5 35.5v-6.8h1.9v1.5h.1c0-.2.1-.4.2-.6.1-.2.2-.3.3-.5.1-.1.3-.2.5-.3.2-.1.4-.1.7-.1h.3v1.8h-.5c-.6 0-1 .1-1.3.2-.3.1-.4.4-.4.8v4h-1.8zM582.8 28c-.4 0-.7-.1-.9-.3-.2-.2-.3-.4-.3-.7v-.3c0-.3.1-.5.3-.7.2-.2.5-.3.9-.3s.7.1.9.3c.2.2.3.4.3.7v.3c0 .3-.1.5-.3.7-.3.2-.6.3-.9.3zm-1 .7h1.9v6.8h-1.9v-6.8zM587 35.5l-2.2-6.8h1.9l.8 2.8.6 2.5h.1l.6-2.5.8-2.8h1.8l-2.2 6.8H587z"/></g><g id="logo_x2F_platforms_x2F_DBot_2_" transform="translate(16 8)"><g id="_x33_-icons_x2F_2-binarybot_2_"><g id="ic_platform-binarybot_2_"><path id="Rectangle_4_" d="M.8 3.6h16.4c2.7 0 4.9 2.2 4.9 4.9v16.4c0 2.7-2.2 4.9-4.9 4.9H.8c-2.7 0-4.9-2.2-4.9-4.9V8.5c0-2.7 2.2-4.9 4.9-4.9z" fill="#f16447"/><path id="Path_8_" class="st4" d="M7.1 14.5c.4 0 .7-.3.7-.7s-.3-.7-.7-.7c-.4 0-.7.3-.7.7 0 .2.1.4.2.5.2.1.4.2.5.2z"/><path id="Path_3_" class="st0" d="M16.6 16.2v-3.8c0-2.2-1.8-4-4-4H9.5v7.7h7.1z"/><path id="Path_2_" class="st0" d="M9.5 24.9h3.2c2.2 0 4-1.8 4-4v-3.8H9.5v7.8z"/><path id="Path_1_" class="st0" d="M5.6 15c-1.2 0-2.2-.9-2.3-2.2-.1-1.2.8-2.3 2-2.4 1.2-.2 2.3.7 2.6 1.9h.7V8.5H5.4c-2.2 0-4 1.8-4 4V21c0 2.2 1.8 4 4 4h3.2V13.1h-.8C7.6 14.2 6.7 15 5.6 15z"/><path id="Rectangle_3_" class="st4" d="M-4.1 3.6h26.2v26.2H-4.1z"/></g></g></g></g></svg>