<svg width="40" height="40" viewBox="0 0 40 40" fill="none" xmlns="http://www.w3.org/2000/svg">
<rect width="40" height="40" rx="20" fill="#333333"/>
<path d="M31.4704 14.6621C31.3327 14.1475 31.0641 13.6784 30.6915 13.3015C30.3188 12.9246 29.855 12.653 29.3462 12.5137C27.4838 12 19.9879 12 19.9879 12C19.9879 12 12.4919 12.0156 10.6295 12.5293C10.1207 12.6685 9.65692 12.9401 9.28424 13.3171C8.91157 13.694 8.64303 14.1631 8.50536 14.6777C7.94201 18.0247 7.72344 23.1247 8.52075 26.3379C8.65842 26.8525 8.92696 27.3216 9.29964 27.6985C9.67231 28.0754 10.1361 28.347 10.6449 28.4863C12.5073 29 20.0033 29 20.0033 29C20.0033 29 27.4992 29 29.3616 28.4863C29.8704 28.347 30.3342 28.0754 30.7069 27.6985C31.0795 27.3216 31.3481 26.8525 31.4857 26.3379C32.0799 22.9862 32.2631 17.8893 31.4704 14.6621Z" fill="white"/>
<path d="M17.6021 24.1428L23.8205 20.5L17.6021 16.8571V24.1428Z" fill="#333333"/>
</svg>
