<svg xmlns="http://www.w3.org/2000/svg" width="32" height="32"><g fill="none" fill-rule="evenodd"><rect width="32" height="32" fill="#FF6444" fill-rule="nonzero" rx="6"/><path d="M13.72 13.26a.845.845 0 100-1.69.845.845 0 000 1.69z"/><path fill="#FFF" fill-rule="nonzero" d="M25.26 15.43v-4.6A4.84 4.84 0 0020.43 6h-3.86v9.43h8.69zM16.57 26h3.86a4.84 4.84 0 004.83-4.83v-4.6h-8.69V26zm-4.775-12.1a2.825 2.825 0 112.77-3.36h.865V6h-3.86a4.84 4.84 0 00-4.83 4.83v10.34A4.84 4.84 0 0011.57 26h3.86V11.605h-.865a2.825 2.825 0 01-2.77 2.295z"/><path d="M0 0h32v32H0z"/></g></svg>