<svg width="32" height="32" fill="none" xmlns="http://www.w3.org/2000/svg"><path d="M0 3a3 3 0 013-3h9a3 3 0 013 3v9a3 3 0 01-3 3H3a3 3 0 01-3-3V3z" fill="#FF444F"/><path fill-rule="evenodd" clip-rule="evenodd" d="M3.168 4.365l.5-1.561L7.44 7.44l-3.874 4.71-.402-1.673 2.5-3.042-2.496-3.07zM4.43 2.804h2.785a4.631 4.631 0 014.575 4.673 4.631 4.631 0 01-4.58 4.673H4.33l1.13-1.373h1.75a3.271 3.271 0 000-6.543H5.596L4.43 2.804z" fill="#fff"/><path d="M17 3a3 3 0 013-3h9a3 3 0 013 3v9a3 3 0 01-3 3h-9a3 3 0 01-3-3V3z" fill="#2A3052"/><path fill-rule="evenodd" clip-rule="evenodd" d="M22.569 5.333a1.618 1.618 0 00.881 2.03l1.104.496.35 1.728-2.058-.933a3.034 3.034 0 012.025-5.683c.166.041.328.097.485.166l2.104.957-1.617.794-1.062-.482a1.572 1.572 0 00-.243-.082 1.618 1.618 0 00-1.97 1.01zm1.543.118l2.059.933a3.03 3.03 0 01-2.506 5.514l-2.106-.957 1.617-.794 1.052.484c.078.034.16.062.243.082a1.618 1.618 0 001.088-3.038l-1.106-.507-.341-1.717z" fill="#fff"/><path d="M17 20a3 3 0 013-3h9a3 3 0 013 3v9a3 3 0 01-3 3h-9a3 3 0 01-3-3v-9z" fill="#FF6444"/><path fill-rule="evenodd" clip-rule="evenodd" d="M21.206 22.277a1.324 1.324 0 002.621.163h.406v6.747h-1.81a2.269 2.269 0 01-2.264-2.264v-4.846a2.269 2.269 0 012.264-2.265h1.81v2.129h-.406a1.324 1.324 0 00-2.621.336zm7.635 1.956v-2.156a2.269 2.269 0 00-2.264-2.265h-1.81v4.42h4.074zm-4.074 4.954h1.81a2.269 2.269 0 002.264-2.264v-2.156h-4.074v4.42z" fill="#fff"/><path d="M0 20a3 3 0 013-3h9a3 3 0 013 3v9a3 3 0 01-3 3H3a3 3 0 01-3-3v-9z" fill="#2A3052"/><path fill-rule="evenodd" clip-rule="evenodd" d="M8.173 24.548a.209.209 0 00-.067-.138.516.516 0 01-.038-.041.86.86 0 00-.08-.084c-.447-.474-.392-.779-.386-.81v-.002a.652.652 0 00-.244-.513l-.023-.029a.116.116 0 01-.016-.016c.237.066.477.117.72.154.108.02.218.026.328.018.243 0 .435-.029.448-.085a3.194 3.194 0 01-.646-.19l-.009-.003c-.23-.088-.268-.103-.418-.153a5.506 5.506 0 01-.407-.156l.23.061c.66.176.923.246 1.27.252.097.002.194-.007.288-.028.056 0 .225-.047.244-.106a1.405 1.405 0 01-.475-.075 6.355 6.355 0 01-1.108-.464c-.15-.079-.29-.152-.499-.234a4.782 4.782 0 00-.827-.26 1.579 1.579 0 00-.712 0c-.744-.175-.913-.156-1.131-.108a3.765 3.765 0 012.433-.571v-1.675H4.792a2.5 2.5 0 00-2.5 2.5v5.416a2.5 2.5 0 002.5 2.5h2.26v-1.806c-.094-.017-.179-.03-.254-.042-.247-.04-.401-.064-.5-.133-.04-.025-.165-.092-.194-.075a.355.355 0 01-.427-.027.32.32 0 01-.04-.035.302.302 0 01-.058-.417c.04-.042-.031-.156-.031-.156s-.208-.31-.35-.496a1.417 1.417 0 01-.18-.613 1.734 1.734 0 01-.226-.343.855.855 0 00-.123-.148.79.79 0 01-.073-.082.035.035 0 010-.027.877.877 0 01.244-.306c.05-.033.264-.162.264-.162a.417.417 0 01.313-.19c.212-.012.425.02.625.094l.133.041c.196.064.388.139.575.223.104.048.21.089.319.123.275.073.762-.15.864-.244.167-.152.238-.254.24-.34zm-1.28-1.298l-.135-.177a1.008 1.008 0 01.57.612c-.549.132-.434-.435-.434-.435zm2.272 4.26a3.733 3.733 0 001.235-2.563h2.308v2.261a2.5 2.5 0 01-2.5 2.5h-2.26v-1.666c.45-.047.876-.233 1.217-.532zM5.457 26.3a.86.86 0 01-.134-.342c.481-.033.302.417.302.417l.096.18a.86.86 0 01-.264-.255zm2.49-7.008h2.261a2.5 2.5 0 012.5 2.5v2.254h-2.35a3.699 3.699 0 00-.566-1.421l-.023-.02a3.866 3.866 0 00-.46-.555 3.712 3.712 0 00-1.361-.87v-1.888z" fill="#fff"/></svg>