<svg width="32" height="32" fill="none" xmlns="http://www.w3.org/2000/svg"><path d="M0 6a6 6 0 016-6h20a6 6 0 016 6v20a6 6 0 01-6 6H6a6 6 0 01-6-6V6z" fill="#1A1A1A"/><path d="M6.705 10.5l4.212 5.5-6.75 5.5h6.822a4.278 4.278 0 004.167-3.316l.565-2.447a4.275 4.275 0 00-4.167-5.237H6.705z" fill="#ff444f"/><path d="M10.917 16l-3 5.5h-3.75l6.75-5.5z" fill="#CC2F3E"/><path d="M20.526 10.5H17.27l2.563 5.5-4.503 5.5h3.258l4.5-5.5-2.562-5.5zM24.702 10.5h3.295l-3.907 4.726-1.181-2.535 1.793-2.191zM22.76 21.5l-1.019-2.189 2.076-2.535 2.201 4.724H22.76z" fill="#fff"/><defs><linearGradient id="paint0_linear" x1="11.536" y1="8.605" x2="9.345" y2="22.425" gradientUnits="userSpaceOnUse"><stop stop-color="#F26447"/><stop offset="1" stop-color="#EF4852"/></linearGradient></defs></svg>