<svg width="32" height="32" fill="none" xmlns="http://www.w3.org/2000/svg"><path d="M0 6a6 6 0 016-6h20a6 6 0 016 6v20a6 6 0 01-6 6H6a6 6 0 01-6-6V6z" fill="#FF6444"/><path fill-rule="evenodd" clip-rule="evenodd" d="M6.322 20.66a1.854 1.854 0 002.996-2.092l4.231-4.232a1.854 1.854 0 001.556 0l2.559 2.559a1.854 1.854 0 002.995 2.092 1.854 1.854 0 00.368-2.092l2.559-2.56a1.854 1.854 0 002.092-2.995 1.854 1.854 0 00-2.996 2.092l-2.559 2.56a1.854 1.854 0 00-1.556 0l-2.559-2.56a1.854 1.854 0 10-3.362 0l-4.232 4.232a1.854 1.854 0 00-2.092 2.996z" fill="#fff"/></svg>