<svg width="32" height="32" fill="none" xmlns="http://www.w3.org/2000/svg"><path d="M0 6a6 6 0 016-6h20a6 6 0 016 6v20a6 6 0 01-6 6H6a6 6 0 01-6-6V6z" fill="#2A3052"/><path fill-rule="evenodd" clip-rule="evenodd" d="M17.436 16.102a.445.445 0 00-.143-.293 1.08 1.08 0 01-.081-.09c-.037-.042-.079-.09-.128-.137a.195.195 0 00-.044-.04c-.953-1.012-.835-1.662-.823-1.728v-.005a1.392 1.392 0 00-.52-1.093l-.048-.063a.239.239 0 01-.036-.035c.506.141 1.02.251 1.538.329.23.042.465.055.698.04.52 0 .929-.063.956-.182a6.809 6.809 0 01-1.378-.405l-.02-.007c-.489-.19-.571-.221-.891-.326-.418-.138-.867-.334-.867-.334l.49.13c1.408.376 1.968.525 2.71.537a2.6 2.6 0 00.613-.058c.12 0 .48-.102.52-.226a2.997 2.997 0 01-1.013-.16c-1.29-.428-1.85-.722-2.364-.991-.318-.167-.619-.325-1.063-.498-.57-.238-1.16-.424-1.764-.556a3.373 3.373 0 00-1.52 0c-1.587-.373-1.947-.333-2.414-.231a8.031 8.031 0 015.192-1.218V4.89h-4.814a5.333 5.333 0 00-5.333 5.333v11.556a5.333 5.333 0 005.333 5.333h4.822v-3.853a33.882 33.882 0 00-.542-.09c-.527-.085-.856-.137-1.066-.284-.085-.053-.351-.195-.414-.16a.756.756 0 01-.91-.057.68.68 0 01-.085-.076.644.644 0 01-.125-.889c.085-.089-.066-.333-.066-.333s-.445-.662-.747-1.058a3.023 3.023 0 01-.382-1.306 3.696 3.696 0 01-.485-.734 1.831 1.831 0 00-.262-.315 1.7 1.7 0 01-.156-.174.075.075 0 010-.058c.122-.254.3-.477.52-.653.107-.071.565-.347.565-.347a.89.89 0 01.667-.404c.453-.027.907.041 1.333.2l.284.089c.418.136.827.295 1.227.475.221.102.448.19.68.263.587.155 1.627-.32 1.844-.52.356-.325.507-.543.512-.725zm-2.73-2.769l-.288-.377a2.151 2.151 0 011.213 1.306c-1.169.28-.924-.929-.924-.929zm4.845 9.09c.104-.093.206-.19.307-.294a7.965 7.965 0 002.329-5.173h4.924v4.822a5.333 5.333 0 01-5.333 5.333h-4.822v-3.555a4.666 4.666 0 002.595-1.134zm-7.91-2.584a1.836 1.836 0 01-.286-.728C12.382 19.04 12 20 12 20l.204.382a1.835 1.835 0 01-.563-.543zm5.315-14.95h4.822a5.333 5.333 0 015.333 5.333v4.81h-5.013A7.89 7.89 0 0020.888 12l-.048-.044a8.244 8.244 0 00-.982-1.183 7.92 7.92 0 00-2.902-1.857V4.889z" fill="#fff"/></svg>