<svg width="32" height="32" xmlns="http://www.w3.org/2000/svg"><g fill="none" fill-rule="evenodd"><path d="M5.998 0h20.004A5.998 5.998 0 0132 5.998v20.004A5.998 5.998 0 0126.002 32H5.998A5.998 5.998 0 010 26.002V5.998A5.998 5.998 0 015.998 0" fill="#2A3052"/><path d="M19.564 13.619l-4.392-1.99.728 3.662 2.359 1.082a3.451 3.451 0 01-2.322 6.482 3.05 3.05 0 01-.517-.176l-2.244-1.032-3.45 1.694 4.492 2.043a6.466 6.466 0 005.346-11.765z" fill="#FFF" fill-rule="nonzero"/><path d="M13.76 15.708a3.451 3.451 0 012.322-6.484c.177.044.35.103.517.175l2.265 1.03 3.451-1.695-4.49-2.042a6.604 6.604 0 00-1.034-.355 6.472 6.472 0 00-4.32 12.126l4.392 1.989-.747-3.687-2.356-1.057z" fill="#FFF" fill-rule="nonzero"/></g></svg>