<svg xmlns="http://www.w3.org/2000/svg" width="180" height="46" viewBox="0 0 180 46"><path fill="#fff" d="M41.74 7.102c-.73 0-1.4.092-1.98.274-.575.178-1.115.425-1.603.738-.48.312-.915.67-1.277 1.063-.098.1-.19.207-.285.313V7.47h-4.877v18.523h4.877v-10.38c0-1.276.336-2.274.994-2.968.66-.696 1.508-1.035 2.58-1.035 1.095 0 1.91.324 2.49.99.586.672.887 1.664.887 2.945v10.447h4.88v-11.68c0-2.17-.59-3.93-1.745-5.23-1.16-1.313-2.825-1.98-4.943-1.98zM59.717 7.237c-1.486 0-2.773.14-3.828.413-1.048.275-2.088.645-3.086 1.098l-.324.148 1.354 3.985.386-.156c.783-.327 1.57-.592 2.33-.79.75-.194 1.623-.29 2.596-.29 1.3 0 2.308.294 2.984.88.63.544.955 1.31.99 2.34-.557-.16-1.13-.295-1.713-.398-.766-.135-1.71-.205-2.805-.205-1.06 0-2.057.122-2.97.366-.93.246-1.743.63-2.42 1.142-.686.516-1.228 1.173-1.61 1.952-.383.78-.576 1.703-.576 2.743v.067c0 .953.19 1.81.562 2.545.364.73.866 1.354 1.48 1.842.606.486 1.324.86 2.128 1.11.795.244 1.647.37 2.537.37 1.4 0 2.613-.262 3.604-.78.66-.35 1.247-.75 1.75-1.204v1.613H67.9V15.12c0-2.47-.682-4.422-2.027-5.8-1.344-1.384-3.414-2.083-6.156-2.083zm-.84 15.326c-.88 0-1.63-.204-2.224-.606-.545-.374-.815-.906-.815-1.626v-.067c0-.724.295-1.276.902-1.697.65-.444 1.58-.67 2.773-.67.756 0 1.485.065 2.16.192.57.11 1.082.244 1.516.394v.74c0 .496-.105.95-.308 1.35-.207.403-.51.758-.88 1.046-.392.295-.854.53-1.38.697-.53.164-1.118.248-1.746.248zM93.026 19.902L88.27 7.47h-5.182l7.555 18.13c-.29.637-.59 1.08-.893 1.308-.314.244-.71.36-1.21.36-.384 0-.755-.06-1.108-.17-.373-.114-.736-.27-1.096-.46l-.36-.192-1.702 3.733.32.17c.643.348 1.318.624 2.012.824.693.196 1.494.298 2.375.298.75 0 1.435-.096 2.032-.286.604-.195 1.17-.508 1.677-.928.5-.42.958-.966 1.36-1.628.39-.644.77-1.444 1.14-2.38l7.26-18.78h-5.077l-4.347 12.432z"/><path fill="#E88126" d="M124.86 19.985c-.62.623-1.29 1.14-1.984 1.533-.662.38-1.455.572-2.346.572-.723 0-1.39-.14-1.988-.418-.596-.28-1.123-.662-1.56-1.135-.433-.477-.772-1.044-1.015-1.69-.238-.645-.357-1.348-.357-2.083v-.068c0-.71.12-1.396.357-2.047.242-.647.572-1.21.988-1.676.414-.462.914-.838 1.492-1.12.57-.27 1.2-.412 1.88-.412.956 0 1.765.19 2.407.566.674.396 1.314.912 1.918 1.532l.287.295 3.04-3.282-.24-.265c-.854-.95-1.875-1.725-3.02-2.305-1.158-.586-2.63-.883-4.36-.883-1.372 0-2.657.262-3.837.77-1.172.512-2.203 1.215-3.057 2.084-.855.872-1.535 1.914-2.016 3.086-.475 1.17-.72 2.426-.72 3.723v.07c0 1.3.245 2.547.72 3.71.482 1.163 1.16 2.188 2.016 3.05.86.86 1.88 1.55 3.043 2.047 1.16.502 2.448.756 3.815.756 1.78 0 3.285-.33 4.457-.972 1.152-.637 2.197-1.473 3.092-2.487l.252-.275-2.998-2.95-.268.273zM146.528 9.923c-.87-.874-1.924-1.57-3.12-2.067-1.188-.5-2.52-.754-3.93-.754-1.413 0-2.733.262-3.93.77-1.2.512-2.243 1.21-3.114 2.084-.873.87-1.566 1.9-2.066 3.06-.498 1.165-.754 2.427-.754 3.75v.07c0 1.3.248 2.548.732 3.71.492 1.162 1.182 2.19 2.06 3.05.868.86 1.915 1.55 3.112 2.05 1.193.498 2.504.752 3.893.752 1.41 0 2.745-.26 3.954-.772 1.207-.508 2.256-1.208 3.13-2.08.868-.872 1.565-1.9 2.065-3.063.503-1.163.753-2.414.753-3.717v-.068c0-1.32-.25-2.578-.736-3.73-.486-1.15-1.176-2.175-2.05-3.045zm-7.05 12.168c-.718 0-1.39-.138-1.99-.417s-1.136-.666-1.58-1.15c-.44-.49-.796-1.06-1.04-1.697-.25-.635-.377-1.326-.377-2.06v-.07c0-.712.118-1.402.345-2.052.227-.64.56-1.2.988-1.663.43-.463.957-.84 1.564-1.118.602-.278 1.28-.42 2.023-.42.744 0 1.426.142 2.027.42.61.278 1.14.66 1.584 1.138.44.475.794 1.045 1.038 1.69.248.648.375 1.345.375 2.075v.07c0 .71-.113 1.396-.342 2.036-.23.63-.56 1.193-.99 1.67-.433.47-.956.852-1.56 1.133-.605.28-1.297.418-2.06.418zM177.95 8.988c-1.166-1.25-2.81-1.887-4.87-1.887-1.41 0-2.645.31-3.68.92-.856.504-1.62 1.152-2.29 1.93-.477-.772-1.098-1.417-1.877-1.92-.938-.614-2.098-.93-3.443-.93-.7 0-1.357.093-1.938.275-.582.178-1.115.43-1.578.745-.457.31-.87.657-1.223 1.037-.093.098-.177.197-.265.296V7.47h-4.877v18.523h4.877V15.646c0-1.28.316-2.287.943-2.994.62-.7 1.422-1.04 2.45-1.04 1.024 0 1.794.316 2.345.968.563.66.848 1.648.848 2.935v10.48h4.878v-10.38c0-1.323.316-2.335.95-3.003.628-.676 1.425-1.002 2.444-1.002 1.02 0 1.793.317 2.342.97.56.66.85 1.66.85 2.966v10.447h4.87V14.277c.002-2.264-.586-4.043-1.754-5.29z"/><g fill="#fff"><path d="M24.24 7.47h4.88v18.523h-4.88z"/><circle cx="26.68" cy="3.138" r="2.703"/></g><path fill="#E88126" d="M108.41 23.696c0-1.494-1.21-2.703-2.696-2.703-1.496 0-2.71 1.21-2.71 2.703 0 1.488 1.214 2.7 2.71 2.7 1.486 0 2.697-1.21 2.697-2.7z"/><path fill="#fff" d="M20.19 14.685c-.452-.493-1.005-.924-1.624-1.285-.388-.222-.813-.43-1.256-.62l-.273-.112.247-.16c.21-.136.424-.284.63-.447.456-.346.855-.756 1.19-1.215.334-.46.608-1 .816-1.605.21-.607.317-1.313.317-2.105v-.07c0-1.71-.593-3.167-1.762-4.333C16.962 1.208 14.7.438 11.765.438H.293v25.558h11.83c1.4 0 2.694-.152 3.85-.457 1.17-.305 2.184-.757 3.013-1.342.84-.597 1.497-1.35 1.958-2.24.454-.892.692-1.933.692-3.09v-.07c0-.886-.127-1.67-.378-2.34-.247-.678-.605-1.273-1.068-1.773zM5.175 10.832V4.853H11.23c1.357 0 2.403.262 3.104.787.687.513 1.02 1.212 1.02 2.14v.07c0 1.062-.38 1.826-1.165 2.34-.81.534-1.914.8-3.287.8H5.175v-.158zm11.578 7.57c0 1.06-.388 1.833-1.176 2.36-.807.54-1.95.814-3.385.814H5.175v-6.354h6.695c1.67 0 2.926.284 3.724.835.776.535 1.16 1.28 1.16 2.273v.072zM81.3 7.136c-1.653-.07-3.052.328-4.153 1.194-.684.53-1.273 1.182-1.756 1.943V7.47h-4.878v18.523h4.88v-7.14c0-1.122.138-2.114.42-2.96.27-.824.66-1.517 1.153-2.058.498-.538 1.094-.942 1.78-1.212.687-.27 1.462-.41 2.306-.41h.603V7.152l-.352-.014z"/><g fill="#fff"><path d="M.536 39.61l1.272-.118-.012.337c0 .375.08.717.255 1.03.174.31.458.55.854.72.397.173.873.256 1.418.256.78 0 1.373-.172 1.78-.51.41-.34.61-.73.61-1.167 0-.305-.104-.583-.32-.833-.224-.25-.824-.585-1.81-1.01-.77-.33-1.284-.583-1.564-.76-.435-.287-.76-.602-.968-.938-.206-.337-.31-.723-.31-1.157 0-.5.134-.946.408-1.348.278-.403.676-.71 1.204-.92.524-.213 1.12-.322 1.784-.322.788 0 1.455.135 1.998.4.54.265.936.617 1.18 1.058.25.444.373.865.373 1.267 0 .04-.004.106-.01.2l-1.25.096c0-.27-.024-.486-.073-.638-.09-.27-.23-.5-.41-.688-.186-.18-.445-.33-.763-.443-.323-.11-.688-.17-1.093-.17-.707 0-1.255.16-1.646.478-.306.243-.448.565-.448.965 0 .24.06.45.183.64.125.19.35.37.67.554.23.13.778.383 1.636.76.702.312 1.182.556 1.443.73.354.234.62.516.813.85.192.337.29.712.29 1.14 0 .522-.162 1.01-.483 1.452s-.763.786-1.322 1.027c-.57.246-1.217.365-1.944.365-1.1 0-1.996-.24-2.69-.72-.7-.48-1.046-1.34-1.05-2.586zM9.35 42.75l2.027-9.71h1.196l-.77 3.732c.442-.438.853-.745 1.24-.935.386-.187.78-.278 1.19-.278.58 0 1.03.15 1.354.457.324.308.488.712.488 1.214 0 .25-.075.704-.217 1.365l-.867 4.153h-1.197l.894-4.26c.13-.615.19-1.006.19-1.163 0-.228-.077-.418-.24-.563-.155-.146-.387-.22-.683-.22-.437 0-.848.113-1.24.343-.396.226-.703.54-.922.932-.226.396-.428 1.034-.615 1.912l-.63 3.02H9.35zM21.91 41.876c-.42.355-.818.62-1.204.783-.385.166-.792.248-1.23.248-.646 0-1.176-.19-1.57-.572-.396-.38-.595-.87-.595-1.467 0-.397.09-.744.27-1.046.182-.3.415-.542.713-.726.296-.185.654-.315 1.084-.395.27-.052.778-.097 1.533-.128.752-.03 1.292-.108 1.622-.237.088-.325.137-.597.137-.814 0-.277-.103-.495-.307-.655-.28-.222-.68-.334-1.22-.334-.5 0-.912.112-1.233.336-.323.222-.552.54-.697.95l-1.21-.107c.242-.696.637-1.23 1.172-1.603.537-.37 1.213-.553 2.027-.553.873 0 1.558.204 2.068.618.388.31.582.712.582 1.207 0 .375-.056.81-.164 1.306l-.392 1.748c-.126.555-.184 1.008-.184 1.357 0 .22.046.537.145.953h-1.213c-.067-.23-.113-.518-.134-.872zm.442-2.688c-.17.065-.35.117-.538.15-.196.036-.518.074-.966.113-.7.06-1.188.142-1.48.235-.283.097-.5.25-.65.454-.14.206-.214.437-.214.687 0 .338.112.612.346.83.235.215.564.322.99.322.4 0 .777-.105 1.147-.314.364-.21.656-.502.87-.88.21-.372.374-.907.495-1.598zM24.977 42.75l1.474-7.037h1.06l-.3 1.44c.362-.543.718-.944 1.064-1.208.346-.257.698-.386 1.063-.386.24 0 .534.083.88.253l-.49 1.116c-.21-.152-.434-.228-.68-.228-.422 0-.854.233-1.292.702-.44.47-.788 1.308-1.042 2.523l-.592 2.82h-1.143zM29.18 45.444l2.03-9.73h1.104l-.203.983c.412-.43.78-.727 1.1-.893.327-.163.67-.245 1.034-.245.668 0 1.226.242 1.668.728.438.49.663 1.187.663 2.097 0 .73-.125 1.4-.365 2-.243.605-.545 1.092-.894 1.455-.357.367-.715.638-1.072.81-.365.17-.737.258-1.112.258-.843 0-1.5-.43-1.964-1.285l-.792 3.82H29.18zm2.368-5.57c0 .526.04.89.11 1.093.113.29.296.52.548.697.247.177.538.263.87.263.69 0 1.248-.388 1.672-1.16.422-.775.632-1.566.632-2.373 0-.6-.14-1.06-.424-1.384-.285-.327-.64-.485-1.064-.485-.304 0-.59.08-.85.24-.26.163-.5.404-.724.723-.226.32-.403.71-.553 1.18-.146.457-.217.865-.217 1.207zM41.75 42.75l2.032-9.71h4.054c.703 0 1.23.082 1.584.242.35.162.64.438.868.827.23.39.345.827.345 1.313 0 .404-.08.812-.245 1.227-.162.416-.37.758-.617 1.027-.25.27-.503.472-.76.608-.253.136-.526.24-.817.305-.63.146-1.255.217-1.888.217h-2.433l-.823 3.94h-1.3zm2.353-5.04h2.138c.835 0 1.445-.09 1.833-.27.386-.18.698-.45.932-.814.232-.37.353-.76.353-1.168 0-.318-.064-.578-.188-.78-.123-.197-.296-.347-.52-.44-.228-.097-.66-.143-1.3-.143h-2.493l-.754 3.614zM50.936 42.75l1.474-7.037h1.058l-.3 1.44c.365-.543.72-.944 1.067-1.208.342-.257.697-.386 1.063-.386.235 0 .53.083.88.253l-.492 1.116c-.208-.152-.437-.228-.68-.228-.422 0-.852.233-1.29.702-.44.47-.788 1.308-1.038 2.523l-.604 2.82h-1.138zM55.676 42.75l1.477-7.037h1.19L56.88 42.75h-1.204zm1.75-8.354l.285-1.356h1.196l-.285 1.356h-1.193zM63.863 40.186l1.2.128c-.304.878-.73 1.527-1.28 1.956-.557.427-1.19.64-1.894.64-.765 0-1.38-.248-1.857-.742-.48-.497-.713-1.186-.713-2.074 0-.766.15-1.52.453-2.264.307-.743.748-1.308 1.314-1.693.568-.384 1.21-.576 1.943-.576.752 0 1.355.212 1.79.64.448.425.665.987.665 1.69l-1.177.076c-.007-.445-.138-.79-.39-1.044-.256-.25-.585-.377-1.003-.377-.48 0-.9.153-1.248.46-.356.3-.634.766-.837 1.384-.202.62-.303 1.217-.303 1.79 0 .604.137 1.05.402 1.354.26.3.586.447.98.447.385 0 .757-.145 1.112-.44.36-.297.638-.75.84-1.354zM71.23 40.36l1.166.116c-.17.58-.557 1.13-1.156 1.65-.604.522-1.324.78-2.158.78-.52 0-.998-.12-1.436-.36-.432-.24-.764-.59-.988-1.05-.23-.46-.348-.98-.348-1.568 0-.77.184-1.516.537-2.236.355-.722.816-1.256 1.38-1.61.563-.35 1.175-.522 1.833-.522.842 0 1.506.257 2.008.78.504.52.758 1.23.758 2.132 0 .343-.033.696-.092 1.062h-5.182c-.02.136-.025.256-.025.367 0 .66.148 1.162.455 1.51.3.344.668.518 1.104.518.416 0 .818-.133 1.215-.402.4-.27.706-.66.93-1.167zm-3.486-1.742h3.947c.003-.124.01-.214.01-.264 0-.604-.15-1.063-.452-1.384-.303-.32-.686-.48-1.16-.48-.51 0-.977.178-1.402.53-.418.354-.735.885-.942 1.598zM73.988 40.344l1.2-.07c0 .344.052.638.155.88.11.244.303.44.588.6.284.15.618.227.995.227.533 0 .934-.103 1.197-.314.264-.213.395-.463.395-.75 0-.206-.082-.403-.236-.59-.165-.185-.563-.41-1.194-.684-.633-.272-1.037-.463-1.22-.573-.294-.182-.51-.397-.667-.64-.15-.246-.226-.528-.226-.846 0-.554.22-1.033.662-1.43.443-.395 1.06-.594 1.857-.594.88 0 1.55.203 2.014.61.465.407.703.946.72 1.615l-1.175.077c-.014-.426-.166-.76-.447-1.006-.283-.248-.686-.373-1.2-.373-.415 0-.74.094-.966.29-.23.183-.345.39-.345.612s.1.412.3.58c.13.117.472.29 1.024.532.917.397 1.493.71 1.733.94.38.367.57.813.57 1.34 0 .347-.107.687-.322 1.024-.21.337-.54.606-.98.806-.44.202-.954.3-1.55.3-.813 0-1.506-.198-2.074-.6-.57-.403-.84-1.057-.808-1.962zM81.258 42.75l.29-1.358h1.356l-.297 1.357h-1.35zM89.512 39.61l1.27-.118-.015.337c0 .375.086.717.256 1.03.175.31.46.55.854.72.4.173.873.256 1.424.256.774 0 1.368-.172 1.772-.51.412-.34.615-.73.615-1.167 0-.305-.105-.583-.322-.833-.22-.25-.824-.585-1.807-1.01-.77-.33-1.285-.583-1.566-.76-.434-.287-.762-.602-.97-.938-.203-.337-.307-.723-.307-1.157 0-.5.137-.946.407-1.348.277-.403.676-.71 1.205-.92.527-.213 1.12-.322 1.785-.322.787 0 1.455.135 1.996.4.55.265.94.617 1.182 1.058.248.444.37.865.37 1.267 0 .04-.005.106-.007.2l-1.252.096c0-.27-.02-.486-.07-.638-.09-.27-.226-.5-.413-.688-.186-.18-.44-.33-.76-.443-.326-.11-.69-.17-1.094-.17-.705 0-1.256.16-1.648.478-.3.243-.45.565-.45.965 0 .24.064.45.19.64.122.19.347.37.667.554.223.13.773.383 1.633.76.7.312 1.18.556 1.44.73.358.234.63.516.82.85.188.337.284.712.284 1.14 0 .522-.167 1.01-.48 1.452-.322.443-.764.786-1.33 1.027-.563.246-1.213.365-1.94.365-1.097 0-1.995-.24-2.693-.72-.692-.48-1.04-1.34-1.045-2.586zM98.317 42.75l1.47-7.037h1.198l-.246 1.16c.446-.498.847-.84 1.198-1.032.35-.185.732-.28 1.14-.28.44 0 .808.113 1.097.345.293.23.488.558.582.97.357-.438.732-.77 1.13-.987.394-.22.812-.327 1.247-.327.59 0 1.03.138 1.32.415.293.276.438.67.438 1.17 0 .22-.05.578-.15 1.076l-.947 4.53h-1.2l.968-4.65c.086-.377.127-.648.127-.813 0-.23-.072-.41-.217-.545-.148-.13-.352-.196-.617-.196-.354 0-.72.106-1.09.325-.38.215-.664.503-.865.85-.204.352-.39.894-.54 1.62l-.715 3.41h-1.2l.993-4.75c.068-.322.102-.55.102-.688 0-.23-.07-.413-.213-.557-.146-.142-.328-.212-.56-.212-.34 0-.696.106-1.067.325-.373.214-.678.518-.91.903-.236.387-.434.94-.578 1.653l-.695 3.324h-1.2zM114.636 41.876c-.416.355-.818.62-1.195.783-.386.166-.796.248-1.237.248-.646 0-1.172-.19-1.566-.572-.4-.38-.594-.87-.594-1.467 0-.397.088-.744.266-1.046.175-.3.413-.542.714-.726.29-.185.656-.315 1.084-.395.266-.052.777-.097 1.53-.128.755-.03 1.296-.108 1.624-.237.092-.325.14-.597.14-.814 0-.277-.105-.495-.308-.655-.277-.222-.686-.334-1.22-.334-.5 0-.913.112-1.235.336-.32.222-.554.54-.698.95l-1.21-.107c.247-.696.634-1.23 1.177-1.603.532-.37 1.21-.553 2.026-.553.87 0 1.557.204 2.064.618.39.31.582.712.582 1.207 0 .375-.055.81-.162 1.306l-.39 1.748c-.13.555-.19 1.008-.19 1.357 0 .22.05.537.146.953h-1.21c-.068-.23-.115-.518-.14-.872zm.443-2.688c-.17.065-.353.117-.542.15-.19.036-.512.074-.957.113-.7.06-1.196.142-1.48.235-.288.097-.5.25-.65.454-.147.206-.218.437-.218.687 0 .338.117.612.35.83.23.215.56.322.992.322.393 0 .777-.105 1.14-.314.37-.21.66-.502.87-.88.214-.372.37-.907.495-1.598zM117.71 42.75l1.47-7.037h1.058l-.3 1.44c.364-.543.72-.944 1.065-1.208.344-.257.7-.386 1.064-.386.236 0 .525.083.88.253l-.493 1.116c-.205-.152-.432-.228-.678-.228-.426 0-.852.233-1.297.702-.44.47-.784 1.308-1.036 2.523l-.598 2.82h-1.136zM125.3 41.776l-.2.98c-.286.073-.567.11-.837.11-.475 0-.854-.114-1.137-.352-.215-.177-.316-.414-.316-.72 0-.154.057-.51.17-1.066l.854-4.085h-.943l.19-.932h.947l.363-1.724 1.37-.83-.536 2.555h1.182l-.203.933h-1.17l-.816 3.884c-.102.496-.146.794-.146.89 0 .143.04.25.12.325.076.073.215.112.398.112.265 0 .5-.024.712-.078zM133.204 42.75L135 34.145h-3.185l.23-1.106h7.642l-.234 1.106H136.3l-1.794 8.603h-1.302zM138.124 42.75l1.47-7.037h1.056l-.295 1.44c.365-.543.72-.944 1.063-1.208.348-.257.7-.386 1.068-.386.234 0 .53.083.88.253l-.493 1.116c-.207-.152-.436-.228-.686-.228-.418 0-.846.233-1.287.702s-.787 1.308-1.04 2.523l-.595 2.82h-1.14zM147.653 41.876c-.414.355-.818.62-1.197.783-.387.166-.797.248-1.23.248-.65 0-1.177-.19-1.57-.572-.4-.38-.597-.87-.597-1.467 0-.397.09-.744.265-1.046.182-.3.414-.542.713-.726.295-.185.658-.315 1.088-.395.268-.052.78-.097 1.53-.128.757-.03 1.294-.108 1.62-.237.094-.325.14-.597.14-.814 0-.277-.104-.495-.306-.655-.28-.222-.686-.334-1.217-.334-.504 0-.914.112-1.236.336-.322.222-.55.54-.7.95l-1.212-.107c.248-.696.64-1.23 1.178-1.603.535-.37 1.213-.553 2.027-.553.87 0 1.56.204 2.066.618.39.31.582.712.582 1.207 0 .375-.053.81-.164 1.306l-.393 1.748c-.116.555-.187 1.008-.187 1.357 0 .22.05.537.148.953h-1.208c-.066-.23-.107-.518-.14-.872zm.444-2.688c-.166.065-.348.117-.54.15-.19.036-.51.074-.96.113-.7.06-1.193.142-1.475.235-.293.097-.51.25-.654.454-.145.206-.215.437-.215.687 0 .338.115.612.346.83.23.215.558.322.985.322.402 0 .78-.105 1.146-.314.372-.21.657-.502.874-.88.206-.372.37-.907.493-1.598zM155.47 41.73c-.686.784-1.4 1.178-2.146 1.178-.664 0-1.223-.244-1.666-.738-.445-.492-.666-1.208-.666-2.14 0-.86.176-1.643.525-2.35.354-.71.793-1.24 1.322-1.593.52-.354 1.052-.528 1.58-.528.876 0 1.536.416 1.98 1.26l.796-3.78h1.193l-2.026 9.71h-1.107l.213-1.02zm-3.283-1.926c0 .49.045.875.143 1.157.098.284.266.52.496.707.236.188.512.278.844.278.54 0 1.035-.28 1.475-.846.59-.75.89-1.68.89-2.783 0-.555-.145-.988-.44-1.303-.295-.313-.656-.47-1.1-.47-.285 0-.547.063-.787.19-.232.13-.47.344-.7.653-.23.307-.427.696-.585 1.168-.16.475-.236.89-.236 1.25zM158.493 42.75l1.47-7.037h1.198l-1.468 7.036h-1.2zm1.75-8.354l.285-1.356h1.19l-.282 1.356h-1.193zM161.825 42.75l1.473-7.037h1.084l-.256 1.23c.47-.48.912-.835 1.322-1.054.404-.223.83-.33 1.26-.33.564 0 1.01.152 1.342.462.322.31.482.718.482 1.237 0 .26-.055.67-.17 1.23l-.896 4.258h-1.195l.933-4.456c.09-.433.14-.755.14-.96 0-.234-.08-.425-.245-.57-.16-.146-.39-.22-.697-.22-.612 0-1.157.223-1.64.666-.475.44-.83 1.195-1.057 2.27l-.68 3.27h-1.198zM169.573 43.383l1.215.116c-.014.273.02.478.096.615s.19.24.355.315c.214.1.5.146.843.146.727 0 1.244-.187 1.566-.56.204-.253.394-.804.573-1.646l.117-.568c-.62.632-1.287.946-1.982.946-.715 0-1.31-.262-1.787-.784-.48-.522-.718-1.267-.718-2.222 0-.79.188-1.517.566-2.18.373-.66.824-1.162 1.346-1.5.52-.337 1.057-.504 1.607-.504.927 0 1.634.434 2.134 1.31l.236-1.156h1.102l-1.418 6.79c-.154.748-.355 1.328-.61 1.748-.25.414-.593.74-1.042.97-.45.228-.97.344-1.56.344-.563 0-1.05-.07-1.462-.22-.404-.144-.71-.357-.91-.642-.2-.277-.3-.6-.3-.96 0-.11.012-.227.033-.36zm1.5-3.747c0 .482.04.845.14 1.088.128.338.317.6.56.775.25.18.518.27.82.27.393 0 .785-.14 1.174-.414.39-.278.7-.705.943-1.28.238-.58.36-1.135.36-1.657 0-.58-.157-1.04-.483-1.383-.316-.342-.71-.513-1.184-.513-.293 0-.576.078-.852.236-.267.153-.528.394-.765.715-.232.318-.414.702-.533 1.146-.122.45-.18.787-.18 1.016zM177.786 42.75l.285-1.358h1.356l-.29 1.357h-1.35z"/></g></svg>