<?xml version="1.0" encoding="UTF-8"?>
<svg width="193px" height="52px" viewBox="0 0 193 52" version="1.1" xmlns="http://www.w3.org/2000/svg" xmlns:xlink="http://www.w3.org/1999/xlink">
    <!-- Generator: Sketch 50.2 (55047) - http://www.bohemiancoding.com/sketch -->
    <title>Artboard</title>
    <desc>Created with Sketch.</desc>
    <defs></defs>
    <g id="Artboard" stroke="none" stroke-width="1" fill="none" fill-rule="evenodd">
        <g id="binary" fill-rule="nonzero">
            <path d="M44.46,7.15 C43.7427874,7.13978063 43.0281199,7.23754176 42.34,7.44 C41.7338064,7.62493742 41.1552753,7.89065813 40.62,8.23 C40.1177594,8.55162662 39.6575481,8.93457619 39.25,9.37 L38.95,9.7 L38.95,7.55 L33.71,7.55 L33.71,27.42 L38.94,27.42 L38.94,16.29 C38.8637558,15.1291144 39.2441359,13.9843856 40,13.1 C40.7241551,12.3488103 41.737911,11.9476839 42.78,12 C43.7849382,11.9285835 44.7676965,12.3187422 45.45,13.06 C46.1568274,13.9565155 46.5123808,15.0800642 46.45,16.22 L46.45,27.42 L51.69,27.42 L51.69,14.89 C51.7900076,12.8519679 51.1228254,10.8504211 49.82,9.28 C48.4427086,7.8027848 46.4755573,7.02106236 44.46,7.15 Z" id="Shape" fill="#FFFFFF"></path>
            <path d="M63.75,7.3 C62.3669957,7.27433428 60.9862292,7.42215356 59.64,7.74 C58.5054555,8.03958033 57.3981982,8.43431255 56.33,8.92 L56,9.08 L57.45,13.36 L57.86,13.19 C58.6728955,12.8497785 59.5081935,12.5657772 60.36,12.34 C61.2688867,12.1113109 62.2027886,11.9970927 63.14,12 C64.2861705,11.9218308 65.4221541,12.259076 66.34,12.95 C67.0439177,13.5910222 67.4313621,14.5084612 67.4,15.46 C66.7943438,15.2856015 66.180219,15.1420832 65.56,15.03 C64.5681966,14.870452 63.5644683,14.7968452 62.56,14.81 C61.4875756,14.8016001 60.4186121,14.9326994 59.38,15.2 C58.4413154,15.4362476 57.5580115,15.8541182 56.78,16.43 C56.0257681,16.9801161 55.4152017,17.7038774 55,18.54 C54.5710664,19.4596397 54.3589532,20.4654665 54.38,21.48 L54.38,21.55 C54.3622891,22.4945456 54.5678671,23.4299255 54.98,24.28 C55.3558814,25.0558539 55.898875,25.7388648 56.57,26.28 C57.2477856,26.8174694 58.0215001,27.2212941 58.85,27.47 C59.7317125,27.7379331 60.6484808,27.8727519 61.57,27.87 C62.9282176,27.9056148 64.2743705,27.6068512 65.49,27 C66.167892,26.6498848 66.7994392,26.2165359 67.37,25.71 L67.37,27.44 L72.53,27.44 L72.53,15.76 C72.6626604,13.4788031 71.8777389,11.2392564 70.35,9.54 C68.91,8 66.69,7.3 63.75,7.3 Z M62.85,23.74 C62.0059616,23.7697567 61.1727068,23.5431392 60.46,23.09 C59.8884536,22.6996154 59.5593798,22.0414679 59.59,21.35 L59.59,21.28 C59.5749864,20.5384285 59.9560055,19.8449737 60.59,19.46 C61.4953209,18.9249575 62.5404587,18.6741244 63.59,18.74 C64.3678467,18.734968 65.1444905,18.80192 65.91,18.94 C66.4624945,19.0416737 67.0071675,19.1820189 67.54,19.36 L67.54,20.15 C67.546146,20.6526217 67.433054,21.1495411 67.21,21.6 C66.9781751,22.0377231 66.6540357,22.4198664 66.26,22.72 C65.8118786,23.0506798 65.3116597,23.3041691 64.78,23.47 C64.1543916,23.6587704 63.5033937,23.7498426 62.85,23.74 Z" id="Shape" fill="#FFFFFF"></path>
            <path d="M99.49,20.89 L94.38,7.55 L88.82,7.55 L96.93,27 C96.7113022,27.5387589 96.3687078,28.0183911 95.93,28.4 C95.5531631,28.6731179 95.0949471,28.8105827 94.63,28.79 C94.2265937,28.7894532 93.8255213,28.7287867 93.44,28.61 C93.0359745,28.4824118 92.6443671,28.3184053 92.27,28.12 L91.88,27.91 L90.06,31.91 L90.4,32.09 C91.0830083,32.4596427 91.8038286,32.7546761 92.55,32.97 C93.3813896,33.1926604 94.2393725,33.3003288 95.1,33.29 C95.8505349,33.3085415 96.599413,33.2107151 97.32,33 C97.9777979,32.7833998 98.5885783,32.4440773 99.12,32 C99.6981491,31.5033521 100.191307,30.9156165 100.58,30.26 C101.057667,29.4458283 101.465782,28.5928022 101.8,27.71 L109.59,7.56 L104.14,7.56 L99.49,20.89 Z" id="Shape" fill="#FFFFFF"></path>
            <path d="M133.64,21 C133.007684,21.6435683 132.291182,22.1986049 131.51,22.65 C130.065927,23.4086881 128.355618,23.4712156 126.86,22.82 C126.22862,22.5269439 125.661151,22.1123859 125.19,21.6 C124.712695,21.0730853 124.342482,20.4583276 124.1,19.79 C123.84336,19.0747499 123.714727,18.319881 123.72,17.56 L123.72,17.49 C123.714896,16.7399095 123.843577,15.9949176 124.1,15.29 C124.337525,14.6289282 124.69709,14.0183453 125.16,13.49 C125.609617,12.9890962 126.15324,12.5813793 126.76,12.29 C127.385358,11.9955687 128.068813,11.8452088 128.76,11.85 C129.65893,11.8204218 130.549498,12.0309826 131.34,12.46 C132.0969,12.9121092 132.789743,13.4636929 133.4,14.1 L133.71,14.42 L137,10.86 L136.74,10.58 C135.82227,9.56313648 134.723634,8.72559602 133.5,8.11 C129.431536,6.20539746 124.605917,7.05297922 121.43,10.23 C120.502479,11.1830727 119.768896,12.3072202 119.27,13.54 C118.752744,14.8100396 118.487812,16.1686688 118.49,17.54 L118.49,17.61 C118.485492,18.9815524 118.750512,20.3406268 119.27,21.61 C119.769366,22.8306935 120.503205,23.9416448 121.43,24.88 C123.382541,26.8253495 126.033894,27.9060642 128.79,27.88 C130.441769,27.9501902 132.08489,27.6064411 133.57,26.88 C134.821746,26.187204 135.944827,25.2840035 136.89,24.21 L137.16,23.92 L133.94,20.76 L133.64,21 Z" id="Shape" fill="#E78024"></path>
            <path d="M156.88,10.18 C155.920972,9.24062062 154.785943,8.49979332 153.54,8 C152.201477,7.4511067 150.766624,7.17569652 149.32,7.19 C147.873033,7.17186323 146.437422,7.44741888 145.1,8 C142.596146,9.04215121 140.600202,11.0237361 139.54,13.52 C139.001159,14.7844901 138.725555,16.1454946 138.73,17.52 L138.73,17.59 C138.724703,18.9626026 138.993277,20.3224715 139.52,21.59 C140.032117,22.8159926 140.783413,23.9276399 141.73,24.86 C142.69194,25.8007476 143.825879,26.5476535 145.07,27.06 C147.767715,28.1482687 150.782285,28.1482687 153.48,27.06 C155.993104,26.0282597 157.995641,24.0436987 159.05,21.54 C159.592101,20.2765253 159.867843,18.9148384 159.86,17.54 L159.86,17.47 C159.881043,14.7413128 158.799248,12.1197638 156.86,10.2 L156.88,10.18 Z M149.32,23.23 C148.582393,23.2377779 147.852005,23.0841916 147.18,22.78 C146.537373,22.4823644 145.9597,22.0610032 145.48,21.54 C145.000766,21.0052414 144.621417,20.3887992 144.36,19.72 C144.090583,19.0145651 143.954936,18.2651146 143.96,17.51 L143.96,17.44 C143.958184,16.6910319 144.083288,15.9471703 144.33,15.24 C144.558858,14.5808717 144.919516,13.9752386 145.39,13.46 C145.865231,12.9529479 146.436227,12.5450931 147.07,12.26 C148.458391,11.6622274 150.031609,11.6622274 151.42,12.26 C152.061976,12.5498856 152.639861,12.9646029 153.12,13.48 C153.602635,14.0065788 153.97948,14.6210746 154.23,15.29 C154.498508,16.002638 154.634083,16.7584667 154.63,17.52 L154.63,17.59 C154.633273,18.3325638 154.508095,19.0700995 154.26,19.77 C154.023976,20.4287695 153.664184,21.0363419 153.2,21.56 C152.728501,22.0719958 152.161114,22.4864934 151.53,22.78 C150.835304,23.091462 150.081276,23.2484091 149.32,23.24 L149.32,23.23 Z" id="Shape" fill="#E78024"></path>
            <path d="M190.59,9.18 C189.214981,7.79920197 187.315638,7.07148432 185.37,7.18 C183.987312,7.1516042 182.622613,7.49709772 181.42,8.18 C180.508975,8.72150388 179.691717,9.40705526 179,10.21 C178.497122,9.38136569 177.813412,8.67714474 177,8.15 C175.895594,7.45992145 174.61172,7.11198825 173.31,7.15 C172.606028,7.14151898 171.904805,7.23928568 171.23,7.44 C170.629794,7.62055812 170.060107,7.89023223 169.54,8.24 C169.062492,8.5589112 168.622976,8.9313253 168.23,9.35 L167.95,9.67 L167.95,7.55 L162.72,7.55 L162.72,27.42 L167.95,27.42 L167.95,16.32 C167.876125,15.1632993 168.232264,14.0200927 168.95,13.11 C169.603437,12.3765362 170.548137,11.9700958 171.53,12 C172.462145,11.9429532 173.370084,12.31054 174,13 C174.6676,13.9087068 174.990164,15.0252724 174.91,16.15 L174.91,27.42 L180.14,27.42 L180.14,16.29 C180.049701,15.1283255 180.407519,13.9761529 181.14,13.07 C181.831633,12.3291478 182.818466,11.9366155 183.83,12 C184.775791,11.9305049 185.701115,12.2991601 186.34,13 C187.008073,13.9236988 187.330182,15.0528493 187.25,16.19 L187.25,27.42 L192.48,27.42 L192.48,14.85 C192.606169,12.7868049 191.928852,10.7548547 190.59,9.18 Z" id="Shape" fill="#E78024"></path>
            <rect id="Rectangle-path" fill="#FFFFFF" x="25.69" y="7.55" width="5.24" height="19.87"></rect>
            <path d="M31.21,2.9 C31.21,1.29837423 29.9116258,9.80712939e-17 28.31,0 C26.7083742,-9.80712939e-17 25.41,1.29837423 25.41,2.9 C25.41,4.50162577 26.7083742,5.8 28.31,5.8 C29.9116258,5.8 31.21,4.50162577 31.21,2.9 Z" id="Shape" fill="#FFFFFF"></path>
            <path d="M116,25 C115.999993,23.826151 115.292344,22.7680786 114.20746,22.3198059 C113.122576,21.8715333 111.874454,22.1214833 111.045852,22.9529523 C110.21725,23.7844212 109.971613,25.0333995 110.42363,26.1167286 C110.875648,27.2000576 111.936158,27.9040478 113.11,27.9 C114.707719,27.8944906 116.000009,26.5977286 116,25 Z" id="Shape" fill="#E78024"></path>
            <path d="M21.35,15.29 C20.8417971,14.746092 20.2553523,14.2809806 19.61,13.91 C19.1723577,13.6655742 18.7216859,13.4452457 18.26,13.25 L18,13.12 L18.27,12.95 C18.5,12.81 18.72,12.64 18.94,12.47 C19.4285839,12.0984488 19.8598655,11.657059 20.22,11.16 C20.5972514,10.6336283 20.8938503,10.0539121 21.1,9.44 C21.3378095,8.71071787 21.4527095,7.94697085 21.44,7.18 L21.44,7.11 C21.4777203,5.36577538 20.7938817,3.68331541 19.55,2.46 C17.88,0.83 15.46,0 12.31,0 L0,0 L0,27.42 L12.69,27.42 C14.0819658,27.4341271 15.4699837,27.269447 16.82,26.93 C17.9745091,26.648166 19.0687006,26.1603531 20.05,25.49 C20.93217,24.869798 21.6523887,24.0466909 22.15,23.09 C22.655731,22.0574204 22.9093386,20.9196132 22.89,19.77 L22.89,19.7 C22.9076387,18.8461589 22.7721653,17.9960636 22.49,17.19 C22.24083,16.4868287 21.8531888,15.84076 21.35,15.29 Z M5.24,11.16 L5.24,4.74 L11.74,4.74 C12.9110806,4.65879532 14.0775553,4.9530412 15.07,5.58 C15.7958199,6.11104363 16.2055287,6.97180795 16.16,7.87 L16.16,8 C16.2310261,9.00177488 15.7522952,9.96306643 14.91,10.51 C13.8455372,11.1335475 12.6220677,11.4324633 11.39,11.37 L5.24,11.37 L5.24,11.16 Z M17.66,19.28 C17.7234376,20.288134 17.2428119,21.2531998 16.4,21.81 C15.3006475,22.4475765 14.0389301,22.7499716 12.77,22.68 L5.24,22.68 L5.24,15.87 L12.43,15.87 C13.8226472,15.7724964 15.2133263,16.0853992 16.43,16.77 C17.2481628,17.3056626 17.7232529,18.2330385 17.68,19.21 L17.66,19.28 Z" id="Shape" fill="#FFFFFF"></path>
            <path d="M86.9,7.19 C85.306765,7.05627478 83.7198336,7.51171698 82.44,8.47 C81.6982972,9.04997043 81.0622904,9.75363759 80.56,10.55 L80.56,7.55 L75.33,7.55 L75.33,27.42 L80.57,27.42 L80.57,19.76 C80.544189,18.6872091 80.689339,17.6171496 81,16.59 C81.2526886,15.7740581 81.6752909,15.0208716 82.24,14.38 C82.7702211,13.8078684 83.4232561,13.3633943 84.15,13.08 C84.9415462,12.7783377 85.7829902,12.6290492 86.63,12.64 L87.27,12.64 L87.27,7.21 L86.9,7.19 Z" id="Shape" fill="#FFFFFF"></path>
        </g>
        <g id="Group" transform="translate(0.000000, 37.000000)" fill="#FFFFFF">
            <path d="M7.90983607e-05,8.04268421 L1.37322664,7.91557895 L1.3605709,8.27715789 C1.3605709,8.68215789 1.44441516,9.04926316 1.63425123,9.38715789 C1.82013238,9.72110526 2.12703402,9.98163158 2.55416516,10.1632105 C2.98446025,10.3479474 3.49543566,10.4379474 4.08313648,10.4379474 C4.92316107,10.4379474 5.5630668,10.2555789 6.0020627,9.88847368 C6.44659549,9.52294737 6.66174303,9.10452632 6.66174303,8.63163158 C6.66174303,8.304 6.54784139,8.00557895 6.31529221,7.73636842 C6.07562418,7.46636842 5.42780861,7.10715789 4.36314467,6.64847368 C3.5365668,6.29321053 2.97971434,6.02321053 2.67993156,5.83057895 C2.21087828,5.52426316 1.85968156,5.18636842 1.63425123,4.82242105 C1.41277582,4.46084211 1.30124713,4.04636842 1.30124713,3.57663158 C1.30124713,3.04136842 1.44520615,2.559 1.741825,2.12794737 C2.0408168,1.69215789 2.46794795,1.36452632 3.04062008,1.13557895 C3.60617336,0.909 4.25003402,0.789 4.96350123,0.789 C5.81459959,0.789 6.53360369,0.933473684 7.11814057,1.22005263 C7.70267746,1.50663158 8.12822664,1.88557895 8.39162418,2.36084211 C8.65897664,2.83689474 8.79344385,3.29005263 8.79344385,3.72189474 C8.79344385,3.76531579 8.78948893,3.83715789 8.78237008,3.93663158 L7.435325,4.04005263 C7.435325,3.74952632 7.40684959,3.51821053 7.35622664,3.354 C7.25735369,3.06268421 7.10785779,2.81557895 6.91090287,2.61347368 C6.71315697,2.41847368 6.43393975,2.25663158 6.08827992,2.13821053 C5.73787418,2.01663158 5.34871025,1.95189474 4.90971434,1.95189474 C4.14799713,1.95189474 3.55792336,2.12557895 3.13316516,2.46742105 C2.80569795,2.72873684 2.64987418,3.07768421 2.64987418,3.50636842 C2.64987418,3.76373684 2.7163168,3.99110526 2.84603811,4.19478947 C2.97971434,4.39926316 3.22175533,4.59505263 3.56978811,4.79084211 C3.81815697,4.92978947 4.40902172,5.20057895 5.33605451,5.60952632 C6.08827992,5.94426316 6.60637418,6.20478947 6.88954631,6.39584211 C7.27159139,6.64610526 7.55792746,6.95005263 7.76595615,7.30926316 C7.97319385,7.67084211 8.07602172,8.07426316 8.07602172,8.53215789 C8.07602172,9.09584211 7.90200533,9.61926316 7.55634549,10.0984737 C7.2083127,10.5761053 6.73451352,10.9447895 6.13178402,11.2029474 C5.51402582,11.469 4.81716926,11.5976842 4.03093156,11.5976842 C2.84603811,11.5976842 1.88103811,11.3395263 1.12960369,10.824 C0.378960246,10.3068947 0.004825,9.38005263 7.90983607e-05,8.04268421" id="Fill-1"></path>
            <path d="M9.50572459,11.4210789 L11.6927943,0.970815789 L12.9828885,0.970815789 L12.1523557,4.98686842 C12.6293189,4.51555263 13.0722697,4.18476316 13.491491,3.9795 C13.9059664,3.77818421 14.3299336,3.68107895 14.7713025,3.68107895 C15.4001344,3.68107895 15.8850074,3.84371053 16.2346221,4.17371053 C16.5842369,4.50607895 16.7582533,4.94028947 16.7582533,5.48265789 C16.7582533,5.75028947 16.6807369,6.23897368 16.5257041,6.95028947 L15.5915525,11.4218684 L14.2975033,11.4218684 L15.2625033,6.83660526 C15.4017164,6.17265789 15.46895,5.75423684 15.46895,5.58371053 C15.46895,5.33818421 15.3835238,5.13371053 15.2110893,4.97818421 C15.0410279,4.81792105 14.79345,4.74371053 14.4723107,4.74371053 C14.0000934,4.74371053 13.5587246,4.86213158 13.1339664,5.10844737 C12.7092082,5.35239474 12.3762041,5.68871053 12.142073,6.11107895 C11.896868,6.53739474 11.6793475,7.22581579 11.4760648,8.17002632 L10.7966098,11.4210789 L9.50572459,11.4210789 Z" id="Fill-4"></path>
            <path d="M23.5294684,7.58778947 C23.3435873,7.65726316 23.1513783,7.71252632 22.9496775,7.74884211 C22.7376939,7.78831579 22.3896611,7.82936842 21.9063701,7.86963158 C21.1525627,7.93436842 20.6257676,8.02357895 20.3085832,8.12305263 C20.0056365,8.22805263 19.7707143,8.39226316 19.6101447,8.61094737 C19.4574848,8.83278947 19.3768045,9.08226316 19.3768045,9.35068421 C19.3768045,9.71463158 19.497825,10.0106842 19.7517307,10.2427895 C20.0040545,10.4756842 20.3584152,10.5917368 20.8187676,10.5917368 C21.2498537,10.5917368 21.6572102,10.4796316 22.056657,10.2554211 C22.4505668,10.0296316 22.7645873,9.71463158 22.9939725,9.30726316 C23.2201939,8.90778947 23.3973742,8.32910526 23.5294684,7.58778947 M23.0517143,10.4812105 C22.5968988,10.8625263 22.1697676,11.1475263 21.7545012,11.3243684 C21.3376529,11.5051579 20.899448,11.5904211 20.4248578,11.5904211 C19.7311652,11.5904211 19.157702,11.3875263 18.7345258,10.9754211 C18.3050217,10.5656842 18.0906652,10.0383158 18.0906652,9.39568421 C18.0906652,8.97094737 18.1879561,8.59594737 18.3825381,8.27068421 C18.5763291,7.94621053 18.8270709,7.68963158 19.1505832,7.49068421 C19.4693496,7.29094737 19.8545586,7.15042105 20.318866,7.06436842 C20.609948,7.01068421 21.1565176,6.96015789 21.9743947,6.927 C22.7827799,6.89621053 23.3673168,6.81252632 23.7240504,6.672 C23.8158045,6.32147368 23.8703824,6.02936842 23.8703824,5.79489474 C23.8703824,5.49726316 23.7604357,5.26278947 23.5421242,5.09068421 C23.2375955,4.85147368 22.8057184,4.73305263 22.2259275,4.73305263 C21.6848947,4.73305263 21.2427348,4.85147368 20.895493,5.09384211 C20.5458783,5.33226316 20.2990914,5.67410526 20.1416857,6.11857895 L18.8373537,6.00173684 C19.0975873,5.25015789 19.5239275,4.67621053 20.1029275,4.27831579 C20.6811365,3.87963158 21.4112143,3.68147368 22.2907881,3.68147368 C23.2312676,3.68147368 23.9668824,3.90331579 24.518198,4.34857895 C24.9358373,4.68173684 25.1478209,5.11357895 25.1478209,5.64568421 C25.1478209,6.05147368 25.0861242,6.51805263 24.9698496,7.05173684 L24.5474643,8.93226316 C24.4122061,9.52910526 24.3489275,10.017 24.3489275,10.3935789 C24.3489275,10.6304211 24.3995504,10.9714737 24.5071242,11.4206842 L23.1964643,11.4206842 C23.1229029,11.1727895 23.0730709,10.8609474 23.0517143,10.4812105" id="Fill-6"></path>
            <path d="M26.359766,11.4210789 L27.9480611,3.84686842 L29.0902414,3.84686842 L28.7659381,5.39818421 C29.157475,4.81239474 29.5395201,4.37976316 29.9144463,4.09476316 C30.2885816,3.81923684 30.6682537,3.6795 31.0605816,3.6795 C31.3200242,3.6795 31.6379996,3.77028947 32.0113439,3.95502632 L31.4805939,5.15502632 C31.2551635,4.99239474 31.0139135,4.91028947 30.7457701,4.91028947 C30.2957004,4.91028947 29.8274381,5.16371053 29.3536389,5.66739474 C28.8774668,6.17265789 28.5049135,7.07423684 28.2320242,8.38397368 L27.5921184,11.4210789 L26.359766,11.4210789 Z" id="Fill-8"></path>
            <path d="M33.4446061,8.32642105 C33.4446061,8.89405263 33.4881102,9.28405263 33.5632537,9.50194737 C33.6842742,9.81378947 33.8828111,10.0616842 34.1549094,10.2551053 C34.4206799,10.443 34.7354914,10.5361579 35.091434,10.5361579 C35.8357496,10.5361579 36.4384791,10.1177368 36.8964586,9.28563158 C37.3528561,8.45036842 37.5782865,7.60168421 37.5782865,6.73247368 C37.5782865,6.08826316 37.4256266,5.59326316 37.121098,5.24115789 C36.8118234,4.89221053 36.4297783,4.72010526 35.9725898,4.72010526 C35.6443316,4.72010526 35.3374299,4.80457895 35.0550488,4.98063158 C34.7766225,5.15273684 34.5163889,5.41326316 34.2751389,5.75589474 C34.031516,6.10168421 33.839307,6.52089474 33.6771553,7.02378947 C33.5221225,7.51878947 33.4446061,7.95852632 33.4446061,8.32642105 Z M30.8913111,14.3216842 L33.0823357,3.84694737 L34.272766,3.84694737 L34.0536635,4.90484211 C34.4981963,4.44536842 34.8928971,4.12405263 35.2401389,3.94405263 C35.5921266,3.77036842 35.961516,3.68115789 36.3546348,3.68115789 C37.072848,3.68115789 37.6755775,3.94326316 38.1541225,4.46747368 C38.6263398,4.99326316 38.8675898,5.74405263 38.8675898,6.72378947 C38.8675898,7.51089474 38.7331225,8.23168421 38.4744709,8.87826316 C38.2102824,9.52878947 37.8851881,10.0522105 37.5102619,10.443 C37.1250529,10.8393158 36.7406348,11.1282632 36.3546348,11.3153684 C35.961516,11.4985263 35.5604873,11.5908947 35.1539217,11.5908947 C34.2458725,11.5908947 33.5387332,11.1322105 33.0364586,10.2085263 L32.1821963,14.3216842 L30.8913111,14.3216842 Z" id="Fill-10"></path>
            <path d="M46.9844262,5.99502632 L49.2901434,5.99502632 C50.1902828,5.99502632 50.8491721,5.89871053 51.2676025,5.7045 C51.6836598,5.51265789 52.0182459,5.22134211 52.2705697,4.82739474 C52.5213115,4.43265789 52.6518238,4.01107895 52.6518238,3.56897368 C52.6518238,3.22634211 52.5822172,2.94923684 52.446168,2.73134211 C52.3140738,2.51818421 52.1281926,2.35871053 51.8845697,2.25528947 C51.6401557,2.15265789 51.1750574,2.10134211 50.4837377,2.10134211 L47.7967664,2.10134211 L46.9844262,5.99502632 Z M44.4469508,11.4210789 L46.6371844,0.970815789 L51.0113238,0.970815789 C51.769877,0.970815789 52.3354303,1.05686842 52.7182664,1.22818421 C53.0979385,1.40502632 53.411168,1.70186842 53.654791,2.1195 C53.9007869,2.54107895 54.0257623,3.01318421 54.0257623,3.53344737 C54.0257623,3.97002632 53.942709,4.40739474 53.7639467,4.85423684 C53.5859754,5.30186842 53.362918,5.67055263 53.0979385,5.96028947 C52.8274221,6.24923684 52.5545328,6.46871053 52.2776885,6.61555263 C52.0040082,6.76239474 51.7105533,6.87371053 51.3949508,6.94397368 C50.7170779,7.10107895 50.0431598,7.17607895 49.358959,7.17607895 L46.7360574,7.17607895 L45.8469918,11.4210789 L44.4469508,11.4210789 Z" id="Fill-12"></path>
            <path d="M54.3519639,11.4210789 L55.94105,3.84686842 L57.0832303,3.84686842 L56.7573451,5.39818421 C57.1528369,4.81239474 57.5333,4.37976316 57.9098082,4.09476316 C58.2784066,3.81923684 58.6636156,3.6795 59.0559434,3.6795 C59.3082672,3.6795 59.6270336,3.77028947 60.0051238,3.95502632 L59.4743738,5.15502632 C59.2505254,4.99239474 59.0053205,4.91028947 58.738759,4.91028947 C58.2855254,4.91028947 57.821218,5.16371053 57.3490008,5.66739474 C56.8744107,6.17265789 56.4994844,7.07423684 56.23055,8.38397368 L55.5795705,11.4210789 L54.3519639,11.4210789 Z" id="Fill-14"></path>
            <path d="M61.3534344,2.43078947 L61.661918,0.970263158 L62.9488484,0.970263158 L62.6419467,2.43078947 L61.3534344,2.43078947 Z M59.4669385,11.4213158 L61.0576066,3.84710526 L62.340582,3.84710526 L60.7641516,11.4213158 L59.4669385,11.4213158 Z" id="Fill-16"></path>
            <path d="M68.2961348,8.66178947 L69.588602,8.79757895 C69.2627168,9.741 68.8039463,10.4428421 68.2099176,10.9038947 C67.6095611,11.3625789 66.9277332,11.5907368 66.1699709,11.5907368 C65.343393,11.5907368 64.6773848,11.3262632 64.1640365,10.7925789 C63.6475242,10.2573158 63.3952004,9.516 63.3952004,8.56152632 C63.3952004,7.73652632 63.558934,6.92257895 63.8832373,6.12442105 C64.2130775,5.32310526 64.6892496,4.71678947 65.3014709,4.30231579 C65.9144832,3.88784211 66.6073848,3.681 67.3959955,3.681 C68.2075447,3.681 68.8593152,3.90915789 69.3299504,4.36942105 C69.8132414,4.82731579 70.0442086,5.43047368 70.0442086,6.18915789 L68.7770529,6.27126316 C68.768352,5.79047368 68.627557,5.41942105 68.3538766,5.14705263 C68.0801963,4.87705263 67.7234627,4.74126316 67.274975,4.74126316 C66.7545078,4.74126316 66.3060201,4.90389474 65.9279299,5.23468421 C65.5450939,5.55757895 65.2453111,6.05810526 65.0269996,6.72363158 C64.8047332,7.39468421 64.6987414,8.03652632 64.6987414,8.65152632 C64.6987414,9.30363158 64.8450734,9.78284211 65.1329914,10.1088947 C65.4161635,10.431 65.7649873,10.5912632 66.1913275,10.5912632 C66.6058029,10.5912632 67.0068316,10.4365263 67.3888766,10.1152105 C67.7756676,9.79863158 68.0778234,9.31231579 68.2961348,8.66178947" id="Fill-18"></path>
            <path d="M72.4801217,6.97255263 L76.7395684,6.97255263 C76.7403594,6.83992105 76.7458963,6.74281579 76.7458963,6.69071053 C76.7458963,6.03939474 76.5845357,5.54360526 76.2618143,5.20097368 C75.9335561,4.85360526 75.5214537,4.68465789 75.0088963,4.68465789 C74.4591627,4.68465789 73.9553061,4.87334211 73.4957447,5.25386842 C73.045675,5.63439474 72.7015971,6.20676316 72.4801217,6.97255263 M76.2396668,8.84834211 L77.4989127,8.97307895 C77.3130316,9.59676316 76.8961832,10.1904474 76.2491586,10.7486053 C75.5989701,11.3107105 74.8214332,11.5909737 73.9244578,11.5909737 C73.3628594,11.5909737 72.8447652,11.4615 72.3757119,11.2017632 C71.9106135,10.9420263 71.549134,10.5670263 71.310257,10.0720263 C71.0618881,9.57702632 70.9369127,9.01886842 70.9369127,8.38413158 C70.9369127,7.55518421 71.1330766,6.75307895 71.5127488,5.97781579 C71.8971668,5.20097368 72.3931135,4.62386842 73.0005889,4.24571053 C73.6112283,3.86597368 74.2669537,3.67965789 74.9812119,3.67965789 C75.8876791,3.67965789 76.6027283,3.95755263 77.144552,4.51965789 C77.6887488,5.08097368 77.9632201,5.84439474 77.9632201,6.81386842 C77.9632201,7.18492105 77.9244619,7.56544737 77.8619742,7.95623684 L72.275257,7.95623684 C72.2531094,8.10465789 72.2483635,8.23413158 72.2483635,8.35176316 C72.2483635,9.06307895 72.4081422,9.60228947 72.7364004,9.97728947 C73.0599127,10.3475526 73.4577775,10.5362368 73.9292037,10.5362368 C74.3753184,10.5362368 74.8071955,10.3909737 75.2382816,10.1012368 C75.6654127,9.81386842 75.9960439,9.39307895 76.2396668,8.84834211" id="Fill-20"></path>
            <path d="M79.2146352,8.83065789 L80.5055205,8.75644737 C80.5055205,9.12592105 80.5648443,9.44092105 80.6771639,9.70223684 C80.7934385,9.96513158 81.0054221,10.1798684 81.3091598,10.3480263 C81.6160615,10.5090789 81.975959,10.5919737 82.3809426,10.5919737 C82.9551967,10.5919737 83.3862828,10.4814474 83.6734098,10.2556579 C83.9605369,10.0251316 84.097377,9.75513158 84.097377,9.44486842 C84.097377,9.22539474 84.0095779,9.01144737 83.8450533,8.81171053 C83.663918,8.61355263 83.2344139,8.36960526 82.554959,8.07434211 C81.8731311,7.78144737 81.4365082,7.57697368 81.2419262,7.45697368 C80.9223689,7.26513158 80.6898197,7.03460526 80.5213402,6.76697368 C80.3607705,6.50486842 80.2816721,6.20013158 80.2816721,5.86065789 C80.2816721,5.26381579 80.5165943,4.74828947 80.9911844,4.32118421 C81.4728934,3.89486842 82.1381107,3.68171053 82.9979098,3.68171053 C83.9423443,3.68171053 84.6708402,3.90039474 85.1683689,4.34013158 C85.6706434,4.77671053 85.9261311,5.35855263 85.9443238,6.07697368 L84.676377,6.16144737 C84.6621393,5.70197368 84.4984057,5.34276316 84.193877,5.07828947 C83.8885574,4.81144737 83.4535164,4.67644737 82.8998279,4.67644737 C82.4513402,4.67644737 82.1001434,4.77828947 81.8588934,4.9875 C81.6097336,5.18802632 81.4863402,5.40907895 81.4863402,5.6475 C81.4863402,5.8875 81.5939139,6.09118421 81.8082705,6.27197368 C81.9506475,6.39828947 82.3192459,6.58618421 82.9156475,6.84513158 C83.905959,7.27302632 84.5252992,7.60697368 84.7855328,7.85644737 C85.1952623,8.25276316 85.400127,8.73118421 85.400127,9.29881579 C85.400127,9.67302632 85.2854344,10.0393421 85.0513033,10.4032895 C84.8282459,10.7632895 84.4699303,11.0546053 83.9961311,11.2677632 C83.522332,11.4864474 82.9662705,11.5938158 82.3224098,11.5938158 C81.444418,11.5938158 80.7008934,11.3798684 80.0870902,10.9448684 C79.4717049,10.5090789 79.180623,9.80723684 79.2146352,8.83065789" id="Fill-22"></path>
            <polygon id="Fill-24" points="87.053441 11.4210789 87.3666705 9.95897368 88.8299902 9.95897368 88.5088508 11.4210789"></polygon>
            <path d="M95.9543004,8.04268421 L97.326657,7.91557895 L97.3100463,8.27715789 C97.3100463,8.68215789 97.4033824,9.04926316 97.5860996,9.38715789 C97.7735627,9.72110526 98.0804643,9.98163158 98.5083865,10.1632105 C98.9378906,10.3479474 99.4512389,10.4379474 100.042895,10.4379474 C100.876591,10.4379474 101.518079,10.2555789 101.954702,9.88847368 C102.398444,9.52294737 102.615964,9.10452632 102.615964,8.63163158 C102.615964,8.304 102.501272,8.00557895 102.270305,7.73636842 C102.031427,7.46636842 101.381239,7.10715789 100.322903,6.64847368 C99.4907881,6.29321053 98.9378906,6.02321053 98.6365258,5.83057895 C98.1674725,5.52426316 97.8139029,5.18636842 97.5876816,4.82242105 C97.3685791,4.46084211 97.2562594,4.04636842 97.2562594,3.57663158 C97.2562594,3.04136842 97.4049643,2.559 97.6960463,2.12794737 C97.9966201,1.69215789 98.4245422,1.36452632 98.9924684,1.13557895 C99.5683045,0.909 100.205837,0.789 100.921677,0.789 C101.767239,0.789 102.490989,0.933473684 103.074735,1.22005263 C103.663227,1.50663158 104.088776,1.88557895 104.348218,2.36084211 C104.616362,2.83689474 104.747665,3.29005263 104.747665,3.72189474 C104.747665,3.76531579 104.742919,3.83715789 104.738173,3.93663158 L103.388755,4.04005263 C103.388755,3.74952632 103.364235,3.51821053 103.308866,3.354 C103.213948,3.06268421 103.069989,2.81557895 102.866706,2.61347368 C102.668169,2.41847368 102.391325,2.25663158 102.047247,2.13821053 C101.697632,2.01663158 101.300559,1.95189474 100.8671,1.95189474 C100.110128,1.95189474 99.5137266,2.12557895 99.0889684,2.46742105 C98.7670381,2.72873684 98.6072594,3.07768421 98.6072594,3.50636842 C98.6072594,3.76373684 98.674493,3.99110526 98.8081693,4.19478947 C98.9394725,4.39926316 99.1815135,4.59505263 99.5271734,4.79084211 C99.7700053,4.92978947 100.365616,5.20057895 101.289485,5.60952632 C102.047247,5.94426316 102.562968,6.20478947 102.844559,6.39584211 C103.226604,6.64610526 103.522432,6.95005263 103.725714,7.30926316 C103.932952,7.67084211 104.031825,8.07426316 104.031825,8.53215789 C104.031825,9.09584211 103.855436,9.61926316 103.516895,10.0984737 C103.171235,10.5761053 102.694272,10.9447895 102.085214,11.2029474 C101.477739,11.469 100.777718,11.5976842 99.9891078,11.5976842 C98.8081693,11.5976842 97.8384234,11.3395263 97.0885709,10.824 C96.3379275,10.3068947 95.9590463,9.38005263 95.9543004,8.04268421" id="Fill-26"></path>
            <path d="M105.452273,11.4210789 L107.037405,3.84686842 L108.333036,3.84686842 L108.064892,5.09581579 C108.548974,4.56055263 108.98006,4.19186842 109.357359,3.98423684 C109.738614,3.7845 110.148343,3.68107895 110.58813,3.68107895 C111.058765,3.68107895 111.458212,3.80186842 111.771441,4.0545 C112.087835,4.30318421 112.296655,4.65371053 112.3979,5.09581579 C112.784691,4.62528947 113.187302,4.26607895 113.616806,4.03397368 C114.041564,3.79871053 114.491634,3.68107895 114.962269,3.68107895 C115.596638,3.68107895 116.071228,3.83028947 116.38604,4.12713158 C116.702433,4.42476316 116.859839,4.8495 116.859839,5.39028947 C116.859839,5.62239474 116.806052,6.01002632 116.697687,6.54607895 L115.672573,11.4218684 L114.38406,11.4218684 L115.424204,6.41660526 C115.515167,6.01002632 115.561044,5.71713158 115.561044,5.5395 C115.561044,5.29318421 115.480364,5.09739474 115.325331,4.95528947 C115.16397,4.81397368 114.947241,4.74371053 114.660905,4.74371053 C114.278068,4.74371053 113.883368,4.85739474 113.483921,5.09186842 C113.074982,5.32397368 112.768872,5.63265789 112.552933,6.00765789 C112.331458,6.38423684 112.13213,6.96686842 111.969978,7.74923684 L111.195605,11.4218684 L109.901556,11.4218684 L110.978085,6.30765789 C111.050064,5.96344737 111.088823,5.71713158 111.088823,5.56871053 C111.088823,5.31923684 111.012097,5.12423684 110.857064,4.9695 C110.698868,4.81713158 110.501913,4.74371053 110.255126,4.74371053 C109.887318,4.74371053 109.502109,4.85581579 109.103454,5.09107895 C108.701634,5.32318421 108.372585,5.64765789 108.121843,6.06292105 C107.869519,6.47739474 107.65279,7.07265789 107.496966,7.84318421 L106.747905,11.4210789 L105.452273,11.4210789 Z" id="Fill-29"></path>
            <path d="M123.528305,7.58778947 C123.349543,7.65726316 123.152588,7.71252632 122.943768,7.74884211 C122.741277,7.78831579 122.392453,7.82936842 121.913117,7.86963158 C121.158518,7.93436842 120.623023,8.02357895 120.316121,8.12305263 C120.008428,8.22805263 119.774297,8.39226316 119.6161,8.61094737 C119.456322,8.83278947 119.380387,9.08226316 119.380387,9.35068421 C119.380387,9.71463158 119.506945,10.0106842 119.756895,10.2427895 C120.008428,10.4756842 120.357252,10.5917368 120.825514,10.5917368 C121.251064,10.5917368 121.665539,10.4796316 122.057867,10.2554211 C122.453359,10.0296316 122.768961,9.71463158 122.9936,9.30726316 C123.22615,8.90778947 123.397002,8.32910526 123.528305,7.58778947 M123.052924,10.4812105 C122.605227,10.8625263 122.168605,11.1475263 121.760457,11.3243684 C121.345982,11.5051579 120.903822,11.5904211 120.426068,11.5904211 C119.731584,11.5904211 119.161285,11.3875263 118.738109,10.9754211 C118.307023,10.5656842 118.097412,10.0383158 118.097412,9.39568421 C118.097412,8.97094737 118.191539,8.59594737 118.384539,8.27068421 C118.575957,7.94621053 118.833818,7.68963158 119.154957,7.49068421 C119.470559,7.29094737 119.866051,7.15042105 120.325613,7.06436842 C120.611949,7.01068421 121.164846,6.96015789 121.975605,6.927 C122.787154,6.89621053 123.373273,6.81252632 123.72526,6.672 C123.826506,6.32147368 123.875547,6.02936842 123.875547,5.79489474 C123.875547,5.49726316 123.761645,5.26278947 123.54808,5.09068421 C123.245924,4.85147368 122.807719,4.73305263 122.233465,4.73305263 C121.691641,4.73305263 121.243154,4.85147368 120.900658,5.09384211 C120.551043,5.33226316 120.303465,5.67410526 120.146059,6.11857895 L118.841727,6.00173684 C119.108289,5.25015789 119.525928,4.67621053 120.110465,4.27831579 C120.686301,3.87963158 121.414797,3.68147368 122.295953,3.68147368 C123.23485,3.68147368 123.978375,3.90331579 124.524154,4.34857895 C124.944957,4.68173684 125.150613,5.11357895 125.150613,5.64568421 C125.150613,6.05147368 125.091289,6.51805263 124.972641,7.05173684 L124.551047,8.93226316 C124.415789,9.52910526 124.351719,10.017 124.351719,10.3935789 C124.351719,10.6304211 124.403133,10.9714737 124.508334,11.4206842 L123.204793,11.4206842 C123.12965,11.1727895 123.079818,10.8609474 123.052924,10.4812105" id="Fill-31"></path>
            <path d="M126.369756,11.4210789 L127.951723,3.84686842 L129.093903,3.84686842 L128.772764,5.39818421 C129.16351,4.81239474 129.547137,4.37976316 129.916526,4.09476316 C130.28987,3.81923684 130.671916,3.6795 131.066616,3.6795 C131.31894,3.6795 131.634543,3.77028947 132.014215,3.95502632 L131.485838,5.15502632 C131.264362,4.99239474 131.017575,4.91028947 130.751805,4.91028947 C130.296989,4.91028947 129.834264,5.16371053 129.352555,5.66739474 C128.879547,6.17265789 128.510157,7.07423684 128.23885,8.38397368 L127.592616,11.4210789 L126.369756,11.4210789 Z" id="Fill-33"></path>
            <path d="M134.551057,10.3733684 L134.339074,11.4288947 C134.029008,11.5078421 133.72448,11.5481053 133.432607,11.5481053 C132.923213,11.5481053 132.515857,11.4241579 132.206582,11.1683684 C131.977988,10.9788947 131.868041,10.7231053 131.868041,10.3931053 C131.868041,10.2281053 131.928156,9.84521053 132.049176,9.246 L132.971463,4.84942105 L131.951094,4.84942105 L132.15675,3.84678947 L133.181074,3.84678947 L133.571029,1.99073684 L135.047795,1.09547368 L134.470377,3.846 L135.745443,3.846 L135.528713,4.84863158 L134.266303,4.84863158 L133.382775,9.02810526 C133.272828,9.56178947 133.225369,9.88310526 133.225369,9.98336842 C133.225369,10.1396842 133.268873,10.2557368 133.351926,10.3362632 C133.43498,10.4152105 133.583684,10.4554737 133.784594,10.4554737 C134.070139,10.4578421 134.322463,10.4302105 134.551057,10.3733684" id="Fill-35"></path>
            <polygon id="Fill-37" points="143.074222 11.4210789 145.014505 2.16055263 141.580054 2.16055263 141.82605 0.970815789 150.06889 0.970815789 149.818148 2.16055263 146.412964 2.16055263 144.4798 11.4210789"></polygon>
            <path d="M148.382434,11.4210789 L149.966774,3.84686842 L151.106582,3.84686842 L150.787815,5.39818421 C151.180143,4.81239474 151.564561,4.37976316 151.936323,4.09476316 C152.308877,3.81923684 152.688549,3.6795 153.086414,3.6795 C153.338737,3.6795 153.659086,3.77028947 154.03243,3.95502632 L153.504844,5.15502632 C153.278623,4.99239474 153.032627,4.91028947 152.764483,4.91028947 C152.312041,4.91028947 151.849315,5.16371053 151.376307,5.66739474 C150.899344,6.17265789 150.526,7.07423684 150.254692,8.38397368 L149.608459,11.4210789 L148.382434,11.4210789 Z" id="Fill-39"></path>
            <path d="M159.137596,7.58778947 C158.958043,7.65726316 158.763461,7.71252632 158.557014,7.74884211 C158.348986,7.78831579 158.004908,7.82936842 157.520826,7.86963158 C156.764645,7.93436842 156.229941,8.02357895 155.929367,8.12305263 C155.616137,8.22805263 155.380424,8.39226316 155.221436,8.61094737 C155.068777,8.83278947 154.989678,9.08226316 154.989678,9.35068421 C154.989678,9.71463158 155.117818,10.0106842 155.363814,10.2427895 C155.616137,10.4756842 155.968916,10.5917368 156.428477,10.5917368 C156.862727,10.5917368 157.272457,10.4796316 157.665576,10.2554211 C158.065023,10.0296316 158.374297,9.71463158 158.608428,9.30726316 C158.82674,8.90778947 159.006293,8.32910526 159.137596,7.58778947 M158.659051,10.4812105 C158.213727,10.8625263 157.777105,11.1475263 157.366584,11.3243684 C156.950527,11.5051579 156.508367,11.5904211 156.041686,11.5904211 C155.337711,11.5904211 154.772158,11.3875263 154.348982,10.9754211 C153.914732,10.5656842 153.70433,10.0383158 153.70433,9.39568421 C153.70433,8.97094737 153.799248,8.59594737 153.991457,8.27068421 C154.18683,7.94621053 154.437572,7.68963158 154.759502,7.49068421 C155.07985,7.29094737 155.472178,7.15042105 155.934904,7.06436842 C156.222822,7.01068421 156.775719,6.96015789 157.584105,6.927 C158.398027,6.89621053 158.9794,6.81252632 159.331387,6.672 C159.433424,6.32147368 159.481674,6.02936842 159.481674,5.79489474 C159.481674,5.49726316 159.370936,5.26278947 159.152625,5.09068421 C158.85126,4.85147368 158.412264,4.73305263 157.841174,4.73305263 C157.296186,4.73305263 156.854027,4.85147368 156.506785,5.09384211 C156.160334,5.33226316 155.915129,5.67410526 155.752977,6.11857895 L154.442318,6.00173684 C154.710461,5.25015789 155.133637,4.67621053 155.711846,4.27831579 C156.290055,3.87963158 157.020133,3.68147368 157.901289,3.68147368 C158.835441,3.68147368 159.580547,3.90331579 160.127117,4.34857895 C160.549502,4.68173684 160.754367,5.11357895 160.754367,5.64568421 C160.754367,6.05147368 160.698998,6.51805263 160.577977,7.05173684 L160.15401,8.93226316 C160.027453,9.52910526 159.953891,10.017 159.953891,10.3935789 C159.953891,10.6304211 160.007678,10.9714737 160.110506,11.4206842 L158.809338,11.4206842 C158.736568,11.1727895 158.693064,10.8609474 158.659051,10.4812105" id="Fill-41"></path>
            <path d="M163.548675,8.24928947 C163.548675,8.77665789 163.596134,9.19034211 163.703707,9.49428947 C163.806535,9.79902632 163.988461,10.0516579 164.23683,10.2553421 C164.490736,10.4574474 164.788937,10.5545526 165.147252,10.5545526 C165.727834,10.5545526 166.261748,10.2553421 166.736339,9.64507895 C167.371498,8.83744737 167.695011,7.83955263 167.695011,6.64902632 C167.695011,6.05376316 167.539978,5.58639474 167.218048,5.24771053 C166.902445,4.91060526 166.509326,4.74402632 166.032363,4.74402632 C165.727834,4.74402632 165.445453,4.81192105 165.186802,4.94692105 C164.934478,5.08665789 164.681363,5.31797368 164.431412,5.65271053 C164.18067,5.98271053 163.968687,6.40271053 163.800998,6.90876316 C163.630146,7.41718421 163.548675,7.86560526 163.548675,8.24928947 Z M167.089117,10.3240263 C166.348757,11.1679737 165.57992,11.5903421 164.774699,11.5903421 C164.056486,11.5903421 163.455339,11.3290263 162.978375,10.7961316 C162.494293,10.2663947 162.259371,9.49665789 162.259371,8.49244737 C162.259371,7.56639474 162.446834,6.72323684 162.823343,5.96376316 C163.210134,5.20113158 163.679978,4.62955263 164.251859,4.25139474 C164.813457,3.86613158 165.388502,3.67981579 165.955638,3.67981579 C166.902445,3.67981579 167.611166,4.12823684 168.092875,5.03771053 L168.951884,0.968763158 L170.239605,0.968763158 L168.052535,11.4206053 L166.859732,11.4206053 L167.089117,10.3240263 Z" id="Fill-43"></path>
            <path d="M172.236759,2.43078947 L172.541288,0.970263158 L173.828218,0.970263158 L173.524481,2.43078947 L172.236759,2.43078947 Z M170.349473,11.4213158 L171.936186,3.84710526 L173.225489,3.84710526 L171.646686,11.4213158 L170.349473,11.4213158 Z" id="Fill-45"></path>
            <path d="M173.944968,11.4210789 L175.532472,3.84686842 L176.701545,3.84686842 L176.422328,5.17002632 C176.931722,4.65371053 177.407894,4.27318421 177.851636,4.03634211 C178.287468,3.79871053 178.748611,3.68107895 179.209755,3.68107895 C179.818021,3.68107895 180.297357,3.84607895 180.656464,4.18081579 C181.005287,4.51239474 181.176931,4.95371053 181.176931,5.51186842 C181.176931,5.79292105 181.116025,6.23344737 180.995795,6.83581579 L180.026841,11.4210789 L178.737537,11.4210789 L179.742877,6.62265789 C179.843332,6.15607895 179.896328,5.81186842 179.896328,5.58686842 C179.896328,5.33660526 179.807738,5.13055263 179.628976,4.97581579 C179.45575,4.81555263 179.212918,4.74134211 178.877541,4.74134211 C178.214697,4.74134211 177.627787,4.97818421 177.109693,5.45344737 C176.596345,5.92871053 176.211136,6.74107895 175.969886,7.89844737 L175.235853,11.4187105 L173.944968,11.4187105 L173.944968,11.4210789 Z" id="Fill-47"></path>
            <path d="M183.916107,8.06889474 C183.916107,8.58836842 183.957238,8.97757895 184.064812,9.23968421 C184.202443,9.60363158 184.40889,9.88468421 184.672287,10.0741579 C184.942013,10.2715263 185.229931,10.3670526 185.557398,10.3670526 C185.980574,10.3670526 186.40375,10.2162632 186.82139,9.92257895 C187.242984,9.62415789 187.579152,9.16310526 187.840968,8.54336842 C188.094873,7.91968421 188.22855,7.32284211 188.22855,6.75994737 C188.22855,6.13705263 188.06007,5.64205263 187.7065,5.27257895 C187.365586,4.90468421 186.94241,4.72152632 186.432226,4.72152632 C186.115832,4.72152632 185.807349,4.80442105 185.511521,4.97415789 C185.224394,5.13994737 184.943595,5.39968421 184.687316,5.74389474 C184.436574,6.08810526 184.239619,6.501 184.11148,6.97626316 C183.978595,7.45942105 183.916107,7.82257895 183.916107,8.06889474 M182.300127,12.1015263 L183.609205,12.2270526 C183.591804,12.5223158 183.634517,12.7417895 183.712824,12.8894211 C183.795086,13.0370526 183.917689,13.1499474 184.09566,13.2304737 C184.326627,13.3386316 184.637484,13.386 185.003709,13.386 C185.789947,13.386 186.3468,13.1862632 186.694041,12.7828421 C186.915517,12.5136316 187.121173,11.9183684 187.314173,11.0128421 L187.441521,10.4017895 C186.772349,11.0823158 186.053345,11.4217895 185.299537,11.4217895 C184.531492,11.4217895 183.892377,11.1391579 183.375074,10.5762632 C182.854607,10.0133684 182.601492,9.21442105 182.601492,8.18415789 C182.601492,7.33468421 182.801611,6.55231579 183.21055,5.83863158 C183.613951,5.12652632 184.101197,4.58810526 184.661214,4.22415789 C185.226767,3.86257895 185.802603,3.681 186.39505,3.681 C187.394062,3.681 188.155779,4.14836842 188.696021,5.09178947 L188.9523,3.84678947 L190.138775,3.84678947 L188.609804,11.1565263 C188.443697,11.9602105 188.227759,12.5831053 187.951705,13.0370526 C187.683562,13.4799474 187.3118,13.8344211 186.823763,14.0799474 C186.340472,14.3270526 185.778873,14.451 185.146086,14.451 C184.53782,14.451 184.011025,14.3736316 183.568865,14.2133684 C183.13066,14.0586316 182.801611,13.8273158 182.586464,13.5233684 C182.372898,13.2241579 182.259787,12.8775789 182.259787,12.4891579 C182.262951,12.3707368 182.278771,12.2444211 182.300127,12.1015263" id="Fill-49"></path>
            <polygon id="Fill-52" points="191.157008 11.4210789 191.463119 9.95897368 192.924066 9.95897368 192.612418 11.4210789"></polygon>
        </g>
    </g>
</svg>