<svg xmlns="http://www.w3.org/2000/svg" width="40" height="40"><g fill="none" fill-rule="evenodd"><path d="M17.15 16.575a1.056 1.056 0 100-2.112 1.056 1.056 0 000 2.112z"/><path fill="#FF6544" d="M32.4 0a7.477 7.477 0 017.478 7.477v24.924a7.477 7.477 0 01-7.477 7.477H7.477A7.477 7.477 0 010 32.401V7.477A7.477 7.477 0 017.477 0h24.924z"/><path fill="#FFF" fill-rule="nonzero" d="M31.575 19.288v-5.75A6.05 6.05 0 0025.538 7.5h-4.826v11.788h10.863zM20.712 32.5h4.826a6.05 6.05 0 006.037-6.038v-5.75H20.712V32.5zm-5.968-15.125a3.531 3.531 0 113.462-4.2h1.082V7.5h-4.825a6.05 6.05 0 00-6.038 6.037v12.925a6.05 6.05 0 006.037 6.038h4.826V14.506h-1.082a3.531 3.531 0 01-3.462 2.869z"/><path d="M0 0h40v40H0z"/></g></svg>