<svg xmlns="http://www.w3.org/2000/svg" width="46" height="46" viewBox="0 0 60.47 60.47"><path fill="#fff" d="M51.61 8.85a30.24 30.24 0 1 0 0 42.77 30.26 30.26 0 0 0 0-42.77z"/><path fill="#2a3052" d="M21.8 38.17A5.51 5.51 0 0 0 24.33 42l-.58-1.08s1.11-2.92-1.95-2.75z"/><path fill="#2a3052" d="M50.08 10.38a28.08 28.08 0 1 0 0 39.72 28.1 28.1 0 0 0 0-39.72zm-2.9 36.81c-.31.3-.61.59-.92.87-6.75 5.5-11.94 2.76-12 2.76-3.52-.7-5.27-.71-6.26-1.37-.25-.17-1-.59-1.23-.49a2.25 2.25 0 0 1-2.72-.16l-.25-.23a1.93 1.93 0 0 1-.37-2.67c.26-.26-.2-1-.2-1s-1.32-2-2.22-3.15a8.79 8.79 0 0 1-1.14-3.91 10.46 10.46 0 0 1-1.46-2.14 5.55 5.55 0 0 0-.78-.94 5 5 0 0 1-.47-.51.21.21 0 0 1 0-.16 5.65 5.65 0 0 1 1.55-2c.32-.21 1.68-1 1.68-1a2.71 2.71 0 0 1 2.08-1.21 9.93 9.93 0 0 1 3.93.6l.84.27c1.42.45 2.67 1 3.66 1.42a16.55 16.55 0 0 0 2 .79c1.75.46 4.85-1 5.5-1.56 1.07-1 1.53-1.63 1.54-2.16a1.2 1.2 0 0 0-.43-.88c-.16-.14-.36-.42-.62-.67a1.12 1.12 0 0 0-.14-.12c-3-3.15-2.46-5.13-2.45-5.16.13-1.42-.69-2.33-1.56-3.27l-.14-.18a1 1 0 0 1-.1-.11 37.8 37.8 0 0 0 4.59 1 8.79 8.79 0 0 0 2.08.11c1.54 0 2.77-.18 2.85-.54a21.27 21.27 0 0 1-4.11-1.21c-1.52-.58-1.76-.67-2.72-1-1.24-.42-2.58-1-2.58-1 5.35 1.4 7.1 2 9.54 2A7.68 7.68 0 0 0 46 18c.35-.06 1.43-.31 1.55-.68a8.74 8.74 0 0 1-3-.48c-6.24-2.06-6.77-3.09-10.23-4.44a31.17 31.17 0 0 0-5.25-1.67 10.13 10.13 0 0 0-4.54 0c-4.73-1.11-5.81-1-7.2-.69a24 24 0 0 1 29.86 3.23 24.46 24.46 0 0 1 2.92 3.54l.11.17a24 24 0 0 1-3 30.19zM31.46 20.13a5.51 5.51 0 0 1 3.1 3.34c-3 .68-2.36-2.37-2.36-2.37z"/></svg>