<svg xmlns="http://www.w3.org/2000/svg" width="565" height="52" viewBox="0 0 565 52"><style>.st0{fill:#fff}.st2{fill:none}.st3{fill:#0e0e0e}</style><g id="Layer_1"><path class="st0" d="M425.4 44.9H37.5c-.5 0-1 .2-1.4.5L29.6 51c-.4.3-.9.5-1.4.5h-9.5c-.5 0-1-.2-1.4-.5l-6.5-5.6c-.4-.3-.9-.5-1.4-.5H4.7c-2.5 0-4.5-2-4.5-4.5V4.9C.2 2.4 2.2.4 4.7.4h4.7c.5 0 1 .2 1.4.5l6.5 5.6c.4.3.9.5 1.4.5h9.5c.5 0 1-.2 1.4-.5L36.1.9c.4-.3.9-.5 1.4-.5H432v8.2c0 .5-.2 1-.5 1.4l-5.6 6.5c-.3.4-.5.9-.5 1.4v9.5c0 .5.2 1 .5 1.4l5.6 6.5c.3.4.5.9.5 1.4v8l-6.6.2z"/><g id="logo_x2F_platforms_x2F_DBot_2_" transform="translate(16 8)"><g id="_x33_-icons_x2F_2-binarybot_2_"><g id="ic_platform-binarybot_2_"><path id="Rectangle_4_" d="M1.6 4.6H18c2.7 0 4.9 2.2 4.9 4.9v16.4c0 2.7-2.2 4.9-4.9 4.9H1.6c-2.7 0-4.9-2.2-4.9-4.9V9.5c0-2.7 2.2-4.9 4.9-4.9z" fill="#ff6444"/><path id="Path_8_" class="st2" d="M8 15.5c.4 0 .7-.3.7-.7s-.4-.7-.7-.7c-.4 0-.7.3-.7.7 0 .2.1.4.2.5.1.1.3.2.5.2z"/><path id="Path_3_" class="st0" d="M17.4 17.2v-3.8c0-2.2-1.8-4-4-4h-3.2v7.7h7.2z"/><path id="Path_2_" class="st0" d="M10.3 25.9h3.2c2.2 0 4-1.8 4-4v-3.8h-7.1v7.8z"/><path id="Path_1_" class="st0" d="M6.4 16c-1.2 0-2.2-.9-2.3-2.2-.1-1.2.8-2.3 2-2.4 1.2-.2 2.3.7 2.6 1.9h.7V9.5H6.2c-2.2 0-4 1.8-4 4V22c0 2.2 1.8 4 4 4h3.2V14.1h-.8C8.4 15.2 7.5 16 6.4 16z"/><path id="Rectangle_3_" class="st2" d="M-3.3 4.6h26.2v26.2H-3.3z"/></g></g></g><path class="st3" d="M51.4 16.8h5.4c1.8 0 2.9 1.1 2.9 2.9 0 1.7-.9 2.4-2.1 2.4v.1c1.1 0 2.5.7 2.5 2.6 0 1.8-1.2 3.2-2.9 3.2h-5.9V16.8zm2.5 4.6h2.4c.6 0 1-.4 1-1v-.5c0-.6-.4-1-1-1h-2.4v2.5zm0 4.6h2.8c.6 0 1-.4 1-1v-.5c0-.6-.4-1-1-1h-2.8V26zM67 26.6c-.4.8-1.1 1.6-2.4 1.6-1.7 0-2.6-1.2-2.6-3.3v-5.3h2.4v5.1c0 1 .3 1.6 1.2 1.6.7 0 1.5-.4 1.5-1.2v-5.5h2.4V28H67v-1.4zM71.3 17.6v-.4c0-.7.4-1.2 1.4-1.2 1 0 1.4.5 1.4 1.2v.4c0 .7-.4 1.2-1.4 1.2-.9-.1-1.4-.6-1.4-1.2zm.2 2h2.4V28h-2.4v-8.4zM78.5 28c-1.6 0-2.4-.8-2.4-2.3v-9.5h2.4v10h1.1V28h-1.1zM86.1 26.6c-.3.9-1.2 1.6-2.3 1.6-2.1 0-3.2-1.6-3.2-4.4 0-2.8 1.1-4.4 3.2-4.4 1.1 0 2 .7 2.3 1.6h.1v-4.9h2.4V28h-2.4v-1.4zm0-1.5v-2.5c0-.8-.7-1.2-1.6-1.2S83 22 83 23.1v1.5c0 1.1.7 1.7 1.6 1.7s1.5-.5 1.5-1.2zM90.5 17.6v-.4c0-.7.4-1.2 1.4-1.2 1 0 1.4.5 1.4 1.2v.4c0 .7-.4 1.2-1.4 1.2-1-.1-1.4-.6-1.4-1.2zm.2 2H93V28h-2.4v-8.4zM95.3 28v-8.4h2.4V21h.1c.3-.9 1-1.6 2.3-1.6 1.7 0 2.6 1.2 2.6 3.3V28h-2.4v-5.1c0-1.1-.3-1.6-1.2-1.6-.8 0-1.5.4-1.5 1.2V28h-2.3zM108 31.4c-2.9 0-4-.7-4-2 0-.9.6-1.5 1.6-1.6v-.2c-.8-.1-1.2-.8-1.2-1.5 0-.9.8-1.3 1.6-1.5v-.1c-1-.5-1.5-1.3-1.5-2.4 0-1.7 1.2-2.8 3.6-2.8.5 0 1 0 1.4.2v-.3c0-.9.5-1.3 1.3-1.3h1.3v1.8h-1.9v.1c1 .5 1.4 1.3 1.4 2.4 0 1.7-1.2 2.8-3.6 2.8-.6 0-1.1-.1-1.5-.2-.2.1-.4.4-.4.7 0 .4.3.6 1 .6h2.4c2 0 2.9.9 2.9 2.4.2 1.9-1 2.9-4.4 2.9zm1-3.2h-2.9c-.2.2-.3.5-.3.8 0 .6.5.9 1.8.9h1c1.3 0 1.8-.3 1.8-.9-.1-.5-.4-.8-1.4-.8zm.4-5.9v-.2c0-.7-.5-1.2-1.4-1.2-.9 0-1.4.4-1.4 1.2v.2c0 .7.5 1.2 1.4 1.2 1 0 1.4-.4 1.4-1.2zM123.6 28c-.8 0-1.5-.6-1.6-1.5h-.1c-.3 1.1-1.2 1.7-2.5 1.7-1.7 0-2.6-1-2.6-2.4 0-1.8 1.4-2.6 3.6-2.6h1.3v-.5c0-.8-.4-1.3-1.4-1.3-.9 0-1.4.5-1.8 1l-1.4-1.2c.7-1 1.6-1.6 3.4-1.6 2.4 0 3.6 1.1 3.6 3.1v3.7h.8V28h-1.3zm-1.8-2.5v-1h-1.2c-.9 0-1.4.3-1.4.9v.2c0 .6.4.9 1.1.9.8.1 1.5-.3 1.5-1zM133.2 28c-1.6 0-2.5-.8-2.5-2.4v-4.1h-1.2v-1.8h.6c.6 0 .8-.3.8-.9v-1.4h2.1v2.3h1.7v1.8H133v4.7h1.5V28h-1.3zM136.4 28v-8.4h2.4v1.8h.1c.2-.9.8-1.8 2.1-1.8h.4v2.2h-.6c-1.4 0-2 .3-2 1.3V28h-2.4zM148.9 28c-.8 0-1.5-.6-1.6-1.5h-.1c-.3 1.1-1.2 1.7-2.5 1.7-1.7 0-2.6-1-2.6-2.4 0-1.8 1.4-2.6 3.6-2.6h1.3v-.5c0-.8-.4-1.3-1.4-1.3-.9 0-1.4.5-1.8 1l-1.4-1.2c.7-1 1.6-1.6 3.4-1.6 2.4 0 3.6 1.1 3.6 3.1v3.7h.8V28h-1.3zm-1.9-2.5v-1h-1.2c-.9 0-1.4.3-1.4.9v.2c0 .6.4.9 1.1.9.9.1 1.5-.3 1.5-1zM156.9 26.6c-.3.9-1.2 1.6-2.3 1.6-2.1 0-3.2-1.6-3.2-4.4 0-2.8 1.1-4.4 3.2-4.4 1.1 0 2 .7 2.3 1.6h.1v-4.9h2.4V28H157v-1.4zm0-1.5v-2.5c0-.8-.7-1.2-1.6-1.2s-1.6.7-1.6 1.7v1.5c0 1.1.7 1.7 1.6 1.7s1.6-.5 1.6-1.2zM161.3 17.6v-.4c0-.7.4-1.2 1.4-1.2 1 0 1.4.5 1.4 1.2v.4c0 .7-.4 1.2-1.4 1.2-1-.1-1.4-.6-1.4-1.2zm.2 2h2.4V28h-2.4v-8.4zM166.1 28v-8.4h2.4V21h.1c.3-.9 1-1.6 2.3-1.6 1.7 0 2.6 1.2 2.6 3.3V28h-2.4v-5.1c0-1.1-.3-1.6-1.2-1.6-.8 0-1.5.4-1.5 1.2V28h-2.3zM178.8 31.4c-2.9 0-4-.7-4-2 0-.9.6-1.5 1.6-1.6v-.2c-.8-.1-1.2-.8-1.2-1.5 0-.9.8-1.3 1.6-1.5v-.1c-1-.5-1.5-1.3-1.5-2.4 0-1.7 1.2-2.8 3.6-2.8.5 0 1 0 1.4.2v-.3c0-.9.5-1.3 1.3-1.3h1.3v1.8H181v.1c1 .5 1.4 1.3 1.4 2.4 0 1.7-1.2 2.8-3.6 2.8-.6 0-1.1-.1-1.5-.2-.2.1-.4.4-.4.7 0 .4.3.6 1 .6h2.4c2 0 2.9.9 2.9 2.4.2 1.9-1 2.9-4.4 2.9zm1-3.2H177c-.2.2-.3.5-.3.8 0 .6.5.9 1.8.9h1c1.3 0 1.8-.3 1.8-.9-.2-.5-.5-.8-1.5-.8zm.4-5.9v-.2c0-.7-.5-1.2-1.4-1.2-.9 0-1.4.4-1.4 1.2v.2c0 .7.5 1.2 1.4 1.2 1 0 1.4-.4 1.4-1.2zM188.2 16.2h2.4V21h.1c.2-.9 1.2-1.6 2.3-1.6 2.1 0 3.2 1.5 3.2 4.4 0 2.8-1.1 4.4-3.2 4.4-1.1 0-2-.7-2.3-1.6h-.1V28h-2.4V16.2zm5.5 8.3V23c0-1.1-.7-1.7-1.6-1.7s-1.6.5-1.6 1.2V25c0 .8.7 1.2 1.6 1.2s1.6-.6 1.6-1.7zM197.4 23.8c0-2.7 1.5-4.4 3.9-4.4s3.9 1.7 3.9 4.4-1.5 4.4-3.9 4.4-3.9-1.7-3.9-4.4zm5.4.9V23c0-1.1-.5-1.7-1.5-1.7-.9 0-1.5.6-1.5 1.7v1.7c0 1.1.5 1.7 1.5 1.7 1-.1 1.5-.7 1.5-1.7zM209.8 28c-1.6 0-2.5-.8-2.5-2.4v-4.1h-1.2v-1.8h.6c.6 0 .8-.3.8-.9v-1.4h2.1v2.3h1.7v1.8h-1.7v4.7h1.5V28h-1.3zM216.8 19.6h2.4v9.3c0 1.5-.7 2.3-2.4 2.3h-1.2v-1.8h1.2v-9.8zm-.2-2v-.4c0-.7.4-1.2 1.4-1.2 1 0 1.4.5 1.4 1.2v.4c0 .7-.4 1.2-1.4 1.2-1-.1-1.4-.6-1.4-1.2zM226.3 26.6c-.4.8-1.1 1.6-2.4 1.6-1.7 0-2.6-1.2-2.6-3.3v-5.3h2.4v5.1c0 1 .3 1.6 1.2 1.6.7 0 1.5-.4 1.5-1.2v-5.5h2.4V28h-2.4v-1.4zM230.2 26.7l1.4-1.4c.6.7 1.3 1.1 2.2 1.1.9 0 1.2-.3 1.2-.8 0-.4-.3-.6-.8-.7l-.9-.1c-1.9-.2-2.8-1.1-2.8-2.6 0-1.6 1.3-2.7 3.3-2.7 1.8 0 2.6.5 3.4 1.3l-1.4 1.4c-.5-.5-1.2-.9-1.9-.9-.8 0-1.1.3-1.1.7 0 .4.2.7.9.8l.9.1c1.8.2 2.8 1.1 2.8 2.5 0 1.6-1.4 2.8-3.6 2.8-1.7 0-2.8-.5-3.6-1.5zM241.8 28c-1.6 0-2.5-.8-2.5-2.4v-4.1h-1.2v-1.8h.6c.6 0 .8-.3.8-.9v-1.4h2.1v2.3h1.7v1.8h-1.7v4.7h1.5V28h-1.3zM251.9 31.4c-2.9 0-4-.7-4-2 0-.9.6-1.5 1.6-1.6v-.2c-.8-.1-1.2-.8-1.2-1.5 0-.9.8-1.3 1.6-1.5v-.1c-1-.5-1.5-1.3-1.5-2.4 0-1.7 1.2-2.8 3.6-2.8.5 0 1 0 1.4.2v-.3c0-.9.5-1.3 1.3-1.3h1.3v1.8h-1.9v.1c1 .5 1.4 1.3 1.4 2.4 0 1.7-1.2 2.8-3.6 2.8-.6 0-1.1-.1-1.5-.2-.2.1-.4.4-.4.7 0 .4.3.6 1 .6h2.4c2 0 2.9.9 2.9 2.4.2 1.9-.9 2.9-4.4 2.9zm1.1-3.2h-2.9c-.2.2-.3.5-.3.8 0 .6.5.9 1.8.9h1c1.3 0 1.8-.3 1.8-.9-.1-.5-.5-.8-1.4-.8zm.4-5.9v-.2c0-.7-.5-1.2-1.4-1.2-.9 0-1.4.4-1.4 1.2v.2c0 .7.5 1.2 1.4 1.2.9 0 1.4-.4 1.4-1.2zM256.9 23.8c0-2.7 1.5-4.4 3.9-4.4s3.9 1.7 3.9 4.4-1.5 4.4-3.9 4.4-3.9-1.7-3.9-4.4zm5.4.9V23c0-1.1-.5-1.7-1.5-1.7s-1.5.6-1.5 1.7v1.7c0 1.1.5 1.7 1.5 1.7s1.5-.7 1.5-1.7zM269.3 28c-1.6 0-2.5-.8-2.5-2.4v-4.1h-1.2v-1.8h.6c.6 0 .8-.3.8-.9v-1.4h2.1v2.3h1.7v1.8h-1.7v4.7h1.5V28h-1.3zM275.6 26.7l1.4-1.4c.6.7 1.3 1.1 2.2 1.1.9 0 1.2-.3 1.2-.8 0-.4-.3-.6-.8-.7l-.9-.1c-1.9-.2-2.8-1.1-2.8-2.6 0-1.6 1.3-2.7 3.3-2.7 1.8 0 2.6.5 3.4 1.3l-1.4 1.4c-.5-.5-1.2-.9-1.9-.9-.8 0-1.1.3-1.1.7 0 .4.2.7.9.8l.9.1c1.8.2 2.8 1.1 2.8 2.5 0 1.6-1.4 2.8-3.6 2.8-1.7 0-2.7-.5-3.6-1.5zM284.1 17.6v-.4c0-.7.4-1.2 1.4-1.2 1 0 1.4.5 1.4 1.2v.4c0 .7-.4 1.2-1.4 1.2-.9-.1-1.4-.6-1.4-1.2zm.2 2h2.4V28h-2.4v-8.4zM288.9 28v-8.4h2.4V21h.1c.3-.9 1-1.6 2.3-1.6 1.2 0 2 .6 2.4 1.7.3-.9 1.3-1.7 2.6-1.7 1.6 0 2.5 1.2 2.5 3.3V28h-2.4v-5.1c0-1.1-.4-1.6-1.2-1.6-.7 0-1.4.4-1.4 1.2V28h-2.4v-5.1c0-1.1-.4-1.6-1.2-1.6-.7 0-1.4.4-1.4 1.2V28h-2.3zM303.2 19.6h2.4V21h.1c.2-.9 1.2-1.6 2.3-1.6 2.1 0 3.2 1.5 3.2 4.4 0 2.8-1.1 4.4-3.2 4.4-1.1 0-2-.7-2.3-1.6h-.1v4.6h-2.4V19.6zm5.5 4.9V23c0-1.1-.7-1.7-1.6-1.7s-1.6.5-1.6 1.2V25c0 .8.7 1.2 1.6 1.2s1.6-.6 1.6-1.7zM315.3 28c-1.6 0-2.4-.8-2.4-2.3v-9.5h2.4v10h1.1V28h-1.1zM317.3 23.8c0-2.7 1.4-4.4 3.9-4.4 2.8 0 3.9 2 3.9 4.3v.7h-5.4v.1c0 1.1.6 1.8 1.9 1.8 1 0 1.5-.5 2.1-1l1.2 1.5c-.8.9-2 1.4-3.5 1.4-2.7 0-4.1-1.7-4.1-4.4zm2.4-.9v.1h2.9v-.1c0-1-.5-1.7-1.4-1.7s-1.5.7-1.5 1.7zM326.8 28v-8.4h2.4v1.8h.1c.2-.9.8-1.8 2.1-1.8h.4v2.2h-.6c-1.4 0-2 .3-2 1.3V28h-2.4zM343.2 28c-.8 0-1.5-.6-1.6-1.5h-.1c-.3 1.1-1.2 1.7-2.5 1.7-1.7 0-2.6-1-2.6-2.4 0-1.8 1.4-2.6 3.6-2.6h1.3v-.5c0-.8-.4-1.3-1.4-1.3-.9 0-1.4.5-1.8 1l-1.4-1.2c.7-1 1.6-1.6 3.4-1.6 2.4 0 3.6 1.1 3.6 3.1v3.7h.8V28h-1.3zm-1.8-2.5v-1h-1.2c-.9 0-1.4.3-1.4.9v.2c0 .6.4.9 1.1.9.8.1 1.5-.3 1.5-1zM346.1 28v-8.4h2.4V21h.1c.3-.9 1-1.6 2.3-1.6 1.7 0 2.6 1.2 2.6 3.3V28h-2.4v-5.1c0-1.1-.3-1.6-1.2-1.6-.8 0-1.5.4-1.5 1.2V28h-2.3zM360.8 26.6c-.3.9-1.2 1.6-2.3 1.6-2.1 0-3.2-1.6-3.2-4.4 0-2.8 1.1-4.4 3.2-4.4 1.1 0 2 .7 2.3 1.6h.1v-4.9h2.4V28h-2.4v-1.4zm0-1.5v-2.5c0-.8-.7-1.2-1.6-1.2s-1.6.7-1.6 1.7v1.5c0 1.1.7 1.7 1.6 1.7s1.6-.5 1.6-1.2zM369.2 16.2h2.4V21h.1c.2-.9 1.2-1.6 2.3-1.6 2.1 0 3.2 1.5 3.2 4.4 0 2.8-1.1 4.4-3.2 4.4-1.1 0-2-.7-2.3-1.6h-.1V28h-2.4V16.2zm5.4 8.3V23c0-1.1-.7-1.7-1.6-1.7s-1.6.5-1.6 1.2V25c0 .8.7 1.2 1.6 1.2s1.6-.6 1.6-1.7zM378.4 23.8c0-2.7 1.4-4.4 3.9-4.4 2.8 0 3.9 2 3.9 4.3v.7h-5.4v.1c0 1.1.6 1.8 1.9 1.8 1 0 1.5-.5 2.1-1l1.2 1.5c-.8.9-2 1.4-3.5 1.4-2.7 0-4.1-1.7-4.1-4.4zm2.4-.9v.1h2.9v-.1c0-1-.5-1.7-1.4-1.7s-1.5.7-1.5 1.7zM390.8 28c-1.6 0-2.5-.8-2.5-2.4v-4.1h-1.2v-1.8h.6c.6 0 .8-.3.8-.9v-1.4h2.1v2.3h1.7v1.8h-1.7v4.7h1.5V28h-1.3zM396.9 28c-1.6 0-2.5-.8-2.5-2.4v-4.1h-1.2v-1.8h.6c.6 0 .8-.3.8-.9v-1.4h2.1v2.3h1.7v1.8h-1.7v4.7h1.5V28h-1.3zM399.5 23.8c0-2.7 1.4-4.4 3.9-4.4 2.8 0 3.9 2 3.9 4.3v.7h-5.4v.1c0 1.1.6 1.8 1.9 1.8 1 0 1.5-.5 2.1-1l1.2 1.5c-.8.9-2 1.4-3.5 1.4-2.7 0-4.1-1.7-4.1-4.4zm2.4-.9v.1h2.9v-.1c0-1-.5-1.7-1.4-1.7s-1.5.7-1.5 1.7zM409 28v-8.4h2.4v1.8h.1c.2-.9.8-1.8 2.1-1.8h.4v2.2h-.6c-1.4 0-2 .3-2 1.3V28H409z"/><path d="M435 45l124.9.2c2.8 0 5.1-2.3 5.1-5.1V5.5c0-2.8-2.3-5.1-5.1-5.1H435v8.4c0 .5-.2 1-.5 1.4l-5.2 6.4c-.3.4-.8.9-.8 1.4v9.4c0 .5.2 1 .5 1.4l5.5 6.5c.3.4.5.9.5 1.4V45z" fill="#ff444f"/><g><path class="st0" d="M447.2 20.5v7.3h-2v-7.3h-2.5v-1.8h6.9v1.8h-2.4zM450.9 27.8V21h1.9v1.5h.1c0-.2.1-.4.2-.6.1-.2.2-.3.3-.5.1-.1.3-.2.5-.3.2-.1.4-.1.7-.1h.3v1.8h-.5c-.6 0-1 .1-1.3.2s-.4.4-.4.8v4h-1.8zM460.3 21h1.8l-2.6 7.9c-.2.5-.4.9-.7 1.2-.3.3-.8.4-1.4.4h-1.2V29h1.3l.2-.8-2.4-7.2h1.9l1 3.2.5 2h.1l.5-2 1-3.2zM466.2 18.7h3.4c.6 0 1.1.1 1.6.3.5.2.9.5 1.3.9s.6.8.8 1.4.3 1.2.3 2-.1 1.4-.3 2c-.2.6-.5 1-.8 1.4s-.8.7-1.3.9c-.5.2-1 .3-1.6.3h-3.4v-9.2zm3.4 7.4c.6 0 1.1-.2 1.4-.5.3-.3.5-.9.5-1.6v-1.4c0-.7-.2-1.3-.5-1.6-.3-.3-.8-.5-1.4-.5h-1.4v5.6h1.4zM475.3 18.7h4.4c.8 0 1.3.2 1.8.6.4.4.6 1 .6 1.7 0 .3 0 .6-.1.9-.1.2-.2.4-.4.6-.2.2-.3.3-.5.3-.2.1-.4.1-.7.1v.1c.2 0 .4 0 .7.1.2.1.5.2.7.4s.4.4.5.7c.1.3.2.6.2 1s-.1.7-.2 1-.3.6-.5.8-.5.4-.7.6c-.3.1-.6.2-.9.2h-4.8v-9.1zm2 3.8h2c.3 0 .5-.1.6-.2s.2-.4.2-.6v-.4c0-.3-.1-.5-.2-.6-.1-.1-.4-.2-.6-.2h-2v2zm0 3.7h2.3c.3 0 .5-.1.6-.2.2-.1.2-.3.2-.6V25c0-.3-.1-.5-.2-.6-.2-.1-.4-.2-.6-.2h-2.3v2zM486.6 28c-.5 0-1-.1-1.3-.2-.4-.2-.7-.4-1-.7-.3-.3-.5-.7-.6-1.1-.1-.4-.2-.9-.2-1.5s.1-1 .2-1.5c.1-.4.4-.8.6-1.1.3-.3.6-.5 1-.7.4-.2.8-.2 1.3-.2s1 .1 1.3.2c.4.2.7.4 1 .7.3.3.5.7.6 1.1.1.4.2.9.2 1.5s-.1 1-.2 1.5c-.1.4-.4.8-.6 1.1-.3.3-.6.5-1 .7-.3.1-.8.2-1.3.2zm0-1.6c.4 0 .7-.1.9-.4.2-.2.3-.6.3-1v-1.4c0-.4-.1-.8-.3-1-.2-.2-.5-.4-.9-.4s-.7.1-.9.4c-.2.2-.3.6-.3 1V25c0 .4.1.8.3 1 .3.3.5.4.9.4zM493.6 27.8c-.7 0-1.2-.2-1.5-.5s-.5-.8-.5-1.5v-3.3h-1V21h.5c.3 0 .4-.1.5-.2.1-.1.1-.3.1-.5v-1.1h1.7V21h1.4v1.5h-1.4v3.8h1.2v1.5h-1zM502 28c-.5 0-1-.1-1.3-.2-.4-.2-.7-.4-1-.7-.3-.3-.5-.7-.6-1.1-.1-.4-.2-.9-.2-1.5s.1-1 .2-1.5c.1-.4.4-.8.6-1.1.3-.3.6-.5 1-.7.4-.2.8-.2 1.3-.2s1 .1 1.3.2c.4.2.7.4 1 .7.3.3.5.7.6 1.1.1.4.2.9.2 1.5s-.1 1-.2 1.5c-.1.4-.4.8-.6 1.1-.3.3-.6.5-1 .7-.3.1-.8.2-1.3.2zm0-1.6c.4 0 .7-.1.9-.4.2-.2.3-.6.3-1v-1.4c0-.4-.1-.8-.3-1-.2-.2-.5-.4-.9-.4s-.7.1-.9.4c-.2.2-.3.6-.3 1V25c0 .4.1.8.3 1 .2.3.5.4.9.4zM506.6 27.8V21h1.9v1.2h.1c.1-.4.3-.7.6-.9.3-.3.7-.4 1.3-.4.7 0 1.2.2 1.6.7.4.5.5 1.1.5 2v4.3h-1.9v-4.1c0-.4-.1-.8-.2-1-.1-.2-.4-.3-.7-.3-.2 0-.3 0-.5.1s-.3.1-.4.2l-.3.3c-.1.1-.1.3-.1.4v4.4h-1.9zM517.5 18.7h3.4c.6 0 1.1.1 1.6.3.5.2.9.5 1.3.9s.6.8.8 1.4.3 1.2.3 2-.1 1.4-.3 2c-.2.6-.5 1-.8 1.4s-.8.7-1.3.9c-.5.2-1 .3-1.6.3h-3.4v-9.2zm3.4 7.4c.6 0 1.1-.2 1.4-.5.3-.3.5-.9.5-1.6v-1.4c0-.7-.2-1.3-.5-1.6-.3-.3-.8-.5-1.4-.5h-1.4v5.6h1.4zM529.3 28c-.5 0-1-.1-1.4-.3-.4-.2-.8-.4-1-.7s-.5-.7-.6-1.1c-.1-.4-.2-.9-.2-1.5 0-.5.1-1 .2-1.5.1-.4.3-.8.6-1.1.3-.3.6-.6 1-.7s.9-.3 1.4-.3c.6 0 1 .1 1.4.3.4.2.7.4 1 .8s.4.7.6 1.1c.1.4.2.9.2 1.3v.6H528v.1c0 .4.1.8.4 1.1.2.3.6.4 1.1.4.4 0 .7-.1 1-.2.3-.2.5-.4.7-.6l1 1.2c-.3.4-.7.6-1.2.8-.5.2-1.1.3-1.7.3zm0-5.7c-.4 0-.7.1-.9.4-.2.3-.3.6-.3 1v.1h2.4v-.1c0-.4-.1-.8-.3-1-.3-.3-.6-.4-.9-.4zM533.8 27.8V21h1.9v1.5h.1c0-.2.1-.4.2-.6.1-.2.2-.3.3-.5.1-.1.3-.2.5-.3.2-.1.4-.1.7-.1h.3v1.8h-.5c-.6 0-1 .1-1.3.2s-.4.4-.4.8v4h-1.8zM540 20.3c-.4 0-.7-.1-.9-.3-.2-.2-.3-.4-.3-.7V19c0-.3.1-.5.3-.7.2-.2.5-.3.9-.3s.7.1.9.3c.2.2.3.4.3.7v.3c0 .3-.1.5-.3.7-.3.2-.5.3-.9.3zm-1 .7h1.9v6.8H539V21zM544.2 27.8L542 21h1.9l.8 2.8.6 2.5h.1l.6-2.5.8-2.8h1.8l-2.2 6.8h-2.2z"/></g></g></svg>